G04 #@! TF.GenerationSoftware,KiCad,Pcbnew,5.1.4-e60b266~84~ubuntu18.04.1*
G04 #@! TF.CreationDate,2019-11-14T17:11:49-08:00*
G04 #@! TF.ProjectId,VehicleAccessoryControllerTestBoard,56656869-636c-4654-9163-636573736f72,0.0*
G04 #@! TF.SameCoordinates,PX7829b80PY4c4b400*
G04 #@! TF.FileFunction,Legend,Top*
G04 #@! TF.FilePolarity,Positive*
%FSLAX46Y46*%
G04 Gerber Fmt 4.6, Leading zero omitted, Abs format (unit mm)*
G04 Created by KiCad (PCBNEW 5.1.4-e60b266~84~ubuntu18.04.1) date 2019-11-14 17:11:49*
%MOMM*%
%LPD*%
G04 APERTURE LIST*
%ADD10C,0.150000*%
%ADD11C,0.120000*%
%ADD12C,0.100000*%
%ADD13C,0.125000*%
G04 APERTURE END LIST*
D10*
X14250000Y-34250000D02*
X15750000Y-34250000D01*
X15750000Y-34250000D02*
X15750000Y-35750000D01*
X15750000Y-35750000D02*
X14250000Y-35750000D01*
X14250000Y-35750000D02*
X14250000Y-34250000D01*
X14620000Y-36300000D02*
G75*
G03X14620000Y-36300000I-120000J0D01*
G01*
D11*
X36220000Y1330000D02*
X36220000Y0D01*
X34890000Y1330000D02*
X36220000Y1330000D01*
X33620000Y1330000D02*
X33620000Y-1330000D01*
X33620000Y-1330000D02*
X15780000Y-1330000D01*
X33620000Y1330000D02*
X15780000Y1330000D01*
X15780000Y1330000D02*
X15780000Y-1330000D01*
D10*
X15050000Y-6550000D02*
X18950000Y-6550000D01*
X18950000Y-6550000D02*
X18950000Y-11450000D01*
X18950000Y-11450000D02*
X15050000Y-11450000D01*
X15050000Y-11450000D02*
X15050000Y-6550000D01*
X13150000Y-7095000D02*
G75*
G03X13150000Y-7095000I-150000J0D01*
G01*
X16650000Y-37400000D02*
X17350000Y-37400000D01*
X17350000Y-38600000D02*
X16650000Y-38600000D01*
X16650000Y-3400000D02*
X17350000Y-3400000D01*
X17350000Y-4600000D02*
X16650000Y-4600000D01*
X31750000Y-22400000D02*
X32450000Y-22400000D01*
X32450000Y-23600000D02*
X31750000Y-23600000D01*
X31750000Y-24400000D02*
X32450000Y-24400000D01*
X32450000Y-25600000D02*
X31750000Y-25600000D01*
X31750000Y-26400000D02*
X32450000Y-26400000D01*
X32450000Y-27600000D02*
X31750000Y-27600000D01*
X32450000Y-29600000D02*
X31750000Y-29600000D01*
X31750000Y-28400000D02*
X32450000Y-28400000D01*
X33600000Y-33650000D02*
X33600000Y-34350000D01*
X32400000Y-34350000D02*
X32400000Y-33650000D01*
X22300000Y-27650000D02*
X22300000Y-28350000D01*
X21100000Y-28350000D02*
X21100000Y-27650000D01*
X17650000Y-24400000D02*
X18350000Y-24400000D01*
X18350000Y-25600000D02*
X17650000Y-25600000D01*
X13650000Y-24400000D02*
X14350000Y-24400000D01*
X14350000Y-25600000D02*
X13650000Y-25600000D01*
D12*
X33700000Y-5000000D02*
X34000000Y-5000000D01*
X34000000Y-4700000D02*
X34000000Y-5300000D01*
X34300000Y-5300000D02*
X34000000Y-5000000D01*
X34300000Y-4700000D02*
X34300000Y-5300000D01*
X34000000Y-5000000D02*
X34300000Y-4700000D01*
D10*
X33500000Y-4320000D02*
X34500000Y-4320000D01*
X34500000Y-5680000D02*
X33500000Y-5680000D01*
X34500000Y-13680000D02*
X33500000Y-13680000D01*
X33500000Y-12320000D02*
X34500000Y-12320000D01*
D12*
X34000000Y-13000000D02*
X34300000Y-12700000D01*
X34300000Y-12700000D02*
X34300000Y-13300000D01*
X34300000Y-13300000D02*
X34000000Y-13000000D01*
X34000000Y-12700000D02*
X34000000Y-13300000D01*
X33700000Y-13000000D02*
X34000000Y-13000000D01*
X33700000Y-10000000D02*
X34000000Y-10000000D01*
X34000000Y-9700000D02*
X34000000Y-10300000D01*
X34300000Y-10300000D02*
X34000000Y-10000000D01*
X34300000Y-9700000D02*
X34300000Y-10300000D01*
X34000000Y-10000000D02*
X34300000Y-9700000D01*
D10*
X33500000Y-9320000D02*
X34500000Y-9320000D01*
X34500000Y-10680000D02*
X33500000Y-10680000D01*
D11*
X24800000Y-29550000D02*
X27200000Y-29550000D01*
X27200000Y-26450000D02*
X24250000Y-26450000D01*
D10*
X-2000000Y-2494300D02*
X5620000Y-2494300D01*
X5620000Y-2494300D02*
X5620000Y-17505700D01*
X5620000Y-17505700D02*
X-2000000Y-17505700D01*
X-2000000Y-17505700D02*
X-2000000Y-2494300D01*
X4700000Y-2494300D02*
X4700000Y-17505700D01*
X46300000Y-17505700D02*
X46300000Y-2494300D01*
X53000000Y-2494300D02*
X53000000Y-17505700D01*
X45380000Y-2494300D02*
X53000000Y-2494300D01*
X45380000Y-17505700D02*
X45380000Y-2494300D01*
X53000000Y-17505700D02*
X45380000Y-17505700D01*
X53000000Y-38505700D02*
X45380000Y-38505700D01*
X45380000Y-38505700D02*
X45380000Y-23494300D01*
X45380000Y-23494300D02*
X53000000Y-23494300D01*
X53000000Y-23494300D02*
X53000000Y-38505700D01*
X46300000Y-38505700D02*
X46300000Y-23494300D01*
D11*
X41760000Y-8580000D02*
X40300000Y-8580000D01*
X41760000Y-5420000D02*
X39600000Y-5420000D01*
X41760000Y-5420000D02*
X41760000Y-6350000D01*
X41760000Y-8580000D02*
X41760000Y-7650000D01*
X41760000Y-29580000D02*
X41760000Y-28650000D01*
X41760000Y-26420000D02*
X41760000Y-27350000D01*
X41760000Y-26420000D02*
X39600000Y-26420000D01*
X41760000Y-29580000D02*
X40300000Y-29580000D01*
D10*
X12500000Y-31320000D02*
X13500000Y-31320000D01*
X13500000Y-32680000D02*
X12500000Y-32680000D01*
X17500000Y-32680000D02*
X16500000Y-32680000D01*
X16500000Y-31320000D02*
X17500000Y-31320000D01*
X13500000Y-38680000D02*
X12500000Y-38680000D01*
X12500000Y-37320000D02*
X13500000Y-37320000D01*
X30500000Y-5680000D02*
X29500000Y-5680000D01*
X29500000Y-4320000D02*
X30500000Y-4320000D01*
X39500000Y-10680000D02*
X38500000Y-10680000D01*
X38500000Y-9320000D02*
X39500000Y-9320000D01*
X38500000Y-30320000D02*
X39500000Y-30320000D01*
X39500000Y-31680000D02*
X38500000Y-31680000D01*
X39500000Y-13680000D02*
X38500000Y-13680000D01*
X38500000Y-12320000D02*
X39500000Y-12320000D01*
X38500000Y-33320000D02*
X39500000Y-33320000D01*
X39500000Y-34680000D02*
X38500000Y-34680000D01*
X43500000Y-10680000D02*
X42500000Y-10680000D01*
X42500000Y-9320000D02*
X43500000Y-9320000D01*
X42500000Y-30320000D02*
X43500000Y-30320000D01*
X43500000Y-31680000D02*
X42500000Y-31680000D01*
X42500000Y-12320000D02*
X43500000Y-12320000D01*
X43500000Y-13680000D02*
X42500000Y-13680000D01*
X42500000Y-33320000D02*
X43500000Y-33320000D01*
X43500000Y-34680000D02*
X42500000Y-34680000D01*
X10320000Y-9500000D02*
X10320000Y-8500000D01*
X11680000Y-8500000D02*
X11680000Y-9500000D01*
X22320000Y-10500000D02*
X22320000Y-9500000D01*
X23680000Y-9500000D02*
X23680000Y-10500000D01*
X22320000Y-7500000D02*
X22320000Y-6500000D01*
X23680000Y-6500000D02*
X23680000Y-7500000D01*
X33680000Y-37500000D02*
X33680000Y-38500000D01*
X32320000Y-38500000D02*
X32320000Y-37500000D01*
X32600000Y-18180000D02*
X31600000Y-18180000D01*
X31600000Y-16820000D02*
X32600000Y-16820000D01*
X30500000Y-13680000D02*
X29500000Y-13680000D01*
X29500000Y-12320000D02*
X30500000Y-12320000D01*
X29500000Y-9320000D02*
X30500000Y-9320000D01*
X30500000Y-10680000D02*
X29500000Y-10680000D01*
X30420000Y-20500000D02*
X30420000Y-19500000D01*
X31780000Y-19500000D02*
X31780000Y-20500000D01*
X32420000Y-20500000D02*
X32420000Y-19500000D01*
X33780000Y-19500000D02*
X33780000Y-20500000D01*
X8000000Y-30935000D02*
X8000000Y-39065000D01*
X8000000Y-39065000D02*
X-1270000Y-39065000D01*
X-1270000Y-39065000D02*
X-1270000Y-30935000D01*
X-1270000Y-30935000D02*
X8000000Y-30935000D01*
X9200000Y-38640000D02*
G75*
G03X9200000Y-38640000I-100000J0D01*
G01*
D11*
X23890000Y-18365000D02*
X23890000Y-17890000D01*
X23890000Y-17890000D02*
X24365000Y-17890000D01*
X28110000Y-21635000D02*
X28110000Y-22110000D01*
X28110000Y-22110000D02*
X27635000Y-22110000D01*
X28110000Y-18365000D02*
X28110000Y-17890000D01*
X28110000Y-17890000D02*
X27635000Y-17890000D01*
X23890000Y-21635000D02*
X23890000Y-22110000D01*
X16000000Y-17440000D02*
X14050000Y-17440000D01*
X16000000Y-17440000D02*
X17950000Y-17440000D01*
X16000000Y-22560000D02*
X14050000Y-22560000D01*
X16000000Y-22560000D02*
X19450000Y-22560000D01*
D10*
X23800000Y-31900000D02*
G75*
G03X23800000Y-31900000I-100000J0D01*
G01*
X22150000Y-41880000D02*
X22150000Y-32680000D01*
X29850000Y-41880000D02*
X22150000Y-41880000D01*
X29850000Y-32680000D02*
X29850000Y-41880000D01*
X22150000Y-32680000D02*
X29850000Y-32680000D01*
D11*
X-1330000Y-26870000D02*
X1330000Y-26870000D01*
X-1330000Y-24270000D02*
X-1330000Y-26870000D01*
X1330000Y-24270000D02*
X1330000Y-26870000D01*
X-1330000Y-24270000D02*
X1330000Y-24270000D01*
X-1330000Y-23000000D02*
X-1330000Y-21670000D01*
X-1330000Y-21670000D02*
X0Y-21670000D01*
D10*
X10485714Y-34452380D02*
X10485714Y-35261904D01*
X10533333Y-35357142D01*
X10580952Y-35404761D01*
X10676190Y-35452380D01*
X10866666Y-35452380D01*
X10961904Y-35404761D01*
X11009523Y-35357142D01*
X11057142Y-35261904D01*
X11057142Y-34452380D01*
X12057142Y-35452380D02*
X11485714Y-35452380D01*
X11771428Y-35452380D02*
X11771428Y-34452380D01*
X11676190Y-34595238D01*
X11580952Y-34690476D01*
X11485714Y-34738095D01*
X12676190Y-34452380D02*
X12771428Y-34452380D01*
X12866666Y-34500000D01*
X12914285Y-34547619D01*
X12961904Y-34642857D01*
X13009523Y-34833333D01*
X13009523Y-35071428D01*
X12961904Y-35261904D01*
X12914285Y-35357142D01*
X12866666Y-35404761D01*
X12771428Y-35452380D01*
X12676190Y-35452380D01*
X12580952Y-35404761D01*
X12533333Y-35357142D01*
X12485714Y-35261904D01*
X12438095Y-35071428D01*
X12438095Y-34833333D01*
X12485714Y-34642857D01*
X12533333Y-34547619D01*
X12580952Y-34500000D01*
X12676190Y-34452380D01*
X13342857Y-34452380D02*
X13961904Y-34452380D01*
X13628571Y-34833333D01*
X13771428Y-34833333D01*
X13866666Y-34880952D01*
X13914285Y-34928571D01*
X13961904Y-35023809D01*
X13961904Y-35261904D01*
X13914285Y-35357142D01*
X13866666Y-35404761D01*
X13771428Y-35452380D01*
X13485714Y-35452380D01*
X13390476Y-35404761D01*
X13342857Y-35357142D01*
X37112380Y-1285714D02*
X37826666Y-1285714D01*
X37969523Y-1333333D01*
X38064761Y-1428571D01*
X38112380Y-1571428D01*
X38112380Y-1666666D01*
X37112380Y-333333D02*
X37112380Y-809523D01*
X37588571Y-857142D01*
X37540952Y-809523D01*
X37493333Y-714285D01*
X37493333Y-476190D01*
X37540952Y-380952D01*
X37588571Y-333333D01*
X37683809Y-285714D01*
X37921904Y-285714D01*
X38017142Y-333333D01*
X38064761Y-380952D01*
X38112380Y-476190D01*
X38112380Y-714285D01*
X38064761Y-809523D01*
X38017142Y-857142D01*
X37112380Y333334D02*
X37112380Y428572D01*
X37160000Y523810D01*
X37207619Y571429D01*
X37302857Y619048D01*
X37493333Y666667D01*
X37731428Y666667D01*
X37921904Y619048D01*
X38017142Y571429D01*
X38064761Y523810D01*
X38112380Y428572D01*
X38112380Y333334D01*
X38064761Y238096D01*
X38017142Y190477D01*
X37921904Y142858D01*
X37731428Y95239D01*
X37493333Y95239D01*
X37302857Y142858D01*
X37207619Y190477D01*
X37160000Y238096D01*
X37112380Y333334D01*
X37540952Y1238096D02*
X37493333Y1142858D01*
X37445714Y1095239D01*
X37350476Y1047620D01*
X37302857Y1047620D01*
X37207619Y1095239D01*
X37160000Y1142858D01*
X37112380Y1238096D01*
X37112380Y1428572D01*
X37160000Y1523810D01*
X37207619Y1571429D01*
X37302857Y1619048D01*
X37350476Y1619048D01*
X37445714Y1571429D01*
X37493333Y1523810D01*
X37540952Y1428572D01*
X37540952Y1238096D01*
X37588571Y1142858D01*
X37636190Y1095239D01*
X37731428Y1047620D01*
X37921904Y1047620D01*
X38017142Y1095239D01*
X38064761Y1142858D01*
X38112380Y1238096D01*
X38112380Y1428572D01*
X38064761Y1523810D01*
X38017142Y1571429D01*
X37921904Y1619048D01*
X37731428Y1619048D01*
X37636190Y1571429D01*
X37588571Y1523810D01*
X37540952Y1428572D01*
X15285714Y-12252380D02*
X15285714Y-13061904D01*
X15333333Y-13157142D01*
X15380952Y-13204761D01*
X15476190Y-13252380D01*
X15666666Y-13252380D01*
X15761904Y-13204761D01*
X15809523Y-13157142D01*
X15857142Y-13061904D01*
X15857142Y-12252380D01*
X16857142Y-13252380D02*
X16285714Y-13252380D01*
X16571428Y-13252380D02*
X16571428Y-12252380D01*
X16476190Y-12395238D01*
X16380952Y-12490476D01*
X16285714Y-12538095D01*
X17476190Y-12252380D02*
X17571428Y-12252380D01*
X17666666Y-12300000D01*
X17714285Y-12347619D01*
X17761904Y-12442857D01*
X17809523Y-12633333D01*
X17809523Y-12871428D01*
X17761904Y-13061904D01*
X17714285Y-13157142D01*
X17666666Y-13204761D01*
X17571428Y-13252380D01*
X17476190Y-13252380D01*
X17380952Y-13204761D01*
X17333333Y-13157142D01*
X17285714Y-13061904D01*
X17238095Y-12871428D01*
X17238095Y-12633333D01*
X17285714Y-12442857D01*
X17333333Y-12347619D01*
X17380952Y-12300000D01*
X17476190Y-12252380D01*
X18666666Y-12585714D02*
X18666666Y-13252380D01*
X18428571Y-12204761D02*
X18190476Y-12919047D01*
X18809523Y-12919047D01*
D13*
X16440476Y-39578571D02*
X16416666Y-39602380D01*
X16345238Y-39626190D01*
X16297619Y-39626190D01*
X16226190Y-39602380D01*
X16178571Y-39554761D01*
X16154761Y-39507142D01*
X16130952Y-39411904D01*
X16130952Y-39340476D01*
X16154761Y-39245238D01*
X16178571Y-39197619D01*
X16226190Y-39150000D01*
X16297619Y-39126190D01*
X16345238Y-39126190D01*
X16416666Y-39150000D01*
X16440476Y-39173809D01*
X16726190Y-39340476D02*
X16678571Y-39316666D01*
X16654761Y-39292857D01*
X16630952Y-39245238D01*
X16630952Y-39221428D01*
X16654761Y-39173809D01*
X16678571Y-39150000D01*
X16726190Y-39126190D01*
X16821428Y-39126190D01*
X16869047Y-39150000D01*
X16892857Y-39173809D01*
X16916666Y-39221428D01*
X16916666Y-39245238D01*
X16892857Y-39292857D01*
X16869047Y-39316666D01*
X16821428Y-39340476D01*
X16726190Y-39340476D01*
X16678571Y-39364285D01*
X16654761Y-39388095D01*
X16630952Y-39435714D01*
X16630952Y-39530952D01*
X16654761Y-39578571D01*
X16678571Y-39602380D01*
X16726190Y-39626190D01*
X16821428Y-39626190D01*
X16869047Y-39602380D01*
X16892857Y-39578571D01*
X16916666Y-39530952D01*
X16916666Y-39435714D01*
X16892857Y-39388095D01*
X16869047Y-39364285D01*
X16821428Y-39340476D01*
X17226190Y-39126190D02*
X17273809Y-39126190D01*
X17321428Y-39150000D01*
X17345238Y-39173809D01*
X17369047Y-39221428D01*
X17392857Y-39316666D01*
X17392857Y-39435714D01*
X17369047Y-39530952D01*
X17345238Y-39578571D01*
X17321428Y-39602380D01*
X17273809Y-39626190D01*
X17226190Y-39626190D01*
X17178571Y-39602380D01*
X17154761Y-39578571D01*
X17130952Y-39530952D01*
X17107142Y-39435714D01*
X17107142Y-39316666D01*
X17130952Y-39221428D01*
X17154761Y-39173809D01*
X17178571Y-39150000D01*
X17226190Y-39126190D01*
X17821428Y-39292857D02*
X17821428Y-39626190D01*
X17702380Y-39102380D02*
X17583333Y-39459523D01*
X17892857Y-39459523D01*
X16440476Y-2878571D02*
X16416666Y-2902380D01*
X16345238Y-2926190D01*
X16297619Y-2926190D01*
X16226190Y-2902380D01*
X16178571Y-2854761D01*
X16154761Y-2807142D01*
X16130952Y-2711904D01*
X16130952Y-2640476D01*
X16154761Y-2545238D01*
X16178571Y-2497619D01*
X16226190Y-2450000D01*
X16297619Y-2426190D01*
X16345238Y-2426190D01*
X16416666Y-2450000D01*
X16440476Y-2473809D01*
X16726190Y-2640476D02*
X16678571Y-2616666D01*
X16654761Y-2592857D01*
X16630952Y-2545238D01*
X16630952Y-2521428D01*
X16654761Y-2473809D01*
X16678571Y-2450000D01*
X16726190Y-2426190D01*
X16821428Y-2426190D01*
X16869047Y-2450000D01*
X16892857Y-2473809D01*
X16916666Y-2521428D01*
X16916666Y-2545238D01*
X16892857Y-2592857D01*
X16869047Y-2616666D01*
X16821428Y-2640476D01*
X16726190Y-2640476D01*
X16678571Y-2664285D01*
X16654761Y-2688095D01*
X16630952Y-2735714D01*
X16630952Y-2830952D01*
X16654761Y-2878571D01*
X16678571Y-2902380D01*
X16726190Y-2926190D01*
X16821428Y-2926190D01*
X16869047Y-2902380D01*
X16892857Y-2878571D01*
X16916666Y-2830952D01*
X16916666Y-2735714D01*
X16892857Y-2688095D01*
X16869047Y-2664285D01*
X16821428Y-2640476D01*
X17226190Y-2426190D02*
X17273809Y-2426190D01*
X17321428Y-2450000D01*
X17345238Y-2473809D01*
X17369047Y-2521428D01*
X17392857Y-2616666D01*
X17392857Y-2735714D01*
X17369047Y-2830952D01*
X17345238Y-2878571D01*
X17321428Y-2902380D01*
X17273809Y-2926190D01*
X17226190Y-2926190D01*
X17178571Y-2902380D01*
X17154761Y-2878571D01*
X17130952Y-2830952D01*
X17107142Y-2735714D01*
X17107142Y-2616666D01*
X17130952Y-2521428D01*
X17154761Y-2473809D01*
X17178571Y-2450000D01*
X17226190Y-2426190D01*
X17845238Y-2426190D02*
X17607142Y-2426190D01*
X17583333Y-2664285D01*
X17607142Y-2640476D01*
X17654761Y-2616666D01*
X17773809Y-2616666D01*
X17821428Y-2640476D01*
X17845238Y-2664285D01*
X17869047Y-2711904D01*
X17869047Y-2830952D01*
X17845238Y-2878571D01*
X17821428Y-2902380D01*
X17773809Y-2926190D01*
X17654761Y-2926190D01*
X17607142Y-2902380D01*
X17583333Y-2878571D01*
X34440476Y-23178571D02*
X34416666Y-23202380D01*
X34345238Y-23226190D01*
X34297619Y-23226190D01*
X34226190Y-23202380D01*
X34178571Y-23154761D01*
X34154761Y-23107142D01*
X34130952Y-23011904D01*
X34130952Y-22940476D01*
X34154761Y-22845238D01*
X34178571Y-22797619D01*
X34226190Y-22750000D01*
X34297619Y-22726190D01*
X34345238Y-22726190D01*
X34416666Y-22750000D01*
X34440476Y-22773809D01*
X34726190Y-22940476D02*
X34678571Y-22916666D01*
X34654761Y-22892857D01*
X34630952Y-22845238D01*
X34630952Y-22821428D01*
X34654761Y-22773809D01*
X34678571Y-22750000D01*
X34726190Y-22726190D01*
X34821428Y-22726190D01*
X34869047Y-22750000D01*
X34892857Y-22773809D01*
X34916666Y-22821428D01*
X34916666Y-22845238D01*
X34892857Y-22892857D01*
X34869047Y-22916666D01*
X34821428Y-22940476D01*
X34726190Y-22940476D01*
X34678571Y-22964285D01*
X34654761Y-22988095D01*
X34630952Y-23035714D01*
X34630952Y-23130952D01*
X34654761Y-23178571D01*
X34678571Y-23202380D01*
X34726190Y-23226190D01*
X34821428Y-23226190D01*
X34869047Y-23202380D01*
X34892857Y-23178571D01*
X34916666Y-23130952D01*
X34916666Y-23035714D01*
X34892857Y-22988095D01*
X34869047Y-22964285D01*
X34821428Y-22940476D01*
X35226190Y-22726190D02*
X35273809Y-22726190D01*
X35321428Y-22750000D01*
X35345238Y-22773809D01*
X35369047Y-22821428D01*
X35392857Y-22916666D01*
X35392857Y-23035714D01*
X35369047Y-23130952D01*
X35345238Y-23178571D01*
X35321428Y-23202380D01*
X35273809Y-23226190D01*
X35226190Y-23226190D01*
X35178571Y-23202380D01*
X35154761Y-23178571D01*
X35130952Y-23130952D01*
X35107142Y-23035714D01*
X35107142Y-22916666D01*
X35130952Y-22821428D01*
X35154761Y-22773809D01*
X35178571Y-22750000D01*
X35226190Y-22726190D01*
X35821428Y-22726190D02*
X35726190Y-22726190D01*
X35678571Y-22750000D01*
X35654761Y-22773809D01*
X35607142Y-22845238D01*
X35583333Y-22940476D01*
X35583333Y-23130952D01*
X35607142Y-23178571D01*
X35630952Y-23202380D01*
X35678571Y-23226190D01*
X35773809Y-23226190D01*
X35821428Y-23202380D01*
X35845238Y-23178571D01*
X35869047Y-23130952D01*
X35869047Y-23011904D01*
X35845238Y-22964285D01*
X35821428Y-22940476D01*
X35773809Y-22916666D01*
X35678571Y-22916666D01*
X35630952Y-22940476D01*
X35607142Y-22964285D01*
X35583333Y-23011904D01*
X34440476Y-25178571D02*
X34416666Y-25202380D01*
X34345238Y-25226190D01*
X34297619Y-25226190D01*
X34226190Y-25202380D01*
X34178571Y-25154761D01*
X34154761Y-25107142D01*
X34130952Y-25011904D01*
X34130952Y-24940476D01*
X34154761Y-24845238D01*
X34178571Y-24797619D01*
X34226190Y-24750000D01*
X34297619Y-24726190D01*
X34345238Y-24726190D01*
X34416666Y-24750000D01*
X34440476Y-24773809D01*
X34726190Y-24940476D02*
X34678571Y-24916666D01*
X34654761Y-24892857D01*
X34630952Y-24845238D01*
X34630952Y-24821428D01*
X34654761Y-24773809D01*
X34678571Y-24750000D01*
X34726190Y-24726190D01*
X34821428Y-24726190D01*
X34869047Y-24750000D01*
X34892857Y-24773809D01*
X34916666Y-24821428D01*
X34916666Y-24845238D01*
X34892857Y-24892857D01*
X34869047Y-24916666D01*
X34821428Y-24940476D01*
X34726190Y-24940476D01*
X34678571Y-24964285D01*
X34654761Y-24988095D01*
X34630952Y-25035714D01*
X34630952Y-25130952D01*
X34654761Y-25178571D01*
X34678571Y-25202380D01*
X34726190Y-25226190D01*
X34821428Y-25226190D01*
X34869047Y-25202380D01*
X34892857Y-25178571D01*
X34916666Y-25130952D01*
X34916666Y-25035714D01*
X34892857Y-24988095D01*
X34869047Y-24964285D01*
X34821428Y-24940476D01*
X35226190Y-24726190D02*
X35273809Y-24726190D01*
X35321428Y-24750000D01*
X35345238Y-24773809D01*
X35369047Y-24821428D01*
X35392857Y-24916666D01*
X35392857Y-25035714D01*
X35369047Y-25130952D01*
X35345238Y-25178571D01*
X35321428Y-25202380D01*
X35273809Y-25226190D01*
X35226190Y-25226190D01*
X35178571Y-25202380D01*
X35154761Y-25178571D01*
X35130952Y-25130952D01*
X35107142Y-25035714D01*
X35107142Y-24916666D01*
X35130952Y-24821428D01*
X35154761Y-24773809D01*
X35178571Y-24750000D01*
X35226190Y-24726190D01*
X35559523Y-24726190D02*
X35892857Y-24726190D01*
X35678571Y-25226190D01*
X34440476Y-27178571D02*
X34416666Y-27202380D01*
X34345238Y-27226190D01*
X34297619Y-27226190D01*
X34226190Y-27202380D01*
X34178571Y-27154761D01*
X34154761Y-27107142D01*
X34130952Y-27011904D01*
X34130952Y-26940476D01*
X34154761Y-26845238D01*
X34178571Y-26797619D01*
X34226190Y-26750000D01*
X34297619Y-26726190D01*
X34345238Y-26726190D01*
X34416666Y-26750000D01*
X34440476Y-26773809D01*
X34726190Y-26940476D02*
X34678571Y-26916666D01*
X34654761Y-26892857D01*
X34630952Y-26845238D01*
X34630952Y-26821428D01*
X34654761Y-26773809D01*
X34678571Y-26750000D01*
X34726190Y-26726190D01*
X34821428Y-26726190D01*
X34869047Y-26750000D01*
X34892857Y-26773809D01*
X34916666Y-26821428D01*
X34916666Y-26845238D01*
X34892857Y-26892857D01*
X34869047Y-26916666D01*
X34821428Y-26940476D01*
X34726190Y-26940476D01*
X34678571Y-26964285D01*
X34654761Y-26988095D01*
X34630952Y-27035714D01*
X34630952Y-27130952D01*
X34654761Y-27178571D01*
X34678571Y-27202380D01*
X34726190Y-27226190D01*
X34821428Y-27226190D01*
X34869047Y-27202380D01*
X34892857Y-27178571D01*
X34916666Y-27130952D01*
X34916666Y-27035714D01*
X34892857Y-26988095D01*
X34869047Y-26964285D01*
X34821428Y-26940476D01*
X35226190Y-26726190D02*
X35273809Y-26726190D01*
X35321428Y-26750000D01*
X35345238Y-26773809D01*
X35369047Y-26821428D01*
X35392857Y-26916666D01*
X35392857Y-27035714D01*
X35369047Y-27130952D01*
X35345238Y-27178571D01*
X35321428Y-27202380D01*
X35273809Y-27226190D01*
X35226190Y-27226190D01*
X35178571Y-27202380D01*
X35154761Y-27178571D01*
X35130952Y-27130952D01*
X35107142Y-27035714D01*
X35107142Y-26916666D01*
X35130952Y-26821428D01*
X35154761Y-26773809D01*
X35178571Y-26750000D01*
X35226190Y-26726190D01*
X35678571Y-26940476D02*
X35630952Y-26916666D01*
X35607142Y-26892857D01*
X35583333Y-26845238D01*
X35583333Y-26821428D01*
X35607142Y-26773809D01*
X35630952Y-26750000D01*
X35678571Y-26726190D01*
X35773809Y-26726190D01*
X35821428Y-26750000D01*
X35845238Y-26773809D01*
X35869047Y-26821428D01*
X35869047Y-26845238D01*
X35845238Y-26892857D01*
X35821428Y-26916666D01*
X35773809Y-26940476D01*
X35678571Y-26940476D01*
X35630952Y-26964285D01*
X35607142Y-26988095D01*
X35583333Y-27035714D01*
X35583333Y-27130952D01*
X35607142Y-27178571D01*
X35630952Y-27202380D01*
X35678571Y-27226190D01*
X35773809Y-27226190D01*
X35821428Y-27202380D01*
X35845238Y-27178571D01*
X35869047Y-27130952D01*
X35869047Y-27035714D01*
X35845238Y-26988095D01*
X35821428Y-26964285D01*
X35773809Y-26940476D01*
X34440476Y-29178571D02*
X34416666Y-29202380D01*
X34345238Y-29226190D01*
X34297619Y-29226190D01*
X34226190Y-29202380D01*
X34178571Y-29154761D01*
X34154761Y-29107142D01*
X34130952Y-29011904D01*
X34130952Y-28940476D01*
X34154761Y-28845238D01*
X34178571Y-28797619D01*
X34226190Y-28750000D01*
X34297619Y-28726190D01*
X34345238Y-28726190D01*
X34416666Y-28750000D01*
X34440476Y-28773809D01*
X34726190Y-28940476D02*
X34678571Y-28916666D01*
X34654761Y-28892857D01*
X34630952Y-28845238D01*
X34630952Y-28821428D01*
X34654761Y-28773809D01*
X34678571Y-28750000D01*
X34726190Y-28726190D01*
X34821428Y-28726190D01*
X34869047Y-28750000D01*
X34892857Y-28773809D01*
X34916666Y-28821428D01*
X34916666Y-28845238D01*
X34892857Y-28892857D01*
X34869047Y-28916666D01*
X34821428Y-28940476D01*
X34726190Y-28940476D01*
X34678571Y-28964285D01*
X34654761Y-28988095D01*
X34630952Y-29035714D01*
X34630952Y-29130952D01*
X34654761Y-29178571D01*
X34678571Y-29202380D01*
X34726190Y-29226190D01*
X34821428Y-29226190D01*
X34869047Y-29202380D01*
X34892857Y-29178571D01*
X34916666Y-29130952D01*
X34916666Y-29035714D01*
X34892857Y-28988095D01*
X34869047Y-28964285D01*
X34821428Y-28940476D01*
X35226190Y-28726190D02*
X35273809Y-28726190D01*
X35321428Y-28750000D01*
X35345238Y-28773809D01*
X35369047Y-28821428D01*
X35392857Y-28916666D01*
X35392857Y-29035714D01*
X35369047Y-29130952D01*
X35345238Y-29178571D01*
X35321428Y-29202380D01*
X35273809Y-29226190D01*
X35226190Y-29226190D01*
X35178571Y-29202380D01*
X35154761Y-29178571D01*
X35130952Y-29130952D01*
X35107142Y-29035714D01*
X35107142Y-28916666D01*
X35130952Y-28821428D01*
X35154761Y-28773809D01*
X35178571Y-28750000D01*
X35226190Y-28726190D01*
X35630952Y-29226190D02*
X35726190Y-29226190D01*
X35773809Y-29202380D01*
X35797619Y-29178571D01*
X35845238Y-29107142D01*
X35869047Y-29011904D01*
X35869047Y-28821428D01*
X35845238Y-28773809D01*
X35821428Y-28750000D01*
X35773809Y-28726190D01*
X35678571Y-28726190D01*
X35630952Y-28750000D01*
X35607142Y-28773809D01*
X35583333Y-28821428D01*
X35583333Y-28940476D01*
X35607142Y-28988095D01*
X35630952Y-29011904D01*
X35678571Y-29035714D01*
X35773809Y-29035714D01*
X35821428Y-29011904D01*
X35845238Y-28988095D01*
X35869047Y-28940476D01*
X34478571Y-34559523D02*
X34502380Y-34583333D01*
X34526190Y-34654761D01*
X34526190Y-34702380D01*
X34502380Y-34773809D01*
X34454761Y-34821428D01*
X34407142Y-34845238D01*
X34311904Y-34869047D01*
X34240476Y-34869047D01*
X34145238Y-34845238D01*
X34097619Y-34821428D01*
X34050000Y-34773809D01*
X34026190Y-34702380D01*
X34026190Y-34654761D01*
X34050000Y-34583333D01*
X34073809Y-34559523D01*
X34240476Y-34273809D02*
X34216666Y-34321428D01*
X34192857Y-34345238D01*
X34145238Y-34369047D01*
X34121428Y-34369047D01*
X34073809Y-34345238D01*
X34050000Y-34321428D01*
X34026190Y-34273809D01*
X34026190Y-34178571D01*
X34050000Y-34130952D01*
X34073809Y-34107142D01*
X34121428Y-34083333D01*
X34145238Y-34083333D01*
X34192857Y-34107142D01*
X34216666Y-34130952D01*
X34240476Y-34178571D01*
X34240476Y-34273809D01*
X34264285Y-34321428D01*
X34288095Y-34345238D01*
X34335714Y-34369047D01*
X34430952Y-34369047D01*
X34478571Y-34345238D01*
X34502380Y-34321428D01*
X34526190Y-34273809D01*
X34526190Y-34178571D01*
X34502380Y-34130952D01*
X34478571Y-34107142D01*
X34430952Y-34083333D01*
X34335714Y-34083333D01*
X34288095Y-34107142D01*
X34264285Y-34130952D01*
X34240476Y-34178571D01*
X34526190Y-33607142D02*
X34526190Y-33892857D01*
X34526190Y-33750000D02*
X34026190Y-33750000D01*
X34097619Y-33797619D01*
X34145238Y-33845238D01*
X34169047Y-33892857D01*
X34026190Y-33297619D02*
X34026190Y-33250000D01*
X34050000Y-33202380D01*
X34073809Y-33178571D01*
X34121428Y-33154761D01*
X34216666Y-33130952D01*
X34335714Y-33130952D01*
X34430952Y-33154761D01*
X34478571Y-33178571D01*
X34502380Y-33202380D01*
X34526190Y-33250000D01*
X34526190Y-33297619D01*
X34502380Y-33345238D01*
X34478571Y-33369047D01*
X34430952Y-33392857D01*
X34335714Y-33416666D01*
X34216666Y-33416666D01*
X34121428Y-33392857D01*
X34073809Y-33369047D01*
X34050000Y-33345238D01*
X34026190Y-33297619D01*
X20578571Y-28559523D02*
X20602380Y-28583333D01*
X20626190Y-28654761D01*
X20626190Y-28702380D01*
X20602380Y-28773809D01*
X20554761Y-28821428D01*
X20507142Y-28845238D01*
X20411904Y-28869047D01*
X20340476Y-28869047D01*
X20245238Y-28845238D01*
X20197619Y-28821428D01*
X20150000Y-28773809D01*
X20126190Y-28702380D01*
X20126190Y-28654761D01*
X20150000Y-28583333D01*
X20173809Y-28559523D01*
X20340476Y-28273809D02*
X20316666Y-28321428D01*
X20292857Y-28345238D01*
X20245238Y-28369047D01*
X20221428Y-28369047D01*
X20173809Y-28345238D01*
X20150000Y-28321428D01*
X20126190Y-28273809D01*
X20126190Y-28178571D01*
X20150000Y-28130952D01*
X20173809Y-28107142D01*
X20221428Y-28083333D01*
X20245238Y-28083333D01*
X20292857Y-28107142D01*
X20316666Y-28130952D01*
X20340476Y-28178571D01*
X20340476Y-28273809D01*
X20364285Y-28321428D01*
X20388095Y-28345238D01*
X20435714Y-28369047D01*
X20530952Y-28369047D01*
X20578571Y-28345238D01*
X20602380Y-28321428D01*
X20626190Y-28273809D01*
X20626190Y-28178571D01*
X20602380Y-28130952D01*
X20578571Y-28107142D01*
X20530952Y-28083333D01*
X20435714Y-28083333D01*
X20388095Y-28107142D01*
X20364285Y-28130952D01*
X20340476Y-28178571D01*
X20626190Y-27607142D02*
X20626190Y-27892857D01*
X20626190Y-27750000D02*
X20126190Y-27750000D01*
X20197619Y-27797619D01*
X20245238Y-27845238D01*
X20269047Y-27892857D01*
X20626190Y-27130952D02*
X20626190Y-27416666D01*
X20626190Y-27273809D02*
X20126190Y-27273809D01*
X20197619Y-27321428D01*
X20245238Y-27369047D01*
X20269047Y-27416666D01*
X17440476Y-26478571D02*
X17416666Y-26502380D01*
X17345238Y-26526190D01*
X17297619Y-26526190D01*
X17226190Y-26502380D01*
X17178571Y-26454761D01*
X17154761Y-26407142D01*
X17130952Y-26311904D01*
X17130952Y-26240476D01*
X17154761Y-26145238D01*
X17178571Y-26097619D01*
X17226190Y-26050000D01*
X17297619Y-26026190D01*
X17345238Y-26026190D01*
X17416666Y-26050000D01*
X17440476Y-26073809D01*
X17726190Y-26240476D02*
X17678571Y-26216666D01*
X17654761Y-26192857D01*
X17630952Y-26145238D01*
X17630952Y-26121428D01*
X17654761Y-26073809D01*
X17678571Y-26050000D01*
X17726190Y-26026190D01*
X17821428Y-26026190D01*
X17869047Y-26050000D01*
X17892857Y-26073809D01*
X17916666Y-26121428D01*
X17916666Y-26145238D01*
X17892857Y-26192857D01*
X17869047Y-26216666D01*
X17821428Y-26240476D01*
X17726190Y-26240476D01*
X17678571Y-26264285D01*
X17654761Y-26288095D01*
X17630952Y-26335714D01*
X17630952Y-26430952D01*
X17654761Y-26478571D01*
X17678571Y-26502380D01*
X17726190Y-26526190D01*
X17821428Y-26526190D01*
X17869047Y-26502380D01*
X17892857Y-26478571D01*
X17916666Y-26430952D01*
X17916666Y-26335714D01*
X17892857Y-26288095D01*
X17869047Y-26264285D01*
X17821428Y-26240476D01*
X18392857Y-26526190D02*
X18107142Y-26526190D01*
X18250000Y-26526190D02*
X18250000Y-26026190D01*
X18202380Y-26097619D01*
X18154761Y-26145238D01*
X18107142Y-26169047D01*
X18583333Y-26073809D02*
X18607142Y-26050000D01*
X18654761Y-26026190D01*
X18773809Y-26026190D01*
X18821428Y-26050000D01*
X18845238Y-26073809D01*
X18869047Y-26121428D01*
X18869047Y-26169047D01*
X18845238Y-26240476D01*
X18559523Y-26526190D01*
X18869047Y-26526190D01*
X13440476Y-26478571D02*
X13416666Y-26502380D01*
X13345238Y-26526190D01*
X13297619Y-26526190D01*
X13226190Y-26502380D01*
X13178571Y-26454761D01*
X13154761Y-26407142D01*
X13130952Y-26311904D01*
X13130952Y-26240476D01*
X13154761Y-26145238D01*
X13178571Y-26097619D01*
X13226190Y-26050000D01*
X13297619Y-26026190D01*
X13345238Y-26026190D01*
X13416666Y-26050000D01*
X13440476Y-26073809D01*
X13726190Y-26240476D02*
X13678571Y-26216666D01*
X13654761Y-26192857D01*
X13630952Y-26145238D01*
X13630952Y-26121428D01*
X13654761Y-26073809D01*
X13678571Y-26050000D01*
X13726190Y-26026190D01*
X13821428Y-26026190D01*
X13869047Y-26050000D01*
X13892857Y-26073809D01*
X13916666Y-26121428D01*
X13916666Y-26145238D01*
X13892857Y-26192857D01*
X13869047Y-26216666D01*
X13821428Y-26240476D01*
X13726190Y-26240476D01*
X13678571Y-26264285D01*
X13654761Y-26288095D01*
X13630952Y-26335714D01*
X13630952Y-26430952D01*
X13654761Y-26478571D01*
X13678571Y-26502380D01*
X13726190Y-26526190D01*
X13821428Y-26526190D01*
X13869047Y-26502380D01*
X13892857Y-26478571D01*
X13916666Y-26430952D01*
X13916666Y-26335714D01*
X13892857Y-26288095D01*
X13869047Y-26264285D01*
X13821428Y-26240476D01*
X14392857Y-26526190D02*
X14107142Y-26526190D01*
X14250000Y-26526190D02*
X14250000Y-26026190D01*
X14202380Y-26097619D01*
X14154761Y-26145238D01*
X14107142Y-26169047D01*
X14559523Y-26026190D02*
X14869047Y-26026190D01*
X14702380Y-26216666D01*
X14773809Y-26216666D01*
X14821428Y-26240476D01*
X14845238Y-26264285D01*
X14869047Y-26311904D01*
X14869047Y-26430952D01*
X14845238Y-26478571D01*
X14821428Y-26502380D01*
X14773809Y-26526190D01*
X14630952Y-26526190D01*
X14583333Y-26502380D01*
X14559523Y-26478571D01*
X33154761Y-4026190D02*
X33154761Y-3526190D01*
X33273809Y-3526190D01*
X33345238Y-3550000D01*
X33392857Y-3597619D01*
X33416666Y-3645238D01*
X33440476Y-3740476D01*
X33440476Y-3811904D01*
X33416666Y-3907142D01*
X33392857Y-3954761D01*
X33345238Y-4002380D01*
X33273809Y-4026190D01*
X33154761Y-4026190D01*
X33869047Y-3526190D02*
X33773809Y-3526190D01*
X33726190Y-3550000D01*
X33702380Y-3573809D01*
X33654761Y-3645238D01*
X33630952Y-3740476D01*
X33630952Y-3930952D01*
X33654761Y-3978571D01*
X33678571Y-4002380D01*
X33726190Y-4026190D01*
X33821428Y-4026190D01*
X33869047Y-4002380D01*
X33892857Y-3978571D01*
X33916666Y-3930952D01*
X33916666Y-3811904D01*
X33892857Y-3764285D01*
X33869047Y-3740476D01*
X33821428Y-3716666D01*
X33726190Y-3716666D01*
X33678571Y-3740476D01*
X33654761Y-3764285D01*
X33630952Y-3811904D01*
X34226190Y-3526190D02*
X34273809Y-3526190D01*
X34321428Y-3550000D01*
X34345238Y-3573809D01*
X34369047Y-3621428D01*
X34392857Y-3716666D01*
X34392857Y-3835714D01*
X34369047Y-3930952D01*
X34345238Y-3978571D01*
X34321428Y-4002380D01*
X34273809Y-4026190D01*
X34226190Y-4026190D01*
X34178571Y-4002380D01*
X34154761Y-3978571D01*
X34130952Y-3930952D01*
X34107142Y-3835714D01*
X34107142Y-3716666D01*
X34130952Y-3621428D01*
X34154761Y-3573809D01*
X34178571Y-3550000D01*
X34226190Y-3526190D01*
X34869047Y-4026190D02*
X34583333Y-4026190D01*
X34726190Y-4026190D02*
X34726190Y-3526190D01*
X34678571Y-3597619D01*
X34630952Y-3645238D01*
X34583333Y-3669047D01*
X33154761Y-14426190D02*
X33154761Y-13926190D01*
X33273809Y-13926190D01*
X33345238Y-13950000D01*
X33392857Y-13997619D01*
X33416666Y-14045238D01*
X33440476Y-14140476D01*
X33440476Y-14211904D01*
X33416666Y-14307142D01*
X33392857Y-14354761D01*
X33345238Y-14402380D01*
X33273809Y-14426190D01*
X33154761Y-14426190D01*
X33869047Y-13926190D02*
X33773809Y-13926190D01*
X33726190Y-13950000D01*
X33702380Y-13973809D01*
X33654761Y-14045238D01*
X33630952Y-14140476D01*
X33630952Y-14330952D01*
X33654761Y-14378571D01*
X33678571Y-14402380D01*
X33726190Y-14426190D01*
X33821428Y-14426190D01*
X33869047Y-14402380D01*
X33892857Y-14378571D01*
X33916666Y-14330952D01*
X33916666Y-14211904D01*
X33892857Y-14164285D01*
X33869047Y-14140476D01*
X33821428Y-14116666D01*
X33726190Y-14116666D01*
X33678571Y-14140476D01*
X33654761Y-14164285D01*
X33630952Y-14211904D01*
X34226190Y-13926190D02*
X34273809Y-13926190D01*
X34321428Y-13950000D01*
X34345238Y-13973809D01*
X34369047Y-14021428D01*
X34392857Y-14116666D01*
X34392857Y-14235714D01*
X34369047Y-14330952D01*
X34345238Y-14378571D01*
X34321428Y-14402380D01*
X34273809Y-14426190D01*
X34226190Y-14426190D01*
X34178571Y-14402380D01*
X34154761Y-14378571D01*
X34130952Y-14330952D01*
X34107142Y-14235714D01*
X34107142Y-14116666D01*
X34130952Y-14021428D01*
X34154761Y-13973809D01*
X34178571Y-13950000D01*
X34226190Y-13926190D01*
X34559523Y-13926190D02*
X34869047Y-13926190D01*
X34702380Y-14116666D01*
X34773809Y-14116666D01*
X34821428Y-14140476D01*
X34845238Y-14164285D01*
X34869047Y-14211904D01*
X34869047Y-14330952D01*
X34845238Y-14378571D01*
X34821428Y-14402380D01*
X34773809Y-14426190D01*
X34630952Y-14426190D01*
X34583333Y-14402380D01*
X34559523Y-14378571D01*
X33154761Y-11426190D02*
X33154761Y-10926190D01*
X33273809Y-10926190D01*
X33345238Y-10950000D01*
X33392857Y-10997619D01*
X33416666Y-11045238D01*
X33440476Y-11140476D01*
X33440476Y-11211904D01*
X33416666Y-11307142D01*
X33392857Y-11354761D01*
X33345238Y-11402380D01*
X33273809Y-11426190D01*
X33154761Y-11426190D01*
X33869047Y-10926190D02*
X33773809Y-10926190D01*
X33726190Y-10950000D01*
X33702380Y-10973809D01*
X33654761Y-11045238D01*
X33630952Y-11140476D01*
X33630952Y-11330952D01*
X33654761Y-11378571D01*
X33678571Y-11402380D01*
X33726190Y-11426190D01*
X33821428Y-11426190D01*
X33869047Y-11402380D01*
X33892857Y-11378571D01*
X33916666Y-11330952D01*
X33916666Y-11211904D01*
X33892857Y-11164285D01*
X33869047Y-11140476D01*
X33821428Y-11116666D01*
X33726190Y-11116666D01*
X33678571Y-11140476D01*
X33654761Y-11164285D01*
X33630952Y-11211904D01*
X34226190Y-10926190D02*
X34273809Y-10926190D01*
X34321428Y-10950000D01*
X34345238Y-10973809D01*
X34369047Y-11021428D01*
X34392857Y-11116666D01*
X34392857Y-11235714D01*
X34369047Y-11330952D01*
X34345238Y-11378571D01*
X34321428Y-11402380D01*
X34273809Y-11426190D01*
X34226190Y-11426190D01*
X34178571Y-11402380D01*
X34154761Y-11378571D01*
X34130952Y-11330952D01*
X34107142Y-11235714D01*
X34107142Y-11116666D01*
X34130952Y-11021428D01*
X34154761Y-10973809D01*
X34178571Y-10950000D01*
X34226190Y-10926190D01*
X34821428Y-11092857D02*
X34821428Y-11426190D01*
X34702380Y-10902380D02*
X34583333Y-11259523D01*
X34892857Y-11259523D01*
D10*
X24309523Y-26052380D02*
X24309523Y-25052380D01*
X24547619Y-25052380D01*
X24690476Y-25100000D01*
X24785714Y-25195238D01*
X24833333Y-25290476D01*
X24880952Y-25480952D01*
X24880952Y-25623809D01*
X24833333Y-25814285D01*
X24785714Y-25909523D01*
X24690476Y-26004761D01*
X24547619Y-26052380D01*
X24309523Y-26052380D01*
X25738095Y-25052380D02*
X25547619Y-25052380D01*
X25452380Y-25100000D01*
X25404761Y-25147619D01*
X25309523Y-25290476D01*
X25261904Y-25480952D01*
X25261904Y-25861904D01*
X25309523Y-25957142D01*
X25357142Y-26004761D01*
X25452380Y-26052380D01*
X25642857Y-26052380D01*
X25738095Y-26004761D01*
X25785714Y-25957142D01*
X25833333Y-25861904D01*
X25833333Y-25623809D01*
X25785714Y-25528571D01*
X25738095Y-25480952D01*
X25642857Y-25433333D01*
X25452380Y-25433333D01*
X25357142Y-25480952D01*
X25309523Y-25528571D01*
X25261904Y-25623809D01*
X26452380Y-25052380D02*
X26547619Y-25052380D01*
X26642857Y-25100000D01*
X26690476Y-25147619D01*
X26738095Y-25242857D01*
X26785714Y-25433333D01*
X26785714Y-25671428D01*
X26738095Y-25861904D01*
X26690476Y-25957142D01*
X26642857Y-26004761D01*
X26547619Y-26052380D01*
X26452380Y-26052380D01*
X26357142Y-26004761D01*
X26309523Y-25957142D01*
X26261904Y-25861904D01*
X26214285Y-25671428D01*
X26214285Y-25433333D01*
X26261904Y-25242857D01*
X26309523Y-25147619D01*
X26357142Y-25100000D01*
X26452380Y-25052380D01*
X27690476Y-25052380D02*
X27214285Y-25052380D01*
X27166666Y-25528571D01*
X27214285Y-25480952D01*
X27309523Y-25433333D01*
X27547619Y-25433333D01*
X27642857Y-25480952D01*
X27690476Y-25528571D01*
X27738095Y-25623809D01*
X27738095Y-25861904D01*
X27690476Y-25957142D01*
X27642857Y-26004761D01*
X27547619Y-26052380D01*
X27309523Y-26052380D01*
X27214285Y-26004761D01*
X27166666Y-25957142D01*
X714285Y-18452380D02*
X714285Y-19166666D01*
X666666Y-19309523D01*
X571428Y-19404761D01*
X428571Y-19452380D01*
X333333Y-19452380D01*
X1666666Y-18452380D02*
X1190476Y-18452380D01*
X1142857Y-18928571D01*
X1190476Y-18880952D01*
X1285714Y-18833333D01*
X1523809Y-18833333D01*
X1619047Y-18880952D01*
X1666666Y-18928571D01*
X1714285Y-19023809D01*
X1714285Y-19261904D01*
X1666666Y-19357142D01*
X1619047Y-19404761D01*
X1523809Y-19452380D01*
X1285714Y-19452380D01*
X1190476Y-19404761D01*
X1142857Y-19357142D01*
X2333333Y-18452380D02*
X2428571Y-18452380D01*
X2523809Y-18500000D01*
X2571428Y-18547619D01*
X2619047Y-18642857D01*
X2666666Y-18833333D01*
X2666666Y-19071428D01*
X2619047Y-19261904D01*
X2571428Y-19357142D01*
X2523809Y-19404761D01*
X2428571Y-19452380D01*
X2333333Y-19452380D01*
X2238095Y-19404761D01*
X2190476Y-19357142D01*
X2142857Y-19261904D01*
X2095238Y-19071428D01*
X2095238Y-18833333D01*
X2142857Y-18642857D01*
X2190476Y-18547619D01*
X2238095Y-18500000D01*
X2333333Y-18452380D01*
X3619047Y-19452380D02*
X3047619Y-19452380D01*
X3333333Y-19452380D02*
X3333333Y-18452380D01*
X3238095Y-18595238D01*
X3142857Y-18690476D01*
X3047619Y-18738095D01*
X47714285Y-18452380D02*
X47714285Y-19166666D01*
X47666666Y-19309523D01*
X47571428Y-19404761D01*
X47428571Y-19452380D01*
X47333333Y-19452380D01*
X48666666Y-18452380D02*
X48190476Y-18452380D01*
X48142857Y-18928571D01*
X48190476Y-18880952D01*
X48285714Y-18833333D01*
X48523809Y-18833333D01*
X48619047Y-18880952D01*
X48666666Y-18928571D01*
X48714285Y-19023809D01*
X48714285Y-19261904D01*
X48666666Y-19357142D01*
X48619047Y-19404761D01*
X48523809Y-19452380D01*
X48285714Y-19452380D01*
X48190476Y-19404761D01*
X48142857Y-19357142D01*
X49333333Y-18452380D02*
X49428571Y-18452380D01*
X49523809Y-18500000D01*
X49571428Y-18547619D01*
X49619047Y-18642857D01*
X49666666Y-18833333D01*
X49666666Y-19071428D01*
X49619047Y-19261904D01*
X49571428Y-19357142D01*
X49523809Y-19404761D01*
X49428571Y-19452380D01*
X49333333Y-19452380D01*
X49238095Y-19404761D01*
X49190476Y-19357142D01*
X49142857Y-19261904D01*
X49095238Y-19071428D01*
X49095238Y-18833333D01*
X49142857Y-18642857D01*
X49190476Y-18547619D01*
X49238095Y-18500000D01*
X49333333Y-18452380D01*
X50047619Y-18547619D02*
X50095238Y-18500000D01*
X50190476Y-18452380D01*
X50428571Y-18452380D01*
X50523809Y-18500000D01*
X50571428Y-18547619D01*
X50619047Y-18642857D01*
X50619047Y-18738095D01*
X50571428Y-18880952D01*
X50000000Y-19452380D01*
X50619047Y-19452380D01*
X47714285Y-21452380D02*
X47714285Y-22166666D01*
X47666666Y-22309523D01*
X47571428Y-22404761D01*
X47428571Y-22452380D01*
X47333333Y-22452380D01*
X48666666Y-21452380D02*
X48190476Y-21452380D01*
X48142857Y-21928571D01*
X48190476Y-21880952D01*
X48285714Y-21833333D01*
X48523809Y-21833333D01*
X48619047Y-21880952D01*
X48666666Y-21928571D01*
X48714285Y-22023809D01*
X48714285Y-22261904D01*
X48666666Y-22357142D01*
X48619047Y-22404761D01*
X48523809Y-22452380D01*
X48285714Y-22452380D01*
X48190476Y-22404761D01*
X48142857Y-22357142D01*
X49333333Y-21452380D02*
X49428571Y-21452380D01*
X49523809Y-21500000D01*
X49571428Y-21547619D01*
X49619047Y-21642857D01*
X49666666Y-21833333D01*
X49666666Y-22071428D01*
X49619047Y-22261904D01*
X49571428Y-22357142D01*
X49523809Y-22404761D01*
X49428571Y-22452380D01*
X49333333Y-22452380D01*
X49238095Y-22404761D01*
X49190476Y-22357142D01*
X49142857Y-22261904D01*
X49095238Y-22071428D01*
X49095238Y-21833333D01*
X49142857Y-21642857D01*
X49190476Y-21547619D01*
X49238095Y-21500000D01*
X49333333Y-21452380D01*
X50000000Y-21452380D02*
X50619047Y-21452380D01*
X50285714Y-21833333D01*
X50428571Y-21833333D01*
X50523809Y-21880952D01*
X50571428Y-21928571D01*
X50619047Y-22023809D01*
X50619047Y-22261904D01*
X50571428Y-22357142D01*
X50523809Y-22404761D01*
X50428571Y-22452380D01*
X50142857Y-22452380D01*
X50047619Y-22404761D01*
X50000000Y-22357142D01*
X39952380Y-5047619D02*
X39857142Y-5000000D01*
X39761904Y-4904761D01*
X39619047Y-4761904D01*
X39523809Y-4714285D01*
X39428571Y-4714285D01*
X39476190Y-4952380D02*
X39380952Y-4904761D01*
X39285714Y-4809523D01*
X39238095Y-4619047D01*
X39238095Y-4285714D01*
X39285714Y-4095238D01*
X39380952Y-4000000D01*
X39476190Y-3952380D01*
X39666666Y-3952380D01*
X39761904Y-4000000D01*
X39857142Y-4095238D01*
X39904761Y-4285714D01*
X39904761Y-4619047D01*
X39857142Y-4809523D01*
X39761904Y-4904761D01*
X39666666Y-4952380D01*
X39476190Y-4952380D01*
X40285714Y-4047619D02*
X40333333Y-4000000D01*
X40428571Y-3952380D01*
X40666666Y-3952380D01*
X40761904Y-4000000D01*
X40809523Y-4047619D01*
X40857142Y-4142857D01*
X40857142Y-4238095D01*
X40809523Y-4380952D01*
X40238095Y-4952380D01*
X40857142Y-4952380D01*
X41476190Y-3952380D02*
X41571428Y-3952380D01*
X41666666Y-4000000D01*
X41714285Y-4047619D01*
X41761904Y-4142857D01*
X41809523Y-4333333D01*
X41809523Y-4571428D01*
X41761904Y-4761904D01*
X41714285Y-4857142D01*
X41666666Y-4904761D01*
X41571428Y-4952380D01*
X41476190Y-4952380D01*
X41380952Y-4904761D01*
X41333333Y-4857142D01*
X41285714Y-4761904D01*
X41238095Y-4571428D01*
X41238095Y-4333333D01*
X41285714Y-4142857D01*
X41333333Y-4047619D01*
X41380952Y-4000000D01*
X41476190Y-3952380D01*
X42761904Y-4952380D02*
X42190476Y-4952380D01*
X42476190Y-4952380D02*
X42476190Y-3952380D01*
X42380952Y-4095238D01*
X42285714Y-4190476D01*
X42190476Y-4238095D01*
X39952380Y-26047619D02*
X39857142Y-26000000D01*
X39761904Y-25904761D01*
X39619047Y-25761904D01*
X39523809Y-25714285D01*
X39428571Y-25714285D01*
X39476190Y-25952380D02*
X39380952Y-25904761D01*
X39285714Y-25809523D01*
X39238095Y-25619047D01*
X39238095Y-25285714D01*
X39285714Y-25095238D01*
X39380952Y-25000000D01*
X39476190Y-24952380D01*
X39666666Y-24952380D01*
X39761904Y-25000000D01*
X39857142Y-25095238D01*
X39904761Y-25285714D01*
X39904761Y-25619047D01*
X39857142Y-25809523D01*
X39761904Y-25904761D01*
X39666666Y-25952380D01*
X39476190Y-25952380D01*
X40285714Y-25047619D02*
X40333333Y-25000000D01*
X40428571Y-24952380D01*
X40666666Y-24952380D01*
X40761904Y-25000000D01*
X40809523Y-25047619D01*
X40857142Y-25142857D01*
X40857142Y-25238095D01*
X40809523Y-25380952D01*
X40238095Y-25952380D01*
X40857142Y-25952380D01*
X41476190Y-24952380D02*
X41571428Y-24952380D01*
X41666666Y-25000000D01*
X41714285Y-25047619D01*
X41761904Y-25142857D01*
X41809523Y-25333333D01*
X41809523Y-25571428D01*
X41761904Y-25761904D01*
X41714285Y-25857142D01*
X41666666Y-25904761D01*
X41571428Y-25952380D01*
X41476190Y-25952380D01*
X41380952Y-25904761D01*
X41333333Y-25857142D01*
X41285714Y-25761904D01*
X41238095Y-25571428D01*
X41238095Y-25333333D01*
X41285714Y-25142857D01*
X41333333Y-25047619D01*
X41380952Y-25000000D01*
X41476190Y-24952380D01*
X42190476Y-25047619D02*
X42238095Y-25000000D01*
X42333333Y-24952380D01*
X42571428Y-24952380D01*
X42666666Y-25000000D01*
X42714285Y-25047619D01*
X42761904Y-25142857D01*
X42761904Y-25238095D01*
X42714285Y-25380952D01*
X42142857Y-25952380D01*
X42761904Y-25952380D01*
D13*
X12340476Y-31026190D02*
X12173809Y-30788095D01*
X12054761Y-31026190D02*
X12054761Y-30526190D01*
X12245238Y-30526190D01*
X12292857Y-30550000D01*
X12316666Y-30573809D01*
X12340476Y-30621428D01*
X12340476Y-30692857D01*
X12316666Y-30740476D01*
X12292857Y-30764285D01*
X12245238Y-30788095D01*
X12054761Y-30788095D01*
X12507142Y-30526190D02*
X12840476Y-30526190D01*
X12626190Y-31026190D01*
X13126190Y-30526190D02*
X13173809Y-30526190D01*
X13221428Y-30550000D01*
X13245238Y-30573809D01*
X13269047Y-30621428D01*
X13292857Y-30716666D01*
X13292857Y-30835714D01*
X13269047Y-30930952D01*
X13245238Y-30978571D01*
X13221428Y-31002380D01*
X13173809Y-31026190D01*
X13126190Y-31026190D01*
X13078571Y-31002380D01*
X13054761Y-30978571D01*
X13030952Y-30930952D01*
X13007142Y-30835714D01*
X13007142Y-30716666D01*
X13030952Y-30621428D01*
X13054761Y-30573809D01*
X13078571Y-30550000D01*
X13126190Y-30526190D01*
X13459523Y-30526190D02*
X13769047Y-30526190D01*
X13602380Y-30716666D01*
X13673809Y-30716666D01*
X13721428Y-30740476D01*
X13745238Y-30764285D01*
X13769047Y-30811904D01*
X13769047Y-30930952D01*
X13745238Y-30978571D01*
X13721428Y-31002380D01*
X13673809Y-31026190D01*
X13530952Y-31026190D01*
X13483333Y-31002380D01*
X13459523Y-30978571D01*
X16340476Y-31026190D02*
X16173809Y-30788095D01*
X16054761Y-31026190D02*
X16054761Y-30526190D01*
X16245238Y-30526190D01*
X16292857Y-30550000D01*
X16316666Y-30573809D01*
X16340476Y-30621428D01*
X16340476Y-30692857D01*
X16316666Y-30740476D01*
X16292857Y-30764285D01*
X16245238Y-30788095D01*
X16054761Y-30788095D01*
X16507142Y-30526190D02*
X16840476Y-30526190D01*
X16626190Y-31026190D01*
X17126190Y-30526190D02*
X17173809Y-30526190D01*
X17221428Y-30550000D01*
X17245238Y-30573809D01*
X17269047Y-30621428D01*
X17292857Y-30716666D01*
X17292857Y-30835714D01*
X17269047Y-30930952D01*
X17245238Y-30978571D01*
X17221428Y-31002380D01*
X17173809Y-31026190D01*
X17126190Y-31026190D01*
X17078571Y-31002380D01*
X17054761Y-30978571D01*
X17030952Y-30930952D01*
X17007142Y-30835714D01*
X17007142Y-30716666D01*
X17030952Y-30621428D01*
X17054761Y-30573809D01*
X17078571Y-30550000D01*
X17126190Y-30526190D01*
X17721428Y-30692857D02*
X17721428Y-31026190D01*
X17602380Y-30502380D02*
X17483333Y-30859523D01*
X17792857Y-30859523D01*
X12440476Y-39526190D02*
X12273809Y-39288095D01*
X12154761Y-39526190D02*
X12154761Y-39026190D01*
X12345238Y-39026190D01*
X12392857Y-39050000D01*
X12416666Y-39073809D01*
X12440476Y-39121428D01*
X12440476Y-39192857D01*
X12416666Y-39240476D01*
X12392857Y-39264285D01*
X12345238Y-39288095D01*
X12154761Y-39288095D01*
X12607142Y-39026190D02*
X12940476Y-39026190D01*
X12726190Y-39526190D01*
X13226190Y-39026190D02*
X13273809Y-39026190D01*
X13321428Y-39050000D01*
X13345238Y-39073809D01*
X13369047Y-39121428D01*
X13392857Y-39216666D01*
X13392857Y-39335714D01*
X13369047Y-39430952D01*
X13345238Y-39478571D01*
X13321428Y-39502380D01*
X13273809Y-39526190D01*
X13226190Y-39526190D01*
X13178571Y-39502380D01*
X13154761Y-39478571D01*
X13130952Y-39430952D01*
X13107142Y-39335714D01*
X13107142Y-39216666D01*
X13130952Y-39121428D01*
X13154761Y-39073809D01*
X13178571Y-39050000D01*
X13226190Y-39026190D01*
X13845238Y-39026190D02*
X13607142Y-39026190D01*
X13583333Y-39264285D01*
X13607142Y-39240476D01*
X13654761Y-39216666D01*
X13773809Y-39216666D01*
X13821428Y-39240476D01*
X13845238Y-39264285D01*
X13869047Y-39311904D01*
X13869047Y-39430952D01*
X13845238Y-39478571D01*
X13821428Y-39502380D01*
X13773809Y-39526190D01*
X13654761Y-39526190D01*
X13607142Y-39502380D01*
X13583333Y-39478571D01*
X29440476Y-4026190D02*
X29273809Y-3788095D01*
X29154761Y-4026190D02*
X29154761Y-3526190D01*
X29345238Y-3526190D01*
X29392857Y-3550000D01*
X29416666Y-3573809D01*
X29440476Y-3621428D01*
X29440476Y-3692857D01*
X29416666Y-3740476D01*
X29392857Y-3764285D01*
X29345238Y-3788095D01*
X29154761Y-3788095D01*
X29607142Y-3526190D02*
X29940476Y-3526190D01*
X29726190Y-4026190D01*
X30226190Y-3526190D02*
X30273809Y-3526190D01*
X30321428Y-3550000D01*
X30345238Y-3573809D01*
X30369047Y-3621428D01*
X30392857Y-3716666D01*
X30392857Y-3835714D01*
X30369047Y-3930952D01*
X30345238Y-3978571D01*
X30321428Y-4002380D01*
X30273809Y-4026190D01*
X30226190Y-4026190D01*
X30178571Y-4002380D01*
X30154761Y-3978571D01*
X30130952Y-3930952D01*
X30107142Y-3835714D01*
X30107142Y-3716666D01*
X30130952Y-3621428D01*
X30154761Y-3573809D01*
X30178571Y-3550000D01*
X30226190Y-3526190D01*
X30821428Y-3526190D02*
X30726190Y-3526190D01*
X30678571Y-3550000D01*
X30654761Y-3573809D01*
X30607142Y-3645238D01*
X30583333Y-3740476D01*
X30583333Y-3930952D01*
X30607142Y-3978571D01*
X30630952Y-4002380D01*
X30678571Y-4026190D01*
X30773809Y-4026190D01*
X30821428Y-4002380D01*
X30845238Y-3978571D01*
X30869047Y-3930952D01*
X30869047Y-3811904D01*
X30845238Y-3764285D01*
X30821428Y-3740476D01*
X30773809Y-3716666D01*
X30678571Y-3716666D01*
X30630952Y-3740476D01*
X30607142Y-3764285D01*
X30583333Y-3811904D01*
X38440476Y-11426190D02*
X38273809Y-11188095D01*
X38154761Y-11426190D02*
X38154761Y-10926190D01*
X38345238Y-10926190D01*
X38392857Y-10950000D01*
X38416666Y-10973809D01*
X38440476Y-11021428D01*
X38440476Y-11092857D01*
X38416666Y-11140476D01*
X38392857Y-11164285D01*
X38345238Y-11188095D01*
X38154761Y-11188095D01*
X38607142Y-10926190D02*
X38940476Y-10926190D01*
X38726190Y-11426190D01*
X39226190Y-10926190D02*
X39273809Y-10926190D01*
X39321428Y-10950000D01*
X39345238Y-10973809D01*
X39369047Y-11021428D01*
X39392857Y-11116666D01*
X39392857Y-11235714D01*
X39369047Y-11330952D01*
X39345238Y-11378571D01*
X39321428Y-11402380D01*
X39273809Y-11426190D01*
X39226190Y-11426190D01*
X39178571Y-11402380D01*
X39154761Y-11378571D01*
X39130952Y-11330952D01*
X39107142Y-11235714D01*
X39107142Y-11116666D01*
X39130952Y-11021428D01*
X39154761Y-10973809D01*
X39178571Y-10950000D01*
X39226190Y-10926190D01*
X39678571Y-11140476D02*
X39630952Y-11116666D01*
X39607142Y-11092857D01*
X39583333Y-11045238D01*
X39583333Y-11021428D01*
X39607142Y-10973809D01*
X39630952Y-10950000D01*
X39678571Y-10926190D01*
X39773809Y-10926190D01*
X39821428Y-10950000D01*
X39845238Y-10973809D01*
X39869047Y-11021428D01*
X39869047Y-11045238D01*
X39845238Y-11092857D01*
X39821428Y-11116666D01*
X39773809Y-11140476D01*
X39678571Y-11140476D01*
X39630952Y-11164285D01*
X39607142Y-11188095D01*
X39583333Y-11235714D01*
X39583333Y-11330952D01*
X39607142Y-11378571D01*
X39630952Y-11402380D01*
X39678571Y-11426190D01*
X39773809Y-11426190D01*
X39821428Y-11402380D01*
X39845238Y-11378571D01*
X39869047Y-11330952D01*
X39869047Y-11235714D01*
X39845238Y-11188095D01*
X39821428Y-11164285D01*
X39773809Y-11140476D01*
X38440476Y-32426190D02*
X38273809Y-32188095D01*
X38154761Y-32426190D02*
X38154761Y-31926190D01*
X38345238Y-31926190D01*
X38392857Y-31950000D01*
X38416666Y-31973809D01*
X38440476Y-32021428D01*
X38440476Y-32092857D01*
X38416666Y-32140476D01*
X38392857Y-32164285D01*
X38345238Y-32188095D01*
X38154761Y-32188095D01*
X38607142Y-31926190D02*
X38940476Y-31926190D01*
X38726190Y-32426190D01*
X39226190Y-31926190D02*
X39273809Y-31926190D01*
X39321428Y-31950000D01*
X39345238Y-31973809D01*
X39369047Y-32021428D01*
X39392857Y-32116666D01*
X39392857Y-32235714D01*
X39369047Y-32330952D01*
X39345238Y-32378571D01*
X39321428Y-32402380D01*
X39273809Y-32426190D01*
X39226190Y-32426190D01*
X39178571Y-32402380D01*
X39154761Y-32378571D01*
X39130952Y-32330952D01*
X39107142Y-32235714D01*
X39107142Y-32116666D01*
X39130952Y-32021428D01*
X39154761Y-31973809D01*
X39178571Y-31950000D01*
X39226190Y-31926190D01*
X39630952Y-32426190D02*
X39726190Y-32426190D01*
X39773809Y-32402380D01*
X39797619Y-32378571D01*
X39845238Y-32307142D01*
X39869047Y-32211904D01*
X39869047Y-32021428D01*
X39845238Y-31973809D01*
X39821428Y-31950000D01*
X39773809Y-31926190D01*
X39678571Y-31926190D01*
X39630952Y-31950000D01*
X39607142Y-31973809D01*
X39583333Y-32021428D01*
X39583333Y-32140476D01*
X39607142Y-32188095D01*
X39630952Y-32211904D01*
X39678571Y-32235714D01*
X39773809Y-32235714D01*
X39821428Y-32211904D01*
X39845238Y-32188095D01*
X39869047Y-32140476D01*
X38440476Y-14426190D02*
X38273809Y-14188095D01*
X38154761Y-14426190D02*
X38154761Y-13926190D01*
X38345238Y-13926190D01*
X38392857Y-13950000D01*
X38416666Y-13973809D01*
X38440476Y-14021428D01*
X38440476Y-14092857D01*
X38416666Y-14140476D01*
X38392857Y-14164285D01*
X38345238Y-14188095D01*
X38154761Y-14188095D01*
X38607142Y-13926190D02*
X38940476Y-13926190D01*
X38726190Y-14426190D01*
X39392857Y-14426190D02*
X39107142Y-14426190D01*
X39250000Y-14426190D02*
X39250000Y-13926190D01*
X39202380Y-13997619D01*
X39154761Y-14045238D01*
X39107142Y-14069047D01*
X39583333Y-13973809D02*
X39607142Y-13950000D01*
X39654761Y-13926190D01*
X39773809Y-13926190D01*
X39821428Y-13950000D01*
X39845238Y-13973809D01*
X39869047Y-14021428D01*
X39869047Y-14069047D01*
X39845238Y-14140476D01*
X39559523Y-14426190D01*
X39869047Y-14426190D01*
X38440476Y-35426190D02*
X38273809Y-35188095D01*
X38154761Y-35426190D02*
X38154761Y-34926190D01*
X38345238Y-34926190D01*
X38392857Y-34950000D01*
X38416666Y-34973809D01*
X38440476Y-35021428D01*
X38440476Y-35092857D01*
X38416666Y-35140476D01*
X38392857Y-35164285D01*
X38345238Y-35188095D01*
X38154761Y-35188095D01*
X38607142Y-34926190D02*
X38940476Y-34926190D01*
X38726190Y-35426190D01*
X39392857Y-35426190D02*
X39107142Y-35426190D01*
X39250000Y-35426190D02*
X39250000Y-34926190D01*
X39202380Y-34997619D01*
X39154761Y-35045238D01*
X39107142Y-35069047D01*
X39559523Y-34926190D02*
X39869047Y-34926190D01*
X39702380Y-35116666D01*
X39773809Y-35116666D01*
X39821428Y-35140476D01*
X39845238Y-35164285D01*
X39869047Y-35211904D01*
X39869047Y-35330952D01*
X39845238Y-35378571D01*
X39821428Y-35402380D01*
X39773809Y-35426190D01*
X39630952Y-35426190D01*
X39583333Y-35402380D01*
X39559523Y-35378571D01*
X42440476Y-11426190D02*
X42273809Y-11188095D01*
X42154761Y-11426190D02*
X42154761Y-10926190D01*
X42345238Y-10926190D01*
X42392857Y-10950000D01*
X42416666Y-10973809D01*
X42440476Y-11021428D01*
X42440476Y-11092857D01*
X42416666Y-11140476D01*
X42392857Y-11164285D01*
X42345238Y-11188095D01*
X42154761Y-11188095D01*
X42607142Y-10926190D02*
X42940476Y-10926190D01*
X42726190Y-11426190D01*
X43392857Y-11426190D02*
X43107142Y-11426190D01*
X43250000Y-11426190D02*
X43250000Y-10926190D01*
X43202380Y-10997619D01*
X43154761Y-11045238D01*
X43107142Y-11069047D01*
X43821428Y-10926190D02*
X43726190Y-10926190D01*
X43678571Y-10950000D01*
X43654761Y-10973809D01*
X43607142Y-11045238D01*
X43583333Y-11140476D01*
X43583333Y-11330952D01*
X43607142Y-11378571D01*
X43630952Y-11402380D01*
X43678571Y-11426190D01*
X43773809Y-11426190D01*
X43821428Y-11402380D01*
X43845238Y-11378571D01*
X43869047Y-11330952D01*
X43869047Y-11211904D01*
X43845238Y-11164285D01*
X43821428Y-11140476D01*
X43773809Y-11116666D01*
X43678571Y-11116666D01*
X43630952Y-11140476D01*
X43607142Y-11164285D01*
X43583333Y-11211904D01*
X42440476Y-32426190D02*
X42273809Y-32188095D01*
X42154761Y-32426190D02*
X42154761Y-31926190D01*
X42345238Y-31926190D01*
X42392857Y-31950000D01*
X42416666Y-31973809D01*
X42440476Y-32021428D01*
X42440476Y-32092857D01*
X42416666Y-32140476D01*
X42392857Y-32164285D01*
X42345238Y-32188095D01*
X42154761Y-32188095D01*
X42607142Y-31926190D02*
X42940476Y-31926190D01*
X42726190Y-32426190D01*
X43392857Y-32426190D02*
X43107142Y-32426190D01*
X43250000Y-32426190D02*
X43250000Y-31926190D01*
X43202380Y-31997619D01*
X43154761Y-32045238D01*
X43107142Y-32069047D01*
X43559523Y-31926190D02*
X43892857Y-31926190D01*
X43678571Y-32426190D01*
X42440476Y-14426190D02*
X42273809Y-14188095D01*
X42154761Y-14426190D02*
X42154761Y-13926190D01*
X42345238Y-13926190D01*
X42392857Y-13950000D01*
X42416666Y-13973809D01*
X42440476Y-14021428D01*
X42440476Y-14092857D01*
X42416666Y-14140476D01*
X42392857Y-14164285D01*
X42345238Y-14188095D01*
X42154761Y-14188095D01*
X42607142Y-13926190D02*
X42940476Y-13926190D01*
X42726190Y-14426190D01*
X43107142Y-13973809D02*
X43130952Y-13950000D01*
X43178571Y-13926190D01*
X43297619Y-13926190D01*
X43345238Y-13950000D01*
X43369047Y-13973809D01*
X43392857Y-14021428D01*
X43392857Y-14069047D01*
X43369047Y-14140476D01*
X43083333Y-14426190D01*
X43392857Y-14426190D01*
X43702380Y-13926190D02*
X43750000Y-13926190D01*
X43797619Y-13950000D01*
X43821428Y-13973809D01*
X43845238Y-14021428D01*
X43869047Y-14116666D01*
X43869047Y-14235714D01*
X43845238Y-14330952D01*
X43821428Y-14378571D01*
X43797619Y-14402380D01*
X43750000Y-14426190D01*
X43702380Y-14426190D01*
X43654761Y-14402380D01*
X43630952Y-14378571D01*
X43607142Y-14330952D01*
X43583333Y-14235714D01*
X43583333Y-14116666D01*
X43607142Y-14021428D01*
X43630952Y-13973809D01*
X43654761Y-13950000D01*
X43702380Y-13926190D01*
X42440476Y-35426190D02*
X42273809Y-35188095D01*
X42154761Y-35426190D02*
X42154761Y-34926190D01*
X42345238Y-34926190D01*
X42392857Y-34950000D01*
X42416666Y-34973809D01*
X42440476Y-35021428D01*
X42440476Y-35092857D01*
X42416666Y-35140476D01*
X42392857Y-35164285D01*
X42345238Y-35188095D01*
X42154761Y-35188095D01*
X42607142Y-34926190D02*
X42940476Y-34926190D01*
X42726190Y-35426190D01*
X43107142Y-34973809D02*
X43130952Y-34950000D01*
X43178571Y-34926190D01*
X43297619Y-34926190D01*
X43345238Y-34950000D01*
X43369047Y-34973809D01*
X43392857Y-35021428D01*
X43392857Y-35069047D01*
X43369047Y-35140476D01*
X43083333Y-35426190D01*
X43392857Y-35426190D01*
X43869047Y-35426190D02*
X43583333Y-35426190D01*
X43726190Y-35426190D02*
X43726190Y-34926190D01*
X43678571Y-34997619D01*
X43630952Y-35045238D01*
X43583333Y-35069047D01*
X10026190Y-9559523D02*
X9788095Y-9726190D01*
X10026190Y-9845238D02*
X9526190Y-9845238D01*
X9526190Y-9654761D01*
X9550000Y-9607142D01*
X9573809Y-9583333D01*
X9621428Y-9559523D01*
X9692857Y-9559523D01*
X9740476Y-9583333D01*
X9764285Y-9607142D01*
X9788095Y-9654761D01*
X9788095Y-9845238D01*
X9526190Y-9392857D02*
X9526190Y-9059523D01*
X10026190Y-9273809D01*
X9573809Y-8892857D02*
X9550000Y-8869047D01*
X9526190Y-8821428D01*
X9526190Y-8702380D01*
X9550000Y-8654761D01*
X9573809Y-8630952D01*
X9621428Y-8607142D01*
X9669047Y-8607142D01*
X9740476Y-8630952D01*
X10026190Y-8916666D01*
X10026190Y-8607142D01*
X9692857Y-8178571D02*
X10026190Y-8178571D01*
X9502380Y-8297619D02*
X9859523Y-8416666D01*
X9859523Y-8107142D01*
X22026190Y-10559523D02*
X21788095Y-10726190D01*
X22026190Y-10845238D02*
X21526190Y-10845238D01*
X21526190Y-10654761D01*
X21550000Y-10607142D01*
X21573809Y-10583333D01*
X21621428Y-10559523D01*
X21692857Y-10559523D01*
X21740476Y-10583333D01*
X21764285Y-10607142D01*
X21788095Y-10654761D01*
X21788095Y-10845238D01*
X21526190Y-10392857D02*
X21526190Y-10059523D01*
X22026190Y-10273809D01*
X21573809Y-9892857D02*
X21550000Y-9869047D01*
X21526190Y-9821428D01*
X21526190Y-9702380D01*
X21550000Y-9654761D01*
X21573809Y-9630952D01*
X21621428Y-9607142D01*
X21669047Y-9607142D01*
X21740476Y-9630952D01*
X22026190Y-9916666D01*
X22026190Y-9607142D01*
X21526190Y-9154761D02*
X21526190Y-9392857D01*
X21764285Y-9416666D01*
X21740476Y-9392857D01*
X21716666Y-9345238D01*
X21716666Y-9226190D01*
X21740476Y-9178571D01*
X21764285Y-9154761D01*
X21811904Y-9130952D01*
X21930952Y-9130952D01*
X21978571Y-9154761D01*
X22002380Y-9178571D01*
X22026190Y-9226190D01*
X22026190Y-9345238D01*
X22002380Y-9392857D01*
X21978571Y-9416666D01*
X22026190Y-7559523D02*
X21788095Y-7726190D01*
X22026190Y-7845238D02*
X21526190Y-7845238D01*
X21526190Y-7654761D01*
X21550000Y-7607142D01*
X21573809Y-7583333D01*
X21621428Y-7559523D01*
X21692857Y-7559523D01*
X21740476Y-7583333D01*
X21764285Y-7607142D01*
X21788095Y-7654761D01*
X21788095Y-7845238D01*
X21526190Y-7392857D02*
X21526190Y-7059523D01*
X22026190Y-7273809D01*
X21573809Y-6892857D02*
X21550000Y-6869047D01*
X21526190Y-6821428D01*
X21526190Y-6702380D01*
X21550000Y-6654761D01*
X21573809Y-6630952D01*
X21621428Y-6607142D01*
X21669047Y-6607142D01*
X21740476Y-6630952D01*
X22026190Y-6916666D01*
X22026190Y-6607142D01*
X21526190Y-6178571D02*
X21526190Y-6273809D01*
X21550000Y-6321428D01*
X21573809Y-6345238D01*
X21645238Y-6392857D01*
X21740476Y-6416666D01*
X21930952Y-6416666D01*
X21978571Y-6392857D01*
X22002380Y-6369047D01*
X22026190Y-6321428D01*
X22026190Y-6226190D01*
X22002380Y-6178571D01*
X21978571Y-6154761D01*
X21930952Y-6130952D01*
X21811904Y-6130952D01*
X21764285Y-6154761D01*
X21740476Y-6178571D01*
X21716666Y-6226190D01*
X21716666Y-6321428D01*
X21740476Y-6369047D01*
X21764285Y-6392857D01*
X21811904Y-6416666D01*
X34426190Y-38559523D02*
X34188095Y-38726190D01*
X34426190Y-38845238D02*
X33926190Y-38845238D01*
X33926190Y-38654761D01*
X33950000Y-38607142D01*
X33973809Y-38583333D01*
X34021428Y-38559523D01*
X34092857Y-38559523D01*
X34140476Y-38583333D01*
X34164285Y-38607142D01*
X34188095Y-38654761D01*
X34188095Y-38845238D01*
X33926190Y-38392857D02*
X33926190Y-38059523D01*
X34426190Y-38273809D01*
X33973809Y-37892857D02*
X33950000Y-37869047D01*
X33926190Y-37821428D01*
X33926190Y-37702380D01*
X33950000Y-37654761D01*
X33973809Y-37630952D01*
X34021428Y-37607142D01*
X34069047Y-37607142D01*
X34140476Y-37630952D01*
X34426190Y-37916666D01*
X34426190Y-37607142D01*
X33926190Y-37440476D02*
X33926190Y-37107142D01*
X34426190Y-37321428D01*
X31540476Y-16526190D02*
X31373809Y-16288095D01*
X31254761Y-16526190D02*
X31254761Y-16026190D01*
X31445238Y-16026190D01*
X31492857Y-16050000D01*
X31516666Y-16073809D01*
X31540476Y-16121428D01*
X31540476Y-16192857D01*
X31516666Y-16240476D01*
X31492857Y-16264285D01*
X31445238Y-16288095D01*
X31254761Y-16288095D01*
X31707142Y-16026190D02*
X32040476Y-16026190D01*
X31826190Y-16526190D01*
X32207142Y-16073809D02*
X32230952Y-16050000D01*
X32278571Y-16026190D01*
X32397619Y-16026190D01*
X32445238Y-16050000D01*
X32469047Y-16073809D01*
X32492857Y-16121428D01*
X32492857Y-16169047D01*
X32469047Y-16240476D01*
X32183333Y-16526190D01*
X32492857Y-16526190D01*
X32778571Y-16240476D02*
X32730952Y-16216666D01*
X32707142Y-16192857D01*
X32683333Y-16145238D01*
X32683333Y-16121428D01*
X32707142Y-16073809D01*
X32730952Y-16050000D01*
X32778571Y-16026190D01*
X32873809Y-16026190D01*
X32921428Y-16050000D01*
X32945238Y-16073809D01*
X32969047Y-16121428D01*
X32969047Y-16145238D01*
X32945238Y-16192857D01*
X32921428Y-16216666D01*
X32873809Y-16240476D01*
X32778571Y-16240476D01*
X32730952Y-16264285D01*
X32707142Y-16288095D01*
X32683333Y-16335714D01*
X32683333Y-16430952D01*
X32707142Y-16478571D01*
X32730952Y-16502380D01*
X32778571Y-16526190D01*
X32873809Y-16526190D01*
X32921428Y-16502380D01*
X32945238Y-16478571D01*
X32969047Y-16430952D01*
X32969047Y-16335714D01*
X32945238Y-16288095D01*
X32921428Y-16264285D01*
X32873809Y-16240476D01*
X29440476Y-14426190D02*
X29273809Y-14188095D01*
X29154761Y-14426190D02*
X29154761Y-13926190D01*
X29345238Y-13926190D01*
X29392857Y-13950000D01*
X29416666Y-13973809D01*
X29440476Y-14021428D01*
X29440476Y-14092857D01*
X29416666Y-14140476D01*
X29392857Y-14164285D01*
X29345238Y-14188095D01*
X29154761Y-14188095D01*
X29607142Y-13926190D02*
X29940476Y-13926190D01*
X29726190Y-14426190D01*
X30107142Y-13973809D02*
X30130952Y-13950000D01*
X30178571Y-13926190D01*
X30297619Y-13926190D01*
X30345238Y-13950000D01*
X30369047Y-13973809D01*
X30392857Y-14021428D01*
X30392857Y-14069047D01*
X30369047Y-14140476D01*
X30083333Y-14426190D01*
X30392857Y-14426190D01*
X30630952Y-14426190D02*
X30726190Y-14426190D01*
X30773809Y-14402380D01*
X30797619Y-14378571D01*
X30845238Y-14307142D01*
X30869047Y-14211904D01*
X30869047Y-14021428D01*
X30845238Y-13973809D01*
X30821428Y-13950000D01*
X30773809Y-13926190D01*
X30678571Y-13926190D01*
X30630952Y-13950000D01*
X30607142Y-13973809D01*
X30583333Y-14021428D01*
X30583333Y-14140476D01*
X30607142Y-14188095D01*
X30630952Y-14211904D01*
X30678571Y-14235714D01*
X30773809Y-14235714D01*
X30821428Y-14211904D01*
X30845238Y-14188095D01*
X30869047Y-14140476D01*
X29440476Y-11426190D02*
X29273809Y-11188095D01*
X29154761Y-11426190D02*
X29154761Y-10926190D01*
X29345238Y-10926190D01*
X29392857Y-10950000D01*
X29416666Y-10973809D01*
X29440476Y-11021428D01*
X29440476Y-11092857D01*
X29416666Y-11140476D01*
X29392857Y-11164285D01*
X29345238Y-11188095D01*
X29154761Y-11188095D01*
X29607142Y-10926190D02*
X29940476Y-10926190D01*
X29726190Y-11426190D01*
X30083333Y-10926190D02*
X30392857Y-10926190D01*
X30226190Y-11116666D01*
X30297619Y-11116666D01*
X30345238Y-11140476D01*
X30369047Y-11164285D01*
X30392857Y-11211904D01*
X30392857Y-11330952D01*
X30369047Y-11378571D01*
X30345238Y-11402380D01*
X30297619Y-11426190D01*
X30154761Y-11426190D01*
X30107142Y-11402380D01*
X30083333Y-11378571D01*
X30702380Y-10926190D02*
X30750000Y-10926190D01*
X30797619Y-10950000D01*
X30821428Y-10973809D01*
X30845238Y-11021428D01*
X30869047Y-11116666D01*
X30869047Y-11235714D01*
X30845238Y-11330952D01*
X30821428Y-11378571D01*
X30797619Y-11402380D01*
X30750000Y-11426190D01*
X30702380Y-11426190D01*
X30654761Y-11402380D01*
X30630952Y-11378571D01*
X30607142Y-11330952D01*
X30583333Y-11235714D01*
X30583333Y-11116666D01*
X30607142Y-11021428D01*
X30630952Y-10973809D01*
X30654761Y-10950000D01*
X30702380Y-10926190D01*
X30126190Y-20559523D02*
X29888095Y-20726190D01*
X30126190Y-20845238D02*
X29626190Y-20845238D01*
X29626190Y-20654761D01*
X29650000Y-20607142D01*
X29673809Y-20583333D01*
X29721428Y-20559523D01*
X29792857Y-20559523D01*
X29840476Y-20583333D01*
X29864285Y-20607142D01*
X29888095Y-20654761D01*
X29888095Y-20845238D01*
X29626190Y-20392857D02*
X29626190Y-20059523D01*
X30126190Y-20273809D01*
X29626190Y-19916666D02*
X29626190Y-19607142D01*
X29816666Y-19773809D01*
X29816666Y-19702380D01*
X29840476Y-19654761D01*
X29864285Y-19630952D01*
X29911904Y-19607142D01*
X30030952Y-19607142D01*
X30078571Y-19630952D01*
X30102380Y-19654761D01*
X30126190Y-19702380D01*
X30126190Y-19845238D01*
X30102380Y-19892857D01*
X30078571Y-19916666D01*
X30126190Y-19130952D02*
X30126190Y-19416666D01*
X30126190Y-19273809D02*
X29626190Y-19273809D01*
X29697619Y-19321428D01*
X29745238Y-19369047D01*
X29769047Y-19416666D01*
X34626190Y-20559523D02*
X34388095Y-20726190D01*
X34626190Y-20845238D02*
X34126190Y-20845238D01*
X34126190Y-20654761D01*
X34150000Y-20607142D01*
X34173809Y-20583333D01*
X34221428Y-20559523D01*
X34292857Y-20559523D01*
X34340476Y-20583333D01*
X34364285Y-20607142D01*
X34388095Y-20654761D01*
X34388095Y-20845238D01*
X34126190Y-20392857D02*
X34126190Y-20059523D01*
X34626190Y-20273809D01*
X34126190Y-19916666D02*
X34126190Y-19607142D01*
X34316666Y-19773809D01*
X34316666Y-19702380D01*
X34340476Y-19654761D01*
X34364285Y-19630952D01*
X34411904Y-19607142D01*
X34530952Y-19607142D01*
X34578571Y-19630952D01*
X34602380Y-19654761D01*
X34626190Y-19702380D01*
X34626190Y-19845238D01*
X34602380Y-19892857D01*
X34578571Y-19916666D01*
X34173809Y-19416666D02*
X34150000Y-19392857D01*
X34126190Y-19345238D01*
X34126190Y-19226190D01*
X34150000Y-19178571D01*
X34173809Y-19154761D01*
X34221428Y-19130952D01*
X34269047Y-19130952D01*
X34340476Y-19154761D01*
X34626190Y-19440476D01*
X34626190Y-19130952D01*
D10*
X714285Y-30404761D02*
X857142Y-30452380D01*
X1095238Y-30452380D01*
X1190476Y-30404761D01*
X1238095Y-30357142D01*
X1285714Y-30261904D01*
X1285714Y-30166666D01*
X1238095Y-30071428D01*
X1190476Y-30023809D01*
X1095238Y-29976190D01*
X904761Y-29928571D01*
X809523Y-29880952D01*
X761904Y-29833333D01*
X714285Y-29738095D01*
X714285Y-29642857D01*
X761904Y-29547619D01*
X809523Y-29500000D01*
X904761Y-29452380D01*
X1142857Y-29452380D01*
X1285714Y-29500000D01*
X1619047Y-29452380D02*
X1857142Y-30452380D01*
X2047619Y-29738095D01*
X2238095Y-30452380D01*
X2476190Y-29452380D01*
X2761904Y-29452380D02*
X3380952Y-29452380D01*
X3047619Y-29833333D01*
X3190476Y-29833333D01*
X3285714Y-29880952D01*
X3333333Y-29928571D01*
X3380952Y-30023809D01*
X3380952Y-30261904D01*
X3333333Y-30357142D01*
X3285714Y-30404761D01*
X3190476Y-30452380D01*
X2904761Y-30452380D01*
X2809523Y-30404761D01*
X2761904Y-30357142D01*
X4000000Y-29452380D02*
X4095238Y-29452380D01*
X4190476Y-29500000D01*
X4238095Y-29547619D01*
X4285714Y-29642857D01*
X4333333Y-29833333D01*
X4333333Y-30071428D01*
X4285714Y-30261904D01*
X4238095Y-30357142D01*
X4190476Y-30404761D01*
X4095238Y-30452380D01*
X4000000Y-30452380D01*
X3904761Y-30404761D01*
X3857142Y-30357142D01*
X3809523Y-30261904D01*
X3761904Y-30071428D01*
X3761904Y-29833333D01*
X3809523Y-29642857D01*
X3857142Y-29547619D01*
X3904761Y-29500000D01*
X4000000Y-29452380D01*
X5285714Y-30452380D02*
X4714285Y-30452380D01*
X5000000Y-30452380D02*
X5000000Y-29452380D01*
X4904761Y-29595238D01*
X4809523Y-29690476D01*
X4714285Y-29738095D01*
X22152380Y-21714285D02*
X22961904Y-21714285D01*
X23057142Y-21666666D01*
X23104761Y-21619047D01*
X23152380Y-21523809D01*
X23152380Y-21333333D01*
X23104761Y-21238095D01*
X23057142Y-21190476D01*
X22961904Y-21142857D01*
X22152380Y-21142857D01*
X23152380Y-20142857D02*
X23152380Y-20714285D01*
X23152380Y-20428571D02*
X22152380Y-20428571D01*
X22295238Y-20523809D01*
X22390476Y-20619047D01*
X22438095Y-20714285D01*
X22152380Y-19523809D02*
X22152380Y-19428571D01*
X22200000Y-19333333D01*
X22247619Y-19285714D01*
X22342857Y-19238095D01*
X22533333Y-19190476D01*
X22771428Y-19190476D01*
X22961904Y-19238095D01*
X23057142Y-19285714D01*
X23104761Y-19333333D01*
X23152380Y-19428571D01*
X23152380Y-19523809D01*
X23104761Y-19619047D01*
X23057142Y-19666666D01*
X22961904Y-19714285D01*
X22771428Y-19761904D01*
X22533333Y-19761904D01*
X22342857Y-19714285D01*
X22247619Y-19666666D01*
X22200000Y-19619047D01*
X22152380Y-19523809D01*
X22152380Y-18285714D02*
X22152380Y-18761904D01*
X22628571Y-18809523D01*
X22580952Y-18761904D01*
X22533333Y-18666666D01*
X22533333Y-18428571D01*
X22580952Y-18333333D01*
X22628571Y-18285714D01*
X22723809Y-18238095D01*
X22961904Y-18238095D01*
X23057142Y-18285714D01*
X23104761Y-18333333D01*
X23152380Y-18428571D01*
X23152380Y-18666666D01*
X23104761Y-18761904D01*
X23057142Y-18809523D01*
X10852380Y-21714285D02*
X11661904Y-21714285D01*
X11757142Y-21666666D01*
X11804761Y-21619047D01*
X11852380Y-21523809D01*
X11852380Y-21333333D01*
X11804761Y-21238095D01*
X11757142Y-21190476D01*
X11661904Y-21142857D01*
X10852380Y-21142857D01*
X11852380Y-20142857D02*
X11852380Y-20714285D01*
X11852380Y-20428571D02*
X10852380Y-20428571D01*
X10995238Y-20523809D01*
X11090476Y-20619047D01*
X11138095Y-20714285D01*
X10852380Y-19523809D02*
X10852380Y-19428571D01*
X10900000Y-19333333D01*
X10947619Y-19285714D01*
X11042857Y-19238095D01*
X11233333Y-19190476D01*
X11471428Y-19190476D01*
X11661904Y-19238095D01*
X11757142Y-19285714D01*
X11804761Y-19333333D01*
X11852380Y-19428571D01*
X11852380Y-19523809D01*
X11804761Y-19619047D01*
X11757142Y-19666666D01*
X11661904Y-19714285D01*
X11471428Y-19761904D01*
X11233333Y-19761904D01*
X11042857Y-19714285D01*
X10947619Y-19666666D01*
X10900000Y-19619047D01*
X10852380Y-19523809D01*
X10852380Y-18333333D02*
X10852380Y-18523809D01*
X10900000Y-18619047D01*
X10947619Y-18666666D01*
X11090476Y-18761904D01*
X11280952Y-18809523D01*
X11661904Y-18809523D01*
X11757142Y-18761904D01*
X11804761Y-18714285D01*
X11852380Y-18619047D01*
X11852380Y-18428571D01*
X11804761Y-18333333D01*
X11757142Y-18285714D01*
X11661904Y-18238095D01*
X11423809Y-18238095D01*
X11328571Y-18285714D01*
X11280952Y-18333333D01*
X11233333Y-18428571D01*
X11233333Y-18619047D01*
X11280952Y-18714285D01*
X11328571Y-18761904D01*
X11423809Y-18809523D01*
X24714285Y-40452380D02*
X24714285Y-41166666D01*
X24666666Y-41309523D01*
X24571428Y-41404761D01*
X24428571Y-41452380D01*
X24333333Y-41452380D01*
X25666666Y-40452380D02*
X25190476Y-40452380D01*
X25142857Y-40928571D01*
X25190476Y-40880952D01*
X25285714Y-40833333D01*
X25523809Y-40833333D01*
X25619047Y-40880952D01*
X25666666Y-40928571D01*
X25714285Y-41023809D01*
X25714285Y-41261904D01*
X25666666Y-41357142D01*
X25619047Y-41404761D01*
X25523809Y-41452380D01*
X25285714Y-41452380D01*
X25190476Y-41404761D01*
X25142857Y-41357142D01*
X26333333Y-40452380D02*
X26428571Y-40452380D01*
X26523809Y-40500000D01*
X26571428Y-40547619D01*
X26619047Y-40642857D01*
X26666666Y-40833333D01*
X26666666Y-41071428D01*
X26619047Y-41261904D01*
X26571428Y-41357142D01*
X26523809Y-41404761D01*
X26428571Y-41452380D01*
X26333333Y-41452380D01*
X26238095Y-41404761D01*
X26190476Y-41357142D01*
X26142857Y-41261904D01*
X26095238Y-41071428D01*
X26095238Y-40833333D01*
X26142857Y-40642857D01*
X26190476Y-40547619D01*
X26238095Y-40500000D01*
X26333333Y-40452380D01*
X27523809Y-40452380D02*
X27333333Y-40452380D01*
X27238095Y-40500000D01*
X27190476Y-40547619D01*
X27095238Y-40690476D01*
X27047619Y-40880952D01*
X27047619Y-41261904D01*
X27095238Y-41357142D01*
X27142857Y-41404761D01*
X27238095Y-41452380D01*
X27428571Y-41452380D01*
X27523809Y-41404761D01*
X27571428Y-41357142D01*
X27619047Y-41261904D01*
X27619047Y-41023809D01*
X27571428Y-40928571D01*
X27523809Y-40880952D01*
X27428571Y-40833333D01*
X27238095Y-40833333D01*
X27142857Y-40880952D01*
X27095238Y-40928571D01*
X27047619Y-41023809D01*
X2152380Y-25585714D02*
X2866666Y-25585714D01*
X3009523Y-25633333D01*
X3104761Y-25728571D01*
X3152380Y-25871428D01*
X3152380Y-25966666D01*
X2152380Y-24633333D02*
X2152380Y-25109523D01*
X2628571Y-25157142D01*
X2580952Y-25109523D01*
X2533333Y-25014285D01*
X2533333Y-24776190D01*
X2580952Y-24680952D01*
X2628571Y-24633333D01*
X2723809Y-24585714D01*
X2961904Y-24585714D01*
X3057142Y-24633333D01*
X3104761Y-24680952D01*
X3152380Y-24776190D01*
X3152380Y-25014285D01*
X3104761Y-25109523D01*
X3057142Y-25157142D01*
X2152380Y-23966666D02*
X2152380Y-23871428D01*
X2200000Y-23776190D01*
X2247619Y-23728571D01*
X2342857Y-23680952D01*
X2533333Y-23633333D01*
X2771428Y-23633333D01*
X2961904Y-23680952D01*
X3057142Y-23728571D01*
X3104761Y-23776190D01*
X3152380Y-23871428D01*
X3152380Y-23966666D01*
X3104761Y-24061904D01*
X3057142Y-24109523D01*
X2961904Y-24157142D01*
X2771428Y-24204761D01*
X2533333Y-24204761D01*
X2342857Y-24157142D01*
X2247619Y-24109523D01*
X2200000Y-24061904D01*
X2152380Y-23966666D01*
X2152380Y-23300000D02*
X2152380Y-22633333D01*
X3152380Y-23061904D01*
M02*
