G04 #@! TF.GenerationSoftware,KiCad,Pcbnew,5.1.4-e60b266~84~ubuntu18.04.1*
G04 #@! TF.CreationDate,2019-11-14T17:11:49-08:00*
G04 #@! TF.ProjectId,VehicleAccessoryControllerTestBoard,56656869-636c-4654-9163-636573736f72,0.0*
G04 #@! TF.SameCoordinates,PX7829b80PY4c4b400*
G04 #@! TF.FileFunction,Copper,L2,Inr*
G04 #@! TF.FilePolarity,Positive*
%FSLAX46Y46*%
G04 Gerber Fmt 4.6, Leading zero omitted, Abs format (unit mm)*
G04 Created by KiCad (PCBNEW 5.1.4-e60b266~84~ubuntu18.04.1) date 2019-11-14 17:11:49*
%MOMM*%
%LPD*%
G04 APERTURE LIST*
%ADD10O,1.700000X1.700000*%
%ADD11R,1.700000X1.700000*%
%ADD12C,2.000000*%
%ADD13C,1.900000*%
%ADD14C,1.200000*%
%ADD15C,0.685800*%
%ADD16C,0.254000*%
G04 APERTURE END LIST*
D10*
X17110000Y0D03*
X19650000Y0D03*
X22190000Y0D03*
X24730000Y0D03*
X27270000Y0D03*
X29810000Y0D03*
X32350000Y0D03*
D11*
X34890000Y0D03*
D12*
X1810000Y-10000000D03*
X1810000Y-5000000D03*
X1810000Y-15000000D03*
X49190000Y-5000000D03*
X49190000Y-15000000D03*
X49190000Y-10000000D03*
X49190000Y-31000000D03*
X49190000Y-36000000D03*
X49190000Y-26000000D03*
D13*
X8000000Y-32460000D03*
X8000000Y-35000000D03*
X8000000Y-37540000D03*
X2920000Y-32460000D03*
X2920000Y-37540000D03*
D14*
X23800000Y-36000000D03*
X28200000Y-36000000D03*
D11*
X0Y-23000000D03*
D10*
X0Y-25540000D03*
D15*
X15000000Y-36600000D03*
X12250000Y-30300000D03*
X15000000Y-33100000D03*
X13400000Y-35500000D03*
X16500000Y-35500000D03*
X17700000Y-30300000D03*
X18000000Y-39700000D03*
X12600000Y-9600000D03*
X15000000Y-26500000D03*
X13500000Y-16900000D03*
X19700000Y-12100000D03*
X14500000Y-4000000D03*
X41200000Y-11500000D03*
X41100000Y-32500000D03*
X34700000Y-25000000D03*
X34700000Y-27000000D03*
X19700000Y-5000000D03*
X11300000Y-22400000D03*
X23300000Y-28950000D03*
X29700000Y-25000000D03*
X28900000Y-22900000D03*
X34400000Y-17500000D03*
X34750000Y-14600000D03*
X18500000Y-23400000D03*
X31100000Y-30500000D03*
X24800000Y-23200000D03*
X27600000Y-31200000D03*
X34200000Y-36200000D03*
X17000000Y-26500000D03*
X18500000Y-16700000D03*
X26000000Y-20000000D03*
X34400000Y-20700000D03*
X28700000Y-28950000D03*
X24900000Y-25600000D03*
X25200000Y-30400000D03*
X28700000Y-27050000D03*
X39750000Y-11500000D03*
X39750000Y-32500000D03*
X11300000Y-18900000D03*
X11300000Y-20600000D03*
D16*
G36*
X16280986Y1240706D02*
G01*
X16054866Y1055134D01*
X15869294Y829014D01*
X15731401Y571034D01*
X15646487Y291111D01*
X15617815Y0D01*
X15646487Y-291111D01*
X15731401Y-571034D01*
X15869294Y-829014D01*
X16054866Y-1055134D01*
X16280986Y-1240706D01*
X16538966Y-1378599D01*
X16818889Y-1463513D01*
X17037050Y-1485000D01*
X17182950Y-1485000D01*
X17401111Y-1463513D01*
X17681034Y-1378599D01*
X17939014Y-1240706D01*
X18165134Y-1055134D01*
X18350706Y-829014D01*
X18380000Y-774209D01*
X18409294Y-829014D01*
X18594866Y-1055134D01*
X18820986Y-1240706D01*
X19078966Y-1378599D01*
X19358889Y-1463513D01*
X19577050Y-1485000D01*
X19722950Y-1485000D01*
X19941111Y-1463513D01*
X20221034Y-1378599D01*
X20479014Y-1240706D01*
X20705134Y-1055134D01*
X20890706Y-829014D01*
X20920000Y-774209D01*
X20949294Y-829014D01*
X21134866Y-1055134D01*
X21360986Y-1240706D01*
X21618966Y-1378599D01*
X21898889Y-1463513D01*
X22117050Y-1485000D01*
X22262950Y-1485000D01*
X22481111Y-1463513D01*
X22761034Y-1378599D01*
X23019014Y-1240706D01*
X23245134Y-1055134D01*
X23430706Y-829014D01*
X23460000Y-774209D01*
X23489294Y-829014D01*
X23674866Y-1055134D01*
X23900986Y-1240706D01*
X24158966Y-1378599D01*
X24438889Y-1463513D01*
X24657050Y-1485000D01*
X24802950Y-1485000D01*
X25021111Y-1463513D01*
X25301034Y-1378599D01*
X25559014Y-1240706D01*
X25785134Y-1055134D01*
X25970706Y-829014D01*
X26000000Y-774209D01*
X26029294Y-829014D01*
X26214866Y-1055134D01*
X26440986Y-1240706D01*
X26698966Y-1378599D01*
X26978889Y-1463513D01*
X27197050Y-1485000D01*
X27342950Y-1485000D01*
X27561111Y-1463513D01*
X27841034Y-1378599D01*
X28099014Y-1240706D01*
X28325134Y-1055134D01*
X28510706Y-829014D01*
X28540000Y-774209D01*
X28569294Y-829014D01*
X28754866Y-1055134D01*
X28980986Y-1240706D01*
X29238966Y-1378599D01*
X29518889Y-1463513D01*
X29737050Y-1485000D01*
X29882950Y-1485000D01*
X30101111Y-1463513D01*
X30381034Y-1378599D01*
X30639014Y-1240706D01*
X30865134Y-1055134D01*
X31050706Y-829014D01*
X31080000Y-774209D01*
X31109294Y-829014D01*
X31294866Y-1055134D01*
X31520986Y-1240706D01*
X31778966Y-1378599D01*
X32058889Y-1463513D01*
X32277050Y-1485000D01*
X32422950Y-1485000D01*
X32641111Y-1463513D01*
X32921034Y-1378599D01*
X33179014Y-1240706D01*
X33405134Y-1055134D01*
X33429607Y-1025313D01*
X33450498Y-1094180D01*
X33509463Y-1204494D01*
X33588815Y-1301185D01*
X33685506Y-1380537D01*
X33795820Y-1439502D01*
X33915518Y-1475812D01*
X34040000Y-1488072D01*
X34604250Y-1485000D01*
X34763000Y-1326250D01*
X34763000Y-127000D01*
X35017000Y-127000D01*
X35017000Y-1326250D01*
X35175750Y-1485000D01*
X35740000Y-1488072D01*
X35864482Y-1475812D01*
X35984180Y-1439502D01*
X36094494Y-1380537D01*
X36191185Y-1301185D01*
X36270537Y-1204494D01*
X36329502Y-1094180D01*
X36365812Y-974482D01*
X36378072Y-850000D01*
X36375000Y-285750D01*
X36216250Y-127000D01*
X35017000Y-127000D01*
X34763000Y-127000D01*
X34743000Y-127000D01*
X34743000Y127000D01*
X34763000Y127000D01*
X34763000Y147000D01*
X35017000Y147000D01*
X35017000Y127000D01*
X36216250Y127000D01*
X36375000Y285750D01*
X36378072Y850000D01*
X36365812Y974482D01*
X36329502Y1094180D01*
X36270537Y1204494D01*
X36200364Y1290000D01*
X52290000Y1290000D01*
X52290001Y-41290000D01*
X35335000Y-41290000D01*
X35335000Y-37135413D01*
X48234192Y-37135413D01*
X48329956Y-37399814D01*
X48619571Y-37540704D01*
X48931108Y-37622384D01*
X49252595Y-37641718D01*
X49571675Y-37597961D01*
X49876088Y-37492795D01*
X50050044Y-37399814D01*
X50145808Y-37135413D01*
X49190000Y-36179605D01*
X48234192Y-37135413D01*
X35335000Y-37135413D01*
X35335000Y-36062595D01*
X47548282Y-36062595D01*
X47592039Y-36381675D01*
X47697205Y-36686088D01*
X47790186Y-36860044D01*
X48054587Y-36955808D01*
X49010395Y-36000000D01*
X49369605Y-36000000D01*
X50325413Y-36955808D01*
X50589814Y-36860044D01*
X50730704Y-36570429D01*
X50812384Y-36258892D01*
X50831718Y-35937405D01*
X50787961Y-35618325D01*
X50682795Y-35313912D01*
X50589814Y-35139956D01*
X50325413Y-35044192D01*
X49369605Y-36000000D01*
X49010395Y-36000000D01*
X48054587Y-35044192D01*
X47790186Y-35139956D01*
X47649296Y-35429571D01*
X47567616Y-35741108D01*
X47548282Y-36062595D01*
X35335000Y-36062595D01*
X35335000Y-34864587D01*
X48234192Y-34864587D01*
X49190000Y-35820395D01*
X50145808Y-34864587D01*
X50050044Y-34600186D01*
X49760429Y-34459296D01*
X49448892Y-34377616D01*
X49127405Y-34358282D01*
X48808325Y-34402039D01*
X48503912Y-34507205D01*
X48329956Y-34600186D01*
X48234192Y-34864587D01*
X35335000Y-34864587D01*
X35335000Y-32403685D01*
X38772100Y-32403685D01*
X38772100Y-32596315D01*
X38809680Y-32785243D01*
X38883396Y-32963210D01*
X38990415Y-33123375D01*
X39126625Y-33259585D01*
X39286790Y-33366604D01*
X39464757Y-33440320D01*
X39653685Y-33477900D01*
X39846315Y-33477900D01*
X40035243Y-33440320D01*
X40213210Y-33366604D01*
X40373375Y-33259585D01*
X40425000Y-33207960D01*
X40476625Y-33259585D01*
X40636790Y-33366604D01*
X40814757Y-33440320D01*
X41003685Y-33477900D01*
X41196315Y-33477900D01*
X41385243Y-33440320D01*
X41563210Y-33366604D01*
X41723375Y-33259585D01*
X41859585Y-33123375D01*
X41966604Y-32963210D01*
X42040320Y-32785243D01*
X42077900Y-32596315D01*
X42077900Y-32403685D01*
X42040320Y-32214757D01*
X41966604Y-32036790D01*
X41859585Y-31876625D01*
X41723375Y-31740415D01*
X41563210Y-31633396D01*
X41385243Y-31559680D01*
X41196315Y-31522100D01*
X41003685Y-31522100D01*
X40814757Y-31559680D01*
X40636790Y-31633396D01*
X40476625Y-31740415D01*
X40425000Y-31792040D01*
X40373375Y-31740415D01*
X40213210Y-31633396D01*
X40035243Y-31559680D01*
X39846315Y-31522100D01*
X39653685Y-31522100D01*
X39464757Y-31559680D01*
X39286790Y-31633396D01*
X39126625Y-31740415D01*
X38990415Y-31876625D01*
X38883396Y-32036790D01*
X38809680Y-32214757D01*
X38772100Y-32403685D01*
X35335000Y-32403685D01*
X35335000Y-30900000D01*
X35328989Y-30838967D01*
X47555000Y-30838967D01*
X47555000Y-31161033D01*
X47617832Y-31476912D01*
X47741082Y-31774463D01*
X47920013Y-32042252D01*
X48147748Y-32269987D01*
X48415537Y-32448918D01*
X48713088Y-32572168D01*
X49028967Y-32635000D01*
X49351033Y-32635000D01*
X49666912Y-32572168D01*
X49964463Y-32448918D01*
X50232252Y-32269987D01*
X50459987Y-32042252D01*
X50638918Y-31774463D01*
X50762168Y-31476912D01*
X50825000Y-31161033D01*
X50825000Y-30838967D01*
X50762168Y-30523088D01*
X50638918Y-30225537D01*
X50459987Y-29957748D01*
X50232252Y-29730013D01*
X49964463Y-29551082D01*
X49666912Y-29427832D01*
X49351033Y-29365000D01*
X49028967Y-29365000D01*
X48713088Y-29427832D01*
X48415537Y-29551082D01*
X48147748Y-29730013D01*
X47920013Y-29957748D01*
X47741082Y-30225537D01*
X47617832Y-30523088D01*
X47555000Y-30838967D01*
X35328989Y-30838967D01*
X35322799Y-30776118D01*
X35286664Y-30656996D01*
X35227983Y-30547213D01*
X35149013Y-30450987D01*
X35052787Y-30372017D01*
X34943004Y-30313336D01*
X34823882Y-30277201D01*
X34700000Y-30265000D01*
X32535000Y-30265000D01*
X32535000Y-26903685D01*
X33722100Y-26903685D01*
X33722100Y-27096315D01*
X33759680Y-27285243D01*
X33833396Y-27463210D01*
X33940415Y-27623375D01*
X34076625Y-27759585D01*
X34236790Y-27866604D01*
X34414757Y-27940320D01*
X34603685Y-27977900D01*
X34796315Y-27977900D01*
X34985243Y-27940320D01*
X35163210Y-27866604D01*
X35323375Y-27759585D01*
X35459585Y-27623375D01*
X35566604Y-27463210D01*
X35640320Y-27285243D01*
X35677900Y-27096315D01*
X35677900Y-26903685D01*
X35640320Y-26714757D01*
X35566604Y-26536790D01*
X35459585Y-26376625D01*
X35323375Y-26240415D01*
X35163210Y-26133396D01*
X34985243Y-26059680D01*
X34796315Y-26022100D01*
X34603685Y-26022100D01*
X34414757Y-26059680D01*
X34236790Y-26133396D01*
X34076625Y-26240415D01*
X33940415Y-26376625D01*
X33833396Y-26536790D01*
X33759680Y-26714757D01*
X33722100Y-26903685D01*
X32535000Y-26903685D01*
X32535000Y-24903685D01*
X33722100Y-24903685D01*
X33722100Y-25096315D01*
X33759680Y-25285243D01*
X33833396Y-25463210D01*
X33940415Y-25623375D01*
X34076625Y-25759585D01*
X34236790Y-25866604D01*
X34414757Y-25940320D01*
X34603685Y-25977900D01*
X34796315Y-25977900D01*
X34985243Y-25940320D01*
X35163210Y-25866604D01*
X35204571Y-25838967D01*
X47555000Y-25838967D01*
X47555000Y-26161033D01*
X47617832Y-26476912D01*
X47741082Y-26774463D01*
X47920013Y-27042252D01*
X48147748Y-27269987D01*
X48415537Y-27448918D01*
X48713088Y-27572168D01*
X49028967Y-27635000D01*
X49351033Y-27635000D01*
X49666912Y-27572168D01*
X49964463Y-27448918D01*
X50232252Y-27269987D01*
X50459987Y-27042252D01*
X50638918Y-26774463D01*
X50762168Y-26476912D01*
X50825000Y-26161033D01*
X50825000Y-25838967D01*
X50762168Y-25523088D01*
X50638918Y-25225537D01*
X50459987Y-24957748D01*
X50232252Y-24730013D01*
X49964463Y-24551082D01*
X49666912Y-24427832D01*
X49351033Y-24365000D01*
X49028967Y-24365000D01*
X48713088Y-24427832D01*
X48415537Y-24551082D01*
X48147748Y-24730013D01*
X47920013Y-24957748D01*
X47741082Y-25225537D01*
X47617832Y-25523088D01*
X47555000Y-25838967D01*
X35204571Y-25838967D01*
X35323375Y-25759585D01*
X35459585Y-25623375D01*
X35566604Y-25463210D01*
X35640320Y-25285243D01*
X35677900Y-25096315D01*
X35677900Y-24903685D01*
X35640320Y-24714757D01*
X35566604Y-24536790D01*
X35459585Y-24376625D01*
X35323375Y-24240415D01*
X35163210Y-24133396D01*
X34985243Y-24059680D01*
X34796315Y-24022100D01*
X34603685Y-24022100D01*
X34414757Y-24059680D01*
X34236790Y-24133396D01*
X34076625Y-24240415D01*
X33940415Y-24376625D01*
X33833396Y-24536790D01*
X33759680Y-24714757D01*
X33722100Y-24903685D01*
X32535000Y-24903685D01*
X32535000Y-22635000D01*
X36300000Y-22635000D01*
X36423882Y-22622799D01*
X36543004Y-22586664D01*
X36652787Y-22527983D01*
X36749013Y-22449013D01*
X36827983Y-22352787D01*
X36886664Y-22243004D01*
X36922799Y-22123882D01*
X36935000Y-22000000D01*
X36935000Y-16135413D01*
X48234192Y-16135413D01*
X48329956Y-16399814D01*
X48619571Y-16540704D01*
X48931108Y-16622384D01*
X49252595Y-16641718D01*
X49571675Y-16597961D01*
X49876088Y-16492795D01*
X50050044Y-16399814D01*
X50145808Y-16135413D01*
X49190000Y-15179605D01*
X48234192Y-16135413D01*
X36935000Y-16135413D01*
X36935000Y-15062595D01*
X47548282Y-15062595D01*
X47592039Y-15381675D01*
X47697205Y-15686088D01*
X47790186Y-15860044D01*
X48054587Y-15955808D01*
X49010395Y-15000000D01*
X49369605Y-15000000D01*
X50325413Y-15955808D01*
X50589814Y-15860044D01*
X50730704Y-15570429D01*
X50812384Y-15258892D01*
X50831718Y-14937405D01*
X50787961Y-14618325D01*
X50682795Y-14313912D01*
X50589814Y-14139956D01*
X50325413Y-14044192D01*
X49369605Y-15000000D01*
X49010395Y-15000000D01*
X48054587Y-14044192D01*
X47790186Y-14139956D01*
X47649296Y-14429571D01*
X47567616Y-14741108D01*
X47548282Y-15062595D01*
X36935000Y-15062595D01*
X36935000Y-13864587D01*
X48234192Y-13864587D01*
X49190000Y-14820395D01*
X50145808Y-13864587D01*
X50050044Y-13600186D01*
X49760429Y-13459296D01*
X49448892Y-13377616D01*
X49127405Y-13358282D01*
X48808325Y-13402039D01*
X48503912Y-13507205D01*
X48329956Y-13600186D01*
X48234192Y-13864587D01*
X36935000Y-13864587D01*
X36935000Y-11403685D01*
X38772100Y-11403685D01*
X38772100Y-11596315D01*
X38809680Y-11785243D01*
X38883396Y-11963210D01*
X38990415Y-12123375D01*
X39126625Y-12259585D01*
X39286790Y-12366604D01*
X39464757Y-12440320D01*
X39653685Y-12477900D01*
X39846315Y-12477900D01*
X40035243Y-12440320D01*
X40213210Y-12366604D01*
X40373375Y-12259585D01*
X40475000Y-12157960D01*
X40576625Y-12259585D01*
X40736790Y-12366604D01*
X40914757Y-12440320D01*
X41103685Y-12477900D01*
X41296315Y-12477900D01*
X41485243Y-12440320D01*
X41663210Y-12366604D01*
X41823375Y-12259585D01*
X41959585Y-12123375D01*
X42066604Y-11963210D01*
X42140320Y-11785243D01*
X42177900Y-11596315D01*
X42177900Y-11403685D01*
X42140320Y-11214757D01*
X42066604Y-11036790D01*
X41959585Y-10876625D01*
X41823375Y-10740415D01*
X41663210Y-10633396D01*
X41485243Y-10559680D01*
X41296315Y-10522100D01*
X41103685Y-10522100D01*
X40914757Y-10559680D01*
X40736790Y-10633396D01*
X40576625Y-10740415D01*
X40475000Y-10842040D01*
X40373375Y-10740415D01*
X40213210Y-10633396D01*
X40035243Y-10559680D01*
X39846315Y-10522100D01*
X39653685Y-10522100D01*
X39464757Y-10559680D01*
X39286790Y-10633396D01*
X39126625Y-10740415D01*
X38990415Y-10876625D01*
X38883396Y-11036790D01*
X38809680Y-11214757D01*
X38772100Y-11403685D01*
X36935000Y-11403685D01*
X36935000Y-9838967D01*
X47555000Y-9838967D01*
X47555000Y-10161033D01*
X47617832Y-10476912D01*
X47741082Y-10774463D01*
X47920013Y-11042252D01*
X48147748Y-11269987D01*
X48415537Y-11448918D01*
X48713088Y-11572168D01*
X49028967Y-11635000D01*
X49351033Y-11635000D01*
X49666912Y-11572168D01*
X49964463Y-11448918D01*
X50232252Y-11269987D01*
X50459987Y-11042252D01*
X50638918Y-10774463D01*
X50762168Y-10476912D01*
X50825000Y-10161033D01*
X50825000Y-9838967D01*
X50762168Y-9523088D01*
X50638918Y-9225537D01*
X50459987Y-8957748D01*
X50232252Y-8730013D01*
X49964463Y-8551082D01*
X49666912Y-8427832D01*
X49351033Y-8365000D01*
X49028967Y-8365000D01*
X48713088Y-8427832D01*
X48415537Y-8551082D01*
X48147748Y-8730013D01*
X47920013Y-8957748D01*
X47741082Y-9225537D01*
X47617832Y-9523088D01*
X47555000Y-9838967D01*
X36935000Y-9838967D01*
X36935000Y-8500000D01*
X36922799Y-8376118D01*
X36886664Y-8256996D01*
X36827983Y-8147213D01*
X36749013Y-8050987D01*
X36652787Y-7972017D01*
X36543004Y-7913336D01*
X36423882Y-7877201D01*
X36300000Y-7865000D01*
X25000000Y-7865000D01*
X24876118Y-7877201D01*
X24756996Y-7913336D01*
X24647213Y-7972017D01*
X24550987Y-8050987D01*
X24472017Y-8147213D01*
X24413336Y-8256996D01*
X24377201Y-8376118D01*
X24365000Y-8500000D01*
X24365000Y-15365000D01*
X16300000Y-15365000D01*
X16176118Y-15377201D01*
X16056996Y-15413336D01*
X15947213Y-15472017D01*
X15850987Y-15550987D01*
X15772017Y-15647213D01*
X15713336Y-15756996D01*
X15677201Y-15876118D01*
X15665000Y-16000000D01*
X15665000Y-25782040D01*
X15623375Y-25740415D01*
X15463210Y-25633396D01*
X15285243Y-25559680D01*
X15096315Y-25522100D01*
X14903685Y-25522100D01*
X14714757Y-25559680D01*
X14536790Y-25633396D01*
X14376625Y-25740415D01*
X14240415Y-25876625D01*
X14133396Y-26036790D01*
X14059680Y-26214757D01*
X14022100Y-26403685D01*
X14022100Y-26596315D01*
X14059680Y-26785243D01*
X14133396Y-26963210D01*
X14240415Y-27123375D01*
X14376625Y-27259585D01*
X14536790Y-27366604D01*
X14714757Y-27440320D01*
X14903685Y-27477900D01*
X15096315Y-27477900D01*
X15285243Y-27440320D01*
X15463210Y-27366604D01*
X15623375Y-27259585D01*
X15665000Y-27217960D01*
X15665000Y-27965000D01*
X9635000Y-27965000D01*
X9635000Y-18803685D01*
X10322100Y-18803685D01*
X10322100Y-18996315D01*
X10359680Y-19185243D01*
X10433396Y-19363210D01*
X10540415Y-19523375D01*
X10676625Y-19659585D01*
X10811940Y-19750000D01*
X10676625Y-19840415D01*
X10540415Y-19976625D01*
X10433396Y-20136790D01*
X10359680Y-20314757D01*
X10322100Y-20503685D01*
X10322100Y-20696315D01*
X10359680Y-20885243D01*
X10433396Y-21063210D01*
X10540415Y-21223375D01*
X10676625Y-21359585D01*
X10836790Y-21466604D01*
X11014757Y-21540320D01*
X11203685Y-21577900D01*
X11396315Y-21577900D01*
X11585243Y-21540320D01*
X11763210Y-21466604D01*
X11923375Y-21359585D01*
X12059585Y-21223375D01*
X12166604Y-21063210D01*
X12240320Y-20885243D01*
X12277900Y-20696315D01*
X12277900Y-20503685D01*
X12240320Y-20314757D01*
X12166604Y-20136790D01*
X12059585Y-19976625D01*
X11923375Y-19840415D01*
X11788060Y-19750000D01*
X11923375Y-19659585D01*
X12059585Y-19523375D01*
X12166604Y-19363210D01*
X12240320Y-19185243D01*
X12277900Y-18996315D01*
X12277900Y-18803685D01*
X12240320Y-18614757D01*
X12166604Y-18436790D01*
X12059585Y-18276625D01*
X11923375Y-18140415D01*
X11763210Y-18033396D01*
X11585243Y-17959680D01*
X11396315Y-17922100D01*
X11203685Y-17922100D01*
X11014757Y-17959680D01*
X10836790Y-18033396D01*
X10676625Y-18140415D01*
X10540415Y-18276625D01*
X10433396Y-18436790D01*
X10359680Y-18614757D01*
X10322100Y-18803685D01*
X9635000Y-18803685D01*
X9635000Y-16803685D01*
X12522100Y-16803685D01*
X12522100Y-16996315D01*
X12559680Y-17185243D01*
X12633396Y-17363210D01*
X12740415Y-17523375D01*
X12876625Y-17659585D01*
X13036790Y-17766604D01*
X13214757Y-17840320D01*
X13403685Y-17877900D01*
X13596315Y-17877900D01*
X13785243Y-17840320D01*
X13963210Y-17766604D01*
X14123375Y-17659585D01*
X14259585Y-17523375D01*
X14366604Y-17363210D01*
X14440320Y-17185243D01*
X14477900Y-16996315D01*
X14477900Y-16803685D01*
X14440320Y-16614757D01*
X14366604Y-16436790D01*
X14259585Y-16276625D01*
X14123375Y-16140415D01*
X13963210Y-16033396D01*
X13785243Y-15959680D01*
X13596315Y-15922100D01*
X13403685Y-15922100D01*
X13214757Y-15959680D01*
X13036790Y-16033396D01*
X12876625Y-16140415D01*
X12740415Y-16276625D01*
X12633396Y-16436790D01*
X12559680Y-16614757D01*
X12522100Y-16803685D01*
X9635000Y-16803685D01*
X9635000Y-12135000D01*
X17000000Y-12135000D01*
X17123882Y-12122799D01*
X17243004Y-12086664D01*
X17352787Y-12027983D01*
X17382394Y-12003685D01*
X18722100Y-12003685D01*
X18722100Y-12196315D01*
X18759680Y-12385243D01*
X18833396Y-12563210D01*
X18940415Y-12723375D01*
X19076625Y-12859585D01*
X19236790Y-12966604D01*
X19414757Y-13040320D01*
X19603685Y-13077900D01*
X19796315Y-13077900D01*
X19985243Y-13040320D01*
X20163210Y-12966604D01*
X20323375Y-12859585D01*
X20459585Y-12723375D01*
X20566604Y-12563210D01*
X20640320Y-12385243D01*
X20677900Y-12196315D01*
X20677900Y-12003685D01*
X20640320Y-11814757D01*
X20566604Y-11636790D01*
X20459585Y-11476625D01*
X20323375Y-11340415D01*
X20163210Y-11233396D01*
X19985243Y-11159680D01*
X19796315Y-11122100D01*
X19603685Y-11122100D01*
X19414757Y-11159680D01*
X19236790Y-11233396D01*
X19076625Y-11340415D01*
X18940415Y-11476625D01*
X18833396Y-11636790D01*
X18759680Y-11814757D01*
X18722100Y-12003685D01*
X17382394Y-12003685D01*
X17449013Y-11949013D01*
X17527983Y-11852787D01*
X17586664Y-11743004D01*
X17622799Y-11623882D01*
X17635000Y-11500000D01*
X17635000Y-6500000D01*
X17622799Y-6376118D01*
X17586664Y-6256996D01*
X17527983Y-6147213D01*
X17449013Y-6050987D01*
X17352787Y-5972017D01*
X17243004Y-5913336D01*
X17123882Y-5877201D01*
X17000000Y-5865000D01*
X9635000Y-5865000D01*
X9635000Y-3903685D01*
X13522100Y-3903685D01*
X13522100Y-4096315D01*
X13559680Y-4285243D01*
X13633396Y-4463210D01*
X13740415Y-4623375D01*
X13876625Y-4759585D01*
X14036790Y-4866604D01*
X14214757Y-4940320D01*
X14403685Y-4977900D01*
X14596315Y-4977900D01*
X14785243Y-4940320D01*
X14963210Y-4866604D01*
X15004571Y-4838967D01*
X47555000Y-4838967D01*
X47555000Y-5161033D01*
X47617832Y-5476912D01*
X47741082Y-5774463D01*
X47920013Y-6042252D01*
X48147748Y-6269987D01*
X48415537Y-6448918D01*
X48713088Y-6572168D01*
X49028967Y-6635000D01*
X49351033Y-6635000D01*
X49666912Y-6572168D01*
X49964463Y-6448918D01*
X50232252Y-6269987D01*
X50459987Y-6042252D01*
X50638918Y-5774463D01*
X50762168Y-5476912D01*
X50825000Y-5161033D01*
X50825000Y-4838967D01*
X50762168Y-4523088D01*
X50638918Y-4225537D01*
X50459987Y-3957748D01*
X50232252Y-3730013D01*
X49964463Y-3551082D01*
X49666912Y-3427832D01*
X49351033Y-3365000D01*
X49028967Y-3365000D01*
X48713088Y-3427832D01*
X48415537Y-3551082D01*
X48147748Y-3730013D01*
X47920013Y-3957748D01*
X47741082Y-4225537D01*
X47617832Y-4523088D01*
X47555000Y-4838967D01*
X15004571Y-4838967D01*
X15123375Y-4759585D01*
X15259585Y-4623375D01*
X15366604Y-4463210D01*
X15440320Y-4285243D01*
X15477900Y-4096315D01*
X15477900Y-3903685D01*
X15440320Y-3714757D01*
X15366604Y-3536790D01*
X15259585Y-3376625D01*
X15123375Y-3240415D01*
X14963210Y-3133396D01*
X14785243Y-3059680D01*
X14596315Y-3022100D01*
X14403685Y-3022100D01*
X14214757Y-3059680D01*
X14036790Y-3133396D01*
X13876625Y-3240415D01*
X13740415Y-3376625D01*
X13633396Y-3536790D01*
X13559680Y-3714757D01*
X13522100Y-3903685D01*
X9635000Y-3903685D01*
X9635000Y1290000D01*
X16373209Y1290000D01*
X16280986Y1240706D01*
X16280986Y1240706D01*
G37*
X16280986Y1240706D02*
X16054866Y1055134D01*
X15869294Y829014D01*
X15731401Y571034D01*
X15646487Y291111D01*
X15617815Y0D01*
X15646487Y-291111D01*
X15731401Y-571034D01*
X15869294Y-829014D01*
X16054866Y-1055134D01*
X16280986Y-1240706D01*
X16538966Y-1378599D01*
X16818889Y-1463513D01*
X17037050Y-1485000D01*
X17182950Y-1485000D01*
X17401111Y-1463513D01*
X17681034Y-1378599D01*
X17939014Y-1240706D01*
X18165134Y-1055134D01*
X18350706Y-829014D01*
X18380000Y-774209D01*
X18409294Y-829014D01*
X18594866Y-1055134D01*
X18820986Y-1240706D01*
X19078966Y-1378599D01*
X19358889Y-1463513D01*
X19577050Y-1485000D01*
X19722950Y-1485000D01*
X19941111Y-1463513D01*
X20221034Y-1378599D01*
X20479014Y-1240706D01*
X20705134Y-1055134D01*
X20890706Y-829014D01*
X20920000Y-774209D01*
X20949294Y-829014D01*
X21134866Y-1055134D01*
X21360986Y-1240706D01*
X21618966Y-1378599D01*
X21898889Y-1463513D01*
X22117050Y-1485000D01*
X22262950Y-1485000D01*
X22481111Y-1463513D01*
X22761034Y-1378599D01*
X23019014Y-1240706D01*
X23245134Y-1055134D01*
X23430706Y-829014D01*
X23460000Y-774209D01*
X23489294Y-829014D01*
X23674866Y-1055134D01*
X23900986Y-1240706D01*
X24158966Y-1378599D01*
X24438889Y-1463513D01*
X24657050Y-1485000D01*
X24802950Y-1485000D01*
X25021111Y-1463513D01*
X25301034Y-1378599D01*
X25559014Y-1240706D01*
X25785134Y-1055134D01*
X25970706Y-829014D01*
X26000000Y-774209D01*
X26029294Y-829014D01*
X26214866Y-1055134D01*
X26440986Y-1240706D01*
X26698966Y-1378599D01*
X26978889Y-1463513D01*
X27197050Y-1485000D01*
X27342950Y-1485000D01*
X27561111Y-1463513D01*
X27841034Y-1378599D01*
X28099014Y-1240706D01*
X28325134Y-1055134D01*
X28510706Y-829014D01*
X28540000Y-774209D01*
X28569294Y-829014D01*
X28754866Y-1055134D01*
X28980986Y-1240706D01*
X29238966Y-1378599D01*
X29518889Y-1463513D01*
X29737050Y-1485000D01*
X29882950Y-1485000D01*
X30101111Y-1463513D01*
X30381034Y-1378599D01*
X30639014Y-1240706D01*
X30865134Y-1055134D01*
X31050706Y-829014D01*
X31080000Y-774209D01*
X31109294Y-829014D01*
X31294866Y-1055134D01*
X31520986Y-1240706D01*
X31778966Y-1378599D01*
X32058889Y-1463513D01*
X32277050Y-1485000D01*
X32422950Y-1485000D01*
X32641111Y-1463513D01*
X32921034Y-1378599D01*
X33179014Y-1240706D01*
X33405134Y-1055134D01*
X33429607Y-1025313D01*
X33450498Y-1094180D01*
X33509463Y-1204494D01*
X33588815Y-1301185D01*
X33685506Y-1380537D01*
X33795820Y-1439502D01*
X33915518Y-1475812D01*
X34040000Y-1488072D01*
X34604250Y-1485000D01*
X34763000Y-1326250D01*
X34763000Y-127000D01*
X35017000Y-127000D01*
X35017000Y-1326250D01*
X35175750Y-1485000D01*
X35740000Y-1488072D01*
X35864482Y-1475812D01*
X35984180Y-1439502D01*
X36094494Y-1380537D01*
X36191185Y-1301185D01*
X36270537Y-1204494D01*
X36329502Y-1094180D01*
X36365812Y-974482D01*
X36378072Y-850000D01*
X36375000Y-285750D01*
X36216250Y-127000D01*
X35017000Y-127000D01*
X34763000Y-127000D01*
X34743000Y-127000D01*
X34743000Y127000D01*
X34763000Y127000D01*
X34763000Y147000D01*
X35017000Y147000D01*
X35017000Y127000D01*
X36216250Y127000D01*
X36375000Y285750D01*
X36378072Y850000D01*
X36365812Y974482D01*
X36329502Y1094180D01*
X36270537Y1204494D01*
X36200364Y1290000D01*
X52290000Y1290000D01*
X52290001Y-41290000D01*
X35335000Y-41290000D01*
X35335000Y-37135413D01*
X48234192Y-37135413D01*
X48329956Y-37399814D01*
X48619571Y-37540704D01*
X48931108Y-37622384D01*
X49252595Y-37641718D01*
X49571675Y-37597961D01*
X49876088Y-37492795D01*
X50050044Y-37399814D01*
X50145808Y-37135413D01*
X49190000Y-36179605D01*
X48234192Y-37135413D01*
X35335000Y-37135413D01*
X35335000Y-36062595D01*
X47548282Y-36062595D01*
X47592039Y-36381675D01*
X47697205Y-36686088D01*
X47790186Y-36860044D01*
X48054587Y-36955808D01*
X49010395Y-36000000D01*
X49369605Y-36000000D01*
X50325413Y-36955808D01*
X50589814Y-36860044D01*
X50730704Y-36570429D01*
X50812384Y-36258892D01*
X50831718Y-35937405D01*
X50787961Y-35618325D01*
X50682795Y-35313912D01*
X50589814Y-35139956D01*
X50325413Y-35044192D01*
X49369605Y-36000000D01*
X49010395Y-36000000D01*
X48054587Y-35044192D01*
X47790186Y-35139956D01*
X47649296Y-35429571D01*
X47567616Y-35741108D01*
X47548282Y-36062595D01*
X35335000Y-36062595D01*
X35335000Y-34864587D01*
X48234192Y-34864587D01*
X49190000Y-35820395D01*
X50145808Y-34864587D01*
X50050044Y-34600186D01*
X49760429Y-34459296D01*
X49448892Y-34377616D01*
X49127405Y-34358282D01*
X48808325Y-34402039D01*
X48503912Y-34507205D01*
X48329956Y-34600186D01*
X48234192Y-34864587D01*
X35335000Y-34864587D01*
X35335000Y-32403685D01*
X38772100Y-32403685D01*
X38772100Y-32596315D01*
X38809680Y-32785243D01*
X38883396Y-32963210D01*
X38990415Y-33123375D01*
X39126625Y-33259585D01*
X39286790Y-33366604D01*
X39464757Y-33440320D01*
X39653685Y-33477900D01*
X39846315Y-33477900D01*
X40035243Y-33440320D01*
X40213210Y-33366604D01*
X40373375Y-33259585D01*
X40425000Y-33207960D01*
X40476625Y-33259585D01*
X40636790Y-33366604D01*
X40814757Y-33440320D01*
X41003685Y-33477900D01*
X41196315Y-33477900D01*
X41385243Y-33440320D01*
X41563210Y-33366604D01*
X41723375Y-33259585D01*
X41859585Y-33123375D01*
X41966604Y-32963210D01*
X42040320Y-32785243D01*
X42077900Y-32596315D01*
X42077900Y-32403685D01*
X42040320Y-32214757D01*
X41966604Y-32036790D01*
X41859585Y-31876625D01*
X41723375Y-31740415D01*
X41563210Y-31633396D01*
X41385243Y-31559680D01*
X41196315Y-31522100D01*
X41003685Y-31522100D01*
X40814757Y-31559680D01*
X40636790Y-31633396D01*
X40476625Y-31740415D01*
X40425000Y-31792040D01*
X40373375Y-31740415D01*
X40213210Y-31633396D01*
X40035243Y-31559680D01*
X39846315Y-31522100D01*
X39653685Y-31522100D01*
X39464757Y-31559680D01*
X39286790Y-31633396D01*
X39126625Y-31740415D01*
X38990415Y-31876625D01*
X38883396Y-32036790D01*
X38809680Y-32214757D01*
X38772100Y-32403685D01*
X35335000Y-32403685D01*
X35335000Y-30900000D01*
X35328989Y-30838967D01*
X47555000Y-30838967D01*
X47555000Y-31161033D01*
X47617832Y-31476912D01*
X47741082Y-31774463D01*
X47920013Y-32042252D01*
X48147748Y-32269987D01*
X48415537Y-32448918D01*
X48713088Y-32572168D01*
X49028967Y-32635000D01*
X49351033Y-32635000D01*
X49666912Y-32572168D01*
X49964463Y-32448918D01*
X50232252Y-32269987D01*
X50459987Y-32042252D01*
X50638918Y-31774463D01*
X50762168Y-31476912D01*
X50825000Y-31161033D01*
X50825000Y-30838967D01*
X50762168Y-30523088D01*
X50638918Y-30225537D01*
X50459987Y-29957748D01*
X50232252Y-29730013D01*
X49964463Y-29551082D01*
X49666912Y-29427832D01*
X49351033Y-29365000D01*
X49028967Y-29365000D01*
X48713088Y-29427832D01*
X48415537Y-29551082D01*
X48147748Y-29730013D01*
X47920013Y-29957748D01*
X47741082Y-30225537D01*
X47617832Y-30523088D01*
X47555000Y-30838967D01*
X35328989Y-30838967D01*
X35322799Y-30776118D01*
X35286664Y-30656996D01*
X35227983Y-30547213D01*
X35149013Y-30450987D01*
X35052787Y-30372017D01*
X34943004Y-30313336D01*
X34823882Y-30277201D01*
X34700000Y-30265000D01*
X32535000Y-30265000D01*
X32535000Y-26903685D01*
X33722100Y-26903685D01*
X33722100Y-27096315D01*
X33759680Y-27285243D01*
X33833396Y-27463210D01*
X33940415Y-27623375D01*
X34076625Y-27759585D01*
X34236790Y-27866604D01*
X34414757Y-27940320D01*
X34603685Y-27977900D01*
X34796315Y-27977900D01*
X34985243Y-27940320D01*
X35163210Y-27866604D01*
X35323375Y-27759585D01*
X35459585Y-27623375D01*
X35566604Y-27463210D01*
X35640320Y-27285243D01*
X35677900Y-27096315D01*
X35677900Y-26903685D01*
X35640320Y-26714757D01*
X35566604Y-26536790D01*
X35459585Y-26376625D01*
X35323375Y-26240415D01*
X35163210Y-26133396D01*
X34985243Y-26059680D01*
X34796315Y-26022100D01*
X34603685Y-26022100D01*
X34414757Y-26059680D01*
X34236790Y-26133396D01*
X34076625Y-26240415D01*
X33940415Y-26376625D01*
X33833396Y-26536790D01*
X33759680Y-26714757D01*
X33722100Y-26903685D01*
X32535000Y-26903685D01*
X32535000Y-24903685D01*
X33722100Y-24903685D01*
X33722100Y-25096315D01*
X33759680Y-25285243D01*
X33833396Y-25463210D01*
X33940415Y-25623375D01*
X34076625Y-25759585D01*
X34236790Y-25866604D01*
X34414757Y-25940320D01*
X34603685Y-25977900D01*
X34796315Y-25977900D01*
X34985243Y-25940320D01*
X35163210Y-25866604D01*
X35204571Y-25838967D01*
X47555000Y-25838967D01*
X47555000Y-26161033D01*
X47617832Y-26476912D01*
X47741082Y-26774463D01*
X47920013Y-27042252D01*
X48147748Y-27269987D01*
X48415537Y-27448918D01*
X48713088Y-27572168D01*
X49028967Y-27635000D01*
X49351033Y-27635000D01*
X49666912Y-27572168D01*
X49964463Y-27448918D01*
X50232252Y-27269987D01*
X50459987Y-27042252D01*
X50638918Y-26774463D01*
X50762168Y-26476912D01*
X50825000Y-26161033D01*
X50825000Y-25838967D01*
X50762168Y-25523088D01*
X50638918Y-25225537D01*
X50459987Y-24957748D01*
X50232252Y-24730013D01*
X49964463Y-24551082D01*
X49666912Y-24427832D01*
X49351033Y-24365000D01*
X49028967Y-24365000D01*
X48713088Y-24427832D01*
X48415537Y-24551082D01*
X48147748Y-24730013D01*
X47920013Y-24957748D01*
X47741082Y-25225537D01*
X47617832Y-25523088D01*
X47555000Y-25838967D01*
X35204571Y-25838967D01*
X35323375Y-25759585D01*
X35459585Y-25623375D01*
X35566604Y-25463210D01*
X35640320Y-25285243D01*
X35677900Y-25096315D01*
X35677900Y-24903685D01*
X35640320Y-24714757D01*
X35566604Y-24536790D01*
X35459585Y-24376625D01*
X35323375Y-24240415D01*
X35163210Y-24133396D01*
X34985243Y-24059680D01*
X34796315Y-24022100D01*
X34603685Y-24022100D01*
X34414757Y-24059680D01*
X34236790Y-24133396D01*
X34076625Y-24240415D01*
X33940415Y-24376625D01*
X33833396Y-24536790D01*
X33759680Y-24714757D01*
X33722100Y-24903685D01*
X32535000Y-24903685D01*
X32535000Y-22635000D01*
X36300000Y-22635000D01*
X36423882Y-22622799D01*
X36543004Y-22586664D01*
X36652787Y-22527983D01*
X36749013Y-22449013D01*
X36827983Y-22352787D01*
X36886664Y-22243004D01*
X36922799Y-22123882D01*
X36935000Y-22000000D01*
X36935000Y-16135413D01*
X48234192Y-16135413D01*
X48329956Y-16399814D01*
X48619571Y-16540704D01*
X48931108Y-16622384D01*
X49252595Y-16641718D01*
X49571675Y-16597961D01*
X49876088Y-16492795D01*
X50050044Y-16399814D01*
X50145808Y-16135413D01*
X49190000Y-15179605D01*
X48234192Y-16135413D01*
X36935000Y-16135413D01*
X36935000Y-15062595D01*
X47548282Y-15062595D01*
X47592039Y-15381675D01*
X47697205Y-15686088D01*
X47790186Y-15860044D01*
X48054587Y-15955808D01*
X49010395Y-15000000D01*
X49369605Y-15000000D01*
X50325413Y-15955808D01*
X50589814Y-15860044D01*
X50730704Y-15570429D01*
X50812384Y-15258892D01*
X50831718Y-14937405D01*
X50787961Y-14618325D01*
X50682795Y-14313912D01*
X50589814Y-14139956D01*
X50325413Y-14044192D01*
X49369605Y-15000000D01*
X49010395Y-15000000D01*
X48054587Y-14044192D01*
X47790186Y-14139956D01*
X47649296Y-14429571D01*
X47567616Y-14741108D01*
X47548282Y-15062595D01*
X36935000Y-15062595D01*
X36935000Y-13864587D01*
X48234192Y-13864587D01*
X49190000Y-14820395D01*
X50145808Y-13864587D01*
X50050044Y-13600186D01*
X49760429Y-13459296D01*
X49448892Y-13377616D01*
X49127405Y-13358282D01*
X48808325Y-13402039D01*
X48503912Y-13507205D01*
X48329956Y-13600186D01*
X48234192Y-13864587D01*
X36935000Y-13864587D01*
X36935000Y-11403685D01*
X38772100Y-11403685D01*
X38772100Y-11596315D01*
X38809680Y-11785243D01*
X38883396Y-11963210D01*
X38990415Y-12123375D01*
X39126625Y-12259585D01*
X39286790Y-12366604D01*
X39464757Y-12440320D01*
X39653685Y-12477900D01*
X39846315Y-12477900D01*
X40035243Y-12440320D01*
X40213210Y-12366604D01*
X40373375Y-12259585D01*
X40475000Y-12157960D01*
X40576625Y-12259585D01*
X40736790Y-12366604D01*
X40914757Y-12440320D01*
X41103685Y-12477900D01*
X41296315Y-12477900D01*
X41485243Y-12440320D01*
X41663210Y-12366604D01*
X41823375Y-12259585D01*
X41959585Y-12123375D01*
X42066604Y-11963210D01*
X42140320Y-11785243D01*
X42177900Y-11596315D01*
X42177900Y-11403685D01*
X42140320Y-11214757D01*
X42066604Y-11036790D01*
X41959585Y-10876625D01*
X41823375Y-10740415D01*
X41663210Y-10633396D01*
X41485243Y-10559680D01*
X41296315Y-10522100D01*
X41103685Y-10522100D01*
X40914757Y-10559680D01*
X40736790Y-10633396D01*
X40576625Y-10740415D01*
X40475000Y-10842040D01*
X40373375Y-10740415D01*
X40213210Y-10633396D01*
X40035243Y-10559680D01*
X39846315Y-10522100D01*
X39653685Y-10522100D01*
X39464757Y-10559680D01*
X39286790Y-10633396D01*
X39126625Y-10740415D01*
X38990415Y-10876625D01*
X38883396Y-11036790D01*
X38809680Y-11214757D01*
X38772100Y-11403685D01*
X36935000Y-11403685D01*
X36935000Y-9838967D01*
X47555000Y-9838967D01*
X47555000Y-10161033D01*
X47617832Y-10476912D01*
X47741082Y-10774463D01*
X47920013Y-11042252D01*
X48147748Y-11269987D01*
X48415537Y-11448918D01*
X48713088Y-11572168D01*
X49028967Y-11635000D01*
X49351033Y-11635000D01*
X49666912Y-11572168D01*
X49964463Y-11448918D01*
X50232252Y-11269987D01*
X50459987Y-11042252D01*
X50638918Y-10774463D01*
X50762168Y-10476912D01*
X50825000Y-10161033D01*
X50825000Y-9838967D01*
X50762168Y-9523088D01*
X50638918Y-9225537D01*
X50459987Y-8957748D01*
X50232252Y-8730013D01*
X49964463Y-8551082D01*
X49666912Y-8427832D01*
X49351033Y-8365000D01*
X49028967Y-8365000D01*
X48713088Y-8427832D01*
X48415537Y-8551082D01*
X48147748Y-8730013D01*
X47920013Y-8957748D01*
X47741082Y-9225537D01*
X47617832Y-9523088D01*
X47555000Y-9838967D01*
X36935000Y-9838967D01*
X36935000Y-8500000D01*
X36922799Y-8376118D01*
X36886664Y-8256996D01*
X36827983Y-8147213D01*
X36749013Y-8050987D01*
X36652787Y-7972017D01*
X36543004Y-7913336D01*
X36423882Y-7877201D01*
X36300000Y-7865000D01*
X25000000Y-7865000D01*
X24876118Y-7877201D01*
X24756996Y-7913336D01*
X24647213Y-7972017D01*
X24550987Y-8050987D01*
X24472017Y-8147213D01*
X24413336Y-8256996D01*
X24377201Y-8376118D01*
X24365000Y-8500000D01*
X24365000Y-15365000D01*
X16300000Y-15365000D01*
X16176118Y-15377201D01*
X16056996Y-15413336D01*
X15947213Y-15472017D01*
X15850987Y-15550987D01*
X15772017Y-15647213D01*
X15713336Y-15756996D01*
X15677201Y-15876118D01*
X15665000Y-16000000D01*
X15665000Y-25782040D01*
X15623375Y-25740415D01*
X15463210Y-25633396D01*
X15285243Y-25559680D01*
X15096315Y-25522100D01*
X14903685Y-25522100D01*
X14714757Y-25559680D01*
X14536790Y-25633396D01*
X14376625Y-25740415D01*
X14240415Y-25876625D01*
X14133396Y-26036790D01*
X14059680Y-26214757D01*
X14022100Y-26403685D01*
X14022100Y-26596315D01*
X14059680Y-26785243D01*
X14133396Y-26963210D01*
X14240415Y-27123375D01*
X14376625Y-27259585D01*
X14536790Y-27366604D01*
X14714757Y-27440320D01*
X14903685Y-27477900D01*
X15096315Y-27477900D01*
X15285243Y-27440320D01*
X15463210Y-27366604D01*
X15623375Y-27259585D01*
X15665000Y-27217960D01*
X15665000Y-27965000D01*
X9635000Y-27965000D01*
X9635000Y-18803685D01*
X10322100Y-18803685D01*
X10322100Y-18996315D01*
X10359680Y-19185243D01*
X10433396Y-19363210D01*
X10540415Y-19523375D01*
X10676625Y-19659585D01*
X10811940Y-19750000D01*
X10676625Y-19840415D01*
X10540415Y-19976625D01*
X10433396Y-20136790D01*
X10359680Y-20314757D01*
X10322100Y-20503685D01*
X10322100Y-20696315D01*
X10359680Y-20885243D01*
X10433396Y-21063210D01*
X10540415Y-21223375D01*
X10676625Y-21359585D01*
X10836790Y-21466604D01*
X11014757Y-21540320D01*
X11203685Y-21577900D01*
X11396315Y-21577900D01*
X11585243Y-21540320D01*
X11763210Y-21466604D01*
X11923375Y-21359585D01*
X12059585Y-21223375D01*
X12166604Y-21063210D01*
X12240320Y-20885243D01*
X12277900Y-20696315D01*
X12277900Y-20503685D01*
X12240320Y-20314757D01*
X12166604Y-20136790D01*
X12059585Y-19976625D01*
X11923375Y-19840415D01*
X11788060Y-19750000D01*
X11923375Y-19659585D01*
X12059585Y-19523375D01*
X12166604Y-19363210D01*
X12240320Y-19185243D01*
X12277900Y-18996315D01*
X12277900Y-18803685D01*
X12240320Y-18614757D01*
X12166604Y-18436790D01*
X12059585Y-18276625D01*
X11923375Y-18140415D01*
X11763210Y-18033396D01*
X11585243Y-17959680D01*
X11396315Y-17922100D01*
X11203685Y-17922100D01*
X11014757Y-17959680D01*
X10836790Y-18033396D01*
X10676625Y-18140415D01*
X10540415Y-18276625D01*
X10433396Y-18436790D01*
X10359680Y-18614757D01*
X10322100Y-18803685D01*
X9635000Y-18803685D01*
X9635000Y-16803685D01*
X12522100Y-16803685D01*
X12522100Y-16996315D01*
X12559680Y-17185243D01*
X12633396Y-17363210D01*
X12740415Y-17523375D01*
X12876625Y-17659585D01*
X13036790Y-17766604D01*
X13214757Y-17840320D01*
X13403685Y-17877900D01*
X13596315Y-17877900D01*
X13785243Y-17840320D01*
X13963210Y-17766604D01*
X14123375Y-17659585D01*
X14259585Y-17523375D01*
X14366604Y-17363210D01*
X14440320Y-17185243D01*
X14477900Y-16996315D01*
X14477900Y-16803685D01*
X14440320Y-16614757D01*
X14366604Y-16436790D01*
X14259585Y-16276625D01*
X14123375Y-16140415D01*
X13963210Y-16033396D01*
X13785243Y-15959680D01*
X13596315Y-15922100D01*
X13403685Y-15922100D01*
X13214757Y-15959680D01*
X13036790Y-16033396D01*
X12876625Y-16140415D01*
X12740415Y-16276625D01*
X12633396Y-16436790D01*
X12559680Y-16614757D01*
X12522100Y-16803685D01*
X9635000Y-16803685D01*
X9635000Y-12135000D01*
X17000000Y-12135000D01*
X17123882Y-12122799D01*
X17243004Y-12086664D01*
X17352787Y-12027983D01*
X17382394Y-12003685D01*
X18722100Y-12003685D01*
X18722100Y-12196315D01*
X18759680Y-12385243D01*
X18833396Y-12563210D01*
X18940415Y-12723375D01*
X19076625Y-12859585D01*
X19236790Y-12966604D01*
X19414757Y-13040320D01*
X19603685Y-13077900D01*
X19796315Y-13077900D01*
X19985243Y-13040320D01*
X20163210Y-12966604D01*
X20323375Y-12859585D01*
X20459585Y-12723375D01*
X20566604Y-12563210D01*
X20640320Y-12385243D01*
X20677900Y-12196315D01*
X20677900Y-12003685D01*
X20640320Y-11814757D01*
X20566604Y-11636790D01*
X20459585Y-11476625D01*
X20323375Y-11340415D01*
X20163210Y-11233396D01*
X19985243Y-11159680D01*
X19796315Y-11122100D01*
X19603685Y-11122100D01*
X19414757Y-11159680D01*
X19236790Y-11233396D01*
X19076625Y-11340415D01*
X18940415Y-11476625D01*
X18833396Y-11636790D01*
X18759680Y-11814757D01*
X18722100Y-12003685D01*
X17382394Y-12003685D01*
X17449013Y-11949013D01*
X17527983Y-11852787D01*
X17586664Y-11743004D01*
X17622799Y-11623882D01*
X17635000Y-11500000D01*
X17635000Y-6500000D01*
X17622799Y-6376118D01*
X17586664Y-6256996D01*
X17527983Y-6147213D01*
X17449013Y-6050987D01*
X17352787Y-5972017D01*
X17243004Y-5913336D01*
X17123882Y-5877201D01*
X17000000Y-5865000D01*
X9635000Y-5865000D01*
X9635000Y-3903685D01*
X13522100Y-3903685D01*
X13522100Y-4096315D01*
X13559680Y-4285243D01*
X13633396Y-4463210D01*
X13740415Y-4623375D01*
X13876625Y-4759585D01*
X14036790Y-4866604D01*
X14214757Y-4940320D01*
X14403685Y-4977900D01*
X14596315Y-4977900D01*
X14785243Y-4940320D01*
X14963210Y-4866604D01*
X15004571Y-4838967D01*
X47555000Y-4838967D01*
X47555000Y-5161033D01*
X47617832Y-5476912D01*
X47741082Y-5774463D01*
X47920013Y-6042252D01*
X48147748Y-6269987D01*
X48415537Y-6448918D01*
X48713088Y-6572168D01*
X49028967Y-6635000D01*
X49351033Y-6635000D01*
X49666912Y-6572168D01*
X49964463Y-6448918D01*
X50232252Y-6269987D01*
X50459987Y-6042252D01*
X50638918Y-5774463D01*
X50762168Y-5476912D01*
X50825000Y-5161033D01*
X50825000Y-4838967D01*
X50762168Y-4523088D01*
X50638918Y-4225537D01*
X50459987Y-3957748D01*
X50232252Y-3730013D01*
X49964463Y-3551082D01*
X49666912Y-3427832D01*
X49351033Y-3365000D01*
X49028967Y-3365000D01*
X48713088Y-3427832D01*
X48415537Y-3551082D01*
X48147748Y-3730013D01*
X47920013Y-3957748D01*
X47741082Y-4225537D01*
X47617832Y-4523088D01*
X47555000Y-4838967D01*
X15004571Y-4838967D01*
X15123375Y-4759585D01*
X15259585Y-4623375D01*
X15366604Y-4463210D01*
X15440320Y-4285243D01*
X15477900Y-4096315D01*
X15477900Y-3903685D01*
X15440320Y-3714757D01*
X15366604Y-3536790D01*
X15259585Y-3376625D01*
X15123375Y-3240415D01*
X14963210Y-3133396D01*
X14785243Y-3059680D01*
X14596315Y-3022100D01*
X14403685Y-3022100D01*
X14214757Y-3059680D01*
X14036790Y-3133396D01*
X13876625Y-3240415D01*
X13740415Y-3376625D01*
X13633396Y-3536790D01*
X13559680Y-3714757D01*
X13522100Y-3903685D01*
X9635000Y-3903685D01*
X9635000Y1290000D01*
X16373209Y1290000D01*
X16280986Y1240706D01*
G36*
X8873000Y-6500000D02*
G01*
X8875440Y-6524776D01*
X8882667Y-6548601D01*
X8894403Y-6570557D01*
X8910197Y-6589803D01*
X8929443Y-6605597D01*
X8951399Y-6617333D01*
X8975224Y-6624560D01*
X9000000Y-6627000D01*
X16873000Y-6627000D01*
X16873000Y-11373000D01*
X9000000Y-11373000D01*
X8975224Y-11375440D01*
X8951399Y-11382667D01*
X8929443Y-11394403D01*
X8910197Y-11410197D01*
X8894403Y-11429443D01*
X8882667Y-11451399D01*
X8875440Y-11475224D01*
X8873000Y-11500000D01*
X8873000Y-28600000D01*
X8875440Y-28624776D01*
X8882667Y-28648601D01*
X8894403Y-28670557D01*
X8910197Y-28689803D01*
X8929443Y-28705597D01*
X8951399Y-28717333D01*
X8975224Y-28724560D01*
X9000000Y-28727000D01*
X18773000Y-28727000D01*
X18773000Y-39096702D01*
X18759585Y-39076625D01*
X18623375Y-38940415D01*
X18463210Y-38833396D01*
X18285243Y-38759680D01*
X18096315Y-38722100D01*
X17903685Y-38722100D01*
X17714757Y-38759680D01*
X17536790Y-38833396D01*
X17376625Y-38940415D01*
X17240415Y-39076625D01*
X17133396Y-39236790D01*
X17059680Y-39414757D01*
X17022100Y-39603685D01*
X17022100Y-39796315D01*
X17059680Y-39985243D01*
X17133396Y-40163210D01*
X17240415Y-40323375D01*
X17376625Y-40459585D01*
X17536790Y-40566604D01*
X17714757Y-40640320D01*
X17903685Y-40677900D01*
X18096315Y-40677900D01*
X18285243Y-40640320D01*
X18463210Y-40566604D01*
X18623375Y-40459585D01*
X18759585Y-40323375D01*
X18773000Y-40303298D01*
X18773000Y-41290000D01*
X-1290000Y-41290000D01*
X-1290000Y-37383891D01*
X1335000Y-37383891D01*
X1335000Y-37696109D01*
X1395911Y-38002327D01*
X1515391Y-38290779D01*
X1688850Y-38550379D01*
X1909621Y-38771150D01*
X2169221Y-38944609D01*
X2457673Y-39064089D01*
X2763891Y-39125000D01*
X3076109Y-39125000D01*
X3382327Y-39064089D01*
X3670779Y-38944609D01*
X3930379Y-38771150D01*
X4151150Y-38550379D01*
X4324609Y-38290779D01*
X4444089Y-38002327D01*
X4505000Y-37696109D01*
X4505000Y-37383891D01*
X4444089Y-37077673D01*
X4324609Y-36789221D01*
X4151150Y-36529621D01*
X3930379Y-36308850D01*
X3670779Y-36135391D01*
X3382327Y-36015911D01*
X3076109Y-35955000D01*
X2763891Y-35955000D01*
X2457673Y-36015911D01*
X2169221Y-36135391D01*
X1909621Y-36308850D01*
X1688850Y-36529621D01*
X1515391Y-36789221D01*
X1395911Y-37077673D01*
X1335000Y-37383891D01*
X-1290000Y-37383891D01*
X-1290000Y-32303891D01*
X1335000Y-32303891D01*
X1335000Y-32616109D01*
X1395911Y-32922327D01*
X1515391Y-33210779D01*
X1688850Y-33470379D01*
X1909621Y-33691150D01*
X2169221Y-33864609D01*
X2457673Y-33984089D01*
X2763891Y-34045000D01*
X3076109Y-34045000D01*
X3382327Y-33984089D01*
X3670779Y-33864609D01*
X3930379Y-33691150D01*
X4151150Y-33470379D01*
X4324609Y-33210779D01*
X4444089Y-32922327D01*
X4505000Y-32616109D01*
X4505000Y-32303891D01*
X6415000Y-32303891D01*
X6415000Y-32616109D01*
X6475911Y-32922327D01*
X6595391Y-33210779D01*
X6768850Y-33470379D01*
X6989621Y-33691150D01*
X7047764Y-33730000D01*
X6989621Y-33768850D01*
X6768850Y-33989621D01*
X6595391Y-34249221D01*
X6475911Y-34537673D01*
X6415000Y-34843891D01*
X6415000Y-35156109D01*
X6475911Y-35462327D01*
X6595391Y-35750779D01*
X6768850Y-36010379D01*
X6989621Y-36231150D01*
X7047764Y-36270000D01*
X6989621Y-36308850D01*
X6768850Y-36529621D01*
X6595391Y-36789221D01*
X6475911Y-37077673D01*
X6415000Y-37383891D01*
X6415000Y-37696109D01*
X6475911Y-38002327D01*
X6595391Y-38290779D01*
X6768850Y-38550379D01*
X6989621Y-38771150D01*
X7249221Y-38944609D01*
X7537673Y-39064089D01*
X7843891Y-39125000D01*
X8156109Y-39125000D01*
X8462327Y-39064089D01*
X8750779Y-38944609D01*
X9010379Y-38771150D01*
X9231150Y-38550379D01*
X9404609Y-38290779D01*
X9524089Y-38002327D01*
X9585000Y-37696109D01*
X9585000Y-37383891D01*
X9524089Y-37077673D01*
X9404609Y-36789221D01*
X9231150Y-36529621D01*
X9010379Y-36308850D01*
X8952236Y-36270000D01*
X9010379Y-36231150D01*
X9231150Y-36010379D01*
X9404609Y-35750779D01*
X9524089Y-35462327D01*
X9535753Y-35403685D01*
X12422100Y-35403685D01*
X12422100Y-35596315D01*
X12459680Y-35785243D01*
X12533396Y-35963210D01*
X12640415Y-36123375D01*
X12776625Y-36259585D01*
X12936790Y-36366604D01*
X13114757Y-36440320D01*
X13303685Y-36477900D01*
X13496315Y-36477900D01*
X13685243Y-36440320D01*
X13863210Y-36366604D01*
X14023375Y-36259585D01*
X14159585Y-36123375D01*
X14266604Y-35963210D01*
X14340320Y-35785243D01*
X14377900Y-35596315D01*
X14377900Y-35403685D01*
X15522100Y-35403685D01*
X15522100Y-35596315D01*
X15559680Y-35785243D01*
X15633396Y-35963210D01*
X15740415Y-36123375D01*
X15876625Y-36259585D01*
X16036790Y-36366604D01*
X16214757Y-36440320D01*
X16403685Y-36477900D01*
X16596315Y-36477900D01*
X16785243Y-36440320D01*
X16963210Y-36366604D01*
X17123375Y-36259585D01*
X17259585Y-36123375D01*
X17366604Y-35963210D01*
X17440320Y-35785243D01*
X17477900Y-35596315D01*
X17477900Y-35403685D01*
X17440320Y-35214757D01*
X17366604Y-35036790D01*
X17259585Y-34876625D01*
X17123375Y-34740415D01*
X16963210Y-34633396D01*
X16785243Y-34559680D01*
X16596315Y-34522100D01*
X16403685Y-34522100D01*
X16214757Y-34559680D01*
X16036790Y-34633396D01*
X15876625Y-34740415D01*
X15740415Y-34876625D01*
X15633396Y-35036790D01*
X15559680Y-35214757D01*
X15522100Y-35403685D01*
X14377900Y-35403685D01*
X14340320Y-35214757D01*
X14266604Y-35036790D01*
X14159585Y-34876625D01*
X14023375Y-34740415D01*
X13863210Y-34633396D01*
X13685243Y-34559680D01*
X13496315Y-34522100D01*
X13303685Y-34522100D01*
X13114757Y-34559680D01*
X12936790Y-34633396D01*
X12776625Y-34740415D01*
X12640415Y-34876625D01*
X12533396Y-35036790D01*
X12459680Y-35214757D01*
X12422100Y-35403685D01*
X9535753Y-35403685D01*
X9585000Y-35156109D01*
X9585000Y-34843891D01*
X9524089Y-34537673D01*
X9404609Y-34249221D01*
X9231150Y-33989621D01*
X9010379Y-33768850D01*
X8952236Y-33730000D01*
X9010379Y-33691150D01*
X9231150Y-33470379D01*
X9404609Y-33210779D01*
X9490389Y-33003685D01*
X14022100Y-33003685D01*
X14022100Y-33196315D01*
X14059680Y-33385243D01*
X14133396Y-33563210D01*
X14240415Y-33723375D01*
X14376625Y-33859585D01*
X14536790Y-33966604D01*
X14714757Y-34040320D01*
X14903685Y-34077900D01*
X15096315Y-34077900D01*
X15285243Y-34040320D01*
X15463210Y-33966604D01*
X15623375Y-33859585D01*
X15759585Y-33723375D01*
X15866604Y-33563210D01*
X15940320Y-33385243D01*
X15977900Y-33196315D01*
X15977900Y-33003685D01*
X15940320Y-32814757D01*
X15866604Y-32636790D01*
X15759585Y-32476625D01*
X15623375Y-32340415D01*
X15463210Y-32233396D01*
X15285243Y-32159680D01*
X15096315Y-32122100D01*
X14903685Y-32122100D01*
X14714757Y-32159680D01*
X14536790Y-32233396D01*
X14376625Y-32340415D01*
X14240415Y-32476625D01*
X14133396Y-32636790D01*
X14059680Y-32814757D01*
X14022100Y-33003685D01*
X9490389Y-33003685D01*
X9524089Y-32922327D01*
X9585000Y-32616109D01*
X9585000Y-32303891D01*
X9524089Y-31997673D01*
X9404609Y-31709221D01*
X9231150Y-31449621D01*
X9010379Y-31228850D01*
X8750779Y-31055391D01*
X8462327Y-30935911D01*
X8156109Y-30875000D01*
X7843891Y-30875000D01*
X7537673Y-30935911D01*
X7249221Y-31055391D01*
X6989621Y-31228850D01*
X6768850Y-31449621D01*
X6595391Y-31709221D01*
X6475911Y-31997673D01*
X6415000Y-32303891D01*
X4505000Y-32303891D01*
X4444089Y-31997673D01*
X4324609Y-31709221D01*
X4151150Y-31449621D01*
X3930379Y-31228850D01*
X3670779Y-31055391D01*
X3382327Y-30935911D01*
X3076109Y-30875000D01*
X2763891Y-30875000D01*
X2457673Y-30935911D01*
X2169221Y-31055391D01*
X1909621Y-31228850D01*
X1688850Y-31449621D01*
X1515391Y-31709221D01*
X1395911Y-31997673D01*
X1335000Y-32303891D01*
X-1290000Y-32303891D01*
X-1290000Y-30203685D01*
X16722100Y-30203685D01*
X16722100Y-30396315D01*
X16759680Y-30585243D01*
X16833396Y-30763210D01*
X16940415Y-30923375D01*
X17076625Y-31059585D01*
X17236790Y-31166604D01*
X17414757Y-31240320D01*
X17603685Y-31277900D01*
X17796315Y-31277900D01*
X17985243Y-31240320D01*
X18163210Y-31166604D01*
X18323375Y-31059585D01*
X18459585Y-30923375D01*
X18566604Y-30763210D01*
X18640320Y-30585243D01*
X18677900Y-30396315D01*
X18677900Y-30203685D01*
X18640320Y-30014757D01*
X18566604Y-29836790D01*
X18459585Y-29676625D01*
X18323375Y-29540415D01*
X18163210Y-29433396D01*
X17985243Y-29359680D01*
X17796315Y-29322100D01*
X17603685Y-29322100D01*
X17414757Y-29359680D01*
X17236790Y-29433396D01*
X17076625Y-29540415D01*
X16940415Y-29676625D01*
X16833396Y-29836790D01*
X16759680Y-30014757D01*
X16722100Y-30203685D01*
X-1290000Y-30203685D01*
X-1290000Y-26276791D01*
X-1240706Y-26369014D01*
X-1055134Y-26595134D01*
X-829014Y-26780706D01*
X-571034Y-26918599D01*
X-291111Y-27003513D01*
X-72950Y-27025000D01*
X72950Y-27025000D01*
X291111Y-27003513D01*
X571034Y-26918599D01*
X829014Y-26780706D01*
X1055134Y-26595134D01*
X1240706Y-26369014D01*
X1378599Y-26111034D01*
X1463513Y-25831111D01*
X1492185Y-25540000D01*
X1463513Y-25248889D01*
X1378599Y-24968966D01*
X1240706Y-24710986D01*
X1055134Y-24484866D01*
X1025313Y-24460393D01*
X1094180Y-24439502D01*
X1204494Y-24380537D01*
X1301185Y-24301185D01*
X1380537Y-24204494D01*
X1439502Y-24094180D01*
X1475812Y-23974482D01*
X1488072Y-23850000D01*
X1488072Y-22150000D01*
X1475812Y-22025518D01*
X1439502Y-21905820D01*
X1380537Y-21795506D01*
X1301185Y-21698815D01*
X1204494Y-21619463D01*
X1094180Y-21560498D01*
X974482Y-21524188D01*
X850000Y-21511928D01*
X-850000Y-21511928D01*
X-974482Y-21524188D01*
X-1094180Y-21560498D01*
X-1204494Y-21619463D01*
X-1290000Y-21689636D01*
X-1290000Y-16135413D01*
X854192Y-16135413D01*
X949956Y-16399814D01*
X1239571Y-16540704D01*
X1551108Y-16622384D01*
X1872595Y-16641718D01*
X2191675Y-16597961D01*
X2496088Y-16492795D01*
X2670044Y-16399814D01*
X2765808Y-16135413D01*
X1810000Y-15179605D01*
X854192Y-16135413D01*
X-1290000Y-16135413D01*
X-1290000Y-15062595D01*
X168282Y-15062595D01*
X212039Y-15381675D01*
X317205Y-15686088D01*
X410186Y-15860044D01*
X674587Y-15955808D01*
X1630395Y-15000000D01*
X1989605Y-15000000D01*
X2945413Y-15955808D01*
X3209814Y-15860044D01*
X3350704Y-15570429D01*
X3432384Y-15258892D01*
X3451718Y-14937405D01*
X3407961Y-14618325D01*
X3302795Y-14313912D01*
X3209814Y-14139956D01*
X2945413Y-14044192D01*
X1989605Y-15000000D01*
X1630395Y-15000000D01*
X674587Y-14044192D01*
X410186Y-14139956D01*
X269296Y-14429571D01*
X187616Y-14741108D01*
X168282Y-15062595D01*
X-1290000Y-15062595D01*
X-1290000Y-13864587D01*
X854192Y-13864587D01*
X1810000Y-14820395D01*
X2765808Y-13864587D01*
X2670044Y-13600186D01*
X2380429Y-13459296D01*
X2068892Y-13377616D01*
X1747405Y-13358282D01*
X1428325Y-13402039D01*
X1123912Y-13507205D01*
X949956Y-13600186D01*
X854192Y-13864587D01*
X-1290000Y-13864587D01*
X-1290000Y-9838967D01*
X175000Y-9838967D01*
X175000Y-10161033D01*
X237832Y-10476912D01*
X361082Y-10774463D01*
X540013Y-11042252D01*
X767748Y-11269987D01*
X1035537Y-11448918D01*
X1333088Y-11572168D01*
X1648967Y-11635000D01*
X1971033Y-11635000D01*
X2286912Y-11572168D01*
X2584463Y-11448918D01*
X2852252Y-11269987D01*
X3079987Y-11042252D01*
X3258918Y-10774463D01*
X3382168Y-10476912D01*
X3445000Y-10161033D01*
X3445000Y-9838967D01*
X3382168Y-9523088D01*
X3374131Y-9503685D01*
X11622100Y-9503685D01*
X11622100Y-9696315D01*
X11659680Y-9885243D01*
X11733396Y-10063210D01*
X11840415Y-10223375D01*
X11976625Y-10359585D01*
X12136790Y-10466604D01*
X12314757Y-10540320D01*
X12503685Y-10577900D01*
X12696315Y-10577900D01*
X12885243Y-10540320D01*
X13063210Y-10466604D01*
X13223375Y-10359585D01*
X13359585Y-10223375D01*
X13466604Y-10063210D01*
X13540320Y-9885243D01*
X13577900Y-9696315D01*
X13577900Y-9503685D01*
X13540320Y-9314757D01*
X13466604Y-9136790D01*
X13359585Y-8976625D01*
X13223375Y-8840415D01*
X13063210Y-8733396D01*
X12885243Y-8659680D01*
X12696315Y-8622100D01*
X12503685Y-8622100D01*
X12314757Y-8659680D01*
X12136790Y-8733396D01*
X11976625Y-8840415D01*
X11840415Y-8976625D01*
X11733396Y-9136790D01*
X11659680Y-9314757D01*
X11622100Y-9503685D01*
X3374131Y-9503685D01*
X3258918Y-9225537D01*
X3079987Y-8957748D01*
X2852252Y-8730013D01*
X2584463Y-8551082D01*
X2286912Y-8427832D01*
X1971033Y-8365000D01*
X1648967Y-8365000D01*
X1333088Y-8427832D01*
X1035537Y-8551082D01*
X767748Y-8730013D01*
X540013Y-8957748D01*
X361082Y-9225537D01*
X237832Y-9523088D01*
X175000Y-9838967D01*
X-1290000Y-9838967D01*
X-1290000Y-4838967D01*
X175000Y-4838967D01*
X175000Y-5161033D01*
X237832Y-5476912D01*
X361082Y-5774463D01*
X540013Y-6042252D01*
X767748Y-6269987D01*
X1035537Y-6448918D01*
X1333088Y-6572168D01*
X1648967Y-6635000D01*
X1971033Y-6635000D01*
X2286912Y-6572168D01*
X2584463Y-6448918D01*
X2852252Y-6269987D01*
X3079987Y-6042252D01*
X3258918Y-5774463D01*
X3382168Y-5476912D01*
X3445000Y-5161033D01*
X3445000Y-4838967D01*
X3382168Y-4523088D01*
X3258918Y-4225537D01*
X3079987Y-3957748D01*
X2852252Y-3730013D01*
X2584463Y-3551082D01*
X2286912Y-3427832D01*
X1971033Y-3365000D01*
X1648967Y-3365000D01*
X1333088Y-3427832D01*
X1035537Y-3551082D01*
X767748Y-3730013D01*
X540013Y-3957748D01*
X361082Y-4225537D01*
X237832Y-4523088D01*
X175000Y-4838967D01*
X-1290000Y-4838967D01*
X-1290000Y1290000D01*
X8873000Y1290000D01*
X8873000Y-6500000D01*
X8873000Y-6500000D01*
G37*
X8873000Y-6500000D02*
X8875440Y-6524776D01*
X8882667Y-6548601D01*
X8894403Y-6570557D01*
X8910197Y-6589803D01*
X8929443Y-6605597D01*
X8951399Y-6617333D01*
X8975224Y-6624560D01*
X9000000Y-6627000D01*
X16873000Y-6627000D01*
X16873000Y-11373000D01*
X9000000Y-11373000D01*
X8975224Y-11375440D01*
X8951399Y-11382667D01*
X8929443Y-11394403D01*
X8910197Y-11410197D01*
X8894403Y-11429443D01*
X8882667Y-11451399D01*
X8875440Y-11475224D01*
X8873000Y-11500000D01*
X8873000Y-28600000D01*
X8875440Y-28624776D01*
X8882667Y-28648601D01*
X8894403Y-28670557D01*
X8910197Y-28689803D01*
X8929443Y-28705597D01*
X8951399Y-28717333D01*
X8975224Y-28724560D01*
X9000000Y-28727000D01*
X18773000Y-28727000D01*
X18773000Y-39096702D01*
X18759585Y-39076625D01*
X18623375Y-38940415D01*
X18463210Y-38833396D01*
X18285243Y-38759680D01*
X18096315Y-38722100D01*
X17903685Y-38722100D01*
X17714757Y-38759680D01*
X17536790Y-38833396D01*
X17376625Y-38940415D01*
X17240415Y-39076625D01*
X17133396Y-39236790D01*
X17059680Y-39414757D01*
X17022100Y-39603685D01*
X17022100Y-39796315D01*
X17059680Y-39985243D01*
X17133396Y-40163210D01*
X17240415Y-40323375D01*
X17376625Y-40459585D01*
X17536790Y-40566604D01*
X17714757Y-40640320D01*
X17903685Y-40677900D01*
X18096315Y-40677900D01*
X18285243Y-40640320D01*
X18463210Y-40566604D01*
X18623375Y-40459585D01*
X18759585Y-40323375D01*
X18773000Y-40303298D01*
X18773000Y-41290000D01*
X-1290000Y-41290000D01*
X-1290000Y-37383891D01*
X1335000Y-37383891D01*
X1335000Y-37696109D01*
X1395911Y-38002327D01*
X1515391Y-38290779D01*
X1688850Y-38550379D01*
X1909621Y-38771150D01*
X2169221Y-38944609D01*
X2457673Y-39064089D01*
X2763891Y-39125000D01*
X3076109Y-39125000D01*
X3382327Y-39064089D01*
X3670779Y-38944609D01*
X3930379Y-38771150D01*
X4151150Y-38550379D01*
X4324609Y-38290779D01*
X4444089Y-38002327D01*
X4505000Y-37696109D01*
X4505000Y-37383891D01*
X4444089Y-37077673D01*
X4324609Y-36789221D01*
X4151150Y-36529621D01*
X3930379Y-36308850D01*
X3670779Y-36135391D01*
X3382327Y-36015911D01*
X3076109Y-35955000D01*
X2763891Y-35955000D01*
X2457673Y-36015911D01*
X2169221Y-36135391D01*
X1909621Y-36308850D01*
X1688850Y-36529621D01*
X1515391Y-36789221D01*
X1395911Y-37077673D01*
X1335000Y-37383891D01*
X-1290000Y-37383891D01*
X-1290000Y-32303891D01*
X1335000Y-32303891D01*
X1335000Y-32616109D01*
X1395911Y-32922327D01*
X1515391Y-33210779D01*
X1688850Y-33470379D01*
X1909621Y-33691150D01*
X2169221Y-33864609D01*
X2457673Y-33984089D01*
X2763891Y-34045000D01*
X3076109Y-34045000D01*
X3382327Y-33984089D01*
X3670779Y-33864609D01*
X3930379Y-33691150D01*
X4151150Y-33470379D01*
X4324609Y-33210779D01*
X4444089Y-32922327D01*
X4505000Y-32616109D01*
X4505000Y-32303891D01*
X6415000Y-32303891D01*
X6415000Y-32616109D01*
X6475911Y-32922327D01*
X6595391Y-33210779D01*
X6768850Y-33470379D01*
X6989621Y-33691150D01*
X7047764Y-33730000D01*
X6989621Y-33768850D01*
X6768850Y-33989621D01*
X6595391Y-34249221D01*
X6475911Y-34537673D01*
X6415000Y-34843891D01*
X6415000Y-35156109D01*
X6475911Y-35462327D01*
X6595391Y-35750779D01*
X6768850Y-36010379D01*
X6989621Y-36231150D01*
X7047764Y-36270000D01*
X6989621Y-36308850D01*
X6768850Y-36529621D01*
X6595391Y-36789221D01*
X6475911Y-37077673D01*
X6415000Y-37383891D01*
X6415000Y-37696109D01*
X6475911Y-38002327D01*
X6595391Y-38290779D01*
X6768850Y-38550379D01*
X6989621Y-38771150D01*
X7249221Y-38944609D01*
X7537673Y-39064089D01*
X7843891Y-39125000D01*
X8156109Y-39125000D01*
X8462327Y-39064089D01*
X8750779Y-38944609D01*
X9010379Y-38771150D01*
X9231150Y-38550379D01*
X9404609Y-38290779D01*
X9524089Y-38002327D01*
X9585000Y-37696109D01*
X9585000Y-37383891D01*
X9524089Y-37077673D01*
X9404609Y-36789221D01*
X9231150Y-36529621D01*
X9010379Y-36308850D01*
X8952236Y-36270000D01*
X9010379Y-36231150D01*
X9231150Y-36010379D01*
X9404609Y-35750779D01*
X9524089Y-35462327D01*
X9535753Y-35403685D01*
X12422100Y-35403685D01*
X12422100Y-35596315D01*
X12459680Y-35785243D01*
X12533396Y-35963210D01*
X12640415Y-36123375D01*
X12776625Y-36259585D01*
X12936790Y-36366604D01*
X13114757Y-36440320D01*
X13303685Y-36477900D01*
X13496315Y-36477900D01*
X13685243Y-36440320D01*
X13863210Y-36366604D01*
X14023375Y-36259585D01*
X14159585Y-36123375D01*
X14266604Y-35963210D01*
X14340320Y-35785243D01*
X14377900Y-35596315D01*
X14377900Y-35403685D01*
X15522100Y-35403685D01*
X15522100Y-35596315D01*
X15559680Y-35785243D01*
X15633396Y-35963210D01*
X15740415Y-36123375D01*
X15876625Y-36259585D01*
X16036790Y-36366604D01*
X16214757Y-36440320D01*
X16403685Y-36477900D01*
X16596315Y-36477900D01*
X16785243Y-36440320D01*
X16963210Y-36366604D01*
X17123375Y-36259585D01*
X17259585Y-36123375D01*
X17366604Y-35963210D01*
X17440320Y-35785243D01*
X17477900Y-35596315D01*
X17477900Y-35403685D01*
X17440320Y-35214757D01*
X17366604Y-35036790D01*
X17259585Y-34876625D01*
X17123375Y-34740415D01*
X16963210Y-34633396D01*
X16785243Y-34559680D01*
X16596315Y-34522100D01*
X16403685Y-34522100D01*
X16214757Y-34559680D01*
X16036790Y-34633396D01*
X15876625Y-34740415D01*
X15740415Y-34876625D01*
X15633396Y-35036790D01*
X15559680Y-35214757D01*
X15522100Y-35403685D01*
X14377900Y-35403685D01*
X14340320Y-35214757D01*
X14266604Y-35036790D01*
X14159585Y-34876625D01*
X14023375Y-34740415D01*
X13863210Y-34633396D01*
X13685243Y-34559680D01*
X13496315Y-34522100D01*
X13303685Y-34522100D01*
X13114757Y-34559680D01*
X12936790Y-34633396D01*
X12776625Y-34740415D01*
X12640415Y-34876625D01*
X12533396Y-35036790D01*
X12459680Y-35214757D01*
X12422100Y-35403685D01*
X9535753Y-35403685D01*
X9585000Y-35156109D01*
X9585000Y-34843891D01*
X9524089Y-34537673D01*
X9404609Y-34249221D01*
X9231150Y-33989621D01*
X9010379Y-33768850D01*
X8952236Y-33730000D01*
X9010379Y-33691150D01*
X9231150Y-33470379D01*
X9404609Y-33210779D01*
X9490389Y-33003685D01*
X14022100Y-33003685D01*
X14022100Y-33196315D01*
X14059680Y-33385243D01*
X14133396Y-33563210D01*
X14240415Y-33723375D01*
X14376625Y-33859585D01*
X14536790Y-33966604D01*
X14714757Y-34040320D01*
X14903685Y-34077900D01*
X15096315Y-34077900D01*
X15285243Y-34040320D01*
X15463210Y-33966604D01*
X15623375Y-33859585D01*
X15759585Y-33723375D01*
X15866604Y-33563210D01*
X15940320Y-33385243D01*
X15977900Y-33196315D01*
X15977900Y-33003685D01*
X15940320Y-32814757D01*
X15866604Y-32636790D01*
X15759585Y-32476625D01*
X15623375Y-32340415D01*
X15463210Y-32233396D01*
X15285243Y-32159680D01*
X15096315Y-32122100D01*
X14903685Y-32122100D01*
X14714757Y-32159680D01*
X14536790Y-32233396D01*
X14376625Y-32340415D01*
X14240415Y-32476625D01*
X14133396Y-32636790D01*
X14059680Y-32814757D01*
X14022100Y-33003685D01*
X9490389Y-33003685D01*
X9524089Y-32922327D01*
X9585000Y-32616109D01*
X9585000Y-32303891D01*
X9524089Y-31997673D01*
X9404609Y-31709221D01*
X9231150Y-31449621D01*
X9010379Y-31228850D01*
X8750779Y-31055391D01*
X8462327Y-30935911D01*
X8156109Y-30875000D01*
X7843891Y-30875000D01*
X7537673Y-30935911D01*
X7249221Y-31055391D01*
X6989621Y-31228850D01*
X6768850Y-31449621D01*
X6595391Y-31709221D01*
X6475911Y-31997673D01*
X6415000Y-32303891D01*
X4505000Y-32303891D01*
X4444089Y-31997673D01*
X4324609Y-31709221D01*
X4151150Y-31449621D01*
X3930379Y-31228850D01*
X3670779Y-31055391D01*
X3382327Y-30935911D01*
X3076109Y-30875000D01*
X2763891Y-30875000D01*
X2457673Y-30935911D01*
X2169221Y-31055391D01*
X1909621Y-31228850D01*
X1688850Y-31449621D01*
X1515391Y-31709221D01*
X1395911Y-31997673D01*
X1335000Y-32303891D01*
X-1290000Y-32303891D01*
X-1290000Y-30203685D01*
X16722100Y-30203685D01*
X16722100Y-30396315D01*
X16759680Y-30585243D01*
X16833396Y-30763210D01*
X16940415Y-30923375D01*
X17076625Y-31059585D01*
X17236790Y-31166604D01*
X17414757Y-31240320D01*
X17603685Y-31277900D01*
X17796315Y-31277900D01*
X17985243Y-31240320D01*
X18163210Y-31166604D01*
X18323375Y-31059585D01*
X18459585Y-30923375D01*
X18566604Y-30763210D01*
X18640320Y-30585243D01*
X18677900Y-30396315D01*
X18677900Y-30203685D01*
X18640320Y-30014757D01*
X18566604Y-29836790D01*
X18459585Y-29676625D01*
X18323375Y-29540415D01*
X18163210Y-29433396D01*
X17985243Y-29359680D01*
X17796315Y-29322100D01*
X17603685Y-29322100D01*
X17414757Y-29359680D01*
X17236790Y-29433396D01*
X17076625Y-29540415D01*
X16940415Y-29676625D01*
X16833396Y-29836790D01*
X16759680Y-30014757D01*
X16722100Y-30203685D01*
X-1290000Y-30203685D01*
X-1290000Y-26276791D01*
X-1240706Y-26369014D01*
X-1055134Y-26595134D01*
X-829014Y-26780706D01*
X-571034Y-26918599D01*
X-291111Y-27003513D01*
X-72950Y-27025000D01*
X72950Y-27025000D01*
X291111Y-27003513D01*
X571034Y-26918599D01*
X829014Y-26780706D01*
X1055134Y-26595134D01*
X1240706Y-26369014D01*
X1378599Y-26111034D01*
X1463513Y-25831111D01*
X1492185Y-25540000D01*
X1463513Y-25248889D01*
X1378599Y-24968966D01*
X1240706Y-24710986D01*
X1055134Y-24484866D01*
X1025313Y-24460393D01*
X1094180Y-24439502D01*
X1204494Y-24380537D01*
X1301185Y-24301185D01*
X1380537Y-24204494D01*
X1439502Y-24094180D01*
X1475812Y-23974482D01*
X1488072Y-23850000D01*
X1488072Y-22150000D01*
X1475812Y-22025518D01*
X1439502Y-21905820D01*
X1380537Y-21795506D01*
X1301185Y-21698815D01*
X1204494Y-21619463D01*
X1094180Y-21560498D01*
X974482Y-21524188D01*
X850000Y-21511928D01*
X-850000Y-21511928D01*
X-974482Y-21524188D01*
X-1094180Y-21560498D01*
X-1204494Y-21619463D01*
X-1290000Y-21689636D01*
X-1290000Y-16135413D01*
X854192Y-16135413D01*
X949956Y-16399814D01*
X1239571Y-16540704D01*
X1551108Y-16622384D01*
X1872595Y-16641718D01*
X2191675Y-16597961D01*
X2496088Y-16492795D01*
X2670044Y-16399814D01*
X2765808Y-16135413D01*
X1810000Y-15179605D01*
X854192Y-16135413D01*
X-1290000Y-16135413D01*
X-1290000Y-15062595D01*
X168282Y-15062595D01*
X212039Y-15381675D01*
X317205Y-15686088D01*
X410186Y-15860044D01*
X674587Y-15955808D01*
X1630395Y-15000000D01*
X1989605Y-15000000D01*
X2945413Y-15955808D01*
X3209814Y-15860044D01*
X3350704Y-15570429D01*
X3432384Y-15258892D01*
X3451718Y-14937405D01*
X3407961Y-14618325D01*
X3302795Y-14313912D01*
X3209814Y-14139956D01*
X2945413Y-14044192D01*
X1989605Y-15000000D01*
X1630395Y-15000000D01*
X674587Y-14044192D01*
X410186Y-14139956D01*
X269296Y-14429571D01*
X187616Y-14741108D01*
X168282Y-15062595D01*
X-1290000Y-15062595D01*
X-1290000Y-13864587D01*
X854192Y-13864587D01*
X1810000Y-14820395D01*
X2765808Y-13864587D01*
X2670044Y-13600186D01*
X2380429Y-13459296D01*
X2068892Y-13377616D01*
X1747405Y-13358282D01*
X1428325Y-13402039D01*
X1123912Y-13507205D01*
X949956Y-13600186D01*
X854192Y-13864587D01*
X-1290000Y-13864587D01*
X-1290000Y-9838967D01*
X175000Y-9838967D01*
X175000Y-10161033D01*
X237832Y-10476912D01*
X361082Y-10774463D01*
X540013Y-11042252D01*
X767748Y-11269987D01*
X1035537Y-11448918D01*
X1333088Y-11572168D01*
X1648967Y-11635000D01*
X1971033Y-11635000D01*
X2286912Y-11572168D01*
X2584463Y-11448918D01*
X2852252Y-11269987D01*
X3079987Y-11042252D01*
X3258918Y-10774463D01*
X3382168Y-10476912D01*
X3445000Y-10161033D01*
X3445000Y-9838967D01*
X3382168Y-9523088D01*
X3374131Y-9503685D01*
X11622100Y-9503685D01*
X11622100Y-9696315D01*
X11659680Y-9885243D01*
X11733396Y-10063210D01*
X11840415Y-10223375D01*
X11976625Y-10359585D01*
X12136790Y-10466604D01*
X12314757Y-10540320D01*
X12503685Y-10577900D01*
X12696315Y-10577900D01*
X12885243Y-10540320D01*
X13063210Y-10466604D01*
X13223375Y-10359585D01*
X13359585Y-10223375D01*
X13466604Y-10063210D01*
X13540320Y-9885243D01*
X13577900Y-9696315D01*
X13577900Y-9503685D01*
X13540320Y-9314757D01*
X13466604Y-9136790D01*
X13359585Y-8976625D01*
X13223375Y-8840415D01*
X13063210Y-8733396D01*
X12885243Y-8659680D01*
X12696315Y-8622100D01*
X12503685Y-8622100D01*
X12314757Y-8659680D01*
X12136790Y-8733396D01*
X11976625Y-8840415D01*
X11840415Y-8976625D01*
X11733396Y-9136790D01*
X11659680Y-9314757D01*
X11622100Y-9503685D01*
X3374131Y-9503685D01*
X3258918Y-9225537D01*
X3079987Y-8957748D01*
X2852252Y-8730013D01*
X2584463Y-8551082D01*
X2286912Y-8427832D01*
X1971033Y-8365000D01*
X1648967Y-8365000D01*
X1333088Y-8427832D01*
X1035537Y-8551082D01*
X767748Y-8730013D01*
X540013Y-8957748D01*
X361082Y-9225537D01*
X237832Y-9523088D01*
X175000Y-9838967D01*
X-1290000Y-9838967D01*
X-1290000Y-4838967D01*
X175000Y-4838967D01*
X175000Y-5161033D01*
X237832Y-5476912D01*
X361082Y-5774463D01*
X540013Y-6042252D01*
X767748Y-6269987D01*
X1035537Y-6448918D01*
X1333088Y-6572168D01*
X1648967Y-6635000D01*
X1971033Y-6635000D01*
X2286912Y-6572168D01*
X2584463Y-6448918D01*
X2852252Y-6269987D01*
X3079987Y-6042252D01*
X3258918Y-5774463D01*
X3382168Y-5476912D01*
X3445000Y-5161033D01*
X3445000Y-4838967D01*
X3382168Y-4523088D01*
X3258918Y-4225537D01*
X3079987Y-3957748D01*
X2852252Y-3730013D01*
X2584463Y-3551082D01*
X2286912Y-3427832D01*
X1971033Y-3365000D01*
X1648967Y-3365000D01*
X1333088Y-3427832D01*
X1035537Y-3551082D01*
X767748Y-3730013D01*
X540013Y-3957748D01*
X361082Y-4225537D01*
X237832Y-4523088D01*
X175000Y-4838967D01*
X-1290000Y-4838967D01*
X-1290000Y1290000D01*
X8873000Y1290000D01*
X8873000Y-6500000D01*
G36*
X36173000Y-21873000D02*
G01*
X31900000Y-21873000D01*
X31875224Y-21875440D01*
X31851399Y-21882667D01*
X31829443Y-21894403D01*
X31810197Y-21910197D01*
X31794403Y-21929443D01*
X31782667Y-21951399D01*
X31775440Y-21975224D01*
X31773000Y-22000000D01*
X31773000Y-30900000D01*
X31775440Y-30924776D01*
X31782667Y-30948601D01*
X31794403Y-30970557D01*
X31810197Y-30989803D01*
X31829443Y-31005597D01*
X31851399Y-31017333D01*
X31875224Y-31024560D01*
X31900000Y-31027000D01*
X34573000Y-31027000D01*
X34573000Y-35296030D01*
X34485243Y-35259680D01*
X34296315Y-35222100D01*
X34103685Y-35222100D01*
X33914757Y-35259680D01*
X33736790Y-35333396D01*
X33576625Y-35440415D01*
X33440415Y-35576625D01*
X33333396Y-35736790D01*
X33259680Y-35914757D01*
X33222100Y-36103685D01*
X33222100Y-36296315D01*
X33259680Y-36485243D01*
X33333396Y-36663210D01*
X33440415Y-36823375D01*
X33576625Y-36959585D01*
X33736790Y-37066604D01*
X33914757Y-37140320D01*
X34103685Y-37177900D01*
X34296315Y-37177900D01*
X34485243Y-37140320D01*
X34573000Y-37103970D01*
X34573000Y-41290000D01*
X19527000Y-41290000D01*
X19527000Y-35878363D01*
X22565000Y-35878363D01*
X22565000Y-36121637D01*
X22612460Y-36360236D01*
X22705557Y-36584992D01*
X22840713Y-36787267D01*
X23012733Y-36959287D01*
X23215008Y-37094443D01*
X23439764Y-37187540D01*
X23678363Y-37235000D01*
X23921637Y-37235000D01*
X24160236Y-37187540D01*
X24384992Y-37094443D01*
X24587267Y-36959287D01*
X24759287Y-36787267D01*
X24894443Y-36584992D01*
X24987540Y-36360236D01*
X25035000Y-36121637D01*
X25035000Y-35878363D01*
X26965000Y-35878363D01*
X26965000Y-36121637D01*
X27012460Y-36360236D01*
X27105557Y-36584992D01*
X27240713Y-36787267D01*
X27412733Y-36959287D01*
X27615008Y-37094443D01*
X27839764Y-37187540D01*
X28078363Y-37235000D01*
X28321637Y-37235000D01*
X28560236Y-37187540D01*
X28784992Y-37094443D01*
X28987267Y-36959287D01*
X29159287Y-36787267D01*
X29294443Y-36584992D01*
X29387540Y-36360236D01*
X29435000Y-36121637D01*
X29435000Y-35878363D01*
X29387540Y-35639764D01*
X29294443Y-35415008D01*
X29159287Y-35212733D01*
X28987267Y-35040713D01*
X28784992Y-34905557D01*
X28560236Y-34812460D01*
X28321637Y-34765000D01*
X28078363Y-34765000D01*
X27839764Y-34812460D01*
X27615008Y-34905557D01*
X27412733Y-35040713D01*
X27240713Y-35212733D01*
X27105557Y-35415008D01*
X27012460Y-35639764D01*
X26965000Y-35878363D01*
X25035000Y-35878363D01*
X24987540Y-35639764D01*
X24894443Y-35415008D01*
X24759287Y-35212733D01*
X24587267Y-35040713D01*
X24384992Y-34905557D01*
X24160236Y-34812460D01*
X23921637Y-34765000D01*
X23678363Y-34765000D01*
X23439764Y-34812460D01*
X23215008Y-34905557D01*
X23012733Y-35040713D01*
X22840713Y-35212733D01*
X22705557Y-35415008D01*
X22612460Y-35639764D01*
X22565000Y-35878363D01*
X19527000Y-35878363D01*
X19527000Y-30303685D01*
X24222100Y-30303685D01*
X24222100Y-30496315D01*
X24259680Y-30685243D01*
X24333396Y-30863210D01*
X24440415Y-31023375D01*
X24576625Y-31159585D01*
X24736790Y-31266604D01*
X24914757Y-31340320D01*
X25103685Y-31377900D01*
X25296315Y-31377900D01*
X25485243Y-31340320D01*
X25663210Y-31266604D01*
X25823375Y-31159585D01*
X25879275Y-31103685D01*
X26622100Y-31103685D01*
X26622100Y-31296315D01*
X26659680Y-31485243D01*
X26733396Y-31663210D01*
X26840415Y-31823375D01*
X26976625Y-31959585D01*
X27136790Y-32066604D01*
X27314757Y-32140320D01*
X27503685Y-32177900D01*
X27696315Y-32177900D01*
X27885243Y-32140320D01*
X28063210Y-32066604D01*
X28223375Y-31959585D01*
X28359585Y-31823375D01*
X28466604Y-31663210D01*
X28540320Y-31485243D01*
X28577900Y-31296315D01*
X28577900Y-31103685D01*
X28540320Y-30914757D01*
X28466604Y-30736790D01*
X28359585Y-30576625D01*
X28223375Y-30440415D01*
X28063210Y-30333396D01*
X27885243Y-30259680D01*
X27696315Y-30222100D01*
X27503685Y-30222100D01*
X27314757Y-30259680D01*
X27136790Y-30333396D01*
X26976625Y-30440415D01*
X26840415Y-30576625D01*
X26733396Y-30736790D01*
X26659680Y-30914757D01*
X26622100Y-31103685D01*
X25879275Y-31103685D01*
X25959585Y-31023375D01*
X26066604Y-30863210D01*
X26140320Y-30685243D01*
X26177900Y-30496315D01*
X26177900Y-30303685D01*
X26140320Y-30114757D01*
X26066604Y-29936790D01*
X25959585Y-29776625D01*
X25823375Y-29640415D01*
X25663210Y-29533396D01*
X25485243Y-29459680D01*
X25296315Y-29422100D01*
X25103685Y-29422100D01*
X24914757Y-29459680D01*
X24736790Y-29533396D01*
X24576625Y-29640415D01*
X24440415Y-29776625D01*
X24333396Y-29936790D01*
X24259680Y-30114757D01*
X24222100Y-30303685D01*
X19527000Y-30303685D01*
X19527000Y-28853685D01*
X22322100Y-28853685D01*
X22322100Y-29046315D01*
X22359680Y-29235243D01*
X22433396Y-29413210D01*
X22540415Y-29573375D01*
X22676625Y-29709585D01*
X22836790Y-29816604D01*
X23014757Y-29890320D01*
X23203685Y-29927900D01*
X23396315Y-29927900D01*
X23585243Y-29890320D01*
X23763210Y-29816604D01*
X23923375Y-29709585D01*
X24059585Y-29573375D01*
X24166604Y-29413210D01*
X24240320Y-29235243D01*
X24277900Y-29046315D01*
X24277900Y-28853685D01*
X24240320Y-28664757D01*
X24166604Y-28486790D01*
X24059585Y-28326625D01*
X23923375Y-28190415D01*
X23763210Y-28083396D01*
X23585243Y-28009680D01*
X23396315Y-27972100D01*
X23203685Y-27972100D01*
X23014757Y-28009680D01*
X22836790Y-28083396D01*
X22676625Y-28190415D01*
X22540415Y-28326625D01*
X22433396Y-28486790D01*
X22359680Y-28664757D01*
X22322100Y-28853685D01*
X19527000Y-28853685D01*
X19527000Y-28100000D01*
X19524560Y-28075224D01*
X19517333Y-28051399D01*
X19505597Y-28029443D01*
X19489803Y-28010197D01*
X19470557Y-27994403D01*
X19448601Y-27982667D01*
X19424776Y-27975440D01*
X19400000Y-27973000D01*
X16427000Y-27973000D01*
X16427000Y-27293245D01*
X16536790Y-27366604D01*
X16714757Y-27440320D01*
X16903685Y-27477900D01*
X17096315Y-27477900D01*
X17285243Y-27440320D01*
X17463210Y-27366604D01*
X17623375Y-27259585D01*
X17759585Y-27123375D01*
X17866604Y-26963210D01*
X17870549Y-26953685D01*
X27722100Y-26953685D01*
X27722100Y-27146315D01*
X27759680Y-27335243D01*
X27833396Y-27513210D01*
X27940415Y-27673375D01*
X28076625Y-27809585D01*
X28236790Y-27916604D01*
X28414757Y-27990320D01*
X28463422Y-28000000D01*
X28414757Y-28009680D01*
X28236790Y-28083396D01*
X28076625Y-28190415D01*
X27940415Y-28326625D01*
X27833396Y-28486790D01*
X27759680Y-28664757D01*
X27722100Y-28853685D01*
X27722100Y-29046315D01*
X27759680Y-29235243D01*
X27833396Y-29413210D01*
X27940415Y-29573375D01*
X28076625Y-29709585D01*
X28236790Y-29816604D01*
X28414757Y-29890320D01*
X28603685Y-29927900D01*
X28796315Y-29927900D01*
X28985243Y-29890320D01*
X29163210Y-29816604D01*
X29323375Y-29709585D01*
X29459585Y-29573375D01*
X29566604Y-29413210D01*
X29640320Y-29235243D01*
X29677900Y-29046315D01*
X29677900Y-28853685D01*
X29640320Y-28664757D01*
X29566604Y-28486790D01*
X29459585Y-28326625D01*
X29323375Y-28190415D01*
X29163210Y-28083396D01*
X28985243Y-28009680D01*
X28936578Y-28000000D01*
X28985243Y-27990320D01*
X29163210Y-27916604D01*
X29323375Y-27809585D01*
X29459585Y-27673375D01*
X29566604Y-27513210D01*
X29640320Y-27335243D01*
X29677900Y-27146315D01*
X29677900Y-26953685D01*
X29640320Y-26764757D01*
X29566604Y-26586790D01*
X29459585Y-26426625D01*
X29323375Y-26290415D01*
X29163210Y-26183396D01*
X28985243Y-26109680D01*
X28796315Y-26072100D01*
X28603685Y-26072100D01*
X28414757Y-26109680D01*
X28236790Y-26183396D01*
X28076625Y-26290415D01*
X27940415Y-26426625D01*
X27833396Y-26586790D01*
X27759680Y-26764757D01*
X27722100Y-26953685D01*
X17870549Y-26953685D01*
X17940320Y-26785243D01*
X17977900Y-26596315D01*
X17977900Y-26403685D01*
X17940320Y-26214757D01*
X17866604Y-26036790D01*
X17759585Y-25876625D01*
X17623375Y-25740415D01*
X17463210Y-25633396D01*
X17285243Y-25559680D01*
X17096315Y-25522100D01*
X16903685Y-25522100D01*
X16714757Y-25559680D01*
X16536790Y-25633396D01*
X16427000Y-25706755D01*
X16427000Y-25503685D01*
X23922100Y-25503685D01*
X23922100Y-25696315D01*
X23959680Y-25885243D01*
X24033396Y-26063210D01*
X24140415Y-26223375D01*
X24276625Y-26359585D01*
X24436790Y-26466604D01*
X24614757Y-26540320D01*
X24803685Y-26577900D01*
X24996315Y-26577900D01*
X25185243Y-26540320D01*
X25363210Y-26466604D01*
X25523375Y-26359585D01*
X25659585Y-26223375D01*
X25766604Y-26063210D01*
X25840320Y-25885243D01*
X25877900Y-25696315D01*
X25877900Y-25503685D01*
X25840320Y-25314757D01*
X25766604Y-25136790D01*
X25659585Y-24976625D01*
X25586645Y-24903685D01*
X28722100Y-24903685D01*
X28722100Y-25096315D01*
X28759680Y-25285243D01*
X28833396Y-25463210D01*
X28940415Y-25623375D01*
X29076625Y-25759585D01*
X29236790Y-25866604D01*
X29414757Y-25940320D01*
X29603685Y-25977900D01*
X29796315Y-25977900D01*
X29985243Y-25940320D01*
X30163210Y-25866604D01*
X30323375Y-25759585D01*
X30459585Y-25623375D01*
X30566604Y-25463210D01*
X30640320Y-25285243D01*
X30677900Y-25096315D01*
X30677900Y-24903685D01*
X30640320Y-24714757D01*
X30566604Y-24536790D01*
X30459585Y-24376625D01*
X30323375Y-24240415D01*
X30163210Y-24133396D01*
X29985243Y-24059680D01*
X29796315Y-24022100D01*
X29603685Y-24022100D01*
X29414757Y-24059680D01*
X29236790Y-24133396D01*
X29076625Y-24240415D01*
X28940415Y-24376625D01*
X28833396Y-24536790D01*
X28759680Y-24714757D01*
X28722100Y-24903685D01*
X25586645Y-24903685D01*
X25523375Y-24840415D01*
X25363210Y-24733396D01*
X25185243Y-24659680D01*
X24996315Y-24622100D01*
X24803685Y-24622100D01*
X24614757Y-24659680D01*
X24436790Y-24733396D01*
X24276625Y-24840415D01*
X24140415Y-24976625D01*
X24033396Y-25136790D01*
X23959680Y-25314757D01*
X23922100Y-25503685D01*
X16427000Y-25503685D01*
X16427000Y-23103685D01*
X23822100Y-23103685D01*
X23822100Y-23296315D01*
X23859680Y-23485243D01*
X23933396Y-23663210D01*
X24040415Y-23823375D01*
X24176625Y-23959585D01*
X24336790Y-24066604D01*
X24514757Y-24140320D01*
X24703685Y-24177900D01*
X24896315Y-24177900D01*
X25085243Y-24140320D01*
X25263210Y-24066604D01*
X25423375Y-23959585D01*
X25559585Y-23823375D01*
X25666604Y-23663210D01*
X25740320Y-23485243D01*
X25777900Y-23296315D01*
X25777900Y-23103685D01*
X25740320Y-22914757D01*
X25666604Y-22736790D01*
X25559585Y-22576625D01*
X25423375Y-22440415D01*
X25263210Y-22333396D01*
X25085243Y-22259680D01*
X24896315Y-22222100D01*
X24703685Y-22222100D01*
X24514757Y-22259680D01*
X24336790Y-22333396D01*
X24176625Y-22440415D01*
X24040415Y-22576625D01*
X23933396Y-22736790D01*
X23859680Y-22914757D01*
X23822100Y-23103685D01*
X16427000Y-23103685D01*
X16427000Y-19903685D01*
X25022100Y-19903685D01*
X25022100Y-20096315D01*
X25059680Y-20285243D01*
X25133396Y-20463210D01*
X25240415Y-20623375D01*
X25376625Y-20759585D01*
X25536790Y-20866604D01*
X25714757Y-20940320D01*
X25903685Y-20977900D01*
X26096315Y-20977900D01*
X26285243Y-20940320D01*
X26463210Y-20866604D01*
X26623375Y-20759585D01*
X26759585Y-20623375D01*
X26772741Y-20603685D01*
X33422100Y-20603685D01*
X33422100Y-20796315D01*
X33459680Y-20985243D01*
X33533396Y-21163210D01*
X33640415Y-21323375D01*
X33776625Y-21459585D01*
X33936790Y-21566604D01*
X34114757Y-21640320D01*
X34303685Y-21677900D01*
X34496315Y-21677900D01*
X34685243Y-21640320D01*
X34863210Y-21566604D01*
X35023375Y-21459585D01*
X35159585Y-21323375D01*
X35266604Y-21163210D01*
X35340320Y-20985243D01*
X35377900Y-20796315D01*
X35377900Y-20603685D01*
X35340320Y-20414757D01*
X35266604Y-20236790D01*
X35159585Y-20076625D01*
X35023375Y-19940415D01*
X34863210Y-19833396D01*
X34685243Y-19759680D01*
X34496315Y-19722100D01*
X34303685Y-19722100D01*
X34114757Y-19759680D01*
X33936790Y-19833396D01*
X33776625Y-19940415D01*
X33640415Y-20076625D01*
X33533396Y-20236790D01*
X33459680Y-20414757D01*
X33422100Y-20603685D01*
X26772741Y-20603685D01*
X26866604Y-20463210D01*
X26940320Y-20285243D01*
X26977900Y-20096315D01*
X26977900Y-19903685D01*
X26940320Y-19714757D01*
X26866604Y-19536790D01*
X26759585Y-19376625D01*
X26623375Y-19240415D01*
X26463210Y-19133396D01*
X26285243Y-19059680D01*
X26096315Y-19022100D01*
X25903685Y-19022100D01*
X25714757Y-19059680D01*
X25536790Y-19133396D01*
X25376625Y-19240415D01*
X25240415Y-19376625D01*
X25133396Y-19536790D01*
X25059680Y-19714757D01*
X25022100Y-19903685D01*
X16427000Y-19903685D01*
X16427000Y-16127000D01*
X17706755Y-16127000D01*
X17633396Y-16236790D01*
X17559680Y-16414757D01*
X17522100Y-16603685D01*
X17522100Y-16796315D01*
X17559680Y-16985243D01*
X17633396Y-17163210D01*
X17740415Y-17323375D01*
X17876625Y-17459585D01*
X18036790Y-17566604D01*
X18214757Y-17640320D01*
X18403685Y-17677900D01*
X18596315Y-17677900D01*
X18785243Y-17640320D01*
X18963210Y-17566604D01*
X19123375Y-17459585D01*
X19259585Y-17323375D01*
X19366604Y-17163210D01*
X19440320Y-16985243D01*
X19477900Y-16796315D01*
X19477900Y-16603685D01*
X19440320Y-16414757D01*
X19366604Y-16236790D01*
X19293245Y-16127000D01*
X25000000Y-16127000D01*
X25024776Y-16124560D01*
X25048601Y-16117333D01*
X25070557Y-16105597D01*
X25089803Y-16089803D01*
X25105597Y-16070557D01*
X25117333Y-16048601D01*
X25124560Y-16024776D01*
X25127000Y-16000000D01*
X25127000Y-8627000D01*
X36173000Y-8627000D01*
X36173000Y-21873000D01*
X36173000Y-21873000D01*
G37*
X36173000Y-21873000D02*
X31900000Y-21873000D01*
X31875224Y-21875440D01*
X31851399Y-21882667D01*
X31829443Y-21894403D01*
X31810197Y-21910197D01*
X31794403Y-21929443D01*
X31782667Y-21951399D01*
X31775440Y-21975224D01*
X31773000Y-22000000D01*
X31773000Y-30900000D01*
X31775440Y-30924776D01*
X31782667Y-30948601D01*
X31794403Y-30970557D01*
X31810197Y-30989803D01*
X31829443Y-31005597D01*
X31851399Y-31017333D01*
X31875224Y-31024560D01*
X31900000Y-31027000D01*
X34573000Y-31027000D01*
X34573000Y-35296030D01*
X34485243Y-35259680D01*
X34296315Y-35222100D01*
X34103685Y-35222100D01*
X33914757Y-35259680D01*
X33736790Y-35333396D01*
X33576625Y-35440415D01*
X33440415Y-35576625D01*
X33333396Y-35736790D01*
X33259680Y-35914757D01*
X33222100Y-36103685D01*
X33222100Y-36296315D01*
X33259680Y-36485243D01*
X33333396Y-36663210D01*
X33440415Y-36823375D01*
X33576625Y-36959585D01*
X33736790Y-37066604D01*
X33914757Y-37140320D01*
X34103685Y-37177900D01*
X34296315Y-37177900D01*
X34485243Y-37140320D01*
X34573000Y-37103970D01*
X34573000Y-41290000D01*
X19527000Y-41290000D01*
X19527000Y-35878363D01*
X22565000Y-35878363D01*
X22565000Y-36121637D01*
X22612460Y-36360236D01*
X22705557Y-36584992D01*
X22840713Y-36787267D01*
X23012733Y-36959287D01*
X23215008Y-37094443D01*
X23439764Y-37187540D01*
X23678363Y-37235000D01*
X23921637Y-37235000D01*
X24160236Y-37187540D01*
X24384992Y-37094443D01*
X24587267Y-36959287D01*
X24759287Y-36787267D01*
X24894443Y-36584992D01*
X24987540Y-36360236D01*
X25035000Y-36121637D01*
X25035000Y-35878363D01*
X26965000Y-35878363D01*
X26965000Y-36121637D01*
X27012460Y-36360236D01*
X27105557Y-36584992D01*
X27240713Y-36787267D01*
X27412733Y-36959287D01*
X27615008Y-37094443D01*
X27839764Y-37187540D01*
X28078363Y-37235000D01*
X28321637Y-37235000D01*
X28560236Y-37187540D01*
X28784992Y-37094443D01*
X28987267Y-36959287D01*
X29159287Y-36787267D01*
X29294443Y-36584992D01*
X29387540Y-36360236D01*
X29435000Y-36121637D01*
X29435000Y-35878363D01*
X29387540Y-35639764D01*
X29294443Y-35415008D01*
X29159287Y-35212733D01*
X28987267Y-35040713D01*
X28784992Y-34905557D01*
X28560236Y-34812460D01*
X28321637Y-34765000D01*
X28078363Y-34765000D01*
X27839764Y-34812460D01*
X27615008Y-34905557D01*
X27412733Y-35040713D01*
X27240713Y-35212733D01*
X27105557Y-35415008D01*
X27012460Y-35639764D01*
X26965000Y-35878363D01*
X25035000Y-35878363D01*
X24987540Y-35639764D01*
X24894443Y-35415008D01*
X24759287Y-35212733D01*
X24587267Y-35040713D01*
X24384992Y-34905557D01*
X24160236Y-34812460D01*
X23921637Y-34765000D01*
X23678363Y-34765000D01*
X23439764Y-34812460D01*
X23215008Y-34905557D01*
X23012733Y-35040713D01*
X22840713Y-35212733D01*
X22705557Y-35415008D01*
X22612460Y-35639764D01*
X22565000Y-35878363D01*
X19527000Y-35878363D01*
X19527000Y-30303685D01*
X24222100Y-30303685D01*
X24222100Y-30496315D01*
X24259680Y-30685243D01*
X24333396Y-30863210D01*
X24440415Y-31023375D01*
X24576625Y-31159585D01*
X24736790Y-31266604D01*
X24914757Y-31340320D01*
X25103685Y-31377900D01*
X25296315Y-31377900D01*
X25485243Y-31340320D01*
X25663210Y-31266604D01*
X25823375Y-31159585D01*
X25879275Y-31103685D01*
X26622100Y-31103685D01*
X26622100Y-31296315D01*
X26659680Y-31485243D01*
X26733396Y-31663210D01*
X26840415Y-31823375D01*
X26976625Y-31959585D01*
X27136790Y-32066604D01*
X27314757Y-32140320D01*
X27503685Y-32177900D01*
X27696315Y-32177900D01*
X27885243Y-32140320D01*
X28063210Y-32066604D01*
X28223375Y-31959585D01*
X28359585Y-31823375D01*
X28466604Y-31663210D01*
X28540320Y-31485243D01*
X28577900Y-31296315D01*
X28577900Y-31103685D01*
X28540320Y-30914757D01*
X28466604Y-30736790D01*
X28359585Y-30576625D01*
X28223375Y-30440415D01*
X28063210Y-30333396D01*
X27885243Y-30259680D01*
X27696315Y-30222100D01*
X27503685Y-30222100D01*
X27314757Y-30259680D01*
X27136790Y-30333396D01*
X26976625Y-30440415D01*
X26840415Y-30576625D01*
X26733396Y-30736790D01*
X26659680Y-30914757D01*
X26622100Y-31103685D01*
X25879275Y-31103685D01*
X25959585Y-31023375D01*
X26066604Y-30863210D01*
X26140320Y-30685243D01*
X26177900Y-30496315D01*
X26177900Y-30303685D01*
X26140320Y-30114757D01*
X26066604Y-29936790D01*
X25959585Y-29776625D01*
X25823375Y-29640415D01*
X25663210Y-29533396D01*
X25485243Y-29459680D01*
X25296315Y-29422100D01*
X25103685Y-29422100D01*
X24914757Y-29459680D01*
X24736790Y-29533396D01*
X24576625Y-29640415D01*
X24440415Y-29776625D01*
X24333396Y-29936790D01*
X24259680Y-30114757D01*
X24222100Y-30303685D01*
X19527000Y-30303685D01*
X19527000Y-28853685D01*
X22322100Y-28853685D01*
X22322100Y-29046315D01*
X22359680Y-29235243D01*
X22433396Y-29413210D01*
X22540415Y-29573375D01*
X22676625Y-29709585D01*
X22836790Y-29816604D01*
X23014757Y-29890320D01*
X23203685Y-29927900D01*
X23396315Y-29927900D01*
X23585243Y-29890320D01*
X23763210Y-29816604D01*
X23923375Y-29709585D01*
X24059585Y-29573375D01*
X24166604Y-29413210D01*
X24240320Y-29235243D01*
X24277900Y-29046315D01*
X24277900Y-28853685D01*
X24240320Y-28664757D01*
X24166604Y-28486790D01*
X24059585Y-28326625D01*
X23923375Y-28190415D01*
X23763210Y-28083396D01*
X23585243Y-28009680D01*
X23396315Y-27972100D01*
X23203685Y-27972100D01*
X23014757Y-28009680D01*
X22836790Y-28083396D01*
X22676625Y-28190415D01*
X22540415Y-28326625D01*
X22433396Y-28486790D01*
X22359680Y-28664757D01*
X22322100Y-28853685D01*
X19527000Y-28853685D01*
X19527000Y-28100000D01*
X19524560Y-28075224D01*
X19517333Y-28051399D01*
X19505597Y-28029443D01*
X19489803Y-28010197D01*
X19470557Y-27994403D01*
X19448601Y-27982667D01*
X19424776Y-27975440D01*
X19400000Y-27973000D01*
X16427000Y-27973000D01*
X16427000Y-27293245D01*
X16536790Y-27366604D01*
X16714757Y-27440320D01*
X16903685Y-27477900D01*
X17096315Y-27477900D01*
X17285243Y-27440320D01*
X17463210Y-27366604D01*
X17623375Y-27259585D01*
X17759585Y-27123375D01*
X17866604Y-26963210D01*
X17870549Y-26953685D01*
X27722100Y-26953685D01*
X27722100Y-27146315D01*
X27759680Y-27335243D01*
X27833396Y-27513210D01*
X27940415Y-27673375D01*
X28076625Y-27809585D01*
X28236790Y-27916604D01*
X28414757Y-27990320D01*
X28463422Y-28000000D01*
X28414757Y-28009680D01*
X28236790Y-28083396D01*
X28076625Y-28190415D01*
X27940415Y-28326625D01*
X27833396Y-28486790D01*
X27759680Y-28664757D01*
X27722100Y-28853685D01*
X27722100Y-29046315D01*
X27759680Y-29235243D01*
X27833396Y-29413210D01*
X27940415Y-29573375D01*
X28076625Y-29709585D01*
X28236790Y-29816604D01*
X28414757Y-29890320D01*
X28603685Y-29927900D01*
X28796315Y-29927900D01*
X28985243Y-29890320D01*
X29163210Y-29816604D01*
X29323375Y-29709585D01*
X29459585Y-29573375D01*
X29566604Y-29413210D01*
X29640320Y-29235243D01*
X29677900Y-29046315D01*
X29677900Y-28853685D01*
X29640320Y-28664757D01*
X29566604Y-28486790D01*
X29459585Y-28326625D01*
X29323375Y-28190415D01*
X29163210Y-28083396D01*
X28985243Y-28009680D01*
X28936578Y-28000000D01*
X28985243Y-27990320D01*
X29163210Y-27916604D01*
X29323375Y-27809585D01*
X29459585Y-27673375D01*
X29566604Y-27513210D01*
X29640320Y-27335243D01*
X29677900Y-27146315D01*
X29677900Y-26953685D01*
X29640320Y-26764757D01*
X29566604Y-26586790D01*
X29459585Y-26426625D01*
X29323375Y-26290415D01*
X29163210Y-26183396D01*
X28985243Y-26109680D01*
X28796315Y-26072100D01*
X28603685Y-26072100D01*
X28414757Y-26109680D01*
X28236790Y-26183396D01*
X28076625Y-26290415D01*
X27940415Y-26426625D01*
X27833396Y-26586790D01*
X27759680Y-26764757D01*
X27722100Y-26953685D01*
X17870549Y-26953685D01*
X17940320Y-26785243D01*
X17977900Y-26596315D01*
X17977900Y-26403685D01*
X17940320Y-26214757D01*
X17866604Y-26036790D01*
X17759585Y-25876625D01*
X17623375Y-25740415D01*
X17463210Y-25633396D01*
X17285243Y-25559680D01*
X17096315Y-25522100D01*
X16903685Y-25522100D01*
X16714757Y-25559680D01*
X16536790Y-25633396D01*
X16427000Y-25706755D01*
X16427000Y-25503685D01*
X23922100Y-25503685D01*
X23922100Y-25696315D01*
X23959680Y-25885243D01*
X24033396Y-26063210D01*
X24140415Y-26223375D01*
X24276625Y-26359585D01*
X24436790Y-26466604D01*
X24614757Y-26540320D01*
X24803685Y-26577900D01*
X24996315Y-26577900D01*
X25185243Y-26540320D01*
X25363210Y-26466604D01*
X25523375Y-26359585D01*
X25659585Y-26223375D01*
X25766604Y-26063210D01*
X25840320Y-25885243D01*
X25877900Y-25696315D01*
X25877900Y-25503685D01*
X25840320Y-25314757D01*
X25766604Y-25136790D01*
X25659585Y-24976625D01*
X25586645Y-24903685D01*
X28722100Y-24903685D01*
X28722100Y-25096315D01*
X28759680Y-25285243D01*
X28833396Y-25463210D01*
X28940415Y-25623375D01*
X29076625Y-25759585D01*
X29236790Y-25866604D01*
X29414757Y-25940320D01*
X29603685Y-25977900D01*
X29796315Y-25977900D01*
X29985243Y-25940320D01*
X30163210Y-25866604D01*
X30323375Y-25759585D01*
X30459585Y-25623375D01*
X30566604Y-25463210D01*
X30640320Y-25285243D01*
X30677900Y-25096315D01*
X30677900Y-24903685D01*
X30640320Y-24714757D01*
X30566604Y-24536790D01*
X30459585Y-24376625D01*
X30323375Y-24240415D01*
X30163210Y-24133396D01*
X29985243Y-24059680D01*
X29796315Y-24022100D01*
X29603685Y-24022100D01*
X29414757Y-24059680D01*
X29236790Y-24133396D01*
X29076625Y-24240415D01*
X28940415Y-24376625D01*
X28833396Y-24536790D01*
X28759680Y-24714757D01*
X28722100Y-24903685D01*
X25586645Y-24903685D01*
X25523375Y-24840415D01*
X25363210Y-24733396D01*
X25185243Y-24659680D01*
X24996315Y-24622100D01*
X24803685Y-24622100D01*
X24614757Y-24659680D01*
X24436790Y-24733396D01*
X24276625Y-24840415D01*
X24140415Y-24976625D01*
X24033396Y-25136790D01*
X23959680Y-25314757D01*
X23922100Y-25503685D01*
X16427000Y-25503685D01*
X16427000Y-23103685D01*
X23822100Y-23103685D01*
X23822100Y-23296315D01*
X23859680Y-23485243D01*
X23933396Y-23663210D01*
X24040415Y-23823375D01*
X24176625Y-23959585D01*
X24336790Y-24066604D01*
X24514757Y-24140320D01*
X24703685Y-24177900D01*
X24896315Y-24177900D01*
X25085243Y-24140320D01*
X25263210Y-24066604D01*
X25423375Y-23959585D01*
X25559585Y-23823375D01*
X25666604Y-23663210D01*
X25740320Y-23485243D01*
X25777900Y-23296315D01*
X25777900Y-23103685D01*
X25740320Y-22914757D01*
X25666604Y-22736790D01*
X25559585Y-22576625D01*
X25423375Y-22440415D01*
X25263210Y-22333396D01*
X25085243Y-22259680D01*
X24896315Y-22222100D01*
X24703685Y-22222100D01*
X24514757Y-22259680D01*
X24336790Y-22333396D01*
X24176625Y-22440415D01*
X24040415Y-22576625D01*
X23933396Y-22736790D01*
X23859680Y-22914757D01*
X23822100Y-23103685D01*
X16427000Y-23103685D01*
X16427000Y-19903685D01*
X25022100Y-19903685D01*
X25022100Y-20096315D01*
X25059680Y-20285243D01*
X25133396Y-20463210D01*
X25240415Y-20623375D01*
X25376625Y-20759585D01*
X25536790Y-20866604D01*
X25714757Y-20940320D01*
X25903685Y-20977900D01*
X26096315Y-20977900D01*
X26285243Y-20940320D01*
X26463210Y-20866604D01*
X26623375Y-20759585D01*
X26759585Y-20623375D01*
X26772741Y-20603685D01*
X33422100Y-20603685D01*
X33422100Y-20796315D01*
X33459680Y-20985243D01*
X33533396Y-21163210D01*
X33640415Y-21323375D01*
X33776625Y-21459585D01*
X33936790Y-21566604D01*
X34114757Y-21640320D01*
X34303685Y-21677900D01*
X34496315Y-21677900D01*
X34685243Y-21640320D01*
X34863210Y-21566604D01*
X35023375Y-21459585D01*
X35159585Y-21323375D01*
X35266604Y-21163210D01*
X35340320Y-20985243D01*
X35377900Y-20796315D01*
X35377900Y-20603685D01*
X35340320Y-20414757D01*
X35266604Y-20236790D01*
X35159585Y-20076625D01*
X35023375Y-19940415D01*
X34863210Y-19833396D01*
X34685243Y-19759680D01*
X34496315Y-19722100D01*
X34303685Y-19722100D01*
X34114757Y-19759680D01*
X33936790Y-19833396D01*
X33776625Y-19940415D01*
X33640415Y-20076625D01*
X33533396Y-20236790D01*
X33459680Y-20414757D01*
X33422100Y-20603685D01*
X26772741Y-20603685D01*
X26866604Y-20463210D01*
X26940320Y-20285243D01*
X26977900Y-20096315D01*
X26977900Y-19903685D01*
X26940320Y-19714757D01*
X26866604Y-19536790D01*
X26759585Y-19376625D01*
X26623375Y-19240415D01*
X26463210Y-19133396D01*
X26285243Y-19059680D01*
X26096315Y-19022100D01*
X25903685Y-19022100D01*
X25714757Y-19059680D01*
X25536790Y-19133396D01*
X25376625Y-19240415D01*
X25240415Y-19376625D01*
X25133396Y-19536790D01*
X25059680Y-19714757D01*
X25022100Y-19903685D01*
X16427000Y-19903685D01*
X16427000Y-16127000D01*
X17706755Y-16127000D01*
X17633396Y-16236790D01*
X17559680Y-16414757D01*
X17522100Y-16603685D01*
X17522100Y-16796315D01*
X17559680Y-16985243D01*
X17633396Y-17163210D01*
X17740415Y-17323375D01*
X17876625Y-17459585D01*
X18036790Y-17566604D01*
X18214757Y-17640320D01*
X18403685Y-17677900D01*
X18596315Y-17677900D01*
X18785243Y-17640320D01*
X18963210Y-17566604D01*
X19123375Y-17459585D01*
X19259585Y-17323375D01*
X19366604Y-17163210D01*
X19440320Y-16985243D01*
X19477900Y-16796315D01*
X19477900Y-16603685D01*
X19440320Y-16414757D01*
X19366604Y-16236790D01*
X19293245Y-16127000D01*
X25000000Y-16127000D01*
X25024776Y-16124560D01*
X25048601Y-16117333D01*
X25070557Y-16105597D01*
X25089803Y-16089803D01*
X25105597Y-16070557D01*
X25117333Y-16048601D01*
X25124560Y-16024776D01*
X25127000Y-16000000D01*
X25127000Y-8627000D01*
X36173000Y-8627000D01*
X36173000Y-21873000D01*
M02*
