G04 #@! TF.GenerationSoftware,KiCad,Pcbnew,5.1.4-e60b266~84~ubuntu18.04.1*
G04 #@! TF.CreationDate,2019-11-15T21:22:24-08:00*
G04 #@! TF.ProjectId,VehicleAccessoryControllerTestBoard,56656869-636c-4654-9163-636573736f72,0.0*
G04 #@! TF.SameCoordinates,PX7829b80PY4c4b400*
G04 #@! TF.FileFunction,Paste,Top*
G04 #@! TF.FilePolarity,Positive*
%FSLAX46Y46*%
G04 Gerber Fmt 4.6, Leading zero omitted, Abs format (unit mm)*
G04 Created by KiCad (PCBNEW 5.1.4-e60b266~84~ubuntu18.04.1) date 2019-11-15 21:22:24*
%MOMM*%
%LPD*%
G04 APERTURE LIST*
%ADD10R,0.700000X1.000000*%
%ADD11R,1.000000X0.700000*%
%ADD12R,1.200000X1.000000*%
%ADD13R,1.000000X1.200000*%
%ADD14R,0.260000X0.730000*%
%ADD15C,0.080000*%
%ADD16C,0.100000*%
%ADD17R,1.450000X0.500000*%
%ADD18R,0.800000X1.000000*%
%ADD19R,1.400000X1.200000*%
%ADD20R,1.400000X1.000000*%
%ADD21R,0.900000X0.800000*%
%ADD22C,1.050000*%
%ADD23C,0.250000*%
%ADD24C,0.600000*%
%ADD25R,0.500000X2.250000*%
%ADD26R,2.000000X2.500000*%
G04 APERTURE END LIST*
D10*
X12250000Y-32000000D03*
X13750000Y-32000000D03*
X16250000Y-32000000D03*
X17750000Y-32000000D03*
X13750000Y-38000000D03*
X12250000Y-38000000D03*
X30750000Y-5000000D03*
X29250000Y-5000000D03*
X38250000Y-10000000D03*
X39750000Y-10000000D03*
X38250000Y-31000000D03*
X39750000Y-31000000D03*
X38250000Y-13000000D03*
X39750000Y-13000000D03*
X38250000Y-34000000D03*
X39750000Y-34000000D03*
X43750000Y-10000000D03*
X42250000Y-10000000D03*
X43750000Y-31000000D03*
X42250000Y-31000000D03*
X43750000Y-13000000D03*
X42250000Y-13000000D03*
X43750000Y-34000000D03*
X42250000Y-34000000D03*
D11*
X11000000Y-8250000D03*
X11000000Y-9750000D03*
X23000000Y-10750000D03*
X23000000Y-9250000D03*
X23000000Y-7750000D03*
X23000000Y-6250000D03*
X33000000Y-37250000D03*
X33000000Y-38750000D03*
D10*
X31350000Y-17500000D03*
X32850000Y-17500000D03*
X30750000Y-13000000D03*
X29250000Y-13000000D03*
X30750000Y-10000000D03*
X29250000Y-10000000D03*
D11*
X31100000Y-20750000D03*
X31100000Y-19250000D03*
X33100000Y-19250000D03*
X33100000Y-20750000D03*
D12*
X21700000Y-25000000D03*
X21700000Y-27000000D03*
D13*
X18000000Y-38000000D03*
X16000000Y-38000000D03*
X16000000Y-4000000D03*
X18000000Y-4000000D03*
X33100000Y-23000000D03*
X31100000Y-23000000D03*
X33100000Y-25000000D03*
X31100000Y-25000000D03*
X33100000Y-27000000D03*
X31100000Y-27000000D03*
X33100000Y-29000000D03*
X31100000Y-29000000D03*
D12*
X33000000Y-33000000D03*
X33000000Y-35000000D03*
D13*
X17000000Y-25000000D03*
X19000000Y-25000000D03*
X15000000Y-25000000D03*
X13000000Y-25000000D03*
D14*
X14500000Y-34425000D03*
X15000000Y-34425000D03*
X15500000Y-34425000D03*
X15000000Y-35575000D03*
X15500000Y-35575000D03*
D15*
X14500000Y-35525000D03*
D16*
G36*
X14630000Y-35940000D02*
G01*
X14370000Y-35940000D01*
X14370000Y-35244142D01*
X14504142Y-35110000D01*
X14630000Y-35110000D01*
X14630000Y-35940000D01*
X14630000Y-35940000D01*
G37*
D17*
X14300000Y-7095000D03*
X19700000Y-7095000D03*
X14300000Y-8365000D03*
X19700000Y-8365000D03*
X14300000Y-9635000D03*
X19700000Y-9635000D03*
X14300000Y-10905000D03*
X19700000Y-10905000D03*
D18*
X34750000Y-5000000D03*
X33250000Y-5000000D03*
X33250000Y-13000000D03*
X34750000Y-13000000D03*
X34750000Y-10000000D03*
X33250000Y-10000000D03*
D19*
X24900000Y-27230000D03*
D20*
X24900000Y-28950000D03*
X27100000Y-28950000D03*
X27100000Y-27050000D03*
D21*
X42000000Y-7000000D03*
X40000000Y-7950000D03*
X40000000Y-6050000D03*
X40000000Y-27050000D03*
X40000000Y-28950000D03*
X42000000Y-28000000D03*
D16*
G36*
X25649505Y-20126204D02*
G01*
X25673773Y-20129804D01*
X25697572Y-20135765D01*
X25720671Y-20144030D01*
X25742850Y-20154520D01*
X25763893Y-20167132D01*
X25783599Y-20181747D01*
X25801777Y-20198223D01*
X25818253Y-20216401D01*
X25832868Y-20236107D01*
X25845480Y-20257150D01*
X25855970Y-20279329D01*
X25864235Y-20302428D01*
X25870196Y-20326227D01*
X25873796Y-20350495D01*
X25875000Y-20374999D01*
X25875000Y-20925001D01*
X25873796Y-20949505D01*
X25870196Y-20973773D01*
X25864235Y-20997572D01*
X25855970Y-21020671D01*
X25845480Y-21042850D01*
X25832868Y-21063893D01*
X25818253Y-21083599D01*
X25801777Y-21101777D01*
X25783599Y-21118253D01*
X25763893Y-21132868D01*
X25742850Y-21145480D01*
X25720671Y-21155970D01*
X25697572Y-21164235D01*
X25673773Y-21170196D01*
X25649505Y-21173796D01*
X25625001Y-21175000D01*
X25074999Y-21175000D01*
X25050495Y-21173796D01*
X25026227Y-21170196D01*
X25002428Y-21164235D01*
X24979329Y-21155970D01*
X24957150Y-21145480D01*
X24936107Y-21132868D01*
X24916401Y-21118253D01*
X24898223Y-21101777D01*
X24881747Y-21083599D01*
X24867132Y-21063893D01*
X24854520Y-21042850D01*
X24844030Y-21020671D01*
X24835765Y-20997572D01*
X24829804Y-20973773D01*
X24826204Y-20949505D01*
X24825000Y-20925001D01*
X24825000Y-20374999D01*
X24826204Y-20350495D01*
X24829804Y-20326227D01*
X24835765Y-20302428D01*
X24844030Y-20279329D01*
X24854520Y-20257150D01*
X24867132Y-20236107D01*
X24881747Y-20216401D01*
X24898223Y-20198223D01*
X24916401Y-20181747D01*
X24936107Y-20167132D01*
X24957150Y-20154520D01*
X24979329Y-20144030D01*
X25002428Y-20135765D01*
X25026227Y-20129804D01*
X25050495Y-20126204D01*
X25074999Y-20125000D01*
X25625001Y-20125000D01*
X25649505Y-20126204D01*
X25649505Y-20126204D01*
G37*
D22*
X25350000Y-20650000D03*
D16*
G36*
X26949505Y-20126204D02*
G01*
X26973773Y-20129804D01*
X26997572Y-20135765D01*
X27020671Y-20144030D01*
X27042850Y-20154520D01*
X27063893Y-20167132D01*
X27083599Y-20181747D01*
X27101777Y-20198223D01*
X27118253Y-20216401D01*
X27132868Y-20236107D01*
X27145480Y-20257150D01*
X27155970Y-20279329D01*
X27164235Y-20302428D01*
X27170196Y-20326227D01*
X27173796Y-20350495D01*
X27175000Y-20374999D01*
X27175000Y-20925001D01*
X27173796Y-20949505D01*
X27170196Y-20973773D01*
X27164235Y-20997572D01*
X27155970Y-21020671D01*
X27145480Y-21042850D01*
X27132868Y-21063893D01*
X27118253Y-21083599D01*
X27101777Y-21101777D01*
X27083599Y-21118253D01*
X27063893Y-21132868D01*
X27042850Y-21145480D01*
X27020671Y-21155970D01*
X26997572Y-21164235D01*
X26973773Y-21170196D01*
X26949505Y-21173796D01*
X26925001Y-21175000D01*
X26374999Y-21175000D01*
X26350495Y-21173796D01*
X26326227Y-21170196D01*
X26302428Y-21164235D01*
X26279329Y-21155970D01*
X26257150Y-21145480D01*
X26236107Y-21132868D01*
X26216401Y-21118253D01*
X26198223Y-21101777D01*
X26181747Y-21083599D01*
X26167132Y-21063893D01*
X26154520Y-21042850D01*
X26144030Y-21020671D01*
X26135765Y-20997572D01*
X26129804Y-20973773D01*
X26126204Y-20949505D01*
X26125000Y-20925001D01*
X26125000Y-20374999D01*
X26126204Y-20350495D01*
X26129804Y-20326227D01*
X26135765Y-20302428D01*
X26144030Y-20279329D01*
X26154520Y-20257150D01*
X26167132Y-20236107D01*
X26181747Y-20216401D01*
X26198223Y-20198223D01*
X26216401Y-20181747D01*
X26236107Y-20167132D01*
X26257150Y-20154520D01*
X26279329Y-20144030D01*
X26302428Y-20135765D01*
X26326227Y-20129804D01*
X26350495Y-20126204D01*
X26374999Y-20125000D01*
X26925001Y-20125000D01*
X26949505Y-20126204D01*
X26949505Y-20126204D01*
G37*
D22*
X26650000Y-20650000D03*
D16*
G36*
X25649505Y-18826204D02*
G01*
X25673773Y-18829804D01*
X25697572Y-18835765D01*
X25720671Y-18844030D01*
X25742850Y-18854520D01*
X25763893Y-18867132D01*
X25783599Y-18881747D01*
X25801777Y-18898223D01*
X25818253Y-18916401D01*
X25832868Y-18936107D01*
X25845480Y-18957150D01*
X25855970Y-18979329D01*
X25864235Y-19002428D01*
X25870196Y-19026227D01*
X25873796Y-19050495D01*
X25875000Y-19074999D01*
X25875000Y-19625001D01*
X25873796Y-19649505D01*
X25870196Y-19673773D01*
X25864235Y-19697572D01*
X25855970Y-19720671D01*
X25845480Y-19742850D01*
X25832868Y-19763893D01*
X25818253Y-19783599D01*
X25801777Y-19801777D01*
X25783599Y-19818253D01*
X25763893Y-19832868D01*
X25742850Y-19845480D01*
X25720671Y-19855970D01*
X25697572Y-19864235D01*
X25673773Y-19870196D01*
X25649505Y-19873796D01*
X25625001Y-19875000D01*
X25074999Y-19875000D01*
X25050495Y-19873796D01*
X25026227Y-19870196D01*
X25002428Y-19864235D01*
X24979329Y-19855970D01*
X24957150Y-19845480D01*
X24936107Y-19832868D01*
X24916401Y-19818253D01*
X24898223Y-19801777D01*
X24881747Y-19783599D01*
X24867132Y-19763893D01*
X24854520Y-19742850D01*
X24844030Y-19720671D01*
X24835765Y-19697572D01*
X24829804Y-19673773D01*
X24826204Y-19649505D01*
X24825000Y-19625001D01*
X24825000Y-19074999D01*
X24826204Y-19050495D01*
X24829804Y-19026227D01*
X24835765Y-19002428D01*
X24844030Y-18979329D01*
X24854520Y-18957150D01*
X24867132Y-18936107D01*
X24881747Y-18916401D01*
X24898223Y-18898223D01*
X24916401Y-18881747D01*
X24936107Y-18867132D01*
X24957150Y-18854520D01*
X24979329Y-18844030D01*
X25002428Y-18835765D01*
X25026227Y-18829804D01*
X25050495Y-18826204D01*
X25074999Y-18825000D01*
X25625001Y-18825000D01*
X25649505Y-18826204D01*
X25649505Y-18826204D01*
G37*
D22*
X25350000Y-19350000D03*
D16*
G36*
X26949505Y-18826204D02*
G01*
X26973773Y-18829804D01*
X26997572Y-18835765D01*
X27020671Y-18844030D01*
X27042850Y-18854520D01*
X27063893Y-18867132D01*
X27083599Y-18881747D01*
X27101777Y-18898223D01*
X27118253Y-18916401D01*
X27132868Y-18936107D01*
X27145480Y-18957150D01*
X27155970Y-18979329D01*
X27164235Y-19002428D01*
X27170196Y-19026227D01*
X27173796Y-19050495D01*
X27175000Y-19074999D01*
X27175000Y-19625001D01*
X27173796Y-19649505D01*
X27170196Y-19673773D01*
X27164235Y-19697572D01*
X27155970Y-19720671D01*
X27145480Y-19742850D01*
X27132868Y-19763893D01*
X27118253Y-19783599D01*
X27101777Y-19801777D01*
X27083599Y-19818253D01*
X27063893Y-19832868D01*
X27042850Y-19845480D01*
X27020671Y-19855970D01*
X26997572Y-19864235D01*
X26973773Y-19870196D01*
X26949505Y-19873796D01*
X26925001Y-19875000D01*
X26374999Y-19875000D01*
X26350495Y-19873796D01*
X26326227Y-19870196D01*
X26302428Y-19864235D01*
X26279329Y-19855970D01*
X26257150Y-19845480D01*
X26236107Y-19832868D01*
X26216401Y-19818253D01*
X26198223Y-19801777D01*
X26181747Y-19783599D01*
X26167132Y-19763893D01*
X26154520Y-19742850D01*
X26144030Y-19720671D01*
X26135765Y-19697572D01*
X26129804Y-19673773D01*
X26126204Y-19649505D01*
X26125000Y-19625001D01*
X26125000Y-19074999D01*
X26126204Y-19050495D01*
X26129804Y-19026227D01*
X26135765Y-19002428D01*
X26144030Y-18979329D01*
X26154520Y-18957150D01*
X26167132Y-18936107D01*
X26181747Y-18916401D01*
X26198223Y-18898223D01*
X26216401Y-18881747D01*
X26236107Y-18867132D01*
X26257150Y-18854520D01*
X26279329Y-18844030D01*
X26302428Y-18835765D01*
X26326227Y-18829804D01*
X26350495Y-18826204D01*
X26374999Y-18825000D01*
X26925001Y-18825000D01*
X26949505Y-18826204D01*
X26949505Y-18826204D01*
G37*
D22*
X26650000Y-19350000D03*
D16*
G36*
X24818626Y-21525301D02*
G01*
X24824693Y-21526201D01*
X24830643Y-21527691D01*
X24836418Y-21529758D01*
X24841962Y-21532380D01*
X24847223Y-21535533D01*
X24852150Y-21539187D01*
X24856694Y-21543306D01*
X24860813Y-21547850D01*
X24864467Y-21552777D01*
X24867620Y-21558038D01*
X24870242Y-21563582D01*
X24872309Y-21569357D01*
X24873799Y-21575307D01*
X24874699Y-21581374D01*
X24875000Y-21587500D01*
X24875000Y-22287500D01*
X24874699Y-22293626D01*
X24873799Y-22299693D01*
X24872309Y-22305643D01*
X24870242Y-22311418D01*
X24867620Y-22316962D01*
X24864467Y-22322223D01*
X24860813Y-22327150D01*
X24856694Y-22331694D01*
X24852150Y-22335813D01*
X24847223Y-22339467D01*
X24841962Y-22342620D01*
X24836418Y-22345242D01*
X24830643Y-22347309D01*
X24824693Y-22348799D01*
X24818626Y-22349699D01*
X24812500Y-22350000D01*
X24687500Y-22350000D01*
X24681374Y-22349699D01*
X24675307Y-22348799D01*
X24669357Y-22347309D01*
X24663582Y-22345242D01*
X24658038Y-22342620D01*
X24652777Y-22339467D01*
X24647850Y-22335813D01*
X24643306Y-22331694D01*
X24639187Y-22327150D01*
X24635533Y-22322223D01*
X24632380Y-22316962D01*
X24629758Y-22311418D01*
X24627691Y-22305643D01*
X24626201Y-22299693D01*
X24625301Y-22293626D01*
X24625000Y-22287500D01*
X24625000Y-21587500D01*
X24625301Y-21581374D01*
X24626201Y-21575307D01*
X24627691Y-21569357D01*
X24629758Y-21563582D01*
X24632380Y-21558038D01*
X24635533Y-21552777D01*
X24639187Y-21547850D01*
X24643306Y-21543306D01*
X24647850Y-21539187D01*
X24652777Y-21535533D01*
X24658038Y-21532380D01*
X24663582Y-21529758D01*
X24669357Y-21527691D01*
X24675307Y-21526201D01*
X24681374Y-21525301D01*
X24687500Y-21525000D01*
X24812500Y-21525000D01*
X24818626Y-21525301D01*
X24818626Y-21525301D01*
G37*
D23*
X24750000Y-21937500D03*
D16*
G36*
X25318626Y-21525301D02*
G01*
X25324693Y-21526201D01*
X25330643Y-21527691D01*
X25336418Y-21529758D01*
X25341962Y-21532380D01*
X25347223Y-21535533D01*
X25352150Y-21539187D01*
X25356694Y-21543306D01*
X25360813Y-21547850D01*
X25364467Y-21552777D01*
X25367620Y-21558038D01*
X25370242Y-21563582D01*
X25372309Y-21569357D01*
X25373799Y-21575307D01*
X25374699Y-21581374D01*
X25375000Y-21587500D01*
X25375000Y-22287500D01*
X25374699Y-22293626D01*
X25373799Y-22299693D01*
X25372309Y-22305643D01*
X25370242Y-22311418D01*
X25367620Y-22316962D01*
X25364467Y-22322223D01*
X25360813Y-22327150D01*
X25356694Y-22331694D01*
X25352150Y-22335813D01*
X25347223Y-22339467D01*
X25341962Y-22342620D01*
X25336418Y-22345242D01*
X25330643Y-22347309D01*
X25324693Y-22348799D01*
X25318626Y-22349699D01*
X25312500Y-22350000D01*
X25187500Y-22350000D01*
X25181374Y-22349699D01*
X25175307Y-22348799D01*
X25169357Y-22347309D01*
X25163582Y-22345242D01*
X25158038Y-22342620D01*
X25152777Y-22339467D01*
X25147850Y-22335813D01*
X25143306Y-22331694D01*
X25139187Y-22327150D01*
X25135533Y-22322223D01*
X25132380Y-22316962D01*
X25129758Y-22311418D01*
X25127691Y-22305643D01*
X25126201Y-22299693D01*
X25125301Y-22293626D01*
X25125000Y-22287500D01*
X25125000Y-21587500D01*
X25125301Y-21581374D01*
X25126201Y-21575307D01*
X25127691Y-21569357D01*
X25129758Y-21563582D01*
X25132380Y-21558038D01*
X25135533Y-21552777D01*
X25139187Y-21547850D01*
X25143306Y-21543306D01*
X25147850Y-21539187D01*
X25152777Y-21535533D01*
X25158038Y-21532380D01*
X25163582Y-21529758D01*
X25169357Y-21527691D01*
X25175307Y-21526201D01*
X25181374Y-21525301D01*
X25187500Y-21525000D01*
X25312500Y-21525000D01*
X25318626Y-21525301D01*
X25318626Y-21525301D01*
G37*
D23*
X25250000Y-21937500D03*
D16*
G36*
X25818626Y-21525301D02*
G01*
X25824693Y-21526201D01*
X25830643Y-21527691D01*
X25836418Y-21529758D01*
X25841962Y-21532380D01*
X25847223Y-21535533D01*
X25852150Y-21539187D01*
X25856694Y-21543306D01*
X25860813Y-21547850D01*
X25864467Y-21552777D01*
X25867620Y-21558038D01*
X25870242Y-21563582D01*
X25872309Y-21569357D01*
X25873799Y-21575307D01*
X25874699Y-21581374D01*
X25875000Y-21587500D01*
X25875000Y-22287500D01*
X25874699Y-22293626D01*
X25873799Y-22299693D01*
X25872309Y-22305643D01*
X25870242Y-22311418D01*
X25867620Y-22316962D01*
X25864467Y-22322223D01*
X25860813Y-22327150D01*
X25856694Y-22331694D01*
X25852150Y-22335813D01*
X25847223Y-22339467D01*
X25841962Y-22342620D01*
X25836418Y-22345242D01*
X25830643Y-22347309D01*
X25824693Y-22348799D01*
X25818626Y-22349699D01*
X25812500Y-22350000D01*
X25687500Y-22350000D01*
X25681374Y-22349699D01*
X25675307Y-22348799D01*
X25669357Y-22347309D01*
X25663582Y-22345242D01*
X25658038Y-22342620D01*
X25652777Y-22339467D01*
X25647850Y-22335813D01*
X25643306Y-22331694D01*
X25639187Y-22327150D01*
X25635533Y-22322223D01*
X25632380Y-22316962D01*
X25629758Y-22311418D01*
X25627691Y-22305643D01*
X25626201Y-22299693D01*
X25625301Y-22293626D01*
X25625000Y-22287500D01*
X25625000Y-21587500D01*
X25625301Y-21581374D01*
X25626201Y-21575307D01*
X25627691Y-21569357D01*
X25629758Y-21563582D01*
X25632380Y-21558038D01*
X25635533Y-21552777D01*
X25639187Y-21547850D01*
X25643306Y-21543306D01*
X25647850Y-21539187D01*
X25652777Y-21535533D01*
X25658038Y-21532380D01*
X25663582Y-21529758D01*
X25669357Y-21527691D01*
X25675307Y-21526201D01*
X25681374Y-21525301D01*
X25687500Y-21525000D01*
X25812500Y-21525000D01*
X25818626Y-21525301D01*
X25818626Y-21525301D01*
G37*
D23*
X25750000Y-21937500D03*
D16*
G36*
X26318626Y-21525301D02*
G01*
X26324693Y-21526201D01*
X26330643Y-21527691D01*
X26336418Y-21529758D01*
X26341962Y-21532380D01*
X26347223Y-21535533D01*
X26352150Y-21539187D01*
X26356694Y-21543306D01*
X26360813Y-21547850D01*
X26364467Y-21552777D01*
X26367620Y-21558038D01*
X26370242Y-21563582D01*
X26372309Y-21569357D01*
X26373799Y-21575307D01*
X26374699Y-21581374D01*
X26375000Y-21587500D01*
X26375000Y-22287500D01*
X26374699Y-22293626D01*
X26373799Y-22299693D01*
X26372309Y-22305643D01*
X26370242Y-22311418D01*
X26367620Y-22316962D01*
X26364467Y-22322223D01*
X26360813Y-22327150D01*
X26356694Y-22331694D01*
X26352150Y-22335813D01*
X26347223Y-22339467D01*
X26341962Y-22342620D01*
X26336418Y-22345242D01*
X26330643Y-22347309D01*
X26324693Y-22348799D01*
X26318626Y-22349699D01*
X26312500Y-22350000D01*
X26187500Y-22350000D01*
X26181374Y-22349699D01*
X26175307Y-22348799D01*
X26169357Y-22347309D01*
X26163582Y-22345242D01*
X26158038Y-22342620D01*
X26152777Y-22339467D01*
X26147850Y-22335813D01*
X26143306Y-22331694D01*
X26139187Y-22327150D01*
X26135533Y-22322223D01*
X26132380Y-22316962D01*
X26129758Y-22311418D01*
X26127691Y-22305643D01*
X26126201Y-22299693D01*
X26125301Y-22293626D01*
X26125000Y-22287500D01*
X26125000Y-21587500D01*
X26125301Y-21581374D01*
X26126201Y-21575307D01*
X26127691Y-21569357D01*
X26129758Y-21563582D01*
X26132380Y-21558038D01*
X26135533Y-21552777D01*
X26139187Y-21547850D01*
X26143306Y-21543306D01*
X26147850Y-21539187D01*
X26152777Y-21535533D01*
X26158038Y-21532380D01*
X26163582Y-21529758D01*
X26169357Y-21527691D01*
X26175307Y-21526201D01*
X26181374Y-21525301D01*
X26187500Y-21525000D01*
X26312500Y-21525000D01*
X26318626Y-21525301D01*
X26318626Y-21525301D01*
G37*
D23*
X26250000Y-21937500D03*
D16*
G36*
X26818626Y-21525301D02*
G01*
X26824693Y-21526201D01*
X26830643Y-21527691D01*
X26836418Y-21529758D01*
X26841962Y-21532380D01*
X26847223Y-21535533D01*
X26852150Y-21539187D01*
X26856694Y-21543306D01*
X26860813Y-21547850D01*
X26864467Y-21552777D01*
X26867620Y-21558038D01*
X26870242Y-21563582D01*
X26872309Y-21569357D01*
X26873799Y-21575307D01*
X26874699Y-21581374D01*
X26875000Y-21587500D01*
X26875000Y-22287500D01*
X26874699Y-22293626D01*
X26873799Y-22299693D01*
X26872309Y-22305643D01*
X26870242Y-22311418D01*
X26867620Y-22316962D01*
X26864467Y-22322223D01*
X26860813Y-22327150D01*
X26856694Y-22331694D01*
X26852150Y-22335813D01*
X26847223Y-22339467D01*
X26841962Y-22342620D01*
X26836418Y-22345242D01*
X26830643Y-22347309D01*
X26824693Y-22348799D01*
X26818626Y-22349699D01*
X26812500Y-22350000D01*
X26687500Y-22350000D01*
X26681374Y-22349699D01*
X26675307Y-22348799D01*
X26669357Y-22347309D01*
X26663582Y-22345242D01*
X26658038Y-22342620D01*
X26652777Y-22339467D01*
X26647850Y-22335813D01*
X26643306Y-22331694D01*
X26639187Y-22327150D01*
X26635533Y-22322223D01*
X26632380Y-22316962D01*
X26629758Y-22311418D01*
X26627691Y-22305643D01*
X26626201Y-22299693D01*
X26625301Y-22293626D01*
X26625000Y-22287500D01*
X26625000Y-21587500D01*
X26625301Y-21581374D01*
X26626201Y-21575307D01*
X26627691Y-21569357D01*
X26629758Y-21563582D01*
X26632380Y-21558038D01*
X26635533Y-21552777D01*
X26639187Y-21547850D01*
X26643306Y-21543306D01*
X26647850Y-21539187D01*
X26652777Y-21535533D01*
X26658038Y-21532380D01*
X26663582Y-21529758D01*
X26669357Y-21527691D01*
X26675307Y-21526201D01*
X26681374Y-21525301D01*
X26687500Y-21525000D01*
X26812500Y-21525000D01*
X26818626Y-21525301D01*
X26818626Y-21525301D01*
G37*
D23*
X26750000Y-21937500D03*
D16*
G36*
X27318626Y-21525301D02*
G01*
X27324693Y-21526201D01*
X27330643Y-21527691D01*
X27336418Y-21529758D01*
X27341962Y-21532380D01*
X27347223Y-21535533D01*
X27352150Y-21539187D01*
X27356694Y-21543306D01*
X27360813Y-21547850D01*
X27364467Y-21552777D01*
X27367620Y-21558038D01*
X27370242Y-21563582D01*
X27372309Y-21569357D01*
X27373799Y-21575307D01*
X27374699Y-21581374D01*
X27375000Y-21587500D01*
X27375000Y-22287500D01*
X27374699Y-22293626D01*
X27373799Y-22299693D01*
X27372309Y-22305643D01*
X27370242Y-22311418D01*
X27367620Y-22316962D01*
X27364467Y-22322223D01*
X27360813Y-22327150D01*
X27356694Y-22331694D01*
X27352150Y-22335813D01*
X27347223Y-22339467D01*
X27341962Y-22342620D01*
X27336418Y-22345242D01*
X27330643Y-22347309D01*
X27324693Y-22348799D01*
X27318626Y-22349699D01*
X27312500Y-22350000D01*
X27187500Y-22350000D01*
X27181374Y-22349699D01*
X27175307Y-22348799D01*
X27169357Y-22347309D01*
X27163582Y-22345242D01*
X27158038Y-22342620D01*
X27152777Y-22339467D01*
X27147850Y-22335813D01*
X27143306Y-22331694D01*
X27139187Y-22327150D01*
X27135533Y-22322223D01*
X27132380Y-22316962D01*
X27129758Y-22311418D01*
X27127691Y-22305643D01*
X27126201Y-22299693D01*
X27125301Y-22293626D01*
X27125000Y-22287500D01*
X27125000Y-21587500D01*
X27125301Y-21581374D01*
X27126201Y-21575307D01*
X27127691Y-21569357D01*
X27129758Y-21563582D01*
X27132380Y-21558038D01*
X27135533Y-21552777D01*
X27139187Y-21547850D01*
X27143306Y-21543306D01*
X27147850Y-21539187D01*
X27152777Y-21535533D01*
X27158038Y-21532380D01*
X27163582Y-21529758D01*
X27169357Y-21527691D01*
X27175307Y-21526201D01*
X27181374Y-21525301D01*
X27187500Y-21525000D01*
X27312500Y-21525000D01*
X27318626Y-21525301D01*
X27318626Y-21525301D01*
G37*
D23*
X27250000Y-21937500D03*
D16*
G36*
X28293626Y-21125301D02*
G01*
X28299693Y-21126201D01*
X28305643Y-21127691D01*
X28311418Y-21129758D01*
X28316962Y-21132380D01*
X28322223Y-21135533D01*
X28327150Y-21139187D01*
X28331694Y-21143306D01*
X28335813Y-21147850D01*
X28339467Y-21152777D01*
X28342620Y-21158038D01*
X28345242Y-21163582D01*
X28347309Y-21169357D01*
X28348799Y-21175307D01*
X28349699Y-21181374D01*
X28350000Y-21187500D01*
X28350000Y-21312500D01*
X28349699Y-21318626D01*
X28348799Y-21324693D01*
X28347309Y-21330643D01*
X28345242Y-21336418D01*
X28342620Y-21341962D01*
X28339467Y-21347223D01*
X28335813Y-21352150D01*
X28331694Y-21356694D01*
X28327150Y-21360813D01*
X28322223Y-21364467D01*
X28316962Y-21367620D01*
X28311418Y-21370242D01*
X28305643Y-21372309D01*
X28299693Y-21373799D01*
X28293626Y-21374699D01*
X28287500Y-21375000D01*
X27587500Y-21375000D01*
X27581374Y-21374699D01*
X27575307Y-21373799D01*
X27569357Y-21372309D01*
X27563582Y-21370242D01*
X27558038Y-21367620D01*
X27552777Y-21364467D01*
X27547850Y-21360813D01*
X27543306Y-21356694D01*
X27539187Y-21352150D01*
X27535533Y-21347223D01*
X27532380Y-21341962D01*
X27529758Y-21336418D01*
X27527691Y-21330643D01*
X27526201Y-21324693D01*
X27525301Y-21318626D01*
X27525000Y-21312500D01*
X27525000Y-21187500D01*
X27525301Y-21181374D01*
X27526201Y-21175307D01*
X27527691Y-21169357D01*
X27529758Y-21163582D01*
X27532380Y-21158038D01*
X27535533Y-21152777D01*
X27539187Y-21147850D01*
X27543306Y-21143306D01*
X27547850Y-21139187D01*
X27552777Y-21135533D01*
X27558038Y-21132380D01*
X27563582Y-21129758D01*
X27569357Y-21127691D01*
X27575307Y-21126201D01*
X27581374Y-21125301D01*
X27587500Y-21125000D01*
X28287500Y-21125000D01*
X28293626Y-21125301D01*
X28293626Y-21125301D01*
G37*
D23*
X27937500Y-21250000D03*
D16*
G36*
X28293626Y-20625301D02*
G01*
X28299693Y-20626201D01*
X28305643Y-20627691D01*
X28311418Y-20629758D01*
X28316962Y-20632380D01*
X28322223Y-20635533D01*
X28327150Y-20639187D01*
X28331694Y-20643306D01*
X28335813Y-20647850D01*
X28339467Y-20652777D01*
X28342620Y-20658038D01*
X28345242Y-20663582D01*
X28347309Y-20669357D01*
X28348799Y-20675307D01*
X28349699Y-20681374D01*
X28350000Y-20687500D01*
X28350000Y-20812500D01*
X28349699Y-20818626D01*
X28348799Y-20824693D01*
X28347309Y-20830643D01*
X28345242Y-20836418D01*
X28342620Y-20841962D01*
X28339467Y-20847223D01*
X28335813Y-20852150D01*
X28331694Y-20856694D01*
X28327150Y-20860813D01*
X28322223Y-20864467D01*
X28316962Y-20867620D01*
X28311418Y-20870242D01*
X28305643Y-20872309D01*
X28299693Y-20873799D01*
X28293626Y-20874699D01*
X28287500Y-20875000D01*
X27587500Y-20875000D01*
X27581374Y-20874699D01*
X27575307Y-20873799D01*
X27569357Y-20872309D01*
X27563582Y-20870242D01*
X27558038Y-20867620D01*
X27552777Y-20864467D01*
X27547850Y-20860813D01*
X27543306Y-20856694D01*
X27539187Y-20852150D01*
X27535533Y-20847223D01*
X27532380Y-20841962D01*
X27529758Y-20836418D01*
X27527691Y-20830643D01*
X27526201Y-20824693D01*
X27525301Y-20818626D01*
X27525000Y-20812500D01*
X27525000Y-20687500D01*
X27525301Y-20681374D01*
X27526201Y-20675307D01*
X27527691Y-20669357D01*
X27529758Y-20663582D01*
X27532380Y-20658038D01*
X27535533Y-20652777D01*
X27539187Y-20647850D01*
X27543306Y-20643306D01*
X27547850Y-20639187D01*
X27552777Y-20635533D01*
X27558038Y-20632380D01*
X27563582Y-20629758D01*
X27569357Y-20627691D01*
X27575307Y-20626201D01*
X27581374Y-20625301D01*
X27587500Y-20625000D01*
X28287500Y-20625000D01*
X28293626Y-20625301D01*
X28293626Y-20625301D01*
G37*
D23*
X27937500Y-20750000D03*
D16*
G36*
X28293626Y-20125301D02*
G01*
X28299693Y-20126201D01*
X28305643Y-20127691D01*
X28311418Y-20129758D01*
X28316962Y-20132380D01*
X28322223Y-20135533D01*
X28327150Y-20139187D01*
X28331694Y-20143306D01*
X28335813Y-20147850D01*
X28339467Y-20152777D01*
X28342620Y-20158038D01*
X28345242Y-20163582D01*
X28347309Y-20169357D01*
X28348799Y-20175307D01*
X28349699Y-20181374D01*
X28350000Y-20187500D01*
X28350000Y-20312500D01*
X28349699Y-20318626D01*
X28348799Y-20324693D01*
X28347309Y-20330643D01*
X28345242Y-20336418D01*
X28342620Y-20341962D01*
X28339467Y-20347223D01*
X28335813Y-20352150D01*
X28331694Y-20356694D01*
X28327150Y-20360813D01*
X28322223Y-20364467D01*
X28316962Y-20367620D01*
X28311418Y-20370242D01*
X28305643Y-20372309D01*
X28299693Y-20373799D01*
X28293626Y-20374699D01*
X28287500Y-20375000D01*
X27587500Y-20375000D01*
X27581374Y-20374699D01*
X27575307Y-20373799D01*
X27569357Y-20372309D01*
X27563582Y-20370242D01*
X27558038Y-20367620D01*
X27552777Y-20364467D01*
X27547850Y-20360813D01*
X27543306Y-20356694D01*
X27539187Y-20352150D01*
X27535533Y-20347223D01*
X27532380Y-20341962D01*
X27529758Y-20336418D01*
X27527691Y-20330643D01*
X27526201Y-20324693D01*
X27525301Y-20318626D01*
X27525000Y-20312500D01*
X27525000Y-20187500D01*
X27525301Y-20181374D01*
X27526201Y-20175307D01*
X27527691Y-20169357D01*
X27529758Y-20163582D01*
X27532380Y-20158038D01*
X27535533Y-20152777D01*
X27539187Y-20147850D01*
X27543306Y-20143306D01*
X27547850Y-20139187D01*
X27552777Y-20135533D01*
X27558038Y-20132380D01*
X27563582Y-20129758D01*
X27569357Y-20127691D01*
X27575307Y-20126201D01*
X27581374Y-20125301D01*
X27587500Y-20125000D01*
X28287500Y-20125000D01*
X28293626Y-20125301D01*
X28293626Y-20125301D01*
G37*
D23*
X27937500Y-20250000D03*
D16*
G36*
X28293626Y-19625301D02*
G01*
X28299693Y-19626201D01*
X28305643Y-19627691D01*
X28311418Y-19629758D01*
X28316962Y-19632380D01*
X28322223Y-19635533D01*
X28327150Y-19639187D01*
X28331694Y-19643306D01*
X28335813Y-19647850D01*
X28339467Y-19652777D01*
X28342620Y-19658038D01*
X28345242Y-19663582D01*
X28347309Y-19669357D01*
X28348799Y-19675307D01*
X28349699Y-19681374D01*
X28350000Y-19687500D01*
X28350000Y-19812500D01*
X28349699Y-19818626D01*
X28348799Y-19824693D01*
X28347309Y-19830643D01*
X28345242Y-19836418D01*
X28342620Y-19841962D01*
X28339467Y-19847223D01*
X28335813Y-19852150D01*
X28331694Y-19856694D01*
X28327150Y-19860813D01*
X28322223Y-19864467D01*
X28316962Y-19867620D01*
X28311418Y-19870242D01*
X28305643Y-19872309D01*
X28299693Y-19873799D01*
X28293626Y-19874699D01*
X28287500Y-19875000D01*
X27587500Y-19875000D01*
X27581374Y-19874699D01*
X27575307Y-19873799D01*
X27569357Y-19872309D01*
X27563582Y-19870242D01*
X27558038Y-19867620D01*
X27552777Y-19864467D01*
X27547850Y-19860813D01*
X27543306Y-19856694D01*
X27539187Y-19852150D01*
X27535533Y-19847223D01*
X27532380Y-19841962D01*
X27529758Y-19836418D01*
X27527691Y-19830643D01*
X27526201Y-19824693D01*
X27525301Y-19818626D01*
X27525000Y-19812500D01*
X27525000Y-19687500D01*
X27525301Y-19681374D01*
X27526201Y-19675307D01*
X27527691Y-19669357D01*
X27529758Y-19663582D01*
X27532380Y-19658038D01*
X27535533Y-19652777D01*
X27539187Y-19647850D01*
X27543306Y-19643306D01*
X27547850Y-19639187D01*
X27552777Y-19635533D01*
X27558038Y-19632380D01*
X27563582Y-19629758D01*
X27569357Y-19627691D01*
X27575307Y-19626201D01*
X27581374Y-19625301D01*
X27587500Y-19625000D01*
X28287500Y-19625000D01*
X28293626Y-19625301D01*
X28293626Y-19625301D01*
G37*
D23*
X27937500Y-19750000D03*
D16*
G36*
X28293626Y-19125301D02*
G01*
X28299693Y-19126201D01*
X28305643Y-19127691D01*
X28311418Y-19129758D01*
X28316962Y-19132380D01*
X28322223Y-19135533D01*
X28327150Y-19139187D01*
X28331694Y-19143306D01*
X28335813Y-19147850D01*
X28339467Y-19152777D01*
X28342620Y-19158038D01*
X28345242Y-19163582D01*
X28347309Y-19169357D01*
X28348799Y-19175307D01*
X28349699Y-19181374D01*
X28350000Y-19187500D01*
X28350000Y-19312500D01*
X28349699Y-19318626D01*
X28348799Y-19324693D01*
X28347309Y-19330643D01*
X28345242Y-19336418D01*
X28342620Y-19341962D01*
X28339467Y-19347223D01*
X28335813Y-19352150D01*
X28331694Y-19356694D01*
X28327150Y-19360813D01*
X28322223Y-19364467D01*
X28316962Y-19367620D01*
X28311418Y-19370242D01*
X28305643Y-19372309D01*
X28299693Y-19373799D01*
X28293626Y-19374699D01*
X28287500Y-19375000D01*
X27587500Y-19375000D01*
X27581374Y-19374699D01*
X27575307Y-19373799D01*
X27569357Y-19372309D01*
X27563582Y-19370242D01*
X27558038Y-19367620D01*
X27552777Y-19364467D01*
X27547850Y-19360813D01*
X27543306Y-19356694D01*
X27539187Y-19352150D01*
X27535533Y-19347223D01*
X27532380Y-19341962D01*
X27529758Y-19336418D01*
X27527691Y-19330643D01*
X27526201Y-19324693D01*
X27525301Y-19318626D01*
X27525000Y-19312500D01*
X27525000Y-19187500D01*
X27525301Y-19181374D01*
X27526201Y-19175307D01*
X27527691Y-19169357D01*
X27529758Y-19163582D01*
X27532380Y-19158038D01*
X27535533Y-19152777D01*
X27539187Y-19147850D01*
X27543306Y-19143306D01*
X27547850Y-19139187D01*
X27552777Y-19135533D01*
X27558038Y-19132380D01*
X27563582Y-19129758D01*
X27569357Y-19127691D01*
X27575307Y-19126201D01*
X27581374Y-19125301D01*
X27587500Y-19125000D01*
X28287500Y-19125000D01*
X28293626Y-19125301D01*
X28293626Y-19125301D01*
G37*
D23*
X27937500Y-19250000D03*
D16*
G36*
X28293626Y-18625301D02*
G01*
X28299693Y-18626201D01*
X28305643Y-18627691D01*
X28311418Y-18629758D01*
X28316962Y-18632380D01*
X28322223Y-18635533D01*
X28327150Y-18639187D01*
X28331694Y-18643306D01*
X28335813Y-18647850D01*
X28339467Y-18652777D01*
X28342620Y-18658038D01*
X28345242Y-18663582D01*
X28347309Y-18669357D01*
X28348799Y-18675307D01*
X28349699Y-18681374D01*
X28350000Y-18687500D01*
X28350000Y-18812500D01*
X28349699Y-18818626D01*
X28348799Y-18824693D01*
X28347309Y-18830643D01*
X28345242Y-18836418D01*
X28342620Y-18841962D01*
X28339467Y-18847223D01*
X28335813Y-18852150D01*
X28331694Y-18856694D01*
X28327150Y-18860813D01*
X28322223Y-18864467D01*
X28316962Y-18867620D01*
X28311418Y-18870242D01*
X28305643Y-18872309D01*
X28299693Y-18873799D01*
X28293626Y-18874699D01*
X28287500Y-18875000D01*
X27587500Y-18875000D01*
X27581374Y-18874699D01*
X27575307Y-18873799D01*
X27569357Y-18872309D01*
X27563582Y-18870242D01*
X27558038Y-18867620D01*
X27552777Y-18864467D01*
X27547850Y-18860813D01*
X27543306Y-18856694D01*
X27539187Y-18852150D01*
X27535533Y-18847223D01*
X27532380Y-18841962D01*
X27529758Y-18836418D01*
X27527691Y-18830643D01*
X27526201Y-18824693D01*
X27525301Y-18818626D01*
X27525000Y-18812500D01*
X27525000Y-18687500D01*
X27525301Y-18681374D01*
X27526201Y-18675307D01*
X27527691Y-18669357D01*
X27529758Y-18663582D01*
X27532380Y-18658038D01*
X27535533Y-18652777D01*
X27539187Y-18647850D01*
X27543306Y-18643306D01*
X27547850Y-18639187D01*
X27552777Y-18635533D01*
X27558038Y-18632380D01*
X27563582Y-18629758D01*
X27569357Y-18627691D01*
X27575307Y-18626201D01*
X27581374Y-18625301D01*
X27587500Y-18625000D01*
X28287500Y-18625000D01*
X28293626Y-18625301D01*
X28293626Y-18625301D01*
G37*
D23*
X27937500Y-18750000D03*
D16*
G36*
X27318626Y-17650301D02*
G01*
X27324693Y-17651201D01*
X27330643Y-17652691D01*
X27336418Y-17654758D01*
X27341962Y-17657380D01*
X27347223Y-17660533D01*
X27352150Y-17664187D01*
X27356694Y-17668306D01*
X27360813Y-17672850D01*
X27364467Y-17677777D01*
X27367620Y-17683038D01*
X27370242Y-17688582D01*
X27372309Y-17694357D01*
X27373799Y-17700307D01*
X27374699Y-17706374D01*
X27375000Y-17712500D01*
X27375000Y-18412500D01*
X27374699Y-18418626D01*
X27373799Y-18424693D01*
X27372309Y-18430643D01*
X27370242Y-18436418D01*
X27367620Y-18441962D01*
X27364467Y-18447223D01*
X27360813Y-18452150D01*
X27356694Y-18456694D01*
X27352150Y-18460813D01*
X27347223Y-18464467D01*
X27341962Y-18467620D01*
X27336418Y-18470242D01*
X27330643Y-18472309D01*
X27324693Y-18473799D01*
X27318626Y-18474699D01*
X27312500Y-18475000D01*
X27187500Y-18475000D01*
X27181374Y-18474699D01*
X27175307Y-18473799D01*
X27169357Y-18472309D01*
X27163582Y-18470242D01*
X27158038Y-18467620D01*
X27152777Y-18464467D01*
X27147850Y-18460813D01*
X27143306Y-18456694D01*
X27139187Y-18452150D01*
X27135533Y-18447223D01*
X27132380Y-18441962D01*
X27129758Y-18436418D01*
X27127691Y-18430643D01*
X27126201Y-18424693D01*
X27125301Y-18418626D01*
X27125000Y-18412500D01*
X27125000Y-17712500D01*
X27125301Y-17706374D01*
X27126201Y-17700307D01*
X27127691Y-17694357D01*
X27129758Y-17688582D01*
X27132380Y-17683038D01*
X27135533Y-17677777D01*
X27139187Y-17672850D01*
X27143306Y-17668306D01*
X27147850Y-17664187D01*
X27152777Y-17660533D01*
X27158038Y-17657380D01*
X27163582Y-17654758D01*
X27169357Y-17652691D01*
X27175307Y-17651201D01*
X27181374Y-17650301D01*
X27187500Y-17650000D01*
X27312500Y-17650000D01*
X27318626Y-17650301D01*
X27318626Y-17650301D01*
G37*
D23*
X27250000Y-18062500D03*
D16*
G36*
X26818626Y-17650301D02*
G01*
X26824693Y-17651201D01*
X26830643Y-17652691D01*
X26836418Y-17654758D01*
X26841962Y-17657380D01*
X26847223Y-17660533D01*
X26852150Y-17664187D01*
X26856694Y-17668306D01*
X26860813Y-17672850D01*
X26864467Y-17677777D01*
X26867620Y-17683038D01*
X26870242Y-17688582D01*
X26872309Y-17694357D01*
X26873799Y-17700307D01*
X26874699Y-17706374D01*
X26875000Y-17712500D01*
X26875000Y-18412500D01*
X26874699Y-18418626D01*
X26873799Y-18424693D01*
X26872309Y-18430643D01*
X26870242Y-18436418D01*
X26867620Y-18441962D01*
X26864467Y-18447223D01*
X26860813Y-18452150D01*
X26856694Y-18456694D01*
X26852150Y-18460813D01*
X26847223Y-18464467D01*
X26841962Y-18467620D01*
X26836418Y-18470242D01*
X26830643Y-18472309D01*
X26824693Y-18473799D01*
X26818626Y-18474699D01*
X26812500Y-18475000D01*
X26687500Y-18475000D01*
X26681374Y-18474699D01*
X26675307Y-18473799D01*
X26669357Y-18472309D01*
X26663582Y-18470242D01*
X26658038Y-18467620D01*
X26652777Y-18464467D01*
X26647850Y-18460813D01*
X26643306Y-18456694D01*
X26639187Y-18452150D01*
X26635533Y-18447223D01*
X26632380Y-18441962D01*
X26629758Y-18436418D01*
X26627691Y-18430643D01*
X26626201Y-18424693D01*
X26625301Y-18418626D01*
X26625000Y-18412500D01*
X26625000Y-17712500D01*
X26625301Y-17706374D01*
X26626201Y-17700307D01*
X26627691Y-17694357D01*
X26629758Y-17688582D01*
X26632380Y-17683038D01*
X26635533Y-17677777D01*
X26639187Y-17672850D01*
X26643306Y-17668306D01*
X26647850Y-17664187D01*
X26652777Y-17660533D01*
X26658038Y-17657380D01*
X26663582Y-17654758D01*
X26669357Y-17652691D01*
X26675307Y-17651201D01*
X26681374Y-17650301D01*
X26687500Y-17650000D01*
X26812500Y-17650000D01*
X26818626Y-17650301D01*
X26818626Y-17650301D01*
G37*
D23*
X26750000Y-18062500D03*
D16*
G36*
X26318626Y-17650301D02*
G01*
X26324693Y-17651201D01*
X26330643Y-17652691D01*
X26336418Y-17654758D01*
X26341962Y-17657380D01*
X26347223Y-17660533D01*
X26352150Y-17664187D01*
X26356694Y-17668306D01*
X26360813Y-17672850D01*
X26364467Y-17677777D01*
X26367620Y-17683038D01*
X26370242Y-17688582D01*
X26372309Y-17694357D01*
X26373799Y-17700307D01*
X26374699Y-17706374D01*
X26375000Y-17712500D01*
X26375000Y-18412500D01*
X26374699Y-18418626D01*
X26373799Y-18424693D01*
X26372309Y-18430643D01*
X26370242Y-18436418D01*
X26367620Y-18441962D01*
X26364467Y-18447223D01*
X26360813Y-18452150D01*
X26356694Y-18456694D01*
X26352150Y-18460813D01*
X26347223Y-18464467D01*
X26341962Y-18467620D01*
X26336418Y-18470242D01*
X26330643Y-18472309D01*
X26324693Y-18473799D01*
X26318626Y-18474699D01*
X26312500Y-18475000D01*
X26187500Y-18475000D01*
X26181374Y-18474699D01*
X26175307Y-18473799D01*
X26169357Y-18472309D01*
X26163582Y-18470242D01*
X26158038Y-18467620D01*
X26152777Y-18464467D01*
X26147850Y-18460813D01*
X26143306Y-18456694D01*
X26139187Y-18452150D01*
X26135533Y-18447223D01*
X26132380Y-18441962D01*
X26129758Y-18436418D01*
X26127691Y-18430643D01*
X26126201Y-18424693D01*
X26125301Y-18418626D01*
X26125000Y-18412500D01*
X26125000Y-17712500D01*
X26125301Y-17706374D01*
X26126201Y-17700307D01*
X26127691Y-17694357D01*
X26129758Y-17688582D01*
X26132380Y-17683038D01*
X26135533Y-17677777D01*
X26139187Y-17672850D01*
X26143306Y-17668306D01*
X26147850Y-17664187D01*
X26152777Y-17660533D01*
X26158038Y-17657380D01*
X26163582Y-17654758D01*
X26169357Y-17652691D01*
X26175307Y-17651201D01*
X26181374Y-17650301D01*
X26187500Y-17650000D01*
X26312500Y-17650000D01*
X26318626Y-17650301D01*
X26318626Y-17650301D01*
G37*
D23*
X26250000Y-18062500D03*
D16*
G36*
X25818626Y-17650301D02*
G01*
X25824693Y-17651201D01*
X25830643Y-17652691D01*
X25836418Y-17654758D01*
X25841962Y-17657380D01*
X25847223Y-17660533D01*
X25852150Y-17664187D01*
X25856694Y-17668306D01*
X25860813Y-17672850D01*
X25864467Y-17677777D01*
X25867620Y-17683038D01*
X25870242Y-17688582D01*
X25872309Y-17694357D01*
X25873799Y-17700307D01*
X25874699Y-17706374D01*
X25875000Y-17712500D01*
X25875000Y-18412500D01*
X25874699Y-18418626D01*
X25873799Y-18424693D01*
X25872309Y-18430643D01*
X25870242Y-18436418D01*
X25867620Y-18441962D01*
X25864467Y-18447223D01*
X25860813Y-18452150D01*
X25856694Y-18456694D01*
X25852150Y-18460813D01*
X25847223Y-18464467D01*
X25841962Y-18467620D01*
X25836418Y-18470242D01*
X25830643Y-18472309D01*
X25824693Y-18473799D01*
X25818626Y-18474699D01*
X25812500Y-18475000D01*
X25687500Y-18475000D01*
X25681374Y-18474699D01*
X25675307Y-18473799D01*
X25669357Y-18472309D01*
X25663582Y-18470242D01*
X25658038Y-18467620D01*
X25652777Y-18464467D01*
X25647850Y-18460813D01*
X25643306Y-18456694D01*
X25639187Y-18452150D01*
X25635533Y-18447223D01*
X25632380Y-18441962D01*
X25629758Y-18436418D01*
X25627691Y-18430643D01*
X25626201Y-18424693D01*
X25625301Y-18418626D01*
X25625000Y-18412500D01*
X25625000Y-17712500D01*
X25625301Y-17706374D01*
X25626201Y-17700307D01*
X25627691Y-17694357D01*
X25629758Y-17688582D01*
X25632380Y-17683038D01*
X25635533Y-17677777D01*
X25639187Y-17672850D01*
X25643306Y-17668306D01*
X25647850Y-17664187D01*
X25652777Y-17660533D01*
X25658038Y-17657380D01*
X25663582Y-17654758D01*
X25669357Y-17652691D01*
X25675307Y-17651201D01*
X25681374Y-17650301D01*
X25687500Y-17650000D01*
X25812500Y-17650000D01*
X25818626Y-17650301D01*
X25818626Y-17650301D01*
G37*
D23*
X25750000Y-18062500D03*
D16*
G36*
X25318626Y-17650301D02*
G01*
X25324693Y-17651201D01*
X25330643Y-17652691D01*
X25336418Y-17654758D01*
X25341962Y-17657380D01*
X25347223Y-17660533D01*
X25352150Y-17664187D01*
X25356694Y-17668306D01*
X25360813Y-17672850D01*
X25364467Y-17677777D01*
X25367620Y-17683038D01*
X25370242Y-17688582D01*
X25372309Y-17694357D01*
X25373799Y-17700307D01*
X25374699Y-17706374D01*
X25375000Y-17712500D01*
X25375000Y-18412500D01*
X25374699Y-18418626D01*
X25373799Y-18424693D01*
X25372309Y-18430643D01*
X25370242Y-18436418D01*
X25367620Y-18441962D01*
X25364467Y-18447223D01*
X25360813Y-18452150D01*
X25356694Y-18456694D01*
X25352150Y-18460813D01*
X25347223Y-18464467D01*
X25341962Y-18467620D01*
X25336418Y-18470242D01*
X25330643Y-18472309D01*
X25324693Y-18473799D01*
X25318626Y-18474699D01*
X25312500Y-18475000D01*
X25187500Y-18475000D01*
X25181374Y-18474699D01*
X25175307Y-18473799D01*
X25169357Y-18472309D01*
X25163582Y-18470242D01*
X25158038Y-18467620D01*
X25152777Y-18464467D01*
X25147850Y-18460813D01*
X25143306Y-18456694D01*
X25139187Y-18452150D01*
X25135533Y-18447223D01*
X25132380Y-18441962D01*
X25129758Y-18436418D01*
X25127691Y-18430643D01*
X25126201Y-18424693D01*
X25125301Y-18418626D01*
X25125000Y-18412500D01*
X25125000Y-17712500D01*
X25125301Y-17706374D01*
X25126201Y-17700307D01*
X25127691Y-17694357D01*
X25129758Y-17688582D01*
X25132380Y-17683038D01*
X25135533Y-17677777D01*
X25139187Y-17672850D01*
X25143306Y-17668306D01*
X25147850Y-17664187D01*
X25152777Y-17660533D01*
X25158038Y-17657380D01*
X25163582Y-17654758D01*
X25169357Y-17652691D01*
X25175307Y-17651201D01*
X25181374Y-17650301D01*
X25187500Y-17650000D01*
X25312500Y-17650000D01*
X25318626Y-17650301D01*
X25318626Y-17650301D01*
G37*
D23*
X25250000Y-18062500D03*
D16*
G36*
X24818626Y-17650301D02*
G01*
X24824693Y-17651201D01*
X24830643Y-17652691D01*
X24836418Y-17654758D01*
X24841962Y-17657380D01*
X24847223Y-17660533D01*
X24852150Y-17664187D01*
X24856694Y-17668306D01*
X24860813Y-17672850D01*
X24864467Y-17677777D01*
X24867620Y-17683038D01*
X24870242Y-17688582D01*
X24872309Y-17694357D01*
X24873799Y-17700307D01*
X24874699Y-17706374D01*
X24875000Y-17712500D01*
X24875000Y-18412500D01*
X24874699Y-18418626D01*
X24873799Y-18424693D01*
X24872309Y-18430643D01*
X24870242Y-18436418D01*
X24867620Y-18441962D01*
X24864467Y-18447223D01*
X24860813Y-18452150D01*
X24856694Y-18456694D01*
X24852150Y-18460813D01*
X24847223Y-18464467D01*
X24841962Y-18467620D01*
X24836418Y-18470242D01*
X24830643Y-18472309D01*
X24824693Y-18473799D01*
X24818626Y-18474699D01*
X24812500Y-18475000D01*
X24687500Y-18475000D01*
X24681374Y-18474699D01*
X24675307Y-18473799D01*
X24669357Y-18472309D01*
X24663582Y-18470242D01*
X24658038Y-18467620D01*
X24652777Y-18464467D01*
X24647850Y-18460813D01*
X24643306Y-18456694D01*
X24639187Y-18452150D01*
X24635533Y-18447223D01*
X24632380Y-18441962D01*
X24629758Y-18436418D01*
X24627691Y-18430643D01*
X24626201Y-18424693D01*
X24625301Y-18418626D01*
X24625000Y-18412500D01*
X24625000Y-17712500D01*
X24625301Y-17706374D01*
X24626201Y-17700307D01*
X24627691Y-17694357D01*
X24629758Y-17688582D01*
X24632380Y-17683038D01*
X24635533Y-17677777D01*
X24639187Y-17672850D01*
X24643306Y-17668306D01*
X24647850Y-17664187D01*
X24652777Y-17660533D01*
X24658038Y-17657380D01*
X24663582Y-17654758D01*
X24669357Y-17652691D01*
X24675307Y-17651201D01*
X24681374Y-17650301D01*
X24687500Y-17650000D01*
X24812500Y-17650000D01*
X24818626Y-17650301D01*
X24818626Y-17650301D01*
G37*
D23*
X24750000Y-18062500D03*
D16*
G36*
X24418626Y-18625301D02*
G01*
X24424693Y-18626201D01*
X24430643Y-18627691D01*
X24436418Y-18629758D01*
X24441962Y-18632380D01*
X24447223Y-18635533D01*
X24452150Y-18639187D01*
X24456694Y-18643306D01*
X24460813Y-18647850D01*
X24464467Y-18652777D01*
X24467620Y-18658038D01*
X24470242Y-18663582D01*
X24472309Y-18669357D01*
X24473799Y-18675307D01*
X24474699Y-18681374D01*
X24475000Y-18687500D01*
X24475000Y-18812500D01*
X24474699Y-18818626D01*
X24473799Y-18824693D01*
X24472309Y-18830643D01*
X24470242Y-18836418D01*
X24467620Y-18841962D01*
X24464467Y-18847223D01*
X24460813Y-18852150D01*
X24456694Y-18856694D01*
X24452150Y-18860813D01*
X24447223Y-18864467D01*
X24441962Y-18867620D01*
X24436418Y-18870242D01*
X24430643Y-18872309D01*
X24424693Y-18873799D01*
X24418626Y-18874699D01*
X24412500Y-18875000D01*
X23712500Y-18875000D01*
X23706374Y-18874699D01*
X23700307Y-18873799D01*
X23694357Y-18872309D01*
X23688582Y-18870242D01*
X23683038Y-18867620D01*
X23677777Y-18864467D01*
X23672850Y-18860813D01*
X23668306Y-18856694D01*
X23664187Y-18852150D01*
X23660533Y-18847223D01*
X23657380Y-18841962D01*
X23654758Y-18836418D01*
X23652691Y-18830643D01*
X23651201Y-18824693D01*
X23650301Y-18818626D01*
X23650000Y-18812500D01*
X23650000Y-18687500D01*
X23650301Y-18681374D01*
X23651201Y-18675307D01*
X23652691Y-18669357D01*
X23654758Y-18663582D01*
X23657380Y-18658038D01*
X23660533Y-18652777D01*
X23664187Y-18647850D01*
X23668306Y-18643306D01*
X23672850Y-18639187D01*
X23677777Y-18635533D01*
X23683038Y-18632380D01*
X23688582Y-18629758D01*
X23694357Y-18627691D01*
X23700307Y-18626201D01*
X23706374Y-18625301D01*
X23712500Y-18625000D01*
X24412500Y-18625000D01*
X24418626Y-18625301D01*
X24418626Y-18625301D01*
G37*
D23*
X24062500Y-18750000D03*
D16*
G36*
X24418626Y-19125301D02*
G01*
X24424693Y-19126201D01*
X24430643Y-19127691D01*
X24436418Y-19129758D01*
X24441962Y-19132380D01*
X24447223Y-19135533D01*
X24452150Y-19139187D01*
X24456694Y-19143306D01*
X24460813Y-19147850D01*
X24464467Y-19152777D01*
X24467620Y-19158038D01*
X24470242Y-19163582D01*
X24472309Y-19169357D01*
X24473799Y-19175307D01*
X24474699Y-19181374D01*
X24475000Y-19187500D01*
X24475000Y-19312500D01*
X24474699Y-19318626D01*
X24473799Y-19324693D01*
X24472309Y-19330643D01*
X24470242Y-19336418D01*
X24467620Y-19341962D01*
X24464467Y-19347223D01*
X24460813Y-19352150D01*
X24456694Y-19356694D01*
X24452150Y-19360813D01*
X24447223Y-19364467D01*
X24441962Y-19367620D01*
X24436418Y-19370242D01*
X24430643Y-19372309D01*
X24424693Y-19373799D01*
X24418626Y-19374699D01*
X24412500Y-19375000D01*
X23712500Y-19375000D01*
X23706374Y-19374699D01*
X23700307Y-19373799D01*
X23694357Y-19372309D01*
X23688582Y-19370242D01*
X23683038Y-19367620D01*
X23677777Y-19364467D01*
X23672850Y-19360813D01*
X23668306Y-19356694D01*
X23664187Y-19352150D01*
X23660533Y-19347223D01*
X23657380Y-19341962D01*
X23654758Y-19336418D01*
X23652691Y-19330643D01*
X23651201Y-19324693D01*
X23650301Y-19318626D01*
X23650000Y-19312500D01*
X23650000Y-19187500D01*
X23650301Y-19181374D01*
X23651201Y-19175307D01*
X23652691Y-19169357D01*
X23654758Y-19163582D01*
X23657380Y-19158038D01*
X23660533Y-19152777D01*
X23664187Y-19147850D01*
X23668306Y-19143306D01*
X23672850Y-19139187D01*
X23677777Y-19135533D01*
X23683038Y-19132380D01*
X23688582Y-19129758D01*
X23694357Y-19127691D01*
X23700307Y-19126201D01*
X23706374Y-19125301D01*
X23712500Y-19125000D01*
X24412500Y-19125000D01*
X24418626Y-19125301D01*
X24418626Y-19125301D01*
G37*
D23*
X24062500Y-19250000D03*
D16*
G36*
X24418626Y-19625301D02*
G01*
X24424693Y-19626201D01*
X24430643Y-19627691D01*
X24436418Y-19629758D01*
X24441962Y-19632380D01*
X24447223Y-19635533D01*
X24452150Y-19639187D01*
X24456694Y-19643306D01*
X24460813Y-19647850D01*
X24464467Y-19652777D01*
X24467620Y-19658038D01*
X24470242Y-19663582D01*
X24472309Y-19669357D01*
X24473799Y-19675307D01*
X24474699Y-19681374D01*
X24475000Y-19687500D01*
X24475000Y-19812500D01*
X24474699Y-19818626D01*
X24473799Y-19824693D01*
X24472309Y-19830643D01*
X24470242Y-19836418D01*
X24467620Y-19841962D01*
X24464467Y-19847223D01*
X24460813Y-19852150D01*
X24456694Y-19856694D01*
X24452150Y-19860813D01*
X24447223Y-19864467D01*
X24441962Y-19867620D01*
X24436418Y-19870242D01*
X24430643Y-19872309D01*
X24424693Y-19873799D01*
X24418626Y-19874699D01*
X24412500Y-19875000D01*
X23712500Y-19875000D01*
X23706374Y-19874699D01*
X23700307Y-19873799D01*
X23694357Y-19872309D01*
X23688582Y-19870242D01*
X23683038Y-19867620D01*
X23677777Y-19864467D01*
X23672850Y-19860813D01*
X23668306Y-19856694D01*
X23664187Y-19852150D01*
X23660533Y-19847223D01*
X23657380Y-19841962D01*
X23654758Y-19836418D01*
X23652691Y-19830643D01*
X23651201Y-19824693D01*
X23650301Y-19818626D01*
X23650000Y-19812500D01*
X23650000Y-19687500D01*
X23650301Y-19681374D01*
X23651201Y-19675307D01*
X23652691Y-19669357D01*
X23654758Y-19663582D01*
X23657380Y-19658038D01*
X23660533Y-19652777D01*
X23664187Y-19647850D01*
X23668306Y-19643306D01*
X23672850Y-19639187D01*
X23677777Y-19635533D01*
X23683038Y-19632380D01*
X23688582Y-19629758D01*
X23694357Y-19627691D01*
X23700307Y-19626201D01*
X23706374Y-19625301D01*
X23712500Y-19625000D01*
X24412500Y-19625000D01*
X24418626Y-19625301D01*
X24418626Y-19625301D01*
G37*
D23*
X24062500Y-19750000D03*
D16*
G36*
X24418626Y-20125301D02*
G01*
X24424693Y-20126201D01*
X24430643Y-20127691D01*
X24436418Y-20129758D01*
X24441962Y-20132380D01*
X24447223Y-20135533D01*
X24452150Y-20139187D01*
X24456694Y-20143306D01*
X24460813Y-20147850D01*
X24464467Y-20152777D01*
X24467620Y-20158038D01*
X24470242Y-20163582D01*
X24472309Y-20169357D01*
X24473799Y-20175307D01*
X24474699Y-20181374D01*
X24475000Y-20187500D01*
X24475000Y-20312500D01*
X24474699Y-20318626D01*
X24473799Y-20324693D01*
X24472309Y-20330643D01*
X24470242Y-20336418D01*
X24467620Y-20341962D01*
X24464467Y-20347223D01*
X24460813Y-20352150D01*
X24456694Y-20356694D01*
X24452150Y-20360813D01*
X24447223Y-20364467D01*
X24441962Y-20367620D01*
X24436418Y-20370242D01*
X24430643Y-20372309D01*
X24424693Y-20373799D01*
X24418626Y-20374699D01*
X24412500Y-20375000D01*
X23712500Y-20375000D01*
X23706374Y-20374699D01*
X23700307Y-20373799D01*
X23694357Y-20372309D01*
X23688582Y-20370242D01*
X23683038Y-20367620D01*
X23677777Y-20364467D01*
X23672850Y-20360813D01*
X23668306Y-20356694D01*
X23664187Y-20352150D01*
X23660533Y-20347223D01*
X23657380Y-20341962D01*
X23654758Y-20336418D01*
X23652691Y-20330643D01*
X23651201Y-20324693D01*
X23650301Y-20318626D01*
X23650000Y-20312500D01*
X23650000Y-20187500D01*
X23650301Y-20181374D01*
X23651201Y-20175307D01*
X23652691Y-20169357D01*
X23654758Y-20163582D01*
X23657380Y-20158038D01*
X23660533Y-20152777D01*
X23664187Y-20147850D01*
X23668306Y-20143306D01*
X23672850Y-20139187D01*
X23677777Y-20135533D01*
X23683038Y-20132380D01*
X23688582Y-20129758D01*
X23694357Y-20127691D01*
X23700307Y-20126201D01*
X23706374Y-20125301D01*
X23712500Y-20125000D01*
X24412500Y-20125000D01*
X24418626Y-20125301D01*
X24418626Y-20125301D01*
G37*
D23*
X24062500Y-20250000D03*
D16*
G36*
X24418626Y-20625301D02*
G01*
X24424693Y-20626201D01*
X24430643Y-20627691D01*
X24436418Y-20629758D01*
X24441962Y-20632380D01*
X24447223Y-20635533D01*
X24452150Y-20639187D01*
X24456694Y-20643306D01*
X24460813Y-20647850D01*
X24464467Y-20652777D01*
X24467620Y-20658038D01*
X24470242Y-20663582D01*
X24472309Y-20669357D01*
X24473799Y-20675307D01*
X24474699Y-20681374D01*
X24475000Y-20687500D01*
X24475000Y-20812500D01*
X24474699Y-20818626D01*
X24473799Y-20824693D01*
X24472309Y-20830643D01*
X24470242Y-20836418D01*
X24467620Y-20841962D01*
X24464467Y-20847223D01*
X24460813Y-20852150D01*
X24456694Y-20856694D01*
X24452150Y-20860813D01*
X24447223Y-20864467D01*
X24441962Y-20867620D01*
X24436418Y-20870242D01*
X24430643Y-20872309D01*
X24424693Y-20873799D01*
X24418626Y-20874699D01*
X24412500Y-20875000D01*
X23712500Y-20875000D01*
X23706374Y-20874699D01*
X23700307Y-20873799D01*
X23694357Y-20872309D01*
X23688582Y-20870242D01*
X23683038Y-20867620D01*
X23677777Y-20864467D01*
X23672850Y-20860813D01*
X23668306Y-20856694D01*
X23664187Y-20852150D01*
X23660533Y-20847223D01*
X23657380Y-20841962D01*
X23654758Y-20836418D01*
X23652691Y-20830643D01*
X23651201Y-20824693D01*
X23650301Y-20818626D01*
X23650000Y-20812500D01*
X23650000Y-20687500D01*
X23650301Y-20681374D01*
X23651201Y-20675307D01*
X23652691Y-20669357D01*
X23654758Y-20663582D01*
X23657380Y-20658038D01*
X23660533Y-20652777D01*
X23664187Y-20647850D01*
X23668306Y-20643306D01*
X23672850Y-20639187D01*
X23677777Y-20635533D01*
X23683038Y-20632380D01*
X23688582Y-20629758D01*
X23694357Y-20627691D01*
X23700307Y-20626201D01*
X23706374Y-20625301D01*
X23712500Y-20625000D01*
X24412500Y-20625000D01*
X24418626Y-20625301D01*
X24418626Y-20625301D01*
G37*
D23*
X24062500Y-20750000D03*
D16*
G36*
X24418626Y-21125301D02*
G01*
X24424693Y-21126201D01*
X24430643Y-21127691D01*
X24436418Y-21129758D01*
X24441962Y-21132380D01*
X24447223Y-21135533D01*
X24452150Y-21139187D01*
X24456694Y-21143306D01*
X24460813Y-21147850D01*
X24464467Y-21152777D01*
X24467620Y-21158038D01*
X24470242Y-21163582D01*
X24472309Y-21169357D01*
X24473799Y-21175307D01*
X24474699Y-21181374D01*
X24475000Y-21187500D01*
X24475000Y-21312500D01*
X24474699Y-21318626D01*
X24473799Y-21324693D01*
X24472309Y-21330643D01*
X24470242Y-21336418D01*
X24467620Y-21341962D01*
X24464467Y-21347223D01*
X24460813Y-21352150D01*
X24456694Y-21356694D01*
X24452150Y-21360813D01*
X24447223Y-21364467D01*
X24441962Y-21367620D01*
X24436418Y-21370242D01*
X24430643Y-21372309D01*
X24424693Y-21373799D01*
X24418626Y-21374699D01*
X24412500Y-21375000D01*
X23712500Y-21375000D01*
X23706374Y-21374699D01*
X23700307Y-21373799D01*
X23694357Y-21372309D01*
X23688582Y-21370242D01*
X23683038Y-21367620D01*
X23677777Y-21364467D01*
X23672850Y-21360813D01*
X23668306Y-21356694D01*
X23664187Y-21352150D01*
X23660533Y-21347223D01*
X23657380Y-21341962D01*
X23654758Y-21336418D01*
X23652691Y-21330643D01*
X23651201Y-21324693D01*
X23650301Y-21318626D01*
X23650000Y-21312500D01*
X23650000Y-21187500D01*
X23650301Y-21181374D01*
X23651201Y-21175307D01*
X23652691Y-21169357D01*
X23654758Y-21163582D01*
X23657380Y-21158038D01*
X23660533Y-21152777D01*
X23664187Y-21147850D01*
X23668306Y-21143306D01*
X23672850Y-21139187D01*
X23677777Y-21135533D01*
X23683038Y-21132380D01*
X23688582Y-21129758D01*
X23694357Y-21127691D01*
X23700307Y-21126201D01*
X23706374Y-21125301D01*
X23712500Y-21125000D01*
X24412500Y-21125000D01*
X24418626Y-21125301D01*
X24418626Y-21125301D01*
G37*
D23*
X24062500Y-21250000D03*
D16*
G36*
X19314703Y-21605722D02*
G01*
X19329264Y-21607882D01*
X19343543Y-21611459D01*
X19357403Y-21616418D01*
X19370710Y-21622712D01*
X19383336Y-21630280D01*
X19395159Y-21639048D01*
X19406066Y-21648934D01*
X19415952Y-21659841D01*
X19424720Y-21671664D01*
X19432288Y-21684290D01*
X19438582Y-21697597D01*
X19443541Y-21711457D01*
X19447118Y-21725736D01*
X19449278Y-21740297D01*
X19450000Y-21755000D01*
X19450000Y-22055000D01*
X19449278Y-22069703D01*
X19447118Y-22084264D01*
X19443541Y-22098543D01*
X19438582Y-22112403D01*
X19432288Y-22125710D01*
X19424720Y-22138336D01*
X19415952Y-22150159D01*
X19406066Y-22161066D01*
X19395159Y-22170952D01*
X19383336Y-22179720D01*
X19370710Y-22187288D01*
X19357403Y-22193582D01*
X19343543Y-22198541D01*
X19329264Y-22202118D01*
X19314703Y-22204278D01*
X19300000Y-22205000D01*
X17650000Y-22205000D01*
X17635297Y-22204278D01*
X17620736Y-22202118D01*
X17606457Y-22198541D01*
X17592597Y-22193582D01*
X17579290Y-22187288D01*
X17566664Y-22179720D01*
X17554841Y-22170952D01*
X17543934Y-22161066D01*
X17534048Y-22150159D01*
X17525280Y-22138336D01*
X17517712Y-22125710D01*
X17511418Y-22112403D01*
X17506459Y-22098543D01*
X17502882Y-22084264D01*
X17500722Y-22069703D01*
X17500000Y-22055000D01*
X17500000Y-21755000D01*
X17500722Y-21740297D01*
X17502882Y-21725736D01*
X17506459Y-21711457D01*
X17511418Y-21697597D01*
X17517712Y-21684290D01*
X17525280Y-21671664D01*
X17534048Y-21659841D01*
X17543934Y-21648934D01*
X17554841Y-21639048D01*
X17566664Y-21630280D01*
X17579290Y-21622712D01*
X17592597Y-21616418D01*
X17606457Y-21611459D01*
X17620736Y-21607882D01*
X17635297Y-21605722D01*
X17650000Y-21605000D01*
X19300000Y-21605000D01*
X19314703Y-21605722D01*
X19314703Y-21605722D01*
G37*
D24*
X18475000Y-21905000D03*
D16*
G36*
X19314703Y-20335722D02*
G01*
X19329264Y-20337882D01*
X19343543Y-20341459D01*
X19357403Y-20346418D01*
X19370710Y-20352712D01*
X19383336Y-20360280D01*
X19395159Y-20369048D01*
X19406066Y-20378934D01*
X19415952Y-20389841D01*
X19424720Y-20401664D01*
X19432288Y-20414290D01*
X19438582Y-20427597D01*
X19443541Y-20441457D01*
X19447118Y-20455736D01*
X19449278Y-20470297D01*
X19450000Y-20485000D01*
X19450000Y-20785000D01*
X19449278Y-20799703D01*
X19447118Y-20814264D01*
X19443541Y-20828543D01*
X19438582Y-20842403D01*
X19432288Y-20855710D01*
X19424720Y-20868336D01*
X19415952Y-20880159D01*
X19406066Y-20891066D01*
X19395159Y-20900952D01*
X19383336Y-20909720D01*
X19370710Y-20917288D01*
X19357403Y-20923582D01*
X19343543Y-20928541D01*
X19329264Y-20932118D01*
X19314703Y-20934278D01*
X19300000Y-20935000D01*
X17650000Y-20935000D01*
X17635297Y-20934278D01*
X17620736Y-20932118D01*
X17606457Y-20928541D01*
X17592597Y-20923582D01*
X17579290Y-20917288D01*
X17566664Y-20909720D01*
X17554841Y-20900952D01*
X17543934Y-20891066D01*
X17534048Y-20880159D01*
X17525280Y-20868336D01*
X17517712Y-20855710D01*
X17511418Y-20842403D01*
X17506459Y-20828543D01*
X17502882Y-20814264D01*
X17500722Y-20799703D01*
X17500000Y-20785000D01*
X17500000Y-20485000D01*
X17500722Y-20470297D01*
X17502882Y-20455736D01*
X17506459Y-20441457D01*
X17511418Y-20427597D01*
X17517712Y-20414290D01*
X17525280Y-20401664D01*
X17534048Y-20389841D01*
X17543934Y-20378934D01*
X17554841Y-20369048D01*
X17566664Y-20360280D01*
X17579290Y-20352712D01*
X17592597Y-20346418D01*
X17606457Y-20341459D01*
X17620736Y-20337882D01*
X17635297Y-20335722D01*
X17650000Y-20335000D01*
X19300000Y-20335000D01*
X19314703Y-20335722D01*
X19314703Y-20335722D01*
G37*
D24*
X18475000Y-20635000D03*
D16*
G36*
X19314703Y-19065722D02*
G01*
X19329264Y-19067882D01*
X19343543Y-19071459D01*
X19357403Y-19076418D01*
X19370710Y-19082712D01*
X19383336Y-19090280D01*
X19395159Y-19099048D01*
X19406066Y-19108934D01*
X19415952Y-19119841D01*
X19424720Y-19131664D01*
X19432288Y-19144290D01*
X19438582Y-19157597D01*
X19443541Y-19171457D01*
X19447118Y-19185736D01*
X19449278Y-19200297D01*
X19450000Y-19215000D01*
X19450000Y-19515000D01*
X19449278Y-19529703D01*
X19447118Y-19544264D01*
X19443541Y-19558543D01*
X19438582Y-19572403D01*
X19432288Y-19585710D01*
X19424720Y-19598336D01*
X19415952Y-19610159D01*
X19406066Y-19621066D01*
X19395159Y-19630952D01*
X19383336Y-19639720D01*
X19370710Y-19647288D01*
X19357403Y-19653582D01*
X19343543Y-19658541D01*
X19329264Y-19662118D01*
X19314703Y-19664278D01*
X19300000Y-19665000D01*
X17650000Y-19665000D01*
X17635297Y-19664278D01*
X17620736Y-19662118D01*
X17606457Y-19658541D01*
X17592597Y-19653582D01*
X17579290Y-19647288D01*
X17566664Y-19639720D01*
X17554841Y-19630952D01*
X17543934Y-19621066D01*
X17534048Y-19610159D01*
X17525280Y-19598336D01*
X17517712Y-19585710D01*
X17511418Y-19572403D01*
X17506459Y-19558543D01*
X17502882Y-19544264D01*
X17500722Y-19529703D01*
X17500000Y-19515000D01*
X17500000Y-19215000D01*
X17500722Y-19200297D01*
X17502882Y-19185736D01*
X17506459Y-19171457D01*
X17511418Y-19157597D01*
X17517712Y-19144290D01*
X17525280Y-19131664D01*
X17534048Y-19119841D01*
X17543934Y-19108934D01*
X17554841Y-19099048D01*
X17566664Y-19090280D01*
X17579290Y-19082712D01*
X17592597Y-19076418D01*
X17606457Y-19071459D01*
X17620736Y-19067882D01*
X17635297Y-19065722D01*
X17650000Y-19065000D01*
X19300000Y-19065000D01*
X19314703Y-19065722D01*
X19314703Y-19065722D01*
G37*
D24*
X18475000Y-19365000D03*
D16*
G36*
X19314703Y-17795722D02*
G01*
X19329264Y-17797882D01*
X19343543Y-17801459D01*
X19357403Y-17806418D01*
X19370710Y-17812712D01*
X19383336Y-17820280D01*
X19395159Y-17829048D01*
X19406066Y-17838934D01*
X19415952Y-17849841D01*
X19424720Y-17861664D01*
X19432288Y-17874290D01*
X19438582Y-17887597D01*
X19443541Y-17901457D01*
X19447118Y-17915736D01*
X19449278Y-17930297D01*
X19450000Y-17945000D01*
X19450000Y-18245000D01*
X19449278Y-18259703D01*
X19447118Y-18274264D01*
X19443541Y-18288543D01*
X19438582Y-18302403D01*
X19432288Y-18315710D01*
X19424720Y-18328336D01*
X19415952Y-18340159D01*
X19406066Y-18351066D01*
X19395159Y-18360952D01*
X19383336Y-18369720D01*
X19370710Y-18377288D01*
X19357403Y-18383582D01*
X19343543Y-18388541D01*
X19329264Y-18392118D01*
X19314703Y-18394278D01*
X19300000Y-18395000D01*
X17650000Y-18395000D01*
X17635297Y-18394278D01*
X17620736Y-18392118D01*
X17606457Y-18388541D01*
X17592597Y-18383582D01*
X17579290Y-18377288D01*
X17566664Y-18369720D01*
X17554841Y-18360952D01*
X17543934Y-18351066D01*
X17534048Y-18340159D01*
X17525280Y-18328336D01*
X17517712Y-18315710D01*
X17511418Y-18302403D01*
X17506459Y-18288543D01*
X17502882Y-18274264D01*
X17500722Y-18259703D01*
X17500000Y-18245000D01*
X17500000Y-17945000D01*
X17500722Y-17930297D01*
X17502882Y-17915736D01*
X17506459Y-17901457D01*
X17511418Y-17887597D01*
X17517712Y-17874290D01*
X17525280Y-17861664D01*
X17534048Y-17849841D01*
X17543934Y-17838934D01*
X17554841Y-17829048D01*
X17566664Y-17820280D01*
X17579290Y-17812712D01*
X17592597Y-17806418D01*
X17606457Y-17801459D01*
X17620736Y-17797882D01*
X17635297Y-17795722D01*
X17650000Y-17795000D01*
X19300000Y-17795000D01*
X19314703Y-17795722D01*
X19314703Y-17795722D01*
G37*
D24*
X18475000Y-18095000D03*
D16*
G36*
X14364703Y-17795722D02*
G01*
X14379264Y-17797882D01*
X14393543Y-17801459D01*
X14407403Y-17806418D01*
X14420710Y-17812712D01*
X14433336Y-17820280D01*
X14445159Y-17829048D01*
X14456066Y-17838934D01*
X14465952Y-17849841D01*
X14474720Y-17861664D01*
X14482288Y-17874290D01*
X14488582Y-17887597D01*
X14493541Y-17901457D01*
X14497118Y-17915736D01*
X14499278Y-17930297D01*
X14500000Y-17945000D01*
X14500000Y-18245000D01*
X14499278Y-18259703D01*
X14497118Y-18274264D01*
X14493541Y-18288543D01*
X14488582Y-18302403D01*
X14482288Y-18315710D01*
X14474720Y-18328336D01*
X14465952Y-18340159D01*
X14456066Y-18351066D01*
X14445159Y-18360952D01*
X14433336Y-18369720D01*
X14420710Y-18377288D01*
X14407403Y-18383582D01*
X14393543Y-18388541D01*
X14379264Y-18392118D01*
X14364703Y-18394278D01*
X14350000Y-18395000D01*
X12700000Y-18395000D01*
X12685297Y-18394278D01*
X12670736Y-18392118D01*
X12656457Y-18388541D01*
X12642597Y-18383582D01*
X12629290Y-18377288D01*
X12616664Y-18369720D01*
X12604841Y-18360952D01*
X12593934Y-18351066D01*
X12584048Y-18340159D01*
X12575280Y-18328336D01*
X12567712Y-18315710D01*
X12561418Y-18302403D01*
X12556459Y-18288543D01*
X12552882Y-18274264D01*
X12550722Y-18259703D01*
X12550000Y-18245000D01*
X12550000Y-17945000D01*
X12550722Y-17930297D01*
X12552882Y-17915736D01*
X12556459Y-17901457D01*
X12561418Y-17887597D01*
X12567712Y-17874290D01*
X12575280Y-17861664D01*
X12584048Y-17849841D01*
X12593934Y-17838934D01*
X12604841Y-17829048D01*
X12616664Y-17820280D01*
X12629290Y-17812712D01*
X12642597Y-17806418D01*
X12656457Y-17801459D01*
X12670736Y-17797882D01*
X12685297Y-17795722D01*
X12700000Y-17795000D01*
X14350000Y-17795000D01*
X14364703Y-17795722D01*
X14364703Y-17795722D01*
G37*
D24*
X13525000Y-18095000D03*
D16*
G36*
X14364703Y-19065722D02*
G01*
X14379264Y-19067882D01*
X14393543Y-19071459D01*
X14407403Y-19076418D01*
X14420710Y-19082712D01*
X14433336Y-19090280D01*
X14445159Y-19099048D01*
X14456066Y-19108934D01*
X14465952Y-19119841D01*
X14474720Y-19131664D01*
X14482288Y-19144290D01*
X14488582Y-19157597D01*
X14493541Y-19171457D01*
X14497118Y-19185736D01*
X14499278Y-19200297D01*
X14500000Y-19215000D01*
X14500000Y-19515000D01*
X14499278Y-19529703D01*
X14497118Y-19544264D01*
X14493541Y-19558543D01*
X14488582Y-19572403D01*
X14482288Y-19585710D01*
X14474720Y-19598336D01*
X14465952Y-19610159D01*
X14456066Y-19621066D01*
X14445159Y-19630952D01*
X14433336Y-19639720D01*
X14420710Y-19647288D01*
X14407403Y-19653582D01*
X14393543Y-19658541D01*
X14379264Y-19662118D01*
X14364703Y-19664278D01*
X14350000Y-19665000D01*
X12700000Y-19665000D01*
X12685297Y-19664278D01*
X12670736Y-19662118D01*
X12656457Y-19658541D01*
X12642597Y-19653582D01*
X12629290Y-19647288D01*
X12616664Y-19639720D01*
X12604841Y-19630952D01*
X12593934Y-19621066D01*
X12584048Y-19610159D01*
X12575280Y-19598336D01*
X12567712Y-19585710D01*
X12561418Y-19572403D01*
X12556459Y-19558543D01*
X12552882Y-19544264D01*
X12550722Y-19529703D01*
X12550000Y-19515000D01*
X12550000Y-19215000D01*
X12550722Y-19200297D01*
X12552882Y-19185736D01*
X12556459Y-19171457D01*
X12561418Y-19157597D01*
X12567712Y-19144290D01*
X12575280Y-19131664D01*
X12584048Y-19119841D01*
X12593934Y-19108934D01*
X12604841Y-19099048D01*
X12616664Y-19090280D01*
X12629290Y-19082712D01*
X12642597Y-19076418D01*
X12656457Y-19071459D01*
X12670736Y-19067882D01*
X12685297Y-19065722D01*
X12700000Y-19065000D01*
X14350000Y-19065000D01*
X14364703Y-19065722D01*
X14364703Y-19065722D01*
G37*
D24*
X13525000Y-19365000D03*
D16*
G36*
X14364703Y-20335722D02*
G01*
X14379264Y-20337882D01*
X14393543Y-20341459D01*
X14407403Y-20346418D01*
X14420710Y-20352712D01*
X14433336Y-20360280D01*
X14445159Y-20369048D01*
X14456066Y-20378934D01*
X14465952Y-20389841D01*
X14474720Y-20401664D01*
X14482288Y-20414290D01*
X14488582Y-20427597D01*
X14493541Y-20441457D01*
X14497118Y-20455736D01*
X14499278Y-20470297D01*
X14500000Y-20485000D01*
X14500000Y-20785000D01*
X14499278Y-20799703D01*
X14497118Y-20814264D01*
X14493541Y-20828543D01*
X14488582Y-20842403D01*
X14482288Y-20855710D01*
X14474720Y-20868336D01*
X14465952Y-20880159D01*
X14456066Y-20891066D01*
X14445159Y-20900952D01*
X14433336Y-20909720D01*
X14420710Y-20917288D01*
X14407403Y-20923582D01*
X14393543Y-20928541D01*
X14379264Y-20932118D01*
X14364703Y-20934278D01*
X14350000Y-20935000D01*
X12700000Y-20935000D01*
X12685297Y-20934278D01*
X12670736Y-20932118D01*
X12656457Y-20928541D01*
X12642597Y-20923582D01*
X12629290Y-20917288D01*
X12616664Y-20909720D01*
X12604841Y-20900952D01*
X12593934Y-20891066D01*
X12584048Y-20880159D01*
X12575280Y-20868336D01*
X12567712Y-20855710D01*
X12561418Y-20842403D01*
X12556459Y-20828543D01*
X12552882Y-20814264D01*
X12550722Y-20799703D01*
X12550000Y-20785000D01*
X12550000Y-20485000D01*
X12550722Y-20470297D01*
X12552882Y-20455736D01*
X12556459Y-20441457D01*
X12561418Y-20427597D01*
X12567712Y-20414290D01*
X12575280Y-20401664D01*
X12584048Y-20389841D01*
X12593934Y-20378934D01*
X12604841Y-20369048D01*
X12616664Y-20360280D01*
X12629290Y-20352712D01*
X12642597Y-20346418D01*
X12656457Y-20341459D01*
X12670736Y-20337882D01*
X12685297Y-20335722D01*
X12700000Y-20335000D01*
X14350000Y-20335000D01*
X14364703Y-20335722D01*
X14364703Y-20335722D01*
G37*
D24*
X13525000Y-20635000D03*
D16*
G36*
X14364703Y-21605722D02*
G01*
X14379264Y-21607882D01*
X14393543Y-21611459D01*
X14407403Y-21616418D01*
X14420710Y-21622712D01*
X14433336Y-21630280D01*
X14445159Y-21639048D01*
X14456066Y-21648934D01*
X14465952Y-21659841D01*
X14474720Y-21671664D01*
X14482288Y-21684290D01*
X14488582Y-21697597D01*
X14493541Y-21711457D01*
X14497118Y-21725736D01*
X14499278Y-21740297D01*
X14500000Y-21755000D01*
X14500000Y-22055000D01*
X14499278Y-22069703D01*
X14497118Y-22084264D01*
X14493541Y-22098543D01*
X14488582Y-22112403D01*
X14482288Y-22125710D01*
X14474720Y-22138336D01*
X14465952Y-22150159D01*
X14456066Y-22161066D01*
X14445159Y-22170952D01*
X14433336Y-22179720D01*
X14420710Y-22187288D01*
X14407403Y-22193582D01*
X14393543Y-22198541D01*
X14379264Y-22202118D01*
X14364703Y-22204278D01*
X14350000Y-22205000D01*
X12700000Y-22205000D01*
X12685297Y-22204278D01*
X12670736Y-22202118D01*
X12656457Y-22198541D01*
X12642597Y-22193582D01*
X12629290Y-22187288D01*
X12616664Y-22179720D01*
X12604841Y-22170952D01*
X12593934Y-22161066D01*
X12584048Y-22150159D01*
X12575280Y-22138336D01*
X12567712Y-22125710D01*
X12561418Y-22112403D01*
X12556459Y-22098543D01*
X12552882Y-22084264D01*
X12550722Y-22069703D01*
X12550000Y-22055000D01*
X12550000Y-21755000D01*
X12550722Y-21740297D01*
X12552882Y-21725736D01*
X12556459Y-21711457D01*
X12561418Y-21697597D01*
X12567712Y-21684290D01*
X12575280Y-21671664D01*
X12584048Y-21659841D01*
X12593934Y-21648934D01*
X12604841Y-21639048D01*
X12616664Y-21630280D01*
X12629290Y-21622712D01*
X12642597Y-21616418D01*
X12656457Y-21611459D01*
X12670736Y-21607882D01*
X12685297Y-21605722D01*
X12700000Y-21605000D01*
X14350000Y-21605000D01*
X14364703Y-21605722D01*
X14364703Y-21605722D01*
G37*
D24*
X13525000Y-21905000D03*
D25*
X24400000Y-33325000D03*
D26*
X21550000Y-33450000D03*
X30450000Y-33450000D03*
X21550000Y-38900000D03*
X30450000Y-38900000D03*
D25*
X25200000Y-33325000D03*
X26000000Y-33325000D03*
X26800000Y-33325000D03*
X27600000Y-33325000D03*
M02*
