G04 #@! TF.GenerationSoftware,KiCad,Pcbnew,5.1.4-e60b266~84~ubuntu18.04.1*
G04 #@! TF.CreationDate,2019-11-15T21:22:24-08:00*
G04 #@! TF.ProjectId,VehicleAccessoryControllerTestBoard,56656869-636c-4654-9163-636573736f72,0.0*
G04 #@! TF.SameCoordinates,PX7829b80PY4c4b400*
G04 #@! TF.FileFunction,Soldermask,Top*
G04 #@! TF.FilePolarity,Negative*
%FSLAX46Y46*%
G04 Gerber Fmt 4.6, Leading zero omitted, Abs format (unit mm)*
G04 Created by KiCad (PCBNEW 5.1.4-e60b266~84~ubuntu18.04.1) date 2019-11-15 21:22:24*
%MOMM*%
%LPD*%
G04 APERTURE LIST*
%ADD10C,0.508000*%
%ADD11C,0.100000*%
G04 APERTURE END LIST*
D10*
X16046000Y-16000000D02*
G75*
G02X16300000Y-15746000I254000J0D01*
G01*
X18890000Y-28346000D02*
G75*
G02X19144000Y-28600000I0J-254000D01*
G01*
X17254000Y-11500000D02*
G75*
G02X17000000Y-11754000I-254000J0D01*
G01*
X17000000Y-6246000D02*
G75*
G02X17254000Y-6500000I0J-254000D01*
G01*
X36300000Y-8246000D02*
G75*
G02X36554000Y-8500000I0J-254000D01*
G01*
X24746000Y-8500000D02*
G75*
G02X25000000Y-8246000I254000J0D01*
G01*
X36554000Y-8500000D02*
X36555000Y-42000000D01*
X25000000Y-8245000D02*
X36300000Y-8245000D01*
X24745000Y-15745000D02*
X24745000Y-8500000D01*
X16300000Y-15745000D02*
X24745000Y-15745000D01*
X16045000Y-28345000D02*
X16046000Y-16000000D01*
X19145000Y-28600000D02*
X19145000Y-42000000D01*
X9255000Y-28345000D02*
X18890000Y-28345000D01*
X9255000Y-11755000D02*
X9255000Y-28345000D01*
X17000000Y-11755000D02*
X9255000Y-11755000D01*
X17254000Y-6500000D02*
X17254000Y-11500000D01*
X9255000Y-6245000D02*
X17000000Y-6245000D01*
X9255000Y2000000D02*
X9255000Y-6245000D01*
D11*
G36*
X51227290Y-39025619D02*
G01*
X51291689Y-39038429D01*
X51473678Y-39113811D01*
X51637463Y-39223249D01*
X51776751Y-39362537D01*
X51886189Y-39526322D01*
X51961571Y-39708311D01*
X52000000Y-39901509D01*
X52000000Y-40098491D01*
X51961571Y-40291689D01*
X51886189Y-40473678D01*
X51776751Y-40637463D01*
X51637463Y-40776751D01*
X51473678Y-40886189D01*
X51291689Y-40961571D01*
X51227290Y-40974381D01*
X51098493Y-41000000D01*
X50901507Y-41000000D01*
X50772710Y-40974381D01*
X50708311Y-40961571D01*
X50526322Y-40886189D01*
X50362537Y-40776751D01*
X50223249Y-40637463D01*
X50113811Y-40473678D01*
X50038429Y-40291689D01*
X50000000Y-40098491D01*
X50000000Y-39901509D01*
X50038429Y-39708311D01*
X50113811Y-39526322D01*
X50223249Y-39362537D01*
X50362537Y-39223249D01*
X50526322Y-39113811D01*
X50708311Y-39038429D01*
X50772710Y-39025619D01*
X50901507Y-39000000D01*
X51098493Y-39000000D01*
X51227290Y-39025619D01*
X51227290Y-39025619D01*
G37*
G36*
X31550000Y-40250000D02*
G01*
X29350000Y-40250000D01*
X29350000Y-37550000D01*
X31550000Y-37550000D01*
X31550000Y-40250000D01*
X31550000Y-40250000D01*
G37*
G36*
X22650000Y-40250000D02*
G01*
X20450000Y-40250000D01*
X20450000Y-37550000D01*
X22650000Y-37550000D01*
X22650000Y-40250000D01*
X22650000Y-40250000D01*
G37*
G36*
X33551000Y-39151000D02*
G01*
X32449000Y-39151000D01*
X32449000Y-38349000D01*
X33551000Y-38349000D01*
X33551000Y-39151000D01*
X33551000Y-39151000D01*
G37*
G36*
X18551000Y-38651000D02*
G01*
X17449000Y-38651000D01*
X17449000Y-37349000D01*
X18551000Y-37349000D01*
X18551000Y-38651000D01*
X18551000Y-38651000D01*
G37*
G36*
X16551000Y-38651000D02*
G01*
X15449000Y-38651000D01*
X15449000Y-37349000D01*
X16551000Y-37349000D01*
X16551000Y-38651000D01*
X16551000Y-38651000D01*
G37*
G36*
X14151000Y-38551000D02*
G01*
X13349000Y-38551000D01*
X13349000Y-37449000D01*
X14151000Y-37449000D01*
X14151000Y-38551000D01*
X14151000Y-38551000D01*
G37*
G36*
X12651000Y-38551000D02*
G01*
X11849000Y-38551000D01*
X11849000Y-37449000D01*
X12651000Y-37449000D01*
X12651000Y-38551000D01*
X12651000Y-38551000D01*
G37*
G36*
X3211981Y-36577468D02*
G01*
X3329105Y-36625983D01*
X3389502Y-36651000D01*
X3394151Y-36652926D01*
X3558100Y-36762473D01*
X3697527Y-36901900D01*
X3770165Y-37010611D01*
X3807075Y-37065851D01*
X3882532Y-37248020D01*
X3921000Y-37441409D01*
X3921000Y-37638591D01*
X3882532Y-37831981D01*
X3807074Y-38014151D01*
X3697527Y-38178100D01*
X3558100Y-38317527D01*
X3394151Y-38427074D01*
X3211981Y-38502532D01*
X3115285Y-38521766D01*
X3018591Y-38541000D01*
X2821409Y-38541000D01*
X2724715Y-38521766D01*
X2628019Y-38502532D01*
X2445849Y-38427074D01*
X2281900Y-38317527D01*
X2142473Y-38178100D01*
X2032926Y-38014151D01*
X1957468Y-37831981D01*
X1919000Y-37638591D01*
X1919000Y-37441409D01*
X1957468Y-37248020D01*
X2032925Y-37065851D01*
X2069835Y-37010611D01*
X2142473Y-36901900D01*
X2281900Y-36762473D01*
X2445849Y-36652926D01*
X2450499Y-36651000D01*
X2510895Y-36625983D01*
X2628019Y-36577468D01*
X2821409Y-36539000D01*
X3018591Y-36539000D01*
X3211981Y-36577468D01*
X3211981Y-36577468D01*
G37*
G36*
X8291981Y-36577468D02*
G01*
X8409105Y-36625983D01*
X8469502Y-36651000D01*
X8474151Y-36652926D01*
X8638100Y-36762473D01*
X8777527Y-36901900D01*
X8850165Y-37010611D01*
X8887075Y-37065851D01*
X8962532Y-37248020D01*
X9001000Y-37441409D01*
X9001000Y-37638591D01*
X8962532Y-37831981D01*
X8887074Y-38014151D01*
X8777527Y-38178100D01*
X8638100Y-38317527D01*
X8474151Y-38427074D01*
X8291981Y-38502532D01*
X8195285Y-38521766D01*
X8098591Y-38541000D01*
X7901409Y-38541000D01*
X7804715Y-38521766D01*
X7708019Y-38502532D01*
X7525849Y-38427074D01*
X7361900Y-38317527D01*
X7222473Y-38178100D01*
X7112926Y-38014151D01*
X7037468Y-37831981D01*
X6999000Y-37638591D01*
X6999000Y-37441409D01*
X7037468Y-37248020D01*
X7112925Y-37065851D01*
X7149835Y-37010611D01*
X7222473Y-36901900D01*
X7361900Y-36762473D01*
X7525849Y-36652926D01*
X7530499Y-36651000D01*
X7590895Y-36625983D01*
X7708019Y-36577468D01*
X7901409Y-36539000D01*
X8098591Y-36539000D01*
X8291981Y-36577468D01*
X8291981Y-36577468D01*
G37*
G36*
X33551000Y-37651000D02*
G01*
X32449000Y-37651000D01*
X32449000Y-36849000D01*
X33551000Y-36849000D01*
X33551000Y-37651000D01*
X33551000Y-37651000D01*
G37*
G36*
X49496564Y-34989389D02*
G01*
X49687833Y-35068615D01*
X49687835Y-35068616D01*
X49859973Y-35183635D01*
X50006365Y-35330027D01*
X50102666Y-35474151D01*
X50121385Y-35502167D01*
X50200611Y-35693436D01*
X50241000Y-35896484D01*
X50241000Y-36103516D01*
X50200611Y-36306564D01*
X50199866Y-36308362D01*
X50121384Y-36497835D01*
X50006365Y-36669973D01*
X49859973Y-36816365D01*
X49687835Y-36931384D01*
X49687834Y-36931385D01*
X49687833Y-36931385D01*
X49496564Y-37010611D01*
X49293516Y-37051000D01*
X49086484Y-37051000D01*
X48883436Y-37010611D01*
X48692167Y-36931385D01*
X48692166Y-36931385D01*
X48692165Y-36931384D01*
X48520027Y-36816365D01*
X48373635Y-36669973D01*
X48258616Y-36497835D01*
X48180134Y-36308362D01*
X48179389Y-36306564D01*
X48139000Y-36103516D01*
X48139000Y-35896484D01*
X48179389Y-35693436D01*
X48258615Y-35502167D01*
X48277335Y-35474151D01*
X48373635Y-35330027D01*
X48520027Y-35183635D01*
X48692165Y-35068616D01*
X48692167Y-35068615D01*
X48883436Y-34989389D01*
X49086484Y-34949000D01*
X49293516Y-34949000D01*
X49496564Y-34989389D01*
X49496564Y-34989389D01*
G37*
G36*
X23989890Y-35374017D02*
G01*
X24108364Y-35423091D01*
X24214988Y-35494335D01*
X24305665Y-35585012D01*
X24341137Y-35638099D01*
X24376910Y-35691638D01*
X24425983Y-35810110D01*
X24451000Y-35935881D01*
X24451000Y-36064119D01*
X24425983Y-36189890D01*
X24376909Y-36308364D01*
X24305665Y-36414988D01*
X24214988Y-36505665D01*
X24108364Y-36576909D01*
X24108363Y-36576910D01*
X24108362Y-36576910D01*
X23989890Y-36625983D01*
X23864119Y-36651000D01*
X23735881Y-36651000D01*
X23610110Y-36625983D01*
X23491638Y-36576910D01*
X23491637Y-36576910D01*
X23491636Y-36576909D01*
X23385012Y-36505665D01*
X23294335Y-36414988D01*
X23223091Y-36308364D01*
X23174017Y-36189890D01*
X23149000Y-36064119D01*
X23149000Y-35935881D01*
X23174017Y-35810110D01*
X23223090Y-35691638D01*
X23258864Y-35638099D01*
X23294335Y-35585012D01*
X23385012Y-35494335D01*
X23491636Y-35423091D01*
X23610110Y-35374017D01*
X23735881Y-35349000D01*
X23864119Y-35349000D01*
X23989890Y-35374017D01*
X23989890Y-35374017D01*
G37*
G36*
X28389890Y-35374017D02*
G01*
X28508364Y-35423091D01*
X28614988Y-35494335D01*
X28705665Y-35585012D01*
X28741137Y-35638099D01*
X28776910Y-35691638D01*
X28825983Y-35810110D01*
X28851000Y-35935881D01*
X28851000Y-36064119D01*
X28825983Y-36189890D01*
X28776909Y-36308364D01*
X28705665Y-36414988D01*
X28614988Y-36505665D01*
X28508364Y-36576909D01*
X28508363Y-36576910D01*
X28508362Y-36576910D01*
X28389890Y-36625983D01*
X28264119Y-36651000D01*
X28135881Y-36651000D01*
X28010110Y-36625983D01*
X27891638Y-36576910D01*
X27891637Y-36576910D01*
X27891636Y-36576909D01*
X27785012Y-36505665D01*
X27694335Y-36414988D01*
X27623091Y-36308364D01*
X27574017Y-36189890D01*
X27549000Y-36064119D01*
X27549000Y-35935881D01*
X27574017Y-35810110D01*
X27623090Y-35691638D01*
X27658864Y-35638099D01*
X27694335Y-35585012D01*
X27785012Y-35494335D01*
X27891636Y-35423091D01*
X28010110Y-35374017D01*
X28135881Y-35349000D01*
X28264119Y-35349000D01*
X28389890Y-35374017D01*
X28389890Y-35374017D01*
G37*
G36*
X8195285Y-34018234D02*
G01*
X8291981Y-34037468D01*
X8474151Y-34112926D01*
X8638100Y-34222473D01*
X8777527Y-34361900D01*
X8835725Y-34449000D01*
X8887075Y-34525851D01*
X8962532Y-34708020D01*
X9001000Y-34901409D01*
X9001000Y-35098591D01*
X8996418Y-35121626D01*
X8962532Y-35291981D01*
X8887074Y-35474151D01*
X8777527Y-35638100D01*
X8638100Y-35777527D01*
X8474151Y-35887074D01*
X8474150Y-35887075D01*
X8474149Y-35887075D01*
X8451429Y-35896486D01*
X8291981Y-35962532D01*
X8195285Y-35981766D01*
X8098591Y-36001000D01*
X7901409Y-36001000D01*
X7804715Y-35981766D01*
X7708019Y-35962532D01*
X7548571Y-35896486D01*
X7525851Y-35887075D01*
X7525850Y-35887075D01*
X7525849Y-35887074D01*
X7361900Y-35777527D01*
X7222473Y-35638100D01*
X7112926Y-35474151D01*
X7037468Y-35291981D01*
X7003582Y-35121626D01*
X6999000Y-35098591D01*
X6999000Y-34901409D01*
X7037468Y-34708020D01*
X7112925Y-34525851D01*
X7164275Y-34449000D01*
X7222473Y-34361900D01*
X7361900Y-34222473D01*
X7525849Y-34112926D01*
X7708019Y-34037468D01*
X7804715Y-34018234D01*
X7901409Y-33999000D01*
X8098591Y-33999000D01*
X8195285Y-34018234D01*
X8195285Y-34018234D01*
G37*
G36*
X15690000Y-34850000D02*
G01*
X14763539Y-34850000D01*
X14739153Y-34852402D01*
X14715704Y-34859515D01*
X14694093Y-34871066D01*
X14675151Y-34886611D01*
X14659606Y-34905553D01*
X14648055Y-34927164D01*
X14640942Y-34950613D01*
X14638540Y-34974999D01*
X14640942Y-34999385D01*
X14648055Y-35022834D01*
X14659606Y-35044445D01*
X14668025Y-35054704D01*
X14667717Y-35054957D01*
X14681774Y-35072086D01*
X14688102Y-35083924D01*
X14701716Y-35104299D01*
X14719043Y-35121626D01*
X14739417Y-35135240D01*
X14762056Y-35144617D01*
X14786089Y-35149398D01*
X14798342Y-35150000D01*
X15690000Y-35150000D01*
X15690000Y-36000000D01*
X14720510Y-36000000D01*
X14709387Y-35996626D01*
X14685001Y-35994224D01*
X14653186Y-35998943D01*
X14649805Y-35999276D01*
X14649802Y-35999277D01*
X14640000Y-36000242D01*
X14633859Y-36000847D01*
X14366141Y-36000847D01*
X14350198Y-35999277D01*
X14340775Y-35996419D01*
X14336669Y-35994224D01*
X14332087Y-35991775D01*
X14332086Y-35991774D01*
X14332084Y-35991773D01*
X14324473Y-35985527D01*
X14318227Y-35977916D01*
X14313581Y-35969225D01*
X14310723Y-35959802D01*
X14309153Y-35943859D01*
X14309153Y-35246141D01*
X14310723Y-35230198D01*
X14313581Y-35220775D01*
X14318227Y-35212084D01*
X14328383Y-35199709D01*
X14464046Y-35064046D01*
X14463692Y-35063692D01*
X14473086Y-35054298D01*
X14486700Y-35033924D01*
X14496077Y-35011285D01*
X14500858Y-34987252D01*
X14500858Y-34962747D01*
X14496078Y-34938714D01*
X14486700Y-34916075D01*
X14473087Y-34895701D01*
X14455760Y-34878374D01*
X14435386Y-34864760D01*
X14412747Y-34855383D01*
X14388714Y-34850602D01*
X14376461Y-34850000D01*
X14310000Y-34850000D01*
X14310000Y-34000000D01*
X15690000Y-34000000D01*
X15690000Y-34850000D01*
X15690000Y-34850000D01*
G37*
G36*
X33651000Y-35551000D02*
G01*
X32349000Y-35551000D01*
X32349000Y-34449000D01*
X33651000Y-34449000D01*
X33651000Y-35551000D01*
X33651000Y-35551000D01*
G37*
G36*
X31550000Y-34800000D02*
G01*
X29350000Y-34800000D01*
X29350000Y-32100000D01*
X31550000Y-32100000D01*
X31550000Y-34800000D01*
X31550000Y-34800000D01*
G37*
G36*
X22650000Y-34800000D02*
G01*
X20450000Y-34800000D01*
X20450000Y-32100000D01*
X22650000Y-32100000D01*
X22650000Y-34800000D01*
X22650000Y-34800000D01*
G37*
G36*
X42651000Y-34551000D02*
G01*
X41849000Y-34551000D01*
X41849000Y-33449000D01*
X42651000Y-33449000D01*
X42651000Y-34551000D01*
X42651000Y-34551000D01*
G37*
G36*
X38651000Y-34551000D02*
G01*
X37849000Y-34551000D01*
X37849000Y-33449000D01*
X38651000Y-33449000D01*
X38651000Y-34551000D01*
X38651000Y-34551000D01*
G37*
G36*
X40151000Y-34551000D02*
G01*
X39349000Y-34551000D01*
X39349000Y-33449000D01*
X40151000Y-33449000D01*
X40151000Y-34551000D01*
X40151000Y-34551000D01*
G37*
G36*
X44151000Y-34551000D02*
G01*
X43349000Y-34551000D01*
X43349000Y-33449000D01*
X44151000Y-33449000D01*
X44151000Y-34551000D01*
X44151000Y-34551000D01*
G37*
G36*
X27950000Y-34550000D02*
G01*
X24050000Y-34550000D01*
X24050000Y-32100000D01*
X27950000Y-32100000D01*
X27950000Y-34550000D01*
X27950000Y-34550000D01*
G37*
G36*
X33651000Y-33551000D02*
G01*
X32349000Y-33551000D01*
X32349000Y-32449000D01*
X33651000Y-32449000D01*
X33651000Y-33551000D01*
X33651000Y-33551000D01*
G37*
G36*
X3211981Y-31497468D02*
G01*
X3394151Y-31572926D01*
X3558100Y-31682473D01*
X3697527Y-31821900D01*
X3770682Y-31931385D01*
X3807075Y-31985851D01*
X3817331Y-32010611D01*
X3882532Y-32168019D01*
X3921000Y-32361410D01*
X3921000Y-32558590D01*
X3882532Y-32751981D01*
X3807074Y-32934151D01*
X3697527Y-33098100D01*
X3558100Y-33237527D01*
X3394151Y-33347074D01*
X3211981Y-33422532D01*
X3115285Y-33441766D01*
X3018591Y-33461000D01*
X2821409Y-33461000D01*
X2724715Y-33441766D01*
X2628019Y-33422532D01*
X2445849Y-33347074D01*
X2281900Y-33237527D01*
X2142473Y-33098100D01*
X2032926Y-32934151D01*
X1957468Y-32751981D01*
X1919000Y-32558590D01*
X1919000Y-32361410D01*
X1957468Y-32168019D01*
X2022669Y-32010611D01*
X2032925Y-31985851D01*
X2069318Y-31931385D01*
X2142473Y-31821900D01*
X2281900Y-31682473D01*
X2445849Y-31572926D01*
X2628019Y-31497468D01*
X2821409Y-31459000D01*
X3018591Y-31459000D01*
X3211981Y-31497468D01*
X3211981Y-31497468D01*
G37*
G36*
X8291981Y-31497468D02*
G01*
X8474151Y-31572926D01*
X8638100Y-31682473D01*
X8777527Y-31821900D01*
X8850682Y-31931385D01*
X8887075Y-31985851D01*
X8897331Y-32010611D01*
X8962532Y-32168019D01*
X9001000Y-32361410D01*
X9001000Y-32558590D01*
X8962532Y-32751981D01*
X8887074Y-32934151D01*
X8777527Y-33098100D01*
X8638100Y-33237527D01*
X8474151Y-33347074D01*
X8291981Y-33422532D01*
X8195285Y-33441766D01*
X8098591Y-33461000D01*
X7901409Y-33461000D01*
X7804715Y-33441766D01*
X7708019Y-33422532D01*
X7525849Y-33347074D01*
X7361900Y-33237527D01*
X7222473Y-33098100D01*
X7112926Y-32934151D01*
X7037468Y-32751981D01*
X6999000Y-32558590D01*
X6999000Y-32361410D01*
X7037468Y-32168019D01*
X7102669Y-32010611D01*
X7112925Y-31985851D01*
X7149318Y-31931385D01*
X7222473Y-31821900D01*
X7361900Y-31682473D01*
X7525849Y-31572926D01*
X7708019Y-31497468D01*
X7901409Y-31459000D01*
X8098591Y-31459000D01*
X8291981Y-31497468D01*
X8291981Y-31497468D01*
G37*
G36*
X14151000Y-32551000D02*
G01*
X13349000Y-32551000D01*
X13349000Y-31449000D01*
X14151000Y-31449000D01*
X14151000Y-32551000D01*
X14151000Y-32551000D01*
G37*
G36*
X16651000Y-32551000D02*
G01*
X15849000Y-32551000D01*
X15849000Y-31449000D01*
X16651000Y-31449000D01*
X16651000Y-32551000D01*
X16651000Y-32551000D01*
G37*
G36*
X18151000Y-32551000D02*
G01*
X17349000Y-32551000D01*
X17349000Y-31449000D01*
X18151000Y-31449000D01*
X18151000Y-32551000D01*
X18151000Y-32551000D01*
G37*
G36*
X12651000Y-32551000D02*
G01*
X11849000Y-32551000D01*
X11849000Y-31449000D01*
X12651000Y-31449000D01*
X12651000Y-32551000D01*
X12651000Y-32551000D01*
G37*
G36*
X49496564Y-29989389D02*
G01*
X49687833Y-30068615D01*
X49687835Y-30068616D01*
X49859973Y-30183635D01*
X50006365Y-30330027D01*
X50121385Y-30502167D01*
X50200611Y-30693436D01*
X50241000Y-30896484D01*
X50241000Y-31103516D01*
X50200611Y-31306564D01*
X50141612Y-31449000D01*
X50121384Y-31497835D01*
X50006365Y-31669973D01*
X49859973Y-31816365D01*
X49687835Y-31931384D01*
X49687834Y-31931385D01*
X49687833Y-31931385D01*
X49496564Y-32010611D01*
X49293516Y-32051000D01*
X49086484Y-32051000D01*
X48883436Y-32010611D01*
X48692167Y-31931385D01*
X48692166Y-31931385D01*
X48692165Y-31931384D01*
X48520027Y-31816365D01*
X48373635Y-31669973D01*
X48258616Y-31497835D01*
X48238388Y-31449000D01*
X48179389Y-31306564D01*
X48139000Y-31103516D01*
X48139000Y-30896484D01*
X48179389Y-30693436D01*
X48258615Y-30502167D01*
X48373635Y-30330027D01*
X48520027Y-30183635D01*
X48692165Y-30068616D01*
X48692167Y-30068615D01*
X48883436Y-29989389D01*
X49086484Y-29949000D01*
X49293516Y-29949000D01*
X49496564Y-29989389D01*
X49496564Y-29989389D01*
G37*
G36*
X44151000Y-31551000D02*
G01*
X43349000Y-31551000D01*
X43349000Y-30449000D01*
X44151000Y-30449000D01*
X44151000Y-31551000D01*
X44151000Y-31551000D01*
G37*
G36*
X42651000Y-31551000D02*
G01*
X41849000Y-31551000D01*
X41849000Y-30449000D01*
X42651000Y-30449000D01*
X42651000Y-31551000D01*
X42651000Y-31551000D01*
G37*
G36*
X38651000Y-31551000D02*
G01*
X37849000Y-31551000D01*
X37849000Y-30449000D01*
X38651000Y-30449000D01*
X38651000Y-31551000D01*
X38651000Y-31551000D01*
G37*
G36*
X40151000Y-31551000D02*
G01*
X39349000Y-31551000D01*
X39349000Y-30449000D01*
X40151000Y-30449000D01*
X40151000Y-31551000D01*
X40151000Y-31551000D01*
G37*
G36*
X21451000Y-30051000D02*
G01*
X20349000Y-30051000D01*
X20349000Y-28949000D01*
X21451000Y-28949000D01*
X21451000Y-30051000D01*
X21451000Y-30051000D01*
G37*
G36*
X31651000Y-29651000D02*
G01*
X30549000Y-29651000D01*
X30549000Y-28349000D01*
X31651000Y-28349000D01*
X31651000Y-29651000D01*
X31651000Y-29651000D01*
G37*
G36*
X33651000Y-29651000D02*
G01*
X32549000Y-29651000D01*
X32549000Y-28349000D01*
X33651000Y-28349000D01*
X33651000Y-29651000D01*
X33651000Y-29651000D01*
G37*
G36*
X25651000Y-29501000D02*
G01*
X24149000Y-29501000D01*
X24149000Y-28399000D01*
X25651000Y-28399000D01*
X25651000Y-29501000D01*
X25651000Y-29501000D01*
G37*
G36*
X27851000Y-29501000D02*
G01*
X26349000Y-29501000D01*
X26349000Y-28399000D01*
X27851000Y-28399000D01*
X27851000Y-29501000D01*
X27851000Y-29501000D01*
G37*
G36*
X40501000Y-29401000D02*
G01*
X39499000Y-29401000D01*
X39499000Y-28499000D01*
X40501000Y-28499000D01*
X40501000Y-29401000D01*
X40501000Y-29401000D01*
G37*
G36*
X42501000Y-28451000D02*
G01*
X41499000Y-28451000D01*
X41499000Y-27549000D01*
X42501000Y-27549000D01*
X42501000Y-28451000D01*
X42501000Y-28451000D01*
G37*
G36*
X25651000Y-27881000D02*
G01*
X24149000Y-27881000D01*
X24149000Y-26579000D01*
X25651000Y-26579000D01*
X25651000Y-27881000D01*
X25651000Y-27881000D01*
G37*
G36*
X31651000Y-27651000D02*
G01*
X30549000Y-27651000D01*
X30549000Y-26349000D01*
X31651000Y-26349000D01*
X31651000Y-27651000D01*
X31651000Y-27651000D01*
G37*
G36*
X33651000Y-27651000D02*
G01*
X32549000Y-27651000D01*
X32549000Y-26349000D01*
X33651000Y-26349000D01*
X33651000Y-27651000D01*
X33651000Y-27651000D01*
G37*
G36*
X27851000Y-27601000D02*
G01*
X26349000Y-27601000D01*
X26349000Y-26499000D01*
X27851000Y-26499000D01*
X27851000Y-27601000D01*
X27851000Y-27601000D01*
G37*
G36*
X22351000Y-27551000D02*
G01*
X21049000Y-27551000D01*
X21049000Y-26449000D01*
X22351000Y-26449000D01*
X22351000Y-27551000D01*
X22351000Y-27551000D01*
G37*
G36*
X40501000Y-27501000D02*
G01*
X39499000Y-27501000D01*
X39499000Y-26599000D01*
X40501000Y-26599000D01*
X40501000Y-27501000D01*
X40501000Y-27501000D01*
G37*
G36*
X49496564Y-24989389D02*
G01*
X49687833Y-25068615D01*
X49687835Y-25068616D01*
X49859973Y-25183635D01*
X50006365Y-25330027D01*
X50121385Y-25502167D01*
X50200611Y-25693436D01*
X50241000Y-25896484D01*
X50241000Y-26103516D01*
X50200611Y-26306564D01*
X50171666Y-26376443D01*
X50121384Y-26497835D01*
X50006365Y-26669973D01*
X49859973Y-26816365D01*
X49687835Y-26931384D01*
X49687834Y-26931385D01*
X49687833Y-26931385D01*
X49496564Y-27010611D01*
X49293516Y-27051000D01*
X49086484Y-27051000D01*
X48883436Y-27010611D01*
X48692167Y-26931385D01*
X48692166Y-26931385D01*
X48692165Y-26931384D01*
X48520027Y-26816365D01*
X48373635Y-26669973D01*
X48258616Y-26497835D01*
X48208334Y-26376443D01*
X48179389Y-26306564D01*
X48139000Y-26103516D01*
X48139000Y-25896484D01*
X48179389Y-25693436D01*
X48258615Y-25502167D01*
X48373635Y-25330027D01*
X48520027Y-25183635D01*
X48692165Y-25068616D01*
X48692167Y-25068615D01*
X48883436Y-24989389D01*
X49086484Y-24949000D01*
X49293516Y-24949000D01*
X49496564Y-24989389D01*
X49496564Y-24989389D01*
G37*
G36*
X110442Y-24645518D02*
G01*
X176627Y-24652037D01*
X346466Y-24703557D01*
X502991Y-24787222D01*
X538729Y-24816552D01*
X640186Y-24899814D01*
X713697Y-24989389D01*
X752778Y-25037009D01*
X836443Y-25193534D01*
X887963Y-25363373D01*
X905359Y-25540000D01*
X887963Y-25716627D01*
X836443Y-25886466D01*
X752778Y-26042991D01*
X723448Y-26078729D01*
X640186Y-26180186D01*
X538729Y-26263448D01*
X502991Y-26292778D01*
X346466Y-26376443D01*
X176627Y-26427963D01*
X110443Y-26434481D01*
X44260Y-26441000D01*
X-44260Y-26441000D01*
X-110443Y-26434481D01*
X-176627Y-26427963D01*
X-346466Y-26376443D01*
X-502991Y-26292778D01*
X-538729Y-26263448D01*
X-640186Y-26180186D01*
X-723448Y-26078729D01*
X-752778Y-26042991D01*
X-836443Y-25886466D01*
X-887963Y-25716627D01*
X-905359Y-25540000D01*
X-887963Y-25363373D01*
X-836443Y-25193534D01*
X-752778Y-25037009D01*
X-713697Y-24989389D01*
X-640186Y-24899814D01*
X-538729Y-24816552D01*
X-502991Y-24787222D01*
X-346466Y-24703557D01*
X-176627Y-24652037D01*
X-110443Y-24645519D01*
X-44260Y-24639000D01*
X44260Y-24639000D01*
X110442Y-24645518D01*
X110442Y-24645518D01*
G37*
G36*
X31651000Y-25651000D02*
G01*
X30549000Y-25651000D01*
X30549000Y-24349000D01*
X31651000Y-24349000D01*
X31651000Y-25651000D01*
X31651000Y-25651000D01*
G37*
G36*
X13551000Y-25651000D02*
G01*
X12449000Y-25651000D01*
X12449000Y-24349000D01*
X13551000Y-24349000D01*
X13551000Y-25651000D01*
X13551000Y-25651000D01*
G37*
G36*
X15551000Y-25651000D02*
G01*
X14449000Y-25651000D01*
X14449000Y-24349000D01*
X15551000Y-24349000D01*
X15551000Y-25651000D01*
X15551000Y-25651000D01*
G37*
G36*
X19551000Y-25651000D02*
G01*
X18449000Y-25651000D01*
X18449000Y-24349000D01*
X19551000Y-24349000D01*
X19551000Y-25651000D01*
X19551000Y-25651000D01*
G37*
G36*
X17551000Y-25651000D02*
G01*
X16449000Y-25651000D01*
X16449000Y-24349000D01*
X17551000Y-24349000D01*
X17551000Y-25651000D01*
X17551000Y-25651000D01*
G37*
G36*
X33651000Y-25651000D02*
G01*
X32549000Y-25651000D01*
X32549000Y-24349000D01*
X33651000Y-24349000D01*
X33651000Y-25651000D01*
X33651000Y-25651000D01*
G37*
G36*
X22351000Y-25551000D02*
G01*
X21049000Y-25551000D01*
X21049000Y-24449000D01*
X22351000Y-24449000D01*
X22351000Y-25551000D01*
X22351000Y-25551000D01*
G37*
G36*
X901000Y-23901000D02*
G01*
X-901000Y-23901000D01*
X-901000Y-22099000D01*
X901000Y-22099000D01*
X901000Y-23901000D01*
X901000Y-23901000D01*
G37*
G36*
X33651000Y-23651000D02*
G01*
X32549000Y-23651000D01*
X32549000Y-22349000D01*
X33651000Y-22349000D01*
X33651000Y-23651000D01*
X33651000Y-23651000D01*
G37*
G36*
X31651000Y-23651000D02*
G01*
X30549000Y-23651000D01*
X30549000Y-22349000D01*
X31651000Y-22349000D01*
X31651000Y-23651000D01*
X31651000Y-23651000D01*
G37*
G36*
X24905355Y-17600083D02*
G01*
X24910029Y-17601501D01*
X24914330Y-17603800D01*
X24920702Y-17609029D01*
X24941076Y-17622643D01*
X24963715Y-17632020D01*
X24987749Y-17636800D01*
X25012253Y-17636800D01*
X25036286Y-17632019D01*
X25058925Y-17622642D01*
X25079298Y-17609029D01*
X25085670Y-17603800D01*
X25089971Y-17601501D01*
X25094645Y-17600083D01*
X25105641Y-17599000D01*
X25394359Y-17599000D01*
X25405355Y-17600083D01*
X25410029Y-17601501D01*
X25414330Y-17603800D01*
X25420702Y-17609029D01*
X25441076Y-17622643D01*
X25463715Y-17632020D01*
X25487749Y-17636800D01*
X25512253Y-17636800D01*
X25536286Y-17632019D01*
X25558925Y-17622642D01*
X25579298Y-17609029D01*
X25585670Y-17603800D01*
X25589971Y-17601501D01*
X25594645Y-17600083D01*
X25605641Y-17599000D01*
X25894359Y-17599000D01*
X25905355Y-17600083D01*
X25910029Y-17601501D01*
X25914330Y-17603800D01*
X25920702Y-17609029D01*
X25941076Y-17622643D01*
X25963715Y-17632020D01*
X25987749Y-17636800D01*
X26012253Y-17636800D01*
X26036286Y-17632019D01*
X26058925Y-17622642D01*
X26079298Y-17609029D01*
X26085670Y-17603800D01*
X26089971Y-17601501D01*
X26094645Y-17600083D01*
X26105641Y-17599000D01*
X26394359Y-17599000D01*
X26405355Y-17600083D01*
X26410029Y-17601501D01*
X26414330Y-17603800D01*
X26420702Y-17609029D01*
X26441076Y-17622643D01*
X26463715Y-17632020D01*
X26487749Y-17636800D01*
X26512253Y-17636800D01*
X26536286Y-17632019D01*
X26558925Y-17622642D01*
X26579298Y-17609029D01*
X26585670Y-17603800D01*
X26589971Y-17601501D01*
X26594645Y-17600083D01*
X26605641Y-17599000D01*
X26894359Y-17599000D01*
X26905355Y-17600083D01*
X26910029Y-17601501D01*
X26914330Y-17603800D01*
X26920702Y-17609029D01*
X26941076Y-17622643D01*
X26963715Y-17632020D01*
X26987749Y-17636800D01*
X27012253Y-17636800D01*
X27036286Y-17632019D01*
X27058925Y-17622642D01*
X27079298Y-17609029D01*
X27085670Y-17603800D01*
X27089971Y-17601501D01*
X27094645Y-17600083D01*
X27105641Y-17599000D01*
X27394359Y-17599000D01*
X27405355Y-17600083D01*
X27410029Y-17601501D01*
X27414331Y-17603800D01*
X27418104Y-17606896D01*
X27421200Y-17610669D01*
X27423499Y-17614971D01*
X27424917Y-17619645D01*
X27426000Y-17630641D01*
X27426000Y-18449001D01*
X27428402Y-18473387D01*
X27435515Y-18496836D01*
X27447066Y-18518447D01*
X27462611Y-18537389D01*
X27481553Y-18552934D01*
X27503164Y-18564485D01*
X27526613Y-18571598D01*
X27550999Y-18574000D01*
X28369359Y-18574000D01*
X28380355Y-18575083D01*
X28385029Y-18576501D01*
X28389331Y-18578800D01*
X28393104Y-18581896D01*
X28396200Y-18585669D01*
X28398499Y-18589971D01*
X28399917Y-18594645D01*
X28401000Y-18605641D01*
X28401000Y-18894359D01*
X28399917Y-18905355D01*
X28398499Y-18910029D01*
X28396200Y-18914330D01*
X28390971Y-18920702D01*
X28377357Y-18941076D01*
X28367980Y-18963715D01*
X28363200Y-18987749D01*
X28363200Y-19012253D01*
X28367981Y-19036286D01*
X28377358Y-19058925D01*
X28390971Y-19079298D01*
X28396200Y-19085670D01*
X28398499Y-19089971D01*
X28399917Y-19094645D01*
X28401000Y-19105641D01*
X28401000Y-19394359D01*
X28399917Y-19405355D01*
X28398499Y-19410029D01*
X28396200Y-19414330D01*
X28390971Y-19420702D01*
X28377357Y-19441076D01*
X28367980Y-19463715D01*
X28363200Y-19487749D01*
X28363200Y-19512253D01*
X28367981Y-19536286D01*
X28377358Y-19558925D01*
X28390971Y-19579298D01*
X28396200Y-19585670D01*
X28398499Y-19589971D01*
X28399917Y-19594645D01*
X28401000Y-19605641D01*
X28401000Y-19894359D01*
X28399917Y-19905355D01*
X28398499Y-19910029D01*
X28396200Y-19914330D01*
X28390971Y-19920702D01*
X28377357Y-19941076D01*
X28367980Y-19963715D01*
X28363200Y-19987749D01*
X28363200Y-20012253D01*
X28367981Y-20036286D01*
X28377358Y-20058925D01*
X28390971Y-20079298D01*
X28396200Y-20085670D01*
X28398499Y-20089971D01*
X28399917Y-20094645D01*
X28401000Y-20105641D01*
X28401000Y-20394359D01*
X28399917Y-20405355D01*
X28398499Y-20410029D01*
X28396200Y-20414330D01*
X28390971Y-20420702D01*
X28377357Y-20441076D01*
X28367980Y-20463715D01*
X28363200Y-20487749D01*
X28363200Y-20512253D01*
X28367981Y-20536286D01*
X28377358Y-20558925D01*
X28390971Y-20579298D01*
X28396200Y-20585670D01*
X28398499Y-20589971D01*
X28399917Y-20594645D01*
X28401000Y-20605641D01*
X28401000Y-20894359D01*
X28399917Y-20905355D01*
X28398499Y-20910029D01*
X28396200Y-20914330D01*
X28390971Y-20920702D01*
X28377357Y-20941076D01*
X28367980Y-20963715D01*
X28363200Y-20987749D01*
X28363200Y-21012253D01*
X28367981Y-21036286D01*
X28377358Y-21058925D01*
X28390971Y-21079298D01*
X28396200Y-21085670D01*
X28398499Y-21089971D01*
X28399917Y-21094645D01*
X28401000Y-21105641D01*
X28401000Y-21394359D01*
X28399917Y-21405355D01*
X28398499Y-21410029D01*
X28396200Y-21414331D01*
X28393104Y-21418104D01*
X28389331Y-21421200D01*
X28385029Y-21423499D01*
X28380355Y-21424917D01*
X28369359Y-21426000D01*
X27550999Y-21426000D01*
X27526613Y-21428402D01*
X27503164Y-21435515D01*
X27481553Y-21447066D01*
X27462611Y-21462611D01*
X27447066Y-21481553D01*
X27435515Y-21503164D01*
X27428402Y-21526613D01*
X27426000Y-21550999D01*
X27426000Y-22369359D01*
X27424917Y-22380355D01*
X27423499Y-22385029D01*
X27421200Y-22389331D01*
X27418104Y-22393104D01*
X27414331Y-22396200D01*
X27410029Y-22398499D01*
X27405355Y-22399917D01*
X27394359Y-22401000D01*
X27105641Y-22401000D01*
X27094645Y-22399917D01*
X27089971Y-22398499D01*
X27085670Y-22396200D01*
X27079298Y-22390971D01*
X27058924Y-22377357D01*
X27036285Y-22367980D01*
X27012251Y-22363200D01*
X26987747Y-22363200D01*
X26963714Y-22367981D01*
X26941075Y-22377358D01*
X26920702Y-22390971D01*
X26914330Y-22396200D01*
X26910029Y-22398499D01*
X26905355Y-22399917D01*
X26894359Y-22401000D01*
X26605641Y-22401000D01*
X26594645Y-22399917D01*
X26589971Y-22398499D01*
X26585670Y-22396200D01*
X26579298Y-22390971D01*
X26558924Y-22377357D01*
X26536285Y-22367980D01*
X26512251Y-22363200D01*
X26487747Y-22363200D01*
X26463714Y-22367981D01*
X26441075Y-22377358D01*
X26420702Y-22390971D01*
X26414330Y-22396200D01*
X26410029Y-22398499D01*
X26405355Y-22399917D01*
X26394359Y-22401000D01*
X26105641Y-22401000D01*
X26094645Y-22399917D01*
X26089971Y-22398499D01*
X26085670Y-22396200D01*
X26079298Y-22390971D01*
X26058924Y-22377357D01*
X26036285Y-22367980D01*
X26012251Y-22363200D01*
X25987747Y-22363200D01*
X25963714Y-22367981D01*
X25941075Y-22377358D01*
X25920702Y-22390971D01*
X25914330Y-22396200D01*
X25910029Y-22398499D01*
X25905355Y-22399917D01*
X25894359Y-22401000D01*
X25605641Y-22401000D01*
X25594645Y-22399917D01*
X25589971Y-22398499D01*
X25585670Y-22396200D01*
X25579298Y-22390971D01*
X25558924Y-22377357D01*
X25536285Y-22367980D01*
X25512251Y-22363200D01*
X25487747Y-22363200D01*
X25463714Y-22367981D01*
X25441075Y-22377358D01*
X25420702Y-22390971D01*
X25414330Y-22396200D01*
X25410029Y-22398499D01*
X25405355Y-22399917D01*
X25394359Y-22401000D01*
X25105641Y-22401000D01*
X25094645Y-22399917D01*
X25089971Y-22398499D01*
X25085670Y-22396200D01*
X25079298Y-22390971D01*
X25058924Y-22377357D01*
X25036285Y-22367980D01*
X25012251Y-22363200D01*
X24987747Y-22363200D01*
X24963714Y-22367981D01*
X24941075Y-22377358D01*
X24920702Y-22390971D01*
X24914330Y-22396200D01*
X24910029Y-22398499D01*
X24905355Y-22399917D01*
X24894359Y-22401000D01*
X24605641Y-22401000D01*
X24594645Y-22399917D01*
X24589971Y-22398499D01*
X24585669Y-22396200D01*
X24581896Y-22393104D01*
X24578800Y-22389331D01*
X24576501Y-22385029D01*
X24575083Y-22380355D01*
X24574000Y-22369359D01*
X24574000Y-21550999D01*
X24571598Y-21526613D01*
X24564485Y-21503164D01*
X24552934Y-21481553D01*
X24537389Y-21462611D01*
X24518447Y-21447066D01*
X24496836Y-21435515D01*
X24473387Y-21428402D01*
X24449001Y-21426000D01*
X23630641Y-21426000D01*
X23619645Y-21424917D01*
X23614971Y-21423499D01*
X23610669Y-21421200D01*
X23606896Y-21418104D01*
X23603800Y-21414331D01*
X23601501Y-21410029D01*
X23600083Y-21405355D01*
X23599000Y-21394359D01*
X23599000Y-21105641D01*
X23600083Y-21094645D01*
X23601501Y-21089971D01*
X23603800Y-21085670D01*
X23609029Y-21079298D01*
X23622643Y-21058924D01*
X23632020Y-21036285D01*
X23636800Y-21012251D01*
X23636800Y-20987747D01*
X23632019Y-20963714D01*
X23622642Y-20941075D01*
X23609029Y-20920702D01*
X23603800Y-20914330D01*
X23601501Y-20910029D01*
X23600083Y-20905355D01*
X23599000Y-20894359D01*
X23599000Y-20605641D01*
X23600083Y-20594645D01*
X23601501Y-20589971D01*
X23603800Y-20585670D01*
X23609029Y-20579298D01*
X23622643Y-20558924D01*
X23632020Y-20536285D01*
X23636800Y-20512251D01*
X23636800Y-20487747D01*
X23632019Y-20463714D01*
X23622642Y-20441075D01*
X23609029Y-20420702D01*
X23603800Y-20414330D01*
X23601501Y-20410029D01*
X23600083Y-20405355D01*
X23599000Y-20394359D01*
X23599000Y-20105641D01*
X23600083Y-20094645D01*
X23601501Y-20089971D01*
X23603800Y-20085670D01*
X23609029Y-20079298D01*
X23622643Y-20058924D01*
X23632020Y-20036285D01*
X23636800Y-20012251D01*
X23636800Y-19987747D01*
X23632019Y-19963714D01*
X23622642Y-19941075D01*
X23609029Y-19920702D01*
X23603800Y-19914330D01*
X23601501Y-19910029D01*
X23600083Y-19905355D01*
X23599000Y-19894359D01*
X23599000Y-19605641D01*
X23600083Y-19594645D01*
X23601501Y-19589971D01*
X23603800Y-19585670D01*
X23609029Y-19579298D01*
X23622643Y-19558924D01*
X23632020Y-19536285D01*
X23636800Y-19512251D01*
X23636800Y-19487747D01*
X23632019Y-19463714D01*
X23622642Y-19441075D01*
X23609029Y-19420702D01*
X23603800Y-19414330D01*
X23601501Y-19410029D01*
X23600083Y-19405355D01*
X23599000Y-19394359D01*
X23599000Y-19105641D01*
X23600083Y-19094645D01*
X23601501Y-19089971D01*
X23603800Y-19085670D01*
X23609029Y-19079298D01*
X23622643Y-19058924D01*
X23632020Y-19036285D01*
X23636800Y-19012251D01*
X23636800Y-18987747D01*
X23632019Y-18963714D01*
X23622642Y-18941075D01*
X23609029Y-18920702D01*
X23603800Y-18914330D01*
X23601501Y-18910029D01*
X23600083Y-18905355D01*
X23599000Y-18894359D01*
X23599000Y-18605641D01*
X23600083Y-18594645D01*
X23601501Y-18589971D01*
X23603800Y-18585669D01*
X23606896Y-18581896D01*
X23610669Y-18578800D01*
X23614971Y-18576501D01*
X23619645Y-18575083D01*
X23630641Y-18574000D01*
X24449001Y-18574000D01*
X24473387Y-18571598D01*
X24496836Y-18564485D01*
X24518447Y-18552934D01*
X24537389Y-18537389D01*
X24552934Y-18518447D01*
X24564485Y-18496836D01*
X24571598Y-18473387D01*
X24574000Y-18449001D01*
X24574000Y-17630641D01*
X24575083Y-17619645D01*
X24576501Y-17614971D01*
X24578800Y-17610669D01*
X24581896Y-17606896D01*
X24585669Y-17603800D01*
X24589971Y-17601501D01*
X24594645Y-17600083D01*
X24605641Y-17599000D01*
X24894359Y-17599000D01*
X24905355Y-17600083D01*
X24905355Y-17600083D01*
G37*
G36*
X19409928Y-21556764D02*
G01*
X19431009Y-21563160D01*
X19450445Y-21573548D01*
X19467476Y-21587524D01*
X19481452Y-21604555D01*
X19491840Y-21623991D01*
X19498236Y-21645072D01*
X19501000Y-21673140D01*
X19501000Y-22136860D01*
X19498236Y-22164928D01*
X19491840Y-22186009D01*
X19481452Y-22205445D01*
X19467476Y-22222476D01*
X19450445Y-22236452D01*
X19431009Y-22246840D01*
X19409928Y-22253236D01*
X19381860Y-22256000D01*
X17568140Y-22256000D01*
X17540072Y-22253236D01*
X17518991Y-22246840D01*
X17499555Y-22236452D01*
X17482524Y-22222476D01*
X17468548Y-22205445D01*
X17458160Y-22186009D01*
X17451764Y-22164928D01*
X17449000Y-22136860D01*
X17449000Y-21673140D01*
X17451764Y-21645072D01*
X17458160Y-21623991D01*
X17468548Y-21604555D01*
X17482524Y-21587524D01*
X17499555Y-21573548D01*
X17518991Y-21563160D01*
X17540072Y-21556764D01*
X17568140Y-21554000D01*
X19381860Y-21554000D01*
X19409928Y-21556764D01*
X19409928Y-21556764D01*
G37*
G36*
X14459928Y-21556764D02*
G01*
X14481009Y-21563160D01*
X14500445Y-21573548D01*
X14517476Y-21587524D01*
X14531452Y-21604555D01*
X14541840Y-21623991D01*
X14548236Y-21645072D01*
X14551000Y-21673140D01*
X14551000Y-22136860D01*
X14548236Y-22164928D01*
X14541840Y-22186009D01*
X14531452Y-22205445D01*
X14517476Y-22222476D01*
X14500445Y-22236452D01*
X14481009Y-22246840D01*
X14459928Y-22253236D01*
X14431860Y-22256000D01*
X12618140Y-22256000D01*
X12590072Y-22253236D01*
X12568991Y-22246840D01*
X12549555Y-22236452D01*
X12532524Y-22222476D01*
X12518548Y-22205445D01*
X12508160Y-22186009D01*
X12501764Y-22164928D01*
X12499000Y-22136860D01*
X12499000Y-21673140D01*
X12501764Y-21645072D01*
X12508160Y-21623991D01*
X12518548Y-21604555D01*
X12532524Y-21587524D01*
X12549555Y-21573548D01*
X12568991Y-21563160D01*
X12590072Y-21556764D01*
X12618140Y-21554000D01*
X14431860Y-21554000D01*
X14459928Y-21556764D01*
X14459928Y-21556764D01*
G37*
G36*
X31651000Y-21151000D02*
G01*
X30549000Y-21151000D01*
X30549000Y-20349000D01*
X31651000Y-20349000D01*
X31651000Y-21151000D01*
X31651000Y-21151000D01*
G37*
G36*
X33651000Y-21151000D02*
G01*
X32549000Y-21151000D01*
X32549000Y-20349000D01*
X33651000Y-20349000D01*
X33651000Y-21151000D01*
X33651000Y-21151000D01*
G37*
G36*
X19409928Y-20286764D02*
G01*
X19431009Y-20293160D01*
X19450445Y-20303548D01*
X19467476Y-20317524D01*
X19481452Y-20334555D01*
X19491840Y-20353991D01*
X19498236Y-20375072D01*
X19501000Y-20403140D01*
X19501000Y-20866860D01*
X19498236Y-20894928D01*
X19491840Y-20916009D01*
X19481452Y-20935445D01*
X19467476Y-20952476D01*
X19450445Y-20966452D01*
X19431009Y-20976840D01*
X19409928Y-20983236D01*
X19381860Y-20986000D01*
X17568140Y-20986000D01*
X17540072Y-20983236D01*
X17518991Y-20976840D01*
X17499555Y-20966452D01*
X17482524Y-20952476D01*
X17468548Y-20935445D01*
X17458160Y-20916009D01*
X17451764Y-20894928D01*
X17449000Y-20866860D01*
X17449000Y-20403140D01*
X17451764Y-20375072D01*
X17458160Y-20353991D01*
X17468548Y-20334555D01*
X17482524Y-20317524D01*
X17499555Y-20303548D01*
X17518991Y-20293160D01*
X17540072Y-20286764D01*
X17568140Y-20284000D01*
X19381860Y-20284000D01*
X19409928Y-20286764D01*
X19409928Y-20286764D01*
G37*
G36*
X14459928Y-20286764D02*
G01*
X14481009Y-20293160D01*
X14500445Y-20303548D01*
X14517476Y-20317524D01*
X14531452Y-20334555D01*
X14541840Y-20353991D01*
X14548236Y-20375072D01*
X14551000Y-20403140D01*
X14551000Y-20866860D01*
X14548236Y-20894928D01*
X14541840Y-20916009D01*
X14531452Y-20935445D01*
X14517476Y-20952476D01*
X14500445Y-20966452D01*
X14481009Y-20976840D01*
X14459928Y-20983236D01*
X14431860Y-20986000D01*
X12618140Y-20986000D01*
X12590072Y-20983236D01*
X12568991Y-20976840D01*
X12549555Y-20966452D01*
X12532524Y-20952476D01*
X12518548Y-20935445D01*
X12508160Y-20916009D01*
X12501764Y-20894928D01*
X12499000Y-20866860D01*
X12499000Y-20403140D01*
X12501764Y-20375072D01*
X12508160Y-20353991D01*
X12518548Y-20334555D01*
X12532524Y-20317524D01*
X12549555Y-20303548D01*
X12568991Y-20293160D01*
X12590072Y-20286764D01*
X12618140Y-20284000D01*
X14431860Y-20284000D01*
X14459928Y-20286764D01*
X14459928Y-20286764D01*
G37*
G36*
X19409928Y-19016764D02*
G01*
X19431009Y-19023160D01*
X19450445Y-19033548D01*
X19467476Y-19047524D01*
X19481452Y-19064555D01*
X19491840Y-19083991D01*
X19498236Y-19105072D01*
X19501000Y-19133140D01*
X19501000Y-19596860D01*
X19498236Y-19624928D01*
X19491840Y-19646009D01*
X19481452Y-19665445D01*
X19467476Y-19682476D01*
X19450445Y-19696452D01*
X19431009Y-19706840D01*
X19409928Y-19713236D01*
X19381860Y-19716000D01*
X17568140Y-19716000D01*
X17540072Y-19713236D01*
X17518991Y-19706840D01*
X17499555Y-19696452D01*
X17482524Y-19682476D01*
X17468548Y-19665445D01*
X17458160Y-19646009D01*
X17451764Y-19624928D01*
X17449000Y-19596860D01*
X17449000Y-19133140D01*
X17451764Y-19105072D01*
X17458160Y-19083991D01*
X17468548Y-19064555D01*
X17482524Y-19047524D01*
X17499555Y-19033548D01*
X17518991Y-19023160D01*
X17540072Y-19016764D01*
X17568140Y-19014000D01*
X19381860Y-19014000D01*
X19409928Y-19016764D01*
X19409928Y-19016764D01*
G37*
G36*
X14459928Y-19016764D02*
G01*
X14481009Y-19023160D01*
X14500445Y-19033548D01*
X14517476Y-19047524D01*
X14531452Y-19064555D01*
X14541840Y-19083991D01*
X14548236Y-19105072D01*
X14551000Y-19133140D01*
X14551000Y-19596860D01*
X14548236Y-19624928D01*
X14541840Y-19646009D01*
X14531452Y-19665445D01*
X14517476Y-19682476D01*
X14500445Y-19696452D01*
X14481009Y-19706840D01*
X14459928Y-19713236D01*
X14431860Y-19716000D01*
X12618140Y-19716000D01*
X12590072Y-19713236D01*
X12568991Y-19706840D01*
X12549555Y-19696452D01*
X12532524Y-19682476D01*
X12518548Y-19665445D01*
X12508160Y-19646009D01*
X12501764Y-19624928D01*
X12499000Y-19596860D01*
X12499000Y-19133140D01*
X12501764Y-19105072D01*
X12508160Y-19083991D01*
X12518548Y-19064555D01*
X12532524Y-19047524D01*
X12549555Y-19033548D01*
X12568991Y-19023160D01*
X12590072Y-19016764D01*
X12618140Y-19014000D01*
X14431860Y-19014000D01*
X14459928Y-19016764D01*
X14459928Y-19016764D01*
G37*
G36*
X31651000Y-19651000D02*
G01*
X30549000Y-19651000D01*
X30549000Y-18849000D01*
X31651000Y-18849000D01*
X31651000Y-19651000D01*
X31651000Y-19651000D01*
G37*
G36*
X33651000Y-19651000D02*
G01*
X32549000Y-19651000D01*
X32549000Y-18849000D01*
X33651000Y-18849000D01*
X33651000Y-19651000D01*
X33651000Y-19651000D01*
G37*
G36*
X14459928Y-17746764D02*
G01*
X14481009Y-17753160D01*
X14500445Y-17763548D01*
X14517476Y-17777524D01*
X14531452Y-17794555D01*
X14541840Y-17813991D01*
X14548236Y-17835072D01*
X14551000Y-17863140D01*
X14551000Y-18326860D01*
X14548236Y-18354928D01*
X14541840Y-18376009D01*
X14531452Y-18395445D01*
X14517476Y-18412476D01*
X14500445Y-18426452D01*
X14481009Y-18436840D01*
X14459928Y-18443236D01*
X14431860Y-18446000D01*
X12618140Y-18446000D01*
X12590072Y-18443236D01*
X12568991Y-18436840D01*
X12549555Y-18426452D01*
X12532524Y-18412476D01*
X12518548Y-18395445D01*
X12508160Y-18376009D01*
X12501764Y-18354928D01*
X12499000Y-18326860D01*
X12499000Y-17863140D01*
X12501764Y-17835072D01*
X12508160Y-17813991D01*
X12518548Y-17794555D01*
X12532524Y-17777524D01*
X12549555Y-17763548D01*
X12568991Y-17753160D01*
X12590072Y-17746764D01*
X12618140Y-17744000D01*
X14431860Y-17744000D01*
X14459928Y-17746764D01*
X14459928Y-17746764D01*
G37*
G36*
X19409928Y-17746764D02*
G01*
X19431009Y-17753160D01*
X19450445Y-17763548D01*
X19467476Y-17777524D01*
X19481452Y-17794555D01*
X19491840Y-17813991D01*
X19498236Y-17835072D01*
X19501000Y-17863140D01*
X19501000Y-18326860D01*
X19498236Y-18354928D01*
X19491840Y-18376009D01*
X19481452Y-18395445D01*
X19467476Y-18412476D01*
X19450445Y-18426452D01*
X19431009Y-18436840D01*
X19409928Y-18443236D01*
X19381860Y-18446000D01*
X17568140Y-18446000D01*
X17540072Y-18443236D01*
X17518991Y-18436840D01*
X17499555Y-18426452D01*
X17482524Y-18412476D01*
X17468548Y-18395445D01*
X17458160Y-18376009D01*
X17451764Y-18354928D01*
X17449000Y-18326860D01*
X17449000Y-17863140D01*
X17451764Y-17835072D01*
X17458160Y-17813991D01*
X17468548Y-17794555D01*
X17482524Y-17777524D01*
X17499555Y-17763548D01*
X17518991Y-17753160D01*
X17540072Y-17746764D01*
X17568140Y-17744000D01*
X19381860Y-17744000D01*
X19409928Y-17746764D01*
X19409928Y-17746764D01*
G37*
G36*
X31751000Y-18051000D02*
G01*
X30949000Y-18051000D01*
X30949000Y-16949000D01*
X31751000Y-16949000D01*
X31751000Y-18051000D01*
X31751000Y-18051000D01*
G37*
G36*
X33251000Y-18051000D02*
G01*
X32449000Y-18051000D01*
X32449000Y-16949000D01*
X33251000Y-16949000D01*
X33251000Y-18051000D01*
X33251000Y-18051000D01*
G37*
G36*
X49496564Y-13989389D02*
G01*
X49687833Y-14068615D01*
X49687835Y-14068616D01*
X49859973Y-14183635D01*
X50006365Y-14330027D01*
X50121385Y-14502167D01*
X50200611Y-14693436D01*
X50241000Y-14896484D01*
X50241000Y-15103516D01*
X50200611Y-15306564D01*
X50121385Y-15497833D01*
X50121384Y-15497835D01*
X50006365Y-15669973D01*
X49859973Y-15816365D01*
X49687835Y-15931384D01*
X49687834Y-15931385D01*
X49687833Y-15931385D01*
X49496564Y-16010611D01*
X49293516Y-16051000D01*
X49086484Y-16051000D01*
X48883436Y-16010611D01*
X48692167Y-15931385D01*
X48692166Y-15931385D01*
X48692165Y-15931384D01*
X48520027Y-15816365D01*
X48373635Y-15669973D01*
X48258616Y-15497835D01*
X48258615Y-15497833D01*
X48179389Y-15306564D01*
X48139000Y-15103516D01*
X48139000Y-14896484D01*
X48179389Y-14693436D01*
X48258615Y-14502167D01*
X48373635Y-14330027D01*
X48520027Y-14183635D01*
X48692165Y-14068616D01*
X48692167Y-14068615D01*
X48883436Y-13989389D01*
X49086484Y-13949000D01*
X49293516Y-13949000D01*
X49496564Y-13989389D01*
X49496564Y-13989389D01*
G37*
G36*
X2116564Y-13989389D02*
G01*
X2307833Y-14068615D01*
X2307835Y-14068616D01*
X2479973Y-14183635D01*
X2626365Y-14330027D01*
X2741385Y-14502167D01*
X2820611Y-14693436D01*
X2861000Y-14896484D01*
X2861000Y-15103516D01*
X2820611Y-15306564D01*
X2741385Y-15497833D01*
X2741384Y-15497835D01*
X2626365Y-15669973D01*
X2479973Y-15816365D01*
X2307835Y-15931384D01*
X2307834Y-15931385D01*
X2307833Y-15931385D01*
X2116564Y-16010611D01*
X1913516Y-16051000D01*
X1706484Y-16051000D01*
X1503436Y-16010611D01*
X1312167Y-15931385D01*
X1312166Y-15931385D01*
X1312165Y-15931384D01*
X1140027Y-15816365D01*
X993635Y-15669973D01*
X878616Y-15497835D01*
X878615Y-15497833D01*
X799389Y-15306564D01*
X759000Y-15103516D01*
X759000Y-14896484D01*
X799389Y-14693436D01*
X878615Y-14502167D01*
X993635Y-14330027D01*
X1140027Y-14183635D01*
X1312165Y-14068616D01*
X1312167Y-14068615D01*
X1503436Y-13989389D01*
X1706484Y-13949000D01*
X1913516Y-13949000D01*
X2116564Y-13989389D01*
X2116564Y-13989389D01*
G37*
G36*
X33701000Y-13551000D02*
G01*
X32799000Y-13551000D01*
X32799000Y-12449000D01*
X33701000Y-12449000D01*
X33701000Y-13551000D01*
X33701000Y-13551000D01*
G37*
G36*
X35201000Y-13551000D02*
G01*
X34299000Y-13551000D01*
X34299000Y-12449000D01*
X35201000Y-12449000D01*
X35201000Y-13551000D01*
X35201000Y-13551000D01*
G37*
G36*
X31151000Y-13551000D02*
G01*
X30349000Y-13551000D01*
X30349000Y-12449000D01*
X31151000Y-12449000D01*
X31151000Y-13551000D01*
X31151000Y-13551000D01*
G37*
G36*
X38651000Y-13551000D02*
G01*
X37849000Y-13551000D01*
X37849000Y-12449000D01*
X38651000Y-12449000D01*
X38651000Y-13551000D01*
X38651000Y-13551000D01*
G37*
G36*
X40151000Y-13551000D02*
G01*
X39349000Y-13551000D01*
X39349000Y-12449000D01*
X40151000Y-12449000D01*
X40151000Y-13551000D01*
X40151000Y-13551000D01*
G37*
G36*
X29651000Y-13551000D02*
G01*
X28849000Y-13551000D01*
X28849000Y-12449000D01*
X29651000Y-12449000D01*
X29651000Y-13551000D01*
X29651000Y-13551000D01*
G37*
G36*
X42651000Y-13551000D02*
G01*
X41849000Y-13551000D01*
X41849000Y-12449000D01*
X42651000Y-12449000D01*
X42651000Y-13551000D01*
X42651000Y-13551000D01*
G37*
G36*
X44151000Y-13551000D02*
G01*
X43349000Y-13551000D01*
X43349000Y-12449000D01*
X44151000Y-12449000D01*
X44151000Y-13551000D01*
X44151000Y-13551000D01*
G37*
G36*
X20575000Y-11305000D02*
G01*
X18825000Y-11305000D01*
X18825000Y-10505000D01*
X20575000Y-10505000D01*
X20575000Y-11305000D01*
X20575000Y-11305000D01*
G37*
G36*
X15175000Y-11305000D02*
G01*
X13425000Y-11305000D01*
X13425000Y-10505000D01*
X15175000Y-10505000D01*
X15175000Y-11305000D01*
X15175000Y-11305000D01*
G37*
G36*
X23551000Y-11151000D02*
G01*
X22449000Y-11151000D01*
X22449000Y-10349000D01*
X23551000Y-10349000D01*
X23551000Y-11151000D01*
X23551000Y-11151000D01*
G37*
G36*
X49496564Y-8989389D02*
G01*
X49687833Y-9068615D01*
X49687835Y-9068616D01*
X49859973Y-9183635D01*
X50006365Y-9330027D01*
X50121385Y-9502167D01*
X50200611Y-9693436D01*
X50241000Y-9896484D01*
X50241000Y-10103516D01*
X50200611Y-10306564D01*
X50183033Y-10349000D01*
X50121384Y-10497835D01*
X50006365Y-10669973D01*
X49859973Y-10816365D01*
X49687835Y-10931384D01*
X49687834Y-10931385D01*
X49687833Y-10931385D01*
X49496564Y-11010611D01*
X49293516Y-11051000D01*
X49086484Y-11051000D01*
X48883436Y-11010611D01*
X48692167Y-10931385D01*
X48692166Y-10931385D01*
X48692165Y-10931384D01*
X48520027Y-10816365D01*
X48373635Y-10669973D01*
X48258616Y-10497835D01*
X48196967Y-10349000D01*
X48179389Y-10306564D01*
X48139000Y-10103516D01*
X48139000Y-9896484D01*
X48179389Y-9693436D01*
X48258615Y-9502167D01*
X48373635Y-9330027D01*
X48520027Y-9183635D01*
X48692165Y-9068616D01*
X48692167Y-9068615D01*
X48883436Y-8989389D01*
X49086484Y-8949000D01*
X49293516Y-8949000D01*
X49496564Y-8989389D01*
X49496564Y-8989389D01*
G37*
G36*
X2116564Y-8989389D02*
G01*
X2307833Y-9068615D01*
X2307835Y-9068616D01*
X2479973Y-9183635D01*
X2626365Y-9330027D01*
X2741385Y-9502167D01*
X2820611Y-9693436D01*
X2861000Y-9896484D01*
X2861000Y-10103516D01*
X2820611Y-10306564D01*
X2803033Y-10349000D01*
X2741384Y-10497835D01*
X2626365Y-10669973D01*
X2479973Y-10816365D01*
X2307835Y-10931384D01*
X2307834Y-10931385D01*
X2307833Y-10931385D01*
X2116564Y-11010611D01*
X1913516Y-11051000D01*
X1706484Y-11051000D01*
X1503436Y-11010611D01*
X1312167Y-10931385D01*
X1312166Y-10931385D01*
X1312165Y-10931384D01*
X1140027Y-10816365D01*
X993635Y-10669973D01*
X878616Y-10497835D01*
X816967Y-10349000D01*
X799389Y-10306564D01*
X759000Y-10103516D01*
X759000Y-9896484D01*
X799389Y-9693436D01*
X878615Y-9502167D01*
X993635Y-9330027D01*
X1140027Y-9183635D01*
X1312165Y-9068616D01*
X1312167Y-9068615D01*
X1503436Y-8989389D01*
X1706484Y-8949000D01*
X1913516Y-8949000D01*
X2116564Y-8989389D01*
X2116564Y-8989389D01*
G37*
G36*
X40151000Y-10551000D02*
G01*
X39349000Y-10551000D01*
X39349000Y-9449000D01*
X40151000Y-9449000D01*
X40151000Y-10551000D01*
X40151000Y-10551000D01*
G37*
G36*
X31151000Y-10551000D02*
G01*
X30349000Y-10551000D01*
X30349000Y-9449000D01*
X31151000Y-9449000D01*
X31151000Y-10551000D01*
X31151000Y-10551000D01*
G37*
G36*
X29651000Y-10551000D02*
G01*
X28849000Y-10551000D01*
X28849000Y-9449000D01*
X29651000Y-9449000D01*
X29651000Y-10551000D01*
X29651000Y-10551000D01*
G37*
G36*
X44151000Y-10551000D02*
G01*
X43349000Y-10551000D01*
X43349000Y-9449000D01*
X44151000Y-9449000D01*
X44151000Y-10551000D01*
X44151000Y-10551000D01*
G37*
G36*
X42651000Y-10551000D02*
G01*
X41849000Y-10551000D01*
X41849000Y-9449000D01*
X42651000Y-9449000D01*
X42651000Y-10551000D01*
X42651000Y-10551000D01*
G37*
G36*
X38651000Y-10551000D02*
G01*
X37849000Y-10551000D01*
X37849000Y-9449000D01*
X38651000Y-9449000D01*
X38651000Y-10551000D01*
X38651000Y-10551000D01*
G37*
G36*
X35201000Y-10551000D02*
G01*
X34299000Y-10551000D01*
X34299000Y-9449000D01*
X35201000Y-9449000D01*
X35201000Y-10551000D01*
X35201000Y-10551000D01*
G37*
G36*
X33701000Y-10551000D02*
G01*
X32799000Y-10551000D01*
X32799000Y-9449000D01*
X33701000Y-9449000D01*
X33701000Y-10551000D01*
X33701000Y-10551000D01*
G37*
G36*
X11551000Y-10151000D02*
G01*
X10449000Y-10151000D01*
X10449000Y-9349000D01*
X11551000Y-9349000D01*
X11551000Y-10151000D01*
X11551000Y-10151000D01*
G37*
G36*
X15175000Y-10035000D02*
G01*
X13425000Y-10035000D01*
X13425000Y-9235000D01*
X15175000Y-9235000D01*
X15175000Y-10035000D01*
X15175000Y-10035000D01*
G37*
G36*
X20575000Y-10035000D02*
G01*
X18825000Y-10035000D01*
X18825000Y-9235000D01*
X20575000Y-9235000D01*
X20575000Y-10035000D01*
X20575000Y-10035000D01*
G37*
G36*
X23551000Y-9651000D02*
G01*
X22449000Y-9651000D01*
X22449000Y-8849000D01*
X23551000Y-8849000D01*
X23551000Y-9651000D01*
X23551000Y-9651000D01*
G37*
G36*
X20575000Y-8765000D02*
G01*
X18825000Y-8765000D01*
X18825000Y-7965000D01*
X20575000Y-7965000D01*
X20575000Y-8765000D01*
X20575000Y-8765000D01*
G37*
G36*
X15175000Y-8765000D02*
G01*
X13425000Y-8765000D01*
X13425000Y-7965000D01*
X15175000Y-7965000D01*
X15175000Y-8765000D01*
X15175000Y-8765000D01*
G37*
G36*
X11551000Y-8651000D02*
G01*
X10449000Y-8651000D01*
X10449000Y-7849000D01*
X11551000Y-7849000D01*
X11551000Y-8651000D01*
X11551000Y-8651000D01*
G37*
G36*
X40501000Y-8401000D02*
G01*
X39499000Y-8401000D01*
X39499000Y-7499000D01*
X40501000Y-7499000D01*
X40501000Y-8401000D01*
X40501000Y-8401000D01*
G37*
G36*
X23551000Y-8151000D02*
G01*
X22449000Y-8151000D01*
X22449000Y-7349000D01*
X23551000Y-7349000D01*
X23551000Y-8151000D01*
X23551000Y-8151000D01*
G37*
G36*
X15175000Y-7495000D02*
G01*
X13425000Y-7495000D01*
X13425000Y-6695000D01*
X15175000Y-6695000D01*
X15175000Y-7495000D01*
X15175000Y-7495000D01*
G37*
G36*
X20575000Y-7495000D02*
G01*
X18825000Y-7495000D01*
X18825000Y-6695000D01*
X20575000Y-6695000D01*
X20575000Y-7495000D01*
X20575000Y-7495000D01*
G37*
G36*
X42501000Y-7451000D02*
G01*
X41499000Y-7451000D01*
X41499000Y-6549000D01*
X42501000Y-6549000D01*
X42501000Y-7451000D01*
X42501000Y-7451000D01*
G37*
G36*
X23551000Y-6651000D02*
G01*
X22449000Y-6651000D01*
X22449000Y-5849000D01*
X23551000Y-5849000D01*
X23551000Y-6651000D01*
X23551000Y-6651000D01*
G37*
G36*
X40501000Y-6501000D02*
G01*
X39499000Y-6501000D01*
X39499000Y-5599000D01*
X40501000Y-5599000D01*
X40501000Y-6501000D01*
X40501000Y-6501000D01*
G37*
G36*
X2116564Y-3989389D02*
G01*
X2307833Y-4068615D01*
X2307835Y-4068616D01*
X2479973Y-4183635D01*
X2626365Y-4330027D01*
X2741385Y-4502167D01*
X2820611Y-4693436D01*
X2861000Y-4896484D01*
X2861000Y-5103516D01*
X2820611Y-5306564D01*
X2741385Y-5497833D01*
X2741384Y-5497835D01*
X2626365Y-5669973D01*
X2479973Y-5816365D01*
X2307835Y-5931384D01*
X2307834Y-5931385D01*
X2307833Y-5931385D01*
X2116564Y-6010611D01*
X1913516Y-6051000D01*
X1706484Y-6051000D01*
X1503436Y-6010611D01*
X1312167Y-5931385D01*
X1312166Y-5931385D01*
X1312165Y-5931384D01*
X1140027Y-5816365D01*
X993635Y-5669973D01*
X878616Y-5497835D01*
X878615Y-5497833D01*
X799389Y-5306564D01*
X759000Y-5103516D01*
X759000Y-4896484D01*
X799389Y-4693436D01*
X878615Y-4502167D01*
X993635Y-4330027D01*
X1140027Y-4183635D01*
X1312165Y-4068616D01*
X1312167Y-4068615D01*
X1503436Y-3989389D01*
X1706484Y-3949000D01*
X1913516Y-3949000D01*
X2116564Y-3989389D01*
X2116564Y-3989389D01*
G37*
G36*
X49496564Y-3989389D02*
G01*
X49687833Y-4068615D01*
X49687835Y-4068616D01*
X49859973Y-4183635D01*
X50006365Y-4330027D01*
X50121385Y-4502167D01*
X50200611Y-4693436D01*
X50241000Y-4896484D01*
X50241000Y-5103516D01*
X50200611Y-5306564D01*
X50121385Y-5497833D01*
X50121384Y-5497835D01*
X50006365Y-5669973D01*
X49859973Y-5816365D01*
X49687835Y-5931384D01*
X49687834Y-5931385D01*
X49687833Y-5931385D01*
X49496564Y-6010611D01*
X49293516Y-6051000D01*
X49086484Y-6051000D01*
X48883436Y-6010611D01*
X48692167Y-5931385D01*
X48692166Y-5931385D01*
X48692165Y-5931384D01*
X48520027Y-5816365D01*
X48373635Y-5669973D01*
X48258616Y-5497835D01*
X48258615Y-5497833D01*
X48179389Y-5306564D01*
X48139000Y-5103516D01*
X48139000Y-4896484D01*
X48179389Y-4693436D01*
X48258615Y-4502167D01*
X48373635Y-4330027D01*
X48520027Y-4183635D01*
X48692165Y-4068616D01*
X48692167Y-4068615D01*
X48883436Y-3989389D01*
X49086484Y-3949000D01*
X49293516Y-3949000D01*
X49496564Y-3989389D01*
X49496564Y-3989389D01*
G37*
G36*
X35201000Y-5551000D02*
G01*
X34299000Y-5551000D01*
X34299000Y-4449000D01*
X35201000Y-4449000D01*
X35201000Y-5551000D01*
X35201000Y-5551000D01*
G37*
G36*
X29651000Y-5551000D02*
G01*
X28849000Y-5551000D01*
X28849000Y-4449000D01*
X29651000Y-4449000D01*
X29651000Y-5551000D01*
X29651000Y-5551000D01*
G37*
G36*
X31151000Y-5551000D02*
G01*
X30349000Y-5551000D01*
X30349000Y-4449000D01*
X31151000Y-4449000D01*
X31151000Y-5551000D01*
X31151000Y-5551000D01*
G37*
G36*
X33701000Y-5551000D02*
G01*
X32799000Y-5551000D01*
X32799000Y-4449000D01*
X33701000Y-4449000D01*
X33701000Y-5551000D01*
X33701000Y-5551000D01*
G37*
G36*
X18551000Y-4651000D02*
G01*
X17449000Y-4651000D01*
X17449000Y-3349000D01*
X18551000Y-3349000D01*
X18551000Y-4651000D01*
X18551000Y-4651000D01*
G37*
G36*
X16551000Y-4651000D02*
G01*
X15449000Y-4651000D01*
X15449000Y-3349000D01*
X16551000Y-3349000D01*
X16551000Y-4651000D01*
X16551000Y-4651000D01*
G37*
G36*
X227290Y974381D02*
G01*
X291689Y961571D01*
X473678Y886189D01*
X637463Y776751D01*
X776751Y637463D01*
X886189Y473678D01*
X961571Y291689D01*
X961571Y291688D01*
X1000000Y98493D01*
X1000000Y-98493D01*
X984458Y-176627D01*
X961571Y-291689D01*
X886189Y-473678D01*
X776751Y-637463D01*
X637463Y-776751D01*
X473678Y-886189D01*
X291689Y-961571D01*
X227290Y-974381D01*
X98493Y-1000000D01*
X-98493Y-1000000D01*
X-227290Y-974381D01*
X-291689Y-961571D01*
X-473678Y-886189D01*
X-637463Y-776751D01*
X-776751Y-637463D01*
X-886189Y-473678D01*
X-961571Y-291689D01*
X-984458Y-176627D01*
X-1000000Y-98493D01*
X-1000000Y98493D01*
X-961571Y291688D01*
X-961571Y291689D01*
X-886189Y473678D01*
X-776751Y637463D01*
X-637463Y776751D01*
X-473678Y886189D01*
X-291689Y961571D01*
X-227290Y974381D01*
X-98493Y1000000D01*
X98493Y1000000D01*
X227290Y974381D01*
X227290Y974381D01*
G37*
G36*
X51227290Y974381D02*
G01*
X51291689Y961571D01*
X51473678Y886189D01*
X51637463Y776751D01*
X51776751Y637463D01*
X51886189Y473678D01*
X51961571Y291689D01*
X51961571Y291688D01*
X52000000Y98493D01*
X52000000Y-98493D01*
X51984458Y-176627D01*
X51961571Y-291689D01*
X51886189Y-473678D01*
X51776751Y-637463D01*
X51637463Y-776751D01*
X51473678Y-886189D01*
X51291689Y-961571D01*
X51227290Y-974381D01*
X51098493Y-1000000D01*
X50901507Y-1000000D01*
X50772710Y-974381D01*
X50708311Y-961571D01*
X50526322Y-886189D01*
X50362537Y-776751D01*
X50223249Y-637463D01*
X50113811Y-473678D01*
X50038429Y-291689D01*
X50015542Y-176627D01*
X50000000Y-98493D01*
X50000000Y98493D01*
X50038429Y291688D01*
X50038429Y291689D01*
X50113811Y473678D01*
X50223249Y637463D01*
X50362537Y776751D01*
X50526322Y886189D01*
X50708311Y961571D01*
X50772710Y974381D01*
X50901507Y1000000D01*
X51098493Y1000000D01*
X51227290Y974381D01*
X51227290Y974381D01*
G37*
G36*
X17220442Y894482D02*
G01*
X17286627Y887963D01*
X17456466Y836443D01*
X17612991Y752778D01*
X17648729Y723448D01*
X17750186Y640186D01*
X17833448Y538729D01*
X17862778Y502991D01*
X17946443Y346466D01*
X17997963Y176627D01*
X18015359Y0D01*
X17997963Y-176627D01*
X17946443Y-346466D01*
X17862778Y-502991D01*
X17833448Y-538729D01*
X17750186Y-640186D01*
X17648729Y-723448D01*
X17612991Y-752778D01*
X17456466Y-836443D01*
X17286627Y-887963D01*
X17220442Y-894482D01*
X17154260Y-901000D01*
X17065740Y-901000D01*
X16999558Y-894482D01*
X16933373Y-887963D01*
X16763534Y-836443D01*
X16607009Y-752778D01*
X16571271Y-723448D01*
X16469814Y-640186D01*
X16386552Y-538729D01*
X16357222Y-502991D01*
X16273557Y-346466D01*
X16222037Y-176627D01*
X16204641Y0D01*
X16222037Y176627D01*
X16273557Y346466D01*
X16357222Y502991D01*
X16386552Y538729D01*
X16469814Y640186D01*
X16571271Y723448D01*
X16607009Y752778D01*
X16763534Y836443D01*
X16933373Y887963D01*
X16999558Y894482D01*
X17065740Y901000D01*
X17154260Y901000D01*
X17220442Y894482D01*
X17220442Y894482D01*
G37*
G36*
X35791000Y-901000D02*
G01*
X33989000Y-901000D01*
X33989000Y901000D01*
X35791000Y901000D01*
X35791000Y-901000D01*
X35791000Y-901000D01*
G37*
G36*
X32460442Y894482D02*
G01*
X32526627Y887963D01*
X32696466Y836443D01*
X32852991Y752778D01*
X32888729Y723448D01*
X32990186Y640186D01*
X33073448Y538729D01*
X33102778Y502991D01*
X33186443Y346466D01*
X33237963Y176627D01*
X33255359Y0D01*
X33237963Y-176627D01*
X33186443Y-346466D01*
X33102778Y-502991D01*
X33073448Y-538729D01*
X32990186Y-640186D01*
X32888729Y-723448D01*
X32852991Y-752778D01*
X32696466Y-836443D01*
X32526627Y-887963D01*
X32460442Y-894482D01*
X32394260Y-901000D01*
X32305740Y-901000D01*
X32239558Y-894482D01*
X32173373Y-887963D01*
X32003534Y-836443D01*
X31847009Y-752778D01*
X31811271Y-723448D01*
X31709814Y-640186D01*
X31626552Y-538729D01*
X31597222Y-502991D01*
X31513557Y-346466D01*
X31462037Y-176627D01*
X31444641Y0D01*
X31462037Y176627D01*
X31513557Y346466D01*
X31597222Y502991D01*
X31626552Y538729D01*
X31709814Y640186D01*
X31811271Y723448D01*
X31847009Y752778D01*
X32003534Y836443D01*
X32173373Y887963D01*
X32239558Y894482D01*
X32305740Y901000D01*
X32394260Y901000D01*
X32460442Y894482D01*
X32460442Y894482D01*
G37*
G36*
X29920442Y894482D02*
G01*
X29986627Y887963D01*
X30156466Y836443D01*
X30312991Y752778D01*
X30348729Y723448D01*
X30450186Y640186D01*
X30533448Y538729D01*
X30562778Y502991D01*
X30646443Y346466D01*
X30697963Y176627D01*
X30715359Y0D01*
X30697963Y-176627D01*
X30646443Y-346466D01*
X30562778Y-502991D01*
X30533448Y-538729D01*
X30450186Y-640186D01*
X30348729Y-723448D01*
X30312991Y-752778D01*
X30156466Y-836443D01*
X29986627Y-887963D01*
X29920442Y-894482D01*
X29854260Y-901000D01*
X29765740Y-901000D01*
X29699558Y-894482D01*
X29633373Y-887963D01*
X29463534Y-836443D01*
X29307009Y-752778D01*
X29271271Y-723448D01*
X29169814Y-640186D01*
X29086552Y-538729D01*
X29057222Y-502991D01*
X28973557Y-346466D01*
X28922037Y-176627D01*
X28904641Y0D01*
X28922037Y176627D01*
X28973557Y346466D01*
X29057222Y502991D01*
X29086552Y538729D01*
X29169814Y640186D01*
X29271271Y723448D01*
X29307009Y752778D01*
X29463534Y836443D01*
X29633373Y887963D01*
X29699558Y894482D01*
X29765740Y901000D01*
X29854260Y901000D01*
X29920442Y894482D01*
X29920442Y894482D01*
G37*
G36*
X27380442Y894482D02*
G01*
X27446627Y887963D01*
X27616466Y836443D01*
X27772991Y752778D01*
X27808729Y723448D01*
X27910186Y640186D01*
X27993448Y538729D01*
X28022778Y502991D01*
X28106443Y346466D01*
X28157963Y176627D01*
X28175359Y0D01*
X28157963Y-176627D01*
X28106443Y-346466D01*
X28022778Y-502991D01*
X27993448Y-538729D01*
X27910186Y-640186D01*
X27808729Y-723448D01*
X27772991Y-752778D01*
X27616466Y-836443D01*
X27446627Y-887963D01*
X27380442Y-894482D01*
X27314260Y-901000D01*
X27225740Y-901000D01*
X27159558Y-894482D01*
X27093373Y-887963D01*
X26923534Y-836443D01*
X26767009Y-752778D01*
X26731271Y-723448D01*
X26629814Y-640186D01*
X26546552Y-538729D01*
X26517222Y-502991D01*
X26433557Y-346466D01*
X26382037Y-176627D01*
X26364641Y0D01*
X26382037Y176627D01*
X26433557Y346466D01*
X26517222Y502991D01*
X26546552Y538729D01*
X26629814Y640186D01*
X26731271Y723448D01*
X26767009Y752778D01*
X26923534Y836443D01*
X27093373Y887963D01*
X27159558Y894482D01*
X27225740Y901000D01*
X27314260Y901000D01*
X27380442Y894482D01*
X27380442Y894482D01*
G37*
G36*
X24840442Y894482D02*
G01*
X24906627Y887963D01*
X25076466Y836443D01*
X25232991Y752778D01*
X25268729Y723448D01*
X25370186Y640186D01*
X25453448Y538729D01*
X25482778Y502991D01*
X25566443Y346466D01*
X25617963Y176627D01*
X25635359Y0D01*
X25617963Y-176627D01*
X25566443Y-346466D01*
X25482778Y-502991D01*
X25453448Y-538729D01*
X25370186Y-640186D01*
X25268729Y-723448D01*
X25232991Y-752778D01*
X25076466Y-836443D01*
X24906627Y-887963D01*
X24840442Y-894482D01*
X24774260Y-901000D01*
X24685740Y-901000D01*
X24619558Y-894482D01*
X24553373Y-887963D01*
X24383534Y-836443D01*
X24227009Y-752778D01*
X24191271Y-723448D01*
X24089814Y-640186D01*
X24006552Y-538729D01*
X23977222Y-502991D01*
X23893557Y-346466D01*
X23842037Y-176627D01*
X23824641Y0D01*
X23842037Y176627D01*
X23893557Y346466D01*
X23977222Y502991D01*
X24006552Y538729D01*
X24089814Y640186D01*
X24191271Y723448D01*
X24227009Y752778D01*
X24383534Y836443D01*
X24553373Y887963D01*
X24619558Y894482D01*
X24685740Y901000D01*
X24774260Y901000D01*
X24840442Y894482D01*
X24840442Y894482D01*
G37*
G36*
X22300442Y894482D02*
G01*
X22366627Y887963D01*
X22536466Y836443D01*
X22692991Y752778D01*
X22728729Y723448D01*
X22830186Y640186D01*
X22913448Y538729D01*
X22942778Y502991D01*
X23026443Y346466D01*
X23077963Y176627D01*
X23095359Y0D01*
X23077963Y-176627D01*
X23026443Y-346466D01*
X22942778Y-502991D01*
X22913448Y-538729D01*
X22830186Y-640186D01*
X22728729Y-723448D01*
X22692991Y-752778D01*
X22536466Y-836443D01*
X22366627Y-887963D01*
X22300442Y-894482D01*
X22234260Y-901000D01*
X22145740Y-901000D01*
X22079558Y-894482D01*
X22013373Y-887963D01*
X21843534Y-836443D01*
X21687009Y-752778D01*
X21651271Y-723448D01*
X21549814Y-640186D01*
X21466552Y-538729D01*
X21437222Y-502991D01*
X21353557Y-346466D01*
X21302037Y-176627D01*
X21284641Y0D01*
X21302037Y176627D01*
X21353557Y346466D01*
X21437222Y502991D01*
X21466552Y538729D01*
X21549814Y640186D01*
X21651271Y723448D01*
X21687009Y752778D01*
X21843534Y836443D01*
X22013373Y887963D01*
X22079558Y894482D01*
X22145740Y901000D01*
X22234260Y901000D01*
X22300442Y894482D01*
X22300442Y894482D01*
G37*
G36*
X19760442Y894482D02*
G01*
X19826627Y887963D01*
X19996466Y836443D01*
X20152991Y752778D01*
X20188729Y723448D01*
X20290186Y640186D01*
X20373448Y538729D01*
X20402778Y502991D01*
X20486443Y346466D01*
X20537963Y176627D01*
X20555359Y0D01*
X20537963Y-176627D01*
X20486443Y-346466D01*
X20402778Y-502991D01*
X20373448Y-538729D01*
X20290186Y-640186D01*
X20188729Y-723448D01*
X20152991Y-752778D01*
X19996466Y-836443D01*
X19826627Y-887963D01*
X19760442Y-894482D01*
X19694260Y-901000D01*
X19605740Y-901000D01*
X19539558Y-894482D01*
X19473373Y-887963D01*
X19303534Y-836443D01*
X19147009Y-752778D01*
X19111271Y-723448D01*
X19009814Y-640186D01*
X18926552Y-538729D01*
X18897222Y-502991D01*
X18813557Y-346466D01*
X18762037Y-176627D01*
X18744641Y0D01*
X18762037Y176627D01*
X18813557Y346466D01*
X18897222Y502991D01*
X18926552Y538729D01*
X19009814Y640186D01*
X19111271Y723448D01*
X19147009Y752778D01*
X19303534Y836443D01*
X19473373Y887963D01*
X19539558Y894482D01*
X19605740Y901000D01*
X19694260Y901000D01*
X19760442Y894482D01*
X19760442Y894482D01*
G37*
M02*
