M48
INCH
T1C0.0130
T2C0.0394
T3C0.0429
T4C0.0470
%
G90
G05
T1
X004449Y-007441
X004449Y-008110
X004449Y-008819
X004823Y-011929
X004961Y-003780
X005276Y-013976
X005315Y-006654
X005709Y-001575
X005906Y-010433
X005906Y-013031
X005906Y-014409
X006496Y-013976
X006693Y-010433
X006969Y-011929
X007087Y-015630
X007283Y-006575
X007283Y-009213
X007756Y-001969
X007756Y-004764
X009173Y-011398
X009764Y-009134
X009803Y-010079
X009921Y-011969
X010236Y-007874
X010866Y-012283
X011299Y-010650
X011299Y-011398
X011378Y-009016
X011693Y-009843
X012244Y-012008
X013465Y-014252
X013543Y-006890
X013543Y-008150
X013661Y-009843
X013661Y-010630
X013681Y-005748
X015650Y-004528
X015650Y-012795
X016181Y-012795
X016220Y-004528
T2
X006736Y000000
X007736Y000000
X008736Y000000
X009736Y000000
X010736Y000000
X011736Y000000
X012736Y000000
X013736Y000000
X000000Y-009055
X000000Y-010055
T3
X001150Y-012780
X001150Y-014780
X003150Y-012780
X003150Y-013780
X003150Y-014780
T4
X000713Y-001969
X000713Y-003937
X000713Y-005906
X019366Y-010236
X019366Y-012205
X019366Y-014173
X019366Y-001969
X019366Y-003937
X019366Y-005906
T0
M30
