G04 #@! TF.GenerationSoftware,KiCad,Pcbnew,5.1.6-c6e7f7d~86~ubuntu18.04.1*
G04 #@! TF.CreationDate,2020-06-26T16:23:30-07:00*
G04 #@! TF.ProjectId,VehicleAccessoryController,56656869-636c-4654-9163-636573736f72,1.0*
G04 #@! TF.SameCoordinates,Original*
G04 #@! TF.FileFunction,Soldermask,Bot*
G04 #@! TF.FilePolarity,Negative*
%FSLAX46Y46*%
G04 Gerber Fmt 4.6, Leading zero omitted, Abs format (unit mm)*
G04 Created by KiCad (PCBNEW 5.1.6-c6e7f7d~86~ubuntu18.04.1) date 2020-06-26 16:23:30*
%MOMM*%
%LPD*%
G01*
G04 APERTURE LIST*
%ADD10C,0.350000*%
%ADD11C,0.508000*%
%ADD12C,0.100000*%
G04 APERTURE END LIST*
D10*
X160678571Y-68878571D02*
X159178571Y-68878571D01*
X159178571Y-69235714D01*
X159250000Y-69450000D01*
X159392857Y-69592857D01*
X159535714Y-69664285D01*
X159821428Y-69735714D01*
X160035714Y-69735714D01*
X160321428Y-69664285D01*
X160464285Y-69592857D01*
X160607142Y-69450000D01*
X160678571Y-69235714D01*
X160678571Y-68878571D01*
X160607142Y-70950000D02*
X160678571Y-70807142D01*
X160678571Y-70521428D01*
X160607142Y-70378571D01*
X160464285Y-70307142D01*
X159892857Y-70307142D01*
X159750000Y-70378571D01*
X159678571Y-70521428D01*
X159678571Y-70807142D01*
X159750000Y-70950000D01*
X159892857Y-71021428D01*
X160035714Y-71021428D01*
X160178571Y-70307142D01*
X160607142Y-71592857D02*
X160678571Y-71735714D01*
X160678571Y-72021428D01*
X160607142Y-72164285D01*
X160464285Y-72235714D01*
X160392857Y-72235714D01*
X160250000Y-72164285D01*
X160178571Y-72021428D01*
X160178571Y-71807142D01*
X160107142Y-71664285D01*
X159964285Y-71592857D01*
X159892857Y-71592857D01*
X159750000Y-71664285D01*
X159678571Y-71807142D01*
X159678571Y-72021428D01*
X159750000Y-72164285D01*
X160678571Y-72878571D02*
X159678571Y-72878571D01*
X159178571Y-72878571D02*
X159250000Y-72807142D01*
X159321428Y-72878571D01*
X159250000Y-72950000D01*
X159178571Y-72878571D01*
X159321428Y-72878571D01*
X159678571Y-74235714D02*
X160892857Y-74235714D01*
X161035714Y-74164285D01*
X161107142Y-74092857D01*
X161178571Y-73950000D01*
X161178571Y-73735714D01*
X161107142Y-73592857D01*
X160607142Y-74235714D02*
X160678571Y-74092857D01*
X160678571Y-73807142D01*
X160607142Y-73664285D01*
X160535714Y-73592857D01*
X160392857Y-73521428D01*
X159964285Y-73521428D01*
X159821428Y-73592857D01*
X159750000Y-73664285D01*
X159678571Y-73807142D01*
X159678571Y-74092857D01*
X159750000Y-74235714D01*
X159678571Y-74950000D02*
X160678571Y-74950000D01*
X159821428Y-74950000D02*
X159750000Y-75021428D01*
X159678571Y-75164285D01*
X159678571Y-75378571D01*
X159750000Y-75521428D01*
X159892857Y-75592857D01*
X160678571Y-75592857D01*
X160607142Y-76878571D02*
X160678571Y-76735714D01*
X160678571Y-76450000D01*
X160607142Y-76307142D01*
X160464285Y-76235714D01*
X159892857Y-76235714D01*
X159750000Y-76307142D01*
X159678571Y-76450000D01*
X159678571Y-76735714D01*
X159750000Y-76878571D01*
X159892857Y-76950000D01*
X160035714Y-76950000D01*
X160178571Y-76235714D01*
X160678571Y-78235714D02*
X159178571Y-78235714D01*
X160607142Y-78235714D02*
X160678571Y-78092857D01*
X160678571Y-77807142D01*
X160607142Y-77664285D01*
X160535714Y-77592857D01*
X160392857Y-77521428D01*
X159964285Y-77521428D01*
X159821428Y-77592857D01*
X159750000Y-77664285D01*
X159678571Y-77807142D01*
X159678571Y-78092857D01*
X159750000Y-78235714D01*
X160678571Y-80092857D02*
X159178571Y-80092857D01*
X159750000Y-80092857D02*
X159678571Y-80235714D01*
X159678571Y-80521428D01*
X159750000Y-80664285D01*
X159821428Y-80735714D01*
X159964285Y-80807142D01*
X160392857Y-80807142D01*
X160535714Y-80735714D01*
X160607142Y-80664285D01*
X160678571Y-80521428D01*
X160678571Y-80235714D01*
X160607142Y-80092857D01*
X159678571Y-81307142D02*
X160678571Y-81664285D01*
X159678571Y-82021428D02*
X160678571Y-81664285D01*
X161035714Y-81521428D01*
X161107142Y-81450000D01*
X161178571Y-81307142D01*
X159178571Y-84021428D02*
X159178571Y-84307142D01*
X159250000Y-84450000D01*
X159392857Y-84592857D01*
X159678571Y-84664285D01*
X160178571Y-84664285D01*
X160464285Y-84592857D01*
X160607142Y-84450000D01*
X160678571Y-84307142D01*
X160678571Y-84021428D01*
X160607142Y-83878571D01*
X160464285Y-83735714D01*
X160178571Y-83664285D01*
X159678571Y-83664285D01*
X159392857Y-83735714D01*
X159250000Y-83878571D01*
X159178571Y-84021428D01*
X160678571Y-85307142D02*
X159178571Y-85307142D01*
X159178571Y-85878571D01*
X159250000Y-86021428D01*
X159321428Y-86092857D01*
X159464285Y-86164285D01*
X159678571Y-86164285D01*
X159821428Y-86092857D01*
X159892857Y-86021428D01*
X159964285Y-85878571D01*
X159964285Y-85307142D01*
X160607142Y-86735714D02*
X160678571Y-86950000D01*
X160678571Y-87307142D01*
X160607142Y-87450000D01*
X160535714Y-87521428D01*
X160392857Y-87592857D01*
X160250000Y-87592857D01*
X160107142Y-87521428D01*
X160035714Y-87450000D01*
X159964285Y-87307142D01*
X159892857Y-87021428D01*
X159821428Y-86878571D01*
X159750000Y-86807142D01*
X159607142Y-86735714D01*
X159464285Y-86735714D01*
X159321428Y-86807142D01*
X159250000Y-86878571D01*
X159178571Y-87021428D01*
X159178571Y-87378571D01*
X159250000Y-87592857D01*
D11*
X157900000Y-140700000D02*
X157900000Y-112000000D01*
X157900000Y-112000000D02*
X137000000Y-112000000D01*
X137000000Y-112000000D02*
X137000000Y-128000000D01*
X128000000Y-128000000D02*
X137000000Y-128000000D01*
X128000000Y-140700000D02*
X128000000Y-91210000D01*
X128000000Y-91210000D02*
X157910000Y-91210000D01*
X157900000Y-91210000D02*
X157900000Y-65500000D01*
D12*
G36*
X172595285Y-137418234D02*
G01*
X172691981Y-137437468D01*
X172874151Y-137512926D01*
X173038100Y-137622473D01*
X173177527Y-137761900D01*
X173287074Y-137925849D01*
X173362532Y-138108019D01*
X173401000Y-138301410D01*
X173401000Y-138498590D01*
X173362532Y-138691981D01*
X173287074Y-138874151D01*
X173177527Y-139038100D01*
X173038100Y-139177527D01*
X172874151Y-139287074D01*
X172691981Y-139362532D01*
X172595285Y-139381766D01*
X172498591Y-139401000D01*
X172301409Y-139401000D01*
X172204715Y-139381766D01*
X172108019Y-139362532D01*
X171925849Y-139287074D01*
X171761900Y-139177527D01*
X171622473Y-139038100D01*
X171512926Y-138874151D01*
X171437468Y-138691981D01*
X171399000Y-138498590D01*
X171399000Y-138301410D01*
X171437468Y-138108019D01*
X171512926Y-137925849D01*
X171622473Y-137761900D01*
X171761900Y-137622473D01*
X171925849Y-137512926D01*
X172108019Y-137437468D01*
X172204715Y-137418234D01*
X172301409Y-137399000D01*
X172498591Y-137399000D01*
X172595285Y-137418234D01*
G37*
G36*
X122835787Y-132285462D02*
G01*
X122839681Y-132287075D01*
X123482029Y-132553144D01*
X124063631Y-132941758D01*
X124558242Y-133436369D01*
X124946856Y-134017971D01*
X125047895Y-134261901D01*
X125214538Y-134664213D01*
X125351000Y-135350256D01*
X125351000Y-136049744D01*
X125214538Y-136735787D01*
X125214537Y-136735789D01*
X124946856Y-137382029D01*
X124558242Y-137963631D01*
X124063631Y-138458242D01*
X123482029Y-138846856D01*
X123025068Y-139036135D01*
X122835787Y-139114538D01*
X122149744Y-139251000D01*
X121450256Y-139251000D01*
X120764213Y-139114538D01*
X120574932Y-139036135D01*
X120117971Y-138846856D01*
X119536369Y-138458242D01*
X119041758Y-137963631D01*
X118653144Y-137382029D01*
X118385463Y-136735789D01*
X118385462Y-136735787D01*
X118249000Y-136049744D01*
X118249000Y-135350256D01*
X118385462Y-134664213D01*
X118552105Y-134261901D01*
X118653144Y-134017971D01*
X119041758Y-133436369D01*
X119536369Y-132941758D01*
X120117971Y-132553144D01*
X120760319Y-132287075D01*
X120764213Y-132285462D01*
X121450256Y-132149000D01*
X122149744Y-132149000D01*
X122835787Y-132285462D01*
G37*
G36*
X172691981Y-133937468D02*
G01*
X172874151Y-134012926D01*
X173038100Y-134122473D01*
X173177527Y-134261900D01*
X173287074Y-134425849D01*
X173362532Y-134608019D01*
X173401000Y-134801410D01*
X173401000Y-134998590D01*
X173362532Y-135191981D01*
X173287074Y-135374151D01*
X173177527Y-135538100D01*
X173038100Y-135677527D01*
X172874151Y-135787074D01*
X172691981Y-135862532D01*
X172595285Y-135881766D01*
X172498591Y-135901000D01*
X172301409Y-135901000D01*
X172204715Y-135881766D01*
X172108019Y-135862532D01*
X171925849Y-135787074D01*
X171761900Y-135677527D01*
X171622473Y-135538100D01*
X171512926Y-135374151D01*
X171437468Y-135191981D01*
X171399000Y-134998590D01*
X171399000Y-134801410D01*
X171437468Y-134608019D01*
X171512926Y-134425849D01*
X171622473Y-134261900D01*
X171761900Y-134122473D01*
X171925849Y-134012926D01*
X172108019Y-133937468D01*
X172301409Y-133899000D01*
X172498591Y-133899000D01*
X172691981Y-133937468D01*
G37*
G36*
X143989890Y-134194017D02*
G01*
X144108364Y-134243091D01*
X144214988Y-134314335D01*
X144305665Y-134405012D01*
X144376909Y-134511636D01*
X144425983Y-134630110D01*
X144451000Y-134755882D01*
X144451000Y-134884118D01*
X144425983Y-135009890D01*
X144376909Y-135128364D01*
X144305665Y-135234988D01*
X144214988Y-135325665D01*
X144108364Y-135396909D01*
X144108363Y-135396910D01*
X144108362Y-135396910D01*
X143989890Y-135445983D01*
X143864119Y-135471000D01*
X143735881Y-135471000D01*
X143610110Y-135445983D01*
X143491638Y-135396910D01*
X143491637Y-135396910D01*
X143491636Y-135396909D01*
X143385012Y-135325665D01*
X143294335Y-135234988D01*
X143223091Y-135128364D01*
X143174017Y-135009890D01*
X143149000Y-134884118D01*
X143149000Y-134755882D01*
X143174017Y-134630110D01*
X143223091Y-134511636D01*
X143294335Y-134405012D01*
X143385012Y-134314335D01*
X143491636Y-134243091D01*
X143610110Y-134194017D01*
X143735881Y-134169000D01*
X143864119Y-134169000D01*
X143989890Y-134194017D01*
G37*
G36*
X148389890Y-134194017D02*
G01*
X148508364Y-134243091D01*
X148614988Y-134314335D01*
X148705665Y-134405012D01*
X148776909Y-134511636D01*
X148825983Y-134630110D01*
X148851000Y-134755882D01*
X148851000Y-134884118D01*
X148825983Y-135009890D01*
X148776909Y-135128364D01*
X148705665Y-135234988D01*
X148614988Y-135325665D01*
X148508364Y-135396909D01*
X148508363Y-135396910D01*
X148508362Y-135396910D01*
X148389890Y-135445983D01*
X148264119Y-135471000D01*
X148135881Y-135471000D01*
X148010110Y-135445983D01*
X147891638Y-135396910D01*
X147891637Y-135396910D01*
X147891636Y-135396909D01*
X147785012Y-135325665D01*
X147694335Y-135234988D01*
X147623091Y-135128364D01*
X147574017Y-135009890D01*
X147549000Y-134884118D01*
X147549000Y-134755882D01*
X147574017Y-134630110D01*
X147623091Y-134511636D01*
X147694335Y-134405012D01*
X147785012Y-134314335D01*
X147891636Y-134243091D01*
X148010110Y-134194017D01*
X148135881Y-134169000D01*
X148264119Y-134169000D01*
X148389890Y-134194017D01*
G37*
G36*
X172691981Y-130437468D02*
G01*
X172874151Y-130512926D01*
X173038100Y-130622473D01*
X173177527Y-130761900D01*
X173287074Y-130925849D01*
X173362532Y-131108019D01*
X173401000Y-131301410D01*
X173401000Y-131498590D01*
X173362532Y-131691981D01*
X173287074Y-131874151D01*
X173177527Y-132038100D01*
X173038100Y-132177527D01*
X172874151Y-132287074D01*
X172691981Y-132362532D01*
X172595285Y-132381766D01*
X172498591Y-132401000D01*
X172301409Y-132401000D01*
X172204715Y-132381766D01*
X172108019Y-132362532D01*
X171925849Y-132287074D01*
X171761900Y-132177527D01*
X171622473Y-132038100D01*
X171512926Y-131874151D01*
X171437468Y-131691981D01*
X171399000Y-131498590D01*
X171399000Y-131301410D01*
X171437468Y-131108019D01*
X171512926Y-130925849D01*
X171622473Y-130761900D01*
X171761900Y-130622473D01*
X171925849Y-130512926D01*
X172108019Y-130437468D01*
X172301409Y-130399000D01*
X172498591Y-130399000D01*
X172691981Y-130437468D01*
G37*
G36*
X172691981Y-126937468D02*
G01*
X172874151Y-127012926D01*
X173038100Y-127122473D01*
X173177527Y-127261900D01*
X173287074Y-127425849D01*
X173362532Y-127608019D01*
X173401000Y-127801410D01*
X173401000Y-127998590D01*
X173362532Y-128191981D01*
X173287074Y-128374151D01*
X173177527Y-128538100D01*
X173038100Y-128677527D01*
X172874151Y-128787074D01*
X172691981Y-128862532D01*
X172595285Y-128881766D01*
X172498591Y-128901000D01*
X172301409Y-128901000D01*
X172204715Y-128881766D01*
X172108019Y-128862532D01*
X171925849Y-128787074D01*
X171761900Y-128677527D01*
X171622473Y-128538100D01*
X171512926Y-128374151D01*
X171437468Y-128191981D01*
X171399000Y-127998590D01*
X171399000Y-127801410D01*
X171437468Y-127608019D01*
X171512926Y-127425849D01*
X171622473Y-127261900D01*
X171761900Y-127122473D01*
X171925849Y-127012926D01*
X172108019Y-126937468D01*
X172301409Y-126899000D01*
X172498591Y-126899000D01*
X172691981Y-126937468D01*
G37*
G36*
X126265285Y-124558234D02*
G01*
X126361981Y-124577468D01*
X126544151Y-124652926D01*
X126708100Y-124762473D01*
X126847527Y-124901900D01*
X126957074Y-125065849D01*
X127032532Y-125248019D01*
X127071000Y-125441410D01*
X127071000Y-125638590D01*
X127032532Y-125831981D01*
X126957074Y-126014151D01*
X126847527Y-126178100D01*
X126708100Y-126317527D01*
X126544151Y-126427074D01*
X126361981Y-126502532D01*
X126168591Y-126541000D01*
X125971409Y-126541000D01*
X125778019Y-126502532D01*
X125595849Y-126427074D01*
X125431900Y-126317527D01*
X125292473Y-126178100D01*
X125182926Y-126014151D01*
X125107468Y-125831981D01*
X125069000Y-125638590D01*
X125069000Y-125441410D01*
X125107468Y-125248019D01*
X125182926Y-125065849D01*
X125292473Y-124901900D01*
X125431900Y-124762473D01*
X125595849Y-124652926D01*
X125778019Y-124577468D01*
X125874715Y-124558234D01*
X125971409Y-124539000D01*
X126168591Y-124539000D01*
X126265285Y-124558234D01*
G37*
G36*
X121185285Y-124558234D02*
G01*
X121281981Y-124577468D01*
X121464151Y-124652926D01*
X121628100Y-124762473D01*
X121767527Y-124901900D01*
X121877074Y-125065849D01*
X121952532Y-125248019D01*
X121991000Y-125441410D01*
X121991000Y-125638590D01*
X121952532Y-125831981D01*
X121877074Y-126014151D01*
X121767527Y-126178100D01*
X121628100Y-126317527D01*
X121464151Y-126427074D01*
X121281981Y-126502532D01*
X121088591Y-126541000D01*
X120891409Y-126541000D01*
X120698019Y-126502532D01*
X120515849Y-126427074D01*
X120351900Y-126317527D01*
X120212473Y-126178100D01*
X120102926Y-126014151D01*
X120027468Y-125831981D01*
X119989000Y-125638590D01*
X119989000Y-125441410D01*
X120027468Y-125248019D01*
X120102926Y-125065849D01*
X120212473Y-124901900D01*
X120351900Y-124762473D01*
X120515849Y-124652926D01*
X120698019Y-124577468D01*
X120794715Y-124558234D01*
X120891409Y-124539000D01*
X121088591Y-124539000D01*
X121185285Y-124558234D01*
G37*
G36*
X172691981Y-123437468D02*
G01*
X172874151Y-123512926D01*
X173038100Y-123622473D01*
X173177527Y-123761900D01*
X173287074Y-123925849D01*
X173362532Y-124108019D01*
X173401000Y-124301410D01*
X173401000Y-124498590D01*
X173362532Y-124691981D01*
X173287074Y-124874151D01*
X173177527Y-125038100D01*
X173038100Y-125177527D01*
X172874151Y-125287074D01*
X172691981Y-125362532D01*
X172595285Y-125381766D01*
X172498591Y-125401000D01*
X172301409Y-125401000D01*
X172204715Y-125381766D01*
X172108019Y-125362532D01*
X171925849Y-125287074D01*
X171761900Y-125177527D01*
X171622473Y-125038100D01*
X171512926Y-124874151D01*
X171437468Y-124691981D01*
X171399000Y-124498590D01*
X171399000Y-124301410D01*
X171437468Y-124108019D01*
X171512926Y-123925849D01*
X171622473Y-123761900D01*
X171761900Y-123622473D01*
X171925849Y-123512926D01*
X172108019Y-123437468D01*
X172301409Y-123399000D01*
X172498591Y-123399000D01*
X172691981Y-123437468D01*
G37*
G36*
X126361981Y-122037468D02*
G01*
X126544151Y-122112926D01*
X126708100Y-122222473D01*
X126847527Y-122361900D01*
X126957074Y-122525849D01*
X127032532Y-122708019D01*
X127071000Y-122901410D01*
X127071000Y-123098590D01*
X127032532Y-123291981D01*
X126957074Y-123474151D01*
X126847527Y-123638100D01*
X126708100Y-123777527D01*
X126544151Y-123887074D01*
X126361981Y-123962532D01*
X126265285Y-123981766D01*
X126168591Y-124001000D01*
X125971409Y-124001000D01*
X125874715Y-123981766D01*
X125778019Y-123962532D01*
X125595849Y-123887074D01*
X125431900Y-123777527D01*
X125292473Y-123638100D01*
X125182926Y-123474151D01*
X125107468Y-123291981D01*
X125069000Y-123098590D01*
X125069000Y-122901410D01*
X125107468Y-122708019D01*
X125182926Y-122525849D01*
X125292473Y-122361900D01*
X125431900Y-122222473D01*
X125595849Y-122112926D01*
X125778019Y-122037468D01*
X125971409Y-121999000D01*
X126168591Y-121999000D01*
X126361981Y-122037468D01*
G37*
G36*
X172691981Y-119937468D02*
G01*
X172874151Y-120012926D01*
X173038100Y-120122473D01*
X173177527Y-120261900D01*
X173287074Y-120425849D01*
X173362532Y-120608019D01*
X173401000Y-120801410D01*
X173401000Y-120998590D01*
X173362532Y-121191981D01*
X173287074Y-121374151D01*
X173177527Y-121538100D01*
X173038100Y-121677527D01*
X172874151Y-121787074D01*
X172691981Y-121862532D01*
X172595285Y-121881766D01*
X172498591Y-121901000D01*
X172301409Y-121901000D01*
X172204715Y-121881766D01*
X172108019Y-121862532D01*
X171925849Y-121787074D01*
X171761900Y-121677527D01*
X171622473Y-121538100D01*
X171512926Y-121374151D01*
X171437468Y-121191981D01*
X171399000Y-120998590D01*
X171399000Y-120801410D01*
X171437468Y-120608019D01*
X171512926Y-120425849D01*
X171622473Y-120261900D01*
X171761900Y-120122473D01*
X171925849Y-120012926D01*
X172108019Y-119937468D01*
X172301409Y-119899000D01*
X172498591Y-119899000D01*
X172691981Y-119937468D01*
G37*
G36*
X121185285Y-119478234D02*
G01*
X121281981Y-119497468D01*
X121464151Y-119572926D01*
X121628100Y-119682473D01*
X121767527Y-119821900D01*
X121877074Y-119985849D01*
X121952532Y-120168019D01*
X121991000Y-120361410D01*
X121991000Y-120558590D01*
X121952532Y-120751981D01*
X121877074Y-120934151D01*
X121767527Y-121098100D01*
X121628100Y-121237527D01*
X121464151Y-121347074D01*
X121281981Y-121422532D01*
X121185285Y-121441766D01*
X121088591Y-121461000D01*
X120891409Y-121461000D01*
X120794715Y-121441766D01*
X120698019Y-121422532D01*
X120515849Y-121347074D01*
X120351900Y-121237527D01*
X120212473Y-121098100D01*
X120102926Y-120934151D01*
X120027468Y-120751981D01*
X119989000Y-120558590D01*
X119989000Y-120361410D01*
X120027468Y-120168019D01*
X120102926Y-119985849D01*
X120212473Y-119821900D01*
X120351900Y-119682473D01*
X120515849Y-119572926D01*
X120698019Y-119497468D01*
X120794715Y-119478234D01*
X120891409Y-119459000D01*
X121088591Y-119459000D01*
X121185285Y-119478234D01*
G37*
G36*
X126265285Y-119478234D02*
G01*
X126361981Y-119497468D01*
X126544151Y-119572926D01*
X126708100Y-119682473D01*
X126847527Y-119821900D01*
X126957074Y-119985849D01*
X127032532Y-120168019D01*
X127071000Y-120361410D01*
X127071000Y-120558590D01*
X127032532Y-120751981D01*
X126957074Y-120934151D01*
X126847527Y-121098100D01*
X126708100Y-121237527D01*
X126544151Y-121347074D01*
X126361981Y-121422532D01*
X126265285Y-121441766D01*
X126168591Y-121461000D01*
X125971409Y-121461000D01*
X125874715Y-121441766D01*
X125778019Y-121422532D01*
X125595849Y-121347074D01*
X125431900Y-121237527D01*
X125292473Y-121098100D01*
X125182926Y-120934151D01*
X125107468Y-120751981D01*
X125069000Y-120558590D01*
X125069000Y-120361410D01*
X125107468Y-120168019D01*
X125182926Y-119985849D01*
X125292473Y-119821900D01*
X125431900Y-119682473D01*
X125595849Y-119572926D01*
X125778019Y-119497468D01*
X125874715Y-119478234D01*
X125971409Y-119459000D01*
X126168591Y-119459000D01*
X126265285Y-119478234D01*
G37*
G36*
X172691981Y-116437468D02*
G01*
X172874151Y-116512926D01*
X173038100Y-116622473D01*
X173177527Y-116761900D01*
X173287074Y-116925849D01*
X173362532Y-117108019D01*
X173401000Y-117301410D01*
X173401000Y-117498590D01*
X173362532Y-117691981D01*
X173287074Y-117874151D01*
X173177527Y-118038100D01*
X173038100Y-118177527D01*
X172874151Y-118287074D01*
X172691981Y-118362532D01*
X172498591Y-118401000D01*
X172301409Y-118401000D01*
X172108019Y-118362532D01*
X171925849Y-118287074D01*
X171761900Y-118177527D01*
X171622473Y-118038100D01*
X171512926Y-117874151D01*
X171437468Y-117691981D01*
X171399000Y-117498590D01*
X171399000Y-117301410D01*
X171437468Y-117108019D01*
X171512926Y-116925849D01*
X171622473Y-116761900D01*
X171761900Y-116622473D01*
X171925849Y-116512926D01*
X172108019Y-116437468D01*
X172301409Y-116399000D01*
X172498591Y-116399000D01*
X172691981Y-116437468D01*
G37*
G36*
X172595285Y-112918234D02*
G01*
X172691981Y-112937468D01*
X172874151Y-113012926D01*
X173038100Y-113122473D01*
X173177527Y-113261900D01*
X173287074Y-113425849D01*
X173362532Y-113608019D01*
X173401000Y-113801410D01*
X173401000Y-113998590D01*
X173362532Y-114191981D01*
X173287074Y-114374151D01*
X173177527Y-114538100D01*
X173038100Y-114677527D01*
X172874151Y-114787074D01*
X172691981Y-114862532D01*
X172595285Y-114881766D01*
X172498591Y-114901000D01*
X172301409Y-114901000D01*
X172204715Y-114881766D01*
X172108019Y-114862532D01*
X171925849Y-114787074D01*
X171761900Y-114677527D01*
X171622473Y-114538100D01*
X171512926Y-114374151D01*
X171437468Y-114191981D01*
X171399000Y-113998590D01*
X171399000Y-113801410D01*
X171437468Y-113608019D01*
X171512926Y-113425849D01*
X171622473Y-113261900D01*
X171761900Y-113122473D01*
X171925849Y-113012926D01*
X172108019Y-112937468D01*
X172204715Y-112918234D01*
X172301409Y-112899000D01*
X172498591Y-112899000D01*
X172595285Y-112918234D01*
G37*
G36*
X172595285Y-109418234D02*
G01*
X172691981Y-109437468D01*
X172874151Y-109512926D01*
X173038100Y-109622473D01*
X173177527Y-109761900D01*
X173287074Y-109925849D01*
X173362532Y-110108019D01*
X173401000Y-110301410D01*
X173401000Y-110498590D01*
X173362532Y-110691981D01*
X173287074Y-110874151D01*
X173177527Y-111038100D01*
X173038100Y-111177527D01*
X172874151Y-111287074D01*
X172691981Y-111362532D01*
X172595285Y-111381766D01*
X172498591Y-111401000D01*
X172301409Y-111401000D01*
X172204715Y-111381766D01*
X172108019Y-111362532D01*
X171925849Y-111287074D01*
X171761900Y-111177527D01*
X171622473Y-111038100D01*
X171512926Y-110874151D01*
X171437468Y-110691981D01*
X171399000Y-110498590D01*
X171399000Y-110301410D01*
X171437468Y-110108019D01*
X171512926Y-109925849D01*
X171622473Y-109761900D01*
X171761900Y-109622473D01*
X171925849Y-109512926D01*
X172108019Y-109437468D01*
X172204715Y-109418234D01*
X172301409Y-109399000D01*
X172498591Y-109399000D01*
X172595285Y-109418234D01*
G37*
G36*
X172691981Y-105937468D02*
G01*
X172874151Y-106012926D01*
X173038100Y-106122473D01*
X173177527Y-106261900D01*
X173287074Y-106425849D01*
X173362532Y-106608019D01*
X173401000Y-106801410D01*
X173401000Y-106998590D01*
X173362532Y-107191981D01*
X173287074Y-107374151D01*
X173177527Y-107538100D01*
X173038100Y-107677527D01*
X172874151Y-107787074D01*
X172691981Y-107862532D01*
X172595285Y-107881766D01*
X172498591Y-107901000D01*
X172301409Y-107901000D01*
X172204715Y-107881766D01*
X172108019Y-107862532D01*
X171925849Y-107787074D01*
X171761900Y-107677527D01*
X171622473Y-107538100D01*
X171512926Y-107374151D01*
X171437468Y-107191981D01*
X171399000Y-106998590D01*
X171399000Y-106801410D01*
X171437468Y-106608019D01*
X171512926Y-106425849D01*
X171622473Y-106261900D01*
X171761900Y-106122473D01*
X171925849Y-106012926D01*
X172108019Y-105937468D01*
X172204715Y-105918234D01*
X172301409Y-105899000D01*
X172498591Y-105899000D01*
X172691981Y-105937468D01*
G37*
G36*
X153174609Y-104617136D02*
G01*
X153273567Y-104658126D01*
X153362627Y-104717634D01*
X153438366Y-104793373D01*
X153497874Y-104882433D01*
X153538864Y-104981391D01*
X153559760Y-105086444D01*
X153559760Y-105193556D01*
X153538864Y-105298609D01*
X153497874Y-105397567D01*
X153438366Y-105486627D01*
X153362627Y-105562366D01*
X153273567Y-105621874D01*
X153273566Y-105621875D01*
X153273565Y-105621875D01*
X153174609Y-105662864D01*
X153069557Y-105683760D01*
X152962443Y-105683760D01*
X152857391Y-105662864D01*
X152758435Y-105621875D01*
X152758434Y-105621875D01*
X152758433Y-105621874D01*
X152669373Y-105562366D01*
X152593634Y-105486627D01*
X152534126Y-105397567D01*
X152493136Y-105298609D01*
X152472240Y-105193556D01*
X152472240Y-105086444D01*
X152493136Y-104981391D01*
X152534126Y-104882433D01*
X152593634Y-104793373D01*
X152669373Y-104717634D01*
X152758433Y-104658126D01*
X152857391Y-104617136D01*
X152962443Y-104596240D01*
X153069557Y-104596240D01*
X153174609Y-104617136D01*
G37*
G36*
X151142609Y-104617136D02*
G01*
X151241567Y-104658126D01*
X151330627Y-104717634D01*
X151406366Y-104793373D01*
X151465874Y-104882433D01*
X151506864Y-104981391D01*
X151527760Y-105086444D01*
X151527760Y-105193556D01*
X151506864Y-105298609D01*
X151465874Y-105397567D01*
X151406366Y-105486627D01*
X151330627Y-105562366D01*
X151241567Y-105621874D01*
X151241566Y-105621875D01*
X151241565Y-105621875D01*
X151142609Y-105662864D01*
X151037557Y-105683760D01*
X150930443Y-105683760D01*
X150825391Y-105662864D01*
X150726435Y-105621875D01*
X150726434Y-105621875D01*
X150726433Y-105621874D01*
X150637373Y-105562366D01*
X150561634Y-105486627D01*
X150502126Y-105397567D01*
X150461136Y-105298609D01*
X150440240Y-105193556D01*
X150440240Y-105086444D01*
X150461136Y-104981391D01*
X150502126Y-104882433D01*
X150561634Y-104793373D01*
X150637373Y-104717634D01*
X150726433Y-104658126D01*
X150825391Y-104617136D01*
X150930443Y-104596240D01*
X151037557Y-104596240D01*
X151142609Y-104617136D01*
G37*
G36*
X154781115Y-102022838D02*
G01*
X154900502Y-102046585D01*
X155125423Y-102139751D01*
X155327847Y-102275006D01*
X155499994Y-102447153D01*
X155635249Y-102649577D01*
X155728415Y-102874498D01*
X155775910Y-103113273D01*
X155775910Y-103356727D01*
X155728415Y-103595502D01*
X155635249Y-103820423D01*
X155499994Y-104022847D01*
X155327847Y-104194994D01*
X155125423Y-104330249D01*
X154900502Y-104423415D01*
X154781114Y-104447163D01*
X154661728Y-104470910D01*
X154418272Y-104470910D01*
X154298885Y-104447162D01*
X154179498Y-104423415D01*
X153954577Y-104330249D01*
X153752153Y-104194994D01*
X153580006Y-104022847D01*
X153444751Y-103820423D01*
X153351585Y-103595502D01*
X153304090Y-103356727D01*
X153304090Y-103113273D01*
X153351585Y-102874498D01*
X153444751Y-102649577D01*
X153580006Y-102447153D01*
X153752153Y-102275006D01*
X153954577Y-102139751D01*
X154179498Y-102046585D01*
X154298885Y-102022838D01*
X154418272Y-101999090D01*
X154661728Y-101999090D01*
X154781115Y-102022838D01*
G37*
G36*
X149701115Y-102022838D02*
G01*
X149820502Y-102046585D01*
X150045423Y-102139751D01*
X150247847Y-102275006D01*
X150419994Y-102447153D01*
X150555249Y-102649577D01*
X150648415Y-102874498D01*
X150695910Y-103113273D01*
X150695910Y-103356727D01*
X150648415Y-103595502D01*
X150555249Y-103820423D01*
X150419994Y-104022847D01*
X150247847Y-104194994D01*
X150045423Y-104330249D01*
X149820502Y-104423415D01*
X149701114Y-104447163D01*
X149581728Y-104470910D01*
X149338272Y-104470910D01*
X149218885Y-104447162D01*
X149099498Y-104423415D01*
X148874577Y-104330249D01*
X148672153Y-104194994D01*
X148500006Y-104022847D01*
X148364751Y-103820423D01*
X148271585Y-103595502D01*
X148224090Y-103356727D01*
X148224090Y-103113273D01*
X148271585Y-102874498D01*
X148364751Y-102649577D01*
X148500006Y-102447153D01*
X148672153Y-102275006D01*
X148874577Y-102139751D01*
X149099498Y-102046585D01*
X149218885Y-102022838D01*
X149338272Y-101999090D01*
X149581728Y-101999090D01*
X149701115Y-102022838D01*
G37*
G36*
X172691981Y-102437468D02*
G01*
X172874151Y-102512926D01*
X173038100Y-102622473D01*
X173177527Y-102761900D01*
X173287074Y-102925849D01*
X173362532Y-103108019D01*
X173401000Y-103301410D01*
X173401000Y-103498590D01*
X173362532Y-103691981D01*
X173287074Y-103874151D01*
X173177527Y-104038100D01*
X173038100Y-104177527D01*
X172874151Y-104287074D01*
X172691981Y-104362532D01*
X172498591Y-104401000D01*
X172301409Y-104401000D01*
X172108019Y-104362532D01*
X171925849Y-104287074D01*
X171761900Y-104177527D01*
X171622473Y-104038100D01*
X171512926Y-103874151D01*
X171437468Y-103691981D01*
X171399000Y-103498590D01*
X171399000Y-103301410D01*
X171437468Y-103108019D01*
X171512926Y-102925849D01*
X171622473Y-102761900D01*
X171761900Y-102622473D01*
X171925849Y-102512926D01*
X172108019Y-102437468D01*
X172204715Y-102418234D01*
X172301409Y-102399000D01*
X172498591Y-102399000D01*
X172691981Y-102437468D01*
G37*
G36*
X149701114Y-98974837D02*
G01*
X149820502Y-98998585D01*
X150045423Y-99091751D01*
X150247847Y-99227006D01*
X150419994Y-99399153D01*
X150497380Y-99514970D01*
X150555250Y-99601579D01*
X150557918Y-99608020D01*
X150638023Y-99801409D01*
X150648415Y-99826499D01*
X150695910Y-100065272D01*
X150695910Y-100308728D01*
X150676276Y-100407434D01*
X150648415Y-100547502D01*
X150555249Y-100772423D01*
X150419994Y-100974847D01*
X150247847Y-101146994D01*
X150045423Y-101282249D01*
X149820502Y-101375415D01*
X149701114Y-101399163D01*
X149581728Y-101422910D01*
X149338272Y-101422910D01*
X149218885Y-101399162D01*
X149099498Y-101375415D01*
X148874577Y-101282249D01*
X148672153Y-101146994D01*
X148500006Y-100974847D01*
X148364751Y-100772423D01*
X148271585Y-100547502D01*
X148243724Y-100407434D01*
X148224090Y-100308728D01*
X148224090Y-100065272D01*
X148271585Y-99826499D01*
X148281978Y-99801409D01*
X148362082Y-99608020D01*
X148364750Y-99601579D01*
X148422620Y-99514970D01*
X148500006Y-99399153D01*
X148672153Y-99227006D01*
X148874577Y-99091751D01*
X149099498Y-98998585D01*
X149218885Y-98974838D01*
X149338272Y-98951090D01*
X149581728Y-98951090D01*
X149701114Y-98974837D01*
G37*
G36*
X154781362Y-98846592D02*
G01*
X154900872Y-98870364D01*
X155126024Y-98963625D01*
X155261418Y-99054093D01*
X155317778Y-99091751D01*
X155328656Y-99099020D01*
X155500980Y-99271344D01*
X155636375Y-99473976D01*
X155729636Y-99699128D01*
X155732309Y-99712566D01*
X155777180Y-99938147D01*
X155777180Y-100181853D01*
X155775165Y-100191981D01*
X155729636Y-100420872D01*
X155636375Y-100646024D01*
X155500980Y-100848656D01*
X155328656Y-101020980D01*
X155126024Y-101156375D01*
X154900872Y-101249636D01*
X154781362Y-101273408D01*
X154661853Y-101297180D01*
X154418147Y-101297180D01*
X154298638Y-101273408D01*
X154179128Y-101249636D01*
X153953976Y-101156375D01*
X153751344Y-101020980D01*
X153579020Y-100848656D01*
X153443625Y-100646024D01*
X153350364Y-100420872D01*
X153304835Y-100191981D01*
X153302820Y-100181853D01*
X153302820Y-99938147D01*
X153347691Y-99712566D01*
X153350364Y-99699128D01*
X153443625Y-99473976D01*
X153579020Y-99271344D01*
X153751344Y-99099020D01*
X153762223Y-99091751D01*
X153818582Y-99054093D01*
X153953976Y-98963625D01*
X154179128Y-98870364D01*
X154298638Y-98846592D01*
X154418147Y-98822820D01*
X154661853Y-98822820D01*
X154781362Y-98846592D01*
G37*
G36*
X172595285Y-98918234D02*
G01*
X172691981Y-98937468D01*
X172874151Y-99012926D01*
X173038100Y-99122473D01*
X173177527Y-99261900D01*
X173287074Y-99425849D01*
X173362532Y-99608019D01*
X173401000Y-99801410D01*
X173401000Y-99998590D01*
X173362532Y-100191981D01*
X173287074Y-100374151D01*
X173177527Y-100538100D01*
X173038100Y-100677527D01*
X172874151Y-100787074D01*
X172691981Y-100862532D01*
X172595285Y-100881766D01*
X172498591Y-100901000D01*
X172301409Y-100901000D01*
X172204715Y-100881766D01*
X172108019Y-100862532D01*
X171925849Y-100787074D01*
X171761900Y-100677527D01*
X171622473Y-100538100D01*
X171512926Y-100374151D01*
X171437468Y-100191981D01*
X171399000Y-99998590D01*
X171399000Y-99801410D01*
X171437468Y-99608019D01*
X171512926Y-99425849D01*
X171622473Y-99261900D01*
X171761900Y-99122473D01*
X171925849Y-99012926D01*
X172108019Y-98937468D01*
X172204715Y-98918234D01*
X172301409Y-98899000D01*
X172498591Y-98899000D01*
X172595285Y-98918234D01*
G37*
G36*
X152106330Y-99525443D02*
G01*
X152158979Y-99535915D01*
X152192042Y-99549610D01*
X152258170Y-99577001D01*
X152347434Y-99636645D01*
X152423355Y-99712566D01*
X152482999Y-99801830D01*
X152524085Y-99901022D01*
X152545030Y-100006318D01*
X152545030Y-100113682D01*
X152524085Y-100218978D01*
X152482999Y-100318170D01*
X152423355Y-100407434D01*
X152347434Y-100483355D01*
X152258170Y-100542999D01*
X152192042Y-100570390D01*
X152158979Y-100584085D01*
X152106330Y-100594557D01*
X152053682Y-100605030D01*
X151946318Y-100605030D01*
X151893670Y-100594557D01*
X151841021Y-100584085D01*
X151807958Y-100570390D01*
X151741830Y-100542999D01*
X151652566Y-100483355D01*
X151576645Y-100407434D01*
X151517001Y-100318170D01*
X151475915Y-100218978D01*
X151454970Y-100113682D01*
X151454970Y-100006318D01*
X151475915Y-99901022D01*
X151517001Y-99801830D01*
X151576645Y-99712566D01*
X151652566Y-99636645D01*
X151741830Y-99577001D01*
X151807958Y-99549610D01*
X151841021Y-99535915D01*
X151893670Y-99525443D01*
X151946318Y-99514970D01*
X152053682Y-99514970D01*
X152106330Y-99525443D01*
G37*
G36*
X123106564Y-87489389D02*
G01*
X123297833Y-87568615D01*
X123297835Y-87568616D01*
X123469973Y-87683635D01*
X123616365Y-87830027D01*
X123731385Y-88002167D01*
X123810611Y-88193436D01*
X123851000Y-88396484D01*
X123851000Y-88603516D01*
X123810611Y-88806564D01*
X123731385Y-88997833D01*
X123731384Y-88997835D01*
X123616365Y-89169973D01*
X123469973Y-89316365D01*
X123297835Y-89431384D01*
X123297834Y-89431385D01*
X123297833Y-89431385D01*
X123106564Y-89510611D01*
X122903516Y-89551000D01*
X122696484Y-89551000D01*
X122493436Y-89510611D01*
X122302167Y-89431385D01*
X122302166Y-89431385D01*
X122302165Y-89431384D01*
X122130027Y-89316365D01*
X121983635Y-89169973D01*
X121868616Y-88997835D01*
X121868615Y-88997833D01*
X121789389Y-88806564D01*
X121749000Y-88603516D01*
X121749000Y-88396484D01*
X121789389Y-88193436D01*
X121868615Y-88002167D01*
X121983635Y-87830027D01*
X122130027Y-87683635D01*
X122302165Y-87568616D01*
X122302167Y-87568615D01*
X122493436Y-87489389D01*
X122696484Y-87449000D01*
X122903516Y-87449000D01*
X123106564Y-87489389D01*
G37*
G36*
X175986564Y-87349389D02*
G01*
X176177833Y-87428615D01*
X176177835Y-87428616D01*
X176349973Y-87543635D01*
X176496365Y-87690027D01*
X176611385Y-87862167D01*
X176690611Y-88053436D01*
X176731000Y-88256484D01*
X176731000Y-88463516D01*
X176690611Y-88666564D01*
X176632621Y-88806564D01*
X176611384Y-88857835D01*
X176496365Y-89029973D01*
X176349973Y-89176365D01*
X176177835Y-89291384D01*
X176177834Y-89291385D01*
X176177833Y-89291385D01*
X175986564Y-89370611D01*
X175783516Y-89411000D01*
X175576484Y-89411000D01*
X175373436Y-89370611D01*
X175182167Y-89291385D01*
X175182166Y-89291385D01*
X175182165Y-89291384D01*
X175010027Y-89176365D01*
X174863635Y-89029973D01*
X174748616Y-88857835D01*
X174727379Y-88806564D01*
X174669389Y-88666564D01*
X174629000Y-88463516D01*
X174629000Y-88256484D01*
X174669389Y-88053436D01*
X174748615Y-87862167D01*
X174863635Y-87690027D01*
X175010027Y-87543635D01*
X175182165Y-87428616D01*
X175182167Y-87428615D01*
X175373436Y-87349389D01*
X175576484Y-87309000D01*
X175783516Y-87309000D01*
X175986564Y-87349389D01*
G37*
G36*
X140426564Y-84809389D02*
G01*
X140617833Y-84888615D01*
X140617835Y-84888616D01*
X140789973Y-85003635D01*
X140936365Y-85150027D01*
X141051385Y-85322167D01*
X141130611Y-85513436D01*
X141171000Y-85716484D01*
X141171000Y-85923516D01*
X141130611Y-86126564D01*
X141051385Y-86317833D01*
X141051384Y-86317835D01*
X140936365Y-86489973D01*
X140789973Y-86636365D01*
X140617835Y-86751384D01*
X140617834Y-86751385D01*
X140617833Y-86751385D01*
X140426564Y-86830611D01*
X140223516Y-86871000D01*
X140016484Y-86871000D01*
X139813436Y-86830611D01*
X139622167Y-86751385D01*
X139622166Y-86751385D01*
X139622165Y-86751384D01*
X139450027Y-86636365D01*
X139303635Y-86489973D01*
X139188616Y-86317835D01*
X139188615Y-86317833D01*
X139109389Y-86126564D01*
X139069000Y-85923516D01*
X139069000Y-85716484D01*
X139109389Y-85513436D01*
X139188615Y-85322167D01*
X139303635Y-85150027D01*
X139450027Y-85003635D01*
X139622165Y-84888616D01*
X139622167Y-84888615D01*
X139813436Y-84809389D01*
X140016484Y-84769000D01*
X140223516Y-84769000D01*
X140426564Y-84809389D01*
G37*
G36*
X123106564Y-82489389D02*
G01*
X123297833Y-82568615D01*
X123297835Y-82568616D01*
X123469973Y-82683635D01*
X123616365Y-82830027D01*
X123731385Y-83002167D01*
X123810611Y-83193436D01*
X123851000Y-83396484D01*
X123851000Y-83603516D01*
X123810611Y-83806564D01*
X123731385Y-83997833D01*
X123731384Y-83997835D01*
X123616365Y-84169973D01*
X123469973Y-84316365D01*
X123297835Y-84431384D01*
X123297834Y-84431385D01*
X123297833Y-84431385D01*
X123106564Y-84510611D01*
X122903516Y-84551000D01*
X122696484Y-84551000D01*
X122493436Y-84510611D01*
X122302167Y-84431385D01*
X122302166Y-84431385D01*
X122302165Y-84431384D01*
X122130027Y-84316365D01*
X121983635Y-84169973D01*
X121868616Y-83997835D01*
X121868615Y-83997833D01*
X121789389Y-83806564D01*
X121749000Y-83603516D01*
X121749000Y-83396484D01*
X121789389Y-83193436D01*
X121868615Y-83002167D01*
X121983635Y-82830027D01*
X122130027Y-82683635D01*
X122302165Y-82568616D01*
X122302167Y-82568615D01*
X122493436Y-82489389D01*
X122696484Y-82449000D01*
X122903516Y-82449000D01*
X123106564Y-82489389D01*
G37*
G36*
X140426564Y-79729389D02*
G01*
X140617833Y-79808615D01*
X140617835Y-79808616D01*
X140789973Y-79923635D01*
X140936365Y-80070027D01*
X141051385Y-80242167D01*
X141130611Y-80433436D01*
X141171000Y-80636484D01*
X141171000Y-80843516D01*
X141130611Y-81046564D01*
X141051385Y-81237833D01*
X141051384Y-81237835D01*
X140936365Y-81409973D01*
X140789973Y-81556365D01*
X140617835Y-81671384D01*
X140617834Y-81671385D01*
X140617833Y-81671385D01*
X140426564Y-81750611D01*
X140223516Y-81791000D01*
X140016484Y-81791000D01*
X139813436Y-81750611D01*
X139622167Y-81671385D01*
X139622166Y-81671385D01*
X139622165Y-81671384D01*
X139450027Y-81556365D01*
X139303635Y-81409973D01*
X139188616Y-81237835D01*
X139188615Y-81237833D01*
X139109389Y-81046564D01*
X139069000Y-80843516D01*
X139069000Y-80636484D01*
X139109389Y-80433436D01*
X139188615Y-80242167D01*
X139303635Y-80070027D01*
X139450027Y-79923635D01*
X139622165Y-79808616D01*
X139622167Y-79808615D01*
X139813436Y-79729389D01*
X140016484Y-79689000D01*
X140223516Y-79689000D01*
X140426564Y-79729389D01*
G37*
G36*
X123106564Y-77489389D02*
G01*
X123297833Y-77568615D01*
X123297835Y-77568616D01*
X123469973Y-77683635D01*
X123616365Y-77830027D01*
X123658734Y-77893436D01*
X123731385Y-78002167D01*
X123810611Y-78193436D01*
X123851000Y-78396484D01*
X123851000Y-78603516D01*
X123810611Y-78806564D01*
X123784346Y-78869973D01*
X123731384Y-78997835D01*
X123616365Y-79169973D01*
X123469973Y-79316365D01*
X123297835Y-79431384D01*
X123297834Y-79431385D01*
X123297833Y-79431385D01*
X123106564Y-79510611D01*
X122903516Y-79551000D01*
X122696484Y-79551000D01*
X122493436Y-79510611D01*
X122302167Y-79431385D01*
X122302166Y-79431385D01*
X122302165Y-79431384D01*
X122130027Y-79316365D01*
X121983635Y-79169973D01*
X121868616Y-78997835D01*
X121815654Y-78869973D01*
X121789389Y-78806564D01*
X121749000Y-78603516D01*
X121749000Y-78396484D01*
X121789389Y-78193436D01*
X121868615Y-78002167D01*
X121941267Y-77893436D01*
X121983635Y-77830027D01*
X122130027Y-77683635D01*
X122302165Y-77568616D01*
X122302167Y-77568615D01*
X122493436Y-77489389D01*
X122696484Y-77449000D01*
X122903516Y-77449000D01*
X123106564Y-77489389D01*
G37*
G36*
X175986564Y-77189389D02*
G01*
X176177833Y-77268615D01*
X176177835Y-77268616D01*
X176349973Y-77383635D01*
X176496365Y-77530027D01*
X176599003Y-77683635D01*
X176611385Y-77702167D01*
X176690611Y-77893436D01*
X176731000Y-78096484D01*
X176731000Y-78303516D01*
X176690611Y-78506564D01*
X176650453Y-78603514D01*
X176611384Y-78697835D01*
X176496365Y-78869973D01*
X176349973Y-79016365D01*
X176177835Y-79131384D01*
X176177834Y-79131385D01*
X176177833Y-79131385D01*
X175986564Y-79210611D01*
X175783516Y-79251000D01*
X175576484Y-79251000D01*
X175373436Y-79210611D01*
X175182167Y-79131385D01*
X175182166Y-79131385D01*
X175182165Y-79131384D01*
X175010027Y-79016365D01*
X174863635Y-78869973D01*
X174748616Y-78697835D01*
X174709547Y-78603514D01*
X174669389Y-78506564D01*
X174629000Y-78303516D01*
X174629000Y-78096484D01*
X174669389Y-77893436D01*
X174748615Y-77702167D01*
X174760998Y-77683635D01*
X174863635Y-77530027D01*
X175010027Y-77383635D01*
X175182165Y-77268616D01*
X175182167Y-77268615D01*
X175373436Y-77189389D01*
X175576484Y-77149000D01*
X175783516Y-77149000D01*
X175986564Y-77189389D01*
G37*
G36*
X122835787Y-67085462D02*
G01*
X123025068Y-67163865D01*
X123482029Y-67353144D01*
X124063631Y-67741758D01*
X124558242Y-68236369D01*
X124946856Y-68817971D01*
X125059948Y-69091000D01*
X125214538Y-69464213D01*
X125351000Y-70150256D01*
X125351000Y-70849744D01*
X125214538Y-71535787D01*
X125191829Y-71590611D01*
X124946856Y-72182029D01*
X124558242Y-72763631D01*
X124063631Y-73258242D01*
X123482029Y-73646856D01*
X123025068Y-73836135D01*
X122835787Y-73914538D01*
X122149744Y-74051000D01*
X121450256Y-74051000D01*
X120764213Y-73914538D01*
X120574932Y-73836135D01*
X120117971Y-73646856D01*
X119536369Y-73258242D01*
X119041758Y-72763631D01*
X118653144Y-72182029D01*
X118408171Y-71590611D01*
X118385462Y-71535787D01*
X118249000Y-70849744D01*
X118249000Y-70150256D01*
X118385462Y-69464213D01*
X118540052Y-69091000D01*
X118653144Y-68817971D01*
X119041758Y-68236369D01*
X119536369Y-67741758D01*
X120117971Y-67353144D01*
X120574932Y-67163865D01*
X120764213Y-67085462D01*
X121450256Y-66949000D01*
X122149744Y-66949000D01*
X122835787Y-67085462D01*
G37*
G36*
X140426564Y-69569389D02*
G01*
X140617833Y-69648615D01*
X140617835Y-69648616D01*
X140789973Y-69763635D01*
X140936365Y-69910027D01*
X141051385Y-70082167D01*
X141130611Y-70273436D01*
X141171000Y-70476484D01*
X141171000Y-70683516D01*
X141130611Y-70886564D01*
X141051385Y-71077833D01*
X141051384Y-71077835D01*
X140936365Y-71249973D01*
X140789973Y-71396365D01*
X140617835Y-71511384D01*
X140617834Y-71511385D01*
X140617833Y-71511385D01*
X140426564Y-71590611D01*
X140223516Y-71631000D01*
X140016484Y-71631000D01*
X139813436Y-71590611D01*
X139622167Y-71511385D01*
X139622166Y-71511385D01*
X139622165Y-71511384D01*
X139450027Y-71396365D01*
X139303635Y-71249973D01*
X139188616Y-71077835D01*
X139188615Y-71077833D01*
X139109389Y-70886564D01*
X139069000Y-70683516D01*
X139069000Y-70476484D01*
X139109389Y-70273436D01*
X139188615Y-70082167D01*
X139303635Y-69910027D01*
X139450027Y-69763635D01*
X139622165Y-69648616D01*
X139622167Y-69648615D01*
X139813436Y-69569389D01*
X140016484Y-69529000D01*
X140223516Y-69529000D01*
X140426564Y-69569389D01*
G37*
G36*
X175986564Y-67029389D02*
G01*
X176177833Y-67108615D01*
X176177835Y-67108616D01*
X176349973Y-67223635D01*
X176496365Y-67370027D01*
X176611385Y-67542167D01*
X176690611Y-67733436D01*
X176731000Y-67936484D01*
X176731000Y-68143516D01*
X176690611Y-68346564D01*
X176611385Y-68537833D01*
X176611384Y-68537835D01*
X176496365Y-68709973D01*
X176349973Y-68856365D01*
X176177835Y-68971384D01*
X176177834Y-68971385D01*
X176177833Y-68971385D01*
X175986564Y-69050611D01*
X175783516Y-69091000D01*
X175576484Y-69091000D01*
X175373436Y-69050611D01*
X175182167Y-68971385D01*
X175182166Y-68971385D01*
X175182165Y-68971384D01*
X175010027Y-68856365D01*
X174863635Y-68709973D01*
X174748616Y-68537835D01*
X174748615Y-68537833D01*
X174669389Y-68346564D01*
X174629000Y-68143516D01*
X174629000Y-67936484D01*
X174669389Y-67733436D01*
X174748615Y-67542167D01*
X174863635Y-67370027D01*
X175010027Y-67223635D01*
X175182165Y-67108616D01*
X175182167Y-67108615D01*
X175373436Y-67029389D01*
X175576484Y-66989000D01*
X175783516Y-66989000D01*
X175986564Y-67029389D01*
G37*
M02*
