G04 #@! TF.GenerationSoftware,KiCad,Pcbnew,5.1.6-c6e7f7d~86~ubuntu18.04.1*
G04 #@! TF.CreationDate,2020-06-26T16:23:30-07:00*
G04 #@! TF.ProjectId,VehicleAccessoryController,56656869-636c-4654-9163-636573736f72,1.0*
G04 #@! TF.SameCoordinates,Original*
G04 #@! TF.FileFunction,Soldermask,Top*
G04 #@! TF.FilePolarity,Negative*
%FSLAX46Y46*%
G04 Gerber Fmt 4.6, Leading zero omitted, Abs format (unit mm)*
G04 Created by KiCad (PCBNEW 5.1.6-c6e7f7d~86~ubuntu18.04.1) date 2020-06-26 16:23:30*
%MOMM*%
%LPD*%
G01*
G04 APERTURE LIST*
%ADD10C,0.508000*%
%ADD11C,0.100000*%
G04 APERTURE END LIST*
D10*
X157900000Y-140700000D02*
X157900000Y-112000000D01*
X128000000Y-91210000D02*
X157910000Y-91210000D01*
X128000000Y-140700000D02*
X128000000Y-91210000D01*
X128000000Y-128000000D02*
X137000000Y-128000000D01*
X137000000Y-112000000D02*
X137000000Y-128000000D01*
X157900000Y-112000000D02*
X137000000Y-112000000D01*
X157900000Y-91210000D02*
X157900000Y-65500000D01*
D11*
G36*
X156427290Y-138125619D02*
G01*
X156491689Y-138138429D01*
X156673678Y-138213811D01*
X156837463Y-138323249D01*
X156976751Y-138462537D01*
X157086189Y-138626322D01*
X157161571Y-138808311D01*
X157161571Y-138808312D01*
X157200000Y-139001507D01*
X157200000Y-139198493D01*
X157187453Y-139261571D01*
X157161571Y-139391689D01*
X157086189Y-139573678D01*
X156976751Y-139737463D01*
X156837463Y-139876751D01*
X156673678Y-139986189D01*
X156491689Y-140061571D01*
X156427290Y-140074381D01*
X156298493Y-140100000D01*
X156101507Y-140100000D01*
X155972710Y-140074381D01*
X155908311Y-140061571D01*
X155726322Y-139986189D01*
X155562537Y-139876751D01*
X155423249Y-139737463D01*
X155313811Y-139573678D01*
X155238429Y-139391689D01*
X155212547Y-139261571D01*
X155200000Y-139198493D01*
X155200000Y-139001507D01*
X155238429Y-138808312D01*
X155238429Y-138808311D01*
X155313811Y-138626322D01*
X155423249Y-138462537D01*
X155562537Y-138323249D01*
X155726322Y-138213811D01*
X155908311Y-138138429D01*
X155972710Y-138125619D01*
X156101507Y-138100000D01*
X156298493Y-138100000D01*
X156427290Y-138125619D01*
G37*
G36*
X172573050Y-137413811D02*
G01*
X172691981Y-137437468D01*
X172874151Y-137512926D01*
X173038100Y-137622473D01*
X173177527Y-137761900D01*
X173287074Y-137925849D01*
X173362532Y-138108019D01*
X173401000Y-138301410D01*
X173401000Y-138498590D01*
X173362532Y-138691981D01*
X173287074Y-138874151D01*
X173177527Y-139038100D01*
X173038100Y-139177527D01*
X172874151Y-139287074D01*
X172691981Y-139362532D01*
X172595285Y-139381766D01*
X172498591Y-139401000D01*
X172301409Y-139401000D01*
X172204715Y-139381766D01*
X172108019Y-139362532D01*
X171925849Y-139287074D01*
X171761900Y-139177527D01*
X171622473Y-139038100D01*
X171512926Y-138874151D01*
X171437468Y-138691981D01*
X171399000Y-138498590D01*
X171399000Y-138301410D01*
X171437468Y-138108019D01*
X171512926Y-137925849D01*
X171622473Y-137761900D01*
X171761900Y-137622473D01*
X171925849Y-137512926D01*
X172108019Y-137437468D01*
X172226950Y-137413811D01*
X172301409Y-137399000D01*
X172498591Y-137399000D01*
X172573050Y-137413811D01*
G37*
G36*
X132327290Y-137325619D02*
G01*
X132391689Y-137338429D01*
X132573678Y-137413811D01*
X132737463Y-137523249D01*
X132876751Y-137662537D01*
X132986189Y-137826322D01*
X133061571Y-138008311D01*
X133100000Y-138201509D01*
X133100000Y-138398491D01*
X133061571Y-138591689D01*
X132986189Y-138773678D01*
X132876751Y-138937463D01*
X132737463Y-139076751D01*
X132573678Y-139186189D01*
X132391689Y-139261571D01*
X132327290Y-139274381D01*
X132198493Y-139300000D01*
X132001507Y-139300000D01*
X131872710Y-139274381D01*
X131808311Y-139261571D01*
X131626322Y-139186189D01*
X131462537Y-139076751D01*
X131323249Y-138937463D01*
X131213811Y-138773678D01*
X131138429Y-138591689D01*
X131100000Y-138398491D01*
X131100000Y-138201509D01*
X131138429Y-138008311D01*
X131213811Y-137826322D01*
X131323249Y-137662537D01*
X131462537Y-137523249D01*
X131626322Y-137413811D01*
X131808311Y-137338429D01*
X131872710Y-137325619D01*
X132001507Y-137300000D01*
X132198493Y-137300000D01*
X132327290Y-137325619D01*
G37*
G36*
X122835787Y-132285462D02*
G01*
X122839681Y-132287075D01*
X123482029Y-132553144D01*
X124063631Y-132941758D01*
X124558242Y-133436369D01*
X124946856Y-134017971D01*
X125047895Y-134261901D01*
X125214538Y-134664213D01*
X125351000Y-135350256D01*
X125351000Y-136049744D01*
X125214538Y-136735787D01*
X125214537Y-136735789D01*
X124946856Y-137382029D01*
X124558242Y-137963631D01*
X124063631Y-138458242D01*
X123482029Y-138846856D01*
X123263284Y-138937463D01*
X122835787Y-139114538D01*
X122149744Y-139251000D01*
X121450256Y-139251000D01*
X120764213Y-139114538D01*
X120336716Y-138937463D01*
X120117971Y-138846856D01*
X119536369Y-138458242D01*
X119041758Y-137963631D01*
X118653144Y-137382029D01*
X118385463Y-136735789D01*
X118385462Y-136735787D01*
X118249000Y-136049744D01*
X118249000Y-135350256D01*
X118385462Y-134664213D01*
X118552105Y-134261901D01*
X118653144Y-134017971D01*
X119041758Y-133436369D01*
X119536369Y-132941758D01*
X120117971Y-132553144D01*
X120760319Y-132287075D01*
X120764213Y-132285462D01*
X121450256Y-132149000D01*
X122149744Y-132149000D01*
X122835787Y-132285462D01*
G37*
G36*
X151550000Y-139070000D02*
G01*
X149350000Y-139070000D01*
X149350000Y-136370000D01*
X151550000Y-136370000D01*
X151550000Y-139070000D01*
G37*
G36*
X142650000Y-139070000D02*
G01*
X140450000Y-139070000D01*
X140450000Y-136370000D01*
X142650000Y-136370000D01*
X142650000Y-139070000D01*
G37*
G36*
X153551000Y-137971000D02*
G01*
X152449000Y-137971000D01*
X152449000Y-137169000D01*
X153551000Y-137169000D01*
X153551000Y-137971000D01*
G37*
G36*
X167551000Y-137751000D02*
G01*
X166449000Y-137751000D01*
X166449000Y-136949000D01*
X167551000Y-136949000D01*
X167551000Y-137751000D01*
G37*
G36*
X160551000Y-137751000D02*
G01*
X159449000Y-137751000D01*
X159449000Y-136949000D01*
X160551000Y-136949000D01*
X160551000Y-137751000D01*
G37*
G36*
X153551000Y-136471000D02*
G01*
X152449000Y-136471000D01*
X152449000Y-135669000D01*
X153551000Y-135669000D01*
X153551000Y-136471000D01*
G37*
G36*
X163001000Y-136301000D02*
G01*
X161999000Y-136301000D01*
X161999000Y-135399000D01*
X163001000Y-135399000D01*
X163001000Y-136301000D01*
G37*
G36*
X160551000Y-136251000D02*
G01*
X159449000Y-136251000D01*
X159449000Y-135449000D01*
X160551000Y-135449000D01*
X160551000Y-136251000D01*
G37*
G36*
X167551000Y-136251000D02*
G01*
X166449000Y-136251000D01*
X166449000Y-135449000D01*
X167551000Y-135449000D01*
X167551000Y-136251000D01*
G37*
G36*
X172691981Y-133937468D02*
G01*
X172874151Y-134012926D01*
X173038100Y-134122473D01*
X173177527Y-134261900D01*
X173287074Y-134425849D01*
X173362532Y-134608019D01*
X173401000Y-134801410D01*
X173401000Y-134998590D01*
X173362532Y-135191981D01*
X173287074Y-135374151D01*
X173177527Y-135538100D01*
X173038100Y-135677527D01*
X172874151Y-135787074D01*
X172691981Y-135862532D01*
X172595285Y-135881766D01*
X172498591Y-135901000D01*
X172301409Y-135901000D01*
X172204715Y-135881766D01*
X172108019Y-135862532D01*
X171925849Y-135787074D01*
X171761900Y-135677527D01*
X171622473Y-135538100D01*
X171512926Y-135374151D01*
X171437468Y-135191981D01*
X171399000Y-134998590D01*
X171399000Y-134801410D01*
X171437468Y-134608019D01*
X171512926Y-134425849D01*
X171622473Y-134261900D01*
X171761900Y-134122473D01*
X171925849Y-134012926D01*
X172108019Y-133937468D01*
X172301409Y-133899000D01*
X172498591Y-133899000D01*
X172691981Y-133937468D01*
G37*
G36*
X148389890Y-134194017D02*
G01*
X148508364Y-134243091D01*
X148614988Y-134314335D01*
X148705665Y-134405012D01*
X148776909Y-134511636D01*
X148825983Y-134630110D01*
X148851000Y-134755882D01*
X148851000Y-134884118D01*
X148825983Y-135009890D01*
X148776909Y-135128364D01*
X148705665Y-135234988D01*
X148614988Y-135325665D01*
X148508364Y-135396909D01*
X148508363Y-135396910D01*
X148508362Y-135396910D01*
X148389890Y-135445983D01*
X148264119Y-135471000D01*
X148135881Y-135471000D01*
X148010110Y-135445983D01*
X147891638Y-135396910D01*
X147891637Y-135396910D01*
X147891636Y-135396909D01*
X147785012Y-135325665D01*
X147694335Y-135234988D01*
X147623091Y-135128364D01*
X147574017Y-135009890D01*
X147549000Y-134884118D01*
X147549000Y-134755882D01*
X147574017Y-134630110D01*
X147623091Y-134511636D01*
X147694335Y-134405012D01*
X147785012Y-134314335D01*
X147891636Y-134243091D01*
X148010110Y-134194017D01*
X148135881Y-134169000D01*
X148264119Y-134169000D01*
X148389890Y-134194017D01*
G37*
G36*
X143989890Y-134194017D02*
G01*
X144108364Y-134243091D01*
X144214988Y-134314335D01*
X144305665Y-134405012D01*
X144376909Y-134511636D01*
X144425983Y-134630110D01*
X144451000Y-134755882D01*
X144451000Y-134884118D01*
X144425983Y-135009890D01*
X144376909Y-135128364D01*
X144305665Y-135234988D01*
X144214988Y-135325665D01*
X144108364Y-135396909D01*
X144108363Y-135396910D01*
X144108362Y-135396910D01*
X143989890Y-135445983D01*
X143864119Y-135471000D01*
X143735881Y-135471000D01*
X143610110Y-135445983D01*
X143491638Y-135396910D01*
X143491637Y-135396910D01*
X143491636Y-135396909D01*
X143385012Y-135325665D01*
X143294335Y-135234988D01*
X143223091Y-135128364D01*
X143174017Y-135009890D01*
X143149000Y-134884118D01*
X143149000Y-134755882D01*
X143174017Y-134630110D01*
X143223091Y-134511636D01*
X143294335Y-134405012D01*
X143385012Y-134314335D01*
X143491636Y-134243091D01*
X143610110Y-134194017D01*
X143735881Y-134169000D01*
X143864119Y-134169000D01*
X143989890Y-134194017D01*
G37*
G36*
X165001000Y-135351000D02*
G01*
X163999000Y-135351000D01*
X163999000Y-134449000D01*
X165001000Y-134449000D01*
X165001000Y-135351000D01*
G37*
G36*
X163001000Y-134401000D02*
G01*
X161999000Y-134401000D01*
X161999000Y-133499000D01*
X163001000Y-133499000D01*
X163001000Y-134401000D01*
G37*
G36*
X153651000Y-134371000D02*
G01*
X152349000Y-134371000D01*
X152349000Y-133269000D01*
X153651000Y-133269000D01*
X153651000Y-134371000D01*
G37*
G36*
X160551000Y-134351000D02*
G01*
X159449000Y-134351000D01*
X159449000Y-133549000D01*
X160551000Y-133549000D01*
X160551000Y-134351000D01*
G37*
G36*
X167551000Y-134351000D02*
G01*
X166449000Y-134351000D01*
X166449000Y-133549000D01*
X167551000Y-133549000D01*
X167551000Y-134351000D01*
G37*
G36*
X142650000Y-133620000D02*
G01*
X140450000Y-133620000D01*
X140450000Y-130920000D01*
X142650000Y-130920000D01*
X142650000Y-133620000D01*
G37*
G36*
X151550000Y-133620000D02*
G01*
X149350000Y-133620000D01*
X149350000Y-130920000D01*
X151550000Y-130920000D01*
X151550000Y-133620000D01*
G37*
G36*
X147950000Y-133370000D02*
G01*
X144050000Y-133370000D01*
X144050000Y-130920000D01*
X147950000Y-130920000D01*
X147950000Y-133370000D01*
G37*
G36*
X133851000Y-133301000D02*
G01*
X132749000Y-133301000D01*
X132749000Y-132399000D01*
X133851000Y-132399000D01*
X133851000Y-133301000D01*
G37*
G36*
X137251000Y-133301000D02*
G01*
X136149000Y-133301000D01*
X136149000Y-132399000D01*
X137251000Y-132399000D01*
X137251000Y-133301000D01*
G37*
G36*
X167551000Y-132851000D02*
G01*
X166449000Y-132851000D01*
X166449000Y-132049000D01*
X167551000Y-132049000D01*
X167551000Y-132851000D01*
G37*
G36*
X160551000Y-132851000D02*
G01*
X159449000Y-132851000D01*
X159449000Y-132049000D01*
X160551000Y-132049000D01*
X160551000Y-132851000D01*
G37*
G36*
X172691981Y-130437468D02*
G01*
X172874151Y-130512926D01*
X173038100Y-130622473D01*
X173177527Y-130761900D01*
X173287074Y-130925849D01*
X173362532Y-131108019D01*
X173401000Y-131301410D01*
X173401000Y-131498590D01*
X173362532Y-131691981D01*
X173287074Y-131874151D01*
X173177527Y-132038100D01*
X173038100Y-132177527D01*
X172874151Y-132287074D01*
X172691981Y-132362532D01*
X172595285Y-132381766D01*
X172498591Y-132401000D01*
X172301409Y-132401000D01*
X172204715Y-132381766D01*
X172108019Y-132362532D01*
X171925849Y-132287074D01*
X171761900Y-132177527D01*
X171622473Y-132038100D01*
X171512926Y-131874151D01*
X171437468Y-131691981D01*
X171399000Y-131498590D01*
X171399000Y-131301410D01*
X171437468Y-131108019D01*
X171512926Y-130925849D01*
X171622473Y-130761900D01*
X171761900Y-130622473D01*
X171925849Y-130512926D01*
X172108019Y-130437468D01*
X172301409Y-130399000D01*
X172498591Y-130399000D01*
X172691981Y-130437468D01*
G37*
G36*
X153651000Y-132371000D02*
G01*
X152349000Y-132371000D01*
X152349000Y-131269000D01*
X153651000Y-131269000D01*
X153651000Y-132371000D01*
G37*
G36*
X133851000Y-131801000D02*
G01*
X132749000Y-131801000D01*
X132749000Y-130899000D01*
X133851000Y-130899000D01*
X133851000Y-131801000D01*
G37*
G36*
X137251000Y-131801000D02*
G01*
X136149000Y-131801000D01*
X136149000Y-130899000D01*
X137251000Y-130899000D01*
X137251000Y-131801000D01*
G37*
G36*
X172691981Y-126937468D02*
G01*
X172874151Y-127012926D01*
X173038100Y-127122473D01*
X173177527Y-127261900D01*
X173287074Y-127425849D01*
X173362532Y-127608019D01*
X173401000Y-127801410D01*
X173401000Y-127998590D01*
X173362532Y-128191981D01*
X173287074Y-128374151D01*
X173177527Y-128538100D01*
X173038100Y-128677527D01*
X172874151Y-128787074D01*
X172691981Y-128862532D01*
X172595285Y-128881766D01*
X172498591Y-128901000D01*
X172301409Y-128901000D01*
X172204715Y-128881766D01*
X172108019Y-128862532D01*
X171925849Y-128787074D01*
X171761900Y-128677527D01*
X171622473Y-128538100D01*
X171512926Y-128374151D01*
X171437468Y-128191981D01*
X171399000Y-127998590D01*
X171399000Y-127801410D01*
X171437468Y-127608019D01*
X171512926Y-127425849D01*
X171622473Y-127261900D01*
X171761900Y-127122473D01*
X171925849Y-127012926D01*
X172108019Y-126937468D01*
X172301409Y-126899000D01*
X172498591Y-126899000D01*
X172691981Y-126937468D01*
G37*
G36*
X151651000Y-128651000D02*
G01*
X150549000Y-128651000D01*
X150549000Y-127349000D01*
X151651000Y-127349000D01*
X151651000Y-128651000D01*
G37*
G36*
X153651000Y-128651000D02*
G01*
X152549000Y-128651000D01*
X152549000Y-127349000D01*
X153651000Y-127349000D01*
X153651000Y-128651000D01*
G37*
G36*
X147851000Y-128001000D02*
G01*
X146349000Y-128001000D01*
X146349000Y-126899000D01*
X147851000Y-126899000D01*
X147851000Y-128001000D01*
G37*
G36*
X145651000Y-128001000D02*
G01*
X144149000Y-128001000D01*
X144149000Y-126899000D01*
X145651000Y-126899000D01*
X145651000Y-128001000D01*
G37*
G36*
X160551000Y-127251000D02*
G01*
X159449000Y-127251000D01*
X159449000Y-126449000D01*
X160551000Y-126449000D01*
X160551000Y-127251000D01*
G37*
G36*
X167551000Y-127251000D02*
G01*
X166449000Y-127251000D01*
X166449000Y-126449000D01*
X167551000Y-126449000D01*
X167551000Y-127251000D01*
G37*
G36*
X151651000Y-126651000D02*
G01*
X150549000Y-126651000D01*
X150549000Y-125349000D01*
X151651000Y-125349000D01*
X151651000Y-126651000D01*
G37*
G36*
X153651000Y-126651000D02*
G01*
X152549000Y-126651000D01*
X152549000Y-125349000D01*
X153651000Y-125349000D01*
X153651000Y-126651000D01*
G37*
G36*
X126265285Y-124558234D02*
G01*
X126361981Y-124577468D01*
X126490795Y-124630825D01*
X126539502Y-124651000D01*
X126544151Y-124652926D01*
X126708100Y-124762473D01*
X126847527Y-124901900D01*
X126957074Y-125065849D01*
X126957075Y-125065851D01*
X126979175Y-125119205D01*
X127032532Y-125248019D01*
X127071000Y-125441410D01*
X127071000Y-125638590D01*
X127032532Y-125831981D01*
X126957074Y-126014151D01*
X126847527Y-126178100D01*
X126708100Y-126317527D01*
X126544151Y-126427074D01*
X126361981Y-126502532D01*
X126168591Y-126541000D01*
X125971409Y-126541000D01*
X125778019Y-126502532D01*
X125595849Y-126427074D01*
X125431900Y-126317527D01*
X125292473Y-126178100D01*
X125182926Y-126014151D01*
X125107468Y-125831981D01*
X125069000Y-125638590D01*
X125069000Y-125441410D01*
X125107468Y-125248019D01*
X125160825Y-125119205D01*
X125182925Y-125065851D01*
X125182926Y-125065849D01*
X125292473Y-124901900D01*
X125431900Y-124762473D01*
X125595849Y-124652926D01*
X125600499Y-124651000D01*
X125649205Y-124630825D01*
X125778019Y-124577468D01*
X125874715Y-124558234D01*
X125971409Y-124539000D01*
X126168591Y-124539000D01*
X126265285Y-124558234D01*
G37*
G36*
X121185285Y-124558234D02*
G01*
X121281981Y-124577468D01*
X121410795Y-124630825D01*
X121459502Y-124651000D01*
X121464151Y-124652926D01*
X121628100Y-124762473D01*
X121767527Y-124901900D01*
X121877074Y-125065849D01*
X121877075Y-125065851D01*
X121899175Y-125119205D01*
X121952532Y-125248019D01*
X121991000Y-125441410D01*
X121991000Y-125638590D01*
X121952532Y-125831981D01*
X121877074Y-126014151D01*
X121767527Y-126178100D01*
X121628100Y-126317527D01*
X121464151Y-126427074D01*
X121281981Y-126502532D01*
X121088591Y-126541000D01*
X120891409Y-126541000D01*
X120698019Y-126502532D01*
X120515849Y-126427074D01*
X120351900Y-126317527D01*
X120212473Y-126178100D01*
X120102926Y-126014151D01*
X120027468Y-125831981D01*
X119989000Y-125638590D01*
X119989000Y-125441410D01*
X120027468Y-125248019D01*
X120080825Y-125119205D01*
X120102925Y-125065851D01*
X120102926Y-125065849D01*
X120212473Y-124901900D01*
X120351900Y-124762473D01*
X120515849Y-124652926D01*
X120520499Y-124651000D01*
X120569205Y-124630825D01*
X120698019Y-124577468D01*
X120794715Y-124558234D01*
X120891409Y-124539000D01*
X121088591Y-124539000D01*
X121185285Y-124558234D01*
G37*
G36*
X145651000Y-126381000D02*
G01*
X144149000Y-126381000D01*
X144149000Y-125079000D01*
X145651000Y-125079000D01*
X145651000Y-126381000D01*
G37*
G36*
X139026000Y-126151000D02*
G01*
X137924000Y-126151000D01*
X137924000Y-124849000D01*
X139026000Y-124849000D01*
X139026000Y-126151000D01*
G37*
G36*
X134076000Y-126151000D02*
G01*
X132974000Y-126151000D01*
X132974000Y-124849000D01*
X134076000Y-124849000D01*
X134076000Y-126151000D01*
G37*
G36*
X136076000Y-126151000D02*
G01*
X134974000Y-126151000D01*
X134974000Y-124849000D01*
X136076000Y-124849000D01*
X136076000Y-126151000D01*
G37*
G36*
X141026000Y-126151000D02*
G01*
X139924000Y-126151000D01*
X139924000Y-124849000D01*
X141026000Y-124849000D01*
X141026000Y-126151000D01*
G37*
G36*
X147851000Y-126101000D02*
G01*
X146349000Y-126101000D01*
X146349000Y-124999000D01*
X147851000Y-124999000D01*
X147851000Y-126101000D01*
G37*
G36*
X163001000Y-125801000D02*
G01*
X161999000Y-125801000D01*
X161999000Y-124899000D01*
X163001000Y-124899000D01*
X163001000Y-125801000D01*
G37*
G36*
X167551000Y-125751000D02*
G01*
X166449000Y-125751000D01*
X166449000Y-124949000D01*
X167551000Y-124949000D01*
X167551000Y-125751000D01*
G37*
G36*
X160551000Y-125751000D02*
G01*
X159449000Y-125751000D01*
X159449000Y-124949000D01*
X160551000Y-124949000D01*
X160551000Y-125751000D01*
G37*
G36*
X172691981Y-123437468D02*
G01*
X172874151Y-123512926D01*
X173038100Y-123622473D01*
X173177527Y-123761900D01*
X173287074Y-123925849D01*
X173362532Y-124108019D01*
X173401000Y-124301410D01*
X173401000Y-124498590D01*
X173362532Y-124691981D01*
X173287074Y-124874151D01*
X173177527Y-125038100D01*
X173038100Y-125177527D01*
X172874151Y-125287074D01*
X172691981Y-125362532D01*
X172595285Y-125381766D01*
X172498591Y-125401000D01*
X172301409Y-125401000D01*
X172204715Y-125381766D01*
X172108019Y-125362532D01*
X171925849Y-125287074D01*
X171761900Y-125177527D01*
X171622473Y-125038100D01*
X171512926Y-124874151D01*
X171437468Y-124691981D01*
X171399000Y-124498590D01*
X171399000Y-124301410D01*
X171437468Y-124108019D01*
X171512926Y-123925849D01*
X171622473Y-123761900D01*
X171761900Y-123622473D01*
X171925849Y-123512926D01*
X172108019Y-123437468D01*
X172301409Y-123399000D01*
X172498591Y-123399000D01*
X172691981Y-123437468D01*
G37*
G36*
X165001000Y-124851000D02*
G01*
X163999000Y-124851000D01*
X163999000Y-123949000D01*
X165001000Y-123949000D01*
X165001000Y-124851000D01*
G37*
G36*
X153651000Y-124651000D02*
G01*
X152549000Y-124651000D01*
X152549000Y-123349000D01*
X153651000Y-123349000D01*
X153651000Y-124651000D01*
G37*
G36*
X151651000Y-124651000D02*
G01*
X150549000Y-124651000D01*
X150549000Y-123349000D01*
X151651000Y-123349000D01*
X151651000Y-124651000D01*
G37*
G36*
X126361981Y-122037468D02*
G01*
X126544151Y-122112926D01*
X126708100Y-122222473D01*
X126847527Y-122361900D01*
X126957074Y-122525849D01*
X127032532Y-122708019D01*
X127071000Y-122901410D01*
X127071000Y-123098590D01*
X127048215Y-123213140D01*
X127032532Y-123291980D01*
X126964593Y-123456000D01*
X126957074Y-123474151D01*
X126847527Y-123638100D01*
X126708100Y-123777527D01*
X126544151Y-123887074D01*
X126361981Y-123962532D01*
X126265285Y-123981766D01*
X126168591Y-124001000D01*
X125971409Y-124001000D01*
X125874715Y-123981766D01*
X125778019Y-123962532D01*
X125595849Y-123887074D01*
X125431900Y-123777527D01*
X125292473Y-123638100D01*
X125182926Y-123474151D01*
X125175408Y-123456000D01*
X125107468Y-123291980D01*
X125091786Y-123213140D01*
X125069000Y-123098590D01*
X125069000Y-122901410D01*
X125107468Y-122708019D01*
X125182926Y-122525849D01*
X125292473Y-122361900D01*
X125431900Y-122222473D01*
X125595849Y-122112926D01*
X125778019Y-122037468D01*
X125971409Y-121999000D01*
X126168591Y-121999000D01*
X126361981Y-122037468D01*
G37*
G36*
X163001000Y-123901000D02*
G01*
X161999000Y-123901000D01*
X161999000Y-122999000D01*
X163001000Y-122999000D01*
X163001000Y-123901000D01*
G37*
G36*
X160551000Y-123851000D02*
G01*
X159449000Y-123851000D01*
X159449000Y-123049000D01*
X160551000Y-123049000D01*
X160551000Y-123851000D01*
G37*
G36*
X167551000Y-123851000D02*
G01*
X166449000Y-123851000D01*
X166449000Y-123049000D01*
X167551000Y-123049000D01*
X167551000Y-123851000D01*
G37*
G36*
X135459928Y-123096764D02*
G01*
X135481009Y-123103160D01*
X135500445Y-123113548D01*
X135517476Y-123127524D01*
X135531452Y-123144555D01*
X135541840Y-123163991D01*
X135548236Y-123185072D01*
X135551000Y-123213140D01*
X135551000Y-123676860D01*
X135548236Y-123704928D01*
X135541840Y-123726009D01*
X135531452Y-123745445D01*
X135517476Y-123762476D01*
X135500445Y-123776452D01*
X135481009Y-123786840D01*
X135459928Y-123793236D01*
X135431860Y-123796000D01*
X133618140Y-123796000D01*
X133590072Y-123793236D01*
X133568991Y-123786840D01*
X133549555Y-123776452D01*
X133532524Y-123762476D01*
X133518548Y-123745445D01*
X133508160Y-123726009D01*
X133501764Y-123704928D01*
X133499000Y-123676860D01*
X133499000Y-123213140D01*
X133501764Y-123185072D01*
X133508160Y-123163991D01*
X133518548Y-123144555D01*
X133532524Y-123127524D01*
X133549555Y-123113548D01*
X133568991Y-123103160D01*
X133590072Y-123096764D01*
X133618140Y-123094000D01*
X135431860Y-123094000D01*
X135459928Y-123096764D01*
G37*
G36*
X140409928Y-123096764D02*
G01*
X140431009Y-123103160D01*
X140450445Y-123113548D01*
X140467476Y-123127524D01*
X140481452Y-123144555D01*
X140491840Y-123163991D01*
X140498236Y-123185072D01*
X140501000Y-123213140D01*
X140501000Y-123676860D01*
X140498236Y-123704928D01*
X140491840Y-123726009D01*
X140481452Y-123745445D01*
X140467476Y-123762476D01*
X140450445Y-123776452D01*
X140431009Y-123786840D01*
X140409928Y-123793236D01*
X140381860Y-123796000D01*
X138568140Y-123796000D01*
X138540072Y-123793236D01*
X138518991Y-123786840D01*
X138499555Y-123776452D01*
X138482524Y-123762476D01*
X138468548Y-123745445D01*
X138458160Y-123726009D01*
X138451764Y-123704928D01*
X138449000Y-123676860D01*
X138449000Y-123213140D01*
X138451764Y-123185072D01*
X138458160Y-123163991D01*
X138468548Y-123144555D01*
X138482524Y-123127524D01*
X138499555Y-123113548D01*
X138518991Y-123103160D01*
X138540072Y-123096764D01*
X138568140Y-123094000D01*
X140381860Y-123094000D01*
X140409928Y-123096764D01*
G37*
G36*
X131051000Y-123456000D02*
G01*
X129749000Y-123456000D01*
X129749000Y-122354000D01*
X131051000Y-122354000D01*
X131051000Y-123456000D01*
G37*
G36*
X151651000Y-122651000D02*
G01*
X150549000Y-122651000D01*
X150549000Y-121349000D01*
X151651000Y-121349000D01*
X151651000Y-122651000D01*
G37*
G36*
X153651000Y-122651000D02*
G01*
X152549000Y-122651000D01*
X152549000Y-121349000D01*
X153651000Y-121349000D01*
X153651000Y-122651000D01*
G37*
G36*
X140409928Y-121826764D02*
G01*
X140431009Y-121833160D01*
X140450445Y-121843548D01*
X140467476Y-121857524D01*
X140481452Y-121874555D01*
X140491840Y-121893991D01*
X140498236Y-121915072D01*
X140501000Y-121943140D01*
X140501000Y-122406860D01*
X140498236Y-122434928D01*
X140491840Y-122456009D01*
X140481452Y-122475445D01*
X140467476Y-122492476D01*
X140450445Y-122506452D01*
X140431009Y-122516840D01*
X140409928Y-122523236D01*
X140381860Y-122526000D01*
X138568140Y-122526000D01*
X138540072Y-122523236D01*
X138518991Y-122516840D01*
X138499555Y-122506452D01*
X138482524Y-122492476D01*
X138468548Y-122475445D01*
X138458160Y-122456009D01*
X138451764Y-122434928D01*
X138449000Y-122406860D01*
X138449000Y-121943140D01*
X138451764Y-121915072D01*
X138458160Y-121893991D01*
X138468548Y-121874555D01*
X138482524Y-121857524D01*
X138499555Y-121843548D01*
X138518991Y-121833160D01*
X138540072Y-121826764D01*
X138568140Y-121824000D01*
X140381860Y-121824000D01*
X140409928Y-121826764D01*
G37*
G36*
X135459928Y-121826764D02*
G01*
X135481009Y-121833160D01*
X135500445Y-121843548D01*
X135517476Y-121857524D01*
X135531452Y-121874555D01*
X135541840Y-121893991D01*
X135548236Y-121915072D01*
X135551000Y-121943140D01*
X135551000Y-122406860D01*
X135548236Y-122434928D01*
X135541840Y-122456009D01*
X135531452Y-122475445D01*
X135517476Y-122492476D01*
X135500445Y-122506452D01*
X135481009Y-122516840D01*
X135459928Y-122523236D01*
X135431860Y-122526000D01*
X133618140Y-122526000D01*
X133590072Y-122523236D01*
X133568991Y-122516840D01*
X133549555Y-122506452D01*
X133532524Y-122492476D01*
X133518548Y-122475445D01*
X133508160Y-122456009D01*
X133501764Y-122434928D01*
X133499000Y-122406860D01*
X133499000Y-121943140D01*
X133501764Y-121915072D01*
X133508160Y-121893991D01*
X133518548Y-121874555D01*
X133532524Y-121857524D01*
X133549555Y-121843548D01*
X133568991Y-121833160D01*
X133590072Y-121826764D01*
X133618140Y-121824000D01*
X135431860Y-121824000D01*
X135459928Y-121826764D01*
G37*
G36*
X167551000Y-122351000D02*
G01*
X166449000Y-122351000D01*
X166449000Y-121549000D01*
X167551000Y-121549000D01*
X167551000Y-122351000D01*
G37*
G36*
X160551000Y-122351000D02*
G01*
X159449000Y-122351000D01*
X159449000Y-121549000D01*
X160551000Y-121549000D01*
X160551000Y-122351000D01*
G37*
G36*
X172575659Y-119914330D02*
G01*
X172691981Y-119937468D01*
X172813364Y-119987747D01*
X172872527Y-120012253D01*
X172874151Y-120012926D01*
X173038100Y-120122473D01*
X173177527Y-120261900D01*
X173286045Y-120424309D01*
X173287075Y-120425851D01*
X173307019Y-120474000D01*
X173362532Y-120608019D01*
X173401000Y-120801410D01*
X173401000Y-120998590D01*
X173362532Y-121191981D01*
X173287074Y-121374151D01*
X173177527Y-121538100D01*
X173038100Y-121677527D01*
X172874151Y-121787074D01*
X172691981Y-121862532D01*
X172627274Y-121875403D01*
X172498591Y-121901000D01*
X172301409Y-121901000D01*
X172172726Y-121875403D01*
X172108019Y-121862532D01*
X171925849Y-121787074D01*
X171761900Y-121677527D01*
X171622473Y-121538100D01*
X171512926Y-121374151D01*
X171437468Y-121191981D01*
X171399000Y-120998590D01*
X171399000Y-120801410D01*
X171437468Y-120608019D01*
X171492981Y-120474000D01*
X171512925Y-120425851D01*
X171513955Y-120424309D01*
X171622473Y-120261900D01*
X171761900Y-120122473D01*
X171925849Y-120012926D01*
X171927474Y-120012253D01*
X171986636Y-119987747D01*
X172108019Y-119937468D01*
X172224341Y-119914330D01*
X172301409Y-119899000D01*
X172498591Y-119899000D01*
X172575659Y-119914330D01*
G37*
G36*
X121185285Y-119478234D02*
G01*
X121281981Y-119497468D01*
X121464151Y-119572926D01*
X121628100Y-119682473D01*
X121767527Y-119821900D01*
X121877074Y-119985849D01*
X121950039Y-120162000D01*
X121952532Y-120168020D01*
X121989759Y-120355168D01*
X121991000Y-120361410D01*
X121991000Y-120558590D01*
X121952532Y-120751981D01*
X121877074Y-120934151D01*
X121767527Y-121098100D01*
X121628100Y-121237527D01*
X121464151Y-121347074D01*
X121464150Y-121347075D01*
X121464149Y-121347075D01*
X121428382Y-121361890D01*
X121281981Y-121422532D01*
X121185285Y-121441766D01*
X121088591Y-121461000D01*
X120891409Y-121461000D01*
X120794715Y-121441766D01*
X120698019Y-121422532D01*
X120551618Y-121361890D01*
X120515851Y-121347075D01*
X120515850Y-121347075D01*
X120515849Y-121347074D01*
X120351900Y-121237527D01*
X120212473Y-121098100D01*
X120102926Y-120934151D01*
X120027468Y-120751981D01*
X119989000Y-120558590D01*
X119989000Y-120361410D01*
X119990242Y-120355168D01*
X120027468Y-120168020D01*
X120029962Y-120162000D01*
X120102926Y-119985849D01*
X120212473Y-119821900D01*
X120351900Y-119682473D01*
X120515849Y-119572926D01*
X120698019Y-119497468D01*
X120794715Y-119478234D01*
X120891409Y-119459000D01*
X121088591Y-119459000D01*
X121185285Y-119478234D01*
G37*
G36*
X126265285Y-119478234D02*
G01*
X126361981Y-119497468D01*
X126544151Y-119572926D01*
X126708100Y-119682473D01*
X126847527Y-119821900D01*
X126957074Y-119985849D01*
X127030039Y-120162000D01*
X127032532Y-120168020D01*
X127069759Y-120355168D01*
X127071000Y-120361410D01*
X127071000Y-120558590D01*
X127032532Y-120751981D01*
X126957074Y-120934151D01*
X126847527Y-121098100D01*
X126708100Y-121237527D01*
X126544151Y-121347074D01*
X126544150Y-121347075D01*
X126544149Y-121347075D01*
X126508382Y-121361890D01*
X126361981Y-121422532D01*
X126265285Y-121441766D01*
X126168591Y-121461000D01*
X125971409Y-121461000D01*
X125874715Y-121441766D01*
X125778019Y-121422532D01*
X125631618Y-121361890D01*
X125595851Y-121347075D01*
X125595850Y-121347075D01*
X125595849Y-121347074D01*
X125431900Y-121237527D01*
X125292473Y-121098100D01*
X125182926Y-120934151D01*
X125107468Y-120751981D01*
X125069000Y-120558590D01*
X125069000Y-120361410D01*
X125070242Y-120355168D01*
X125107468Y-120168020D01*
X125109962Y-120162000D01*
X125182926Y-119985849D01*
X125292473Y-119821900D01*
X125431900Y-119682473D01*
X125595849Y-119572926D01*
X125778019Y-119497468D01*
X125874715Y-119478234D01*
X125971409Y-119459000D01*
X126168591Y-119459000D01*
X126265285Y-119478234D01*
G37*
G36*
X131051000Y-121456000D02*
G01*
X129749000Y-121456000D01*
X129749000Y-120354000D01*
X131051000Y-120354000D01*
X131051000Y-121456000D01*
G37*
G36*
X144905355Y-116600083D02*
G01*
X144910029Y-116601501D01*
X144914330Y-116603800D01*
X144920702Y-116609029D01*
X144941076Y-116622643D01*
X144963715Y-116632020D01*
X144987749Y-116636800D01*
X145012253Y-116636800D01*
X145036286Y-116632019D01*
X145058925Y-116622642D01*
X145079298Y-116609029D01*
X145085670Y-116603800D01*
X145089971Y-116601501D01*
X145094645Y-116600083D01*
X145105641Y-116599000D01*
X145394359Y-116599000D01*
X145405355Y-116600083D01*
X145410029Y-116601501D01*
X145414330Y-116603800D01*
X145420702Y-116609029D01*
X145441076Y-116622643D01*
X145463715Y-116632020D01*
X145487749Y-116636800D01*
X145512253Y-116636800D01*
X145536286Y-116632019D01*
X145558925Y-116622642D01*
X145579298Y-116609029D01*
X145585670Y-116603800D01*
X145589971Y-116601501D01*
X145594645Y-116600083D01*
X145605641Y-116599000D01*
X145894359Y-116599000D01*
X145905355Y-116600083D01*
X145910029Y-116601501D01*
X145914330Y-116603800D01*
X145920702Y-116609029D01*
X145941076Y-116622643D01*
X145963715Y-116632020D01*
X145987749Y-116636800D01*
X146012253Y-116636800D01*
X146036286Y-116632019D01*
X146058925Y-116622642D01*
X146079298Y-116609029D01*
X146085670Y-116603800D01*
X146089971Y-116601501D01*
X146094645Y-116600083D01*
X146105641Y-116599000D01*
X146394359Y-116599000D01*
X146405355Y-116600083D01*
X146410029Y-116601501D01*
X146414330Y-116603800D01*
X146420702Y-116609029D01*
X146441076Y-116622643D01*
X146463715Y-116632020D01*
X146487749Y-116636800D01*
X146512253Y-116636800D01*
X146536286Y-116632019D01*
X146558925Y-116622642D01*
X146579298Y-116609029D01*
X146585670Y-116603800D01*
X146589971Y-116601501D01*
X146594645Y-116600083D01*
X146605641Y-116599000D01*
X146894359Y-116599000D01*
X146905355Y-116600083D01*
X146910029Y-116601501D01*
X146914330Y-116603800D01*
X146920702Y-116609029D01*
X146941076Y-116622643D01*
X146963715Y-116632020D01*
X146987749Y-116636800D01*
X147012253Y-116636800D01*
X147036286Y-116632019D01*
X147058925Y-116622642D01*
X147079298Y-116609029D01*
X147085670Y-116603800D01*
X147089971Y-116601501D01*
X147094645Y-116600083D01*
X147105641Y-116599000D01*
X147394359Y-116599000D01*
X147405355Y-116600083D01*
X147410029Y-116601501D01*
X147414331Y-116603800D01*
X147418104Y-116606896D01*
X147421200Y-116610669D01*
X147423499Y-116614971D01*
X147424917Y-116619645D01*
X147426000Y-116630641D01*
X147426000Y-117449001D01*
X147428402Y-117473387D01*
X147435515Y-117496836D01*
X147447066Y-117518447D01*
X147462611Y-117537389D01*
X147481553Y-117552934D01*
X147503164Y-117564485D01*
X147526613Y-117571598D01*
X147550999Y-117574000D01*
X148369359Y-117574000D01*
X148380355Y-117575083D01*
X148385029Y-117576501D01*
X148389331Y-117578800D01*
X148393104Y-117581896D01*
X148396200Y-117585669D01*
X148398499Y-117589971D01*
X148399917Y-117594645D01*
X148401000Y-117605641D01*
X148401000Y-117894359D01*
X148399917Y-117905355D01*
X148398499Y-117910029D01*
X148396200Y-117914330D01*
X148390971Y-117920702D01*
X148377357Y-117941076D01*
X148367980Y-117963715D01*
X148363200Y-117987749D01*
X148363200Y-118012253D01*
X148367981Y-118036286D01*
X148377358Y-118058925D01*
X148390971Y-118079298D01*
X148396200Y-118085670D01*
X148398499Y-118089971D01*
X148399917Y-118094645D01*
X148401000Y-118105641D01*
X148401000Y-118394359D01*
X148399917Y-118405355D01*
X148398499Y-118410029D01*
X148396200Y-118414330D01*
X148390971Y-118420702D01*
X148377357Y-118441076D01*
X148367980Y-118463715D01*
X148363200Y-118487749D01*
X148363200Y-118512253D01*
X148367981Y-118536286D01*
X148377358Y-118558925D01*
X148390971Y-118579298D01*
X148396200Y-118585670D01*
X148398499Y-118589971D01*
X148399917Y-118594645D01*
X148401000Y-118605641D01*
X148401000Y-118894359D01*
X148399917Y-118905355D01*
X148398499Y-118910029D01*
X148396200Y-118914330D01*
X148390971Y-118920702D01*
X148377357Y-118941076D01*
X148367980Y-118963715D01*
X148363200Y-118987749D01*
X148363200Y-119012253D01*
X148367981Y-119036286D01*
X148377358Y-119058925D01*
X148390971Y-119079298D01*
X148396200Y-119085670D01*
X148398499Y-119089971D01*
X148399917Y-119094645D01*
X148401000Y-119105641D01*
X148401000Y-119394359D01*
X148399917Y-119405355D01*
X148398499Y-119410029D01*
X148396200Y-119414330D01*
X148390971Y-119420702D01*
X148377357Y-119441076D01*
X148367980Y-119463715D01*
X148363200Y-119487749D01*
X148363200Y-119512253D01*
X148367981Y-119536286D01*
X148377358Y-119558925D01*
X148390971Y-119579298D01*
X148396200Y-119585670D01*
X148398499Y-119589971D01*
X148399917Y-119594645D01*
X148401000Y-119605641D01*
X148401000Y-119894359D01*
X148399917Y-119905355D01*
X148398499Y-119910029D01*
X148396200Y-119914330D01*
X148390971Y-119920702D01*
X148377357Y-119941076D01*
X148367980Y-119963715D01*
X148363200Y-119987749D01*
X148363200Y-120012253D01*
X148367981Y-120036286D01*
X148377358Y-120058925D01*
X148390971Y-120079298D01*
X148396200Y-120085670D01*
X148398499Y-120089971D01*
X148399917Y-120094645D01*
X148401000Y-120105641D01*
X148401000Y-120394359D01*
X148399917Y-120405355D01*
X148398499Y-120410029D01*
X148396200Y-120414331D01*
X148393104Y-120418104D01*
X148389331Y-120421200D01*
X148385029Y-120423499D01*
X148380355Y-120424917D01*
X148369359Y-120426000D01*
X147550999Y-120426000D01*
X147526613Y-120428402D01*
X147503164Y-120435515D01*
X147481553Y-120447066D01*
X147462611Y-120462611D01*
X147447066Y-120481553D01*
X147435515Y-120503164D01*
X147428402Y-120526613D01*
X147426000Y-120550999D01*
X147426000Y-121369359D01*
X147424917Y-121380355D01*
X147423499Y-121385029D01*
X147421200Y-121389331D01*
X147418104Y-121393104D01*
X147414331Y-121396200D01*
X147410029Y-121398499D01*
X147405355Y-121399917D01*
X147394359Y-121401000D01*
X147105641Y-121401000D01*
X147094645Y-121399917D01*
X147089971Y-121398499D01*
X147085670Y-121396200D01*
X147079298Y-121390971D01*
X147058924Y-121377357D01*
X147036285Y-121367980D01*
X147012251Y-121363200D01*
X146987747Y-121363200D01*
X146963714Y-121367981D01*
X146941075Y-121377358D01*
X146920702Y-121390971D01*
X146914330Y-121396200D01*
X146910029Y-121398499D01*
X146905355Y-121399917D01*
X146894359Y-121401000D01*
X146605641Y-121401000D01*
X146594645Y-121399917D01*
X146589971Y-121398499D01*
X146585670Y-121396200D01*
X146579298Y-121390971D01*
X146558924Y-121377357D01*
X146536285Y-121367980D01*
X146512251Y-121363200D01*
X146487747Y-121363200D01*
X146463714Y-121367981D01*
X146441075Y-121377358D01*
X146420702Y-121390971D01*
X146414330Y-121396200D01*
X146410029Y-121398499D01*
X146405355Y-121399917D01*
X146394359Y-121401000D01*
X146105641Y-121401000D01*
X146094645Y-121399917D01*
X146089971Y-121398499D01*
X146085670Y-121396200D01*
X146079298Y-121390971D01*
X146058924Y-121377357D01*
X146036285Y-121367980D01*
X146012251Y-121363200D01*
X145987747Y-121363200D01*
X145963714Y-121367981D01*
X145941075Y-121377358D01*
X145920702Y-121390971D01*
X145914330Y-121396200D01*
X145910029Y-121398499D01*
X145905355Y-121399917D01*
X145894359Y-121401000D01*
X145605641Y-121401000D01*
X145594645Y-121399917D01*
X145589971Y-121398499D01*
X145585670Y-121396200D01*
X145579298Y-121390971D01*
X145558924Y-121377357D01*
X145536285Y-121367980D01*
X145512251Y-121363200D01*
X145487747Y-121363200D01*
X145463714Y-121367981D01*
X145441075Y-121377358D01*
X145420702Y-121390971D01*
X145414330Y-121396200D01*
X145410029Y-121398499D01*
X145405355Y-121399917D01*
X145394359Y-121401000D01*
X145105641Y-121401000D01*
X145094645Y-121399917D01*
X145089971Y-121398499D01*
X145085670Y-121396200D01*
X145079298Y-121390971D01*
X145058924Y-121377357D01*
X145036285Y-121367980D01*
X145012251Y-121363200D01*
X144987747Y-121363200D01*
X144963714Y-121367981D01*
X144941075Y-121377358D01*
X144920702Y-121390971D01*
X144914330Y-121396200D01*
X144910029Y-121398499D01*
X144905355Y-121399917D01*
X144894359Y-121401000D01*
X144605641Y-121401000D01*
X144594645Y-121399917D01*
X144589971Y-121398499D01*
X144585669Y-121396200D01*
X144581896Y-121393104D01*
X144578800Y-121389331D01*
X144576501Y-121385029D01*
X144575083Y-121380355D01*
X144574000Y-121369359D01*
X144574000Y-120550999D01*
X144571598Y-120526613D01*
X144564485Y-120503164D01*
X144552934Y-120481553D01*
X144537389Y-120462611D01*
X144518447Y-120447066D01*
X144496836Y-120435515D01*
X144473387Y-120428402D01*
X144449001Y-120426000D01*
X143630641Y-120426000D01*
X143619645Y-120424917D01*
X143614971Y-120423499D01*
X143610669Y-120421200D01*
X143606896Y-120418104D01*
X143603800Y-120414331D01*
X143601501Y-120410029D01*
X143600083Y-120405355D01*
X143599000Y-120394359D01*
X143599000Y-120105641D01*
X143600083Y-120094645D01*
X143601501Y-120089971D01*
X143603800Y-120085670D01*
X143609029Y-120079298D01*
X143622643Y-120058924D01*
X143632020Y-120036285D01*
X143636800Y-120012251D01*
X143636800Y-119987747D01*
X143632019Y-119963714D01*
X143622642Y-119941075D01*
X143609029Y-119920702D01*
X143603800Y-119914330D01*
X143601501Y-119910029D01*
X143600083Y-119905355D01*
X143599000Y-119894359D01*
X143599000Y-119605641D01*
X143600083Y-119594645D01*
X143601501Y-119589971D01*
X143603800Y-119585670D01*
X143609029Y-119579298D01*
X143622643Y-119558924D01*
X143632020Y-119536285D01*
X143636800Y-119512251D01*
X143636800Y-119487747D01*
X143632019Y-119463714D01*
X143622642Y-119441075D01*
X143609029Y-119420702D01*
X143603800Y-119414330D01*
X143601501Y-119410029D01*
X143600083Y-119405355D01*
X143599000Y-119394359D01*
X143599000Y-119105641D01*
X143600083Y-119094645D01*
X143601501Y-119089971D01*
X143603800Y-119085670D01*
X143609029Y-119079298D01*
X143622643Y-119058924D01*
X143632020Y-119036285D01*
X143636800Y-119012251D01*
X143636800Y-118987747D01*
X143632019Y-118963714D01*
X143622642Y-118941075D01*
X143609029Y-118920702D01*
X143603800Y-118914330D01*
X143601501Y-118910029D01*
X143600083Y-118905355D01*
X143599000Y-118894359D01*
X143599000Y-118605641D01*
X143600083Y-118594645D01*
X143601501Y-118589971D01*
X143603800Y-118585670D01*
X143609029Y-118579298D01*
X143622643Y-118558924D01*
X143632020Y-118536285D01*
X143636800Y-118512251D01*
X143636800Y-118487747D01*
X143632019Y-118463714D01*
X143622642Y-118441075D01*
X143609029Y-118420702D01*
X143603800Y-118414330D01*
X143601501Y-118410029D01*
X143600083Y-118405355D01*
X143599000Y-118394359D01*
X143599000Y-118105641D01*
X143600083Y-118094645D01*
X143601501Y-118089971D01*
X143603800Y-118085670D01*
X143609029Y-118079298D01*
X143622643Y-118058924D01*
X143632020Y-118036285D01*
X143636800Y-118012251D01*
X143636800Y-117987747D01*
X143632019Y-117963714D01*
X143622642Y-117941075D01*
X143609029Y-117920702D01*
X143603800Y-117914330D01*
X143601501Y-117910029D01*
X143600083Y-117905355D01*
X143599000Y-117894359D01*
X143599000Y-117605641D01*
X143600083Y-117594645D01*
X143601501Y-117589971D01*
X143603800Y-117585669D01*
X143606896Y-117581896D01*
X143610669Y-117578800D01*
X143614971Y-117576501D01*
X143619645Y-117575083D01*
X143630641Y-117574000D01*
X144449001Y-117574000D01*
X144473387Y-117571598D01*
X144496836Y-117564485D01*
X144518447Y-117552934D01*
X144537389Y-117537389D01*
X144552934Y-117518447D01*
X144564485Y-117496836D01*
X144571598Y-117473387D01*
X144574000Y-117449001D01*
X144574000Y-116630641D01*
X144575083Y-116619645D01*
X144576501Y-116614971D01*
X144578800Y-116610669D01*
X144581896Y-116606896D01*
X144585669Y-116603800D01*
X144589971Y-116601501D01*
X144594645Y-116600083D01*
X144605641Y-116599000D01*
X144894359Y-116599000D01*
X144905355Y-116600083D01*
G37*
G36*
X140409928Y-120556764D02*
G01*
X140431009Y-120563160D01*
X140450445Y-120573548D01*
X140467476Y-120587524D01*
X140481452Y-120604555D01*
X140491840Y-120623991D01*
X140498236Y-120645072D01*
X140501000Y-120673140D01*
X140501000Y-121136860D01*
X140498236Y-121164928D01*
X140491840Y-121186009D01*
X140481452Y-121205445D01*
X140467476Y-121222476D01*
X140450445Y-121236452D01*
X140431009Y-121246840D01*
X140409928Y-121253236D01*
X140381860Y-121256000D01*
X138568140Y-121256000D01*
X138540072Y-121253236D01*
X138518991Y-121246840D01*
X138499555Y-121236452D01*
X138482524Y-121222476D01*
X138468548Y-121205445D01*
X138458160Y-121186009D01*
X138451764Y-121164928D01*
X138449000Y-121136860D01*
X138449000Y-120673140D01*
X138451764Y-120645072D01*
X138458160Y-120623991D01*
X138468548Y-120604555D01*
X138482524Y-120587524D01*
X138499555Y-120573548D01*
X138518991Y-120563160D01*
X138540072Y-120556764D01*
X138568140Y-120554000D01*
X140381860Y-120554000D01*
X140409928Y-120556764D01*
G37*
G36*
X135459928Y-120556764D02*
G01*
X135481009Y-120563160D01*
X135500445Y-120573548D01*
X135517476Y-120587524D01*
X135531452Y-120604555D01*
X135541840Y-120623991D01*
X135548236Y-120645072D01*
X135551000Y-120673140D01*
X135551000Y-121136860D01*
X135548236Y-121164928D01*
X135541840Y-121186009D01*
X135531452Y-121205445D01*
X135517476Y-121222476D01*
X135500445Y-121236452D01*
X135481009Y-121246840D01*
X135459928Y-121253236D01*
X135431860Y-121256000D01*
X133618140Y-121256000D01*
X133590072Y-121253236D01*
X133568991Y-121246840D01*
X133549555Y-121236452D01*
X133532524Y-121222476D01*
X133518548Y-121205445D01*
X133508160Y-121186009D01*
X133501764Y-121164928D01*
X133499000Y-121136860D01*
X133499000Y-120673140D01*
X133501764Y-120645072D01*
X133508160Y-120623991D01*
X133518548Y-120604555D01*
X133532524Y-120587524D01*
X133549555Y-120573548D01*
X133568991Y-120563160D01*
X133590072Y-120556764D01*
X133618140Y-120554000D01*
X135431860Y-120554000D01*
X135459928Y-120556764D01*
G37*
G36*
X140409928Y-119286764D02*
G01*
X140431009Y-119293160D01*
X140450445Y-119303548D01*
X140467476Y-119317524D01*
X140481452Y-119334555D01*
X140491840Y-119353991D01*
X140498236Y-119375072D01*
X140501000Y-119403140D01*
X140501000Y-119866860D01*
X140498236Y-119894928D01*
X140491840Y-119916009D01*
X140481452Y-119935445D01*
X140467476Y-119952476D01*
X140450445Y-119966452D01*
X140431009Y-119976840D01*
X140409928Y-119983236D01*
X140381860Y-119986000D01*
X138568140Y-119986000D01*
X138540072Y-119983236D01*
X138518991Y-119976840D01*
X138499555Y-119966452D01*
X138482524Y-119952476D01*
X138468548Y-119935445D01*
X138458160Y-119916009D01*
X138451764Y-119894928D01*
X138449000Y-119866860D01*
X138449000Y-119403140D01*
X138451764Y-119375072D01*
X138458160Y-119353991D01*
X138468548Y-119334555D01*
X138482524Y-119317524D01*
X138499555Y-119303548D01*
X138518991Y-119293160D01*
X138540072Y-119286764D01*
X138568140Y-119284000D01*
X140381860Y-119284000D01*
X140409928Y-119286764D01*
G37*
G36*
X135459928Y-119286764D02*
G01*
X135481009Y-119293160D01*
X135500445Y-119303548D01*
X135517476Y-119317524D01*
X135531452Y-119334555D01*
X135541840Y-119353991D01*
X135548236Y-119375072D01*
X135551000Y-119403140D01*
X135551000Y-119866860D01*
X135548236Y-119894928D01*
X135541840Y-119916009D01*
X135531452Y-119935445D01*
X135517476Y-119952476D01*
X135500445Y-119966452D01*
X135481009Y-119976840D01*
X135459928Y-119983236D01*
X135431860Y-119986000D01*
X133618140Y-119986000D01*
X133590072Y-119983236D01*
X133568991Y-119976840D01*
X133549555Y-119966452D01*
X133532524Y-119952476D01*
X133518548Y-119935445D01*
X133508160Y-119916009D01*
X133501764Y-119894928D01*
X133499000Y-119866860D01*
X133499000Y-119403140D01*
X133501764Y-119375072D01*
X133508160Y-119353991D01*
X133518548Y-119334555D01*
X133532524Y-119317524D01*
X133549555Y-119303548D01*
X133568991Y-119293160D01*
X133590072Y-119286764D01*
X133618140Y-119284000D01*
X135431860Y-119284000D01*
X135459928Y-119286764D01*
G37*
G36*
X151651000Y-119651000D02*
G01*
X150549000Y-119651000D01*
X150549000Y-118849000D01*
X151651000Y-118849000D01*
X151651000Y-119651000D01*
G37*
G36*
X153651000Y-119651000D02*
G01*
X152549000Y-119651000D01*
X152549000Y-118849000D01*
X153651000Y-118849000D01*
X153651000Y-119651000D01*
G37*
G36*
X140409928Y-118016764D02*
G01*
X140431009Y-118023160D01*
X140450445Y-118033548D01*
X140467476Y-118047524D01*
X140481452Y-118064555D01*
X140491840Y-118083991D01*
X140498236Y-118105072D01*
X140501000Y-118133140D01*
X140501000Y-118596860D01*
X140498236Y-118624928D01*
X140491840Y-118646009D01*
X140481452Y-118665445D01*
X140467476Y-118682476D01*
X140450445Y-118696452D01*
X140431009Y-118706840D01*
X140409928Y-118713236D01*
X140381860Y-118716000D01*
X138568140Y-118716000D01*
X138540072Y-118713236D01*
X138518991Y-118706840D01*
X138499555Y-118696452D01*
X138482524Y-118682476D01*
X138468548Y-118665445D01*
X138458160Y-118646009D01*
X138451764Y-118624928D01*
X138449000Y-118596860D01*
X138449000Y-118133140D01*
X138451764Y-118105072D01*
X138458160Y-118083991D01*
X138468548Y-118064555D01*
X138482524Y-118047524D01*
X138499555Y-118033548D01*
X138518991Y-118023160D01*
X138540072Y-118016764D01*
X138568140Y-118014000D01*
X140381860Y-118014000D01*
X140409928Y-118016764D01*
G37*
G36*
X135459928Y-118016764D02*
G01*
X135481009Y-118023160D01*
X135500445Y-118033548D01*
X135517476Y-118047524D01*
X135531452Y-118064555D01*
X135541840Y-118083991D01*
X135548236Y-118105072D01*
X135551000Y-118133140D01*
X135551000Y-118596860D01*
X135548236Y-118624928D01*
X135541840Y-118646009D01*
X135531452Y-118665445D01*
X135517476Y-118682476D01*
X135500445Y-118696452D01*
X135481009Y-118706840D01*
X135459928Y-118713236D01*
X135431860Y-118716000D01*
X133618140Y-118716000D01*
X133590072Y-118713236D01*
X133568991Y-118706840D01*
X133549555Y-118696452D01*
X133532524Y-118682476D01*
X133518548Y-118665445D01*
X133508160Y-118646009D01*
X133501764Y-118624928D01*
X133499000Y-118596860D01*
X133499000Y-118133140D01*
X133501764Y-118105072D01*
X133508160Y-118083991D01*
X133518548Y-118064555D01*
X133532524Y-118047524D01*
X133549555Y-118033548D01*
X133568991Y-118023160D01*
X133590072Y-118016764D01*
X133618140Y-118014000D01*
X135431860Y-118014000D01*
X135459928Y-118016764D01*
G37*
G36*
X172691981Y-116437468D02*
G01*
X172874151Y-116512926D01*
X173038100Y-116622473D01*
X173177527Y-116761900D01*
X173287074Y-116925849D01*
X173287075Y-116925851D01*
X173362532Y-117108020D01*
X173401000Y-117301409D01*
X173401000Y-117498591D01*
X173385045Y-117578800D01*
X173362532Y-117691981D01*
X173348815Y-117725096D01*
X173293714Y-117858122D01*
X173287074Y-117874151D01*
X173177527Y-118038100D01*
X173038100Y-118177527D01*
X172874151Y-118287074D01*
X172691981Y-118362532D01*
X172646011Y-118371676D01*
X172498591Y-118401000D01*
X172301409Y-118401000D01*
X172153989Y-118371676D01*
X172108019Y-118362532D01*
X171925849Y-118287074D01*
X171761900Y-118177527D01*
X171622473Y-118038100D01*
X171512926Y-117874151D01*
X171506287Y-117858122D01*
X171451185Y-117725096D01*
X171437468Y-117691981D01*
X171414955Y-117578800D01*
X171399000Y-117498591D01*
X171399000Y-117301409D01*
X171437468Y-117108020D01*
X171512925Y-116925851D01*
X171512926Y-116925849D01*
X171622473Y-116761900D01*
X171761900Y-116622473D01*
X171925849Y-116512926D01*
X172108019Y-116437468D01*
X172301409Y-116399000D01*
X172498591Y-116399000D01*
X172691981Y-116437468D01*
G37*
G36*
X151651000Y-118151000D02*
G01*
X150549000Y-118151000D01*
X150549000Y-117349000D01*
X151651000Y-117349000D01*
X151651000Y-118151000D01*
G37*
G36*
X153651000Y-118151000D02*
G01*
X152549000Y-118151000D01*
X152549000Y-117349000D01*
X153651000Y-117349000D01*
X153651000Y-118151000D01*
G37*
G36*
X140409928Y-116746764D02*
G01*
X140431009Y-116753160D01*
X140450445Y-116763548D01*
X140467476Y-116777524D01*
X140481452Y-116794555D01*
X140491840Y-116813991D01*
X140498236Y-116835072D01*
X140501000Y-116863140D01*
X140501000Y-117326860D01*
X140498236Y-117354928D01*
X140491840Y-117376009D01*
X140481452Y-117395445D01*
X140467476Y-117412476D01*
X140450445Y-117426452D01*
X140431009Y-117436840D01*
X140409928Y-117443236D01*
X140381860Y-117446000D01*
X138568140Y-117446000D01*
X138540072Y-117443236D01*
X138518991Y-117436840D01*
X138499555Y-117426452D01*
X138482524Y-117412476D01*
X138468548Y-117395445D01*
X138458160Y-117376009D01*
X138451764Y-117354928D01*
X138449000Y-117326860D01*
X138449000Y-116863140D01*
X138451764Y-116835072D01*
X138458160Y-116813991D01*
X138468548Y-116794555D01*
X138482524Y-116777524D01*
X138499555Y-116763548D01*
X138518991Y-116753160D01*
X138540072Y-116746764D01*
X138568140Y-116744000D01*
X140381860Y-116744000D01*
X140409928Y-116746764D01*
G37*
G36*
X135459928Y-116746764D02*
G01*
X135481009Y-116753160D01*
X135500445Y-116763548D01*
X135517476Y-116777524D01*
X135531452Y-116794555D01*
X135541840Y-116813991D01*
X135548236Y-116835072D01*
X135551000Y-116863140D01*
X135551000Y-117326860D01*
X135548236Y-117354928D01*
X135541840Y-117376009D01*
X135531452Y-117395445D01*
X135517476Y-117412476D01*
X135500445Y-117426452D01*
X135481009Y-117436840D01*
X135459928Y-117443236D01*
X135431860Y-117446000D01*
X133618140Y-117446000D01*
X133590072Y-117443236D01*
X133568991Y-117436840D01*
X133549555Y-117426452D01*
X133532524Y-117412476D01*
X133518548Y-117395445D01*
X133508160Y-117376009D01*
X133501764Y-117354928D01*
X133499000Y-117326860D01*
X133499000Y-116863140D01*
X133501764Y-116835072D01*
X133508160Y-116813991D01*
X133518548Y-116794555D01*
X133532524Y-116777524D01*
X133549555Y-116763548D01*
X133568991Y-116753160D01*
X133590072Y-116746764D01*
X133618140Y-116744000D01*
X135431860Y-116744000D01*
X135459928Y-116746764D01*
G37*
G36*
X160551000Y-116751000D02*
G01*
X159449000Y-116751000D01*
X159449000Y-115949000D01*
X160551000Y-115949000D01*
X160551000Y-116751000D01*
G37*
G36*
X167551000Y-116751000D02*
G01*
X166449000Y-116751000D01*
X166449000Y-115949000D01*
X167551000Y-115949000D01*
X167551000Y-116751000D01*
G37*
G36*
X135459928Y-115476764D02*
G01*
X135481009Y-115483160D01*
X135500445Y-115493548D01*
X135517476Y-115507524D01*
X135531452Y-115524555D01*
X135541840Y-115543991D01*
X135548236Y-115565072D01*
X135551000Y-115593140D01*
X135551000Y-116056860D01*
X135548236Y-116084928D01*
X135541840Y-116106009D01*
X135531452Y-116125445D01*
X135517476Y-116142476D01*
X135500445Y-116156452D01*
X135481009Y-116166840D01*
X135459928Y-116173236D01*
X135431860Y-116176000D01*
X133618140Y-116176000D01*
X133590072Y-116173236D01*
X133568991Y-116166840D01*
X133549555Y-116156452D01*
X133532524Y-116142476D01*
X133518548Y-116125445D01*
X133508160Y-116106009D01*
X133501764Y-116084928D01*
X133499000Y-116056860D01*
X133499000Y-115593140D01*
X133501764Y-115565072D01*
X133508160Y-115543991D01*
X133518548Y-115524555D01*
X133532524Y-115507524D01*
X133549555Y-115493548D01*
X133568991Y-115483160D01*
X133590072Y-115476764D01*
X133618140Y-115474000D01*
X135431860Y-115474000D01*
X135459928Y-115476764D01*
G37*
G36*
X140409928Y-115476764D02*
G01*
X140431009Y-115483160D01*
X140450445Y-115493548D01*
X140467476Y-115507524D01*
X140481452Y-115524555D01*
X140491840Y-115543991D01*
X140498236Y-115565072D01*
X140501000Y-115593140D01*
X140501000Y-116056860D01*
X140498236Y-116084928D01*
X140491840Y-116106009D01*
X140481452Y-116125445D01*
X140467476Y-116142476D01*
X140450445Y-116156452D01*
X140431009Y-116166840D01*
X140409928Y-116173236D01*
X140381860Y-116176000D01*
X138568140Y-116176000D01*
X138540072Y-116173236D01*
X138518991Y-116166840D01*
X138499555Y-116156452D01*
X138482524Y-116142476D01*
X138468548Y-116125445D01*
X138458160Y-116106009D01*
X138451764Y-116084928D01*
X138449000Y-116056860D01*
X138449000Y-115593140D01*
X138451764Y-115565072D01*
X138458160Y-115543991D01*
X138468548Y-115524555D01*
X138482524Y-115507524D01*
X138499555Y-115493548D01*
X138518991Y-115483160D01*
X138540072Y-115476764D01*
X138568140Y-115474000D01*
X140381860Y-115474000D01*
X140409928Y-115476764D01*
G37*
G36*
X163001000Y-115301000D02*
G01*
X161999000Y-115301000D01*
X161999000Y-114399000D01*
X163001000Y-114399000D01*
X163001000Y-115301000D01*
G37*
G36*
X160551000Y-115251000D02*
G01*
X159449000Y-115251000D01*
X159449000Y-114449000D01*
X160551000Y-114449000D01*
X160551000Y-115251000D01*
G37*
G36*
X167551000Y-115251000D02*
G01*
X166449000Y-115251000D01*
X166449000Y-114449000D01*
X167551000Y-114449000D01*
X167551000Y-115251000D01*
G37*
G36*
X147151000Y-115151000D02*
G01*
X146349000Y-115151000D01*
X146349000Y-114049000D01*
X147151000Y-114049000D01*
X147151000Y-115151000D01*
G37*
G36*
X125851000Y-115151000D02*
G01*
X124749000Y-115151000D01*
X124749000Y-113849000D01*
X125851000Y-113849000D01*
X125851000Y-115151000D01*
G37*
G36*
X123851000Y-115151000D02*
G01*
X122749000Y-115151000D01*
X122749000Y-113849000D01*
X123851000Y-113849000D01*
X123851000Y-115151000D01*
G37*
G36*
X153251000Y-115151000D02*
G01*
X152449000Y-115151000D01*
X152449000Y-114049000D01*
X153251000Y-114049000D01*
X153251000Y-115151000D01*
G37*
G36*
X144151000Y-115151000D02*
G01*
X143349000Y-115151000D01*
X143349000Y-114049000D01*
X144151000Y-114049000D01*
X144151000Y-115151000D01*
G37*
G36*
X151751000Y-115151000D02*
G01*
X150949000Y-115151000D01*
X150949000Y-114049000D01*
X151751000Y-114049000D01*
X151751000Y-115151000D01*
G37*
G36*
X148651000Y-115151000D02*
G01*
X147849000Y-115151000D01*
X147849000Y-114049000D01*
X148651000Y-114049000D01*
X148651000Y-115151000D01*
G37*
G36*
X145651000Y-115151000D02*
G01*
X144849000Y-115151000D01*
X144849000Y-114049000D01*
X145651000Y-114049000D01*
X145651000Y-115151000D01*
G37*
G36*
X121451000Y-115051000D02*
G01*
X120649000Y-115051000D01*
X120649000Y-113949000D01*
X121451000Y-113949000D01*
X121451000Y-115051000D01*
G37*
G36*
X119951000Y-115051000D02*
G01*
X119149000Y-115051000D01*
X119149000Y-113949000D01*
X119951000Y-113949000D01*
X119951000Y-115051000D01*
G37*
G36*
X140409928Y-114206764D02*
G01*
X140431009Y-114213160D01*
X140450445Y-114223548D01*
X140467476Y-114237524D01*
X140481452Y-114254555D01*
X140491840Y-114273991D01*
X140498236Y-114295072D01*
X140501000Y-114323140D01*
X140501000Y-114786860D01*
X140498236Y-114814928D01*
X140491840Y-114836009D01*
X140481452Y-114855445D01*
X140467476Y-114872476D01*
X140450445Y-114886452D01*
X140431009Y-114896840D01*
X140409928Y-114903236D01*
X140381860Y-114906000D01*
X138568140Y-114906000D01*
X138540072Y-114903236D01*
X138518991Y-114896840D01*
X138499555Y-114886452D01*
X138482524Y-114872476D01*
X138468548Y-114855445D01*
X138458160Y-114836009D01*
X138451764Y-114814928D01*
X138449000Y-114786860D01*
X138449000Y-114323140D01*
X138451764Y-114295072D01*
X138458160Y-114273991D01*
X138468548Y-114254555D01*
X138482524Y-114237524D01*
X138499555Y-114223548D01*
X138518991Y-114213160D01*
X138540072Y-114206764D01*
X138568140Y-114204000D01*
X140381860Y-114204000D01*
X140409928Y-114206764D01*
G37*
G36*
X135459928Y-114206764D02*
G01*
X135481009Y-114213160D01*
X135500445Y-114223548D01*
X135517476Y-114237524D01*
X135531452Y-114254555D01*
X135541840Y-114273991D01*
X135548236Y-114295072D01*
X135551000Y-114323140D01*
X135551000Y-114786860D01*
X135548236Y-114814928D01*
X135541840Y-114836009D01*
X135531452Y-114855445D01*
X135517476Y-114872476D01*
X135500445Y-114886452D01*
X135481009Y-114896840D01*
X135459928Y-114903236D01*
X135431860Y-114906000D01*
X133618140Y-114906000D01*
X133590072Y-114903236D01*
X133568991Y-114896840D01*
X133549555Y-114886452D01*
X133532524Y-114872476D01*
X133518548Y-114855445D01*
X133508160Y-114836009D01*
X133501764Y-114814928D01*
X133499000Y-114786860D01*
X133499000Y-114323140D01*
X133501764Y-114295072D01*
X133508160Y-114273991D01*
X133518548Y-114254555D01*
X133532524Y-114237524D01*
X133549555Y-114223548D01*
X133568991Y-114213160D01*
X133590072Y-114206764D01*
X133618140Y-114204000D01*
X135431860Y-114204000D01*
X135459928Y-114206764D01*
G37*
G36*
X172595285Y-112918234D02*
G01*
X172691981Y-112937468D01*
X172820795Y-112990825D01*
X172843530Y-113000242D01*
X172874151Y-113012926D01*
X173038100Y-113122473D01*
X173177527Y-113261900D01*
X173287074Y-113425849D01*
X173362532Y-113608019D01*
X173401000Y-113801410D01*
X173401000Y-113998590D01*
X173362532Y-114191981D01*
X173287074Y-114374151D01*
X173177527Y-114538100D01*
X173038100Y-114677527D01*
X172874151Y-114787074D01*
X172691981Y-114862532D01*
X172641989Y-114872476D01*
X172498591Y-114901000D01*
X172301409Y-114901000D01*
X172158011Y-114872476D01*
X172108019Y-114862532D01*
X171925849Y-114787074D01*
X171761900Y-114677527D01*
X171622473Y-114538100D01*
X171512926Y-114374151D01*
X171437468Y-114191981D01*
X171399000Y-113998590D01*
X171399000Y-113801410D01*
X171437468Y-113608019D01*
X171512926Y-113425849D01*
X171622473Y-113261900D01*
X171761900Y-113122473D01*
X171925849Y-113012926D01*
X171956471Y-113000242D01*
X171979205Y-112990825D01*
X172108019Y-112937468D01*
X172204715Y-112918234D01*
X172301409Y-112899000D01*
X172498591Y-112899000D01*
X172595285Y-112918234D01*
G37*
G36*
X165001000Y-114351000D02*
G01*
X163999000Y-114351000D01*
X163999000Y-113449000D01*
X165001000Y-113449000D01*
X165001000Y-114351000D01*
G37*
G36*
X163001000Y-113401000D02*
G01*
X161999000Y-113401000D01*
X161999000Y-112499000D01*
X163001000Y-112499000D01*
X163001000Y-113401000D01*
G37*
G36*
X167551000Y-113351000D02*
G01*
X166449000Y-113351000D01*
X166449000Y-112549000D01*
X167551000Y-112549000D01*
X167551000Y-113351000D01*
G37*
G36*
X160551000Y-113351000D02*
G01*
X159449000Y-113351000D01*
X159449000Y-112549000D01*
X160551000Y-112549000D01*
X160551000Y-113351000D01*
G37*
G36*
X122990000Y-111850000D02*
G01*
X122063539Y-111850000D01*
X122039153Y-111852402D01*
X122015704Y-111859515D01*
X121994093Y-111871066D01*
X121975151Y-111886611D01*
X121959606Y-111905553D01*
X121948055Y-111927164D01*
X121940942Y-111950613D01*
X121938540Y-111974999D01*
X121940942Y-111999385D01*
X121948055Y-112022834D01*
X121959606Y-112044445D01*
X121968025Y-112054704D01*
X121967717Y-112054957D01*
X121981774Y-112072086D01*
X121988102Y-112083924D01*
X122001716Y-112104299D01*
X122019043Y-112121626D01*
X122039417Y-112135240D01*
X122062056Y-112144617D01*
X122086089Y-112149398D01*
X122098342Y-112150000D01*
X122990000Y-112150000D01*
X122990000Y-113000000D01*
X122020510Y-113000000D01*
X122009387Y-112996626D01*
X121985001Y-112994224D01*
X121953186Y-112998943D01*
X121949805Y-112999276D01*
X121949802Y-112999277D01*
X121940000Y-113000242D01*
X121933859Y-113000847D01*
X121666141Y-113000847D01*
X121650198Y-112999277D01*
X121640775Y-112996419D01*
X121636669Y-112994224D01*
X121632087Y-112991775D01*
X121632086Y-112991774D01*
X121632084Y-112991773D01*
X121624473Y-112985527D01*
X121618227Y-112977916D01*
X121613581Y-112969225D01*
X121610723Y-112959802D01*
X121609153Y-112943859D01*
X121609153Y-112246141D01*
X121610723Y-112230198D01*
X121613581Y-112220775D01*
X121618227Y-112212084D01*
X121628383Y-112199709D01*
X121764046Y-112064046D01*
X121763692Y-112063692D01*
X121773086Y-112054298D01*
X121786700Y-112033924D01*
X121796077Y-112011285D01*
X121800858Y-111987252D01*
X121800858Y-111962747D01*
X121796078Y-111938714D01*
X121786700Y-111916075D01*
X121773087Y-111895701D01*
X121755760Y-111878374D01*
X121735386Y-111864760D01*
X121712747Y-111855383D01*
X121688714Y-111850602D01*
X121676461Y-111850000D01*
X121610000Y-111850000D01*
X121610000Y-111000000D01*
X122990000Y-111000000D01*
X122990000Y-111850000D01*
G37*
G36*
X167551000Y-111851000D02*
G01*
X166449000Y-111851000D01*
X166449000Y-111049000D01*
X167551000Y-111049000D01*
X167551000Y-111851000D01*
G37*
G36*
X160551000Y-111851000D02*
G01*
X159449000Y-111851000D01*
X159449000Y-111049000D01*
X160551000Y-111049000D01*
X160551000Y-111851000D01*
G37*
G36*
X172595285Y-109418234D02*
G01*
X172691981Y-109437468D01*
X172874151Y-109512926D01*
X173038100Y-109622473D01*
X173177527Y-109761900D01*
X173287074Y-109925849D01*
X173362532Y-110108019D01*
X173401000Y-110301410D01*
X173401000Y-110498590D01*
X173362532Y-110691981D01*
X173287074Y-110874151D01*
X173177527Y-111038100D01*
X173038100Y-111177527D01*
X172874151Y-111287074D01*
X172691981Y-111362532D01*
X172595285Y-111381766D01*
X172498591Y-111401000D01*
X172301409Y-111401000D01*
X172204715Y-111381766D01*
X172108019Y-111362532D01*
X171925849Y-111287074D01*
X171761900Y-111177527D01*
X171622473Y-111038100D01*
X171512926Y-110874151D01*
X171437468Y-110691981D01*
X171399000Y-110498590D01*
X171399000Y-110301410D01*
X171437468Y-110108019D01*
X171512926Y-109925849D01*
X171622473Y-109761900D01*
X171761900Y-109622473D01*
X171925849Y-109512926D01*
X172108019Y-109437468D01*
X172204715Y-109418234D01*
X172301409Y-109399000D01*
X172498591Y-109399000D01*
X172595285Y-109418234D01*
G37*
G36*
X121451000Y-110051000D02*
G01*
X120649000Y-110051000D01*
X120649000Y-108949000D01*
X121451000Y-108949000D01*
X121451000Y-110051000D01*
G37*
G36*
X125451000Y-110051000D02*
G01*
X124649000Y-110051000D01*
X124649000Y-108949000D01*
X125451000Y-108949000D01*
X125451000Y-110051000D01*
G37*
G36*
X119951000Y-110051000D02*
G01*
X119149000Y-110051000D01*
X119149000Y-108949000D01*
X119951000Y-108949000D01*
X119951000Y-110051000D01*
G37*
G36*
X123951000Y-110051000D02*
G01*
X123149000Y-110051000D01*
X123149000Y-108949000D01*
X123951000Y-108949000D01*
X123951000Y-110051000D01*
G37*
G36*
X142100000Y-108250000D02*
G01*
X141500000Y-108250000D01*
X141500000Y-106750000D01*
X142100000Y-106750000D01*
X142100000Y-108250000D01*
G37*
G36*
X143300000Y-108250000D02*
G01*
X142700000Y-108250000D01*
X142700000Y-106750000D01*
X143300000Y-106750000D01*
X143300000Y-108250000D01*
G37*
G36*
X144500000Y-108250000D02*
G01*
X143900000Y-108250000D01*
X143900000Y-106750000D01*
X144500000Y-106750000D01*
X144500000Y-108250000D01*
G37*
G36*
X138551000Y-108151000D02*
G01*
X137449000Y-108151000D01*
X137449000Y-106849000D01*
X138551000Y-106849000D01*
X138551000Y-108151000D01*
G37*
G36*
X140551000Y-108151000D02*
G01*
X139449000Y-108151000D01*
X139449000Y-106849000D01*
X140551000Y-106849000D01*
X140551000Y-108151000D01*
G37*
G36*
X172691981Y-105937468D02*
G01*
X172874151Y-106012926D01*
X173038100Y-106122473D01*
X173177527Y-106261900D01*
X173287074Y-106425849D01*
X173362532Y-106608019D01*
X173401000Y-106801410D01*
X173401000Y-106998590D01*
X173362532Y-107191981D01*
X173287074Y-107374151D01*
X173177527Y-107538100D01*
X173038100Y-107677527D01*
X172874151Y-107787074D01*
X172691981Y-107862532D01*
X172595285Y-107881766D01*
X172498591Y-107901000D01*
X172301409Y-107901000D01*
X172204715Y-107881766D01*
X172108019Y-107862532D01*
X171925849Y-107787074D01*
X171761900Y-107677527D01*
X171622473Y-107538100D01*
X171512926Y-107374151D01*
X171437468Y-107191981D01*
X171399000Y-106998590D01*
X171399000Y-106801410D01*
X171437468Y-106608019D01*
X171512926Y-106425849D01*
X171622473Y-106261900D01*
X171761900Y-106122473D01*
X171925849Y-106012926D01*
X172108019Y-105937468D01*
X172204715Y-105918234D01*
X172301409Y-105899000D01*
X172498591Y-105899000D01*
X172691981Y-105937468D01*
G37*
G36*
X160551000Y-106251000D02*
G01*
X159449000Y-106251000D01*
X159449000Y-105449000D01*
X160551000Y-105449000D01*
X160551000Y-106251000D01*
G37*
G36*
X167551000Y-106251000D02*
G01*
X166449000Y-106251000D01*
X166449000Y-105449000D01*
X167551000Y-105449000D01*
X167551000Y-106251000D01*
G37*
G36*
X151142609Y-104617136D02*
G01*
X151232833Y-104654508D01*
X151241567Y-104658126D01*
X151330627Y-104717634D01*
X151406366Y-104793373D01*
X151406367Y-104793375D01*
X151465875Y-104882435D01*
X151506864Y-104981391D01*
X151527760Y-105086443D01*
X151527760Y-105193557D01*
X151513837Y-105263553D01*
X151506864Y-105298609D01*
X151465874Y-105397567D01*
X151406366Y-105486627D01*
X151330627Y-105562366D01*
X151241567Y-105621874D01*
X151241566Y-105621875D01*
X151241565Y-105621875D01*
X151142609Y-105662864D01*
X151037557Y-105683760D01*
X150930443Y-105683760D01*
X150825391Y-105662864D01*
X150726435Y-105621875D01*
X150726434Y-105621875D01*
X150726433Y-105621874D01*
X150637373Y-105562366D01*
X150561634Y-105486627D01*
X150502126Y-105397567D01*
X150461136Y-105298609D01*
X150454163Y-105263553D01*
X150440240Y-105193557D01*
X150440240Y-105086443D01*
X150461136Y-104981391D01*
X150502125Y-104882435D01*
X150561633Y-104793375D01*
X150561634Y-104793373D01*
X150637373Y-104717634D01*
X150726433Y-104658126D01*
X150735168Y-104654508D01*
X150825391Y-104617136D01*
X150930443Y-104596240D01*
X151037557Y-104596240D01*
X151142609Y-104617136D01*
G37*
G36*
X153174609Y-104617136D02*
G01*
X153264833Y-104654508D01*
X153273567Y-104658126D01*
X153362627Y-104717634D01*
X153438366Y-104793373D01*
X153438367Y-104793375D01*
X153497875Y-104882435D01*
X153538864Y-104981391D01*
X153559760Y-105086443D01*
X153559760Y-105193557D01*
X153545837Y-105263553D01*
X153538864Y-105298609D01*
X153497874Y-105397567D01*
X153438366Y-105486627D01*
X153362627Y-105562366D01*
X153273567Y-105621874D01*
X153273566Y-105621875D01*
X153273565Y-105621875D01*
X153174609Y-105662864D01*
X153069557Y-105683760D01*
X152962443Y-105683760D01*
X152857391Y-105662864D01*
X152758435Y-105621875D01*
X152758434Y-105621875D01*
X152758433Y-105621874D01*
X152669373Y-105562366D01*
X152593634Y-105486627D01*
X152534126Y-105397567D01*
X152493136Y-105298609D01*
X152486163Y-105263553D01*
X152472240Y-105193557D01*
X152472240Y-105086443D01*
X152493136Y-104981391D01*
X152534125Y-104882435D01*
X152593633Y-104793375D01*
X152593634Y-104793373D01*
X152669373Y-104717634D01*
X152758433Y-104658126D01*
X152767168Y-104654508D01*
X152857391Y-104617136D01*
X152962443Y-104596240D01*
X153069557Y-104596240D01*
X153174609Y-104617136D01*
G37*
G36*
X133751000Y-105351000D02*
G01*
X132649000Y-105351000D01*
X132649000Y-104549000D01*
X133751000Y-104549000D01*
X133751000Y-105351000D01*
G37*
G36*
X142788222Y-104582821D02*
G01*
X142788225Y-104582822D01*
X142788226Y-104582822D01*
X142824983Y-104593972D01*
X142824984Y-104593972D01*
X142825401Y-104594099D01*
X142847248Y-104603148D01*
X142871281Y-104607928D01*
X142895785Y-104607928D01*
X142919818Y-104603147D01*
X142923294Y-104601707D01*
X142921853Y-104605186D01*
X142917073Y-104629219D01*
X142917073Y-104653723D01*
X142921854Y-104677757D01*
X142930902Y-104699600D01*
X142942179Y-104736777D01*
X142945000Y-104765420D01*
X142945000Y-105134580D01*
X142942179Y-105163223D01*
X142942178Y-105163226D01*
X142942178Y-105163227D01*
X142932978Y-105193557D01*
X142931026Y-105199989D01*
X142912922Y-105233859D01*
X142888553Y-105263553D01*
X142858859Y-105287922D01*
X142824989Y-105306026D01*
X142824986Y-105306027D01*
X142824984Y-105306028D01*
X142788227Y-105317178D01*
X142788226Y-105317178D01*
X142788223Y-105317179D01*
X142750000Y-105320943D01*
X142711778Y-105317179D01*
X142711775Y-105317178D01*
X142711774Y-105317178D01*
X142675017Y-105306028D01*
X142675015Y-105306027D01*
X142675012Y-105306026D01*
X142641142Y-105287922D01*
X142611448Y-105263553D01*
X142596626Y-105245492D01*
X142579299Y-105228165D01*
X142558925Y-105214552D01*
X142536286Y-105205174D01*
X142512253Y-105200394D01*
X142487749Y-105200394D01*
X142463715Y-105205175D01*
X142441077Y-105214552D01*
X142420702Y-105228166D01*
X142403377Y-105245490D01*
X142388552Y-105263554D01*
X142358859Y-105287922D01*
X142324989Y-105306026D01*
X142324986Y-105306027D01*
X142324984Y-105306028D01*
X142288227Y-105317178D01*
X142288226Y-105317178D01*
X142288223Y-105317179D01*
X142250000Y-105320943D01*
X142211778Y-105317179D01*
X142211775Y-105317178D01*
X142211774Y-105317178D01*
X142175017Y-105306028D01*
X142175015Y-105306027D01*
X142175012Y-105306026D01*
X142141142Y-105287922D01*
X142111448Y-105263553D01*
X142096626Y-105245492D01*
X142079299Y-105228165D01*
X142058925Y-105214552D01*
X142036286Y-105205174D01*
X142012253Y-105200394D01*
X141987749Y-105200394D01*
X141963715Y-105205175D01*
X141941077Y-105214552D01*
X141920702Y-105228166D01*
X141903377Y-105245490D01*
X141888552Y-105263554D01*
X141858859Y-105287922D01*
X141824989Y-105306026D01*
X141824986Y-105306027D01*
X141824984Y-105306028D01*
X141788227Y-105317178D01*
X141788226Y-105317178D01*
X141788223Y-105317179D01*
X141750000Y-105320943D01*
X141711778Y-105317179D01*
X141711775Y-105317178D01*
X141711774Y-105317178D01*
X141675017Y-105306028D01*
X141675015Y-105306027D01*
X141675012Y-105306026D01*
X141641142Y-105287922D01*
X141611448Y-105263553D01*
X141596626Y-105245492D01*
X141579299Y-105228165D01*
X141558925Y-105214552D01*
X141536286Y-105205174D01*
X141512253Y-105200394D01*
X141487749Y-105200394D01*
X141463715Y-105205175D01*
X141441077Y-105214552D01*
X141420702Y-105228166D01*
X141403377Y-105245490D01*
X141388552Y-105263554D01*
X141358859Y-105287922D01*
X141324989Y-105306026D01*
X141324986Y-105306027D01*
X141324984Y-105306028D01*
X141288227Y-105317178D01*
X141288226Y-105317178D01*
X141288223Y-105317179D01*
X141250000Y-105320943D01*
X141211778Y-105317179D01*
X141211775Y-105317178D01*
X141211774Y-105317178D01*
X141175017Y-105306028D01*
X141175015Y-105306027D01*
X141175012Y-105306026D01*
X141141142Y-105287922D01*
X141111448Y-105263553D01*
X141096626Y-105245492D01*
X141079299Y-105228165D01*
X141058925Y-105214552D01*
X141036286Y-105205174D01*
X141012253Y-105200394D01*
X140987749Y-105200394D01*
X140963715Y-105205175D01*
X140941077Y-105214552D01*
X140920702Y-105228166D01*
X140903377Y-105245490D01*
X140888552Y-105263554D01*
X140858859Y-105287922D01*
X140824989Y-105306026D01*
X140824986Y-105306027D01*
X140824984Y-105306028D01*
X140788227Y-105317178D01*
X140788226Y-105317178D01*
X140788223Y-105317179D01*
X140750000Y-105320943D01*
X140711778Y-105317179D01*
X140711775Y-105317178D01*
X140711774Y-105317178D01*
X140675017Y-105306028D01*
X140675015Y-105306027D01*
X140675012Y-105306026D01*
X140641142Y-105287922D01*
X140611448Y-105263553D01*
X140596626Y-105245492D01*
X140579299Y-105228165D01*
X140558925Y-105214552D01*
X140536286Y-105205174D01*
X140512253Y-105200394D01*
X140487749Y-105200394D01*
X140463715Y-105205175D01*
X140441077Y-105214552D01*
X140420702Y-105228166D01*
X140403377Y-105245490D01*
X140388552Y-105263554D01*
X140358859Y-105287922D01*
X140324989Y-105306026D01*
X140324986Y-105306027D01*
X140324984Y-105306028D01*
X140288227Y-105317178D01*
X140288226Y-105317178D01*
X140288223Y-105317179D01*
X140250000Y-105320943D01*
X140211778Y-105317179D01*
X140211775Y-105317178D01*
X140211774Y-105317178D01*
X140175017Y-105306028D01*
X140175015Y-105306027D01*
X140175012Y-105306026D01*
X140141142Y-105287922D01*
X140111448Y-105263553D01*
X140096626Y-105245492D01*
X140079299Y-105228165D01*
X140058925Y-105214552D01*
X140036286Y-105205174D01*
X140012253Y-105200394D01*
X139987749Y-105200394D01*
X139963715Y-105205175D01*
X139941077Y-105214552D01*
X139920702Y-105228166D01*
X139903377Y-105245490D01*
X139888552Y-105263554D01*
X139858859Y-105287922D01*
X139824989Y-105306026D01*
X139824986Y-105306027D01*
X139824984Y-105306028D01*
X139788227Y-105317178D01*
X139788226Y-105317178D01*
X139788223Y-105317179D01*
X139750000Y-105320943D01*
X139711778Y-105317179D01*
X139711775Y-105317178D01*
X139711774Y-105317178D01*
X139675017Y-105306028D01*
X139675015Y-105306027D01*
X139675012Y-105306026D01*
X139641142Y-105287922D01*
X139611448Y-105263553D01*
X139596626Y-105245492D01*
X139579299Y-105228165D01*
X139558925Y-105214552D01*
X139536286Y-105205174D01*
X139512253Y-105200394D01*
X139487749Y-105200394D01*
X139463715Y-105205175D01*
X139441077Y-105214552D01*
X139420702Y-105228166D01*
X139403377Y-105245490D01*
X139388552Y-105263554D01*
X139358859Y-105287922D01*
X139324989Y-105306026D01*
X139324986Y-105306027D01*
X139324984Y-105306028D01*
X139288227Y-105317178D01*
X139288226Y-105317178D01*
X139288223Y-105317179D01*
X139250000Y-105320943D01*
X139211778Y-105317179D01*
X139211775Y-105317178D01*
X139211774Y-105317178D01*
X139175017Y-105306028D01*
X139175015Y-105306027D01*
X139175012Y-105306026D01*
X139141142Y-105287922D01*
X139111448Y-105263553D01*
X139087078Y-105233859D01*
X139068973Y-105199987D01*
X139057821Y-105163223D01*
X139055000Y-105134580D01*
X139055000Y-104765421D01*
X139057821Y-104736778D01*
X139057823Y-104736773D01*
X139068972Y-104700017D01*
X139068972Y-104700016D01*
X139069099Y-104699599D01*
X139078148Y-104677752D01*
X139082928Y-104653719D01*
X139082928Y-104629215D01*
X139078147Y-104605182D01*
X139076707Y-104601706D01*
X139080186Y-104603147D01*
X139104219Y-104607927D01*
X139128723Y-104607927D01*
X139152757Y-104603146D01*
X139174600Y-104594098D01*
X139192157Y-104588773D01*
X139211773Y-104582822D01*
X139211774Y-104582822D01*
X139211777Y-104582821D01*
X139250000Y-104579057D01*
X139288222Y-104582821D01*
X139288225Y-104582822D01*
X139288226Y-104582822D01*
X139324983Y-104593972D01*
X139324985Y-104593973D01*
X139324988Y-104593974D01*
X139358858Y-104612078D01*
X139358860Y-104612079D01*
X139358859Y-104612079D01*
X139388553Y-104636447D01*
X139402731Y-104653723D01*
X139403375Y-104654508D01*
X139420702Y-104671835D01*
X139441076Y-104685448D01*
X139463715Y-104694826D01*
X139487748Y-104699606D01*
X139512252Y-104699606D01*
X139536286Y-104694825D01*
X139558924Y-104685448D01*
X139579299Y-104671834D01*
X139596625Y-104654508D01*
X139611447Y-104636447D01*
X139641141Y-104612078D01*
X139675011Y-104593974D01*
X139675014Y-104593973D01*
X139675016Y-104593972D01*
X139711773Y-104582822D01*
X139711774Y-104582822D01*
X139711777Y-104582821D01*
X139750000Y-104579057D01*
X139788222Y-104582821D01*
X139788225Y-104582822D01*
X139788226Y-104582822D01*
X139824983Y-104593972D01*
X139824985Y-104593973D01*
X139824988Y-104593974D01*
X139858858Y-104612078D01*
X139858860Y-104612079D01*
X139858859Y-104612079D01*
X139888553Y-104636447D01*
X139902731Y-104653723D01*
X139903375Y-104654508D01*
X139920702Y-104671835D01*
X139941076Y-104685448D01*
X139963715Y-104694826D01*
X139987748Y-104699606D01*
X140012252Y-104699606D01*
X140036286Y-104694825D01*
X140058924Y-104685448D01*
X140079299Y-104671834D01*
X140096625Y-104654508D01*
X140111447Y-104636447D01*
X140141141Y-104612078D01*
X140175011Y-104593974D01*
X140175014Y-104593973D01*
X140175016Y-104593972D01*
X140211773Y-104582822D01*
X140211774Y-104582822D01*
X140211777Y-104582821D01*
X140250000Y-104579057D01*
X140288222Y-104582821D01*
X140288225Y-104582822D01*
X140288226Y-104582822D01*
X140324983Y-104593972D01*
X140324985Y-104593973D01*
X140324988Y-104593974D01*
X140358858Y-104612078D01*
X140358860Y-104612079D01*
X140358859Y-104612079D01*
X140388553Y-104636447D01*
X140402731Y-104653723D01*
X140403375Y-104654508D01*
X140420702Y-104671835D01*
X140441076Y-104685448D01*
X140463715Y-104694826D01*
X140487748Y-104699606D01*
X140512252Y-104699606D01*
X140536286Y-104694825D01*
X140558924Y-104685448D01*
X140579299Y-104671834D01*
X140596625Y-104654508D01*
X140611447Y-104636447D01*
X140641141Y-104612078D01*
X140675011Y-104593974D01*
X140675014Y-104593973D01*
X140675016Y-104593972D01*
X140711773Y-104582822D01*
X140711774Y-104582822D01*
X140711777Y-104582821D01*
X140750000Y-104579057D01*
X140788222Y-104582821D01*
X140788225Y-104582822D01*
X140788226Y-104582822D01*
X140824983Y-104593972D01*
X140824985Y-104593973D01*
X140824988Y-104593974D01*
X140858858Y-104612078D01*
X140858860Y-104612079D01*
X140858859Y-104612079D01*
X140888553Y-104636447D01*
X140902731Y-104653723D01*
X140903375Y-104654508D01*
X140920702Y-104671835D01*
X140941076Y-104685448D01*
X140963715Y-104694826D01*
X140987748Y-104699606D01*
X141012252Y-104699606D01*
X141036286Y-104694825D01*
X141058924Y-104685448D01*
X141079299Y-104671834D01*
X141096625Y-104654508D01*
X141111447Y-104636447D01*
X141141141Y-104612078D01*
X141175011Y-104593974D01*
X141175014Y-104593973D01*
X141175016Y-104593972D01*
X141211773Y-104582822D01*
X141211774Y-104582822D01*
X141211777Y-104582821D01*
X141250000Y-104579057D01*
X141288222Y-104582821D01*
X141288225Y-104582822D01*
X141288226Y-104582822D01*
X141324983Y-104593972D01*
X141324985Y-104593973D01*
X141324988Y-104593974D01*
X141358858Y-104612078D01*
X141358860Y-104612079D01*
X141358859Y-104612079D01*
X141388553Y-104636447D01*
X141402731Y-104653723D01*
X141403375Y-104654508D01*
X141420702Y-104671835D01*
X141441076Y-104685448D01*
X141463715Y-104694826D01*
X141487748Y-104699606D01*
X141512252Y-104699606D01*
X141536286Y-104694825D01*
X141558924Y-104685448D01*
X141579299Y-104671834D01*
X141596625Y-104654508D01*
X141611447Y-104636447D01*
X141641141Y-104612078D01*
X141675011Y-104593974D01*
X141675014Y-104593973D01*
X141675016Y-104593972D01*
X141711773Y-104582822D01*
X141711774Y-104582822D01*
X141711777Y-104582821D01*
X141750000Y-104579057D01*
X141788222Y-104582821D01*
X141788225Y-104582822D01*
X141788226Y-104582822D01*
X141824983Y-104593972D01*
X141824985Y-104593973D01*
X141824988Y-104593974D01*
X141858858Y-104612078D01*
X141858860Y-104612079D01*
X141858859Y-104612079D01*
X141888553Y-104636447D01*
X141902731Y-104653723D01*
X141903375Y-104654508D01*
X141920702Y-104671835D01*
X141941076Y-104685448D01*
X141963715Y-104694826D01*
X141987748Y-104699606D01*
X142012252Y-104699606D01*
X142036286Y-104694825D01*
X142058924Y-104685448D01*
X142079299Y-104671834D01*
X142096625Y-104654508D01*
X142111447Y-104636447D01*
X142141141Y-104612078D01*
X142175011Y-104593974D01*
X142175014Y-104593973D01*
X142175016Y-104593972D01*
X142211773Y-104582822D01*
X142211774Y-104582822D01*
X142211777Y-104582821D01*
X142250000Y-104579057D01*
X142288222Y-104582821D01*
X142288225Y-104582822D01*
X142288226Y-104582822D01*
X142324983Y-104593972D01*
X142324985Y-104593973D01*
X142324988Y-104593974D01*
X142358858Y-104612078D01*
X142358860Y-104612079D01*
X142358859Y-104612079D01*
X142388553Y-104636447D01*
X142402731Y-104653723D01*
X142403375Y-104654508D01*
X142420702Y-104671835D01*
X142441076Y-104685448D01*
X142463715Y-104694826D01*
X142487748Y-104699606D01*
X142512252Y-104699606D01*
X142536286Y-104694825D01*
X142558924Y-104685448D01*
X142579299Y-104671834D01*
X142596625Y-104654508D01*
X142611447Y-104636447D01*
X142641141Y-104612078D01*
X142675011Y-104593974D01*
X142675014Y-104593973D01*
X142675016Y-104593972D01*
X142711773Y-104582822D01*
X142711774Y-104582822D01*
X142711777Y-104582821D01*
X142750000Y-104579057D01*
X142788222Y-104582821D01*
G37*
G36*
X131515000Y-104905000D02*
G01*
X129765000Y-104905000D01*
X129765000Y-104105000D01*
X131515000Y-104105000D01*
X131515000Y-104905000D01*
G37*
G36*
X126115000Y-104905000D02*
G01*
X124365000Y-104905000D01*
X124365000Y-104105000D01*
X126115000Y-104105000D01*
X126115000Y-104905000D01*
G37*
G36*
X163001000Y-104801000D02*
G01*
X161999000Y-104801000D01*
X161999000Y-103899000D01*
X163001000Y-103899000D01*
X163001000Y-104801000D01*
G37*
G36*
X167551000Y-104751000D02*
G01*
X166449000Y-104751000D01*
X166449000Y-103949000D01*
X167551000Y-103949000D01*
X167551000Y-104751000D01*
G37*
G36*
X160551000Y-104751000D02*
G01*
X159449000Y-104751000D01*
X159449000Y-103949000D01*
X160551000Y-103949000D01*
X160551000Y-104751000D01*
G37*
G36*
X138863223Y-100657821D02*
G01*
X138863226Y-100657822D01*
X138863227Y-100657822D01*
X138899984Y-100668972D01*
X138899986Y-100668973D01*
X138900401Y-100669099D01*
X138922252Y-100678148D01*
X138946285Y-100682928D01*
X138970789Y-100682926D01*
X138994822Y-100678145D01*
X138998293Y-100676707D01*
X138996852Y-100680186D01*
X138992072Y-100704219D01*
X138992072Y-100728723D01*
X138996853Y-100752756D01*
X139005902Y-100774603D01*
X139006026Y-100775013D01*
X139006028Y-100775016D01*
X139017178Y-100811773D01*
X139017179Y-100811777D01*
X139020943Y-100850000D01*
X139017179Y-100888223D01*
X139017178Y-100888226D01*
X139017178Y-100888227D01*
X139012512Y-100903610D01*
X139006026Y-100924989D01*
X138987922Y-100958859D01*
X138963553Y-100988553D01*
X138945492Y-101003375D01*
X138928165Y-101020702D01*
X138914552Y-101041076D01*
X138905174Y-101063715D01*
X138900394Y-101087748D01*
X138900394Y-101112252D01*
X138905175Y-101136286D01*
X138914552Y-101158924D01*
X138928166Y-101179299D01*
X138945492Y-101196625D01*
X138963553Y-101211447D01*
X138987922Y-101241141D01*
X139006026Y-101275011D01*
X139006027Y-101275014D01*
X139006028Y-101275016D01*
X139009459Y-101286327D01*
X139017179Y-101311777D01*
X139020943Y-101350000D01*
X139017179Y-101388223D01*
X139006026Y-101424989D01*
X138987922Y-101458859D01*
X138963553Y-101488553D01*
X138945492Y-101503375D01*
X138928165Y-101520702D01*
X138914552Y-101541076D01*
X138905174Y-101563715D01*
X138900394Y-101587748D01*
X138900394Y-101612252D01*
X138905175Y-101636286D01*
X138914552Y-101658924D01*
X138928166Y-101679299D01*
X138945492Y-101696625D01*
X138963553Y-101711447D01*
X138987922Y-101741141D01*
X139006026Y-101775011D01*
X139017179Y-101811777D01*
X139020943Y-101850000D01*
X139017179Y-101888223D01*
X139006026Y-101924989D01*
X138987922Y-101958859D01*
X138963553Y-101988553D01*
X138945492Y-102003375D01*
X138928165Y-102020702D01*
X138914552Y-102041076D01*
X138905174Y-102063715D01*
X138900394Y-102087748D01*
X138900394Y-102112252D01*
X138905175Y-102136286D01*
X138914552Y-102158924D01*
X138928166Y-102179299D01*
X138945492Y-102196625D01*
X138963553Y-102211447D01*
X138987922Y-102241141D01*
X139006026Y-102275011D01*
X139017179Y-102311777D01*
X139020943Y-102350000D01*
X139017179Y-102388223D01*
X139017178Y-102388226D01*
X139017178Y-102388227D01*
X139016653Y-102389959D01*
X139006026Y-102424989D01*
X138987922Y-102458859D01*
X138963553Y-102488553D01*
X138945492Y-102503375D01*
X138928165Y-102520702D01*
X138914552Y-102541076D01*
X138905174Y-102563715D01*
X138900394Y-102587748D01*
X138900394Y-102612252D01*
X138905175Y-102636286D01*
X138914552Y-102658924D01*
X138928166Y-102679299D01*
X138945492Y-102696625D01*
X138963553Y-102711447D01*
X138987922Y-102741141D01*
X139006026Y-102775011D01*
X139006027Y-102775014D01*
X139006028Y-102775016D01*
X139016653Y-102810043D01*
X139017179Y-102811777D01*
X139020943Y-102850000D01*
X139017179Y-102888223D01*
X139006026Y-102924989D01*
X138987922Y-102958859D01*
X138963553Y-102988553D01*
X138945492Y-103003375D01*
X138928165Y-103020702D01*
X138914552Y-103041076D01*
X138905174Y-103063715D01*
X138900394Y-103087748D01*
X138900394Y-103112252D01*
X138905175Y-103136286D01*
X138914552Y-103158924D01*
X138928166Y-103179299D01*
X138945492Y-103196625D01*
X138963553Y-103211447D01*
X138987922Y-103241141D01*
X139006026Y-103275011D01*
X139017179Y-103311777D01*
X139020943Y-103350000D01*
X139017179Y-103388223D01*
X139006026Y-103424989D01*
X138987922Y-103458859D01*
X138963553Y-103488553D01*
X138945492Y-103503375D01*
X138928165Y-103520702D01*
X138914552Y-103541076D01*
X138905174Y-103563715D01*
X138900394Y-103587748D01*
X138900394Y-103612252D01*
X138905175Y-103636286D01*
X138914552Y-103658924D01*
X138928166Y-103679299D01*
X138945492Y-103696625D01*
X138963553Y-103711447D01*
X138987922Y-103741141D01*
X139006026Y-103775011D01*
X139017179Y-103811777D01*
X139020943Y-103850000D01*
X139017179Y-103888223D01*
X139017178Y-103888226D01*
X139017178Y-103888227D01*
X139009459Y-103913674D01*
X139006026Y-103924989D01*
X138987922Y-103958859D01*
X138963553Y-103988553D01*
X138945492Y-104003375D01*
X138928165Y-104020702D01*
X138914552Y-104041076D01*
X138905174Y-104063715D01*
X138900394Y-104087748D01*
X138900394Y-104112252D01*
X138905175Y-104136286D01*
X138914552Y-104158924D01*
X138928166Y-104179299D01*
X138945492Y-104196625D01*
X138963553Y-104211447D01*
X138987922Y-104241141D01*
X139006026Y-104275011D01*
X139006027Y-104275014D01*
X139006028Y-104275016D01*
X139017178Y-104311773D01*
X139017179Y-104311777D01*
X139020943Y-104350000D01*
X139017179Y-104388223D01*
X139005902Y-104425400D01*
X138996853Y-104447246D01*
X138992073Y-104471279D01*
X138992073Y-104495783D01*
X138996854Y-104519817D01*
X138998294Y-104523293D01*
X138994814Y-104521852D01*
X138970781Y-104517072D01*
X138946277Y-104517072D01*
X138922244Y-104521853D01*
X138900397Y-104530902D01*
X138899987Y-104531026D01*
X138899984Y-104531028D01*
X138863227Y-104542178D01*
X138863226Y-104542178D01*
X138863223Y-104542179D01*
X138834580Y-104545000D01*
X138465420Y-104545000D01*
X138436777Y-104542179D01*
X138436774Y-104542178D01*
X138436773Y-104542178D01*
X138400016Y-104531028D01*
X138400014Y-104531027D01*
X138400011Y-104531026D01*
X138366141Y-104512922D01*
X138336447Y-104488553D01*
X138312078Y-104458859D01*
X138293974Y-104424989D01*
X138293497Y-104423415D01*
X138282822Y-104388227D01*
X138282822Y-104388226D01*
X138282821Y-104388223D01*
X138279057Y-104350000D01*
X138282821Y-104311777D01*
X138282822Y-104311773D01*
X138293972Y-104275016D01*
X138293973Y-104275014D01*
X138293974Y-104275011D01*
X138312078Y-104241141D01*
X138336447Y-104211447D01*
X138354508Y-104196625D01*
X138371835Y-104179298D01*
X138385448Y-104158924D01*
X138394826Y-104136285D01*
X138399606Y-104112252D01*
X138399606Y-104087748D01*
X138394825Y-104063714D01*
X138385448Y-104041076D01*
X138371834Y-104020701D01*
X138354508Y-104003375D01*
X138336447Y-103988553D01*
X138312078Y-103958859D01*
X138293974Y-103924989D01*
X138290542Y-103913674D01*
X138282822Y-103888227D01*
X138282822Y-103888226D01*
X138282821Y-103888223D01*
X138279057Y-103850000D01*
X138282821Y-103811777D01*
X138293974Y-103775011D01*
X138312078Y-103741141D01*
X138336447Y-103711447D01*
X138354508Y-103696625D01*
X138371835Y-103679298D01*
X138385448Y-103658924D01*
X138394826Y-103636285D01*
X138399606Y-103612252D01*
X138399606Y-103587748D01*
X138394825Y-103563714D01*
X138385448Y-103541076D01*
X138371834Y-103520701D01*
X138354508Y-103503375D01*
X138336447Y-103488553D01*
X138312078Y-103458859D01*
X138293974Y-103424989D01*
X138282821Y-103388223D01*
X138279057Y-103350000D01*
X138282821Y-103311777D01*
X138293974Y-103275011D01*
X138312078Y-103241141D01*
X138336447Y-103211447D01*
X138354508Y-103196625D01*
X138371835Y-103179298D01*
X138385448Y-103158924D01*
X138394826Y-103136285D01*
X138399606Y-103112252D01*
X138399606Y-103087748D01*
X138394825Y-103063714D01*
X138385448Y-103041076D01*
X138371834Y-103020701D01*
X138354508Y-103003375D01*
X138336447Y-102988553D01*
X138312078Y-102958859D01*
X138293974Y-102924989D01*
X138282821Y-102888223D01*
X138279057Y-102850000D01*
X138282821Y-102811777D01*
X138283347Y-102810043D01*
X138293972Y-102775016D01*
X138293973Y-102775014D01*
X138293974Y-102775011D01*
X138312078Y-102741141D01*
X138336447Y-102711447D01*
X138354508Y-102696625D01*
X138371835Y-102679298D01*
X138385448Y-102658924D01*
X138394826Y-102636285D01*
X138399606Y-102612252D01*
X138399606Y-102587748D01*
X138394825Y-102563714D01*
X138385448Y-102541076D01*
X138371834Y-102520701D01*
X138354508Y-102503375D01*
X138336447Y-102488553D01*
X138312078Y-102458859D01*
X138293974Y-102424989D01*
X138283348Y-102389959D01*
X138282822Y-102388227D01*
X138282822Y-102388226D01*
X138282821Y-102388223D01*
X138279057Y-102350000D01*
X138282821Y-102311777D01*
X138293974Y-102275011D01*
X138312078Y-102241141D01*
X138336447Y-102211447D01*
X138354508Y-102196625D01*
X138371835Y-102179298D01*
X138385448Y-102158924D01*
X138394826Y-102136285D01*
X138399606Y-102112252D01*
X138399606Y-102087748D01*
X138394825Y-102063714D01*
X138385448Y-102041076D01*
X138371834Y-102020701D01*
X138354508Y-102003375D01*
X138336447Y-101988553D01*
X138312078Y-101958859D01*
X138293974Y-101924989D01*
X138282821Y-101888223D01*
X138279057Y-101850000D01*
X138282821Y-101811777D01*
X138293974Y-101775011D01*
X138312078Y-101741141D01*
X138336447Y-101711447D01*
X138354508Y-101696625D01*
X138371835Y-101679298D01*
X138385448Y-101658924D01*
X138394826Y-101636285D01*
X138399606Y-101612252D01*
X138399606Y-101587748D01*
X138394825Y-101563714D01*
X138385448Y-101541076D01*
X138371834Y-101520701D01*
X138354508Y-101503375D01*
X138336447Y-101488553D01*
X138312078Y-101458859D01*
X138293974Y-101424989D01*
X138282821Y-101388223D01*
X138279057Y-101350000D01*
X138282821Y-101311777D01*
X138290541Y-101286327D01*
X138293972Y-101275016D01*
X138293973Y-101275014D01*
X138293974Y-101275011D01*
X138312078Y-101241141D01*
X138336447Y-101211447D01*
X138354508Y-101196625D01*
X138371835Y-101179298D01*
X138385448Y-101158924D01*
X138394826Y-101136285D01*
X138399606Y-101112252D01*
X138399606Y-101087748D01*
X138394825Y-101063714D01*
X138385448Y-101041076D01*
X138371834Y-101020701D01*
X138354508Y-101003375D01*
X138336447Y-100988553D01*
X138312078Y-100958859D01*
X138293974Y-100924989D01*
X138287489Y-100903610D01*
X138282822Y-100888227D01*
X138282822Y-100888226D01*
X138282821Y-100888223D01*
X138279057Y-100850000D01*
X138282821Y-100811777D01*
X138290314Y-100787075D01*
X138293972Y-100775016D01*
X138293973Y-100775014D01*
X138293974Y-100775011D01*
X138312078Y-100741141D01*
X138336447Y-100711447D01*
X138366141Y-100687078D01*
X138400011Y-100668974D01*
X138400014Y-100668973D01*
X138400016Y-100668972D01*
X138436773Y-100657822D01*
X138436774Y-100657822D01*
X138436777Y-100657821D01*
X138465420Y-100655000D01*
X138834580Y-100655000D01*
X138863223Y-100657821D01*
G37*
G36*
X143563223Y-100657821D02*
G01*
X143563226Y-100657822D01*
X143563227Y-100657822D01*
X143599984Y-100668972D01*
X143599986Y-100668973D01*
X143599989Y-100668974D01*
X143633859Y-100687078D01*
X143663553Y-100711447D01*
X143687922Y-100741141D01*
X143706026Y-100775011D01*
X143706027Y-100775014D01*
X143706028Y-100775016D01*
X143709686Y-100787075D01*
X143717179Y-100811777D01*
X143720943Y-100850000D01*
X143717179Y-100888223D01*
X143717178Y-100888226D01*
X143717178Y-100888227D01*
X143712512Y-100903610D01*
X143706026Y-100924989D01*
X143687922Y-100958859D01*
X143663553Y-100988553D01*
X143645492Y-101003375D01*
X143628165Y-101020702D01*
X143614552Y-101041076D01*
X143605174Y-101063715D01*
X143600394Y-101087748D01*
X143600394Y-101112252D01*
X143605175Y-101136286D01*
X143614552Y-101158924D01*
X143628166Y-101179299D01*
X143645492Y-101196625D01*
X143663553Y-101211447D01*
X143687922Y-101241141D01*
X143706026Y-101275011D01*
X143706027Y-101275014D01*
X143706028Y-101275016D01*
X143709459Y-101286327D01*
X143717179Y-101311777D01*
X143720943Y-101350000D01*
X143717179Y-101388223D01*
X143706026Y-101424989D01*
X143687922Y-101458859D01*
X143663553Y-101488553D01*
X143645492Y-101503375D01*
X143628165Y-101520702D01*
X143614552Y-101541076D01*
X143605174Y-101563715D01*
X143600394Y-101587748D01*
X143600394Y-101612252D01*
X143605175Y-101636286D01*
X143614552Y-101658924D01*
X143628166Y-101679299D01*
X143645492Y-101696625D01*
X143663553Y-101711447D01*
X143687922Y-101741141D01*
X143706026Y-101775011D01*
X143717179Y-101811777D01*
X143720943Y-101850000D01*
X143717179Y-101888223D01*
X143706026Y-101924989D01*
X143687922Y-101958859D01*
X143663553Y-101988553D01*
X143645492Y-102003375D01*
X143628165Y-102020702D01*
X143614552Y-102041076D01*
X143605174Y-102063715D01*
X143600394Y-102087748D01*
X143600394Y-102112252D01*
X143605175Y-102136286D01*
X143614552Y-102158924D01*
X143628166Y-102179299D01*
X143645492Y-102196625D01*
X143663553Y-102211447D01*
X143687922Y-102241141D01*
X143706026Y-102275011D01*
X143717179Y-102311777D01*
X143720943Y-102350000D01*
X143717179Y-102388223D01*
X143717178Y-102388226D01*
X143717178Y-102388227D01*
X143716653Y-102389959D01*
X143706026Y-102424989D01*
X143687922Y-102458859D01*
X143663553Y-102488553D01*
X143645492Y-102503375D01*
X143628165Y-102520702D01*
X143614552Y-102541076D01*
X143605174Y-102563715D01*
X143600394Y-102587748D01*
X143600394Y-102612252D01*
X143605175Y-102636286D01*
X143614552Y-102658924D01*
X143628166Y-102679299D01*
X143645492Y-102696625D01*
X143663553Y-102711447D01*
X143687922Y-102741141D01*
X143706026Y-102775011D01*
X143706027Y-102775014D01*
X143706028Y-102775016D01*
X143716653Y-102810043D01*
X143717179Y-102811777D01*
X143720943Y-102850000D01*
X143717179Y-102888223D01*
X143706026Y-102924989D01*
X143687922Y-102958859D01*
X143663553Y-102988553D01*
X143645492Y-103003375D01*
X143628165Y-103020702D01*
X143614552Y-103041076D01*
X143605174Y-103063715D01*
X143600394Y-103087748D01*
X143600394Y-103112252D01*
X143605175Y-103136286D01*
X143614552Y-103158924D01*
X143628166Y-103179299D01*
X143645492Y-103196625D01*
X143663553Y-103211447D01*
X143687922Y-103241141D01*
X143706026Y-103275011D01*
X143717179Y-103311777D01*
X143720943Y-103350000D01*
X143717179Y-103388223D01*
X143706026Y-103424989D01*
X143687922Y-103458859D01*
X143663553Y-103488553D01*
X143645492Y-103503375D01*
X143628165Y-103520702D01*
X143614552Y-103541076D01*
X143605174Y-103563715D01*
X143600394Y-103587748D01*
X143600394Y-103612252D01*
X143605175Y-103636286D01*
X143614552Y-103658924D01*
X143628166Y-103679299D01*
X143645492Y-103696625D01*
X143663553Y-103711447D01*
X143687922Y-103741141D01*
X143706026Y-103775011D01*
X143717179Y-103811777D01*
X143720943Y-103850000D01*
X143717179Y-103888223D01*
X143717178Y-103888226D01*
X143717178Y-103888227D01*
X143709459Y-103913674D01*
X143706026Y-103924989D01*
X143687922Y-103958859D01*
X143663553Y-103988553D01*
X143645492Y-104003375D01*
X143628165Y-104020702D01*
X143614552Y-104041076D01*
X143605174Y-104063715D01*
X143600394Y-104087748D01*
X143600394Y-104112252D01*
X143605175Y-104136286D01*
X143614552Y-104158924D01*
X143628166Y-104179299D01*
X143645492Y-104196625D01*
X143663553Y-104211447D01*
X143687922Y-104241141D01*
X143706026Y-104275011D01*
X143706027Y-104275014D01*
X143706028Y-104275016D01*
X143717178Y-104311773D01*
X143717179Y-104311777D01*
X143720943Y-104350000D01*
X143717179Y-104388223D01*
X143717178Y-104388226D01*
X143717178Y-104388227D01*
X143706504Y-104423415D01*
X143706026Y-104424989D01*
X143687922Y-104458859D01*
X143663553Y-104488553D01*
X143633859Y-104512922D01*
X143599989Y-104531026D01*
X143599986Y-104531027D01*
X143599984Y-104531028D01*
X143563227Y-104542178D01*
X143563226Y-104542178D01*
X143563223Y-104542179D01*
X143534580Y-104545000D01*
X143165420Y-104545000D01*
X143136777Y-104542179D01*
X143136774Y-104542178D01*
X143136773Y-104542178D01*
X143117157Y-104536227D01*
X143099600Y-104530902D01*
X143077754Y-104521853D01*
X143053721Y-104517073D01*
X143029217Y-104517073D01*
X143005183Y-104521854D01*
X143001707Y-104523294D01*
X143003148Y-104519814D01*
X143007928Y-104495781D01*
X143007928Y-104471277D01*
X143003147Y-104447244D01*
X142994098Y-104425397D01*
X142993974Y-104424987D01*
X142993972Y-104424984D01*
X142982822Y-104388227D01*
X142982822Y-104388226D01*
X142982821Y-104388223D01*
X142979057Y-104350000D01*
X142982821Y-104311777D01*
X142982822Y-104311773D01*
X142993972Y-104275016D01*
X142993973Y-104275014D01*
X142993974Y-104275011D01*
X143012078Y-104241141D01*
X143036447Y-104211447D01*
X143054508Y-104196625D01*
X143071835Y-104179298D01*
X143085448Y-104158924D01*
X143094826Y-104136285D01*
X143099606Y-104112252D01*
X143099606Y-104087748D01*
X143094825Y-104063714D01*
X143085448Y-104041076D01*
X143071834Y-104020701D01*
X143054508Y-104003375D01*
X143036447Y-103988553D01*
X143012078Y-103958859D01*
X142993974Y-103924989D01*
X142990542Y-103913674D01*
X142982822Y-103888227D01*
X142982822Y-103888226D01*
X142982821Y-103888223D01*
X142979057Y-103850000D01*
X142982821Y-103811777D01*
X142993974Y-103775011D01*
X143012078Y-103741141D01*
X143036447Y-103711447D01*
X143054508Y-103696625D01*
X143071835Y-103679298D01*
X143085448Y-103658924D01*
X143094826Y-103636285D01*
X143099606Y-103612252D01*
X143099606Y-103587748D01*
X143094825Y-103563714D01*
X143085448Y-103541076D01*
X143071834Y-103520701D01*
X143054508Y-103503375D01*
X143036447Y-103488553D01*
X143012078Y-103458859D01*
X142993974Y-103424989D01*
X142982821Y-103388223D01*
X142979057Y-103350000D01*
X142982821Y-103311777D01*
X142993974Y-103275011D01*
X143012078Y-103241141D01*
X143036447Y-103211447D01*
X143054508Y-103196625D01*
X143071835Y-103179298D01*
X143085448Y-103158924D01*
X143094826Y-103136285D01*
X143099606Y-103112252D01*
X143099606Y-103087748D01*
X143094825Y-103063714D01*
X143085448Y-103041076D01*
X143071834Y-103020701D01*
X143054508Y-103003375D01*
X143036447Y-102988553D01*
X143012078Y-102958859D01*
X142993974Y-102924989D01*
X142982821Y-102888223D01*
X142979057Y-102850000D01*
X142982821Y-102811777D01*
X142983347Y-102810043D01*
X142993972Y-102775016D01*
X142993973Y-102775014D01*
X142993974Y-102775011D01*
X143012078Y-102741141D01*
X143036447Y-102711447D01*
X143054508Y-102696625D01*
X143071835Y-102679298D01*
X143085448Y-102658924D01*
X143094826Y-102636285D01*
X143099606Y-102612252D01*
X143099606Y-102587748D01*
X143094825Y-102563714D01*
X143085448Y-102541076D01*
X143071834Y-102520701D01*
X143054508Y-102503375D01*
X143036447Y-102488553D01*
X143012078Y-102458859D01*
X142993974Y-102424989D01*
X142983348Y-102389959D01*
X142982822Y-102388227D01*
X142982822Y-102388226D01*
X142982821Y-102388223D01*
X142979057Y-102350000D01*
X142982821Y-102311777D01*
X142993974Y-102275011D01*
X143012078Y-102241141D01*
X143036447Y-102211447D01*
X143054508Y-102196625D01*
X143071835Y-102179298D01*
X143085448Y-102158924D01*
X143094826Y-102136285D01*
X143099606Y-102112252D01*
X143099606Y-102087748D01*
X143094825Y-102063714D01*
X143085448Y-102041076D01*
X143071834Y-102020701D01*
X143054508Y-102003375D01*
X143036447Y-101988553D01*
X143012078Y-101958859D01*
X142993974Y-101924989D01*
X142982821Y-101888223D01*
X142979057Y-101850000D01*
X142982821Y-101811777D01*
X142993974Y-101775011D01*
X143012078Y-101741141D01*
X143036447Y-101711447D01*
X143054508Y-101696625D01*
X143071835Y-101679298D01*
X143085448Y-101658924D01*
X143094826Y-101636285D01*
X143099606Y-101612252D01*
X143099606Y-101587748D01*
X143094825Y-101563714D01*
X143085448Y-101541076D01*
X143071834Y-101520701D01*
X143054508Y-101503375D01*
X143036447Y-101488553D01*
X143012078Y-101458859D01*
X142993974Y-101424989D01*
X142982821Y-101388223D01*
X142979057Y-101350000D01*
X142982821Y-101311777D01*
X142990541Y-101286327D01*
X142993972Y-101275016D01*
X142993973Y-101275014D01*
X142993974Y-101275011D01*
X143012078Y-101241141D01*
X143036447Y-101211447D01*
X143054508Y-101196625D01*
X143071835Y-101179298D01*
X143085448Y-101158924D01*
X143094826Y-101136285D01*
X143099606Y-101112252D01*
X143099606Y-101087748D01*
X143094825Y-101063714D01*
X143085448Y-101041076D01*
X143071834Y-101020701D01*
X143054508Y-101003375D01*
X143036447Y-100988553D01*
X143012078Y-100958859D01*
X142993974Y-100924989D01*
X142987489Y-100903610D01*
X142982822Y-100888227D01*
X142982822Y-100888226D01*
X142982821Y-100888223D01*
X142979057Y-100850000D01*
X142982821Y-100811777D01*
X142994098Y-100774600D01*
X143003147Y-100752754D01*
X143007927Y-100728721D01*
X143007927Y-100704217D01*
X143003146Y-100680183D01*
X143001706Y-100676705D01*
X143005186Y-100678147D01*
X143029219Y-100682927D01*
X143053723Y-100682927D01*
X143077757Y-100678146D01*
X143099600Y-100669098D01*
X143117157Y-100663773D01*
X143136773Y-100657822D01*
X143136774Y-100657822D01*
X143136777Y-100657821D01*
X143165420Y-100655000D01*
X143534580Y-100655000D01*
X143563223Y-100657821D01*
G37*
G36*
X154731261Y-102012921D02*
G01*
X154900502Y-102046585D01*
X155059035Y-102112252D01*
X155117056Y-102136285D01*
X155125423Y-102139751D01*
X155327847Y-102275006D01*
X155499994Y-102447153D01*
X155635249Y-102649577D01*
X155728415Y-102874498D01*
X155751102Y-102988553D01*
X155775910Y-103113272D01*
X155775910Y-103356728D01*
X155758628Y-103443610D01*
X155728415Y-103595502D01*
X155635249Y-103820423D01*
X155499994Y-104022847D01*
X155327847Y-104194994D01*
X155125423Y-104330249D01*
X154900502Y-104423415D01*
X154781114Y-104447163D01*
X154661728Y-104470910D01*
X154418272Y-104470910D01*
X154298885Y-104447162D01*
X154179498Y-104423415D01*
X153954577Y-104330249D01*
X153752153Y-104194994D01*
X153580006Y-104022847D01*
X153444751Y-103820423D01*
X153351585Y-103595502D01*
X153321372Y-103443610D01*
X153304090Y-103356728D01*
X153304090Y-103113272D01*
X153328898Y-102988553D01*
X153351585Y-102874498D01*
X153444751Y-102649577D01*
X153580006Y-102447153D01*
X153752153Y-102275006D01*
X153954577Y-102139751D01*
X153962945Y-102136285D01*
X154020965Y-102112252D01*
X154179498Y-102046585D01*
X154348739Y-102012921D01*
X154418272Y-101999090D01*
X154661728Y-101999090D01*
X154731261Y-102012921D01*
G37*
G36*
X149651261Y-102012921D02*
G01*
X149820502Y-102046585D01*
X149979035Y-102112252D01*
X150037056Y-102136285D01*
X150045423Y-102139751D01*
X150247847Y-102275006D01*
X150419994Y-102447153D01*
X150555249Y-102649577D01*
X150648415Y-102874498D01*
X150671102Y-102988553D01*
X150695910Y-103113272D01*
X150695910Y-103356728D01*
X150678628Y-103443610D01*
X150648415Y-103595502D01*
X150555249Y-103820423D01*
X150419994Y-104022847D01*
X150247847Y-104194994D01*
X150045423Y-104330249D01*
X149820502Y-104423415D01*
X149701114Y-104447163D01*
X149581728Y-104470910D01*
X149338272Y-104470910D01*
X149218885Y-104447162D01*
X149099498Y-104423415D01*
X148874577Y-104330249D01*
X148672153Y-104194994D01*
X148500006Y-104022847D01*
X148364751Y-103820423D01*
X148271585Y-103595502D01*
X148241372Y-103443610D01*
X148224090Y-103356728D01*
X148224090Y-103113272D01*
X148248898Y-102988553D01*
X148271585Y-102874498D01*
X148364751Y-102649577D01*
X148500006Y-102447153D01*
X148672153Y-102275006D01*
X148874577Y-102139751D01*
X148882945Y-102136285D01*
X148940965Y-102112252D01*
X149099498Y-102046585D01*
X149268739Y-102012921D01*
X149338272Y-101999090D01*
X149581728Y-101999090D01*
X149651261Y-102012921D01*
G37*
G36*
X172691981Y-102437468D02*
G01*
X172874151Y-102512926D01*
X173038100Y-102622473D01*
X173177527Y-102761900D01*
X173287074Y-102925849D01*
X173362532Y-103108019D01*
X173378258Y-103187079D01*
X173401000Y-103301409D01*
X173401000Y-103498591D01*
X173388046Y-103563714D01*
X173362532Y-103691981D01*
X173287074Y-103874151D01*
X173177527Y-104038100D01*
X173038100Y-104177527D01*
X172874151Y-104287074D01*
X172874150Y-104287075D01*
X172874149Y-104287075D01*
X172820795Y-104309175D01*
X172691981Y-104362532D01*
X172498591Y-104401000D01*
X172301409Y-104401000D01*
X172108019Y-104362532D01*
X171979205Y-104309175D01*
X171925851Y-104287075D01*
X171925850Y-104287075D01*
X171925849Y-104287074D01*
X171761900Y-104177527D01*
X171622473Y-104038100D01*
X171512926Y-103874151D01*
X171437468Y-103691981D01*
X171411954Y-103563714D01*
X171399000Y-103498591D01*
X171399000Y-103301409D01*
X171421742Y-103187079D01*
X171437468Y-103108019D01*
X171512926Y-102925849D01*
X171622473Y-102761900D01*
X171761900Y-102622473D01*
X171925849Y-102512926D01*
X172108019Y-102437468D01*
X172204715Y-102418234D01*
X172301409Y-102399000D01*
X172498591Y-102399000D01*
X172691981Y-102437468D01*
G37*
G36*
X151494344Y-103443610D02*
G01*
X151575043Y-103477037D01*
X151647670Y-103525565D01*
X151709435Y-103587330D01*
X151757963Y-103659957D01*
X151791390Y-103740656D01*
X151808430Y-103826326D01*
X151808430Y-103913674D01*
X151791390Y-103999344D01*
X151757963Y-104080043D01*
X151709435Y-104152670D01*
X151647670Y-104214435D01*
X151575043Y-104262963D01*
X151494344Y-104296390D01*
X151408674Y-104313430D01*
X151321326Y-104313430D01*
X151235656Y-104296390D01*
X151154957Y-104262963D01*
X151082330Y-104214435D01*
X151020565Y-104152670D01*
X150972037Y-104080043D01*
X150938610Y-103999344D01*
X150921570Y-103913674D01*
X150921570Y-103826326D01*
X150938610Y-103740656D01*
X150972037Y-103659957D01*
X151020565Y-103587330D01*
X151082330Y-103525565D01*
X151154957Y-103477037D01*
X151235656Y-103443610D01*
X151321326Y-103426570D01*
X151408674Y-103426570D01*
X151494344Y-103443610D01*
G37*
G36*
X152764344Y-103443610D02*
G01*
X152845043Y-103477037D01*
X152917670Y-103525565D01*
X152979435Y-103587330D01*
X153027963Y-103659957D01*
X153061390Y-103740656D01*
X153078430Y-103826326D01*
X153078430Y-103913674D01*
X153061390Y-103999344D01*
X153027963Y-104080043D01*
X152979435Y-104152670D01*
X152917670Y-104214435D01*
X152845043Y-104262963D01*
X152764344Y-104296390D01*
X152678674Y-104313430D01*
X152591326Y-104313430D01*
X152505656Y-104296390D01*
X152424957Y-104262963D01*
X152352330Y-104214435D01*
X152290565Y-104152670D01*
X152242037Y-104080043D01*
X152208610Y-103999344D01*
X152191570Y-103913674D01*
X152191570Y-103826326D01*
X152208610Y-103740656D01*
X152242037Y-103659957D01*
X152290565Y-103587330D01*
X152352330Y-103525565D01*
X152424957Y-103477037D01*
X152505656Y-103443610D01*
X152591326Y-103426570D01*
X152678674Y-103426570D01*
X152764344Y-103443610D01*
G37*
G36*
X142650000Y-104250000D02*
G01*
X139350000Y-104250000D01*
X139350000Y-100950000D01*
X142650000Y-100950000D01*
X142650000Y-104250000D01*
G37*
G36*
X165001000Y-103851000D02*
G01*
X163999000Y-103851000D01*
X163999000Y-102949000D01*
X165001000Y-102949000D01*
X165001000Y-103851000D01*
G37*
G36*
X133751000Y-103851000D02*
G01*
X132649000Y-103851000D01*
X132649000Y-103049000D01*
X133751000Y-103049000D01*
X133751000Y-103851000D01*
G37*
G36*
X122851000Y-103751000D02*
G01*
X121749000Y-103751000D01*
X121749000Y-102949000D01*
X122851000Y-102949000D01*
X122851000Y-103751000D01*
G37*
G36*
X126115000Y-103635000D02*
G01*
X124365000Y-103635000D01*
X124365000Y-102835000D01*
X126115000Y-102835000D01*
X126115000Y-103635000D01*
G37*
G36*
X131515000Y-103635000D02*
G01*
X129765000Y-103635000D01*
X129765000Y-102835000D01*
X131515000Y-102835000D01*
X131515000Y-103635000D01*
G37*
G36*
X152764344Y-102173610D02*
G01*
X152845043Y-102207037D01*
X152917670Y-102255565D01*
X152979435Y-102317330D01*
X153027963Y-102389957D01*
X153061390Y-102470656D01*
X153078430Y-102556326D01*
X153078430Y-102643674D01*
X153061390Y-102729344D01*
X153027963Y-102810043D01*
X152979435Y-102882670D01*
X152917670Y-102944435D01*
X152845043Y-102992963D01*
X152764344Y-103026390D01*
X152678674Y-103043430D01*
X152591326Y-103043430D01*
X152505656Y-103026390D01*
X152424957Y-102992963D01*
X152352330Y-102944435D01*
X152290565Y-102882670D01*
X152242037Y-102810043D01*
X152208610Y-102729344D01*
X152191570Y-102643674D01*
X152191570Y-102556326D01*
X152208610Y-102470656D01*
X152242037Y-102389957D01*
X152290565Y-102317330D01*
X152352330Y-102255565D01*
X152424957Y-102207037D01*
X152505656Y-102173610D01*
X152591326Y-102156570D01*
X152678674Y-102156570D01*
X152764344Y-102173610D01*
G37*
G36*
X151494344Y-102173610D02*
G01*
X151575043Y-102207037D01*
X151647670Y-102255565D01*
X151709435Y-102317330D01*
X151757963Y-102389957D01*
X151791390Y-102470656D01*
X151808430Y-102556326D01*
X151808430Y-102643674D01*
X151791390Y-102729344D01*
X151757963Y-102810043D01*
X151709435Y-102882670D01*
X151647670Y-102944435D01*
X151575043Y-102992963D01*
X151494344Y-103026390D01*
X151408674Y-103043430D01*
X151321326Y-103043430D01*
X151235656Y-103026390D01*
X151154957Y-102992963D01*
X151082330Y-102944435D01*
X151020565Y-102882670D01*
X150972037Y-102810043D01*
X150938610Y-102729344D01*
X150921570Y-102643674D01*
X150921570Y-102556326D01*
X150938610Y-102470656D01*
X150972037Y-102389957D01*
X151020565Y-102317330D01*
X151082330Y-102255565D01*
X151154957Y-102207037D01*
X151235656Y-102173610D01*
X151321326Y-102156570D01*
X151408674Y-102156570D01*
X151494344Y-102173610D01*
G37*
G36*
X163001000Y-102901000D02*
G01*
X161999000Y-102901000D01*
X161999000Y-101999000D01*
X163001000Y-101999000D01*
X163001000Y-102901000D01*
G37*
G36*
X160551000Y-102851000D02*
G01*
X159449000Y-102851000D01*
X159449000Y-102049000D01*
X160551000Y-102049000D01*
X160551000Y-102851000D01*
G37*
G36*
X167551000Y-102851000D02*
G01*
X166449000Y-102851000D01*
X166449000Y-102049000D01*
X167551000Y-102049000D01*
X167551000Y-102851000D01*
G37*
G36*
X126115000Y-102365000D02*
G01*
X124365000Y-102365000D01*
X124365000Y-101565000D01*
X126115000Y-101565000D01*
X126115000Y-102365000D01*
G37*
G36*
X131515000Y-102365000D02*
G01*
X129765000Y-102365000D01*
X129765000Y-101565000D01*
X131515000Y-101565000D01*
X131515000Y-102365000D01*
G37*
G36*
X122851000Y-102251000D02*
G01*
X121749000Y-102251000D01*
X121749000Y-101449000D01*
X122851000Y-101449000D01*
X122851000Y-102251000D01*
G37*
G36*
X133751000Y-102151000D02*
G01*
X132649000Y-102151000D01*
X132649000Y-101349000D01*
X133751000Y-101349000D01*
X133751000Y-102151000D01*
G37*
G36*
X136051000Y-102151000D02*
G01*
X134949000Y-102151000D01*
X134949000Y-101349000D01*
X136051000Y-101349000D01*
X136051000Y-102151000D01*
G37*
G36*
X151494344Y-100903610D02*
G01*
X151575043Y-100937037D01*
X151647670Y-100985565D01*
X151709435Y-101047330D01*
X151757963Y-101119957D01*
X151791390Y-101200656D01*
X151808430Y-101286326D01*
X151808430Y-101373674D01*
X151791390Y-101459344D01*
X151757963Y-101540043D01*
X151709435Y-101612670D01*
X151647670Y-101674435D01*
X151575043Y-101722963D01*
X151494344Y-101756390D01*
X151408674Y-101773430D01*
X151321326Y-101773430D01*
X151235656Y-101756390D01*
X151154957Y-101722963D01*
X151082330Y-101674435D01*
X151020565Y-101612670D01*
X150972037Y-101540043D01*
X150938610Y-101459344D01*
X150921570Y-101373674D01*
X150921570Y-101286326D01*
X150938610Y-101200656D01*
X150972037Y-101119957D01*
X151020565Y-101047330D01*
X151082330Y-100985565D01*
X151154957Y-100937037D01*
X151235656Y-100903610D01*
X151321326Y-100886570D01*
X151408674Y-100886570D01*
X151494344Y-100903610D01*
G37*
G36*
X152764344Y-100903610D02*
G01*
X152845043Y-100937037D01*
X152917670Y-100985565D01*
X152979435Y-101047330D01*
X153027963Y-101119957D01*
X153061390Y-101200656D01*
X153078430Y-101286326D01*
X153078430Y-101373674D01*
X153061390Y-101459344D01*
X153027963Y-101540043D01*
X152979435Y-101612670D01*
X152917670Y-101674435D01*
X152845043Y-101722963D01*
X152764344Y-101756390D01*
X152678674Y-101773430D01*
X152591326Y-101773430D01*
X152505656Y-101756390D01*
X152424957Y-101722963D01*
X152352330Y-101674435D01*
X152290565Y-101612670D01*
X152242037Y-101540043D01*
X152208610Y-101459344D01*
X152191570Y-101373674D01*
X152191570Y-101286326D01*
X152208610Y-101200656D01*
X152242037Y-101119957D01*
X152290565Y-101047330D01*
X152352330Y-100985565D01*
X152424957Y-100937037D01*
X152505656Y-100903610D01*
X152591326Y-100886570D01*
X152678674Y-100886570D01*
X152764344Y-100903610D01*
G37*
G36*
X149701114Y-98974837D02*
G01*
X149820502Y-98998585D01*
X150045423Y-99091751D01*
X150247847Y-99227006D01*
X150419994Y-99399153D01*
X150497380Y-99514970D01*
X150555250Y-99601579D01*
X150557918Y-99608020D01*
X150648415Y-99826498D01*
X150659618Y-99882821D01*
X150695910Y-100065272D01*
X150695910Y-100308728D01*
X150676276Y-100407434D01*
X150648415Y-100547502D01*
X150594300Y-100678146D01*
X150563396Y-100752756D01*
X150555249Y-100772423D01*
X150419994Y-100974847D01*
X150247847Y-101146994D01*
X150045423Y-101282249D01*
X150045422Y-101282250D01*
X150045421Y-101282250D01*
X150035578Y-101286327D01*
X149820502Y-101375415D01*
X149756111Y-101388223D01*
X149581728Y-101422910D01*
X149338272Y-101422910D01*
X149163889Y-101388223D01*
X149099498Y-101375415D01*
X148884422Y-101286327D01*
X148874579Y-101282250D01*
X148874578Y-101282250D01*
X148874577Y-101282249D01*
X148672153Y-101146994D01*
X148500006Y-100974847D01*
X148364751Y-100772423D01*
X148356605Y-100752756D01*
X148325700Y-100678146D01*
X148271585Y-100547502D01*
X148243724Y-100407434D01*
X148224090Y-100308728D01*
X148224090Y-100065272D01*
X148260382Y-99882821D01*
X148271585Y-99826498D01*
X148362082Y-99608020D01*
X148364750Y-99601579D01*
X148422620Y-99514970D01*
X148500006Y-99399153D01*
X148672153Y-99227006D01*
X148874577Y-99091751D01*
X149099498Y-98998585D01*
X149218885Y-98974838D01*
X149338272Y-98951090D01*
X149581728Y-98951090D01*
X149701114Y-98974837D01*
G37*
G36*
X160551000Y-101351000D02*
G01*
X159449000Y-101351000D01*
X159449000Y-100549000D01*
X160551000Y-100549000D01*
X160551000Y-101351000D01*
G37*
G36*
X167551000Y-101351000D02*
G01*
X166449000Y-101351000D01*
X166449000Y-100549000D01*
X167551000Y-100549000D01*
X167551000Y-101351000D01*
G37*
G36*
X154781362Y-98846592D02*
G01*
X154900872Y-98870364D01*
X155126024Y-98963625D01*
X155261418Y-99054093D01*
X155317778Y-99091751D01*
X155328656Y-99099020D01*
X155500980Y-99271344D01*
X155636375Y-99473976D01*
X155729636Y-99699128D01*
X155732309Y-99712566D01*
X155777180Y-99938147D01*
X155777180Y-100181853D01*
X155775165Y-100191981D01*
X155729636Y-100420872D01*
X155636375Y-100646024D01*
X155551919Y-100772421D01*
X155500981Y-100848655D01*
X155328655Y-101020981D01*
X155296931Y-101042178D01*
X155126024Y-101156375D01*
X154900872Y-101249636D01*
X154781362Y-101273408D01*
X154661853Y-101297180D01*
X154418147Y-101297180D01*
X154298638Y-101273408D01*
X154179128Y-101249636D01*
X153953976Y-101156375D01*
X153783069Y-101042178D01*
X153751345Y-101020981D01*
X153579019Y-100848655D01*
X153528081Y-100772421D01*
X153443625Y-100646024D01*
X153350364Y-100420872D01*
X153304835Y-100191981D01*
X153302820Y-100181853D01*
X153302820Y-99938147D01*
X153347691Y-99712566D01*
X153350364Y-99699128D01*
X153443625Y-99473976D01*
X153579020Y-99271344D01*
X153751344Y-99099020D01*
X153762223Y-99091751D01*
X153818582Y-99054093D01*
X153953976Y-98963625D01*
X154179128Y-98870364D01*
X154298638Y-98846592D01*
X154418147Y-98822820D01*
X154661853Y-98822820D01*
X154781362Y-98846592D01*
G37*
G36*
X126115000Y-101095000D02*
G01*
X124365000Y-101095000D01*
X124365000Y-100295000D01*
X126115000Y-100295000D01*
X126115000Y-101095000D01*
G37*
G36*
X131515000Y-101095000D02*
G01*
X129765000Y-101095000D01*
X129765000Y-100295000D01*
X131515000Y-100295000D01*
X131515000Y-101095000D01*
G37*
G36*
X172595285Y-98918234D02*
G01*
X172691981Y-98937468D01*
X172874151Y-99012926D01*
X173038100Y-99122473D01*
X173177527Y-99261900D01*
X173287074Y-99425849D01*
X173359864Y-99601577D01*
X173362532Y-99608020D01*
X173401000Y-99801409D01*
X173401000Y-99998591D01*
X173362532Y-100191981D01*
X173287074Y-100374151D01*
X173177527Y-100538100D01*
X173038100Y-100677527D01*
X172874151Y-100787074D01*
X172691981Y-100862532D01*
X172595285Y-100881766D01*
X172498591Y-100901000D01*
X172301409Y-100901000D01*
X172204715Y-100881766D01*
X172108019Y-100862532D01*
X171925849Y-100787074D01*
X171761900Y-100677527D01*
X171622473Y-100538100D01*
X171512926Y-100374151D01*
X171437468Y-100191981D01*
X171399000Y-99998591D01*
X171399000Y-99801409D01*
X171437468Y-99608020D01*
X171440137Y-99601577D01*
X171512926Y-99425849D01*
X171622473Y-99261900D01*
X171761900Y-99122473D01*
X171925849Y-99012926D01*
X172108019Y-98937468D01*
X172204715Y-98918234D01*
X172301409Y-98899000D01*
X172498591Y-98899000D01*
X172595285Y-98918234D01*
G37*
G36*
X136051000Y-100651000D02*
G01*
X134949000Y-100651000D01*
X134949000Y-99849000D01*
X136051000Y-99849000D01*
X136051000Y-100651000D01*
G37*
G36*
X133751000Y-100651000D02*
G01*
X132649000Y-100651000D01*
X132649000Y-99849000D01*
X133751000Y-99849000D01*
X133751000Y-100651000D01*
G37*
G36*
X142788222Y-99882821D02*
G01*
X142788225Y-99882822D01*
X142788226Y-99882822D01*
X142824983Y-99893972D01*
X142824985Y-99893973D01*
X142824988Y-99893974D01*
X142858858Y-99912078D01*
X142888554Y-99936448D01*
X142912922Y-99966141D01*
X142931026Y-100000011D01*
X142931026Y-100000012D01*
X142931028Y-100000016D01*
X142932940Y-100006319D01*
X142942179Y-100036777D01*
X142945000Y-100065420D01*
X142945000Y-100434580D01*
X142942179Y-100463223D01*
X142930902Y-100500400D01*
X142921853Y-100522246D01*
X142917073Y-100546279D01*
X142917073Y-100570783D01*
X142921854Y-100594817D01*
X142923294Y-100598295D01*
X142919814Y-100596853D01*
X142895781Y-100592073D01*
X142871277Y-100592073D01*
X142847243Y-100596854D01*
X142825400Y-100605902D01*
X142807843Y-100611227D01*
X142788227Y-100617178D01*
X142788226Y-100617178D01*
X142788223Y-100617179D01*
X142750000Y-100620943D01*
X142711778Y-100617179D01*
X142711775Y-100617178D01*
X142711774Y-100617178D01*
X142675017Y-100606028D01*
X142675015Y-100606027D01*
X142675012Y-100606026D01*
X142641142Y-100587922D01*
X142611448Y-100563553D01*
X142596626Y-100545492D01*
X142579299Y-100528165D01*
X142558925Y-100514552D01*
X142536286Y-100505174D01*
X142512253Y-100500394D01*
X142487749Y-100500394D01*
X142463715Y-100505175D01*
X142441077Y-100514552D01*
X142420702Y-100528166D01*
X142403377Y-100545490D01*
X142388552Y-100563554D01*
X142358859Y-100587922D01*
X142324989Y-100606026D01*
X142324986Y-100606027D01*
X142324984Y-100606028D01*
X142288227Y-100617178D01*
X142288226Y-100617178D01*
X142288223Y-100617179D01*
X142250000Y-100620943D01*
X142211778Y-100617179D01*
X142211775Y-100617178D01*
X142211774Y-100617178D01*
X142175017Y-100606028D01*
X142175015Y-100606027D01*
X142175012Y-100606026D01*
X142141142Y-100587922D01*
X142111448Y-100563553D01*
X142096626Y-100545492D01*
X142079299Y-100528165D01*
X142058925Y-100514552D01*
X142036286Y-100505174D01*
X142012253Y-100500394D01*
X141987749Y-100500394D01*
X141963715Y-100505175D01*
X141941077Y-100514552D01*
X141920702Y-100528166D01*
X141903377Y-100545490D01*
X141888552Y-100563554D01*
X141858859Y-100587922D01*
X141824989Y-100606026D01*
X141824986Y-100606027D01*
X141824984Y-100606028D01*
X141788227Y-100617178D01*
X141788226Y-100617178D01*
X141788223Y-100617179D01*
X141750000Y-100620943D01*
X141711778Y-100617179D01*
X141711775Y-100617178D01*
X141711774Y-100617178D01*
X141675017Y-100606028D01*
X141675015Y-100606027D01*
X141675012Y-100606026D01*
X141641142Y-100587922D01*
X141611448Y-100563553D01*
X141596626Y-100545492D01*
X141579299Y-100528165D01*
X141558925Y-100514552D01*
X141536286Y-100505174D01*
X141512253Y-100500394D01*
X141487749Y-100500394D01*
X141463715Y-100505175D01*
X141441077Y-100514552D01*
X141420702Y-100528166D01*
X141403377Y-100545490D01*
X141388552Y-100563554D01*
X141358859Y-100587922D01*
X141324989Y-100606026D01*
X141324986Y-100606027D01*
X141324984Y-100606028D01*
X141288227Y-100617178D01*
X141288226Y-100617178D01*
X141288223Y-100617179D01*
X141250000Y-100620943D01*
X141211778Y-100617179D01*
X141211775Y-100617178D01*
X141211774Y-100617178D01*
X141175017Y-100606028D01*
X141175015Y-100606027D01*
X141175012Y-100606026D01*
X141141142Y-100587922D01*
X141111448Y-100563553D01*
X141096626Y-100545492D01*
X141079299Y-100528165D01*
X141058925Y-100514552D01*
X141036286Y-100505174D01*
X141012253Y-100500394D01*
X140987749Y-100500394D01*
X140963715Y-100505175D01*
X140941077Y-100514552D01*
X140920702Y-100528166D01*
X140903377Y-100545490D01*
X140888552Y-100563554D01*
X140858859Y-100587922D01*
X140824989Y-100606026D01*
X140824986Y-100606027D01*
X140824984Y-100606028D01*
X140788227Y-100617178D01*
X140788226Y-100617178D01*
X140788223Y-100617179D01*
X140750000Y-100620943D01*
X140711778Y-100617179D01*
X140711775Y-100617178D01*
X140711774Y-100617178D01*
X140675017Y-100606028D01*
X140675015Y-100606027D01*
X140675012Y-100606026D01*
X140641142Y-100587922D01*
X140611448Y-100563553D01*
X140596626Y-100545492D01*
X140579299Y-100528165D01*
X140558925Y-100514552D01*
X140536286Y-100505174D01*
X140512253Y-100500394D01*
X140487749Y-100500394D01*
X140463715Y-100505175D01*
X140441077Y-100514552D01*
X140420702Y-100528166D01*
X140403377Y-100545490D01*
X140388552Y-100563554D01*
X140358859Y-100587922D01*
X140324989Y-100606026D01*
X140324986Y-100606027D01*
X140324984Y-100606028D01*
X140288227Y-100617178D01*
X140288226Y-100617178D01*
X140288223Y-100617179D01*
X140250000Y-100620943D01*
X140211778Y-100617179D01*
X140211775Y-100617178D01*
X140211774Y-100617178D01*
X140175017Y-100606028D01*
X140175015Y-100606027D01*
X140175012Y-100606026D01*
X140141142Y-100587922D01*
X140111448Y-100563553D01*
X140096626Y-100545492D01*
X140079299Y-100528165D01*
X140058925Y-100514552D01*
X140036286Y-100505174D01*
X140012253Y-100500394D01*
X139987749Y-100500394D01*
X139963715Y-100505175D01*
X139941077Y-100514552D01*
X139920702Y-100528166D01*
X139903377Y-100545490D01*
X139888552Y-100563554D01*
X139858859Y-100587922D01*
X139824989Y-100606026D01*
X139824986Y-100606027D01*
X139824984Y-100606028D01*
X139788227Y-100617178D01*
X139788226Y-100617178D01*
X139788223Y-100617179D01*
X139750000Y-100620943D01*
X139711778Y-100617179D01*
X139711775Y-100617178D01*
X139711774Y-100617178D01*
X139675017Y-100606028D01*
X139675015Y-100606027D01*
X139675012Y-100606026D01*
X139641142Y-100587922D01*
X139611448Y-100563553D01*
X139596626Y-100545492D01*
X139579299Y-100528165D01*
X139558925Y-100514552D01*
X139536286Y-100505174D01*
X139512253Y-100500394D01*
X139487749Y-100500394D01*
X139463715Y-100505175D01*
X139441077Y-100514552D01*
X139420702Y-100528166D01*
X139403377Y-100545490D01*
X139388552Y-100563554D01*
X139358859Y-100587922D01*
X139324989Y-100606026D01*
X139324986Y-100606027D01*
X139324984Y-100606028D01*
X139288227Y-100617178D01*
X139288226Y-100617178D01*
X139288223Y-100617179D01*
X139250000Y-100620943D01*
X139211778Y-100617179D01*
X139211775Y-100617178D01*
X139211774Y-100617178D01*
X139175017Y-100606028D01*
X139175016Y-100606028D01*
X139174599Y-100605901D01*
X139152752Y-100596852D01*
X139128719Y-100592072D01*
X139104215Y-100592072D01*
X139080182Y-100596853D01*
X139076706Y-100598293D01*
X139078149Y-100594809D01*
X139082929Y-100570776D01*
X139082927Y-100546272D01*
X139078146Y-100522239D01*
X139069097Y-100500397D01*
X139057821Y-100463223D01*
X139055000Y-100434580D01*
X139055000Y-100065421D01*
X139057821Y-100036778D01*
X139057822Y-100036774D01*
X139068972Y-100000017D01*
X139068973Y-100000015D01*
X139068974Y-100000012D01*
X139087078Y-99966142D01*
X139111448Y-99936446D01*
X139141141Y-99912078D01*
X139175011Y-99893974D01*
X139175014Y-99893973D01*
X139175016Y-99893972D01*
X139211773Y-99882822D01*
X139211774Y-99882822D01*
X139211777Y-99882821D01*
X139250000Y-99879057D01*
X139288222Y-99882821D01*
X139288225Y-99882822D01*
X139288226Y-99882822D01*
X139324983Y-99893972D01*
X139324985Y-99893973D01*
X139324988Y-99893974D01*
X139358858Y-99912078D01*
X139358860Y-99912079D01*
X139358859Y-99912079D01*
X139388553Y-99936447D01*
X139403375Y-99954508D01*
X139420702Y-99971835D01*
X139441076Y-99985448D01*
X139463715Y-99994826D01*
X139487748Y-99999606D01*
X139512252Y-99999606D01*
X139536286Y-99994825D01*
X139558924Y-99985448D01*
X139579299Y-99971834D01*
X139596625Y-99954508D01*
X139611447Y-99936447D01*
X139641141Y-99912078D01*
X139675011Y-99893974D01*
X139675014Y-99893973D01*
X139675016Y-99893972D01*
X139711773Y-99882822D01*
X139711774Y-99882822D01*
X139711777Y-99882821D01*
X139750000Y-99879057D01*
X139788222Y-99882821D01*
X139788225Y-99882822D01*
X139788226Y-99882822D01*
X139824983Y-99893972D01*
X139824985Y-99893973D01*
X139824988Y-99893974D01*
X139858858Y-99912078D01*
X139858860Y-99912079D01*
X139858859Y-99912079D01*
X139888553Y-99936447D01*
X139903375Y-99954508D01*
X139920702Y-99971835D01*
X139941076Y-99985448D01*
X139963715Y-99994826D01*
X139987748Y-99999606D01*
X140012252Y-99999606D01*
X140036286Y-99994825D01*
X140058924Y-99985448D01*
X140079299Y-99971834D01*
X140096625Y-99954508D01*
X140111447Y-99936447D01*
X140141141Y-99912078D01*
X140175011Y-99893974D01*
X140175014Y-99893973D01*
X140175016Y-99893972D01*
X140211773Y-99882822D01*
X140211774Y-99882822D01*
X140211777Y-99882821D01*
X140250000Y-99879057D01*
X140288222Y-99882821D01*
X140288225Y-99882822D01*
X140288226Y-99882822D01*
X140324983Y-99893972D01*
X140324985Y-99893973D01*
X140324988Y-99893974D01*
X140358858Y-99912078D01*
X140358860Y-99912079D01*
X140358859Y-99912079D01*
X140388553Y-99936447D01*
X140403375Y-99954508D01*
X140420702Y-99971835D01*
X140441076Y-99985448D01*
X140463715Y-99994826D01*
X140487748Y-99999606D01*
X140512252Y-99999606D01*
X140536286Y-99994825D01*
X140558924Y-99985448D01*
X140579299Y-99971834D01*
X140596625Y-99954508D01*
X140611447Y-99936447D01*
X140641141Y-99912078D01*
X140675011Y-99893974D01*
X140675014Y-99893973D01*
X140675016Y-99893972D01*
X140711773Y-99882822D01*
X140711774Y-99882822D01*
X140711777Y-99882821D01*
X140750000Y-99879057D01*
X140788222Y-99882821D01*
X140788225Y-99882822D01*
X140788226Y-99882822D01*
X140824983Y-99893972D01*
X140824985Y-99893973D01*
X140824988Y-99893974D01*
X140858858Y-99912078D01*
X140858860Y-99912079D01*
X140858859Y-99912079D01*
X140888553Y-99936447D01*
X140903375Y-99954508D01*
X140920702Y-99971835D01*
X140941076Y-99985448D01*
X140963715Y-99994826D01*
X140987748Y-99999606D01*
X141012252Y-99999606D01*
X141036286Y-99994825D01*
X141058924Y-99985448D01*
X141079299Y-99971834D01*
X141096625Y-99954508D01*
X141111447Y-99936447D01*
X141141141Y-99912078D01*
X141175011Y-99893974D01*
X141175014Y-99893973D01*
X141175016Y-99893972D01*
X141211773Y-99882822D01*
X141211774Y-99882822D01*
X141211777Y-99882821D01*
X141250000Y-99879057D01*
X141288222Y-99882821D01*
X141288225Y-99882822D01*
X141288226Y-99882822D01*
X141324983Y-99893972D01*
X141324985Y-99893973D01*
X141324988Y-99893974D01*
X141358858Y-99912078D01*
X141358860Y-99912079D01*
X141358859Y-99912079D01*
X141388553Y-99936447D01*
X141403375Y-99954508D01*
X141420702Y-99971835D01*
X141441076Y-99985448D01*
X141463715Y-99994826D01*
X141487748Y-99999606D01*
X141512252Y-99999606D01*
X141536286Y-99994825D01*
X141558924Y-99985448D01*
X141579299Y-99971834D01*
X141596625Y-99954508D01*
X141611447Y-99936447D01*
X141641141Y-99912078D01*
X141675011Y-99893974D01*
X141675014Y-99893973D01*
X141675016Y-99893972D01*
X141711773Y-99882822D01*
X141711774Y-99882822D01*
X141711777Y-99882821D01*
X141750000Y-99879057D01*
X141788222Y-99882821D01*
X141788225Y-99882822D01*
X141788226Y-99882822D01*
X141824983Y-99893972D01*
X141824985Y-99893973D01*
X141824988Y-99893974D01*
X141858858Y-99912078D01*
X141858860Y-99912079D01*
X141858859Y-99912079D01*
X141888553Y-99936447D01*
X141903375Y-99954508D01*
X141920702Y-99971835D01*
X141941076Y-99985448D01*
X141963715Y-99994826D01*
X141987748Y-99999606D01*
X142012252Y-99999606D01*
X142036286Y-99994825D01*
X142058924Y-99985448D01*
X142079299Y-99971834D01*
X142096625Y-99954508D01*
X142111447Y-99936447D01*
X142141141Y-99912078D01*
X142175011Y-99893974D01*
X142175014Y-99893973D01*
X142175016Y-99893972D01*
X142211773Y-99882822D01*
X142211774Y-99882822D01*
X142211777Y-99882821D01*
X142250000Y-99879057D01*
X142288222Y-99882821D01*
X142288225Y-99882822D01*
X142288226Y-99882822D01*
X142324983Y-99893972D01*
X142324985Y-99893973D01*
X142324988Y-99893974D01*
X142358858Y-99912078D01*
X142358860Y-99912079D01*
X142358859Y-99912079D01*
X142388553Y-99936447D01*
X142403375Y-99954508D01*
X142420702Y-99971835D01*
X142441076Y-99985448D01*
X142463715Y-99994826D01*
X142487748Y-99999606D01*
X142512252Y-99999606D01*
X142536286Y-99994825D01*
X142558924Y-99985448D01*
X142579299Y-99971834D01*
X142596625Y-99954508D01*
X142611447Y-99936447D01*
X142641141Y-99912078D01*
X142675011Y-99893974D01*
X142675014Y-99893973D01*
X142675016Y-99893972D01*
X142711773Y-99882822D01*
X142711774Y-99882822D01*
X142711777Y-99882821D01*
X142750000Y-99879057D01*
X142788222Y-99882821D01*
G37*
G36*
X152106330Y-99525443D02*
G01*
X152158979Y-99535915D01*
X152192042Y-99549610D01*
X152258170Y-99577001D01*
X152347434Y-99636645D01*
X152423355Y-99712566D01*
X152482999Y-99801830D01*
X152493217Y-99826499D01*
X152524085Y-99901021D01*
X152531131Y-99936446D01*
X152545030Y-100006318D01*
X152545030Y-100113682D01*
X152524085Y-100218978D01*
X152482999Y-100318170D01*
X152423355Y-100407434D01*
X152347434Y-100483355D01*
X152258170Y-100542999D01*
X152208547Y-100563553D01*
X152158979Y-100584085D01*
X152118825Y-100592072D01*
X152053682Y-100605030D01*
X151946318Y-100605030D01*
X151881175Y-100592072D01*
X151841021Y-100584085D01*
X151791453Y-100563553D01*
X151741830Y-100542999D01*
X151652566Y-100483355D01*
X151576645Y-100407434D01*
X151517001Y-100318170D01*
X151475915Y-100218978D01*
X151454970Y-100113682D01*
X151454970Y-100006318D01*
X151468869Y-99936446D01*
X151475915Y-99901021D01*
X151506783Y-99826499D01*
X151517001Y-99801830D01*
X151576645Y-99712566D01*
X151652566Y-99636645D01*
X151741830Y-99577001D01*
X151807958Y-99549610D01*
X151841021Y-99535915D01*
X151893670Y-99525443D01*
X151946318Y-99514970D01*
X152053682Y-99514970D01*
X152106330Y-99525443D01*
G37*
G36*
X131291000Y-98551000D02*
G01*
X129989000Y-98551000D01*
X129989000Y-97449000D01*
X131291000Y-97449000D01*
X131291000Y-98551000D01*
G37*
G36*
X140551000Y-98351000D02*
G01*
X139449000Y-98351000D01*
X139449000Y-97049000D01*
X140551000Y-97049000D01*
X140551000Y-98351000D01*
G37*
G36*
X142551000Y-98351000D02*
G01*
X141449000Y-98351000D01*
X141449000Y-97049000D01*
X142551000Y-97049000D01*
X142551000Y-98351000D01*
G37*
G36*
X131291000Y-96551000D02*
G01*
X129989000Y-96551000D01*
X129989000Y-95449000D01*
X131291000Y-95449000D01*
X131291000Y-96551000D01*
G37*
G36*
X167651000Y-96251000D02*
G01*
X166349000Y-96251000D01*
X166349000Y-95149000D01*
X167651000Y-95149000D01*
X167651000Y-96251000D01*
G37*
G36*
X160651000Y-96251000D02*
G01*
X159349000Y-96251000D01*
X159349000Y-95149000D01*
X160651000Y-95149000D01*
X160651000Y-96251000D01*
G37*
G36*
X162981000Y-96026000D02*
G01*
X161819000Y-96026000D01*
X161819000Y-95274000D01*
X162981000Y-95274000D01*
X162981000Y-96026000D01*
G37*
G36*
X165181000Y-96026000D02*
G01*
X164019000Y-96026000D01*
X164019000Y-93374000D01*
X165181000Y-93374000D01*
X165181000Y-96026000D01*
G37*
G36*
X170551000Y-95851000D02*
G01*
X169449000Y-95851000D01*
X169449000Y-95049000D01*
X170551000Y-95049000D01*
X170551000Y-95851000D01*
G37*
G36*
X170551000Y-94351000D02*
G01*
X169449000Y-94351000D01*
X169449000Y-93549000D01*
X170551000Y-93549000D01*
X170551000Y-94351000D01*
G37*
G36*
X167651000Y-94251000D02*
G01*
X166349000Y-94251000D01*
X166349000Y-93149000D01*
X167651000Y-93149000D01*
X167651000Y-94251000D01*
G37*
G36*
X160651000Y-94251000D02*
G01*
X159349000Y-94251000D01*
X159349000Y-93149000D01*
X160651000Y-93149000D01*
X160651000Y-94251000D01*
G37*
G36*
X162981000Y-94126000D02*
G01*
X161819000Y-94126000D01*
X161819000Y-93374000D01*
X162981000Y-93374000D01*
X162981000Y-94126000D01*
G37*
G36*
X142701000Y-93751000D02*
G01*
X141799000Y-93751000D01*
X141799000Y-92649000D01*
X142701000Y-92649000D01*
X142701000Y-93751000D01*
G37*
G36*
X151701000Y-93751000D02*
G01*
X150799000Y-93751000D01*
X150799000Y-92649000D01*
X151701000Y-92649000D01*
X151701000Y-93751000D01*
G37*
G36*
X150201000Y-93751000D02*
G01*
X149299000Y-93751000D01*
X149299000Y-92649000D01*
X150201000Y-92649000D01*
X150201000Y-93751000D01*
G37*
G36*
X141201000Y-93751000D02*
G01*
X140299000Y-93751000D01*
X140299000Y-92649000D01*
X141201000Y-92649000D01*
X141201000Y-93751000D01*
G37*
G36*
X148651000Y-93751000D02*
G01*
X147849000Y-93751000D01*
X147849000Y-92649000D01*
X148651000Y-92649000D01*
X148651000Y-93751000D01*
G37*
G36*
X147151000Y-93751000D02*
G01*
X146349000Y-93751000D01*
X146349000Y-92649000D01*
X147151000Y-92649000D01*
X147151000Y-93751000D01*
G37*
G36*
X144151000Y-93751000D02*
G01*
X143349000Y-93751000D01*
X143349000Y-92649000D01*
X144151000Y-92649000D01*
X144151000Y-93751000D01*
G37*
G36*
X145651000Y-93751000D02*
G01*
X144849000Y-93751000D01*
X144849000Y-92649000D01*
X145651000Y-92649000D01*
X145651000Y-93751000D01*
G37*
G36*
X136486000Y-89966000D02*
G01*
X134014000Y-89966000D01*
X134014000Y-87434000D01*
X136486000Y-87434000D01*
X136486000Y-89966000D01*
G37*
G36*
X130186000Y-89966000D02*
G01*
X127714000Y-89966000D01*
X127714000Y-87434000D01*
X130186000Y-87434000D01*
X130186000Y-89966000D01*
G37*
G36*
X123106564Y-87489389D02*
G01*
X123297833Y-87568615D01*
X123297835Y-87568616D01*
X123469973Y-87683635D01*
X123616365Y-87830027D01*
X123731385Y-88002167D01*
X123810611Y-88193436D01*
X123851000Y-88396484D01*
X123851000Y-88603516D01*
X123810611Y-88806564D01*
X123731385Y-88997833D01*
X123731384Y-88997835D01*
X123616365Y-89169973D01*
X123469973Y-89316365D01*
X123297835Y-89431384D01*
X123297834Y-89431385D01*
X123297833Y-89431385D01*
X123106564Y-89510611D01*
X122903516Y-89551000D01*
X122696484Y-89551000D01*
X122493436Y-89510611D01*
X122302167Y-89431385D01*
X122302166Y-89431385D01*
X122302165Y-89431384D01*
X122130027Y-89316365D01*
X121983635Y-89169973D01*
X121868616Y-88997835D01*
X121868615Y-88997833D01*
X121789389Y-88806564D01*
X121749000Y-88603516D01*
X121749000Y-88396484D01*
X121789389Y-88193436D01*
X121868615Y-88002167D01*
X121983635Y-87830027D01*
X122130027Y-87683635D01*
X122302165Y-87568616D01*
X122302167Y-87568615D01*
X122493436Y-87489389D01*
X122696484Y-87449000D01*
X122903516Y-87449000D01*
X123106564Y-87489389D01*
G37*
G36*
X175986564Y-87349389D02*
G01*
X176177833Y-87428615D01*
X176177835Y-87428616D01*
X176349973Y-87543635D01*
X176496365Y-87690027D01*
X176611385Y-87862167D01*
X176690611Y-88053436D01*
X176731000Y-88256484D01*
X176731000Y-88463516D01*
X176690611Y-88666564D01*
X176632621Y-88806564D01*
X176611384Y-88857835D01*
X176496365Y-89029973D01*
X176349973Y-89176365D01*
X176177835Y-89291384D01*
X176177834Y-89291385D01*
X176177833Y-89291385D01*
X175986564Y-89370611D01*
X175783516Y-89411000D01*
X175576484Y-89411000D01*
X175373436Y-89370611D01*
X175182167Y-89291385D01*
X175182166Y-89291385D01*
X175182165Y-89291384D01*
X175010027Y-89176365D01*
X174863635Y-89029973D01*
X174748616Y-88857835D01*
X174727379Y-88806564D01*
X174669389Y-88666564D01*
X174629000Y-88463516D01*
X174629000Y-88256484D01*
X174669389Y-88053436D01*
X174748615Y-87862167D01*
X174863635Y-87690027D01*
X175010027Y-87543635D01*
X175182165Y-87428616D01*
X175182167Y-87428615D01*
X175373436Y-87349389D01*
X175576484Y-87309000D01*
X175783516Y-87309000D01*
X175986564Y-87349389D01*
G37*
G36*
X140426564Y-84809389D02*
G01*
X140617833Y-84888615D01*
X140617835Y-84888616D01*
X140789973Y-85003635D01*
X140936365Y-85150027D01*
X141051385Y-85322167D01*
X141130611Y-85513436D01*
X141171000Y-85716484D01*
X141171000Y-85923516D01*
X141130611Y-86126564D01*
X141051385Y-86317833D01*
X141051384Y-86317835D01*
X140936365Y-86489973D01*
X140789973Y-86636365D01*
X140617835Y-86751384D01*
X140617834Y-86751385D01*
X140617833Y-86751385D01*
X140426564Y-86830611D01*
X140223516Y-86871000D01*
X140016484Y-86871000D01*
X139813436Y-86830611D01*
X139622167Y-86751385D01*
X139622166Y-86751385D01*
X139622165Y-86751384D01*
X139450027Y-86636365D01*
X139303635Y-86489973D01*
X139188616Y-86317835D01*
X139188615Y-86317833D01*
X139109389Y-86126564D01*
X139069000Y-85923516D01*
X139069000Y-85716484D01*
X139109389Y-85513436D01*
X139188615Y-85322167D01*
X139303635Y-85150027D01*
X139450027Y-85003635D01*
X139622165Y-84888616D01*
X139622167Y-84888615D01*
X139813436Y-84809389D01*
X140016484Y-84769000D01*
X140223516Y-84769000D01*
X140426564Y-84809389D01*
G37*
G36*
X123106564Y-82489389D02*
G01*
X123297833Y-82568615D01*
X123297835Y-82568616D01*
X123469973Y-82683635D01*
X123616365Y-82830027D01*
X123731385Y-83002167D01*
X123810611Y-83193436D01*
X123851000Y-83396484D01*
X123851000Y-83603516D01*
X123810611Y-83806564D01*
X123731385Y-83997833D01*
X123731384Y-83997835D01*
X123616365Y-84169973D01*
X123469973Y-84316365D01*
X123297835Y-84431384D01*
X123297834Y-84431385D01*
X123297833Y-84431385D01*
X123106564Y-84510611D01*
X122903516Y-84551000D01*
X122696484Y-84551000D01*
X122493436Y-84510611D01*
X122302167Y-84431385D01*
X122302166Y-84431385D01*
X122302165Y-84431384D01*
X122130027Y-84316365D01*
X121983635Y-84169973D01*
X121868616Y-83997835D01*
X121868615Y-83997833D01*
X121789389Y-83806564D01*
X121749000Y-83603516D01*
X121749000Y-83396484D01*
X121789389Y-83193436D01*
X121868615Y-83002167D01*
X121983635Y-82830027D01*
X122130027Y-82683635D01*
X122302165Y-82568616D01*
X122302167Y-82568615D01*
X122493436Y-82489389D01*
X122696484Y-82449000D01*
X122903516Y-82449000D01*
X123106564Y-82489389D01*
G37*
G36*
X130401000Y-82966000D02*
G01*
X127479000Y-82966000D01*
X127479000Y-81294000D01*
X130401000Y-81294000D01*
X130401000Y-82966000D01*
G37*
G36*
X136721000Y-82966000D02*
G01*
X133799000Y-82966000D01*
X133799000Y-81294000D01*
X136721000Y-81294000D01*
X136721000Y-82966000D01*
G37*
G36*
X140426564Y-79729389D02*
G01*
X140617833Y-79808615D01*
X140617835Y-79808616D01*
X140789973Y-79923635D01*
X140936365Y-80070027D01*
X141051385Y-80242167D01*
X141130611Y-80433436D01*
X141171000Y-80636484D01*
X141171000Y-80843516D01*
X141130611Y-81046564D01*
X141051385Y-81237833D01*
X141051384Y-81237835D01*
X140936365Y-81409973D01*
X140789973Y-81556365D01*
X140617835Y-81671384D01*
X140617834Y-81671385D01*
X140617833Y-81671385D01*
X140426564Y-81750611D01*
X140223516Y-81791000D01*
X140016484Y-81791000D01*
X139813436Y-81750611D01*
X139622167Y-81671385D01*
X139622166Y-81671385D01*
X139622165Y-81671384D01*
X139450027Y-81556365D01*
X139303635Y-81409973D01*
X139188616Y-81237835D01*
X139188615Y-81237833D01*
X139109389Y-81046564D01*
X139069000Y-80843516D01*
X139069000Y-80636484D01*
X139109389Y-80433436D01*
X139188615Y-80242167D01*
X139303635Y-80070027D01*
X139450027Y-79923635D01*
X139622165Y-79808616D01*
X139622167Y-79808615D01*
X139813436Y-79729389D01*
X140016484Y-79689000D01*
X140223516Y-79689000D01*
X140426564Y-79729389D01*
G37*
G36*
X123106564Y-77489389D02*
G01*
X123297833Y-77568615D01*
X123297835Y-77568616D01*
X123469973Y-77683635D01*
X123616365Y-77830027D01*
X123658734Y-77893436D01*
X123731385Y-78002167D01*
X123810611Y-78193436D01*
X123851000Y-78396484D01*
X123851000Y-78603516D01*
X123810611Y-78806564D01*
X123784346Y-78869973D01*
X123731384Y-78997835D01*
X123616365Y-79169973D01*
X123469973Y-79316365D01*
X123297835Y-79431384D01*
X123297834Y-79431385D01*
X123297833Y-79431385D01*
X123106564Y-79510611D01*
X122903516Y-79551000D01*
X122696484Y-79551000D01*
X122493436Y-79510611D01*
X122302167Y-79431385D01*
X122302166Y-79431385D01*
X122302165Y-79431384D01*
X122130027Y-79316365D01*
X121983635Y-79169973D01*
X121868616Y-78997835D01*
X121815654Y-78869973D01*
X121789389Y-78806564D01*
X121749000Y-78603516D01*
X121749000Y-78396484D01*
X121789389Y-78193436D01*
X121868615Y-78002167D01*
X121941267Y-77893436D01*
X121983635Y-77830027D01*
X122130027Y-77683635D01*
X122302165Y-77568616D01*
X122302167Y-77568615D01*
X122493436Y-77489389D01*
X122696484Y-77449000D01*
X122903516Y-77449000D01*
X123106564Y-77489389D01*
G37*
G36*
X175986564Y-77189389D02*
G01*
X176177833Y-77268615D01*
X176177835Y-77268616D01*
X176349973Y-77383635D01*
X176496365Y-77530027D01*
X176599003Y-77683635D01*
X176611385Y-77702167D01*
X176690611Y-77893436D01*
X176731000Y-78096484D01*
X176731000Y-78303516D01*
X176690611Y-78506564D01*
X176650453Y-78603514D01*
X176611384Y-78697835D01*
X176496365Y-78869973D01*
X176349973Y-79016365D01*
X176177835Y-79131384D01*
X176177834Y-79131385D01*
X176177833Y-79131385D01*
X175986564Y-79210611D01*
X175783516Y-79251000D01*
X175576484Y-79251000D01*
X175373436Y-79210611D01*
X175182167Y-79131385D01*
X175182166Y-79131385D01*
X175182165Y-79131384D01*
X175010027Y-79016365D01*
X174863635Y-78869973D01*
X174748616Y-78697835D01*
X174709547Y-78603514D01*
X174669389Y-78506564D01*
X174629000Y-78303516D01*
X174629000Y-78096484D01*
X174669389Y-77893436D01*
X174748615Y-77702167D01*
X174760998Y-77683635D01*
X174863635Y-77530027D01*
X175010027Y-77383635D01*
X175182165Y-77268616D01*
X175182167Y-77268615D01*
X175373436Y-77189389D01*
X175576484Y-77149000D01*
X175783516Y-77149000D01*
X175986564Y-77189389D01*
G37*
G36*
X122835787Y-67085462D02*
G01*
X123025068Y-67163865D01*
X123482029Y-67353144D01*
X124063631Y-67741758D01*
X124558242Y-68236369D01*
X124946856Y-68817971D01*
X125059948Y-69091000D01*
X125214538Y-69464213D01*
X125351000Y-70150256D01*
X125351000Y-70849744D01*
X125214538Y-71535787D01*
X125191829Y-71590611D01*
X124946856Y-72182029D01*
X124558242Y-72763631D01*
X124063631Y-73258242D01*
X123482029Y-73646856D01*
X123025068Y-73836135D01*
X122835787Y-73914538D01*
X122149744Y-74051000D01*
X121450256Y-74051000D01*
X120764213Y-73914538D01*
X120574932Y-73836135D01*
X120117971Y-73646856D01*
X119536369Y-73258242D01*
X119041758Y-72763631D01*
X118653144Y-72182029D01*
X118408171Y-71590611D01*
X118385462Y-71535787D01*
X118249000Y-70849744D01*
X118249000Y-70150256D01*
X118385462Y-69464213D01*
X118540052Y-69091000D01*
X118653144Y-68817971D01*
X119041758Y-68236369D01*
X119536369Y-67741758D01*
X120117971Y-67353144D01*
X120574932Y-67163865D01*
X120764213Y-67085462D01*
X121450256Y-66949000D01*
X122149744Y-66949000D01*
X122835787Y-67085462D01*
G37*
G36*
X132327290Y-71025619D02*
G01*
X132391689Y-71038429D01*
X132573678Y-71113811D01*
X132737463Y-71223249D01*
X132876751Y-71362537D01*
X132986189Y-71526322D01*
X133061571Y-71708311D01*
X133061571Y-71708312D01*
X133100000Y-71901507D01*
X133100000Y-72098493D01*
X133074381Y-72227290D01*
X133061571Y-72291689D01*
X132986189Y-72473678D01*
X132876751Y-72637463D01*
X132737463Y-72776751D01*
X132573678Y-72886189D01*
X132391689Y-72961571D01*
X132327290Y-72974381D01*
X132198493Y-73000000D01*
X132001507Y-73000000D01*
X131872710Y-72974381D01*
X131808311Y-72961571D01*
X131626322Y-72886189D01*
X131462537Y-72776751D01*
X131323249Y-72637463D01*
X131213811Y-72473678D01*
X131138429Y-72291689D01*
X131125619Y-72227290D01*
X131100000Y-72098493D01*
X131100000Y-71901507D01*
X131138429Y-71708312D01*
X131138429Y-71708311D01*
X131213811Y-71526322D01*
X131323249Y-71362537D01*
X131462537Y-71223249D01*
X131626322Y-71113811D01*
X131808311Y-71038429D01*
X131872710Y-71025619D01*
X132001507Y-71000000D01*
X132198493Y-71000000D01*
X132327290Y-71025619D01*
G37*
G36*
X140426564Y-69569389D02*
G01*
X140617833Y-69648615D01*
X140617835Y-69648616D01*
X140789973Y-69763635D01*
X140936365Y-69910027D01*
X141051385Y-70082167D01*
X141130611Y-70273436D01*
X141171000Y-70476484D01*
X141171000Y-70683516D01*
X141130611Y-70886564D01*
X141051385Y-71077833D01*
X141051384Y-71077835D01*
X140936365Y-71249973D01*
X140789973Y-71396365D01*
X140617835Y-71511384D01*
X140617834Y-71511385D01*
X140617833Y-71511385D01*
X140426564Y-71590611D01*
X140223516Y-71631000D01*
X140016484Y-71631000D01*
X139813436Y-71590611D01*
X139622167Y-71511385D01*
X139622166Y-71511385D01*
X139622165Y-71511384D01*
X139450027Y-71396365D01*
X139303635Y-71249973D01*
X139188616Y-71077835D01*
X139188615Y-71077833D01*
X139109389Y-70886564D01*
X139069000Y-70683516D01*
X139069000Y-70476484D01*
X139109389Y-70273436D01*
X139188615Y-70082167D01*
X139303635Y-69910027D01*
X139450027Y-69763635D01*
X139622165Y-69648616D01*
X139622167Y-69648615D01*
X139813436Y-69569389D01*
X140016484Y-69529000D01*
X140223516Y-69529000D01*
X140426564Y-69569389D01*
G37*
G36*
X136721000Y-69506000D02*
G01*
X133799000Y-69506000D01*
X133799000Y-67834000D01*
X136721000Y-67834000D01*
X136721000Y-69506000D01*
G37*
G36*
X130401000Y-69506000D02*
G01*
X127479000Y-69506000D01*
X127479000Y-67834000D01*
X130401000Y-67834000D01*
X130401000Y-69506000D01*
G37*
G36*
X175986564Y-67029389D02*
G01*
X176177833Y-67108615D01*
X176177835Y-67108616D01*
X176349973Y-67223635D01*
X176496365Y-67370027D01*
X176611385Y-67542167D01*
X176690611Y-67733436D01*
X176731000Y-67936484D01*
X176731000Y-68143516D01*
X176690611Y-68346564D01*
X176611385Y-68537833D01*
X176611384Y-68537835D01*
X176496365Y-68709973D01*
X176349973Y-68856365D01*
X176177835Y-68971384D01*
X176177834Y-68971385D01*
X176177833Y-68971385D01*
X175986564Y-69050611D01*
X175783516Y-69091000D01*
X175576484Y-69091000D01*
X175373436Y-69050611D01*
X175182167Y-68971385D01*
X175182166Y-68971385D01*
X175182165Y-68971384D01*
X175010027Y-68856365D01*
X174863635Y-68709973D01*
X174748616Y-68537835D01*
X174748615Y-68537833D01*
X174669389Y-68346564D01*
X174629000Y-68143516D01*
X174629000Y-67936484D01*
X174669389Y-67733436D01*
X174748615Y-67542167D01*
X174863635Y-67370027D01*
X175010027Y-67223635D01*
X175182165Y-67108616D01*
X175182167Y-67108615D01*
X175373436Y-67029389D01*
X175576484Y-66989000D01*
X175783516Y-66989000D01*
X175986564Y-67029389D01*
G37*
M02*
