M48
INCH
T1C0.0130
T2C0.0429
T3C0.0470
T4C0.0472
T5C0.1654
%
G90
G05
T1
X047067Y-042520
X047067Y-045669
X047539Y-044321
X047756Y-030315
X047756Y-034252
X048150Y-043465
X048543Y-045669
X048937Y-030315
X048937Y-034252
X049232Y-042520
X049307Y-041644
X049331Y-045669
X050764Y-027756
X051339Y-048939
X051433Y-037244
X051433Y-041644
X051890Y-052303
X052008Y-027035
X052018Y-049409
X052244Y-045600
X052244Y-048100
X052244Y-048600
X052441Y-038583
X052441Y-041732
X052480Y-051280
X052963Y-044646
X053252Y-027756
X053346Y-040728
X053819Y-051280
X054035Y-038484
X054035Y-038957
X054035Y-039429
X054035Y-039902
X054035Y-040374
X054173Y-041732
X054331Y-042913
X054409Y-052303
X054518Y-050177
X054575Y-031197
X054575Y-032378
X054724Y-041732
X054911Y-044646
X054921Y-036693
X055118Y-037913
X055118Y-042913
X055512Y-040394
X055630Y-045600
X056043Y-045118
X056299Y-041732
X056299Y-048031
X056496Y-049500
X056496Y-050177
X056850Y-039055
X057047Y-048760
X057165Y-050728
X057185Y-037283
X057283Y-043110
X057480Y-046850
X057776Y-044646
X058110Y-051181
X058465Y-049429
X058465Y-050177
X058661Y-048031
X059476Y-038780
X059488Y-047441
X059488Y-050984
X059843Y-042126
X060039Y-036693
X060209Y-038780
X060827Y-045118
X060827Y-046949
X060827Y-048031
X060827Y-048819
X060827Y-049606
X060827Y-050394
X060827Y-051898
X060827Y-054161
X061417Y-040020
X062441Y-036890
X062441Y-037677
X062992Y-038189
X062992Y-039193
X062992Y-043327
X062992Y-047461
X062992Y-051594
X063937Y-038189
X063976Y-041673
X063976Y-045807
X063976Y-049941
X063976Y-054075
X065748Y-038189
X066929Y-036378
X066929Y-038189
X068563Y-040020
X068563Y-041398
X068563Y-044154
X068563Y-045531
X068563Y-048287
X068563Y-049665
X068563Y-052421
X068563Y-053799
X068575Y-030197
X068575Y-031378
X068575Y-034197
X068575Y-035378
T2
X047634Y-047425
X047634Y-049425
X049634Y-047425
X049634Y-048425
X049634Y-049425
T3
X048346Y-030906
X048346Y-032874
X048346Y-034843
T4
X055165Y-027787
X055165Y-031787
X055165Y-033787
X069165Y-026787
X069165Y-030787
X069165Y-034787
X067874Y-051732
X067874Y-053110
X067874Y-054488
X067874Y-039331
X067874Y-040709
X067874Y-042087
X067874Y-047598
X067874Y-048976
X067874Y-050354
X067874Y-043465
X067874Y-044843
X067874Y-046220
T5
X047953Y-053425
X047953Y-027756
T0
M30
