G04 #@! TF.GenerationSoftware,KiCad,Pcbnew,5.1.6-c6e7f7d~86~ubuntu18.04.1*
G04 #@! TF.CreationDate,2020-06-26T16:23:30-07:00*
G04 #@! TF.ProjectId,VehicleAccessoryController,56656869-636c-4654-9163-636573736f72,1.0*
G04 #@! TF.SameCoordinates,Original*
G04 #@! TF.FileFunction,Copper,L3,Inr*
G04 #@! TF.FilePolarity,Positive*
%FSLAX46Y46*%
G04 Gerber Fmt 4.6, Leading zero omitted, Abs format (unit mm)*
G04 Created by KiCad (PCBNEW 5.1.6-c6e7f7d~86~ubuntu18.04.1) date 2020-06-26 16:23:30*
%MOMM*%
%LPD*%
G01*
G04 APERTURE LIST*
G04 #@! TA.AperFunction,ViaPad*
%ADD10C,2.000000*%
G04 #@! TD*
G04 #@! TA.AperFunction,WasherPad*
%ADD11C,1.200000*%
G04 #@! TD*
G04 #@! TA.AperFunction,ViaPad*
%ADD12C,1.900000*%
G04 #@! TD*
G04 #@! TA.AperFunction,ViaPad*
%ADD13C,7.000000*%
G04 #@! TD*
G04 #@! TA.AperFunction,ViaPad*
%ADD14C,0.685800*%
G04 #@! TD*
G04 #@! TA.AperFunction,Conductor*
%ADD15C,0.254000*%
G04 #@! TD*
G04 APERTURE END LIST*
D10*
X140120000Y-70580000D03*
X140120000Y-80740000D03*
X140120000Y-85820000D03*
X175680000Y-88360000D03*
X175680000Y-78200000D03*
X175680000Y-68040000D03*
X122800000Y-88500000D03*
X122800000Y-78500000D03*
X122800000Y-83500000D03*
D11*
X148200000Y-134820000D03*
X143800000Y-134820000D03*
D12*
X120990000Y-125540000D03*
X120990000Y-120460000D03*
X126070000Y-125540000D03*
X126070000Y-123000000D03*
X126070000Y-120460000D03*
X172400000Y-99900000D03*
X172400000Y-103400000D03*
X172400000Y-106900000D03*
X172400000Y-110400000D03*
X172400000Y-113900000D03*
X172400000Y-117400000D03*
X172400000Y-120900000D03*
X172400000Y-124400000D03*
X172400000Y-127900000D03*
X172400000Y-131400000D03*
X172400000Y-134900000D03*
X172400000Y-138400000D03*
D13*
X121800000Y-70500000D03*
X121800000Y-135700000D03*
D14*
X125300000Y-116000000D03*
X122300000Y-110400000D03*
X120750000Y-112575000D03*
X125050000Y-108000000D03*
X125240000Y-105775000D03*
X138620000Y-79240000D03*
X138620000Y-82240000D03*
X124300000Y-87000000D03*
X121300000Y-87000000D03*
X174180000Y-86860000D03*
X174180000Y-89860000D03*
X170000000Y-97000000D03*
X167000000Y-97000000D03*
X158600000Y-93700000D03*
X162500000Y-105850000D03*
X162500000Y-116350000D03*
X162500000Y-126850000D03*
X162500000Y-137350000D03*
X141000000Y-102600000D03*
X156000000Y-101650000D03*
X143000000Y-106100000D03*
X130640000Y-105775000D03*
X138000000Y-109000000D03*
X132125000Y-125500000D03*
X132700000Y-122175000D03*
X130640000Y-94600000D03*
X139000000Y-106000000D03*
X134525000Y-113400000D03*
X174180000Y-79700000D03*
X174180000Y-76700000D03*
X140000000Y-96300000D03*
X152500000Y-93200000D03*
X139500000Y-93200000D03*
X123300000Y-116000000D03*
X119550000Y-108000000D03*
X132100000Y-68670000D03*
X128940000Y-70500000D03*
X135260000Y-70500000D03*
X121300000Y-77000000D03*
X124300000Y-77000000D03*
X143500000Y-127450000D03*
X151100000Y-120500000D03*
X147600000Y-130000000D03*
X154500000Y-131820000D03*
X154500000Y-137570000D03*
X154500000Y-128000000D03*
X154500000Y-126000000D03*
X154500000Y-124000000D03*
X154500000Y-122000000D03*
X143000000Y-122000000D03*
X154500000Y-119250000D03*
X143500000Y-125730000D03*
X139475000Y-113400000D03*
X146000000Y-119000000D03*
X151100000Y-129500000D03*
X149000000Y-122000000D03*
X131800000Y-132850000D03*
X138200000Y-132850000D03*
X138475000Y-127450000D03*
X141300000Y-115825000D03*
X154500000Y-114600000D03*
X146750000Y-113400000D03*
X136700000Y-130250000D03*
X142350000Y-114600000D03*
X133300000Y-130250000D03*
X144900000Y-123850000D03*
X148500000Y-127450000D03*
X145200000Y-128850000D03*
X148500000Y-125550000D03*
X170000000Y-92400000D03*
X119550000Y-116000000D03*
X145250000Y-94700000D03*
X137250000Y-102550000D03*
X160000000Y-99550000D03*
X137250000Y-97750000D03*
X160000000Y-110050000D03*
X137250000Y-101350000D03*
X160000000Y-120550000D03*
X137250000Y-100150000D03*
X137250000Y-98950000D03*
X160000000Y-131050000D03*
X133200000Y-106000000D03*
X137600000Y-106000000D03*
X132700000Y-123445000D03*
X133200000Y-98000000D03*
X158600000Y-95700000D03*
X151070000Y-98500000D03*
X144400000Y-99200000D03*
X160000000Y-97000000D03*
X162400000Y-97000000D03*
X140000000Y-109000000D03*
X152930000Y-98500000D03*
X135500000Y-103450000D03*
X130400000Y-124305000D03*
X152000000Y-107000000D03*
X145500000Y-109500000D03*
D15*
G36*
X177255665Y-66218863D02*
G01*
X177309214Y-66235030D01*
X177358597Y-66261288D01*
X177401945Y-66296641D01*
X177437600Y-66339740D01*
X177464201Y-66388937D01*
X177480742Y-66442375D01*
X177490000Y-66530455D01*
X177490001Y-139665269D01*
X177481138Y-139755664D01*
X177464970Y-139809214D01*
X177438712Y-139858597D01*
X177403357Y-139901947D01*
X177360261Y-139937599D01*
X177311063Y-139964201D01*
X177257625Y-139980742D01*
X177169545Y-139990000D01*
X158287000Y-139990000D01*
X158287000Y-138243891D01*
X170815000Y-138243891D01*
X170815000Y-138556109D01*
X170875911Y-138862327D01*
X170995391Y-139150779D01*
X171168850Y-139410379D01*
X171389621Y-139631150D01*
X171649221Y-139804609D01*
X171937673Y-139924089D01*
X172243891Y-139985000D01*
X172556109Y-139985000D01*
X172862327Y-139924089D01*
X173150779Y-139804609D01*
X173410379Y-139631150D01*
X173631150Y-139410379D01*
X173804609Y-139150779D01*
X173924089Y-138862327D01*
X173985000Y-138556109D01*
X173985000Y-138243891D01*
X173924089Y-137937673D01*
X173804609Y-137649221D01*
X173631150Y-137389621D01*
X173410379Y-137168850D01*
X173150779Y-136995391D01*
X172862327Y-136875911D01*
X172556109Y-136815000D01*
X172243891Y-136815000D01*
X171937673Y-136875911D01*
X171649221Y-136995391D01*
X171389621Y-137168850D01*
X171168850Y-137389621D01*
X170995391Y-137649221D01*
X170875911Y-137937673D01*
X170815000Y-138243891D01*
X158287000Y-138243891D01*
X158287000Y-134743891D01*
X170815000Y-134743891D01*
X170815000Y-135056109D01*
X170875911Y-135362327D01*
X170995391Y-135650779D01*
X171168850Y-135910379D01*
X171389621Y-136131150D01*
X171649221Y-136304609D01*
X171937673Y-136424089D01*
X172243891Y-136485000D01*
X172556109Y-136485000D01*
X172862327Y-136424089D01*
X173150779Y-136304609D01*
X173410379Y-136131150D01*
X173631150Y-135910379D01*
X173804609Y-135650779D01*
X173924089Y-135362327D01*
X173985000Y-135056109D01*
X173985000Y-134743891D01*
X173924089Y-134437673D01*
X173804609Y-134149221D01*
X173631150Y-133889621D01*
X173410379Y-133668850D01*
X173150779Y-133495391D01*
X172862327Y-133375911D01*
X172556109Y-133315000D01*
X172243891Y-133315000D01*
X171937673Y-133375911D01*
X171649221Y-133495391D01*
X171389621Y-133668850D01*
X171168850Y-133889621D01*
X170995391Y-134149221D01*
X170875911Y-134437673D01*
X170815000Y-134743891D01*
X158287000Y-134743891D01*
X158287000Y-132499752D01*
X171479853Y-132499752D01*
X171569579Y-132759042D01*
X171850671Y-132894935D01*
X172152873Y-132973379D01*
X172464573Y-132991359D01*
X172773791Y-132948184D01*
X173068644Y-132845513D01*
X173230421Y-132759042D01*
X173320147Y-132499752D01*
X172400000Y-131579605D01*
X171479853Y-132499752D01*
X158287000Y-132499752D01*
X158287000Y-130953685D01*
X159022100Y-130953685D01*
X159022100Y-131146315D01*
X159059680Y-131335243D01*
X159133396Y-131513210D01*
X159240415Y-131673375D01*
X159376625Y-131809585D01*
X159536790Y-131916604D01*
X159714757Y-131990320D01*
X159903685Y-132027900D01*
X160096315Y-132027900D01*
X160285243Y-131990320D01*
X160463210Y-131916604D01*
X160623375Y-131809585D01*
X160759585Y-131673375D01*
X160866604Y-131513210D01*
X160886750Y-131464573D01*
X170808641Y-131464573D01*
X170851816Y-131773791D01*
X170954487Y-132068644D01*
X171040958Y-132230421D01*
X171300248Y-132320147D01*
X172220395Y-131400000D01*
X172579605Y-131400000D01*
X173499752Y-132320147D01*
X173759042Y-132230421D01*
X173894935Y-131949329D01*
X173973379Y-131647127D01*
X173991359Y-131335427D01*
X173948184Y-131026209D01*
X173845513Y-130731356D01*
X173759042Y-130569579D01*
X173499752Y-130479853D01*
X172579605Y-131400000D01*
X172220395Y-131400000D01*
X171300248Y-130479853D01*
X171040958Y-130569579D01*
X170905065Y-130850671D01*
X170826621Y-131152873D01*
X170808641Y-131464573D01*
X160886750Y-131464573D01*
X160940320Y-131335243D01*
X160977900Y-131146315D01*
X160977900Y-130953685D01*
X160940320Y-130764757D01*
X160866604Y-130586790D01*
X160759585Y-130426625D01*
X160633208Y-130300248D01*
X171479853Y-130300248D01*
X172400000Y-131220395D01*
X173320147Y-130300248D01*
X173230421Y-130040958D01*
X172949329Y-129905065D01*
X172647127Y-129826621D01*
X172335427Y-129808641D01*
X172026209Y-129851816D01*
X171731356Y-129954487D01*
X171569579Y-130040958D01*
X171479853Y-130300248D01*
X160633208Y-130300248D01*
X160623375Y-130290415D01*
X160463210Y-130183396D01*
X160285243Y-130109680D01*
X160096315Y-130072100D01*
X159903685Y-130072100D01*
X159714757Y-130109680D01*
X159536790Y-130183396D01*
X159376625Y-130290415D01*
X159240415Y-130426625D01*
X159133396Y-130586790D01*
X159059680Y-130764757D01*
X159022100Y-130953685D01*
X158287000Y-130953685D01*
X158287000Y-127743891D01*
X170815000Y-127743891D01*
X170815000Y-128056109D01*
X170875911Y-128362327D01*
X170995391Y-128650779D01*
X171168850Y-128910379D01*
X171389621Y-129131150D01*
X171649221Y-129304609D01*
X171937673Y-129424089D01*
X172243891Y-129485000D01*
X172556109Y-129485000D01*
X172862327Y-129424089D01*
X173150779Y-129304609D01*
X173410379Y-129131150D01*
X173631150Y-128910379D01*
X173804609Y-128650779D01*
X173924089Y-128362327D01*
X173985000Y-128056109D01*
X173985000Y-127743891D01*
X173924089Y-127437673D01*
X173804609Y-127149221D01*
X173631150Y-126889621D01*
X173410379Y-126668850D01*
X173150779Y-126495391D01*
X172862327Y-126375911D01*
X172556109Y-126315000D01*
X172243891Y-126315000D01*
X171937673Y-126375911D01*
X171649221Y-126495391D01*
X171389621Y-126668850D01*
X171168850Y-126889621D01*
X170995391Y-127149221D01*
X170875911Y-127437673D01*
X170815000Y-127743891D01*
X158287000Y-127743891D01*
X158287000Y-124243891D01*
X170815000Y-124243891D01*
X170815000Y-124556109D01*
X170875911Y-124862327D01*
X170995391Y-125150779D01*
X171168850Y-125410379D01*
X171389621Y-125631150D01*
X171649221Y-125804609D01*
X171937673Y-125924089D01*
X172243891Y-125985000D01*
X172556109Y-125985000D01*
X172862327Y-125924089D01*
X173150779Y-125804609D01*
X173410379Y-125631150D01*
X173631150Y-125410379D01*
X173804609Y-125150779D01*
X173924089Y-124862327D01*
X173985000Y-124556109D01*
X173985000Y-124243891D01*
X173924089Y-123937673D01*
X173804609Y-123649221D01*
X173631150Y-123389621D01*
X173410379Y-123168850D01*
X173150779Y-122995391D01*
X172862327Y-122875911D01*
X172556109Y-122815000D01*
X172243891Y-122815000D01*
X171937673Y-122875911D01*
X171649221Y-122995391D01*
X171389621Y-123168850D01*
X171168850Y-123389621D01*
X170995391Y-123649221D01*
X170875911Y-123937673D01*
X170815000Y-124243891D01*
X158287000Y-124243891D01*
X158287000Y-121999752D01*
X171479853Y-121999752D01*
X171569579Y-122259042D01*
X171850671Y-122394935D01*
X172152873Y-122473379D01*
X172464573Y-122491359D01*
X172773791Y-122448184D01*
X173068644Y-122345513D01*
X173230421Y-122259042D01*
X173320147Y-121999752D01*
X172400000Y-121079605D01*
X171479853Y-121999752D01*
X158287000Y-121999752D01*
X158287000Y-120453685D01*
X159022100Y-120453685D01*
X159022100Y-120646315D01*
X159059680Y-120835243D01*
X159133396Y-121013210D01*
X159240415Y-121173375D01*
X159376625Y-121309585D01*
X159536790Y-121416604D01*
X159714757Y-121490320D01*
X159903685Y-121527900D01*
X160096315Y-121527900D01*
X160285243Y-121490320D01*
X160463210Y-121416604D01*
X160623375Y-121309585D01*
X160759585Y-121173375D01*
X160866604Y-121013210D01*
X160886750Y-120964573D01*
X170808641Y-120964573D01*
X170851816Y-121273791D01*
X170954487Y-121568644D01*
X171040958Y-121730421D01*
X171300248Y-121820147D01*
X172220395Y-120900000D01*
X172579605Y-120900000D01*
X173499752Y-121820147D01*
X173759042Y-121730421D01*
X173894935Y-121449329D01*
X173973379Y-121147127D01*
X173991359Y-120835427D01*
X173948184Y-120526209D01*
X173845513Y-120231356D01*
X173759042Y-120069579D01*
X173499752Y-119979853D01*
X172579605Y-120900000D01*
X172220395Y-120900000D01*
X171300248Y-119979853D01*
X171040958Y-120069579D01*
X170905065Y-120350671D01*
X170826621Y-120652873D01*
X170808641Y-120964573D01*
X160886750Y-120964573D01*
X160940320Y-120835243D01*
X160977900Y-120646315D01*
X160977900Y-120453685D01*
X160940320Y-120264757D01*
X160866604Y-120086790D01*
X160759585Y-119926625D01*
X160633208Y-119800248D01*
X171479853Y-119800248D01*
X172400000Y-120720395D01*
X173320147Y-119800248D01*
X173230421Y-119540958D01*
X172949329Y-119405065D01*
X172647127Y-119326621D01*
X172335427Y-119308641D01*
X172026209Y-119351816D01*
X171731356Y-119454487D01*
X171569579Y-119540958D01*
X171479853Y-119800248D01*
X160633208Y-119800248D01*
X160623375Y-119790415D01*
X160463210Y-119683396D01*
X160285243Y-119609680D01*
X160096315Y-119572100D01*
X159903685Y-119572100D01*
X159714757Y-119609680D01*
X159536790Y-119683396D01*
X159376625Y-119790415D01*
X159240415Y-119926625D01*
X159133396Y-120086790D01*
X159059680Y-120264757D01*
X159022100Y-120453685D01*
X158287000Y-120453685D01*
X158287000Y-117243891D01*
X170815000Y-117243891D01*
X170815000Y-117556109D01*
X170875911Y-117862327D01*
X170995391Y-118150779D01*
X171168850Y-118410379D01*
X171389621Y-118631150D01*
X171649221Y-118804609D01*
X171937673Y-118924089D01*
X172243891Y-118985000D01*
X172556109Y-118985000D01*
X172862327Y-118924089D01*
X173150779Y-118804609D01*
X173410379Y-118631150D01*
X173631150Y-118410379D01*
X173804609Y-118150779D01*
X173924089Y-117862327D01*
X173985000Y-117556109D01*
X173985000Y-117243891D01*
X173924089Y-116937673D01*
X173804609Y-116649221D01*
X173631150Y-116389621D01*
X173410379Y-116168850D01*
X173150779Y-115995391D01*
X172862327Y-115875911D01*
X172556109Y-115815000D01*
X172243891Y-115815000D01*
X171937673Y-115875911D01*
X171649221Y-115995391D01*
X171389621Y-116168850D01*
X171168850Y-116389621D01*
X170995391Y-116649221D01*
X170875911Y-116937673D01*
X170815000Y-117243891D01*
X158287000Y-117243891D01*
X158287000Y-113743891D01*
X170815000Y-113743891D01*
X170815000Y-114056109D01*
X170875911Y-114362327D01*
X170995391Y-114650779D01*
X171168850Y-114910379D01*
X171389621Y-115131150D01*
X171649221Y-115304609D01*
X171937673Y-115424089D01*
X172243891Y-115485000D01*
X172556109Y-115485000D01*
X172862327Y-115424089D01*
X173150779Y-115304609D01*
X173410379Y-115131150D01*
X173631150Y-114910379D01*
X173804609Y-114650779D01*
X173924089Y-114362327D01*
X173985000Y-114056109D01*
X173985000Y-113743891D01*
X173924089Y-113437673D01*
X173804609Y-113149221D01*
X173631150Y-112889621D01*
X173410379Y-112668850D01*
X173150779Y-112495391D01*
X172862327Y-112375911D01*
X172556109Y-112315000D01*
X172243891Y-112315000D01*
X171937673Y-112375911D01*
X171649221Y-112495391D01*
X171389621Y-112668850D01*
X171168850Y-112889621D01*
X170995391Y-113149221D01*
X170875911Y-113437673D01*
X170815000Y-113743891D01*
X158287000Y-113743891D01*
X158287000Y-111740000D01*
X158284560Y-111715224D01*
X158277333Y-111691399D01*
X158265597Y-111669443D01*
X158249803Y-111650197D01*
X158230557Y-111634403D01*
X158208601Y-111622667D01*
X158184776Y-111615440D01*
X158160000Y-111613000D01*
X136740000Y-111613000D01*
X136715224Y-111615440D01*
X136691399Y-111622667D01*
X136669443Y-111634403D01*
X136650197Y-111650197D01*
X136634403Y-111669443D01*
X136622667Y-111691399D01*
X136615440Y-111715224D01*
X136613000Y-111740000D01*
X136613000Y-127613000D01*
X128387000Y-127613000D01*
X128387000Y-124208685D01*
X129422100Y-124208685D01*
X129422100Y-124401315D01*
X129459680Y-124590243D01*
X129533396Y-124768210D01*
X129640415Y-124928375D01*
X129776625Y-125064585D01*
X129936790Y-125171604D01*
X130114757Y-125245320D01*
X130303685Y-125282900D01*
X130496315Y-125282900D01*
X130685243Y-125245320D01*
X130863210Y-125171604D01*
X131023375Y-125064585D01*
X131159585Y-124928375D01*
X131266604Y-124768210D01*
X131340320Y-124590243D01*
X131377900Y-124401315D01*
X131377900Y-124208685D01*
X131340320Y-124019757D01*
X131266604Y-123841790D01*
X131159585Y-123681625D01*
X131023375Y-123545415D01*
X130863210Y-123438396D01*
X130685243Y-123364680D01*
X130604831Y-123348685D01*
X131722100Y-123348685D01*
X131722100Y-123541315D01*
X131759680Y-123730243D01*
X131833396Y-123908210D01*
X131940415Y-124068375D01*
X132076625Y-124204585D01*
X132236790Y-124311604D01*
X132414757Y-124385320D01*
X132603685Y-124422900D01*
X132796315Y-124422900D01*
X132985243Y-124385320D01*
X133163210Y-124311604D01*
X133323375Y-124204585D01*
X133459585Y-124068375D01*
X133566604Y-123908210D01*
X133640320Y-123730243D01*
X133677900Y-123541315D01*
X133677900Y-123348685D01*
X133640320Y-123159757D01*
X133566604Y-122981790D01*
X133459585Y-122821625D01*
X133323375Y-122685415D01*
X133163210Y-122578396D01*
X132985243Y-122504680D01*
X132796315Y-122467100D01*
X132603685Y-122467100D01*
X132414757Y-122504680D01*
X132236790Y-122578396D01*
X132076625Y-122685415D01*
X131940415Y-122821625D01*
X131833396Y-122981790D01*
X131759680Y-123159757D01*
X131722100Y-123348685D01*
X130604831Y-123348685D01*
X130496315Y-123327100D01*
X130303685Y-123327100D01*
X130114757Y-123364680D01*
X129936790Y-123438396D01*
X129776625Y-123545415D01*
X129640415Y-123681625D01*
X129533396Y-123841790D01*
X129459680Y-124019757D01*
X129422100Y-124208685D01*
X128387000Y-124208685D01*
X128387000Y-111499752D01*
X171479853Y-111499752D01*
X171569579Y-111759042D01*
X171850671Y-111894935D01*
X172152873Y-111973379D01*
X172464573Y-111991359D01*
X172773791Y-111948184D01*
X173068644Y-111845513D01*
X173230421Y-111759042D01*
X173320147Y-111499752D01*
X172400000Y-110579605D01*
X171479853Y-111499752D01*
X128387000Y-111499752D01*
X128387000Y-108903685D01*
X139022100Y-108903685D01*
X139022100Y-109096315D01*
X139059680Y-109285243D01*
X139133396Y-109463210D01*
X139240415Y-109623375D01*
X139376625Y-109759585D01*
X139536790Y-109866604D01*
X139714757Y-109940320D01*
X139903685Y-109977900D01*
X140096315Y-109977900D01*
X140285243Y-109940320D01*
X140463210Y-109866604D01*
X140623375Y-109759585D01*
X140759585Y-109623375D01*
X140866604Y-109463210D01*
X140891259Y-109403685D01*
X144522100Y-109403685D01*
X144522100Y-109596315D01*
X144559680Y-109785243D01*
X144633396Y-109963210D01*
X144740415Y-110123375D01*
X144876625Y-110259585D01*
X145036790Y-110366604D01*
X145214757Y-110440320D01*
X145403685Y-110477900D01*
X145596315Y-110477900D01*
X145785243Y-110440320D01*
X145963210Y-110366604D01*
X146123375Y-110259585D01*
X146259585Y-110123375D01*
X146366604Y-109963210D01*
X146370549Y-109953685D01*
X159022100Y-109953685D01*
X159022100Y-110146315D01*
X159059680Y-110335243D01*
X159133396Y-110513210D01*
X159240415Y-110673375D01*
X159376625Y-110809585D01*
X159536790Y-110916604D01*
X159714757Y-110990320D01*
X159903685Y-111027900D01*
X160096315Y-111027900D01*
X160285243Y-110990320D01*
X160463210Y-110916604D01*
X160623375Y-110809585D01*
X160759585Y-110673375D01*
X160866604Y-110513210D01*
X160886750Y-110464573D01*
X170808641Y-110464573D01*
X170851816Y-110773791D01*
X170954487Y-111068644D01*
X171040958Y-111230421D01*
X171300248Y-111320147D01*
X172220395Y-110400000D01*
X172579605Y-110400000D01*
X173499752Y-111320147D01*
X173759042Y-111230421D01*
X173894935Y-110949329D01*
X173973379Y-110647127D01*
X173991359Y-110335427D01*
X173948184Y-110026209D01*
X173845513Y-109731356D01*
X173759042Y-109569579D01*
X173499752Y-109479853D01*
X172579605Y-110400000D01*
X172220395Y-110400000D01*
X171300248Y-109479853D01*
X171040958Y-109569579D01*
X170905065Y-109850671D01*
X170826621Y-110152873D01*
X170808641Y-110464573D01*
X160886750Y-110464573D01*
X160940320Y-110335243D01*
X160977900Y-110146315D01*
X160977900Y-109953685D01*
X160940320Y-109764757D01*
X160866604Y-109586790D01*
X160759585Y-109426625D01*
X160633208Y-109300248D01*
X171479853Y-109300248D01*
X172400000Y-110220395D01*
X173320147Y-109300248D01*
X173230421Y-109040958D01*
X172949329Y-108905065D01*
X172647127Y-108826621D01*
X172335427Y-108808641D01*
X172026209Y-108851816D01*
X171731356Y-108954487D01*
X171569579Y-109040958D01*
X171479853Y-109300248D01*
X160633208Y-109300248D01*
X160623375Y-109290415D01*
X160463210Y-109183396D01*
X160285243Y-109109680D01*
X160096315Y-109072100D01*
X159903685Y-109072100D01*
X159714757Y-109109680D01*
X159536790Y-109183396D01*
X159376625Y-109290415D01*
X159240415Y-109426625D01*
X159133396Y-109586790D01*
X159059680Y-109764757D01*
X159022100Y-109953685D01*
X146370549Y-109953685D01*
X146440320Y-109785243D01*
X146477900Y-109596315D01*
X146477900Y-109403685D01*
X146440320Y-109214757D01*
X146366604Y-109036790D01*
X146259585Y-108876625D01*
X146123375Y-108740415D01*
X145963210Y-108633396D01*
X145785243Y-108559680D01*
X145596315Y-108522100D01*
X145403685Y-108522100D01*
X145214757Y-108559680D01*
X145036790Y-108633396D01*
X144876625Y-108740415D01*
X144740415Y-108876625D01*
X144633396Y-109036790D01*
X144559680Y-109214757D01*
X144522100Y-109403685D01*
X140891259Y-109403685D01*
X140940320Y-109285243D01*
X140977900Y-109096315D01*
X140977900Y-108903685D01*
X140940320Y-108714757D01*
X140866604Y-108536790D01*
X140759585Y-108376625D01*
X140623375Y-108240415D01*
X140463210Y-108133396D01*
X140285243Y-108059680D01*
X140096315Y-108022100D01*
X139903685Y-108022100D01*
X139714757Y-108059680D01*
X139536790Y-108133396D01*
X139376625Y-108240415D01*
X139240415Y-108376625D01*
X139133396Y-108536790D01*
X139059680Y-108714757D01*
X139022100Y-108903685D01*
X128387000Y-108903685D01*
X128387000Y-105903685D01*
X132222100Y-105903685D01*
X132222100Y-106096315D01*
X132259680Y-106285243D01*
X132333396Y-106463210D01*
X132440415Y-106623375D01*
X132576625Y-106759585D01*
X132736790Y-106866604D01*
X132914757Y-106940320D01*
X133103685Y-106977900D01*
X133296315Y-106977900D01*
X133485243Y-106940320D01*
X133663210Y-106866604D01*
X133823375Y-106759585D01*
X133959585Y-106623375D01*
X134066604Y-106463210D01*
X134140320Y-106285243D01*
X134177900Y-106096315D01*
X134177900Y-105903685D01*
X136622100Y-105903685D01*
X136622100Y-106096315D01*
X136659680Y-106285243D01*
X136733396Y-106463210D01*
X136840415Y-106623375D01*
X136976625Y-106759585D01*
X137136790Y-106866604D01*
X137314757Y-106940320D01*
X137503685Y-106977900D01*
X137696315Y-106977900D01*
X137885243Y-106940320D01*
X137973688Y-106903685D01*
X151022100Y-106903685D01*
X151022100Y-107096315D01*
X151059680Y-107285243D01*
X151133396Y-107463210D01*
X151240415Y-107623375D01*
X151376625Y-107759585D01*
X151536790Y-107866604D01*
X151714757Y-107940320D01*
X151903685Y-107977900D01*
X152096315Y-107977900D01*
X152285243Y-107940320D01*
X152463210Y-107866604D01*
X152623375Y-107759585D01*
X152759585Y-107623375D01*
X152866604Y-107463210D01*
X152940320Y-107285243D01*
X152977900Y-107096315D01*
X152977900Y-106903685D01*
X152946116Y-106743891D01*
X170815000Y-106743891D01*
X170815000Y-107056109D01*
X170875911Y-107362327D01*
X170995391Y-107650779D01*
X171168850Y-107910379D01*
X171389621Y-108131150D01*
X171649221Y-108304609D01*
X171937673Y-108424089D01*
X172243891Y-108485000D01*
X172556109Y-108485000D01*
X172862327Y-108424089D01*
X173150779Y-108304609D01*
X173410379Y-108131150D01*
X173631150Y-107910379D01*
X173804609Y-107650779D01*
X173924089Y-107362327D01*
X173985000Y-107056109D01*
X173985000Y-106743891D01*
X173924089Y-106437673D01*
X173804609Y-106149221D01*
X173631150Y-105889621D01*
X173410379Y-105668850D01*
X173150779Y-105495391D01*
X172862327Y-105375911D01*
X172556109Y-105315000D01*
X172243891Y-105315000D01*
X171937673Y-105375911D01*
X171649221Y-105495391D01*
X171389621Y-105668850D01*
X171168850Y-105889621D01*
X170995391Y-106149221D01*
X170875911Y-106437673D01*
X170815000Y-106743891D01*
X152946116Y-106743891D01*
X152940320Y-106714757D01*
X152866604Y-106536790D01*
X152759585Y-106376625D01*
X152623375Y-106240415D01*
X152463210Y-106133396D01*
X152285243Y-106059680D01*
X152096315Y-106022100D01*
X151903685Y-106022100D01*
X151714757Y-106059680D01*
X151536790Y-106133396D01*
X151376625Y-106240415D01*
X151240415Y-106376625D01*
X151133396Y-106536790D01*
X151059680Y-106714757D01*
X151022100Y-106903685D01*
X137973688Y-106903685D01*
X138063210Y-106866604D01*
X138223375Y-106759585D01*
X138359585Y-106623375D01*
X138466604Y-106463210D01*
X138540320Y-106285243D01*
X138577900Y-106096315D01*
X138577900Y-105903685D01*
X138540320Y-105714757D01*
X138466604Y-105536790D01*
X138359585Y-105376625D01*
X138223375Y-105240415D01*
X138063210Y-105133396D01*
X137885243Y-105059680D01*
X137696315Y-105022100D01*
X137503685Y-105022100D01*
X137314757Y-105059680D01*
X137136790Y-105133396D01*
X136976625Y-105240415D01*
X136840415Y-105376625D01*
X136733396Y-105536790D01*
X136659680Y-105714757D01*
X136622100Y-105903685D01*
X134177900Y-105903685D01*
X134140320Y-105714757D01*
X134066604Y-105536790D01*
X133959585Y-105376625D01*
X133823375Y-105240415D01*
X133663210Y-105133396D01*
X133485243Y-105059680D01*
X133296315Y-105022100D01*
X133103685Y-105022100D01*
X132914757Y-105059680D01*
X132736790Y-105133396D01*
X132576625Y-105240415D01*
X132440415Y-105376625D01*
X132333396Y-105536790D01*
X132259680Y-105714757D01*
X132222100Y-105903685D01*
X128387000Y-105903685D01*
X128387000Y-103353685D01*
X134522100Y-103353685D01*
X134522100Y-103546315D01*
X134559680Y-103735243D01*
X134633396Y-103913210D01*
X134740415Y-104073375D01*
X134876625Y-104209585D01*
X135036790Y-104316604D01*
X135214757Y-104390320D01*
X135403685Y-104427900D01*
X135596315Y-104427900D01*
X135785243Y-104390320D01*
X135963210Y-104316604D01*
X136123375Y-104209585D01*
X136259585Y-104073375D01*
X136366604Y-103913210D01*
X136440320Y-103735243D01*
X136477900Y-103546315D01*
X136477900Y-103353685D01*
X136440320Y-103164757D01*
X136366604Y-102986790D01*
X136259585Y-102826625D01*
X136123375Y-102690415D01*
X135963210Y-102583396D01*
X135785243Y-102509680D01*
X135596315Y-102472100D01*
X135403685Y-102472100D01*
X135214757Y-102509680D01*
X135036790Y-102583396D01*
X134876625Y-102690415D01*
X134740415Y-102826625D01*
X134633396Y-102986790D01*
X134559680Y-103164757D01*
X134522100Y-103353685D01*
X128387000Y-103353685D01*
X128387000Y-97903685D01*
X132222100Y-97903685D01*
X132222100Y-98096315D01*
X132259680Y-98285243D01*
X132333396Y-98463210D01*
X132440415Y-98623375D01*
X132576625Y-98759585D01*
X132736790Y-98866604D01*
X132914757Y-98940320D01*
X133103685Y-98977900D01*
X133296315Y-98977900D01*
X133485243Y-98940320D01*
X133663210Y-98866604D01*
X133823375Y-98759585D01*
X133959585Y-98623375D01*
X134066604Y-98463210D01*
X134140320Y-98285243D01*
X134177900Y-98096315D01*
X134177900Y-97903685D01*
X134140320Y-97714757D01*
X134115024Y-97653685D01*
X136272100Y-97653685D01*
X136272100Y-97846315D01*
X136309680Y-98035243D01*
X136383396Y-98213210D01*
X136474796Y-98350000D01*
X136383396Y-98486790D01*
X136309680Y-98664757D01*
X136272100Y-98853685D01*
X136272100Y-99046315D01*
X136309680Y-99235243D01*
X136383396Y-99413210D01*
X136474796Y-99550000D01*
X136383396Y-99686790D01*
X136309680Y-99864757D01*
X136272100Y-100053685D01*
X136272100Y-100246315D01*
X136309680Y-100435243D01*
X136383396Y-100613210D01*
X136474796Y-100750000D01*
X136383396Y-100886790D01*
X136309680Y-101064757D01*
X136272100Y-101253685D01*
X136272100Y-101446315D01*
X136309680Y-101635243D01*
X136383396Y-101813210D01*
X136474796Y-101950000D01*
X136383396Y-102086790D01*
X136309680Y-102264757D01*
X136272100Y-102453685D01*
X136272100Y-102646315D01*
X136309680Y-102835243D01*
X136383396Y-103013210D01*
X136490415Y-103173375D01*
X136626625Y-103309585D01*
X136786790Y-103416604D01*
X136964757Y-103490320D01*
X137153685Y-103527900D01*
X137346315Y-103527900D01*
X137535243Y-103490320D01*
X137713210Y-103416604D01*
X137873375Y-103309585D01*
X138009585Y-103173375D01*
X138116604Y-103013210D01*
X138190320Y-102835243D01*
X138227900Y-102646315D01*
X138227900Y-102453685D01*
X138190320Y-102264757D01*
X138116604Y-102086790D01*
X138025204Y-101950000D01*
X138116604Y-101813210D01*
X138190320Y-101635243D01*
X138227900Y-101446315D01*
X138227900Y-101253685D01*
X138190320Y-101064757D01*
X138116604Y-100886790D01*
X138025204Y-100750000D01*
X138116604Y-100613210D01*
X138190320Y-100435243D01*
X138227900Y-100246315D01*
X138227900Y-100053685D01*
X138190320Y-99864757D01*
X138116604Y-99686790D01*
X138025204Y-99550000D01*
X138116604Y-99413210D01*
X138190320Y-99235243D01*
X138216488Y-99103685D01*
X143422100Y-99103685D01*
X143422100Y-99296315D01*
X143459680Y-99485243D01*
X143533396Y-99663210D01*
X143640415Y-99823375D01*
X143776625Y-99959585D01*
X143936790Y-100066604D01*
X144114757Y-100140320D01*
X144303685Y-100177900D01*
X144496315Y-100177900D01*
X144685243Y-100140320D01*
X144863210Y-100066604D01*
X144951285Y-100007754D01*
X147640090Y-100007754D01*
X147640090Y-100366246D01*
X147710028Y-100717848D01*
X147847216Y-101049051D01*
X148046383Y-101347125D01*
X148299875Y-101600617D01*
X148465075Y-101711000D01*
X148299875Y-101821383D01*
X148046383Y-102074875D01*
X147847216Y-102372949D01*
X147710028Y-102704152D01*
X147640090Y-103055754D01*
X147640090Y-103414246D01*
X147710028Y-103765848D01*
X147847216Y-104097051D01*
X148046383Y-104395125D01*
X148299875Y-104648617D01*
X148597949Y-104847784D01*
X148929152Y-104984972D01*
X149280754Y-105054910D01*
X149639246Y-105054910D01*
X149859798Y-105011040D01*
X149856240Y-105028925D01*
X149856240Y-105251075D01*
X149899579Y-105468956D01*
X149984592Y-105674195D01*
X150108011Y-105858905D01*
X150265095Y-106015989D01*
X150449805Y-106139408D01*
X150655044Y-106224421D01*
X150872925Y-106267760D01*
X151095075Y-106267760D01*
X151312956Y-106224421D01*
X151518195Y-106139408D01*
X151702905Y-106015989D01*
X151859989Y-105858905D01*
X151983408Y-105674195D01*
X152000000Y-105634138D01*
X152016592Y-105674195D01*
X152140011Y-105858905D01*
X152297095Y-106015989D01*
X152481805Y-106139408D01*
X152687044Y-106224421D01*
X152904925Y-106267760D01*
X153127075Y-106267760D01*
X153344956Y-106224421D01*
X153550195Y-106139408D01*
X153734905Y-106015989D01*
X153891989Y-105858905D01*
X154015408Y-105674195D01*
X154100421Y-105468956D01*
X154143760Y-105251075D01*
X154143760Y-105028925D01*
X154140202Y-105011040D01*
X154360754Y-105054910D01*
X154719246Y-105054910D01*
X155070848Y-104984972D01*
X155402051Y-104847784D01*
X155700125Y-104648617D01*
X155953617Y-104395125D01*
X156152784Y-104097051D01*
X156289972Y-103765848D01*
X156359910Y-103414246D01*
X156359910Y-103243891D01*
X170815000Y-103243891D01*
X170815000Y-103556109D01*
X170875911Y-103862327D01*
X170995391Y-104150779D01*
X171168850Y-104410379D01*
X171389621Y-104631150D01*
X171649221Y-104804609D01*
X171937673Y-104924089D01*
X172243891Y-104985000D01*
X172556109Y-104985000D01*
X172862327Y-104924089D01*
X173150779Y-104804609D01*
X173410379Y-104631150D01*
X173631150Y-104410379D01*
X173804609Y-104150779D01*
X173924089Y-103862327D01*
X173985000Y-103556109D01*
X173985000Y-103243891D01*
X173924089Y-102937673D01*
X173804609Y-102649221D01*
X173631150Y-102389621D01*
X173410379Y-102168850D01*
X173150779Y-101995391D01*
X172862327Y-101875911D01*
X172556109Y-101815000D01*
X172243891Y-101815000D01*
X171937673Y-101875911D01*
X171649221Y-101995391D01*
X171389621Y-102168850D01*
X171168850Y-102389621D01*
X170995391Y-102649221D01*
X170875911Y-102937673D01*
X170815000Y-103243891D01*
X156359910Y-103243891D01*
X156359910Y-103055754D01*
X156289972Y-102704152D01*
X156152784Y-102372949D01*
X155953617Y-102074875D01*
X155700125Y-101821383D01*
X155441034Y-101648263D01*
X155700935Y-101474603D01*
X155954603Y-101220935D01*
X156102392Y-100999752D01*
X171479853Y-100999752D01*
X171569579Y-101259042D01*
X171850671Y-101394935D01*
X172152873Y-101473379D01*
X172464573Y-101491359D01*
X172773791Y-101448184D01*
X173068644Y-101345513D01*
X173230421Y-101259042D01*
X173320147Y-100999752D01*
X172400000Y-100079605D01*
X171479853Y-100999752D01*
X156102392Y-100999752D01*
X156153909Y-100922652D01*
X156291193Y-100591219D01*
X156361180Y-100239371D01*
X156361180Y-99880629D01*
X156291193Y-99528781D01*
X156260088Y-99453685D01*
X159022100Y-99453685D01*
X159022100Y-99646315D01*
X159059680Y-99835243D01*
X159133396Y-100013210D01*
X159240415Y-100173375D01*
X159376625Y-100309585D01*
X159536790Y-100416604D01*
X159714757Y-100490320D01*
X159903685Y-100527900D01*
X160096315Y-100527900D01*
X160285243Y-100490320D01*
X160463210Y-100416604D01*
X160623375Y-100309585D01*
X160759585Y-100173375D01*
X160866604Y-100013210D01*
X160886750Y-99964573D01*
X170808641Y-99964573D01*
X170851816Y-100273791D01*
X170954487Y-100568644D01*
X171040958Y-100730421D01*
X171300248Y-100820147D01*
X172220395Y-99900000D01*
X172579605Y-99900000D01*
X173499752Y-100820147D01*
X173759042Y-100730421D01*
X173894935Y-100449329D01*
X173973379Y-100147127D01*
X173991359Y-99835427D01*
X173948184Y-99526209D01*
X173845513Y-99231356D01*
X173759042Y-99069579D01*
X173499752Y-98979853D01*
X172579605Y-99900000D01*
X172220395Y-99900000D01*
X171300248Y-98979853D01*
X171040958Y-99069579D01*
X170905065Y-99350671D01*
X170826621Y-99652873D01*
X170808641Y-99964573D01*
X160886750Y-99964573D01*
X160940320Y-99835243D01*
X160977900Y-99646315D01*
X160977900Y-99453685D01*
X160940320Y-99264757D01*
X160866604Y-99086790D01*
X160759585Y-98926625D01*
X160633208Y-98800248D01*
X171479853Y-98800248D01*
X172400000Y-99720395D01*
X173320147Y-98800248D01*
X173230421Y-98540958D01*
X172949329Y-98405065D01*
X172647127Y-98326621D01*
X172335427Y-98308641D01*
X172026209Y-98351816D01*
X171731356Y-98454487D01*
X171569579Y-98540958D01*
X171479853Y-98800248D01*
X160633208Y-98800248D01*
X160623375Y-98790415D01*
X160463210Y-98683396D01*
X160285243Y-98609680D01*
X160096315Y-98572100D01*
X159903685Y-98572100D01*
X159714757Y-98609680D01*
X159536790Y-98683396D01*
X159376625Y-98790415D01*
X159240415Y-98926625D01*
X159133396Y-99086790D01*
X159059680Y-99264757D01*
X159022100Y-99453685D01*
X156260088Y-99453685D01*
X156153909Y-99197348D01*
X155954603Y-98899065D01*
X155700935Y-98645397D01*
X155402652Y-98446091D01*
X155071219Y-98308807D01*
X154719371Y-98238820D01*
X154360629Y-98238820D01*
X154008781Y-98308807D01*
X153898143Y-98354635D01*
X153870320Y-98214757D01*
X153796604Y-98036790D01*
X153689585Y-97876625D01*
X153553375Y-97740415D01*
X153393210Y-97633396D01*
X153215243Y-97559680D01*
X153026315Y-97522100D01*
X152833685Y-97522100D01*
X152644757Y-97559680D01*
X152466790Y-97633396D01*
X152306625Y-97740415D01*
X152170415Y-97876625D01*
X152063396Y-98036790D01*
X152000000Y-98189842D01*
X151936604Y-98036790D01*
X151829585Y-97876625D01*
X151693375Y-97740415D01*
X151533210Y-97633396D01*
X151355243Y-97559680D01*
X151166315Y-97522100D01*
X150973685Y-97522100D01*
X150784757Y-97559680D01*
X150606790Y-97633396D01*
X150446625Y-97740415D01*
X150310415Y-97876625D01*
X150203396Y-98036790D01*
X150129680Y-98214757D01*
X150092100Y-98403685D01*
X150092100Y-98478968D01*
X149990848Y-98437028D01*
X149639246Y-98367090D01*
X149280754Y-98367090D01*
X148929152Y-98437028D01*
X148597949Y-98574216D01*
X148299875Y-98773383D01*
X148046383Y-99026875D01*
X147847216Y-99324949D01*
X147710028Y-99656152D01*
X147640090Y-100007754D01*
X144951285Y-100007754D01*
X145023375Y-99959585D01*
X145159585Y-99823375D01*
X145266604Y-99663210D01*
X145340320Y-99485243D01*
X145377900Y-99296315D01*
X145377900Y-99103685D01*
X145340320Y-98914757D01*
X145266604Y-98736790D01*
X145159585Y-98576625D01*
X145023375Y-98440415D01*
X144863210Y-98333396D01*
X144685243Y-98259680D01*
X144496315Y-98222100D01*
X144303685Y-98222100D01*
X144114757Y-98259680D01*
X143936790Y-98333396D01*
X143776625Y-98440415D01*
X143640415Y-98576625D01*
X143533396Y-98736790D01*
X143459680Y-98914757D01*
X143422100Y-99103685D01*
X138216488Y-99103685D01*
X138227900Y-99046315D01*
X138227900Y-98853685D01*
X138190320Y-98664757D01*
X138116604Y-98486790D01*
X138025204Y-98350000D01*
X138116604Y-98213210D01*
X138190320Y-98035243D01*
X138227900Y-97846315D01*
X138227900Y-97653685D01*
X138190320Y-97464757D01*
X138116604Y-97286790D01*
X138009585Y-97126625D01*
X137873375Y-96990415D01*
X137713210Y-96883396D01*
X137535243Y-96809680D01*
X137346315Y-96772100D01*
X137153685Y-96772100D01*
X136964757Y-96809680D01*
X136786790Y-96883396D01*
X136626625Y-96990415D01*
X136490415Y-97126625D01*
X136383396Y-97286790D01*
X136309680Y-97464757D01*
X136272100Y-97653685D01*
X134115024Y-97653685D01*
X134066604Y-97536790D01*
X133959585Y-97376625D01*
X133823375Y-97240415D01*
X133663210Y-97133396D01*
X133485243Y-97059680D01*
X133296315Y-97022100D01*
X133103685Y-97022100D01*
X132914757Y-97059680D01*
X132736790Y-97133396D01*
X132576625Y-97240415D01*
X132440415Y-97376625D01*
X132333396Y-97536790D01*
X132259680Y-97714757D01*
X132222100Y-97903685D01*
X128387000Y-97903685D01*
X128387000Y-94603685D01*
X144272100Y-94603685D01*
X144272100Y-94796315D01*
X144309680Y-94985243D01*
X144383396Y-95163210D01*
X144490415Y-95323375D01*
X144626625Y-95459585D01*
X144786790Y-95566604D01*
X144964757Y-95640320D01*
X145153685Y-95677900D01*
X145346315Y-95677900D01*
X145535243Y-95640320D01*
X145623688Y-95603685D01*
X157622100Y-95603685D01*
X157622100Y-95796315D01*
X157659680Y-95985243D01*
X157733396Y-96163210D01*
X157840415Y-96323375D01*
X157976625Y-96459585D01*
X158136790Y-96566604D01*
X158314757Y-96640320D01*
X158503685Y-96677900D01*
X158696315Y-96677900D01*
X158885243Y-96640320D01*
X159063210Y-96566604D01*
X159154017Y-96505929D01*
X159133396Y-96536790D01*
X159059680Y-96714757D01*
X159022100Y-96903685D01*
X159022100Y-97096315D01*
X159059680Y-97285243D01*
X159133396Y-97463210D01*
X159240415Y-97623375D01*
X159376625Y-97759585D01*
X159536790Y-97866604D01*
X159714757Y-97940320D01*
X159903685Y-97977900D01*
X160096315Y-97977900D01*
X160285243Y-97940320D01*
X160463210Y-97866604D01*
X160623375Y-97759585D01*
X160759585Y-97623375D01*
X160866604Y-97463210D01*
X160940320Y-97285243D01*
X160977900Y-97096315D01*
X160977900Y-96903685D01*
X161422100Y-96903685D01*
X161422100Y-97096315D01*
X161459680Y-97285243D01*
X161533396Y-97463210D01*
X161640415Y-97623375D01*
X161776625Y-97759585D01*
X161936790Y-97866604D01*
X162114757Y-97940320D01*
X162303685Y-97977900D01*
X162496315Y-97977900D01*
X162685243Y-97940320D01*
X162863210Y-97866604D01*
X163023375Y-97759585D01*
X163159585Y-97623375D01*
X163266604Y-97463210D01*
X163340320Y-97285243D01*
X163377900Y-97096315D01*
X163377900Y-96903685D01*
X163340320Y-96714757D01*
X163266604Y-96536790D01*
X163159585Y-96376625D01*
X163023375Y-96240415D01*
X162863210Y-96133396D01*
X162685243Y-96059680D01*
X162496315Y-96022100D01*
X162303685Y-96022100D01*
X162114757Y-96059680D01*
X161936790Y-96133396D01*
X161776625Y-96240415D01*
X161640415Y-96376625D01*
X161533396Y-96536790D01*
X161459680Y-96714757D01*
X161422100Y-96903685D01*
X160977900Y-96903685D01*
X160940320Y-96714757D01*
X160866604Y-96536790D01*
X160759585Y-96376625D01*
X160623375Y-96240415D01*
X160463210Y-96133396D01*
X160285243Y-96059680D01*
X160096315Y-96022100D01*
X159903685Y-96022100D01*
X159714757Y-96059680D01*
X159536790Y-96133396D01*
X159445983Y-96194071D01*
X159466604Y-96163210D01*
X159540320Y-95985243D01*
X159577900Y-95796315D01*
X159577900Y-95603685D01*
X159540320Y-95414757D01*
X159466604Y-95236790D01*
X159359585Y-95076625D01*
X159223375Y-94940415D01*
X159063210Y-94833396D01*
X158885243Y-94759680D01*
X158696315Y-94722100D01*
X158503685Y-94722100D01*
X158314757Y-94759680D01*
X158136790Y-94833396D01*
X157976625Y-94940415D01*
X157840415Y-95076625D01*
X157733396Y-95236790D01*
X157659680Y-95414757D01*
X157622100Y-95603685D01*
X145623688Y-95603685D01*
X145713210Y-95566604D01*
X145873375Y-95459585D01*
X146009585Y-95323375D01*
X146116604Y-95163210D01*
X146190320Y-94985243D01*
X146227900Y-94796315D01*
X146227900Y-94603685D01*
X146190320Y-94414757D01*
X146116604Y-94236790D01*
X146009585Y-94076625D01*
X145873375Y-93940415D01*
X145713210Y-93833396D01*
X145535243Y-93759680D01*
X145346315Y-93722100D01*
X145153685Y-93722100D01*
X144964757Y-93759680D01*
X144786790Y-93833396D01*
X144626625Y-93940415D01*
X144490415Y-94076625D01*
X144383396Y-94236790D01*
X144309680Y-94414757D01*
X144272100Y-94603685D01*
X128387000Y-94603685D01*
X128387000Y-92303685D01*
X169022100Y-92303685D01*
X169022100Y-92496315D01*
X169059680Y-92685243D01*
X169133396Y-92863210D01*
X169240415Y-93023375D01*
X169376625Y-93159585D01*
X169536790Y-93266604D01*
X169714757Y-93340320D01*
X169903685Y-93377900D01*
X170096315Y-93377900D01*
X170285243Y-93340320D01*
X170463210Y-93266604D01*
X170623375Y-93159585D01*
X170759585Y-93023375D01*
X170866604Y-92863210D01*
X170940320Y-92685243D01*
X170977900Y-92496315D01*
X170977900Y-92303685D01*
X170940320Y-92114757D01*
X170866604Y-91936790D01*
X170759585Y-91776625D01*
X170623375Y-91640415D01*
X170463210Y-91533396D01*
X170285243Y-91459680D01*
X170096315Y-91422100D01*
X169903685Y-91422100D01*
X169714757Y-91459680D01*
X169536790Y-91533396D01*
X169376625Y-91640415D01*
X169240415Y-91776625D01*
X169133396Y-91936790D01*
X169059680Y-92114757D01*
X169022100Y-92303685D01*
X128387000Y-92303685D01*
X128387000Y-91597000D01*
X158160000Y-91597000D01*
X158184776Y-91594560D01*
X158208601Y-91587333D01*
X158230557Y-91575597D01*
X158249803Y-91559803D01*
X158265597Y-91540557D01*
X158277333Y-91518601D01*
X158284560Y-91494776D01*
X158287000Y-91470000D01*
X158287000Y-86763685D01*
X173202100Y-86763685D01*
X173202100Y-86956315D01*
X173239680Y-87145243D01*
X173313396Y-87323210D01*
X173420415Y-87483375D01*
X173556625Y-87619585D01*
X173716790Y-87726604D01*
X173894757Y-87800320D01*
X174083685Y-87837900D01*
X174126550Y-87837900D01*
X174107832Y-87883088D01*
X174045000Y-88198967D01*
X174045000Y-88521033D01*
X174107832Y-88836912D01*
X174126550Y-88882100D01*
X174083685Y-88882100D01*
X173894757Y-88919680D01*
X173716790Y-88993396D01*
X173556625Y-89100415D01*
X173420415Y-89236625D01*
X173313396Y-89396790D01*
X173239680Y-89574757D01*
X173202100Y-89763685D01*
X173202100Y-89956315D01*
X173239680Y-90145243D01*
X173313396Y-90323210D01*
X173420415Y-90483375D01*
X173556625Y-90619585D01*
X173716790Y-90726604D01*
X173894757Y-90800320D01*
X174083685Y-90837900D01*
X174276315Y-90837900D01*
X174465243Y-90800320D01*
X174643210Y-90726604D01*
X174803375Y-90619585D01*
X174939585Y-90483375D01*
X175046604Y-90323210D01*
X175120320Y-90145243D01*
X175157900Y-89956315D01*
X175157900Y-89913450D01*
X175203088Y-89932168D01*
X175518967Y-89995000D01*
X175841033Y-89995000D01*
X176156912Y-89932168D01*
X176454463Y-89808918D01*
X176722252Y-89629987D01*
X176949987Y-89402252D01*
X177128918Y-89134463D01*
X177252168Y-88836912D01*
X177315000Y-88521033D01*
X177315000Y-88198967D01*
X177252168Y-87883088D01*
X177128918Y-87585537D01*
X176949987Y-87317748D01*
X176722252Y-87090013D01*
X176454463Y-86911082D01*
X176156912Y-86787832D01*
X175841033Y-86725000D01*
X175518967Y-86725000D01*
X175203088Y-86787832D01*
X175157900Y-86806550D01*
X175157900Y-86763685D01*
X175120320Y-86574757D01*
X175046604Y-86396790D01*
X174939585Y-86236625D01*
X174803375Y-86100415D01*
X174643210Y-85993396D01*
X174465243Y-85919680D01*
X174276315Y-85882100D01*
X174083685Y-85882100D01*
X173894757Y-85919680D01*
X173716790Y-85993396D01*
X173556625Y-86100415D01*
X173420415Y-86236625D01*
X173313396Y-86396790D01*
X173239680Y-86574757D01*
X173202100Y-86763685D01*
X158287000Y-86763685D01*
X158287000Y-79335413D01*
X174724192Y-79335413D01*
X174819956Y-79599814D01*
X175109571Y-79740704D01*
X175421108Y-79822384D01*
X175742595Y-79841718D01*
X176061675Y-79797961D01*
X176366088Y-79692795D01*
X176540044Y-79599814D01*
X176635808Y-79335413D01*
X175680000Y-78379605D01*
X174724192Y-79335413D01*
X158287000Y-79335413D01*
X158287000Y-78262595D01*
X174038282Y-78262595D01*
X174082039Y-78581675D01*
X174187205Y-78886088D01*
X174280186Y-79060044D01*
X174544587Y-79155808D01*
X175500395Y-78200000D01*
X175859605Y-78200000D01*
X176815413Y-79155808D01*
X177079814Y-79060044D01*
X177220704Y-78770429D01*
X177302384Y-78458892D01*
X177321718Y-78137405D01*
X177277961Y-77818325D01*
X177172795Y-77513912D01*
X177079814Y-77339956D01*
X176815413Y-77244192D01*
X175859605Y-78200000D01*
X175500395Y-78200000D01*
X174544587Y-77244192D01*
X174280186Y-77339956D01*
X174139296Y-77629571D01*
X174057616Y-77941108D01*
X174038282Y-78262595D01*
X158287000Y-78262595D01*
X158287000Y-77064587D01*
X174724192Y-77064587D01*
X175680000Y-78020395D01*
X176635808Y-77064587D01*
X176540044Y-76800186D01*
X176250429Y-76659296D01*
X175938892Y-76577616D01*
X175617405Y-76558282D01*
X175298325Y-76602039D01*
X174993912Y-76707205D01*
X174819956Y-76800186D01*
X174724192Y-77064587D01*
X158287000Y-77064587D01*
X158287000Y-67878967D01*
X174045000Y-67878967D01*
X174045000Y-68201033D01*
X174107832Y-68516912D01*
X174231082Y-68814463D01*
X174410013Y-69082252D01*
X174637748Y-69309987D01*
X174905537Y-69488918D01*
X175203088Y-69612168D01*
X175518967Y-69675000D01*
X175841033Y-69675000D01*
X176156912Y-69612168D01*
X176454463Y-69488918D01*
X176722252Y-69309987D01*
X176949987Y-69082252D01*
X177128918Y-68814463D01*
X177252168Y-68516912D01*
X177315000Y-68201033D01*
X177315000Y-67878967D01*
X177252168Y-67563088D01*
X177128918Y-67265537D01*
X176949987Y-66997748D01*
X176722252Y-66770013D01*
X176454463Y-66591082D01*
X176156912Y-66467832D01*
X175841033Y-66405000D01*
X175518967Y-66405000D01*
X175203088Y-66467832D01*
X174905537Y-66591082D01*
X174637748Y-66770013D01*
X174410013Y-66997748D01*
X174231082Y-67265537D01*
X174107832Y-67563088D01*
X174045000Y-67878967D01*
X158287000Y-67878967D01*
X158287000Y-66210000D01*
X177165278Y-66210000D01*
X177255665Y-66218863D01*
G37*
X177255665Y-66218863D02*
X177309214Y-66235030D01*
X177358597Y-66261288D01*
X177401945Y-66296641D01*
X177437600Y-66339740D01*
X177464201Y-66388937D01*
X177480742Y-66442375D01*
X177490000Y-66530455D01*
X177490001Y-139665269D01*
X177481138Y-139755664D01*
X177464970Y-139809214D01*
X177438712Y-139858597D01*
X177403357Y-139901947D01*
X177360261Y-139937599D01*
X177311063Y-139964201D01*
X177257625Y-139980742D01*
X177169545Y-139990000D01*
X158287000Y-139990000D01*
X158287000Y-138243891D01*
X170815000Y-138243891D01*
X170815000Y-138556109D01*
X170875911Y-138862327D01*
X170995391Y-139150779D01*
X171168850Y-139410379D01*
X171389621Y-139631150D01*
X171649221Y-139804609D01*
X171937673Y-139924089D01*
X172243891Y-139985000D01*
X172556109Y-139985000D01*
X172862327Y-139924089D01*
X173150779Y-139804609D01*
X173410379Y-139631150D01*
X173631150Y-139410379D01*
X173804609Y-139150779D01*
X173924089Y-138862327D01*
X173985000Y-138556109D01*
X173985000Y-138243891D01*
X173924089Y-137937673D01*
X173804609Y-137649221D01*
X173631150Y-137389621D01*
X173410379Y-137168850D01*
X173150779Y-136995391D01*
X172862327Y-136875911D01*
X172556109Y-136815000D01*
X172243891Y-136815000D01*
X171937673Y-136875911D01*
X171649221Y-136995391D01*
X171389621Y-137168850D01*
X171168850Y-137389621D01*
X170995391Y-137649221D01*
X170875911Y-137937673D01*
X170815000Y-138243891D01*
X158287000Y-138243891D01*
X158287000Y-134743891D01*
X170815000Y-134743891D01*
X170815000Y-135056109D01*
X170875911Y-135362327D01*
X170995391Y-135650779D01*
X171168850Y-135910379D01*
X171389621Y-136131150D01*
X171649221Y-136304609D01*
X171937673Y-136424089D01*
X172243891Y-136485000D01*
X172556109Y-136485000D01*
X172862327Y-136424089D01*
X173150779Y-136304609D01*
X173410379Y-136131150D01*
X173631150Y-135910379D01*
X173804609Y-135650779D01*
X173924089Y-135362327D01*
X173985000Y-135056109D01*
X173985000Y-134743891D01*
X173924089Y-134437673D01*
X173804609Y-134149221D01*
X173631150Y-133889621D01*
X173410379Y-133668850D01*
X173150779Y-133495391D01*
X172862327Y-133375911D01*
X172556109Y-133315000D01*
X172243891Y-133315000D01*
X171937673Y-133375911D01*
X171649221Y-133495391D01*
X171389621Y-133668850D01*
X171168850Y-133889621D01*
X170995391Y-134149221D01*
X170875911Y-134437673D01*
X170815000Y-134743891D01*
X158287000Y-134743891D01*
X158287000Y-132499752D01*
X171479853Y-132499752D01*
X171569579Y-132759042D01*
X171850671Y-132894935D01*
X172152873Y-132973379D01*
X172464573Y-132991359D01*
X172773791Y-132948184D01*
X173068644Y-132845513D01*
X173230421Y-132759042D01*
X173320147Y-132499752D01*
X172400000Y-131579605D01*
X171479853Y-132499752D01*
X158287000Y-132499752D01*
X158287000Y-130953685D01*
X159022100Y-130953685D01*
X159022100Y-131146315D01*
X159059680Y-131335243D01*
X159133396Y-131513210D01*
X159240415Y-131673375D01*
X159376625Y-131809585D01*
X159536790Y-131916604D01*
X159714757Y-131990320D01*
X159903685Y-132027900D01*
X160096315Y-132027900D01*
X160285243Y-131990320D01*
X160463210Y-131916604D01*
X160623375Y-131809585D01*
X160759585Y-131673375D01*
X160866604Y-131513210D01*
X160886750Y-131464573D01*
X170808641Y-131464573D01*
X170851816Y-131773791D01*
X170954487Y-132068644D01*
X171040958Y-132230421D01*
X171300248Y-132320147D01*
X172220395Y-131400000D01*
X172579605Y-131400000D01*
X173499752Y-132320147D01*
X173759042Y-132230421D01*
X173894935Y-131949329D01*
X173973379Y-131647127D01*
X173991359Y-131335427D01*
X173948184Y-131026209D01*
X173845513Y-130731356D01*
X173759042Y-130569579D01*
X173499752Y-130479853D01*
X172579605Y-131400000D01*
X172220395Y-131400000D01*
X171300248Y-130479853D01*
X171040958Y-130569579D01*
X170905065Y-130850671D01*
X170826621Y-131152873D01*
X170808641Y-131464573D01*
X160886750Y-131464573D01*
X160940320Y-131335243D01*
X160977900Y-131146315D01*
X160977900Y-130953685D01*
X160940320Y-130764757D01*
X160866604Y-130586790D01*
X160759585Y-130426625D01*
X160633208Y-130300248D01*
X171479853Y-130300248D01*
X172400000Y-131220395D01*
X173320147Y-130300248D01*
X173230421Y-130040958D01*
X172949329Y-129905065D01*
X172647127Y-129826621D01*
X172335427Y-129808641D01*
X172026209Y-129851816D01*
X171731356Y-129954487D01*
X171569579Y-130040958D01*
X171479853Y-130300248D01*
X160633208Y-130300248D01*
X160623375Y-130290415D01*
X160463210Y-130183396D01*
X160285243Y-130109680D01*
X160096315Y-130072100D01*
X159903685Y-130072100D01*
X159714757Y-130109680D01*
X159536790Y-130183396D01*
X159376625Y-130290415D01*
X159240415Y-130426625D01*
X159133396Y-130586790D01*
X159059680Y-130764757D01*
X159022100Y-130953685D01*
X158287000Y-130953685D01*
X158287000Y-127743891D01*
X170815000Y-127743891D01*
X170815000Y-128056109D01*
X170875911Y-128362327D01*
X170995391Y-128650779D01*
X171168850Y-128910379D01*
X171389621Y-129131150D01*
X171649221Y-129304609D01*
X171937673Y-129424089D01*
X172243891Y-129485000D01*
X172556109Y-129485000D01*
X172862327Y-129424089D01*
X173150779Y-129304609D01*
X173410379Y-129131150D01*
X173631150Y-128910379D01*
X173804609Y-128650779D01*
X173924089Y-128362327D01*
X173985000Y-128056109D01*
X173985000Y-127743891D01*
X173924089Y-127437673D01*
X173804609Y-127149221D01*
X173631150Y-126889621D01*
X173410379Y-126668850D01*
X173150779Y-126495391D01*
X172862327Y-126375911D01*
X172556109Y-126315000D01*
X172243891Y-126315000D01*
X171937673Y-126375911D01*
X171649221Y-126495391D01*
X171389621Y-126668850D01*
X171168850Y-126889621D01*
X170995391Y-127149221D01*
X170875911Y-127437673D01*
X170815000Y-127743891D01*
X158287000Y-127743891D01*
X158287000Y-124243891D01*
X170815000Y-124243891D01*
X170815000Y-124556109D01*
X170875911Y-124862327D01*
X170995391Y-125150779D01*
X171168850Y-125410379D01*
X171389621Y-125631150D01*
X171649221Y-125804609D01*
X171937673Y-125924089D01*
X172243891Y-125985000D01*
X172556109Y-125985000D01*
X172862327Y-125924089D01*
X173150779Y-125804609D01*
X173410379Y-125631150D01*
X173631150Y-125410379D01*
X173804609Y-125150779D01*
X173924089Y-124862327D01*
X173985000Y-124556109D01*
X173985000Y-124243891D01*
X173924089Y-123937673D01*
X173804609Y-123649221D01*
X173631150Y-123389621D01*
X173410379Y-123168850D01*
X173150779Y-122995391D01*
X172862327Y-122875911D01*
X172556109Y-122815000D01*
X172243891Y-122815000D01*
X171937673Y-122875911D01*
X171649221Y-122995391D01*
X171389621Y-123168850D01*
X171168850Y-123389621D01*
X170995391Y-123649221D01*
X170875911Y-123937673D01*
X170815000Y-124243891D01*
X158287000Y-124243891D01*
X158287000Y-121999752D01*
X171479853Y-121999752D01*
X171569579Y-122259042D01*
X171850671Y-122394935D01*
X172152873Y-122473379D01*
X172464573Y-122491359D01*
X172773791Y-122448184D01*
X173068644Y-122345513D01*
X173230421Y-122259042D01*
X173320147Y-121999752D01*
X172400000Y-121079605D01*
X171479853Y-121999752D01*
X158287000Y-121999752D01*
X158287000Y-120453685D01*
X159022100Y-120453685D01*
X159022100Y-120646315D01*
X159059680Y-120835243D01*
X159133396Y-121013210D01*
X159240415Y-121173375D01*
X159376625Y-121309585D01*
X159536790Y-121416604D01*
X159714757Y-121490320D01*
X159903685Y-121527900D01*
X160096315Y-121527900D01*
X160285243Y-121490320D01*
X160463210Y-121416604D01*
X160623375Y-121309585D01*
X160759585Y-121173375D01*
X160866604Y-121013210D01*
X160886750Y-120964573D01*
X170808641Y-120964573D01*
X170851816Y-121273791D01*
X170954487Y-121568644D01*
X171040958Y-121730421D01*
X171300248Y-121820147D01*
X172220395Y-120900000D01*
X172579605Y-120900000D01*
X173499752Y-121820147D01*
X173759042Y-121730421D01*
X173894935Y-121449329D01*
X173973379Y-121147127D01*
X173991359Y-120835427D01*
X173948184Y-120526209D01*
X173845513Y-120231356D01*
X173759042Y-120069579D01*
X173499752Y-119979853D01*
X172579605Y-120900000D01*
X172220395Y-120900000D01*
X171300248Y-119979853D01*
X171040958Y-120069579D01*
X170905065Y-120350671D01*
X170826621Y-120652873D01*
X170808641Y-120964573D01*
X160886750Y-120964573D01*
X160940320Y-120835243D01*
X160977900Y-120646315D01*
X160977900Y-120453685D01*
X160940320Y-120264757D01*
X160866604Y-120086790D01*
X160759585Y-119926625D01*
X160633208Y-119800248D01*
X171479853Y-119800248D01*
X172400000Y-120720395D01*
X173320147Y-119800248D01*
X173230421Y-119540958D01*
X172949329Y-119405065D01*
X172647127Y-119326621D01*
X172335427Y-119308641D01*
X172026209Y-119351816D01*
X171731356Y-119454487D01*
X171569579Y-119540958D01*
X171479853Y-119800248D01*
X160633208Y-119800248D01*
X160623375Y-119790415D01*
X160463210Y-119683396D01*
X160285243Y-119609680D01*
X160096315Y-119572100D01*
X159903685Y-119572100D01*
X159714757Y-119609680D01*
X159536790Y-119683396D01*
X159376625Y-119790415D01*
X159240415Y-119926625D01*
X159133396Y-120086790D01*
X159059680Y-120264757D01*
X159022100Y-120453685D01*
X158287000Y-120453685D01*
X158287000Y-117243891D01*
X170815000Y-117243891D01*
X170815000Y-117556109D01*
X170875911Y-117862327D01*
X170995391Y-118150779D01*
X171168850Y-118410379D01*
X171389621Y-118631150D01*
X171649221Y-118804609D01*
X171937673Y-118924089D01*
X172243891Y-118985000D01*
X172556109Y-118985000D01*
X172862327Y-118924089D01*
X173150779Y-118804609D01*
X173410379Y-118631150D01*
X173631150Y-118410379D01*
X173804609Y-118150779D01*
X173924089Y-117862327D01*
X173985000Y-117556109D01*
X173985000Y-117243891D01*
X173924089Y-116937673D01*
X173804609Y-116649221D01*
X173631150Y-116389621D01*
X173410379Y-116168850D01*
X173150779Y-115995391D01*
X172862327Y-115875911D01*
X172556109Y-115815000D01*
X172243891Y-115815000D01*
X171937673Y-115875911D01*
X171649221Y-115995391D01*
X171389621Y-116168850D01*
X171168850Y-116389621D01*
X170995391Y-116649221D01*
X170875911Y-116937673D01*
X170815000Y-117243891D01*
X158287000Y-117243891D01*
X158287000Y-113743891D01*
X170815000Y-113743891D01*
X170815000Y-114056109D01*
X170875911Y-114362327D01*
X170995391Y-114650779D01*
X171168850Y-114910379D01*
X171389621Y-115131150D01*
X171649221Y-115304609D01*
X171937673Y-115424089D01*
X172243891Y-115485000D01*
X172556109Y-115485000D01*
X172862327Y-115424089D01*
X173150779Y-115304609D01*
X173410379Y-115131150D01*
X173631150Y-114910379D01*
X173804609Y-114650779D01*
X173924089Y-114362327D01*
X173985000Y-114056109D01*
X173985000Y-113743891D01*
X173924089Y-113437673D01*
X173804609Y-113149221D01*
X173631150Y-112889621D01*
X173410379Y-112668850D01*
X173150779Y-112495391D01*
X172862327Y-112375911D01*
X172556109Y-112315000D01*
X172243891Y-112315000D01*
X171937673Y-112375911D01*
X171649221Y-112495391D01*
X171389621Y-112668850D01*
X171168850Y-112889621D01*
X170995391Y-113149221D01*
X170875911Y-113437673D01*
X170815000Y-113743891D01*
X158287000Y-113743891D01*
X158287000Y-111740000D01*
X158284560Y-111715224D01*
X158277333Y-111691399D01*
X158265597Y-111669443D01*
X158249803Y-111650197D01*
X158230557Y-111634403D01*
X158208601Y-111622667D01*
X158184776Y-111615440D01*
X158160000Y-111613000D01*
X136740000Y-111613000D01*
X136715224Y-111615440D01*
X136691399Y-111622667D01*
X136669443Y-111634403D01*
X136650197Y-111650197D01*
X136634403Y-111669443D01*
X136622667Y-111691399D01*
X136615440Y-111715224D01*
X136613000Y-111740000D01*
X136613000Y-127613000D01*
X128387000Y-127613000D01*
X128387000Y-124208685D01*
X129422100Y-124208685D01*
X129422100Y-124401315D01*
X129459680Y-124590243D01*
X129533396Y-124768210D01*
X129640415Y-124928375D01*
X129776625Y-125064585D01*
X129936790Y-125171604D01*
X130114757Y-125245320D01*
X130303685Y-125282900D01*
X130496315Y-125282900D01*
X130685243Y-125245320D01*
X130863210Y-125171604D01*
X131023375Y-125064585D01*
X131159585Y-124928375D01*
X131266604Y-124768210D01*
X131340320Y-124590243D01*
X131377900Y-124401315D01*
X131377900Y-124208685D01*
X131340320Y-124019757D01*
X131266604Y-123841790D01*
X131159585Y-123681625D01*
X131023375Y-123545415D01*
X130863210Y-123438396D01*
X130685243Y-123364680D01*
X130604831Y-123348685D01*
X131722100Y-123348685D01*
X131722100Y-123541315D01*
X131759680Y-123730243D01*
X131833396Y-123908210D01*
X131940415Y-124068375D01*
X132076625Y-124204585D01*
X132236790Y-124311604D01*
X132414757Y-124385320D01*
X132603685Y-124422900D01*
X132796315Y-124422900D01*
X132985243Y-124385320D01*
X133163210Y-124311604D01*
X133323375Y-124204585D01*
X133459585Y-124068375D01*
X133566604Y-123908210D01*
X133640320Y-123730243D01*
X133677900Y-123541315D01*
X133677900Y-123348685D01*
X133640320Y-123159757D01*
X133566604Y-122981790D01*
X133459585Y-122821625D01*
X133323375Y-122685415D01*
X133163210Y-122578396D01*
X132985243Y-122504680D01*
X132796315Y-122467100D01*
X132603685Y-122467100D01*
X132414757Y-122504680D01*
X132236790Y-122578396D01*
X132076625Y-122685415D01*
X131940415Y-122821625D01*
X131833396Y-122981790D01*
X131759680Y-123159757D01*
X131722100Y-123348685D01*
X130604831Y-123348685D01*
X130496315Y-123327100D01*
X130303685Y-123327100D01*
X130114757Y-123364680D01*
X129936790Y-123438396D01*
X129776625Y-123545415D01*
X129640415Y-123681625D01*
X129533396Y-123841790D01*
X129459680Y-124019757D01*
X129422100Y-124208685D01*
X128387000Y-124208685D01*
X128387000Y-111499752D01*
X171479853Y-111499752D01*
X171569579Y-111759042D01*
X171850671Y-111894935D01*
X172152873Y-111973379D01*
X172464573Y-111991359D01*
X172773791Y-111948184D01*
X173068644Y-111845513D01*
X173230421Y-111759042D01*
X173320147Y-111499752D01*
X172400000Y-110579605D01*
X171479853Y-111499752D01*
X128387000Y-111499752D01*
X128387000Y-108903685D01*
X139022100Y-108903685D01*
X139022100Y-109096315D01*
X139059680Y-109285243D01*
X139133396Y-109463210D01*
X139240415Y-109623375D01*
X139376625Y-109759585D01*
X139536790Y-109866604D01*
X139714757Y-109940320D01*
X139903685Y-109977900D01*
X140096315Y-109977900D01*
X140285243Y-109940320D01*
X140463210Y-109866604D01*
X140623375Y-109759585D01*
X140759585Y-109623375D01*
X140866604Y-109463210D01*
X140891259Y-109403685D01*
X144522100Y-109403685D01*
X144522100Y-109596315D01*
X144559680Y-109785243D01*
X144633396Y-109963210D01*
X144740415Y-110123375D01*
X144876625Y-110259585D01*
X145036790Y-110366604D01*
X145214757Y-110440320D01*
X145403685Y-110477900D01*
X145596315Y-110477900D01*
X145785243Y-110440320D01*
X145963210Y-110366604D01*
X146123375Y-110259585D01*
X146259585Y-110123375D01*
X146366604Y-109963210D01*
X146370549Y-109953685D01*
X159022100Y-109953685D01*
X159022100Y-110146315D01*
X159059680Y-110335243D01*
X159133396Y-110513210D01*
X159240415Y-110673375D01*
X159376625Y-110809585D01*
X159536790Y-110916604D01*
X159714757Y-110990320D01*
X159903685Y-111027900D01*
X160096315Y-111027900D01*
X160285243Y-110990320D01*
X160463210Y-110916604D01*
X160623375Y-110809585D01*
X160759585Y-110673375D01*
X160866604Y-110513210D01*
X160886750Y-110464573D01*
X170808641Y-110464573D01*
X170851816Y-110773791D01*
X170954487Y-111068644D01*
X171040958Y-111230421D01*
X171300248Y-111320147D01*
X172220395Y-110400000D01*
X172579605Y-110400000D01*
X173499752Y-111320147D01*
X173759042Y-111230421D01*
X173894935Y-110949329D01*
X173973379Y-110647127D01*
X173991359Y-110335427D01*
X173948184Y-110026209D01*
X173845513Y-109731356D01*
X173759042Y-109569579D01*
X173499752Y-109479853D01*
X172579605Y-110400000D01*
X172220395Y-110400000D01*
X171300248Y-109479853D01*
X171040958Y-109569579D01*
X170905065Y-109850671D01*
X170826621Y-110152873D01*
X170808641Y-110464573D01*
X160886750Y-110464573D01*
X160940320Y-110335243D01*
X160977900Y-110146315D01*
X160977900Y-109953685D01*
X160940320Y-109764757D01*
X160866604Y-109586790D01*
X160759585Y-109426625D01*
X160633208Y-109300248D01*
X171479853Y-109300248D01*
X172400000Y-110220395D01*
X173320147Y-109300248D01*
X173230421Y-109040958D01*
X172949329Y-108905065D01*
X172647127Y-108826621D01*
X172335427Y-108808641D01*
X172026209Y-108851816D01*
X171731356Y-108954487D01*
X171569579Y-109040958D01*
X171479853Y-109300248D01*
X160633208Y-109300248D01*
X160623375Y-109290415D01*
X160463210Y-109183396D01*
X160285243Y-109109680D01*
X160096315Y-109072100D01*
X159903685Y-109072100D01*
X159714757Y-109109680D01*
X159536790Y-109183396D01*
X159376625Y-109290415D01*
X159240415Y-109426625D01*
X159133396Y-109586790D01*
X159059680Y-109764757D01*
X159022100Y-109953685D01*
X146370549Y-109953685D01*
X146440320Y-109785243D01*
X146477900Y-109596315D01*
X146477900Y-109403685D01*
X146440320Y-109214757D01*
X146366604Y-109036790D01*
X146259585Y-108876625D01*
X146123375Y-108740415D01*
X145963210Y-108633396D01*
X145785243Y-108559680D01*
X145596315Y-108522100D01*
X145403685Y-108522100D01*
X145214757Y-108559680D01*
X145036790Y-108633396D01*
X144876625Y-108740415D01*
X144740415Y-108876625D01*
X144633396Y-109036790D01*
X144559680Y-109214757D01*
X144522100Y-109403685D01*
X140891259Y-109403685D01*
X140940320Y-109285243D01*
X140977900Y-109096315D01*
X140977900Y-108903685D01*
X140940320Y-108714757D01*
X140866604Y-108536790D01*
X140759585Y-108376625D01*
X140623375Y-108240415D01*
X140463210Y-108133396D01*
X140285243Y-108059680D01*
X140096315Y-108022100D01*
X139903685Y-108022100D01*
X139714757Y-108059680D01*
X139536790Y-108133396D01*
X139376625Y-108240415D01*
X139240415Y-108376625D01*
X139133396Y-108536790D01*
X139059680Y-108714757D01*
X139022100Y-108903685D01*
X128387000Y-108903685D01*
X128387000Y-105903685D01*
X132222100Y-105903685D01*
X132222100Y-106096315D01*
X132259680Y-106285243D01*
X132333396Y-106463210D01*
X132440415Y-106623375D01*
X132576625Y-106759585D01*
X132736790Y-106866604D01*
X132914757Y-106940320D01*
X133103685Y-106977900D01*
X133296315Y-106977900D01*
X133485243Y-106940320D01*
X133663210Y-106866604D01*
X133823375Y-106759585D01*
X133959585Y-106623375D01*
X134066604Y-106463210D01*
X134140320Y-106285243D01*
X134177900Y-106096315D01*
X134177900Y-105903685D01*
X136622100Y-105903685D01*
X136622100Y-106096315D01*
X136659680Y-106285243D01*
X136733396Y-106463210D01*
X136840415Y-106623375D01*
X136976625Y-106759585D01*
X137136790Y-106866604D01*
X137314757Y-106940320D01*
X137503685Y-106977900D01*
X137696315Y-106977900D01*
X137885243Y-106940320D01*
X137973688Y-106903685D01*
X151022100Y-106903685D01*
X151022100Y-107096315D01*
X151059680Y-107285243D01*
X151133396Y-107463210D01*
X151240415Y-107623375D01*
X151376625Y-107759585D01*
X151536790Y-107866604D01*
X151714757Y-107940320D01*
X151903685Y-107977900D01*
X152096315Y-107977900D01*
X152285243Y-107940320D01*
X152463210Y-107866604D01*
X152623375Y-107759585D01*
X152759585Y-107623375D01*
X152866604Y-107463210D01*
X152940320Y-107285243D01*
X152977900Y-107096315D01*
X152977900Y-106903685D01*
X152946116Y-106743891D01*
X170815000Y-106743891D01*
X170815000Y-107056109D01*
X170875911Y-107362327D01*
X170995391Y-107650779D01*
X171168850Y-107910379D01*
X171389621Y-108131150D01*
X171649221Y-108304609D01*
X171937673Y-108424089D01*
X172243891Y-108485000D01*
X172556109Y-108485000D01*
X172862327Y-108424089D01*
X173150779Y-108304609D01*
X173410379Y-108131150D01*
X173631150Y-107910379D01*
X173804609Y-107650779D01*
X173924089Y-107362327D01*
X173985000Y-107056109D01*
X173985000Y-106743891D01*
X173924089Y-106437673D01*
X173804609Y-106149221D01*
X173631150Y-105889621D01*
X173410379Y-105668850D01*
X173150779Y-105495391D01*
X172862327Y-105375911D01*
X172556109Y-105315000D01*
X172243891Y-105315000D01*
X171937673Y-105375911D01*
X171649221Y-105495391D01*
X171389621Y-105668850D01*
X171168850Y-105889621D01*
X170995391Y-106149221D01*
X170875911Y-106437673D01*
X170815000Y-106743891D01*
X152946116Y-106743891D01*
X152940320Y-106714757D01*
X152866604Y-106536790D01*
X152759585Y-106376625D01*
X152623375Y-106240415D01*
X152463210Y-106133396D01*
X152285243Y-106059680D01*
X152096315Y-106022100D01*
X151903685Y-106022100D01*
X151714757Y-106059680D01*
X151536790Y-106133396D01*
X151376625Y-106240415D01*
X151240415Y-106376625D01*
X151133396Y-106536790D01*
X151059680Y-106714757D01*
X151022100Y-106903685D01*
X137973688Y-106903685D01*
X138063210Y-106866604D01*
X138223375Y-106759585D01*
X138359585Y-106623375D01*
X138466604Y-106463210D01*
X138540320Y-106285243D01*
X138577900Y-106096315D01*
X138577900Y-105903685D01*
X138540320Y-105714757D01*
X138466604Y-105536790D01*
X138359585Y-105376625D01*
X138223375Y-105240415D01*
X138063210Y-105133396D01*
X137885243Y-105059680D01*
X137696315Y-105022100D01*
X137503685Y-105022100D01*
X137314757Y-105059680D01*
X137136790Y-105133396D01*
X136976625Y-105240415D01*
X136840415Y-105376625D01*
X136733396Y-105536790D01*
X136659680Y-105714757D01*
X136622100Y-105903685D01*
X134177900Y-105903685D01*
X134140320Y-105714757D01*
X134066604Y-105536790D01*
X133959585Y-105376625D01*
X133823375Y-105240415D01*
X133663210Y-105133396D01*
X133485243Y-105059680D01*
X133296315Y-105022100D01*
X133103685Y-105022100D01*
X132914757Y-105059680D01*
X132736790Y-105133396D01*
X132576625Y-105240415D01*
X132440415Y-105376625D01*
X132333396Y-105536790D01*
X132259680Y-105714757D01*
X132222100Y-105903685D01*
X128387000Y-105903685D01*
X128387000Y-103353685D01*
X134522100Y-103353685D01*
X134522100Y-103546315D01*
X134559680Y-103735243D01*
X134633396Y-103913210D01*
X134740415Y-104073375D01*
X134876625Y-104209585D01*
X135036790Y-104316604D01*
X135214757Y-104390320D01*
X135403685Y-104427900D01*
X135596315Y-104427900D01*
X135785243Y-104390320D01*
X135963210Y-104316604D01*
X136123375Y-104209585D01*
X136259585Y-104073375D01*
X136366604Y-103913210D01*
X136440320Y-103735243D01*
X136477900Y-103546315D01*
X136477900Y-103353685D01*
X136440320Y-103164757D01*
X136366604Y-102986790D01*
X136259585Y-102826625D01*
X136123375Y-102690415D01*
X135963210Y-102583396D01*
X135785243Y-102509680D01*
X135596315Y-102472100D01*
X135403685Y-102472100D01*
X135214757Y-102509680D01*
X135036790Y-102583396D01*
X134876625Y-102690415D01*
X134740415Y-102826625D01*
X134633396Y-102986790D01*
X134559680Y-103164757D01*
X134522100Y-103353685D01*
X128387000Y-103353685D01*
X128387000Y-97903685D01*
X132222100Y-97903685D01*
X132222100Y-98096315D01*
X132259680Y-98285243D01*
X132333396Y-98463210D01*
X132440415Y-98623375D01*
X132576625Y-98759585D01*
X132736790Y-98866604D01*
X132914757Y-98940320D01*
X133103685Y-98977900D01*
X133296315Y-98977900D01*
X133485243Y-98940320D01*
X133663210Y-98866604D01*
X133823375Y-98759585D01*
X133959585Y-98623375D01*
X134066604Y-98463210D01*
X134140320Y-98285243D01*
X134177900Y-98096315D01*
X134177900Y-97903685D01*
X134140320Y-97714757D01*
X134115024Y-97653685D01*
X136272100Y-97653685D01*
X136272100Y-97846315D01*
X136309680Y-98035243D01*
X136383396Y-98213210D01*
X136474796Y-98350000D01*
X136383396Y-98486790D01*
X136309680Y-98664757D01*
X136272100Y-98853685D01*
X136272100Y-99046315D01*
X136309680Y-99235243D01*
X136383396Y-99413210D01*
X136474796Y-99550000D01*
X136383396Y-99686790D01*
X136309680Y-99864757D01*
X136272100Y-100053685D01*
X136272100Y-100246315D01*
X136309680Y-100435243D01*
X136383396Y-100613210D01*
X136474796Y-100750000D01*
X136383396Y-100886790D01*
X136309680Y-101064757D01*
X136272100Y-101253685D01*
X136272100Y-101446315D01*
X136309680Y-101635243D01*
X136383396Y-101813210D01*
X136474796Y-101950000D01*
X136383396Y-102086790D01*
X136309680Y-102264757D01*
X136272100Y-102453685D01*
X136272100Y-102646315D01*
X136309680Y-102835243D01*
X136383396Y-103013210D01*
X136490415Y-103173375D01*
X136626625Y-103309585D01*
X136786790Y-103416604D01*
X136964757Y-103490320D01*
X137153685Y-103527900D01*
X137346315Y-103527900D01*
X137535243Y-103490320D01*
X137713210Y-103416604D01*
X137873375Y-103309585D01*
X138009585Y-103173375D01*
X138116604Y-103013210D01*
X138190320Y-102835243D01*
X138227900Y-102646315D01*
X138227900Y-102453685D01*
X138190320Y-102264757D01*
X138116604Y-102086790D01*
X138025204Y-101950000D01*
X138116604Y-101813210D01*
X138190320Y-101635243D01*
X138227900Y-101446315D01*
X138227900Y-101253685D01*
X138190320Y-101064757D01*
X138116604Y-100886790D01*
X138025204Y-100750000D01*
X138116604Y-100613210D01*
X138190320Y-100435243D01*
X138227900Y-100246315D01*
X138227900Y-100053685D01*
X138190320Y-99864757D01*
X138116604Y-99686790D01*
X138025204Y-99550000D01*
X138116604Y-99413210D01*
X138190320Y-99235243D01*
X138216488Y-99103685D01*
X143422100Y-99103685D01*
X143422100Y-99296315D01*
X143459680Y-99485243D01*
X143533396Y-99663210D01*
X143640415Y-99823375D01*
X143776625Y-99959585D01*
X143936790Y-100066604D01*
X144114757Y-100140320D01*
X144303685Y-100177900D01*
X144496315Y-100177900D01*
X144685243Y-100140320D01*
X144863210Y-100066604D01*
X144951285Y-100007754D01*
X147640090Y-100007754D01*
X147640090Y-100366246D01*
X147710028Y-100717848D01*
X147847216Y-101049051D01*
X148046383Y-101347125D01*
X148299875Y-101600617D01*
X148465075Y-101711000D01*
X148299875Y-101821383D01*
X148046383Y-102074875D01*
X147847216Y-102372949D01*
X147710028Y-102704152D01*
X147640090Y-103055754D01*
X147640090Y-103414246D01*
X147710028Y-103765848D01*
X147847216Y-104097051D01*
X148046383Y-104395125D01*
X148299875Y-104648617D01*
X148597949Y-104847784D01*
X148929152Y-104984972D01*
X149280754Y-105054910D01*
X149639246Y-105054910D01*
X149859798Y-105011040D01*
X149856240Y-105028925D01*
X149856240Y-105251075D01*
X149899579Y-105468956D01*
X149984592Y-105674195D01*
X150108011Y-105858905D01*
X150265095Y-106015989D01*
X150449805Y-106139408D01*
X150655044Y-106224421D01*
X150872925Y-106267760D01*
X151095075Y-106267760D01*
X151312956Y-106224421D01*
X151518195Y-106139408D01*
X151702905Y-106015989D01*
X151859989Y-105858905D01*
X151983408Y-105674195D01*
X152000000Y-105634138D01*
X152016592Y-105674195D01*
X152140011Y-105858905D01*
X152297095Y-106015989D01*
X152481805Y-106139408D01*
X152687044Y-106224421D01*
X152904925Y-106267760D01*
X153127075Y-106267760D01*
X153344956Y-106224421D01*
X153550195Y-106139408D01*
X153734905Y-106015989D01*
X153891989Y-105858905D01*
X154015408Y-105674195D01*
X154100421Y-105468956D01*
X154143760Y-105251075D01*
X154143760Y-105028925D01*
X154140202Y-105011040D01*
X154360754Y-105054910D01*
X154719246Y-105054910D01*
X155070848Y-104984972D01*
X155402051Y-104847784D01*
X155700125Y-104648617D01*
X155953617Y-104395125D01*
X156152784Y-104097051D01*
X156289972Y-103765848D01*
X156359910Y-103414246D01*
X156359910Y-103243891D01*
X170815000Y-103243891D01*
X170815000Y-103556109D01*
X170875911Y-103862327D01*
X170995391Y-104150779D01*
X171168850Y-104410379D01*
X171389621Y-104631150D01*
X171649221Y-104804609D01*
X171937673Y-104924089D01*
X172243891Y-104985000D01*
X172556109Y-104985000D01*
X172862327Y-104924089D01*
X173150779Y-104804609D01*
X173410379Y-104631150D01*
X173631150Y-104410379D01*
X173804609Y-104150779D01*
X173924089Y-103862327D01*
X173985000Y-103556109D01*
X173985000Y-103243891D01*
X173924089Y-102937673D01*
X173804609Y-102649221D01*
X173631150Y-102389621D01*
X173410379Y-102168850D01*
X173150779Y-101995391D01*
X172862327Y-101875911D01*
X172556109Y-101815000D01*
X172243891Y-101815000D01*
X171937673Y-101875911D01*
X171649221Y-101995391D01*
X171389621Y-102168850D01*
X171168850Y-102389621D01*
X170995391Y-102649221D01*
X170875911Y-102937673D01*
X170815000Y-103243891D01*
X156359910Y-103243891D01*
X156359910Y-103055754D01*
X156289972Y-102704152D01*
X156152784Y-102372949D01*
X155953617Y-102074875D01*
X155700125Y-101821383D01*
X155441034Y-101648263D01*
X155700935Y-101474603D01*
X155954603Y-101220935D01*
X156102392Y-100999752D01*
X171479853Y-100999752D01*
X171569579Y-101259042D01*
X171850671Y-101394935D01*
X172152873Y-101473379D01*
X172464573Y-101491359D01*
X172773791Y-101448184D01*
X173068644Y-101345513D01*
X173230421Y-101259042D01*
X173320147Y-100999752D01*
X172400000Y-100079605D01*
X171479853Y-100999752D01*
X156102392Y-100999752D01*
X156153909Y-100922652D01*
X156291193Y-100591219D01*
X156361180Y-100239371D01*
X156361180Y-99880629D01*
X156291193Y-99528781D01*
X156260088Y-99453685D01*
X159022100Y-99453685D01*
X159022100Y-99646315D01*
X159059680Y-99835243D01*
X159133396Y-100013210D01*
X159240415Y-100173375D01*
X159376625Y-100309585D01*
X159536790Y-100416604D01*
X159714757Y-100490320D01*
X159903685Y-100527900D01*
X160096315Y-100527900D01*
X160285243Y-100490320D01*
X160463210Y-100416604D01*
X160623375Y-100309585D01*
X160759585Y-100173375D01*
X160866604Y-100013210D01*
X160886750Y-99964573D01*
X170808641Y-99964573D01*
X170851816Y-100273791D01*
X170954487Y-100568644D01*
X171040958Y-100730421D01*
X171300248Y-100820147D01*
X172220395Y-99900000D01*
X172579605Y-99900000D01*
X173499752Y-100820147D01*
X173759042Y-100730421D01*
X173894935Y-100449329D01*
X173973379Y-100147127D01*
X173991359Y-99835427D01*
X173948184Y-99526209D01*
X173845513Y-99231356D01*
X173759042Y-99069579D01*
X173499752Y-98979853D01*
X172579605Y-99900000D01*
X172220395Y-99900000D01*
X171300248Y-98979853D01*
X171040958Y-99069579D01*
X170905065Y-99350671D01*
X170826621Y-99652873D01*
X170808641Y-99964573D01*
X160886750Y-99964573D01*
X160940320Y-99835243D01*
X160977900Y-99646315D01*
X160977900Y-99453685D01*
X160940320Y-99264757D01*
X160866604Y-99086790D01*
X160759585Y-98926625D01*
X160633208Y-98800248D01*
X171479853Y-98800248D01*
X172400000Y-99720395D01*
X173320147Y-98800248D01*
X173230421Y-98540958D01*
X172949329Y-98405065D01*
X172647127Y-98326621D01*
X172335427Y-98308641D01*
X172026209Y-98351816D01*
X171731356Y-98454487D01*
X171569579Y-98540958D01*
X171479853Y-98800248D01*
X160633208Y-98800248D01*
X160623375Y-98790415D01*
X160463210Y-98683396D01*
X160285243Y-98609680D01*
X160096315Y-98572100D01*
X159903685Y-98572100D01*
X159714757Y-98609680D01*
X159536790Y-98683396D01*
X159376625Y-98790415D01*
X159240415Y-98926625D01*
X159133396Y-99086790D01*
X159059680Y-99264757D01*
X159022100Y-99453685D01*
X156260088Y-99453685D01*
X156153909Y-99197348D01*
X155954603Y-98899065D01*
X155700935Y-98645397D01*
X155402652Y-98446091D01*
X155071219Y-98308807D01*
X154719371Y-98238820D01*
X154360629Y-98238820D01*
X154008781Y-98308807D01*
X153898143Y-98354635D01*
X153870320Y-98214757D01*
X153796604Y-98036790D01*
X153689585Y-97876625D01*
X153553375Y-97740415D01*
X153393210Y-97633396D01*
X153215243Y-97559680D01*
X153026315Y-97522100D01*
X152833685Y-97522100D01*
X152644757Y-97559680D01*
X152466790Y-97633396D01*
X152306625Y-97740415D01*
X152170415Y-97876625D01*
X152063396Y-98036790D01*
X152000000Y-98189842D01*
X151936604Y-98036790D01*
X151829585Y-97876625D01*
X151693375Y-97740415D01*
X151533210Y-97633396D01*
X151355243Y-97559680D01*
X151166315Y-97522100D01*
X150973685Y-97522100D01*
X150784757Y-97559680D01*
X150606790Y-97633396D01*
X150446625Y-97740415D01*
X150310415Y-97876625D01*
X150203396Y-98036790D01*
X150129680Y-98214757D01*
X150092100Y-98403685D01*
X150092100Y-98478968D01*
X149990848Y-98437028D01*
X149639246Y-98367090D01*
X149280754Y-98367090D01*
X148929152Y-98437028D01*
X148597949Y-98574216D01*
X148299875Y-98773383D01*
X148046383Y-99026875D01*
X147847216Y-99324949D01*
X147710028Y-99656152D01*
X147640090Y-100007754D01*
X144951285Y-100007754D01*
X145023375Y-99959585D01*
X145159585Y-99823375D01*
X145266604Y-99663210D01*
X145340320Y-99485243D01*
X145377900Y-99296315D01*
X145377900Y-99103685D01*
X145340320Y-98914757D01*
X145266604Y-98736790D01*
X145159585Y-98576625D01*
X145023375Y-98440415D01*
X144863210Y-98333396D01*
X144685243Y-98259680D01*
X144496315Y-98222100D01*
X144303685Y-98222100D01*
X144114757Y-98259680D01*
X143936790Y-98333396D01*
X143776625Y-98440415D01*
X143640415Y-98576625D01*
X143533396Y-98736790D01*
X143459680Y-98914757D01*
X143422100Y-99103685D01*
X138216488Y-99103685D01*
X138227900Y-99046315D01*
X138227900Y-98853685D01*
X138190320Y-98664757D01*
X138116604Y-98486790D01*
X138025204Y-98350000D01*
X138116604Y-98213210D01*
X138190320Y-98035243D01*
X138227900Y-97846315D01*
X138227900Y-97653685D01*
X138190320Y-97464757D01*
X138116604Y-97286790D01*
X138009585Y-97126625D01*
X137873375Y-96990415D01*
X137713210Y-96883396D01*
X137535243Y-96809680D01*
X137346315Y-96772100D01*
X137153685Y-96772100D01*
X136964757Y-96809680D01*
X136786790Y-96883396D01*
X136626625Y-96990415D01*
X136490415Y-97126625D01*
X136383396Y-97286790D01*
X136309680Y-97464757D01*
X136272100Y-97653685D01*
X134115024Y-97653685D01*
X134066604Y-97536790D01*
X133959585Y-97376625D01*
X133823375Y-97240415D01*
X133663210Y-97133396D01*
X133485243Y-97059680D01*
X133296315Y-97022100D01*
X133103685Y-97022100D01*
X132914757Y-97059680D01*
X132736790Y-97133396D01*
X132576625Y-97240415D01*
X132440415Y-97376625D01*
X132333396Y-97536790D01*
X132259680Y-97714757D01*
X132222100Y-97903685D01*
X128387000Y-97903685D01*
X128387000Y-94603685D01*
X144272100Y-94603685D01*
X144272100Y-94796315D01*
X144309680Y-94985243D01*
X144383396Y-95163210D01*
X144490415Y-95323375D01*
X144626625Y-95459585D01*
X144786790Y-95566604D01*
X144964757Y-95640320D01*
X145153685Y-95677900D01*
X145346315Y-95677900D01*
X145535243Y-95640320D01*
X145623688Y-95603685D01*
X157622100Y-95603685D01*
X157622100Y-95796315D01*
X157659680Y-95985243D01*
X157733396Y-96163210D01*
X157840415Y-96323375D01*
X157976625Y-96459585D01*
X158136790Y-96566604D01*
X158314757Y-96640320D01*
X158503685Y-96677900D01*
X158696315Y-96677900D01*
X158885243Y-96640320D01*
X159063210Y-96566604D01*
X159154017Y-96505929D01*
X159133396Y-96536790D01*
X159059680Y-96714757D01*
X159022100Y-96903685D01*
X159022100Y-97096315D01*
X159059680Y-97285243D01*
X159133396Y-97463210D01*
X159240415Y-97623375D01*
X159376625Y-97759585D01*
X159536790Y-97866604D01*
X159714757Y-97940320D01*
X159903685Y-97977900D01*
X160096315Y-97977900D01*
X160285243Y-97940320D01*
X160463210Y-97866604D01*
X160623375Y-97759585D01*
X160759585Y-97623375D01*
X160866604Y-97463210D01*
X160940320Y-97285243D01*
X160977900Y-97096315D01*
X160977900Y-96903685D01*
X161422100Y-96903685D01*
X161422100Y-97096315D01*
X161459680Y-97285243D01*
X161533396Y-97463210D01*
X161640415Y-97623375D01*
X161776625Y-97759585D01*
X161936790Y-97866604D01*
X162114757Y-97940320D01*
X162303685Y-97977900D01*
X162496315Y-97977900D01*
X162685243Y-97940320D01*
X162863210Y-97866604D01*
X163023375Y-97759585D01*
X163159585Y-97623375D01*
X163266604Y-97463210D01*
X163340320Y-97285243D01*
X163377900Y-97096315D01*
X163377900Y-96903685D01*
X163340320Y-96714757D01*
X163266604Y-96536790D01*
X163159585Y-96376625D01*
X163023375Y-96240415D01*
X162863210Y-96133396D01*
X162685243Y-96059680D01*
X162496315Y-96022100D01*
X162303685Y-96022100D01*
X162114757Y-96059680D01*
X161936790Y-96133396D01*
X161776625Y-96240415D01*
X161640415Y-96376625D01*
X161533396Y-96536790D01*
X161459680Y-96714757D01*
X161422100Y-96903685D01*
X160977900Y-96903685D01*
X160940320Y-96714757D01*
X160866604Y-96536790D01*
X160759585Y-96376625D01*
X160623375Y-96240415D01*
X160463210Y-96133396D01*
X160285243Y-96059680D01*
X160096315Y-96022100D01*
X159903685Y-96022100D01*
X159714757Y-96059680D01*
X159536790Y-96133396D01*
X159445983Y-96194071D01*
X159466604Y-96163210D01*
X159540320Y-95985243D01*
X159577900Y-95796315D01*
X159577900Y-95603685D01*
X159540320Y-95414757D01*
X159466604Y-95236790D01*
X159359585Y-95076625D01*
X159223375Y-94940415D01*
X159063210Y-94833396D01*
X158885243Y-94759680D01*
X158696315Y-94722100D01*
X158503685Y-94722100D01*
X158314757Y-94759680D01*
X158136790Y-94833396D01*
X157976625Y-94940415D01*
X157840415Y-95076625D01*
X157733396Y-95236790D01*
X157659680Y-95414757D01*
X157622100Y-95603685D01*
X145623688Y-95603685D01*
X145713210Y-95566604D01*
X145873375Y-95459585D01*
X146009585Y-95323375D01*
X146116604Y-95163210D01*
X146190320Y-94985243D01*
X146227900Y-94796315D01*
X146227900Y-94603685D01*
X146190320Y-94414757D01*
X146116604Y-94236790D01*
X146009585Y-94076625D01*
X145873375Y-93940415D01*
X145713210Y-93833396D01*
X145535243Y-93759680D01*
X145346315Y-93722100D01*
X145153685Y-93722100D01*
X144964757Y-93759680D01*
X144786790Y-93833396D01*
X144626625Y-93940415D01*
X144490415Y-94076625D01*
X144383396Y-94236790D01*
X144309680Y-94414757D01*
X144272100Y-94603685D01*
X128387000Y-94603685D01*
X128387000Y-92303685D01*
X169022100Y-92303685D01*
X169022100Y-92496315D01*
X169059680Y-92685243D01*
X169133396Y-92863210D01*
X169240415Y-93023375D01*
X169376625Y-93159585D01*
X169536790Y-93266604D01*
X169714757Y-93340320D01*
X169903685Y-93377900D01*
X170096315Y-93377900D01*
X170285243Y-93340320D01*
X170463210Y-93266604D01*
X170623375Y-93159585D01*
X170759585Y-93023375D01*
X170866604Y-92863210D01*
X170940320Y-92685243D01*
X170977900Y-92496315D01*
X170977900Y-92303685D01*
X170940320Y-92114757D01*
X170866604Y-91936790D01*
X170759585Y-91776625D01*
X170623375Y-91640415D01*
X170463210Y-91533396D01*
X170285243Y-91459680D01*
X170096315Y-91422100D01*
X169903685Y-91422100D01*
X169714757Y-91459680D01*
X169536790Y-91533396D01*
X169376625Y-91640415D01*
X169240415Y-91776625D01*
X169133396Y-91936790D01*
X169059680Y-92114757D01*
X169022100Y-92303685D01*
X128387000Y-92303685D01*
X128387000Y-91597000D01*
X158160000Y-91597000D01*
X158184776Y-91594560D01*
X158208601Y-91587333D01*
X158230557Y-91575597D01*
X158249803Y-91559803D01*
X158265597Y-91540557D01*
X158277333Y-91518601D01*
X158284560Y-91494776D01*
X158287000Y-91470000D01*
X158287000Y-86763685D01*
X173202100Y-86763685D01*
X173202100Y-86956315D01*
X173239680Y-87145243D01*
X173313396Y-87323210D01*
X173420415Y-87483375D01*
X173556625Y-87619585D01*
X173716790Y-87726604D01*
X173894757Y-87800320D01*
X174083685Y-87837900D01*
X174126550Y-87837900D01*
X174107832Y-87883088D01*
X174045000Y-88198967D01*
X174045000Y-88521033D01*
X174107832Y-88836912D01*
X174126550Y-88882100D01*
X174083685Y-88882100D01*
X173894757Y-88919680D01*
X173716790Y-88993396D01*
X173556625Y-89100415D01*
X173420415Y-89236625D01*
X173313396Y-89396790D01*
X173239680Y-89574757D01*
X173202100Y-89763685D01*
X173202100Y-89956315D01*
X173239680Y-90145243D01*
X173313396Y-90323210D01*
X173420415Y-90483375D01*
X173556625Y-90619585D01*
X173716790Y-90726604D01*
X173894757Y-90800320D01*
X174083685Y-90837900D01*
X174276315Y-90837900D01*
X174465243Y-90800320D01*
X174643210Y-90726604D01*
X174803375Y-90619585D01*
X174939585Y-90483375D01*
X175046604Y-90323210D01*
X175120320Y-90145243D01*
X175157900Y-89956315D01*
X175157900Y-89913450D01*
X175203088Y-89932168D01*
X175518967Y-89995000D01*
X175841033Y-89995000D01*
X176156912Y-89932168D01*
X176454463Y-89808918D01*
X176722252Y-89629987D01*
X176949987Y-89402252D01*
X177128918Y-89134463D01*
X177252168Y-88836912D01*
X177315000Y-88521033D01*
X177315000Y-88198967D01*
X177252168Y-87883088D01*
X177128918Y-87585537D01*
X176949987Y-87317748D01*
X176722252Y-87090013D01*
X176454463Y-86911082D01*
X176156912Y-86787832D01*
X175841033Y-86725000D01*
X175518967Y-86725000D01*
X175203088Y-86787832D01*
X175157900Y-86806550D01*
X175157900Y-86763685D01*
X175120320Y-86574757D01*
X175046604Y-86396790D01*
X174939585Y-86236625D01*
X174803375Y-86100415D01*
X174643210Y-85993396D01*
X174465243Y-85919680D01*
X174276315Y-85882100D01*
X174083685Y-85882100D01*
X173894757Y-85919680D01*
X173716790Y-85993396D01*
X173556625Y-86100415D01*
X173420415Y-86236625D01*
X173313396Y-86396790D01*
X173239680Y-86574757D01*
X173202100Y-86763685D01*
X158287000Y-86763685D01*
X158287000Y-79335413D01*
X174724192Y-79335413D01*
X174819956Y-79599814D01*
X175109571Y-79740704D01*
X175421108Y-79822384D01*
X175742595Y-79841718D01*
X176061675Y-79797961D01*
X176366088Y-79692795D01*
X176540044Y-79599814D01*
X176635808Y-79335413D01*
X175680000Y-78379605D01*
X174724192Y-79335413D01*
X158287000Y-79335413D01*
X158287000Y-78262595D01*
X174038282Y-78262595D01*
X174082039Y-78581675D01*
X174187205Y-78886088D01*
X174280186Y-79060044D01*
X174544587Y-79155808D01*
X175500395Y-78200000D01*
X175859605Y-78200000D01*
X176815413Y-79155808D01*
X177079814Y-79060044D01*
X177220704Y-78770429D01*
X177302384Y-78458892D01*
X177321718Y-78137405D01*
X177277961Y-77818325D01*
X177172795Y-77513912D01*
X177079814Y-77339956D01*
X176815413Y-77244192D01*
X175859605Y-78200000D01*
X175500395Y-78200000D01*
X174544587Y-77244192D01*
X174280186Y-77339956D01*
X174139296Y-77629571D01*
X174057616Y-77941108D01*
X174038282Y-78262595D01*
X158287000Y-78262595D01*
X158287000Y-77064587D01*
X174724192Y-77064587D01*
X175680000Y-78020395D01*
X176635808Y-77064587D01*
X176540044Y-76800186D01*
X176250429Y-76659296D01*
X175938892Y-76577616D01*
X175617405Y-76558282D01*
X175298325Y-76602039D01*
X174993912Y-76707205D01*
X174819956Y-76800186D01*
X174724192Y-77064587D01*
X158287000Y-77064587D01*
X158287000Y-67878967D01*
X174045000Y-67878967D01*
X174045000Y-68201033D01*
X174107832Y-68516912D01*
X174231082Y-68814463D01*
X174410013Y-69082252D01*
X174637748Y-69309987D01*
X174905537Y-69488918D01*
X175203088Y-69612168D01*
X175518967Y-69675000D01*
X175841033Y-69675000D01*
X176156912Y-69612168D01*
X176454463Y-69488918D01*
X176722252Y-69309987D01*
X176949987Y-69082252D01*
X177128918Y-68814463D01*
X177252168Y-68516912D01*
X177315000Y-68201033D01*
X177315000Y-67878967D01*
X177252168Y-67563088D01*
X177128918Y-67265537D01*
X176949987Y-66997748D01*
X176722252Y-66770013D01*
X176454463Y-66591082D01*
X176156912Y-66467832D01*
X175841033Y-66405000D01*
X175518967Y-66405000D01*
X175203088Y-66467832D01*
X174905537Y-66591082D01*
X174637748Y-66770013D01*
X174410013Y-66997748D01*
X174231082Y-67265537D01*
X174107832Y-67563088D01*
X174045000Y-67878967D01*
X158287000Y-67878967D01*
X158287000Y-66210000D01*
X177165278Y-66210000D01*
X177255665Y-66218863D01*
G36*
X157513000Y-139990000D02*
G01*
X128387571Y-139990000D01*
X128391824Y-134698363D01*
X142565000Y-134698363D01*
X142565000Y-134941637D01*
X142612460Y-135180236D01*
X142705557Y-135404992D01*
X142840713Y-135607267D01*
X143012733Y-135779287D01*
X143215008Y-135914443D01*
X143439764Y-136007540D01*
X143678363Y-136055000D01*
X143921637Y-136055000D01*
X144160236Y-136007540D01*
X144384992Y-135914443D01*
X144587267Y-135779287D01*
X144759287Y-135607267D01*
X144894443Y-135404992D01*
X144987540Y-135180236D01*
X145035000Y-134941637D01*
X145035000Y-134698363D01*
X146965000Y-134698363D01*
X146965000Y-134941637D01*
X147012460Y-135180236D01*
X147105557Y-135404992D01*
X147240713Y-135607267D01*
X147412733Y-135779287D01*
X147615008Y-135914443D01*
X147839764Y-136007540D01*
X148078363Y-136055000D01*
X148321637Y-136055000D01*
X148560236Y-136007540D01*
X148784992Y-135914443D01*
X148987267Y-135779287D01*
X149159287Y-135607267D01*
X149294443Y-135404992D01*
X149387540Y-135180236D01*
X149435000Y-134941637D01*
X149435000Y-134698363D01*
X149387540Y-134459764D01*
X149294443Y-134235008D01*
X149159287Y-134032733D01*
X148987267Y-133860713D01*
X148784992Y-133725557D01*
X148560236Y-133632460D01*
X148321637Y-133585000D01*
X148078363Y-133585000D01*
X147839764Y-133632460D01*
X147615008Y-133725557D01*
X147412733Y-133860713D01*
X147240713Y-134032733D01*
X147105557Y-134235008D01*
X147012460Y-134459764D01*
X146965000Y-134698363D01*
X145035000Y-134698363D01*
X144987540Y-134459764D01*
X144894443Y-134235008D01*
X144759287Y-134032733D01*
X144587267Y-133860713D01*
X144384992Y-133725557D01*
X144160236Y-133632460D01*
X143921637Y-133585000D01*
X143678363Y-133585000D01*
X143439764Y-133632460D01*
X143215008Y-133725557D01*
X143012733Y-133860713D01*
X142840713Y-134032733D01*
X142705557Y-134235008D01*
X142612460Y-134459764D01*
X142565000Y-134698363D01*
X128391824Y-134698363D01*
X128393387Y-132753685D01*
X130822100Y-132753685D01*
X130822100Y-132946315D01*
X130859680Y-133135243D01*
X130933396Y-133313210D01*
X131040415Y-133473375D01*
X131176625Y-133609585D01*
X131336790Y-133716604D01*
X131514757Y-133790320D01*
X131703685Y-133827900D01*
X131896315Y-133827900D01*
X132085243Y-133790320D01*
X132263210Y-133716604D01*
X132423375Y-133609585D01*
X132559585Y-133473375D01*
X132666604Y-133313210D01*
X132740320Y-133135243D01*
X132777900Y-132946315D01*
X132777900Y-132753685D01*
X137222100Y-132753685D01*
X137222100Y-132946315D01*
X137259680Y-133135243D01*
X137333396Y-133313210D01*
X137440415Y-133473375D01*
X137576625Y-133609585D01*
X137736790Y-133716604D01*
X137914757Y-133790320D01*
X138103685Y-133827900D01*
X138296315Y-133827900D01*
X138485243Y-133790320D01*
X138663210Y-133716604D01*
X138823375Y-133609585D01*
X138959585Y-133473375D01*
X139066604Y-133313210D01*
X139140320Y-133135243D01*
X139177900Y-132946315D01*
X139177900Y-132753685D01*
X139140320Y-132564757D01*
X139066604Y-132386790D01*
X138959585Y-132226625D01*
X138823375Y-132090415D01*
X138663210Y-131983396D01*
X138485243Y-131909680D01*
X138296315Y-131872100D01*
X138103685Y-131872100D01*
X137914757Y-131909680D01*
X137736790Y-131983396D01*
X137576625Y-132090415D01*
X137440415Y-132226625D01*
X137333396Y-132386790D01*
X137259680Y-132564757D01*
X137222100Y-132753685D01*
X132777900Y-132753685D01*
X132740320Y-132564757D01*
X132666604Y-132386790D01*
X132559585Y-132226625D01*
X132423375Y-132090415D01*
X132263210Y-131983396D01*
X132085243Y-131909680D01*
X131896315Y-131872100D01*
X131703685Y-131872100D01*
X131514757Y-131909680D01*
X131336790Y-131983396D01*
X131176625Y-132090415D01*
X131040415Y-132226625D01*
X130933396Y-132386790D01*
X130859680Y-132564757D01*
X130822100Y-132753685D01*
X128393387Y-132753685D01*
X128395477Y-130153685D01*
X132322100Y-130153685D01*
X132322100Y-130346315D01*
X132359680Y-130535243D01*
X132433396Y-130713210D01*
X132540415Y-130873375D01*
X132676625Y-131009585D01*
X132836790Y-131116604D01*
X133014757Y-131190320D01*
X133203685Y-131227900D01*
X133396315Y-131227900D01*
X133585243Y-131190320D01*
X133763210Y-131116604D01*
X133923375Y-131009585D01*
X134059585Y-130873375D01*
X134166604Y-130713210D01*
X134240320Y-130535243D01*
X134277900Y-130346315D01*
X134277900Y-130153685D01*
X135722100Y-130153685D01*
X135722100Y-130346315D01*
X135759680Y-130535243D01*
X135833396Y-130713210D01*
X135940415Y-130873375D01*
X136076625Y-131009585D01*
X136236790Y-131116604D01*
X136414757Y-131190320D01*
X136603685Y-131227900D01*
X136796315Y-131227900D01*
X136985243Y-131190320D01*
X137163210Y-131116604D01*
X137323375Y-131009585D01*
X137459585Y-130873375D01*
X137566604Y-130713210D01*
X137640320Y-130535243D01*
X137677900Y-130346315D01*
X137677900Y-130153685D01*
X137640320Y-129964757D01*
X137566604Y-129786790D01*
X137459585Y-129626625D01*
X137323375Y-129490415D01*
X137163210Y-129383396D01*
X136985243Y-129309680D01*
X136796315Y-129272100D01*
X136603685Y-129272100D01*
X136414757Y-129309680D01*
X136236790Y-129383396D01*
X136076625Y-129490415D01*
X135940415Y-129626625D01*
X135833396Y-129786790D01*
X135759680Y-129964757D01*
X135722100Y-130153685D01*
X134277900Y-130153685D01*
X134240320Y-129964757D01*
X134166604Y-129786790D01*
X134059585Y-129626625D01*
X133923375Y-129490415D01*
X133763210Y-129383396D01*
X133585243Y-129309680D01*
X133396315Y-129272100D01*
X133203685Y-129272100D01*
X133014757Y-129309680D01*
X132836790Y-129383396D01*
X132676625Y-129490415D01*
X132540415Y-129626625D01*
X132433396Y-129786790D01*
X132359680Y-129964757D01*
X132322100Y-130153685D01*
X128395477Y-130153685D01*
X128396603Y-128753685D01*
X144222100Y-128753685D01*
X144222100Y-128946315D01*
X144259680Y-129135243D01*
X144333396Y-129313210D01*
X144440415Y-129473375D01*
X144576625Y-129609585D01*
X144736790Y-129716604D01*
X144914757Y-129790320D01*
X145103685Y-129827900D01*
X145296315Y-129827900D01*
X145485243Y-129790320D01*
X145663210Y-129716604D01*
X145823375Y-129609585D01*
X145959585Y-129473375D01*
X146006150Y-129403685D01*
X150122100Y-129403685D01*
X150122100Y-129596315D01*
X150159680Y-129785243D01*
X150233396Y-129963210D01*
X150340415Y-130123375D01*
X150476625Y-130259585D01*
X150636790Y-130366604D01*
X150814757Y-130440320D01*
X151003685Y-130477900D01*
X151196315Y-130477900D01*
X151385243Y-130440320D01*
X151563210Y-130366604D01*
X151723375Y-130259585D01*
X151859585Y-130123375D01*
X151966604Y-129963210D01*
X152040320Y-129785243D01*
X152077900Y-129596315D01*
X152077900Y-129403685D01*
X152040320Y-129214757D01*
X151966604Y-129036790D01*
X151859585Y-128876625D01*
X151723375Y-128740415D01*
X151563210Y-128633396D01*
X151385243Y-128559680D01*
X151196315Y-128522100D01*
X151003685Y-128522100D01*
X150814757Y-128559680D01*
X150636790Y-128633396D01*
X150476625Y-128740415D01*
X150340415Y-128876625D01*
X150233396Y-129036790D01*
X150159680Y-129214757D01*
X150122100Y-129403685D01*
X146006150Y-129403685D01*
X146066604Y-129313210D01*
X146140320Y-129135243D01*
X146177900Y-128946315D01*
X146177900Y-128753685D01*
X146140320Y-128564757D01*
X146066604Y-128386790D01*
X145959585Y-128226625D01*
X145823375Y-128090415D01*
X145663210Y-127983396D01*
X145485243Y-127909680D01*
X145296315Y-127872100D01*
X145103685Y-127872100D01*
X144914757Y-127909680D01*
X144736790Y-127983396D01*
X144576625Y-128090415D01*
X144440415Y-128226625D01*
X144333396Y-128386790D01*
X144259680Y-128564757D01*
X144222100Y-128753685D01*
X128396603Y-128753685D01*
X128396898Y-128387000D01*
X137260000Y-128387000D01*
X137284776Y-128384560D01*
X137308601Y-128377333D01*
X137330557Y-128365597D01*
X137349803Y-128349803D01*
X137365597Y-128330557D01*
X137377333Y-128308601D01*
X137384560Y-128284776D01*
X137387000Y-128260000D01*
X137387000Y-127353685D01*
X137497100Y-127353685D01*
X137497100Y-127546315D01*
X137534680Y-127735243D01*
X137608396Y-127913210D01*
X137715415Y-128073375D01*
X137851625Y-128209585D01*
X138011790Y-128316604D01*
X138189757Y-128390320D01*
X138378685Y-128427900D01*
X138571315Y-128427900D01*
X138760243Y-128390320D01*
X138938210Y-128316604D01*
X139098375Y-128209585D01*
X139234585Y-128073375D01*
X139341604Y-127913210D01*
X139415320Y-127735243D01*
X139452900Y-127546315D01*
X139452900Y-127353685D01*
X142522100Y-127353685D01*
X142522100Y-127546315D01*
X142559680Y-127735243D01*
X142633396Y-127913210D01*
X142740415Y-128073375D01*
X142876625Y-128209585D01*
X143036790Y-128316604D01*
X143214757Y-128390320D01*
X143403685Y-128427900D01*
X143596315Y-128427900D01*
X143785243Y-128390320D01*
X143963210Y-128316604D01*
X144123375Y-128209585D01*
X144259585Y-128073375D01*
X144366604Y-127913210D01*
X144440320Y-127735243D01*
X144477900Y-127546315D01*
X144477900Y-127353685D01*
X144440320Y-127164757D01*
X144366604Y-126986790D01*
X144259585Y-126826625D01*
X144123375Y-126690415D01*
X143963210Y-126583396D01*
X143785243Y-126509680D01*
X143596315Y-126472100D01*
X143403685Y-126472100D01*
X143214757Y-126509680D01*
X143036790Y-126583396D01*
X142876625Y-126690415D01*
X142740415Y-126826625D01*
X142633396Y-126986790D01*
X142559680Y-127164757D01*
X142522100Y-127353685D01*
X139452900Y-127353685D01*
X139415320Y-127164757D01*
X139341604Y-126986790D01*
X139234585Y-126826625D01*
X139098375Y-126690415D01*
X138938210Y-126583396D01*
X138760243Y-126509680D01*
X138571315Y-126472100D01*
X138378685Y-126472100D01*
X138189757Y-126509680D01*
X138011790Y-126583396D01*
X137851625Y-126690415D01*
X137715415Y-126826625D01*
X137608396Y-126986790D01*
X137534680Y-127164757D01*
X137497100Y-127353685D01*
X137387000Y-127353685D01*
X137387000Y-125453685D01*
X147522100Y-125453685D01*
X147522100Y-125646315D01*
X147559680Y-125835243D01*
X147633396Y-126013210D01*
X147740415Y-126173375D01*
X147876625Y-126309585D01*
X148036790Y-126416604D01*
X148214757Y-126490320D01*
X148263422Y-126500000D01*
X148214757Y-126509680D01*
X148036790Y-126583396D01*
X147876625Y-126690415D01*
X147740415Y-126826625D01*
X147633396Y-126986790D01*
X147559680Y-127164757D01*
X147522100Y-127353685D01*
X147522100Y-127546315D01*
X147559680Y-127735243D01*
X147633396Y-127913210D01*
X147740415Y-128073375D01*
X147876625Y-128209585D01*
X148036790Y-128316604D01*
X148214757Y-128390320D01*
X148403685Y-128427900D01*
X148596315Y-128427900D01*
X148785243Y-128390320D01*
X148963210Y-128316604D01*
X149123375Y-128209585D01*
X149259585Y-128073375D01*
X149366604Y-127913210D01*
X149440320Y-127735243D01*
X149477900Y-127546315D01*
X149477900Y-127353685D01*
X149440320Y-127164757D01*
X149366604Y-126986790D01*
X149259585Y-126826625D01*
X149123375Y-126690415D01*
X148963210Y-126583396D01*
X148785243Y-126509680D01*
X148736578Y-126500000D01*
X148785243Y-126490320D01*
X148963210Y-126416604D01*
X149123375Y-126309585D01*
X149259585Y-126173375D01*
X149366604Y-126013210D01*
X149440320Y-125835243D01*
X149477900Y-125646315D01*
X149477900Y-125453685D01*
X149440320Y-125264757D01*
X149366604Y-125086790D01*
X149259585Y-124926625D01*
X149123375Y-124790415D01*
X148963210Y-124683396D01*
X148785243Y-124609680D01*
X148596315Y-124572100D01*
X148403685Y-124572100D01*
X148214757Y-124609680D01*
X148036790Y-124683396D01*
X147876625Y-124790415D01*
X147740415Y-124926625D01*
X147633396Y-125086790D01*
X147559680Y-125264757D01*
X147522100Y-125453685D01*
X137387000Y-125453685D01*
X137387000Y-123753685D01*
X143922100Y-123753685D01*
X143922100Y-123946315D01*
X143959680Y-124135243D01*
X144033396Y-124313210D01*
X144140415Y-124473375D01*
X144276625Y-124609585D01*
X144436790Y-124716604D01*
X144614757Y-124790320D01*
X144803685Y-124827900D01*
X144996315Y-124827900D01*
X145185243Y-124790320D01*
X145363210Y-124716604D01*
X145523375Y-124609585D01*
X145659585Y-124473375D01*
X145766604Y-124313210D01*
X145840320Y-124135243D01*
X145877900Y-123946315D01*
X145877900Y-123753685D01*
X145840320Y-123564757D01*
X145766604Y-123386790D01*
X145659585Y-123226625D01*
X145523375Y-123090415D01*
X145363210Y-122983396D01*
X145185243Y-122909680D01*
X144996315Y-122872100D01*
X144803685Y-122872100D01*
X144614757Y-122909680D01*
X144436790Y-122983396D01*
X144276625Y-123090415D01*
X144140415Y-123226625D01*
X144033396Y-123386790D01*
X143959680Y-123564757D01*
X143922100Y-123753685D01*
X137387000Y-123753685D01*
X137387000Y-121903685D01*
X148022100Y-121903685D01*
X148022100Y-122096315D01*
X148059680Y-122285243D01*
X148133396Y-122463210D01*
X148240415Y-122623375D01*
X148376625Y-122759585D01*
X148536790Y-122866604D01*
X148714757Y-122940320D01*
X148903685Y-122977900D01*
X149096315Y-122977900D01*
X149285243Y-122940320D01*
X149463210Y-122866604D01*
X149623375Y-122759585D01*
X149759585Y-122623375D01*
X149866604Y-122463210D01*
X149940320Y-122285243D01*
X149977900Y-122096315D01*
X149977900Y-121903685D01*
X149940320Y-121714757D01*
X149866604Y-121536790D01*
X149759585Y-121376625D01*
X149623375Y-121240415D01*
X149463210Y-121133396D01*
X149285243Y-121059680D01*
X149096315Y-121022100D01*
X148903685Y-121022100D01*
X148714757Y-121059680D01*
X148536790Y-121133396D01*
X148376625Y-121240415D01*
X148240415Y-121376625D01*
X148133396Y-121536790D01*
X148059680Y-121714757D01*
X148022100Y-121903685D01*
X137387000Y-121903685D01*
X137387000Y-120403685D01*
X150122100Y-120403685D01*
X150122100Y-120596315D01*
X150159680Y-120785243D01*
X150233396Y-120963210D01*
X150340415Y-121123375D01*
X150476625Y-121259585D01*
X150636790Y-121366604D01*
X150814757Y-121440320D01*
X151003685Y-121477900D01*
X151196315Y-121477900D01*
X151385243Y-121440320D01*
X151563210Y-121366604D01*
X151723375Y-121259585D01*
X151859585Y-121123375D01*
X151966604Y-120963210D01*
X152040320Y-120785243D01*
X152077900Y-120596315D01*
X152077900Y-120403685D01*
X152040320Y-120214757D01*
X151966604Y-120036790D01*
X151859585Y-119876625D01*
X151723375Y-119740415D01*
X151563210Y-119633396D01*
X151385243Y-119559680D01*
X151196315Y-119522100D01*
X151003685Y-119522100D01*
X150814757Y-119559680D01*
X150636790Y-119633396D01*
X150476625Y-119740415D01*
X150340415Y-119876625D01*
X150233396Y-120036790D01*
X150159680Y-120214757D01*
X150122100Y-120403685D01*
X137387000Y-120403685D01*
X137387000Y-115728685D01*
X140322100Y-115728685D01*
X140322100Y-115921315D01*
X140359680Y-116110243D01*
X140433396Y-116288210D01*
X140540415Y-116448375D01*
X140676625Y-116584585D01*
X140836790Y-116691604D01*
X141014757Y-116765320D01*
X141203685Y-116802900D01*
X141396315Y-116802900D01*
X141585243Y-116765320D01*
X141763210Y-116691604D01*
X141923375Y-116584585D01*
X142059585Y-116448375D01*
X142166604Y-116288210D01*
X142240320Y-116110243D01*
X142277900Y-115921315D01*
X142277900Y-115728685D01*
X142247669Y-115576703D01*
X142253685Y-115577900D01*
X142446315Y-115577900D01*
X142635243Y-115540320D01*
X142813210Y-115466604D01*
X142973375Y-115359585D01*
X143109585Y-115223375D01*
X143216604Y-115063210D01*
X143290320Y-114885243D01*
X143327900Y-114696315D01*
X143327900Y-114503685D01*
X153522100Y-114503685D01*
X153522100Y-114696315D01*
X153559680Y-114885243D01*
X153633396Y-115063210D01*
X153740415Y-115223375D01*
X153876625Y-115359585D01*
X154036790Y-115466604D01*
X154214757Y-115540320D01*
X154403685Y-115577900D01*
X154596315Y-115577900D01*
X154785243Y-115540320D01*
X154963210Y-115466604D01*
X155123375Y-115359585D01*
X155259585Y-115223375D01*
X155366604Y-115063210D01*
X155440320Y-114885243D01*
X155477900Y-114696315D01*
X155477900Y-114503685D01*
X155440320Y-114314757D01*
X155366604Y-114136790D01*
X155259585Y-113976625D01*
X155123375Y-113840415D01*
X154963210Y-113733396D01*
X154785243Y-113659680D01*
X154596315Y-113622100D01*
X154403685Y-113622100D01*
X154214757Y-113659680D01*
X154036790Y-113733396D01*
X153876625Y-113840415D01*
X153740415Y-113976625D01*
X153633396Y-114136790D01*
X153559680Y-114314757D01*
X153522100Y-114503685D01*
X143327900Y-114503685D01*
X143290320Y-114314757D01*
X143216604Y-114136790D01*
X143109585Y-113976625D01*
X142973375Y-113840415D01*
X142813210Y-113733396D01*
X142635243Y-113659680D01*
X142446315Y-113622100D01*
X142253685Y-113622100D01*
X142064757Y-113659680D01*
X141886790Y-113733396D01*
X141726625Y-113840415D01*
X141590415Y-113976625D01*
X141483396Y-114136790D01*
X141409680Y-114314757D01*
X141372100Y-114503685D01*
X141372100Y-114696315D01*
X141402331Y-114848297D01*
X141396315Y-114847100D01*
X141203685Y-114847100D01*
X141014757Y-114884680D01*
X140836790Y-114958396D01*
X140676625Y-115065415D01*
X140540415Y-115201625D01*
X140433396Y-115361790D01*
X140359680Y-115539757D01*
X140322100Y-115728685D01*
X137387000Y-115728685D01*
X137387000Y-113303685D01*
X145772100Y-113303685D01*
X145772100Y-113496315D01*
X145809680Y-113685243D01*
X145883396Y-113863210D01*
X145990415Y-114023375D01*
X146126625Y-114159585D01*
X146286790Y-114266604D01*
X146464757Y-114340320D01*
X146653685Y-114377900D01*
X146846315Y-114377900D01*
X147035243Y-114340320D01*
X147213210Y-114266604D01*
X147373375Y-114159585D01*
X147509585Y-114023375D01*
X147616604Y-113863210D01*
X147690320Y-113685243D01*
X147727900Y-113496315D01*
X147727900Y-113303685D01*
X147690320Y-113114757D01*
X147616604Y-112936790D01*
X147509585Y-112776625D01*
X147373375Y-112640415D01*
X147213210Y-112533396D01*
X147035243Y-112459680D01*
X146846315Y-112422100D01*
X146653685Y-112422100D01*
X146464757Y-112459680D01*
X146286790Y-112533396D01*
X146126625Y-112640415D01*
X145990415Y-112776625D01*
X145883396Y-112936790D01*
X145809680Y-113114757D01*
X145772100Y-113303685D01*
X137387000Y-113303685D01*
X137387000Y-112387000D01*
X157513000Y-112387000D01*
X157513000Y-139990000D01*
G37*
X157513000Y-139990000D02*
X128387571Y-139990000D01*
X128391824Y-134698363D01*
X142565000Y-134698363D01*
X142565000Y-134941637D01*
X142612460Y-135180236D01*
X142705557Y-135404992D01*
X142840713Y-135607267D01*
X143012733Y-135779287D01*
X143215008Y-135914443D01*
X143439764Y-136007540D01*
X143678363Y-136055000D01*
X143921637Y-136055000D01*
X144160236Y-136007540D01*
X144384992Y-135914443D01*
X144587267Y-135779287D01*
X144759287Y-135607267D01*
X144894443Y-135404992D01*
X144987540Y-135180236D01*
X145035000Y-134941637D01*
X145035000Y-134698363D01*
X146965000Y-134698363D01*
X146965000Y-134941637D01*
X147012460Y-135180236D01*
X147105557Y-135404992D01*
X147240713Y-135607267D01*
X147412733Y-135779287D01*
X147615008Y-135914443D01*
X147839764Y-136007540D01*
X148078363Y-136055000D01*
X148321637Y-136055000D01*
X148560236Y-136007540D01*
X148784992Y-135914443D01*
X148987267Y-135779287D01*
X149159287Y-135607267D01*
X149294443Y-135404992D01*
X149387540Y-135180236D01*
X149435000Y-134941637D01*
X149435000Y-134698363D01*
X149387540Y-134459764D01*
X149294443Y-134235008D01*
X149159287Y-134032733D01*
X148987267Y-133860713D01*
X148784992Y-133725557D01*
X148560236Y-133632460D01*
X148321637Y-133585000D01*
X148078363Y-133585000D01*
X147839764Y-133632460D01*
X147615008Y-133725557D01*
X147412733Y-133860713D01*
X147240713Y-134032733D01*
X147105557Y-134235008D01*
X147012460Y-134459764D01*
X146965000Y-134698363D01*
X145035000Y-134698363D01*
X144987540Y-134459764D01*
X144894443Y-134235008D01*
X144759287Y-134032733D01*
X144587267Y-133860713D01*
X144384992Y-133725557D01*
X144160236Y-133632460D01*
X143921637Y-133585000D01*
X143678363Y-133585000D01*
X143439764Y-133632460D01*
X143215008Y-133725557D01*
X143012733Y-133860713D01*
X142840713Y-134032733D01*
X142705557Y-134235008D01*
X142612460Y-134459764D01*
X142565000Y-134698363D01*
X128391824Y-134698363D01*
X128393387Y-132753685D01*
X130822100Y-132753685D01*
X130822100Y-132946315D01*
X130859680Y-133135243D01*
X130933396Y-133313210D01*
X131040415Y-133473375D01*
X131176625Y-133609585D01*
X131336790Y-133716604D01*
X131514757Y-133790320D01*
X131703685Y-133827900D01*
X131896315Y-133827900D01*
X132085243Y-133790320D01*
X132263210Y-133716604D01*
X132423375Y-133609585D01*
X132559585Y-133473375D01*
X132666604Y-133313210D01*
X132740320Y-133135243D01*
X132777900Y-132946315D01*
X132777900Y-132753685D01*
X137222100Y-132753685D01*
X137222100Y-132946315D01*
X137259680Y-133135243D01*
X137333396Y-133313210D01*
X137440415Y-133473375D01*
X137576625Y-133609585D01*
X137736790Y-133716604D01*
X137914757Y-133790320D01*
X138103685Y-133827900D01*
X138296315Y-133827900D01*
X138485243Y-133790320D01*
X138663210Y-133716604D01*
X138823375Y-133609585D01*
X138959585Y-133473375D01*
X139066604Y-133313210D01*
X139140320Y-133135243D01*
X139177900Y-132946315D01*
X139177900Y-132753685D01*
X139140320Y-132564757D01*
X139066604Y-132386790D01*
X138959585Y-132226625D01*
X138823375Y-132090415D01*
X138663210Y-131983396D01*
X138485243Y-131909680D01*
X138296315Y-131872100D01*
X138103685Y-131872100D01*
X137914757Y-131909680D01*
X137736790Y-131983396D01*
X137576625Y-132090415D01*
X137440415Y-132226625D01*
X137333396Y-132386790D01*
X137259680Y-132564757D01*
X137222100Y-132753685D01*
X132777900Y-132753685D01*
X132740320Y-132564757D01*
X132666604Y-132386790D01*
X132559585Y-132226625D01*
X132423375Y-132090415D01*
X132263210Y-131983396D01*
X132085243Y-131909680D01*
X131896315Y-131872100D01*
X131703685Y-131872100D01*
X131514757Y-131909680D01*
X131336790Y-131983396D01*
X131176625Y-132090415D01*
X131040415Y-132226625D01*
X130933396Y-132386790D01*
X130859680Y-132564757D01*
X130822100Y-132753685D01*
X128393387Y-132753685D01*
X128395477Y-130153685D01*
X132322100Y-130153685D01*
X132322100Y-130346315D01*
X132359680Y-130535243D01*
X132433396Y-130713210D01*
X132540415Y-130873375D01*
X132676625Y-131009585D01*
X132836790Y-131116604D01*
X133014757Y-131190320D01*
X133203685Y-131227900D01*
X133396315Y-131227900D01*
X133585243Y-131190320D01*
X133763210Y-131116604D01*
X133923375Y-131009585D01*
X134059585Y-130873375D01*
X134166604Y-130713210D01*
X134240320Y-130535243D01*
X134277900Y-130346315D01*
X134277900Y-130153685D01*
X135722100Y-130153685D01*
X135722100Y-130346315D01*
X135759680Y-130535243D01*
X135833396Y-130713210D01*
X135940415Y-130873375D01*
X136076625Y-131009585D01*
X136236790Y-131116604D01*
X136414757Y-131190320D01*
X136603685Y-131227900D01*
X136796315Y-131227900D01*
X136985243Y-131190320D01*
X137163210Y-131116604D01*
X137323375Y-131009585D01*
X137459585Y-130873375D01*
X137566604Y-130713210D01*
X137640320Y-130535243D01*
X137677900Y-130346315D01*
X137677900Y-130153685D01*
X137640320Y-129964757D01*
X137566604Y-129786790D01*
X137459585Y-129626625D01*
X137323375Y-129490415D01*
X137163210Y-129383396D01*
X136985243Y-129309680D01*
X136796315Y-129272100D01*
X136603685Y-129272100D01*
X136414757Y-129309680D01*
X136236790Y-129383396D01*
X136076625Y-129490415D01*
X135940415Y-129626625D01*
X135833396Y-129786790D01*
X135759680Y-129964757D01*
X135722100Y-130153685D01*
X134277900Y-130153685D01*
X134240320Y-129964757D01*
X134166604Y-129786790D01*
X134059585Y-129626625D01*
X133923375Y-129490415D01*
X133763210Y-129383396D01*
X133585243Y-129309680D01*
X133396315Y-129272100D01*
X133203685Y-129272100D01*
X133014757Y-129309680D01*
X132836790Y-129383396D01*
X132676625Y-129490415D01*
X132540415Y-129626625D01*
X132433396Y-129786790D01*
X132359680Y-129964757D01*
X132322100Y-130153685D01*
X128395477Y-130153685D01*
X128396603Y-128753685D01*
X144222100Y-128753685D01*
X144222100Y-128946315D01*
X144259680Y-129135243D01*
X144333396Y-129313210D01*
X144440415Y-129473375D01*
X144576625Y-129609585D01*
X144736790Y-129716604D01*
X144914757Y-129790320D01*
X145103685Y-129827900D01*
X145296315Y-129827900D01*
X145485243Y-129790320D01*
X145663210Y-129716604D01*
X145823375Y-129609585D01*
X145959585Y-129473375D01*
X146006150Y-129403685D01*
X150122100Y-129403685D01*
X150122100Y-129596315D01*
X150159680Y-129785243D01*
X150233396Y-129963210D01*
X150340415Y-130123375D01*
X150476625Y-130259585D01*
X150636790Y-130366604D01*
X150814757Y-130440320D01*
X151003685Y-130477900D01*
X151196315Y-130477900D01*
X151385243Y-130440320D01*
X151563210Y-130366604D01*
X151723375Y-130259585D01*
X151859585Y-130123375D01*
X151966604Y-129963210D01*
X152040320Y-129785243D01*
X152077900Y-129596315D01*
X152077900Y-129403685D01*
X152040320Y-129214757D01*
X151966604Y-129036790D01*
X151859585Y-128876625D01*
X151723375Y-128740415D01*
X151563210Y-128633396D01*
X151385243Y-128559680D01*
X151196315Y-128522100D01*
X151003685Y-128522100D01*
X150814757Y-128559680D01*
X150636790Y-128633396D01*
X150476625Y-128740415D01*
X150340415Y-128876625D01*
X150233396Y-129036790D01*
X150159680Y-129214757D01*
X150122100Y-129403685D01*
X146006150Y-129403685D01*
X146066604Y-129313210D01*
X146140320Y-129135243D01*
X146177900Y-128946315D01*
X146177900Y-128753685D01*
X146140320Y-128564757D01*
X146066604Y-128386790D01*
X145959585Y-128226625D01*
X145823375Y-128090415D01*
X145663210Y-127983396D01*
X145485243Y-127909680D01*
X145296315Y-127872100D01*
X145103685Y-127872100D01*
X144914757Y-127909680D01*
X144736790Y-127983396D01*
X144576625Y-128090415D01*
X144440415Y-128226625D01*
X144333396Y-128386790D01*
X144259680Y-128564757D01*
X144222100Y-128753685D01*
X128396603Y-128753685D01*
X128396898Y-128387000D01*
X137260000Y-128387000D01*
X137284776Y-128384560D01*
X137308601Y-128377333D01*
X137330557Y-128365597D01*
X137349803Y-128349803D01*
X137365597Y-128330557D01*
X137377333Y-128308601D01*
X137384560Y-128284776D01*
X137387000Y-128260000D01*
X137387000Y-127353685D01*
X137497100Y-127353685D01*
X137497100Y-127546315D01*
X137534680Y-127735243D01*
X137608396Y-127913210D01*
X137715415Y-128073375D01*
X137851625Y-128209585D01*
X138011790Y-128316604D01*
X138189757Y-128390320D01*
X138378685Y-128427900D01*
X138571315Y-128427900D01*
X138760243Y-128390320D01*
X138938210Y-128316604D01*
X139098375Y-128209585D01*
X139234585Y-128073375D01*
X139341604Y-127913210D01*
X139415320Y-127735243D01*
X139452900Y-127546315D01*
X139452900Y-127353685D01*
X142522100Y-127353685D01*
X142522100Y-127546315D01*
X142559680Y-127735243D01*
X142633396Y-127913210D01*
X142740415Y-128073375D01*
X142876625Y-128209585D01*
X143036790Y-128316604D01*
X143214757Y-128390320D01*
X143403685Y-128427900D01*
X143596315Y-128427900D01*
X143785243Y-128390320D01*
X143963210Y-128316604D01*
X144123375Y-128209585D01*
X144259585Y-128073375D01*
X144366604Y-127913210D01*
X144440320Y-127735243D01*
X144477900Y-127546315D01*
X144477900Y-127353685D01*
X144440320Y-127164757D01*
X144366604Y-126986790D01*
X144259585Y-126826625D01*
X144123375Y-126690415D01*
X143963210Y-126583396D01*
X143785243Y-126509680D01*
X143596315Y-126472100D01*
X143403685Y-126472100D01*
X143214757Y-126509680D01*
X143036790Y-126583396D01*
X142876625Y-126690415D01*
X142740415Y-126826625D01*
X142633396Y-126986790D01*
X142559680Y-127164757D01*
X142522100Y-127353685D01*
X139452900Y-127353685D01*
X139415320Y-127164757D01*
X139341604Y-126986790D01*
X139234585Y-126826625D01*
X139098375Y-126690415D01*
X138938210Y-126583396D01*
X138760243Y-126509680D01*
X138571315Y-126472100D01*
X138378685Y-126472100D01*
X138189757Y-126509680D01*
X138011790Y-126583396D01*
X137851625Y-126690415D01*
X137715415Y-126826625D01*
X137608396Y-126986790D01*
X137534680Y-127164757D01*
X137497100Y-127353685D01*
X137387000Y-127353685D01*
X137387000Y-125453685D01*
X147522100Y-125453685D01*
X147522100Y-125646315D01*
X147559680Y-125835243D01*
X147633396Y-126013210D01*
X147740415Y-126173375D01*
X147876625Y-126309585D01*
X148036790Y-126416604D01*
X148214757Y-126490320D01*
X148263422Y-126500000D01*
X148214757Y-126509680D01*
X148036790Y-126583396D01*
X147876625Y-126690415D01*
X147740415Y-126826625D01*
X147633396Y-126986790D01*
X147559680Y-127164757D01*
X147522100Y-127353685D01*
X147522100Y-127546315D01*
X147559680Y-127735243D01*
X147633396Y-127913210D01*
X147740415Y-128073375D01*
X147876625Y-128209585D01*
X148036790Y-128316604D01*
X148214757Y-128390320D01*
X148403685Y-128427900D01*
X148596315Y-128427900D01*
X148785243Y-128390320D01*
X148963210Y-128316604D01*
X149123375Y-128209585D01*
X149259585Y-128073375D01*
X149366604Y-127913210D01*
X149440320Y-127735243D01*
X149477900Y-127546315D01*
X149477900Y-127353685D01*
X149440320Y-127164757D01*
X149366604Y-126986790D01*
X149259585Y-126826625D01*
X149123375Y-126690415D01*
X148963210Y-126583396D01*
X148785243Y-126509680D01*
X148736578Y-126500000D01*
X148785243Y-126490320D01*
X148963210Y-126416604D01*
X149123375Y-126309585D01*
X149259585Y-126173375D01*
X149366604Y-126013210D01*
X149440320Y-125835243D01*
X149477900Y-125646315D01*
X149477900Y-125453685D01*
X149440320Y-125264757D01*
X149366604Y-125086790D01*
X149259585Y-124926625D01*
X149123375Y-124790415D01*
X148963210Y-124683396D01*
X148785243Y-124609680D01*
X148596315Y-124572100D01*
X148403685Y-124572100D01*
X148214757Y-124609680D01*
X148036790Y-124683396D01*
X147876625Y-124790415D01*
X147740415Y-124926625D01*
X147633396Y-125086790D01*
X147559680Y-125264757D01*
X147522100Y-125453685D01*
X137387000Y-125453685D01*
X137387000Y-123753685D01*
X143922100Y-123753685D01*
X143922100Y-123946315D01*
X143959680Y-124135243D01*
X144033396Y-124313210D01*
X144140415Y-124473375D01*
X144276625Y-124609585D01*
X144436790Y-124716604D01*
X144614757Y-124790320D01*
X144803685Y-124827900D01*
X144996315Y-124827900D01*
X145185243Y-124790320D01*
X145363210Y-124716604D01*
X145523375Y-124609585D01*
X145659585Y-124473375D01*
X145766604Y-124313210D01*
X145840320Y-124135243D01*
X145877900Y-123946315D01*
X145877900Y-123753685D01*
X145840320Y-123564757D01*
X145766604Y-123386790D01*
X145659585Y-123226625D01*
X145523375Y-123090415D01*
X145363210Y-122983396D01*
X145185243Y-122909680D01*
X144996315Y-122872100D01*
X144803685Y-122872100D01*
X144614757Y-122909680D01*
X144436790Y-122983396D01*
X144276625Y-123090415D01*
X144140415Y-123226625D01*
X144033396Y-123386790D01*
X143959680Y-123564757D01*
X143922100Y-123753685D01*
X137387000Y-123753685D01*
X137387000Y-121903685D01*
X148022100Y-121903685D01*
X148022100Y-122096315D01*
X148059680Y-122285243D01*
X148133396Y-122463210D01*
X148240415Y-122623375D01*
X148376625Y-122759585D01*
X148536790Y-122866604D01*
X148714757Y-122940320D01*
X148903685Y-122977900D01*
X149096315Y-122977900D01*
X149285243Y-122940320D01*
X149463210Y-122866604D01*
X149623375Y-122759585D01*
X149759585Y-122623375D01*
X149866604Y-122463210D01*
X149940320Y-122285243D01*
X149977900Y-122096315D01*
X149977900Y-121903685D01*
X149940320Y-121714757D01*
X149866604Y-121536790D01*
X149759585Y-121376625D01*
X149623375Y-121240415D01*
X149463210Y-121133396D01*
X149285243Y-121059680D01*
X149096315Y-121022100D01*
X148903685Y-121022100D01*
X148714757Y-121059680D01*
X148536790Y-121133396D01*
X148376625Y-121240415D01*
X148240415Y-121376625D01*
X148133396Y-121536790D01*
X148059680Y-121714757D01*
X148022100Y-121903685D01*
X137387000Y-121903685D01*
X137387000Y-120403685D01*
X150122100Y-120403685D01*
X150122100Y-120596315D01*
X150159680Y-120785243D01*
X150233396Y-120963210D01*
X150340415Y-121123375D01*
X150476625Y-121259585D01*
X150636790Y-121366604D01*
X150814757Y-121440320D01*
X151003685Y-121477900D01*
X151196315Y-121477900D01*
X151385243Y-121440320D01*
X151563210Y-121366604D01*
X151723375Y-121259585D01*
X151859585Y-121123375D01*
X151966604Y-120963210D01*
X152040320Y-120785243D01*
X152077900Y-120596315D01*
X152077900Y-120403685D01*
X152040320Y-120214757D01*
X151966604Y-120036790D01*
X151859585Y-119876625D01*
X151723375Y-119740415D01*
X151563210Y-119633396D01*
X151385243Y-119559680D01*
X151196315Y-119522100D01*
X151003685Y-119522100D01*
X150814757Y-119559680D01*
X150636790Y-119633396D01*
X150476625Y-119740415D01*
X150340415Y-119876625D01*
X150233396Y-120036790D01*
X150159680Y-120214757D01*
X150122100Y-120403685D01*
X137387000Y-120403685D01*
X137387000Y-115728685D01*
X140322100Y-115728685D01*
X140322100Y-115921315D01*
X140359680Y-116110243D01*
X140433396Y-116288210D01*
X140540415Y-116448375D01*
X140676625Y-116584585D01*
X140836790Y-116691604D01*
X141014757Y-116765320D01*
X141203685Y-116802900D01*
X141396315Y-116802900D01*
X141585243Y-116765320D01*
X141763210Y-116691604D01*
X141923375Y-116584585D01*
X142059585Y-116448375D01*
X142166604Y-116288210D01*
X142240320Y-116110243D01*
X142277900Y-115921315D01*
X142277900Y-115728685D01*
X142247669Y-115576703D01*
X142253685Y-115577900D01*
X142446315Y-115577900D01*
X142635243Y-115540320D01*
X142813210Y-115466604D01*
X142973375Y-115359585D01*
X143109585Y-115223375D01*
X143216604Y-115063210D01*
X143290320Y-114885243D01*
X143327900Y-114696315D01*
X143327900Y-114503685D01*
X153522100Y-114503685D01*
X153522100Y-114696315D01*
X153559680Y-114885243D01*
X153633396Y-115063210D01*
X153740415Y-115223375D01*
X153876625Y-115359585D01*
X154036790Y-115466604D01*
X154214757Y-115540320D01*
X154403685Y-115577900D01*
X154596315Y-115577900D01*
X154785243Y-115540320D01*
X154963210Y-115466604D01*
X155123375Y-115359585D01*
X155259585Y-115223375D01*
X155366604Y-115063210D01*
X155440320Y-114885243D01*
X155477900Y-114696315D01*
X155477900Y-114503685D01*
X155440320Y-114314757D01*
X155366604Y-114136790D01*
X155259585Y-113976625D01*
X155123375Y-113840415D01*
X154963210Y-113733396D01*
X154785243Y-113659680D01*
X154596315Y-113622100D01*
X154403685Y-113622100D01*
X154214757Y-113659680D01*
X154036790Y-113733396D01*
X153876625Y-113840415D01*
X153740415Y-113976625D01*
X153633396Y-114136790D01*
X153559680Y-114314757D01*
X153522100Y-114503685D01*
X143327900Y-114503685D01*
X143290320Y-114314757D01*
X143216604Y-114136790D01*
X143109585Y-113976625D01*
X142973375Y-113840415D01*
X142813210Y-113733396D01*
X142635243Y-113659680D01*
X142446315Y-113622100D01*
X142253685Y-113622100D01*
X142064757Y-113659680D01*
X141886790Y-113733396D01*
X141726625Y-113840415D01*
X141590415Y-113976625D01*
X141483396Y-114136790D01*
X141409680Y-114314757D01*
X141372100Y-114503685D01*
X141372100Y-114696315D01*
X141402331Y-114848297D01*
X141396315Y-114847100D01*
X141203685Y-114847100D01*
X141014757Y-114884680D01*
X140836790Y-114958396D01*
X140676625Y-115065415D01*
X140540415Y-115201625D01*
X140433396Y-115361790D01*
X140359680Y-115539757D01*
X140322100Y-115728685D01*
X137387000Y-115728685D01*
X137387000Y-113303685D01*
X145772100Y-113303685D01*
X145772100Y-113496315D01*
X145809680Y-113685243D01*
X145883396Y-113863210D01*
X145990415Y-114023375D01*
X146126625Y-114159585D01*
X146286790Y-114266604D01*
X146464757Y-114340320D01*
X146653685Y-114377900D01*
X146846315Y-114377900D01*
X147035243Y-114340320D01*
X147213210Y-114266604D01*
X147373375Y-114159585D01*
X147509585Y-114023375D01*
X147616604Y-113863210D01*
X147690320Y-113685243D01*
X147727900Y-113496315D01*
X147727900Y-113303685D01*
X147690320Y-113114757D01*
X147616604Y-112936790D01*
X147509585Y-112776625D01*
X147373375Y-112640415D01*
X147213210Y-112533396D01*
X147035243Y-112459680D01*
X146846315Y-112422100D01*
X146653685Y-112422100D01*
X146464757Y-112459680D01*
X146286790Y-112533396D01*
X146126625Y-112640415D01*
X145990415Y-112776625D01*
X145883396Y-112936790D01*
X145809680Y-113114757D01*
X145772100Y-113303685D01*
X137387000Y-113303685D01*
X137387000Y-112387000D01*
X157513000Y-112387000D01*
X157513000Y-139990000D01*
G36*
X141873000Y-90823000D02*
G01*
X127740000Y-90823000D01*
X127715224Y-90825440D01*
X127691399Y-90832667D01*
X127669443Y-90844403D01*
X127650197Y-90860197D01*
X127634403Y-90879443D01*
X127622667Y-90901399D01*
X127615440Y-90925224D01*
X127613000Y-90950000D01*
X127613000Y-120071321D01*
X127515513Y-119791356D01*
X127429042Y-119629579D01*
X127169752Y-119539853D01*
X126249605Y-120460000D01*
X127169752Y-121380147D01*
X127429042Y-121290421D01*
X127564935Y-121009329D01*
X127613000Y-120824161D01*
X127613000Y-122632744D01*
X127594089Y-122537673D01*
X127474609Y-122249221D01*
X127301150Y-121989621D01*
X127080379Y-121768850D01*
X126948324Y-121680613D01*
X126990147Y-121559752D01*
X126070000Y-120639605D01*
X125149853Y-121559752D01*
X125191676Y-121680613D01*
X125059621Y-121768850D01*
X124838850Y-121989621D01*
X124665391Y-122249221D01*
X124545911Y-122537673D01*
X124485000Y-122843891D01*
X124485000Y-123156109D01*
X124545911Y-123462327D01*
X124665391Y-123750779D01*
X124838850Y-124010379D01*
X125059621Y-124231150D01*
X125117764Y-124270000D01*
X125059621Y-124308850D01*
X124838850Y-124529621D01*
X124665391Y-124789221D01*
X124545911Y-125077673D01*
X124485000Y-125383891D01*
X124485000Y-125696109D01*
X124545911Y-126002327D01*
X124665391Y-126290779D01*
X124838850Y-126550379D01*
X125059621Y-126771150D01*
X125319221Y-126944609D01*
X125607673Y-127064089D01*
X125913891Y-127125000D01*
X126226109Y-127125000D01*
X126532327Y-127064089D01*
X126820779Y-126944609D01*
X127080379Y-126771150D01*
X127301150Y-126550379D01*
X127474609Y-126290779D01*
X127594089Y-126002327D01*
X127613000Y-125907256D01*
X127613000Y-139990000D01*
X117834721Y-139990000D01*
X117744336Y-139981138D01*
X117690786Y-139964970D01*
X117641403Y-139938712D01*
X117598053Y-139903357D01*
X117562401Y-139860261D01*
X117535799Y-139811063D01*
X117519258Y-139757625D01*
X117510000Y-139669545D01*
X117510000Y-138614155D01*
X119065450Y-138614155D01*
X119461634Y-139134550D01*
X120176612Y-139524748D01*
X120953976Y-139767964D01*
X121763853Y-139854851D01*
X122575118Y-139782069D01*
X123356597Y-139552415D01*
X124078256Y-139174715D01*
X124138366Y-139134550D01*
X124534550Y-138614155D01*
X121800000Y-135879605D01*
X119065450Y-138614155D01*
X117510000Y-138614155D01*
X117510000Y-135663853D01*
X117645149Y-135663853D01*
X117717931Y-136475118D01*
X117947585Y-137256597D01*
X118325285Y-137978256D01*
X118365450Y-138038366D01*
X118885845Y-138434550D01*
X121620395Y-135700000D01*
X121979605Y-135700000D01*
X124714155Y-138434550D01*
X125234550Y-138038366D01*
X125624748Y-137323388D01*
X125867964Y-136546024D01*
X125954851Y-135736147D01*
X125882069Y-134924882D01*
X125652415Y-134143403D01*
X125274715Y-133421744D01*
X125234550Y-133361634D01*
X124714155Y-132965450D01*
X121979605Y-135700000D01*
X121620395Y-135700000D01*
X118885845Y-132965450D01*
X118365450Y-133361634D01*
X117975252Y-134076612D01*
X117732036Y-134853976D01*
X117645149Y-135663853D01*
X117510000Y-135663853D01*
X117510000Y-132785845D01*
X119065450Y-132785845D01*
X121800000Y-135520395D01*
X124534550Y-132785845D01*
X124138366Y-132265450D01*
X123423388Y-131875252D01*
X122646024Y-131632036D01*
X121836147Y-131545149D01*
X121024882Y-131617931D01*
X120243403Y-131847585D01*
X119521744Y-132225285D01*
X119461634Y-132265450D01*
X119065450Y-132785845D01*
X117510000Y-132785845D01*
X117510000Y-125383891D01*
X119405000Y-125383891D01*
X119405000Y-125696109D01*
X119465911Y-126002327D01*
X119585391Y-126290779D01*
X119758850Y-126550379D01*
X119979621Y-126771150D01*
X120239221Y-126944609D01*
X120527673Y-127064089D01*
X120833891Y-127125000D01*
X121146109Y-127125000D01*
X121452327Y-127064089D01*
X121740779Y-126944609D01*
X122000379Y-126771150D01*
X122221150Y-126550379D01*
X122394609Y-126290779D01*
X122514089Y-126002327D01*
X122575000Y-125696109D01*
X122575000Y-125383891D01*
X122514089Y-125077673D01*
X122394609Y-124789221D01*
X122221150Y-124529621D01*
X122000379Y-124308850D01*
X121740779Y-124135391D01*
X121452327Y-124015911D01*
X121146109Y-123955000D01*
X120833891Y-123955000D01*
X120527673Y-124015911D01*
X120239221Y-124135391D01*
X119979621Y-124308850D01*
X119758850Y-124529621D01*
X119585391Y-124789221D01*
X119465911Y-125077673D01*
X119405000Y-125383891D01*
X117510000Y-125383891D01*
X117510000Y-120303891D01*
X119405000Y-120303891D01*
X119405000Y-120616109D01*
X119465911Y-120922327D01*
X119585391Y-121210779D01*
X119758850Y-121470379D01*
X119979621Y-121691150D01*
X120239221Y-121864609D01*
X120527673Y-121984089D01*
X120833891Y-122045000D01*
X121146109Y-122045000D01*
X121452327Y-121984089D01*
X121740779Y-121864609D01*
X122000379Y-121691150D01*
X122221150Y-121470379D01*
X122394609Y-121210779D01*
X122514089Y-120922327D01*
X122575000Y-120616109D01*
X122575000Y-120524573D01*
X124478641Y-120524573D01*
X124521816Y-120833791D01*
X124624487Y-121128644D01*
X124710958Y-121290421D01*
X124970248Y-121380147D01*
X125890395Y-120460000D01*
X124970248Y-119539853D01*
X124710958Y-119629579D01*
X124575065Y-119910671D01*
X124496621Y-120212873D01*
X124478641Y-120524573D01*
X122575000Y-120524573D01*
X122575000Y-120303891D01*
X122514089Y-119997673D01*
X122394609Y-119709221D01*
X122221150Y-119449621D01*
X122131777Y-119360248D01*
X125149853Y-119360248D01*
X126070000Y-120280395D01*
X126990147Y-119360248D01*
X126900421Y-119100958D01*
X126619329Y-118965065D01*
X126317127Y-118886621D01*
X126005427Y-118868641D01*
X125696209Y-118911816D01*
X125401356Y-119014487D01*
X125239579Y-119100958D01*
X125149853Y-119360248D01*
X122131777Y-119360248D01*
X122000379Y-119228850D01*
X121740779Y-119055391D01*
X121452327Y-118935911D01*
X121146109Y-118875000D01*
X120833891Y-118875000D01*
X120527673Y-118935911D01*
X120239221Y-119055391D01*
X119979621Y-119228850D01*
X119758850Y-119449621D01*
X119585391Y-119709221D01*
X119465911Y-119997673D01*
X119405000Y-120303891D01*
X117510000Y-120303891D01*
X117510000Y-115903685D01*
X118572100Y-115903685D01*
X118572100Y-116096315D01*
X118609680Y-116285243D01*
X118683396Y-116463210D01*
X118790415Y-116623375D01*
X118926625Y-116759585D01*
X119086790Y-116866604D01*
X119264757Y-116940320D01*
X119453685Y-116977900D01*
X119646315Y-116977900D01*
X119835243Y-116940320D01*
X120013210Y-116866604D01*
X120173375Y-116759585D01*
X120309585Y-116623375D01*
X120416604Y-116463210D01*
X120490320Y-116285243D01*
X120527900Y-116096315D01*
X120527900Y-115903685D01*
X122322100Y-115903685D01*
X122322100Y-116096315D01*
X122359680Y-116285243D01*
X122433396Y-116463210D01*
X122540415Y-116623375D01*
X122676625Y-116759585D01*
X122836790Y-116866604D01*
X123014757Y-116940320D01*
X123203685Y-116977900D01*
X123396315Y-116977900D01*
X123585243Y-116940320D01*
X123763210Y-116866604D01*
X123923375Y-116759585D01*
X124059585Y-116623375D01*
X124166604Y-116463210D01*
X124240320Y-116285243D01*
X124277900Y-116096315D01*
X124277900Y-115903685D01*
X124240320Y-115714757D01*
X124166604Y-115536790D01*
X124059585Y-115376625D01*
X123923375Y-115240415D01*
X123763210Y-115133396D01*
X123585243Y-115059680D01*
X123396315Y-115022100D01*
X123203685Y-115022100D01*
X123014757Y-115059680D01*
X122836790Y-115133396D01*
X122676625Y-115240415D01*
X122540415Y-115376625D01*
X122433396Y-115536790D01*
X122359680Y-115714757D01*
X122322100Y-115903685D01*
X120527900Y-115903685D01*
X120490320Y-115714757D01*
X120416604Y-115536790D01*
X120309585Y-115376625D01*
X120173375Y-115240415D01*
X120013210Y-115133396D01*
X119835243Y-115059680D01*
X119646315Y-115022100D01*
X119453685Y-115022100D01*
X119264757Y-115059680D01*
X119086790Y-115133396D01*
X118926625Y-115240415D01*
X118790415Y-115376625D01*
X118683396Y-115536790D01*
X118609680Y-115714757D01*
X118572100Y-115903685D01*
X117510000Y-115903685D01*
X117510000Y-107903685D01*
X118572100Y-107903685D01*
X118572100Y-108096315D01*
X118609680Y-108285243D01*
X118683396Y-108463210D01*
X118790415Y-108623375D01*
X118926625Y-108759585D01*
X119086790Y-108866604D01*
X119264757Y-108940320D01*
X119453685Y-108977900D01*
X119646315Y-108977900D01*
X119835243Y-108940320D01*
X120013210Y-108866604D01*
X120173375Y-108759585D01*
X120309585Y-108623375D01*
X120416604Y-108463210D01*
X120490320Y-108285243D01*
X120527900Y-108096315D01*
X120527900Y-107903685D01*
X120490320Y-107714757D01*
X120416604Y-107536790D01*
X120309585Y-107376625D01*
X120173375Y-107240415D01*
X120013210Y-107133396D01*
X119835243Y-107059680D01*
X119646315Y-107022100D01*
X119453685Y-107022100D01*
X119264757Y-107059680D01*
X119086790Y-107133396D01*
X118926625Y-107240415D01*
X118790415Y-107376625D01*
X118683396Y-107536790D01*
X118609680Y-107714757D01*
X118572100Y-107903685D01*
X117510000Y-107903685D01*
X117510000Y-89635413D01*
X121844192Y-89635413D01*
X121939956Y-89899814D01*
X122229571Y-90040704D01*
X122541108Y-90122384D01*
X122862595Y-90141718D01*
X123181675Y-90097961D01*
X123486088Y-89992795D01*
X123660044Y-89899814D01*
X123755808Y-89635413D01*
X122800000Y-88679605D01*
X121844192Y-89635413D01*
X117510000Y-89635413D01*
X117510000Y-88562595D01*
X121158282Y-88562595D01*
X121202039Y-88881675D01*
X121307205Y-89186088D01*
X121400186Y-89360044D01*
X121664587Y-89455808D01*
X122620395Y-88500000D01*
X122979605Y-88500000D01*
X123935413Y-89455808D01*
X124199814Y-89360044D01*
X124340704Y-89070429D01*
X124422384Y-88758892D01*
X124441718Y-88437405D01*
X124397961Y-88118325D01*
X124292795Y-87813912D01*
X124199814Y-87639956D01*
X123935413Y-87544192D01*
X122979605Y-88500000D01*
X122620395Y-88500000D01*
X121664587Y-87544192D01*
X121400186Y-87639956D01*
X121259296Y-87929571D01*
X121177616Y-88241108D01*
X121158282Y-88562595D01*
X117510000Y-88562595D01*
X117510000Y-87364587D01*
X121844192Y-87364587D01*
X122800000Y-88320395D01*
X123755808Y-87364587D01*
X123660044Y-87100186D01*
X123370429Y-86959296D01*
X123058892Y-86877616D01*
X122737405Y-86858282D01*
X122418325Y-86902039D01*
X122113912Y-87007205D01*
X121939956Y-87100186D01*
X121844192Y-87364587D01*
X117510000Y-87364587D01*
X117510000Y-85658967D01*
X138485000Y-85658967D01*
X138485000Y-85981033D01*
X138547832Y-86296912D01*
X138671082Y-86594463D01*
X138850013Y-86862252D01*
X139077748Y-87089987D01*
X139345537Y-87268918D01*
X139643088Y-87392168D01*
X139958967Y-87455000D01*
X140281033Y-87455000D01*
X140596912Y-87392168D01*
X140894463Y-87268918D01*
X141162252Y-87089987D01*
X141389987Y-86862252D01*
X141568918Y-86594463D01*
X141692168Y-86296912D01*
X141755000Y-85981033D01*
X141755000Y-85658967D01*
X141692168Y-85343088D01*
X141568918Y-85045537D01*
X141389987Y-84777748D01*
X141162252Y-84550013D01*
X140894463Y-84371082D01*
X140596912Y-84247832D01*
X140281033Y-84185000D01*
X139958967Y-84185000D01*
X139643088Y-84247832D01*
X139345537Y-84371082D01*
X139077748Y-84550013D01*
X138850013Y-84777748D01*
X138671082Y-85045537D01*
X138547832Y-85343088D01*
X138485000Y-85658967D01*
X117510000Y-85658967D01*
X117510000Y-83338967D01*
X121165000Y-83338967D01*
X121165000Y-83661033D01*
X121227832Y-83976912D01*
X121351082Y-84274463D01*
X121530013Y-84542252D01*
X121757748Y-84769987D01*
X122025537Y-84948918D01*
X122323088Y-85072168D01*
X122638967Y-85135000D01*
X122961033Y-85135000D01*
X123276912Y-85072168D01*
X123574463Y-84948918D01*
X123842252Y-84769987D01*
X124069987Y-84542252D01*
X124248918Y-84274463D01*
X124372168Y-83976912D01*
X124435000Y-83661033D01*
X124435000Y-83338967D01*
X124372168Y-83023088D01*
X124248918Y-82725537D01*
X124069987Y-82457748D01*
X123842252Y-82230013D01*
X123574463Y-82051082D01*
X123276912Y-81927832D01*
X123013383Y-81875413D01*
X139164192Y-81875413D01*
X139259956Y-82139814D01*
X139549571Y-82280704D01*
X139861108Y-82362384D01*
X140182595Y-82381718D01*
X140501675Y-82337961D01*
X140806088Y-82232795D01*
X140980044Y-82139814D01*
X141075808Y-81875413D01*
X140120000Y-80919605D01*
X139164192Y-81875413D01*
X123013383Y-81875413D01*
X122961033Y-81865000D01*
X122638967Y-81865000D01*
X122323088Y-81927832D01*
X122025537Y-82051082D01*
X121757748Y-82230013D01*
X121530013Y-82457748D01*
X121351082Y-82725537D01*
X121227832Y-83023088D01*
X121165000Y-83338967D01*
X117510000Y-83338967D01*
X117510000Y-80802595D01*
X138478282Y-80802595D01*
X138522039Y-81121675D01*
X138627205Y-81426088D01*
X138720186Y-81600044D01*
X138984587Y-81695808D01*
X139940395Y-80740000D01*
X140299605Y-80740000D01*
X141255413Y-81695808D01*
X141519814Y-81600044D01*
X141660704Y-81310429D01*
X141742384Y-80998892D01*
X141761718Y-80677405D01*
X141717961Y-80358325D01*
X141612795Y-80053912D01*
X141519814Y-79879956D01*
X141255413Y-79784192D01*
X140299605Y-80740000D01*
X139940395Y-80740000D01*
X138984587Y-79784192D01*
X138720186Y-79879956D01*
X138579296Y-80169571D01*
X138497616Y-80481108D01*
X138478282Y-80802595D01*
X117510000Y-80802595D01*
X117510000Y-76903685D01*
X120322100Y-76903685D01*
X120322100Y-77096315D01*
X120359680Y-77285243D01*
X120433396Y-77463210D01*
X120540415Y-77623375D01*
X120676625Y-77759585D01*
X120836790Y-77866604D01*
X121014757Y-77940320D01*
X121203685Y-77977900D01*
X121246550Y-77977900D01*
X121227832Y-78023088D01*
X121165000Y-78338967D01*
X121165000Y-78661033D01*
X121227832Y-78976912D01*
X121351082Y-79274463D01*
X121530013Y-79542252D01*
X121757748Y-79769987D01*
X122025537Y-79948918D01*
X122323088Y-80072168D01*
X122638967Y-80135000D01*
X122961033Y-80135000D01*
X123276912Y-80072168D01*
X123574463Y-79948918D01*
X123842252Y-79769987D01*
X124007652Y-79604587D01*
X139164192Y-79604587D01*
X140120000Y-80560395D01*
X141075808Y-79604587D01*
X140980044Y-79340186D01*
X140690429Y-79199296D01*
X140378892Y-79117616D01*
X140057405Y-79098282D01*
X139738325Y-79142039D01*
X139433912Y-79247205D01*
X139259956Y-79340186D01*
X139164192Y-79604587D01*
X124007652Y-79604587D01*
X124069987Y-79542252D01*
X124248918Y-79274463D01*
X124372168Y-78976912D01*
X124435000Y-78661033D01*
X124435000Y-78338967D01*
X124372168Y-78023088D01*
X124353450Y-77977900D01*
X124396315Y-77977900D01*
X124585243Y-77940320D01*
X124763210Y-77866604D01*
X124923375Y-77759585D01*
X125059585Y-77623375D01*
X125166604Y-77463210D01*
X125240320Y-77285243D01*
X125277900Y-77096315D01*
X125277900Y-76903685D01*
X125240320Y-76714757D01*
X125166604Y-76536790D01*
X125059585Y-76376625D01*
X124923375Y-76240415D01*
X124763210Y-76133396D01*
X124585243Y-76059680D01*
X124396315Y-76022100D01*
X124203685Y-76022100D01*
X124014757Y-76059680D01*
X123836790Y-76133396D01*
X123676625Y-76240415D01*
X123540415Y-76376625D01*
X123433396Y-76536790D01*
X123359680Y-76714757D01*
X123322100Y-76903685D01*
X123322100Y-76946550D01*
X123276912Y-76927832D01*
X122961033Y-76865000D01*
X122638967Y-76865000D01*
X122323088Y-76927832D01*
X122277900Y-76946550D01*
X122277900Y-76903685D01*
X122240320Y-76714757D01*
X122166604Y-76536790D01*
X122059585Y-76376625D01*
X121923375Y-76240415D01*
X121763210Y-76133396D01*
X121585243Y-76059680D01*
X121396315Y-76022100D01*
X121203685Y-76022100D01*
X121014757Y-76059680D01*
X120836790Y-76133396D01*
X120676625Y-76240415D01*
X120540415Y-76376625D01*
X120433396Y-76536790D01*
X120359680Y-76714757D01*
X120322100Y-76903685D01*
X117510000Y-76903685D01*
X117510000Y-73414155D01*
X119065450Y-73414155D01*
X119461634Y-73934550D01*
X120176612Y-74324748D01*
X120953976Y-74567964D01*
X121763853Y-74654851D01*
X122575118Y-74582069D01*
X123356597Y-74352415D01*
X124078256Y-73974715D01*
X124138366Y-73934550D01*
X124534550Y-73414155D01*
X121800000Y-70679605D01*
X119065450Y-73414155D01*
X117510000Y-73414155D01*
X117510000Y-70463853D01*
X117645149Y-70463853D01*
X117717931Y-71275118D01*
X117947585Y-72056597D01*
X118325285Y-72778256D01*
X118365450Y-72838366D01*
X118885845Y-73234550D01*
X121620395Y-70500000D01*
X121979605Y-70500000D01*
X124714155Y-73234550D01*
X125234550Y-72838366D01*
X125624748Y-72123388D01*
X125867964Y-71346024D01*
X125954851Y-70536147D01*
X125942968Y-70403685D01*
X127962100Y-70403685D01*
X127962100Y-70596315D01*
X127999680Y-70785243D01*
X128073396Y-70963210D01*
X128180415Y-71123375D01*
X128316625Y-71259585D01*
X128476790Y-71366604D01*
X128654757Y-71440320D01*
X128843685Y-71477900D01*
X129036315Y-71477900D01*
X129225243Y-71440320D01*
X129403210Y-71366604D01*
X129563375Y-71259585D01*
X129699585Y-71123375D01*
X129806604Y-70963210D01*
X129880320Y-70785243D01*
X129917900Y-70596315D01*
X129917900Y-70403685D01*
X134282100Y-70403685D01*
X134282100Y-70596315D01*
X134319680Y-70785243D01*
X134393396Y-70963210D01*
X134500415Y-71123375D01*
X134636625Y-71259585D01*
X134796790Y-71366604D01*
X134974757Y-71440320D01*
X135163685Y-71477900D01*
X135356315Y-71477900D01*
X135545243Y-71440320D01*
X135723210Y-71366604D01*
X135883375Y-71259585D01*
X136019585Y-71123375D01*
X136126604Y-70963210D01*
X136200320Y-70785243D01*
X136237900Y-70596315D01*
X136237900Y-70418967D01*
X138485000Y-70418967D01*
X138485000Y-70741033D01*
X138547832Y-71056912D01*
X138671082Y-71354463D01*
X138850013Y-71622252D01*
X139077748Y-71849987D01*
X139345537Y-72028918D01*
X139643088Y-72152168D01*
X139958967Y-72215000D01*
X140281033Y-72215000D01*
X140596912Y-72152168D01*
X140894463Y-72028918D01*
X141162252Y-71849987D01*
X141389987Y-71622252D01*
X141568918Y-71354463D01*
X141692168Y-71056912D01*
X141755000Y-70741033D01*
X141755000Y-70418967D01*
X141692168Y-70103088D01*
X141568918Y-69805537D01*
X141389987Y-69537748D01*
X141162252Y-69310013D01*
X140894463Y-69131082D01*
X140596912Y-69007832D01*
X140281033Y-68945000D01*
X139958967Y-68945000D01*
X139643088Y-69007832D01*
X139345537Y-69131082D01*
X139077748Y-69310013D01*
X138850013Y-69537748D01*
X138671082Y-69805537D01*
X138547832Y-70103088D01*
X138485000Y-70418967D01*
X136237900Y-70418967D01*
X136237900Y-70403685D01*
X136200320Y-70214757D01*
X136126604Y-70036790D01*
X136019585Y-69876625D01*
X135883375Y-69740415D01*
X135723210Y-69633396D01*
X135545243Y-69559680D01*
X135356315Y-69522100D01*
X135163685Y-69522100D01*
X134974757Y-69559680D01*
X134796790Y-69633396D01*
X134636625Y-69740415D01*
X134500415Y-69876625D01*
X134393396Y-70036790D01*
X134319680Y-70214757D01*
X134282100Y-70403685D01*
X129917900Y-70403685D01*
X129880320Y-70214757D01*
X129806604Y-70036790D01*
X129699585Y-69876625D01*
X129563375Y-69740415D01*
X129403210Y-69633396D01*
X129225243Y-69559680D01*
X129036315Y-69522100D01*
X128843685Y-69522100D01*
X128654757Y-69559680D01*
X128476790Y-69633396D01*
X128316625Y-69740415D01*
X128180415Y-69876625D01*
X128073396Y-70036790D01*
X127999680Y-70214757D01*
X127962100Y-70403685D01*
X125942968Y-70403685D01*
X125882069Y-69724882D01*
X125652415Y-68943403D01*
X125458913Y-68573685D01*
X131122100Y-68573685D01*
X131122100Y-68766315D01*
X131159680Y-68955243D01*
X131233396Y-69133210D01*
X131340415Y-69293375D01*
X131476625Y-69429585D01*
X131636790Y-69536604D01*
X131814757Y-69610320D01*
X132003685Y-69647900D01*
X132196315Y-69647900D01*
X132385243Y-69610320D01*
X132563210Y-69536604D01*
X132723375Y-69429585D01*
X132859585Y-69293375D01*
X132966604Y-69133210D01*
X133040320Y-68955243D01*
X133077900Y-68766315D01*
X133077900Y-68573685D01*
X133040320Y-68384757D01*
X132966604Y-68206790D01*
X132859585Y-68046625D01*
X132723375Y-67910415D01*
X132563210Y-67803396D01*
X132385243Y-67729680D01*
X132196315Y-67692100D01*
X132003685Y-67692100D01*
X131814757Y-67729680D01*
X131636790Y-67803396D01*
X131476625Y-67910415D01*
X131340415Y-68046625D01*
X131233396Y-68206790D01*
X131159680Y-68384757D01*
X131122100Y-68573685D01*
X125458913Y-68573685D01*
X125274715Y-68221744D01*
X125234550Y-68161634D01*
X124714155Y-67765450D01*
X121979605Y-70500000D01*
X121620395Y-70500000D01*
X118885845Y-67765450D01*
X118365450Y-68161634D01*
X117975252Y-68876612D01*
X117732036Y-69653976D01*
X117645149Y-70463853D01*
X117510000Y-70463853D01*
X117510000Y-67585845D01*
X119065450Y-67585845D01*
X121800000Y-70320395D01*
X124534550Y-67585845D01*
X124138366Y-67065450D01*
X123423388Y-66675252D01*
X122646024Y-66432036D01*
X121836147Y-66345149D01*
X121024882Y-66417931D01*
X120243403Y-66647585D01*
X119521744Y-67025285D01*
X119461634Y-67065450D01*
X119065450Y-67585845D01*
X117510000Y-67585845D01*
X117510000Y-66534722D01*
X117518863Y-66444335D01*
X117535030Y-66390786D01*
X117561288Y-66341403D01*
X117596641Y-66298055D01*
X117639740Y-66262400D01*
X117688937Y-66235799D01*
X117742375Y-66219258D01*
X117830455Y-66210000D01*
X141873000Y-66210000D01*
X141873000Y-90823000D01*
G37*
X141873000Y-90823000D02*
X127740000Y-90823000D01*
X127715224Y-90825440D01*
X127691399Y-90832667D01*
X127669443Y-90844403D01*
X127650197Y-90860197D01*
X127634403Y-90879443D01*
X127622667Y-90901399D01*
X127615440Y-90925224D01*
X127613000Y-90950000D01*
X127613000Y-120071321D01*
X127515513Y-119791356D01*
X127429042Y-119629579D01*
X127169752Y-119539853D01*
X126249605Y-120460000D01*
X127169752Y-121380147D01*
X127429042Y-121290421D01*
X127564935Y-121009329D01*
X127613000Y-120824161D01*
X127613000Y-122632744D01*
X127594089Y-122537673D01*
X127474609Y-122249221D01*
X127301150Y-121989621D01*
X127080379Y-121768850D01*
X126948324Y-121680613D01*
X126990147Y-121559752D01*
X126070000Y-120639605D01*
X125149853Y-121559752D01*
X125191676Y-121680613D01*
X125059621Y-121768850D01*
X124838850Y-121989621D01*
X124665391Y-122249221D01*
X124545911Y-122537673D01*
X124485000Y-122843891D01*
X124485000Y-123156109D01*
X124545911Y-123462327D01*
X124665391Y-123750779D01*
X124838850Y-124010379D01*
X125059621Y-124231150D01*
X125117764Y-124270000D01*
X125059621Y-124308850D01*
X124838850Y-124529621D01*
X124665391Y-124789221D01*
X124545911Y-125077673D01*
X124485000Y-125383891D01*
X124485000Y-125696109D01*
X124545911Y-126002327D01*
X124665391Y-126290779D01*
X124838850Y-126550379D01*
X125059621Y-126771150D01*
X125319221Y-126944609D01*
X125607673Y-127064089D01*
X125913891Y-127125000D01*
X126226109Y-127125000D01*
X126532327Y-127064089D01*
X126820779Y-126944609D01*
X127080379Y-126771150D01*
X127301150Y-126550379D01*
X127474609Y-126290779D01*
X127594089Y-126002327D01*
X127613000Y-125907256D01*
X127613000Y-139990000D01*
X117834721Y-139990000D01*
X117744336Y-139981138D01*
X117690786Y-139964970D01*
X117641403Y-139938712D01*
X117598053Y-139903357D01*
X117562401Y-139860261D01*
X117535799Y-139811063D01*
X117519258Y-139757625D01*
X117510000Y-139669545D01*
X117510000Y-138614155D01*
X119065450Y-138614155D01*
X119461634Y-139134550D01*
X120176612Y-139524748D01*
X120953976Y-139767964D01*
X121763853Y-139854851D01*
X122575118Y-139782069D01*
X123356597Y-139552415D01*
X124078256Y-139174715D01*
X124138366Y-139134550D01*
X124534550Y-138614155D01*
X121800000Y-135879605D01*
X119065450Y-138614155D01*
X117510000Y-138614155D01*
X117510000Y-135663853D01*
X117645149Y-135663853D01*
X117717931Y-136475118D01*
X117947585Y-137256597D01*
X118325285Y-137978256D01*
X118365450Y-138038366D01*
X118885845Y-138434550D01*
X121620395Y-135700000D01*
X121979605Y-135700000D01*
X124714155Y-138434550D01*
X125234550Y-138038366D01*
X125624748Y-137323388D01*
X125867964Y-136546024D01*
X125954851Y-135736147D01*
X125882069Y-134924882D01*
X125652415Y-134143403D01*
X125274715Y-133421744D01*
X125234550Y-133361634D01*
X124714155Y-132965450D01*
X121979605Y-135700000D01*
X121620395Y-135700000D01*
X118885845Y-132965450D01*
X118365450Y-133361634D01*
X117975252Y-134076612D01*
X117732036Y-134853976D01*
X117645149Y-135663853D01*
X117510000Y-135663853D01*
X117510000Y-132785845D01*
X119065450Y-132785845D01*
X121800000Y-135520395D01*
X124534550Y-132785845D01*
X124138366Y-132265450D01*
X123423388Y-131875252D01*
X122646024Y-131632036D01*
X121836147Y-131545149D01*
X121024882Y-131617931D01*
X120243403Y-131847585D01*
X119521744Y-132225285D01*
X119461634Y-132265450D01*
X119065450Y-132785845D01*
X117510000Y-132785845D01*
X117510000Y-125383891D01*
X119405000Y-125383891D01*
X119405000Y-125696109D01*
X119465911Y-126002327D01*
X119585391Y-126290779D01*
X119758850Y-126550379D01*
X119979621Y-126771150D01*
X120239221Y-126944609D01*
X120527673Y-127064089D01*
X120833891Y-127125000D01*
X121146109Y-127125000D01*
X121452327Y-127064089D01*
X121740779Y-126944609D01*
X122000379Y-126771150D01*
X122221150Y-126550379D01*
X122394609Y-126290779D01*
X122514089Y-126002327D01*
X122575000Y-125696109D01*
X122575000Y-125383891D01*
X122514089Y-125077673D01*
X122394609Y-124789221D01*
X122221150Y-124529621D01*
X122000379Y-124308850D01*
X121740779Y-124135391D01*
X121452327Y-124015911D01*
X121146109Y-123955000D01*
X120833891Y-123955000D01*
X120527673Y-124015911D01*
X120239221Y-124135391D01*
X119979621Y-124308850D01*
X119758850Y-124529621D01*
X119585391Y-124789221D01*
X119465911Y-125077673D01*
X119405000Y-125383891D01*
X117510000Y-125383891D01*
X117510000Y-120303891D01*
X119405000Y-120303891D01*
X119405000Y-120616109D01*
X119465911Y-120922327D01*
X119585391Y-121210779D01*
X119758850Y-121470379D01*
X119979621Y-121691150D01*
X120239221Y-121864609D01*
X120527673Y-121984089D01*
X120833891Y-122045000D01*
X121146109Y-122045000D01*
X121452327Y-121984089D01*
X121740779Y-121864609D01*
X122000379Y-121691150D01*
X122221150Y-121470379D01*
X122394609Y-121210779D01*
X122514089Y-120922327D01*
X122575000Y-120616109D01*
X122575000Y-120524573D01*
X124478641Y-120524573D01*
X124521816Y-120833791D01*
X124624487Y-121128644D01*
X124710958Y-121290421D01*
X124970248Y-121380147D01*
X125890395Y-120460000D01*
X124970248Y-119539853D01*
X124710958Y-119629579D01*
X124575065Y-119910671D01*
X124496621Y-120212873D01*
X124478641Y-120524573D01*
X122575000Y-120524573D01*
X122575000Y-120303891D01*
X122514089Y-119997673D01*
X122394609Y-119709221D01*
X122221150Y-119449621D01*
X122131777Y-119360248D01*
X125149853Y-119360248D01*
X126070000Y-120280395D01*
X126990147Y-119360248D01*
X126900421Y-119100958D01*
X126619329Y-118965065D01*
X126317127Y-118886621D01*
X126005427Y-118868641D01*
X125696209Y-118911816D01*
X125401356Y-119014487D01*
X125239579Y-119100958D01*
X125149853Y-119360248D01*
X122131777Y-119360248D01*
X122000379Y-119228850D01*
X121740779Y-119055391D01*
X121452327Y-118935911D01*
X121146109Y-118875000D01*
X120833891Y-118875000D01*
X120527673Y-118935911D01*
X120239221Y-119055391D01*
X119979621Y-119228850D01*
X119758850Y-119449621D01*
X119585391Y-119709221D01*
X119465911Y-119997673D01*
X119405000Y-120303891D01*
X117510000Y-120303891D01*
X117510000Y-115903685D01*
X118572100Y-115903685D01*
X118572100Y-116096315D01*
X118609680Y-116285243D01*
X118683396Y-116463210D01*
X118790415Y-116623375D01*
X118926625Y-116759585D01*
X119086790Y-116866604D01*
X119264757Y-116940320D01*
X119453685Y-116977900D01*
X119646315Y-116977900D01*
X119835243Y-116940320D01*
X120013210Y-116866604D01*
X120173375Y-116759585D01*
X120309585Y-116623375D01*
X120416604Y-116463210D01*
X120490320Y-116285243D01*
X120527900Y-116096315D01*
X120527900Y-115903685D01*
X122322100Y-115903685D01*
X122322100Y-116096315D01*
X122359680Y-116285243D01*
X122433396Y-116463210D01*
X122540415Y-116623375D01*
X122676625Y-116759585D01*
X122836790Y-116866604D01*
X123014757Y-116940320D01*
X123203685Y-116977900D01*
X123396315Y-116977900D01*
X123585243Y-116940320D01*
X123763210Y-116866604D01*
X123923375Y-116759585D01*
X124059585Y-116623375D01*
X124166604Y-116463210D01*
X124240320Y-116285243D01*
X124277900Y-116096315D01*
X124277900Y-115903685D01*
X124240320Y-115714757D01*
X124166604Y-115536790D01*
X124059585Y-115376625D01*
X123923375Y-115240415D01*
X123763210Y-115133396D01*
X123585243Y-115059680D01*
X123396315Y-115022100D01*
X123203685Y-115022100D01*
X123014757Y-115059680D01*
X122836790Y-115133396D01*
X122676625Y-115240415D01*
X122540415Y-115376625D01*
X122433396Y-115536790D01*
X122359680Y-115714757D01*
X122322100Y-115903685D01*
X120527900Y-115903685D01*
X120490320Y-115714757D01*
X120416604Y-115536790D01*
X120309585Y-115376625D01*
X120173375Y-115240415D01*
X120013210Y-115133396D01*
X119835243Y-115059680D01*
X119646315Y-115022100D01*
X119453685Y-115022100D01*
X119264757Y-115059680D01*
X119086790Y-115133396D01*
X118926625Y-115240415D01*
X118790415Y-115376625D01*
X118683396Y-115536790D01*
X118609680Y-115714757D01*
X118572100Y-115903685D01*
X117510000Y-115903685D01*
X117510000Y-107903685D01*
X118572100Y-107903685D01*
X118572100Y-108096315D01*
X118609680Y-108285243D01*
X118683396Y-108463210D01*
X118790415Y-108623375D01*
X118926625Y-108759585D01*
X119086790Y-108866604D01*
X119264757Y-108940320D01*
X119453685Y-108977900D01*
X119646315Y-108977900D01*
X119835243Y-108940320D01*
X120013210Y-108866604D01*
X120173375Y-108759585D01*
X120309585Y-108623375D01*
X120416604Y-108463210D01*
X120490320Y-108285243D01*
X120527900Y-108096315D01*
X120527900Y-107903685D01*
X120490320Y-107714757D01*
X120416604Y-107536790D01*
X120309585Y-107376625D01*
X120173375Y-107240415D01*
X120013210Y-107133396D01*
X119835243Y-107059680D01*
X119646315Y-107022100D01*
X119453685Y-107022100D01*
X119264757Y-107059680D01*
X119086790Y-107133396D01*
X118926625Y-107240415D01*
X118790415Y-107376625D01*
X118683396Y-107536790D01*
X118609680Y-107714757D01*
X118572100Y-107903685D01*
X117510000Y-107903685D01*
X117510000Y-89635413D01*
X121844192Y-89635413D01*
X121939956Y-89899814D01*
X122229571Y-90040704D01*
X122541108Y-90122384D01*
X122862595Y-90141718D01*
X123181675Y-90097961D01*
X123486088Y-89992795D01*
X123660044Y-89899814D01*
X123755808Y-89635413D01*
X122800000Y-88679605D01*
X121844192Y-89635413D01*
X117510000Y-89635413D01*
X117510000Y-88562595D01*
X121158282Y-88562595D01*
X121202039Y-88881675D01*
X121307205Y-89186088D01*
X121400186Y-89360044D01*
X121664587Y-89455808D01*
X122620395Y-88500000D01*
X122979605Y-88500000D01*
X123935413Y-89455808D01*
X124199814Y-89360044D01*
X124340704Y-89070429D01*
X124422384Y-88758892D01*
X124441718Y-88437405D01*
X124397961Y-88118325D01*
X124292795Y-87813912D01*
X124199814Y-87639956D01*
X123935413Y-87544192D01*
X122979605Y-88500000D01*
X122620395Y-88500000D01*
X121664587Y-87544192D01*
X121400186Y-87639956D01*
X121259296Y-87929571D01*
X121177616Y-88241108D01*
X121158282Y-88562595D01*
X117510000Y-88562595D01*
X117510000Y-87364587D01*
X121844192Y-87364587D01*
X122800000Y-88320395D01*
X123755808Y-87364587D01*
X123660044Y-87100186D01*
X123370429Y-86959296D01*
X123058892Y-86877616D01*
X122737405Y-86858282D01*
X122418325Y-86902039D01*
X122113912Y-87007205D01*
X121939956Y-87100186D01*
X121844192Y-87364587D01*
X117510000Y-87364587D01*
X117510000Y-85658967D01*
X138485000Y-85658967D01*
X138485000Y-85981033D01*
X138547832Y-86296912D01*
X138671082Y-86594463D01*
X138850013Y-86862252D01*
X139077748Y-87089987D01*
X139345537Y-87268918D01*
X139643088Y-87392168D01*
X139958967Y-87455000D01*
X140281033Y-87455000D01*
X140596912Y-87392168D01*
X140894463Y-87268918D01*
X141162252Y-87089987D01*
X141389987Y-86862252D01*
X141568918Y-86594463D01*
X141692168Y-86296912D01*
X141755000Y-85981033D01*
X141755000Y-85658967D01*
X141692168Y-85343088D01*
X141568918Y-85045537D01*
X141389987Y-84777748D01*
X141162252Y-84550013D01*
X140894463Y-84371082D01*
X140596912Y-84247832D01*
X140281033Y-84185000D01*
X139958967Y-84185000D01*
X139643088Y-84247832D01*
X139345537Y-84371082D01*
X139077748Y-84550013D01*
X138850013Y-84777748D01*
X138671082Y-85045537D01*
X138547832Y-85343088D01*
X138485000Y-85658967D01*
X117510000Y-85658967D01*
X117510000Y-83338967D01*
X121165000Y-83338967D01*
X121165000Y-83661033D01*
X121227832Y-83976912D01*
X121351082Y-84274463D01*
X121530013Y-84542252D01*
X121757748Y-84769987D01*
X122025537Y-84948918D01*
X122323088Y-85072168D01*
X122638967Y-85135000D01*
X122961033Y-85135000D01*
X123276912Y-85072168D01*
X123574463Y-84948918D01*
X123842252Y-84769987D01*
X124069987Y-84542252D01*
X124248918Y-84274463D01*
X124372168Y-83976912D01*
X124435000Y-83661033D01*
X124435000Y-83338967D01*
X124372168Y-83023088D01*
X124248918Y-82725537D01*
X124069987Y-82457748D01*
X123842252Y-82230013D01*
X123574463Y-82051082D01*
X123276912Y-81927832D01*
X123013383Y-81875413D01*
X139164192Y-81875413D01*
X139259956Y-82139814D01*
X139549571Y-82280704D01*
X139861108Y-82362384D01*
X140182595Y-82381718D01*
X140501675Y-82337961D01*
X140806088Y-82232795D01*
X140980044Y-82139814D01*
X141075808Y-81875413D01*
X140120000Y-80919605D01*
X139164192Y-81875413D01*
X123013383Y-81875413D01*
X122961033Y-81865000D01*
X122638967Y-81865000D01*
X122323088Y-81927832D01*
X122025537Y-82051082D01*
X121757748Y-82230013D01*
X121530013Y-82457748D01*
X121351082Y-82725537D01*
X121227832Y-83023088D01*
X121165000Y-83338967D01*
X117510000Y-83338967D01*
X117510000Y-80802595D01*
X138478282Y-80802595D01*
X138522039Y-81121675D01*
X138627205Y-81426088D01*
X138720186Y-81600044D01*
X138984587Y-81695808D01*
X139940395Y-80740000D01*
X140299605Y-80740000D01*
X141255413Y-81695808D01*
X141519814Y-81600044D01*
X141660704Y-81310429D01*
X141742384Y-80998892D01*
X141761718Y-80677405D01*
X141717961Y-80358325D01*
X141612795Y-80053912D01*
X141519814Y-79879956D01*
X141255413Y-79784192D01*
X140299605Y-80740000D01*
X139940395Y-80740000D01*
X138984587Y-79784192D01*
X138720186Y-79879956D01*
X138579296Y-80169571D01*
X138497616Y-80481108D01*
X138478282Y-80802595D01*
X117510000Y-80802595D01*
X117510000Y-76903685D01*
X120322100Y-76903685D01*
X120322100Y-77096315D01*
X120359680Y-77285243D01*
X120433396Y-77463210D01*
X120540415Y-77623375D01*
X120676625Y-77759585D01*
X120836790Y-77866604D01*
X121014757Y-77940320D01*
X121203685Y-77977900D01*
X121246550Y-77977900D01*
X121227832Y-78023088D01*
X121165000Y-78338967D01*
X121165000Y-78661033D01*
X121227832Y-78976912D01*
X121351082Y-79274463D01*
X121530013Y-79542252D01*
X121757748Y-79769987D01*
X122025537Y-79948918D01*
X122323088Y-80072168D01*
X122638967Y-80135000D01*
X122961033Y-80135000D01*
X123276912Y-80072168D01*
X123574463Y-79948918D01*
X123842252Y-79769987D01*
X124007652Y-79604587D01*
X139164192Y-79604587D01*
X140120000Y-80560395D01*
X141075808Y-79604587D01*
X140980044Y-79340186D01*
X140690429Y-79199296D01*
X140378892Y-79117616D01*
X140057405Y-79098282D01*
X139738325Y-79142039D01*
X139433912Y-79247205D01*
X139259956Y-79340186D01*
X139164192Y-79604587D01*
X124007652Y-79604587D01*
X124069987Y-79542252D01*
X124248918Y-79274463D01*
X124372168Y-78976912D01*
X124435000Y-78661033D01*
X124435000Y-78338967D01*
X124372168Y-78023088D01*
X124353450Y-77977900D01*
X124396315Y-77977900D01*
X124585243Y-77940320D01*
X124763210Y-77866604D01*
X124923375Y-77759585D01*
X125059585Y-77623375D01*
X125166604Y-77463210D01*
X125240320Y-77285243D01*
X125277900Y-77096315D01*
X125277900Y-76903685D01*
X125240320Y-76714757D01*
X125166604Y-76536790D01*
X125059585Y-76376625D01*
X124923375Y-76240415D01*
X124763210Y-76133396D01*
X124585243Y-76059680D01*
X124396315Y-76022100D01*
X124203685Y-76022100D01*
X124014757Y-76059680D01*
X123836790Y-76133396D01*
X123676625Y-76240415D01*
X123540415Y-76376625D01*
X123433396Y-76536790D01*
X123359680Y-76714757D01*
X123322100Y-76903685D01*
X123322100Y-76946550D01*
X123276912Y-76927832D01*
X122961033Y-76865000D01*
X122638967Y-76865000D01*
X122323088Y-76927832D01*
X122277900Y-76946550D01*
X122277900Y-76903685D01*
X122240320Y-76714757D01*
X122166604Y-76536790D01*
X122059585Y-76376625D01*
X121923375Y-76240415D01*
X121763210Y-76133396D01*
X121585243Y-76059680D01*
X121396315Y-76022100D01*
X121203685Y-76022100D01*
X121014757Y-76059680D01*
X120836790Y-76133396D01*
X120676625Y-76240415D01*
X120540415Y-76376625D01*
X120433396Y-76536790D01*
X120359680Y-76714757D01*
X120322100Y-76903685D01*
X117510000Y-76903685D01*
X117510000Y-73414155D01*
X119065450Y-73414155D01*
X119461634Y-73934550D01*
X120176612Y-74324748D01*
X120953976Y-74567964D01*
X121763853Y-74654851D01*
X122575118Y-74582069D01*
X123356597Y-74352415D01*
X124078256Y-73974715D01*
X124138366Y-73934550D01*
X124534550Y-73414155D01*
X121800000Y-70679605D01*
X119065450Y-73414155D01*
X117510000Y-73414155D01*
X117510000Y-70463853D01*
X117645149Y-70463853D01*
X117717931Y-71275118D01*
X117947585Y-72056597D01*
X118325285Y-72778256D01*
X118365450Y-72838366D01*
X118885845Y-73234550D01*
X121620395Y-70500000D01*
X121979605Y-70500000D01*
X124714155Y-73234550D01*
X125234550Y-72838366D01*
X125624748Y-72123388D01*
X125867964Y-71346024D01*
X125954851Y-70536147D01*
X125942968Y-70403685D01*
X127962100Y-70403685D01*
X127962100Y-70596315D01*
X127999680Y-70785243D01*
X128073396Y-70963210D01*
X128180415Y-71123375D01*
X128316625Y-71259585D01*
X128476790Y-71366604D01*
X128654757Y-71440320D01*
X128843685Y-71477900D01*
X129036315Y-71477900D01*
X129225243Y-71440320D01*
X129403210Y-71366604D01*
X129563375Y-71259585D01*
X129699585Y-71123375D01*
X129806604Y-70963210D01*
X129880320Y-70785243D01*
X129917900Y-70596315D01*
X129917900Y-70403685D01*
X134282100Y-70403685D01*
X134282100Y-70596315D01*
X134319680Y-70785243D01*
X134393396Y-70963210D01*
X134500415Y-71123375D01*
X134636625Y-71259585D01*
X134796790Y-71366604D01*
X134974757Y-71440320D01*
X135163685Y-71477900D01*
X135356315Y-71477900D01*
X135545243Y-71440320D01*
X135723210Y-71366604D01*
X135883375Y-71259585D01*
X136019585Y-71123375D01*
X136126604Y-70963210D01*
X136200320Y-70785243D01*
X136237900Y-70596315D01*
X136237900Y-70418967D01*
X138485000Y-70418967D01*
X138485000Y-70741033D01*
X138547832Y-71056912D01*
X138671082Y-71354463D01*
X138850013Y-71622252D01*
X139077748Y-71849987D01*
X139345537Y-72028918D01*
X139643088Y-72152168D01*
X139958967Y-72215000D01*
X140281033Y-72215000D01*
X140596912Y-72152168D01*
X140894463Y-72028918D01*
X141162252Y-71849987D01*
X141389987Y-71622252D01*
X141568918Y-71354463D01*
X141692168Y-71056912D01*
X141755000Y-70741033D01*
X141755000Y-70418967D01*
X141692168Y-70103088D01*
X141568918Y-69805537D01*
X141389987Y-69537748D01*
X141162252Y-69310013D01*
X140894463Y-69131082D01*
X140596912Y-69007832D01*
X140281033Y-68945000D01*
X139958967Y-68945000D01*
X139643088Y-69007832D01*
X139345537Y-69131082D01*
X139077748Y-69310013D01*
X138850013Y-69537748D01*
X138671082Y-69805537D01*
X138547832Y-70103088D01*
X138485000Y-70418967D01*
X136237900Y-70418967D01*
X136237900Y-70403685D01*
X136200320Y-70214757D01*
X136126604Y-70036790D01*
X136019585Y-69876625D01*
X135883375Y-69740415D01*
X135723210Y-69633396D01*
X135545243Y-69559680D01*
X135356315Y-69522100D01*
X135163685Y-69522100D01*
X134974757Y-69559680D01*
X134796790Y-69633396D01*
X134636625Y-69740415D01*
X134500415Y-69876625D01*
X134393396Y-70036790D01*
X134319680Y-70214757D01*
X134282100Y-70403685D01*
X129917900Y-70403685D01*
X129880320Y-70214757D01*
X129806604Y-70036790D01*
X129699585Y-69876625D01*
X129563375Y-69740415D01*
X129403210Y-69633396D01*
X129225243Y-69559680D01*
X129036315Y-69522100D01*
X128843685Y-69522100D01*
X128654757Y-69559680D01*
X128476790Y-69633396D01*
X128316625Y-69740415D01*
X128180415Y-69876625D01*
X128073396Y-70036790D01*
X127999680Y-70214757D01*
X127962100Y-70403685D01*
X125942968Y-70403685D01*
X125882069Y-69724882D01*
X125652415Y-68943403D01*
X125458913Y-68573685D01*
X131122100Y-68573685D01*
X131122100Y-68766315D01*
X131159680Y-68955243D01*
X131233396Y-69133210D01*
X131340415Y-69293375D01*
X131476625Y-69429585D01*
X131636790Y-69536604D01*
X131814757Y-69610320D01*
X132003685Y-69647900D01*
X132196315Y-69647900D01*
X132385243Y-69610320D01*
X132563210Y-69536604D01*
X132723375Y-69429585D01*
X132859585Y-69293375D01*
X132966604Y-69133210D01*
X133040320Y-68955243D01*
X133077900Y-68766315D01*
X133077900Y-68573685D01*
X133040320Y-68384757D01*
X132966604Y-68206790D01*
X132859585Y-68046625D01*
X132723375Y-67910415D01*
X132563210Y-67803396D01*
X132385243Y-67729680D01*
X132196315Y-67692100D01*
X132003685Y-67692100D01*
X131814757Y-67729680D01*
X131636790Y-67803396D01*
X131476625Y-67910415D01*
X131340415Y-68046625D01*
X131233396Y-68206790D01*
X131159680Y-68384757D01*
X131122100Y-68573685D01*
X125458913Y-68573685D01*
X125274715Y-68221744D01*
X125234550Y-68161634D01*
X124714155Y-67765450D01*
X121979605Y-70500000D01*
X121620395Y-70500000D01*
X118885845Y-67765450D01*
X118365450Y-68161634D01*
X117975252Y-68876612D01*
X117732036Y-69653976D01*
X117645149Y-70463853D01*
X117510000Y-70463853D01*
X117510000Y-67585845D01*
X119065450Y-67585845D01*
X121800000Y-70320395D01*
X124534550Y-67585845D01*
X124138366Y-67065450D01*
X123423388Y-66675252D01*
X122646024Y-66432036D01*
X121836147Y-66345149D01*
X121024882Y-66417931D01*
X120243403Y-66647585D01*
X119521744Y-67025285D01*
X119461634Y-67065450D01*
X119065450Y-67585845D01*
X117510000Y-67585845D01*
X117510000Y-66534722D01*
X117518863Y-66444335D01*
X117535030Y-66390786D01*
X117561288Y-66341403D01*
X117596641Y-66298055D01*
X117639740Y-66262400D01*
X117688937Y-66235799D01*
X117742375Y-66219258D01*
X117830455Y-66210000D01*
X141873000Y-66210000D01*
X141873000Y-90823000D01*
M02*
