G04 #@! TF.GenerationSoftware,KiCad,Pcbnew,5.1.6-c6e7f7d~86~ubuntu18.04.1*
G04 #@! TF.CreationDate,2020-06-28T14:12:15-07:00*
G04 #@! TF.ProjectId,VehicleAccessoryController,56656869-636c-4654-9163-636573736f72,1.0*
G04 #@! TF.SameCoordinates,Original*
G04 #@! TF.FileFunction,Soldermask,Bot*
G04 #@! TF.FilePolarity,Negative*
%FSLAX46Y46*%
G04 Gerber Fmt 4.6, Leading zero omitted, Abs format (unit mm)*
G04 Created by KiCad (PCBNEW 5.1.6-c6e7f7d~86~ubuntu18.04.1) date 2020-06-28 14:12:15*
%MOMM*%
%LPD*%
G01*
G04 APERTURE LIST*
%ADD10C,4.200000*%
%ADD11C,0.350000*%
%ADD12C,0.500000*%
%ADD13C,0.950000*%
%ADD14C,2.102000*%
%ADD15C,2.002000*%
%ADD16C,1.090060*%
%ADD17C,1.087520*%
%ADD18C,2.474360*%
%ADD19C,2.471820*%
G04 APERTURE END LIST*
D10*
X121800000Y-135700000D02*
G75*
G03*
X121800000Y-135700000I0J0D01*
G01*
X121800000Y-70500000D02*
G75*
G03*
X121800000Y-70500000I0J0D01*
G01*
D11*
X160678571Y-68878571D02*
X159178571Y-68878571D01*
X159178571Y-69235714D01*
X159250000Y-69450000D01*
X159392857Y-69592857D01*
X159535714Y-69664285D01*
X159821428Y-69735714D01*
X160035714Y-69735714D01*
X160321428Y-69664285D01*
X160464285Y-69592857D01*
X160607142Y-69450000D01*
X160678571Y-69235714D01*
X160678571Y-68878571D01*
X160607142Y-70950000D02*
X160678571Y-70807142D01*
X160678571Y-70521428D01*
X160607142Y-70378571D01*
X160464285Y-70307142D01*
X159892857Y-70307142D01*
X159750000Y-70378571D01*
X159678571Y-70521428D01*
X159678571Y-70807142D01*
X159750000Y-70950000D01*
X159892857Y-71021428D01*
X160035714Y-71021428D01*
X160178571Y-70307142D01*
X160607142Y-71592857D02*
X160678571Y-71735714D01*
X160678571Y-72021428D01*
X160607142Y-72164285D01*
X160464285Y-72235714D01*
X160392857Y-72235714D01*
X160250000Y-72164285D01*
X160178571Y-72021428D01*
X160178571Y-71807142D01*
X160107142Y-71664285D01*
X159964285Y-71592857D01*
X159892857Y-71592857D01*
X159750000Y-71664285D01*
X159678571Y-71807142D01*
X159678571Y-72021428D01*
X159750000Y-72164285D01*
X160678571Y-72878571D02*
X159678571Y-72878571D01*
X159178571Y-72878571D02*
X159250000Y-72807142D01*
X159321428Y-72878571D01*
X159250000Y-72950000D01*
X159178571Y-72878571D01*
X159321428Y-72878571D01*
X159678571Y-74235714D02*
X160892857Y-74235714D01*
X161035714Y-74164285D01*
X161107142Y-74092857D01*
X161178571Y-73950000D01*
X161178571Y-73735714D01*
X161107142Y-73592857D01*
X160607142Y-74235714D02*
X160678571Y-74092857D01*
X160678571Y-73807142D01*
X160607142Y-73664285D01*
X160535714Y-73592857D01*
X160392857Y-73521428D01*
X159964285Y-73521428D01*
X159821428Y-73592857D01*
X159750000Y-73664285D01*
X159678571Y-73807142D01*
X159678571Y-74092857D01*
X159750000Y-74235714D01*
X159678571Y-74950000D02*
X160678571Y-74950000D01*
X159821428Y-74950000D02*
X159750000Y-75021428D01*
X159678571Y-75164285D01*
X159678571Y-75378571D01*
X159750000Y-75521428D01*
X159892857Y-75592857D01*
X160678571Y-75592857D01*
X160607142Y-76878571D02*
X160678571Y-76735714D01*
X160678571Y-76450000D01*
X160607142Y-76307142D01*
X160464285Y-76235714D01*
X159892857Y-76235714D01*
X159750000Y-76307142D01*
X159678571Y-76450000D01*
X159678571Y-76735714D01*
X159750000Y-76878571D01*
X159892857Y-76950000D01*
X160035714Y-76950000D01*
X160178571Y-76235714D01*
X160678571Y-78235714D02*
X159178571Y-78235714D01*
X160607142Y-78235714D02*
X160678571Y-78092857D01*
X160678571Y-77807142D01*
X160607142Y-77664285D01*
X160535714Y-77592857D01*
X160392857Y-77521428D01*
X159964285Y-77521428D01*
X159821428Y-77592857D01*
X159750000Y-77664285D01*
X159678571Y-77807142D01*
X159678571Y-78092857D01*
X159750000Y-78235714D01*
X160678571Y-80092857D02*
X159178571Y-80092857D01*
X159750000Y-80092857D02*
X159678571Y-80235714D01*
X159678571Y-80521428D01*
X159750000Y-80664285D01*
X159821428Y-80735714D01*
X159964285Y-80807142D01*
X160392857Y-80807142D01*
X160535714Y-80735714D01*
X160607142Y-80664285D01*
X160678571Y-80521428D01*
X160678571Y-80235714D01*
X160607142Y-80092857D01*
X159678571Y-81307142D02*
X160678571Y-81664285D01*
X159678571Y-82021428D02*
X160678571Y-81664285D01*
X161035714Y-81521428D01*
X161107142Y-81450000D01*
X161178571Y-81307142D01*
X159178571Y-84021428D02*
X159178571Y-84307142D01*
X159250000Y-84450000D01*
X159392857Y-84592857D01*
X159678571Y-84664285D01*
X160178571Y-84664285D01*
X160464285Y-84592857D01*
X160607142Y-84450000D01*
X160678571Y-84307142D01*
X160678571Y-84021428D01*
X160607142Y-83878571D01*
X160464285Y-83735714D01*
X160178571Y-83664285D01*
X159678571Y-83664285D01*
X159392857Y-83735714D01*
X159250000Y-83878571D01*
X159178571Y-84021428D01*
X160678571Y-85307142D02*
X159178571Y-85307142D01*
X159178571Y-85878571D01*
X159250000Y-86021428D01*
X159321428Y-86092857D01*
X159464285Y-86164285D01*
X159678571Y-86164285D01*
X159821428Y-86092857D01*
X159892857Y-86021428D01*
X159964285Y-85878571D01*
X159964285Y-85307142D01*
X160607142Y-86735714D02*
X160678571Y-86950000D01*
X160678571Y-87307142D01*
X160607142Y-87450000D01*
X160535714Y-87521428D01*
X160392857Y-87592857D01*
X160250000Y-87592857D01*
X160107142Y-87521428D01*
X160035714Y-87450000D01*
X159964285Y-87307142D01*
X159892857Y-87021428D01*
X159821428Y-86878571D01*
X159750000Y-86807142D01*
X159607142Y-86735714D01*
X159464285Y-86735714D01*
X159321428Y-86807142D01*
X159250000Y-86878571D01*
X159178571Y-87021428D01*
X159178571Y-87378571D01*
X159250000Y-87592857D01*
D12*
X157900000Y-140700000D02*
X157900000Y-112000000D01*
X157900000Y-112000000D02*
X137000000Y-112000000D01*
X137000000Y-112000000D02*
X137000000Y-128000000D01*
X128000000Y-128000000D02*
X137000000Y-128000000D01*
X128000000Y-140700000D02*
X128000000Y-91210000D01*
X128000000Y-91210000D02*
X157900000Y-91210000D01*
X157900000Y-91210000D02*
X157900000Y-65500000D01*
D13*
X143800000Y-134820000D02*
G75*
G03*
X143800000Y-134820000I0J0D01*
G01*
X148200000Y-134820000D02*
G75*
G03*
X148200000Y-134820000I0J0D01*
G01*
D14*
X140120000Y-70580000D03*
X140120000Y-80740000D03*
X140120000Y-85820000D03*
X175680000Y-88360000D03*
X175680000Y-78200000D03*
X175680000Y-68040000D03*
X122800000Y-88500000D03*
X122800000Y-78500000D03*
X122800000Y-83500000D03*
D15*
X120990000Y-125540000D03*
X120990000Y-120460000D03*
X126070000Y-125540000D03*
X126070000Y-123000000D03*
X126070000Y-120460000D03*
X172400000Y-99900000D03*
X172400000Y-103400000D03*
X172400000Y-106900000D03*
X172400000Y-110400000D03*
X172400000Y-113900000D03*
X172400000Y-117400000D03*
X172400000Y-120900000D03*
X172400000Y-124400000D03*
X172400000Y-127900000D03*
X172400000Y-131400000D03*
X172400000Y-134900000D03*
X172400000Y-138400000D03*
D16*
X152000000Y-100060000D03*
D17*
X153016000Y-105140000D03*
X150984000Y-105140000D03*
D18*
X154540000Y-100060000D03*
D19*
X154540000Y-103235000D03*
X149460000Y-100187000D03*
X149460000Y-103235000D03*
M02*
