G04 #@! TF.GenerationSoftware,KiCad,Pcbnew,5.1.6-c6e7f7d~86~ubuntu18.04.1*
G04 #@! TF.CreationDate,2020-06-28T14:12:15-07:00*
G04 #@! TF.ProjectId,VehicleAccessoryController,56656869-636c-4654-9163-636573736f72,1.0*
G04 #@! TF.SameCoordinates,Original*
G04 #@! TF.FileFunction,Paste,Top*
G04 #@! TF.FilePolarity,Positive*
%FSLAX46Y46*%
G04 Gerber Fmt 4.6, Leading zero omitted, Abs format (unit mm)*
G04 Created by KiCad (PCBNEW 5.1.6-c6e7f7d~86~ubuntu18.04.1) date 2020-06-28 14:12:15*
%MOMM*%
%LPD*%
G01*
G04 APERTURE LIST*
%ADD10R,0.480000X2.230000*%
%ADD11R,1.980000X2.480000*%
%ADD12O,0.190000X0.540000*%
%ADD13O,0.540000X0.190000*%
%ADD14C,0.100000*%
%ADD15R,0.260000X0.730000*%
%ADD16R,2.350000X2.410000*%
%ADD17R,2.800000X1.550000*%
%ADD18R,1.450000X0.500000*%
%ADD19R,0.780000X0.980000*%
%ADD20R,0.980000X0.780000*%
%ADD21R,0.980000X1.180000*%
%ADD22R,1.180000X0.980000*%
%ADD23R,1.380000X1.180000*%
%ADD24R,1.380000X0.980000*%
%ADD25R,0.880000X0.780000*%
%ADD26R,0.980000X0.680000*%
%ADD27R,0.680000X0.980000*%
%ADD28R,0.300000X1.200000*%
%ADD29R,1.040000X0.630000*%
G04 APERTURE END LIST*
D10*
X147600000Y-132145000D03*
X146800000Y-132145000D03*
X146000000Y-132145000D03*
X145200000Y-132145000D03*
D11*
X150450000Y-137720000D03*
X141550000Y-137720000D03*
X150450000Y-132270000D03*
X141550000Y-132270000D03*
D10*
X144400000Y-132145000D03*
G36*
G01*
X146925001Y-118875000D02*
X146374999Y-118875000D01*
G75*
G02*
X146125000Y-118625001I0J249999D01*
G01*
X146125000Y-118074999D01*
G75*
G02*
X146374999Y-117825000I249999J0D01*
G01*
X146925001Y-117825000D01*
G75*
G02*
X147175000Y-118074999I0J-249999D01*
G01*
X147175000Y-118625001D01*
G75*
G02*
X146925001Y-118875000I-249999J0D01*
G01*
G37*
G36*
G01*
X145625001Y-118875000D02*
X145074999Y-118875000D01*
G75*
G02*
X144825000Y-118625001I0J249999D01*
G01*
X144825000Y-118074999D01*
G75*
G02*
X145074999Y-117825000I249999J0D01*
G01*
X145625001Y-117825000D01*
G75*
G02*
X145875000Y-118074999I0J-249999D01*
G01*
X145875000Y-118625001D01*
G75*
G02*
X145625001Y-118875000I-249999J0D01*
G01*
G37*
G36*
G01*
X146925001Y-120175000D02*
X146374999Y-120175000D01*
G75*
G02*
X146125000Y-119925001I0J249999D01*
G01*
X146125000Y-119374999D01*
G75*
G02*
X146374999Y-119125000I249999J0D01*
G01*
X146925001Y-119125000D01*
G75*
G02*
X147175000Y-119374999I0J-249999D01*
G01*
X147175000Y-119925001D01*
G75*
G02*
X146925001Y-120175000I-249999J0D01*
G01*
G37*
G36*
G01*
X145625001Y-120175000D02*
X145074999Y-120175000D01*
G75*
G02*
X144825000Y-119925001I0J249999D01*
G01*
X144825000Y-119374999D01*
G75*
G02*
X145074999Y-119125000I249999J0D01*
G01*
X145625001Y-119125000D01*
G75*
G02*
X145875000Y-119374999I0J-249999D01*
G01*
X145875000Y-119925001D01*
G75*
G02*
X145625001Y-120175000I-249999J0D01*
G01*
G37*
G36*
G01*
X144407500Y-120365000D02*
X143717500Y-120365000D01*
G75*
G02*
X143660000Y-120307500I0J57500D01*
G01*
X143660000Y-120192500D01*
G75*
G02*
X143717500Y-120135000I57500J0D01*
G01*
X144407500Y-120135000D01*
G75*
G02*
X144465000Y-120192500I0J-57500D01*
G01*
X144465000Y-120307500D01*
G75*
G02*
X144407500Y-120365000I-57500J0D01*
G01*
G37*
G36*
G01*
X144407500Y-119865000D02*
X143717500Y-119865000D01*
G75*
G02*
X143660000Y-119807500I0J57500D01*
G01*
X143660000Y-119692500D01*
G75*
G02*
X143717500Y-119635000I57500J0D01*
G01*
X144407500Y-119635000D01*
G75*
G02*
X144465000Y-119692500I0J-57500D01*
G01*
X144465000Y-119807500D01*
G75*
G02*
X144407500Y-119865000I-57500J0D01*
G01*
G37*
G36*
G01*
X144407500Y-119365000D02*
X143717500Y-119365000D01*
G75*
G02*
X143660000Y-119307500I0J57500D01*
G01*
X143660000Y-119192500D01*
G75*
G02*
X143717500Y-119135000I57500J0D01*
G01*
X144407500Y-119135000D01*
G75*
G02*
X144465000Y-119192500I0J-57500D01*
G01*
X144465000Y-119307500D01*
G75*
G02*
X144407500Y-119365000I-57500J0D01*
G01*
G37*
G36*
G01*
X144407500Y-118865000D02*
X143717500Y-118865000D01*
G75*
G02*
X143660000Y-118807500I0J57500D01*
G01*
X143660000Y-118692500D01*
G75*
G02*
X143717500Y-118635000I57500J0D01*
G01*
X144407500Y-118635000D01*
G75*
G02*
X144465000Y-118692500I0J-57500D01*
G01*
X144465000Y-118807500D01*
G75*
G02*
X144407500Y-118865000I-57500J0D01*
G01*
G37*
G36*
G01*
X144407500Y-118365000D02*
X143717500Y-118365000D01*
G75*
G02*
X143660000Y-118307500I0J57500D01*
G01*
X143660000Y-118192500D01*
G75*
G02*
X143717500Y-118135000I57500J0D01*
G01*
X144407500Y-118135000D01*
G75*
G02*
X144465000Y-118192500I0J-57500D01*
G01*
X144465000Y-118307500D01*
G75*
G02*
X144407500Y-118365000I-57500J0D01*
G01*
G37*
G36*
G01*
X144407500Y-117865000D02*
X143717500Y-117865000D01*
G75*
G02*
X143660000Y-117807500I0J57500D01*
G01*
X143660000Y-117692500D01*
G75*
G02*
X143717500Y-117635000I57500J0D01*
G01*
X144407500Y-117635000D01*
G75*
G02*
X144465000Y-117692500I0J-57500D01*
G01*
X144465000Y-117807500D01*
G75*
G02*
X144407500Y-117865000I-57500J0D01*
G01*
G37*
G36*
G01*
X144807500Y-117465000D02*
X144692500Y-117465000D01*
G75*
G02*
X144635000Y-117407500I0J57500D01*
G01*
X144635000Y-116717500D01*
G75*
G02*
X144692500Y-116660000I57500J0D01*
G01*
X144807500Y-116660000D01*
G75*
G02*
X144865000Y-116717500I0J-57500D01*
G01*
X144865000Y-117407500D01*
G75*
G02*
X144807500Y-117465000I-57500J0D01*
G01*
G37*
G36*
G01*
X145307500Y-117465000D02*
X145192500Y-117465000D01*
G75*
G02*
X145135000Y-117407500I0J57500D01*
G01*
X145135000Y-116717500D01*
G75*
G02*
X145192500Y-116660000I57500J0D01*
G01*
X145307500Y-116660000D01*
G75*
G02*
X145365000Y-116717500I0J-57500D01*
G01*
X145365000Y-117407500D01*
G75*
G02*
X145307500Y-117465000I-57500J0D01*
G01*
G37*
G36*
G01*
X145807500Y-117465000D02*
X145692500Y-117465000D01*
G75*
G02*
X145635000Y-117407500I0J57500D01*
G01*
X145635000Y-116717500D01*
G75*
G02*
X145692500Y-116660000I57500J0D01*
G01*
X145807500Y-116660000D01*
G75*
G02*
X145865000Y-116717500I0J-57500D01*
G01*
X145865000Y-117407500D01*
G75*
G02*
X145807500Y-117465000I-57500J0D01*
G01*
G37*
G36*
G01*
X146307500Y-117465000D02*
X146192500Y-117465000D01*
G75*
G02*
X146135000Y-117407500I0J57500D01*
G01*
X146135000Y-116717500D01*
G75*
G02*
X146192500Y-116660000I57500J0D01*
G01*
X146307500Y-116660000D01*
G75*
G02*
X146365000Y-116717500I0J-57500D01*
G01*
X146365000Y-117407500D01*
G75*
G02*
X146307500Y-117465000I-57500J0D01*
G01*
G37*
G36*
G01*
X146807500Y-117465000D02*
X146692500Y-117465000D01*
G75*
G02*
X146635000Y-117407500I0J57500D01*
G01*
X146635000Y-116717500D01*
G75*
G02*
X146692500Y-116660000I57500J0D01*
G01*
X146807500Y-116660000D01*
G75*
G02*
X146865000Y-116717500I0J-57500D01*
G01*
X146865000Y-117407500D01*
G75*
G02*
X146807500Y-117465000I-57500J0D01*
G01*
G37*
G36*
G01*
X147307500Y-117465000D02*
X147192500Y-117465000D01*
G75*
G02*
X147135000Y-117407500I0J57500D01*
G01*
X147135000Y-116717500D01*
G75*
G02*
X147192500Y-116660000I57500J0D01*
G01*
X147307500Y-116660000D01*
G75*
G02*
X147365000Y-116717500I0J-57500D01*
G01*
X147365000Y-117407500D01*
G75*
G02*
X147307500Y-117465000I-57500J0D01*
G01*
G37*
G36*
G01*
X148282500Y-117865000D02*
X147592500Y-117865000D01*
G75*
G02*
X147535000Y-117807500I0J57500D01*
G01*
X147535000Y-117692500D01*
G75*
G02*
X147592500Y-117635000I57500J0D01*
G01*
X148282500Y-117635000D01*
G75*
G02*
X148340000Y-117692500I0J-57500D01*
G01*
X148340000Y-117807500D01*
G75*
G02*
X148282500Y-117865000I-57500J0D01*
G01*
G37*
G36*
G01*
X148282500Y-118365000D02*
X147592500Y-118365000D01*
G75*
G02*
X147535000Y-118307500I0J57500D01*
G01*
X147535000Y-118192500D01*
G75*
G02*
X147592500Y-118135000I57500J0D01*
G01*
X148282500Y-118135000D01*
G75*
G02*
X148340000Y-118192500I0J-57500D01*
G01*
X148340000Y-118307500D01*
G75*
G02*
X148282500Y-118365000I-57500J0D01*
G01*
G37*
G36*
G01*
X148282500Y-118865000D02*
X147592500Y-118865000D01*
G75*
G02*
X147535000Y-118807500I0J57500D01*
G01*
X147535000Y-118692500D01*
G75*
G02*
X147592500Y-118635000I57500J0D01*
G01*
X148282500Y-118635000D01*
G75*
G02*
X148340000Y-118692500I0J-57500D01*
G01*
X148340000Y-118807500D01*
G75*
G02*
X148282500Y-118865000I-57500J0D01*
G01*
G37*
G36*
G01*
X148282500Y-119365000D02*
X147592500Y-119365000D01*
G75*
G02*
X147535000Y-119307500I0J57500D01*
G01*
X147535000Y-119192500D01*
G75*
G02*
X147592500Y-119135000I57500J0D01*
G01*
X148282500Y-119135000D01*
G75*
G02*
X148340000Y-119192500I0J-57500D01*
G01*
X148340000Y-119307500D01*
G75*
G02*
X148282500Y-119365000I-57500J0D01*
G01*
G37*
G36*
G01*
X148282500Y-119865000D02*
X147592500Y-119865000D01*
G75*
G02*
X147535000Y-119807500I0J57500D01*
G01*
X147535000Y-119692500D01*
G75*
G02*
X147592500Y-119635000I57500J0D01*
G01*
X148282500Y-119635000D01*
G75*
G02*
X148340000Y-119692500I0J-57500D01*
G01*
X148340000Y-119807500D01*
G75*
G02*
X148282500Y-119865000I-57500J0D01*
G01*
G37*
G36*
G01*
X148282500Y-120365000D02*
X147592500Y-120365000D01*
G75*
G02*
X147535000Y-120307500I0J57500D01*
G01*
X147535000Y-120192500D01*
G75*
G02*
X147592500Y-120135000I57500J0D01*
G01*
X148282500Y-120135000D01*
G75*
G02*
X148340000Y-120192500I0J-57500D01*
G01*
X148340000Y-120307500D01*
G75*
G02*
X148282500Y-120365000I-57500J0D01*
G01*
G37*
G36*
G01*
X147307500Y-121340000D02*
X147192500Y-121340000D01*
G75*
G02*
X147135000Y-121282500I0J57500D01*
G01*
X147135000Y-120592500D01*
G75*
G02*
X147192500Y-120535000I57500J0D01*
G01*
X147307500Y-120535000D01*
G75*
G02*
X147365000Y-120592500I0J-57500D01*
G01*
X147365000Y-121282500D01*
G75*
G02*
X147307500Y-121340000I-57500J0D01*
G01*
G37*
G36*
G01*
X146807500Y-121340000D02*
X146692500Y-121340000D01*
G75*
G02*
X146635000Y-121282500I0J57500D01*
G01*
X146635000Y-120592500D01*
G75*
G02*
X146692500Y-120535000I57500J0D01*
G01*
X146807500Y-120535000D01*
G75*
G02*
X146865000Y-120592500I0J-57500D01*
G01*
X146865000Y-121282500D01*
G75*
G02*
X146807500Y-121340000I-57500J0D01*
G01*
G37*
G36*
G01*
X146307500Y-121340000D02*
X146192500Y-121340000D01*
G75*
G02*
X146135000Y-121282500I0J57500D01*
G01*
X146135000Y-120592500D01*
G75*
G02*
X146192500Y-120535000I57500J0D01*
G01*
X146307500Y-120535000D01*
G75*
G02*
X146365000Y-120592500I0J-57500D01*
G01*
X146365000Y-121282500D01*
G75*
G02*
X146307500Y-121340000I-57500J0D01*
G01*
G37*
G36*
G01*
X145807500Y-121340000D02*
X145692500Y-121340000D01*
G75*
G02*
X145635000Y-121282500I0J57500D01*
G01*
X145635000Y-120592500D01*
G75*
G02*
X145692500Y-120535000I57500J0D01*
G01*
X145807500Y-120535000D01*
G75*
G02*
X145865000Y-120592500I0J-57500D01*
G01*
X145865000Y-121282500D01*
G75*
G02*
X145807500Y-121340000I-57500J0D01*
G01*
G37*
G36*
G01*
X145307500Y-121340000D02*
X145192500Y-121340000D01*
G75*
G02*
X145135000Y-121282500I0J57500D01*
G01*
X145135000Y-120592500D01*
G75*
G02*
X145192500Y-120535000I57500J0D01*
G01*
X145307500Y-120535000D01*
G75*
G02*
X145365000Y-120592500I0J-57500D01*
G01*
X145365000Y-121282500D01*
G75*
G02*
X145307500Y-121340000I-57500J0D01*
G01*
G37*
G36*
G01*
X144807500Y-121340000D02*
X144692500Y-121340000D01*
G75*
G02*
X144635000Y-121282500I0J57500D01*
G01*
X144635000Y-120592500D01*
G75*
G02*
X144692500Y-120535000I57500J0D01*
G01*
X144807500Y-120535000D01*
G75*
G02*
X144865000Y-120592500I0J-57500D01*
G01*
X144865000Y-121282500D01*
G75*
G02*
X144807500Y-121340000I-57500J0D01*
G01*
G37*
G36*
G01*
X142115600Y-102475000D02*
X141434400Y-102475000D01*
G75*
G02*
X141125000Y-102165600I0J309400D01*
G01*
X141125000Y-101484400D01*
G75*
G02*
X141434400Y-101175000I309400J0D01*
G01*
X142115600Y-101175000D01*
G75*
G02*
X142425000Y-101484400I0J-309400D01*
G01*
X142425000Y-102165600D01*
G75*
G02*
X142115600Y-102475000I-309400J0D01*
G01*
G37*
G36*
G01*
X142115600Y-104025000D02*
X141434400Y-104025000D01*
G75*
G02*
X141125000Y-103715600I0J309400D01*
G01*
X141125000Y-103034400D01*
G75*
G02*
X141434400Y-102725000I309400J0D01*
G01*
X142115600Y-102725000D01*
G75*
G02*
X142425000Y-103034400I0J-309400D01*
G01*
X142425000Y-103715600D01*
G75*
G02*
X142115600Y-104025000I-309400J0D01*
G01*
G37*
G36*
G01*
X140565600Y-104025000D02*
X139884400Y-104025000D01*
G75*
G02*
X139575000Y-103715600I0J309400D01*
G01*
X139575000Y-103034400D01*
G75*
G02*
X139884400Y-102725000I309400J0D01*
G01*
X140565600Y-102725000D01*
G75*
G02*
X140875000Y-103034400I0J-309400D01*
G01*
X140875000Y-103715600D01*
G75*
G02*
X140565600Y-104025000I-309400J0D01*
G01*
G37*
G36*
G01*
X140565600Y-102475000D02*
X139884400Y-102475000D01*
G75*
G02*
X139575000Y-102165600I0J309400D01*
G01*
X139575000Y-101484400D01*
G75*
G02*
X139884400Y-101175000I309400J0D01*
G01*
X140565600Y-101175000D01*
G75*
G02*
X140875000Y-101484400I0J-309400D01*
G01*
X140875000Y-102165600D01*
G75*
G02*
X140565600Y-102475000I-309400J0D01*
G01*
G37*
D12*
X142750000Y-100250000D03*
X142250000Y-100250000D03*
X141750000Y-100250000D03*
X141250000Y-100250000D03*
X140750000Y-100250000D03*
X140250000Y-100250000D03*
X139750000Y-100250000D03*
X139250000Y-100250000D03*
X142750000Y-104950000D03*
X142250000Y-104950000D03*
X141750000Y-104950000D03*
X141250000Y-104950000D03*
X140750000Y-104950000D03*
X140250000Y-104950000D03*
X139750000Y-104950000D03*
D13*
X143350000Y-100850000D03*
X138650000Y-100850000D03*
X143350000Y-101350000D03*
X138650000Y-101350000D03*
X143350000Y-101850000D03*
X138650000Y-101850000D03*
X143350000Y-102350000D03*
X138650000Y-102350000D03*
X143350000Y-102850000D03*
X138650000Y-102850000D03*
X143350000Y-103350000D03*
X138650000Y-103350000D03*
X143350000Y-103850000D03*
X138650000Y-103850000D03*
X143350000Y-104350000D03*
X138650000Y-104350000D03*
D12*
X139250000Y-104950000D03*
D14*
G36*
X122120000Y-112940000D02*
G01*
X121860000Y-112940000D01*
X121860000Y-112244142D01*
X121994142Y-112110000D01*
X122120000Y-112110000D01*
X122120000Y-112940000D01*
G37*
D15*
X122990000Y-112575000D03*
X122490000Y-112575000D03*
X122990000Y-111425000D03*
X122490000Y-111425000D03*
X121990000Y-111425000D03*
D16*
X128950000Y-88700000D03*
X135250000Y-88700000D03*
D17*
X128940000Y-82130000D03*
X128940000Y-68670000D03*
X135260000Y-82130000D03*
X135260000Y-68670000D03*
D18*
X130640000Y-104505000D03*
X125240000Y-104505000D03*
X130640000Y-103235000D03*
X125240000Y-103235000D03*
X130640000Y-101965000D03*
X125240000Y-101965000D03*
X130640000Y-100695000D03*
X125240000Y-100695000D03*
D19*
X149750000Y-93200000D03*
X151250000Y-93200000D03*
X142250000Y-93200000D03*
X140750000Y-93200000D03*
D20*
X136700000Y-132850000D03*
X136700000Y-131350000D03*
X133300000Y-132850000D03*
X133300000Y-131350000D03*
D21*
X140000000Y-107500000D03*
X138000000Y-107500000D03*
X140000000Y-97700000D03*
X142000000Y-97700000D03*
X125490000Y-114500000D03*
X123490000Y-114500000D03*
D22*
X130640000Y-96000000D03*
X130640000Y-98000000D03*
D21*
X151100000Y-122000000D03*
X153100000Y-122000000D03*
X151100000Y-124000000D03*
X153100000Y-124000000D03*
X151100000Y-126000000D03*
X153100000Y-126000000D03*
X153100000Y-128000000D03*
X151100000Y-128000000D03*
D22*
X153000000Y-133820000D03*
X153000000Y-131820000D03*
X130400000Y-120905000D03*
X130400000Y-122905000D03*
D21*
X140475000Y-125500000D03*
X138475000Y-125500000D03*
X135525000Y-125500000D03*
X133525000Y-125500000D03*
D23*
X144900000Y-125730000D03*
D24*
X144900000Y-127450000D03*
X147100000Y-127450000D03*
X147100000Y-125550000D03*
D25*
X164500000Y-103400000D03*
X162500000Y-104350000D03*
X162500000Y-102450000D03*
X162500000Y-123450000D03*
X162500000Y-125350000D03*
X164500000Y-124400000D03*
X164500000Y-134900000D03*
X162500000Y-135850000D03*
X162500000Y-133950000D03*
D26*
X170000000Y-95450000D03*
X170000000Y-93950000D03*
X135500000Y-100250000D03*
X135500000Y-101750000D03*
D27*
X119740000Y-109500000D03*
X121240000Y-109500000D03*
X125240000Y-109500000D03*
X123740000Y-109500000D03*
X121240000Y-114500000D03*
X119740000Y-114500000D03*
X146750000Y-93200000D03*
X148250000Y-93200000D03*
X143750000Y-93200000D03*
X145250000Y-93200000D03*
D26*
X160000000Y-102450000D03*
X160000000Y-100950000D03*
X160000000Y-111450000D03*
X160000000Y-112950000D03*
X160000000Y-123450000D03*
X160000000Y-121950000D03*
X160000000Y-132450000D03*
X160000000Y-133950000D03*
X160000000Y-105850000D03*
X160000000Y-104350000D03*
X160000000Y-114850000D03*
X160000000Y-116350000D03*
X160000000Y-125350000D03*
X160000000Y-126850000D03*
X160000000Y-137350000D03*
X160000000Y-135850000D03*
X167000000Y-100950000D03*
X167000000Y-102450000D03*
X167000000Y-112950000D03*
X167000000Y-111450000D03*
X167000000Y-121950000D03*
X167000000Y-123450000D03*
X167000000Y-133950000D03*
X167000000Y-132450000D03*
X167000000Y-104350000D03*
X167000000Y-105850000D03*
X167000000Y-114850000D03*
X167000000Y-116350000D03*
X167000000Y-125350000D03*
X167000000Y-126850000D03*
X167000000Y-137350000D03*
X167000000Y-135850000D03*
X122300000Y-101850000D03*
X122300000Y-103350000D03*
X133200000Y-104950000D03*
X133200000Y-103450000D03*
X133200000Y-101750000D03*
X133200000Y-100250000D03*
X153000000Y-137570000D03*
X153000000Y-136070000D03*
D27*
X151350000Y-114600000D03*
X152850000Y-114600000D03*
X148250000Y-114600000D03*
X146750000Y-114600000D03*
X145250000Y-114600000D03*
X143750000Y-114600000D03*
D26*
X151100000Y-117750000D03*
X151100000Y-119250000D03*
X153100000Y-117750000D03*
X153100000Y-119250000D03*
D28*
X143000000Y-107500000D03*
X141800000Y-107500000D03*
X144200000Y-107500000D03*
G36*
G01*
X140440000Y-123300000D02*
X140440000Y-123590000D01*
G75*
G02*
X140295000Y-123735000I-145000J0D01*
G01*
X138655000Y-123735000D01*
G75*
G02*
X138510000Y-123590000I0J145000D01*
G01*
X138510000Y-123300000D01*
G75*
G02*
X138655000Y-123155000I145000J0D01*
G01*
X140295000Y-123155000D01*
G75*
G02*
X140440000Y-123300000I0J-145000D01*
G01*
G37*
G36*
G01*
X140440000Y-122030000D02*
X140440000Y-122320000D01*
G75*
G02*
X140295000Y-122465000I-145000J0D01*
G01*
X138655000Y-122465000D01*
G75*
G02*
X138510000Y-122320000I0J145000D01*
G01*
X138510000Y-122030000D01*
G75*
G02*
X138655000Y-121885000I145000J0D01*
G01*
X140295000Y-121885000D01*
G75*
G02*
X140440000Y-122030000I0J-145000D01*
G01*
G37*
G36*
G01*
X140440000Y-120760000D02*
X140440000Y-121050000D01*
G75*
G02*
X140295000Y-121195000I-145000J0D01*
G01*
X138655000Y-121195000D01*
G75*
G02*
X138510000Y-121050000I0J145000D01*
G01*
X138510000Y-120760000D01*
G75*
G02*
X138655000Y-120615000I145000J0D01*
G01*
X140295000Y-120615000D01*
G75*
G02*
X140440000Y-120760000I0J-145000D01*
G01*
G37*
G36*
G01*
X140440000Y-119490000D02*
X140440000Y-119780000D01*
G75*
G02*
X140295000Y-119925000I-145000J0D01*
G01*
X138655000Y-119925000D01*
G75*
G02*
X138510000Y-119780000I0J145000D01*
G01*
X138510000Y-119490000D01*
G75*
G02*
X138655000Y-119345000I145000J0D01*
G01*
X140295000Y-119345000D01*
G75*
G02*
X140440000Y-119490000I0J-145000D01*
G01*
G37*
G36*
G01*
X140440000Y-118220000D02*
X140440000Y-118510000D01*
G75*
G02*
X140295000Y-118655000I-145000J0D01*
G01*
X138655000Y-118655000D01*
G75*
G02*
X138510000Y-118510000I0J145000D01*
G01*
X138510000Y-118220000D01*
G75*
G02*
X138655000Y-118075000I145000J0D01*
G01*
X140295000Y-118075000D01*
G75*
G02*
X140440000Y-118220000I0J-145000D01*
G01*
G37*
G36*
G01*
X140440000Y-116950000D02*
X140440000Y-117240000D01*
G75*
G02*
X140295000Y-117385000I-145000J0D01*
G01*
X138655000Y-117385000D01*
G75*
G02*
X138510000Y-117240000I0J145000D01*
G01*
X138510000Y-116950000D01*
G75*
G02*
X138655000Y-116805000I145000J0D01*
G01*
X140295000Y-116805000D01*
G75*
G02*
X140440000Y-116950000I0J-145000D01*
G01*
G37*
G36*
G01*
X140440000Y-115680000D02*
X140440000Y-115970000D01*
G75*
G02*
X140295000Y-116115000I-145000J0D01*
G01*
X138655000Y-116115000D01*
G75*
G02*
X138510000Y-115970000I0J145000D01*
G01*
X138510000Y-115680000D01*
G75*
G02*
X138655000Y-115535000I145000J0D01*
G01*
X140295000Y-115535000D01*
G75*
G02*
X140440000Y-115680000I0J-145000D01*
G01*
G37*
G36*
G01*
X140440000Y-114410000D02*
X140440000Y-114700000D01*
G75*
G02*
X140295000Y-114845000I-145000J0D01*
G01*
X138655000Y-114845000D01*
G75*
G02*
X138510000Y-114700000I0J145000D01*
G01*
X138510000Y-114410000D01*
G75*
G02*
X138655000Y-114265000I145000J0D01*
G01*
X140295000Y-114265000D01*
G75*
G02*
X140440000Y-114410000I0J-145000D01*
G01*
G37*
G36*
G01*
X135490000Y-114410000D02*
X135490000Y-114700000D01*
G75*
G02*
X135345000Y-114845000I-145000J0D01*
G01*
X133705000Y-114845000D01*
G75*
G02*
X133560000Y-114700000I0J145000D01*
G01*
X133560000Y-114410000D01*
G75*
G02*
X133705000Y-114265000I145000J0D01*
G01*
X135345000Y-114265000D01*
G75*
G02*
X135490000Y-114410000I0J-145000D01*
G01*
G37*
G36*
G01*
X135490000Y-115680000D02*
X135490000Y-115970000D01*
G75*
G02*
X135345000Y-116115000I-145000J0D01*
G01*
X133705000Y-116115000D01*
G75*
G02*
X133560000Y-115970000I0J145000D01*
G01*
X133560000Y-115680000D01*
G75*
G02*
X133705000Y-115535000I145000J0D01*
G01*
X135345000Y-115535000D01*
G75*
G02*
X135490000Y-115680000I0J-145000D01*
G01*
G37*
G36*
G01*
X135490000Y-116950000D02*
X135490000Y-117240000D01*
G75*
G02*
X135345000Y-117385000I-145000J0D01*
G01*
X133705000Y-117385000D01*
G75*
G02*
X133560000Y-117240000I0J145000D01*
G01*
X133560000Y-116950000D01*
G75*
G02*
X133705000Y-116805000I145000J0D01*
G01*
X135345000Y-116805000D01*
G75*
G02*
X135490000Y-116950000I0J-145000D01*
G01*
G37*
G36*
G01*
X135490000Y-118220000D02*
X135490000Y-118510000D01*
G75*
G02*
X135345000Y-118655000I-145000J0D01*
G01*
X133705000Y-118655000D01*
G75*
G02*
X133560000Y-118510000I0J145000D01*
G01*
X133560000Y-118220000D01*
G75*
G02*
X133705000Y-118075000I145000J0D01*
G01*
X135345000Y-118075000D01*
G75*
G02*
X135490000Y-118220000I0J-145000D01*
G01*
G37*
G36*
G01*
X135490000Y-119490000D02*
X135490000Y-119780000D01*
G75*
G02*
X135345000Y-119925000I-145000J0D01*
G01*
X133705000Y-119925000D01*
G75*
G02*
X133560000Y-119780000I0J145000D01*
G01*
X133560000Y-119490000D01*
G75*
G02*
X133705000Y-119345000I145000J0D01*
G01*
X135345000Y-119345000D01*
G75*
G02*
X135490000Y-119490000I0J-145000D01*
G01*
G37*
G36*
G01*
X135490000Y-120760000D02*
X135490000Y-121050000D01*
G75*
G02*
X135345000Y-121195000I-145000J0D01*
G01*
X133705000Y-121195000D01*
G75*
G02*
X133560000Y-121050000I0J145000D01*
G01*
X133560000Y-120760000D01*
G75*
G02*
X133705000Y-120615000I145000J0D01*
G01*
X135345000Y-120615000D01*
G75*
G02*
X135490000Y-120760000I0J-145000D01*
G01*
G37*
G36*
G01*
X135490000Y-122030000D02*
X135490000Y-122320000D01*
G75*
G02*
X135345000Y-122465000I-145000J0D01*
G01*
X133705000Y-122465000D01*
G75*
G02*
X133560000Y-122320000I0J145000D01*
G01*
X133560000Y-122030000D01*
G75*
G02*
X133705000Y-121885000I145000J0D01*
G01*
X135345000Y-121885000D01*
G75*
G02*
X135490000Y-122030000I0J-145000D01*
G01*
G37*
G36*
G01*
X135490000Y-123300000D02*
X135490000Y-123590000D01*
G75*
G02*
X135345000Y-123735000I-145000J0D01*
G01*
X133705000Y-123735000D01*
G75*
G02*
X133560000Y-123590000I0J145000D01*
G01*
X133560000Y-123300000D01*
G75*
G02*
X133705000Y-123155000I145000J0D01*
G01*
X135345000Y-123155000D01*
G75*
G02*
X135490000Y-123300000I0J-145000D01*
G01*
G37*
D29*
X164600000Y-95650000D03*
X164600000Y-94700000D03*
X164600000Y-93750000D03*
X162400000Y-93750000D03*
X162400000Y-95650000D03*
D22*
X167000000Y-93700000D03*
X167000000Y-95700000D03*
X160000000Y-93700000D03*
X160000000Y-95700000D03*
D25*
X162500000Y-112950000D03*
X162500000Y-114850000D03*
X164500000Y-113900000D03*
M02*
