G04 #@! TF.GenerationSoftware,KiCad,Pcbnew,5.1.6-c6e7f7d~86~ubuntu18.04.1*
G04 #@! TF.CreationDate,2020-06-27T13:31:58-07:00*
G04 #@! TF.ProjectId,VehicleAccessoryController,56656869-636c-4654-9163-636573736f72,1.0*
G04 #@! TF.SameCoordinates,Original*
G04 #@! TF.FileFunction,Soldermask,Top*
G04 #@! TF.FilePolarity,Negative*
%FSLAX46Y46*%
G04 Gerber Fmt 4.6, Leading zero omitted, Abs format (unit mm)*
G04 Created by KiCad (PCBNEW 5.1.6-c6e7f7d~86~ubuntu18.04.1) date 2020-06-27 13:31:58*
%MOMM*%
%LPD*%
G01*
G04 APERTURE LIST*
%ADD10C,0.500000*%
%ADD11C,0.950000*%
%ADD12R,0.700000X2.450000*%
%ADD13R,2.200000X2.700000*%
%ADD14O,0.390000X0.740000*%
%ADD15O,0.740000X0.390000*%
%ADD16C,7.102000*%
%ADD17C,0.100000*%
%ADD18R,0.380000X0.850000*%
%ADD19C,2.102000*%
%ADD20R,2.472000X2.532000*%
%ADD21R,2.922000X1.672000*%
%ADD22R,1.750000X0.800000*%
%ADD23R,0.902000X1.102000*%
%ADD24R,1.102000X0.902000*%
%ADD25C,2.002000*%
%ADD26R,1.102000X1.302000*%
%ADD27R,1.302000X1.102000*%
%ADD28R,1.502000X1.302000*%
%ADD29R,1.502000X1.102000*%
%ADD30C,2.000000*%
%ADD31C,0.886860*%
%ADD32C,1.090060*%
%ADD33C,1.087520*%
%ADD34C,2.474360*%
%ADD35C,2.471820*%
%ADD36R,1.002000X0.902000*%
%ADD37R,1.102000X0.802000*%
%ADD38R,0.802000X1.102000*%
%ADD39R,0.600000X1.500000*%
%ADD40R,1.162000X0.752000*%
G04 APERTURE END LIST*
D10*
X157900000Y-140700000D02*
X157900000Y-112000000D01*
X128000000Y-91210000D02*
X157900000Y-91210000D01*
X128000000Y-140700000D02*
X128000000Y-91210000D01*
X128000000Y-128000000D02*
X137000000Y-128000000D01*
X137000000Y-112000000D02*
X137000000Y-128000000D01*
X157900000Y-112000000D02*
X137000000Y-112000000D01*
X157900000Y-91210000D02*
X157900000Y-65500000D01*
D11*
X143800000Y-134820000D02*
G75*
G03*
X143800000Y-134820000I0J0D01*
G01*
X148200000Y-134820000D02*
G75*
G03*
X148200000Y-134820000I0J0D01*
G01*
D12*
X147600000Y-132145000D03*
X146800000Y-132145000D03*
X146000000Y-132145000D03*
X145200000Y-132145000D03*
D13*
X150450000Y-137720000D03*
X141550000Y-137720000D03*
X150450000Y-132270000D03*
X141550000Y-132270000D03*
D12*
X144400000Y-132145000D03*
G36*
G01*
X147091608Y-120351000D02*
X144908392Y-120351000D01*
G75*
G02*
X144649000Y-120091608I0J259392D01*
G01*
X144649000Y-117908392D01*
G75*
G02*
X144908392Y-117649000I259392J0D01*
G01*
X147091608Y-117649000D01*
G75*
G02*
X147351000Y-117908392I0J-259392D01*
G01*
X147351000Y-120091608D01*
G75*
G02*
X147091608Y-120351000I-259392J0D01*
G01*
G37*
G36*
G01*
X144438000Y-120426000D02*
X143687000Y-120426000D01*
G75*
G02*
X143599000Y-120338000I0J88000D01*
G01*
X143599000Y-120162000D01*
G75*
G02*
X143687000Y-120074000I88000J0D01*
G01*
X144438000Y-120074000D01*
G75*
G02*
X144526000Y-120162000I0J-88000D01*
G01*
X144526000Y-120338000D01*
G75*
G02*
X144438000Y-120426000I-88000J0D01*
G01*
G37*
G36*
G01*
X144438000Y-119926000D02*
X143687000Y-119926000D01*
G75*
G02*
X143599000Y-119838000I0J88000D01*
G01*
X143599000Y-119662000D01*
G75*
G02*
X143687000Y-119574000I88000J0D01*
G01*
X144438000Y-119574000D01*
G75*
G02*
X144526000Y-119662000I0J-88000D01*
G01*
X144526000Y-119838000D01*
G75*
G02*
X144438000Y-119926000I-88000J0D01*
G01*
G37*
G36*
G01*
X144438000Y-119426000D02*
X143687000Y-119426000D01*
G75*
G02*
X143599000Y-119338000I0J88000D01*
G01*
X143599000Y-119162000D01*
G75*
G02*
X143687000Y-119074000I88000J0D01*
G01*
X144438000Y-119074000D01*
G75*
G02*
X144526000Y-119162000I0J-88000D01*
G01*
X144526000Y-119338000D01*
G75*
G02*
X144438000Y-119426000I-88000J0D01*
G01*
G37*
G36*
G01*
X144438000Y-118926000D02*
X143687000Y-118926000D01*
G75*
G02*
X143599000Y-118838000I0J88000D01*
G01*
X143599000Y-118662000D01*
G75*
G02*
X143687000Y-118574000I88000J0D01*
G01*
X144438000Y-118574000D01*
G75*
G02*
X144526000Y-118662000I0J-88000D01*
G01*
X144526000Y-118838000D01*
G75*
G02*
X144438000Y-118926000I-88000J0D01*
G01*
G37*
G36*
G01*
X144438000Y-118426000D02*
X143687000Y-118426000D01*
G75*
G02*
X143599000Y-118338000I0J88000D01*
G01*
X143599000Y-118162000D01*
G75*
G02*
X143687000Y-118074000I88000J0D01*
G01*
X144438000Y-118074000D01*
G75*
G02*
X144526000Y-118162000I0J-88000D01*
G01*
X144526000Y-118338000D01*
G75*
G02*
X144438000Y-118426000I-88000J0D01*
G01*
G37*
G36*
G01*
X144438000Y-117926000D02*
X143687000Y-117926000D01*
G75*
G02*
X143599000Y-117838000I0J88000D01*
G01*
X143599000Y-117662000D01*
G75*
G02*
X143687000Y-117574000I88000J0D01*
G01*
X144438000Y-117574000D01*
G75*
G02*
X144526000Y-117662000I0J-88000D01*
G01*
X144526000Y-117838000D01*
G75*
G02*
X144438000Y-117926000I-88000J0D01*
G01*
G37*
G36*
G01*
X144838000Y-117526000D02*
X144662000Y-117526000D01*
G75*
G02*
X144574000Y-117438000I0J88000D01*
G01*
X144574000Y-116687000D01*
G75*
G02*
X144662000Y-116599000I88000J0D01*
G01*
X144838000Y-116599000D01*
G75*
G02*
X144926000Y-116687000I0J-88000D01*
G01*
X144926000Y-117438000D01*
G75*
G02*
X144838000Y-117526000I-88000J0D01*
G01*
G37*
G36*
G01*
X145338000Y-117526000D02*
X145162000Y-117526000D01*
G75*
G02*
X145074000Y-117438000I0J88000D01*
G01*
X145074000Y-116687000D01*
G75*
G02*
X145162000Y-116599000I88000J0D01*
G01*
X145338000Y-116599000D01*
G75*
G02*
X145426000Y-116687000I0J-88000D01*
G01*
X145426000Y-117438000D01*
G75*
G02*
X145338000Y-117526000I-88000J0D01*
G01*
G37*
G36*
G01*
X145838000Y-117526000D02*
X145662000Y-117526000D01*
G75*
G02*
X145574000Y-117438000I0J88000D01*
G01*
X145574000Y-116687000D01*
G75*
G02*
X145662000Y-116599000I88000J0D01*
G01*
X145838000Y-116599000D01*
G75*
G02*
X145926000Y-116687000I0J-88000D01*
G01*
X145926000Y-117438000D01*
G75*
G02*
X145838000Y-117526000I-88000J0D01*
G01*
G37*
G36*
G01*
X146338000Y-117526000D02*
X146162000Y-117526000D01*
G75*
G02*
X146074000Y-117438000I0J88000D01*
G01*
X146074000Y-116687000D01*
G75*
G02*
X146162000Y-116599000I88000J0D01*
G01*
X146338000Y-116599000D01*
G75*
G02*
X146426000Y-116687000I0J-88000D01*
G01*
X146426000Y-117438000D01*
G75*
G02*
X146338000Y-117526000I-88000J0D01*
G01*
G37*
G36*
G01*
X146838000Y-117526000D02*
X146662000Y-117526000D01*
G75*
G02*
X146574000Y-117438000I0J88000D01*
G01*
X146574000Y-116687000D01*
G75*
G02*
X146662000Y-116599000I88000J0D01*
G01*
X146838000Y-116599000D01*
G75*
G02*
X146926000Y-116687000I0J-88000D01*
G01*
X146926000Y-117438000D01*
G75*
G02*
X146838000Y-117526000I-88000J0D01*
G01*
G37*
G36*
G01*
X147338000Y-117526000D02*
X147162000Y-117526000D01*
G75*
G02*
X147074000Y-117438000I0J88000D01*
G01*
X147074000Y-116687000D01*
G75*
G02*
X147162000Y-116599000I88000J0D01*
G01*
X147338000Y-116599000D01*
G75*
G02*
X147426000Y-116687000I0J-88000D01*
G01*
X147426000Y-117438000D01*
G75*
G02*
X147338000Y-117526000I-88000J0D01*
G01*
G37*
G36*
G01*
X148313000Y-117926000D02*
X147562000Y-117926000D01*
G75*
G02*
X147474000Y-117838000I0J88000D01*
G01*
X147474000Y-117662000D01*
G75*
G02*
X147562000Y-117574000I88000J0D01*
G01*
X148313000Y-117574000D01*
G75*
G02*
X148401000Y-117662000I0J-88000D01*
G01*
X148401000Y-117838000D01*
G75*
G02*
X148313000Y-117926000I-88000J0D01*
G01*
G37*
G36*
G01*
X148313000Y-118426000D02*
X147562000Y-118426000D01*
G75*
G02*
X147474000Y-118338000I0J88000D01*
G01*
X147474000Y-118162000D01*
G75*
G02*
X147562000Y-118074000I88000J0D01*
G01*
X148313000Y-118074000D01*
G75*
G02*
X148401000Y-118162000I0J-88000D01*
G01*
X148401000Y-118338000D01*
G75*
G02*
X148313000Y-118426000I-88000J0D01*
G01*
G37*
G36*
G01*
X148313000Y-118926000D02*
X147562000Y-118926000D01*
G75*
G02*
X147474000Y-118838000I0J88000D01*
G01*
X147474000Y-118662000D01*
G75*
G02*
X147562000Y-118574000I88000J0D01*
G01*
X148313000Y-118574000D01*
G75*
G02*
X148401000Y-118662000I0J-88000D01*
G01*
X148401000Y-118838000D01*
G75*
G02*
X148313000Y-118926000I-88000J0D01*
G01*
G37*
G36*
G01*
X148313000Y-119426000D02*
X147562000Y-119426000D01*
G75*
G02*
X147474000Y-119338000I0J88000D01*
G01*
X147474000Y-119162000D01*
G75*
G02*
X147562000Y-119074000I88000J0D01*
G01*
X148313000Y-119074000D01*
G75*
G02*
X148401000Y-119162000I0J-88000D01*
G01*
X148401000Y-119338000D01*
G75*
G02*
X148313000Y-119426000I-88000J0D01*
G01*
G37*
G36*
G01*
X148313000Y-119926000D02*
X147562000Y-119926000D01*
G75*
G02*
X147474000Y-119838000I0J88000D01*
G01*
X147474000Y-119662000D01*
G75*
G02*
X147562000Y-119574000I88000J0D01*
G01*
X148313000Y-119574000D01*
G75*
G02*
X148401000Y-119662000I0J-88000D01*
G01*
X148401000Y-119838000D01*
G75*
G02*
X148313000Y-119926000I-88000J0D01*
G01*
G37*
G36*
G01*
X148313000Y-120426000D02*
X147562000Y-120426000D01*
G75*
G02*
X147474000Y-120338000I0J88000D01*
G01*
X147474000Y-120162000D01*
G75*
G02*
X147562000Y-120074000I88000J0D01*
G01*
X148313000Y-120074000D01*
G75*
G02*
X148401000Y-120162000I0J-88000D01*
G01*
X148401000Y-120338000D01*
G75*
G02*
X148313000Y-120426000I-88000J0D01*
G01*
G37*
G36*
G01*
X147338000Y-121401000D02*
X147162000Y-121401000D01*
G75*
G02*
X147074000Y-121313000I0J88000D01*
G01*
X147074000Y-120562000D01*
G75*
G02*
X147162000Y-120474000I88000J0D01*
G01*
X147338000Y-120474000D01*
G75*
G02*
X147426000Y-120562000I0J-88000D01*
G01*
X147426000Y-121313000D01*
G75*
G02*
X147338000Y-121401000I-88000J0D01*
G01*
G37*
G36*
G01*
X146838000Y-121401000D02*
X146662000Y-121401000D01*
G75*
G02*
X146574000Y-121313000I0J88000D01*
G01*
X146574000Y-120562000D01*
G75*
G02*
X146662000Y-120474000I88000J0D01*
G01*
X146838000Y-120474000D01*
G75*
G02*
X146926000Y-120562000I0J-88000D01*
G01*
X146926000Y-121313000D01*
G75*
G02*
X146838000Y-121401000I-88000J0D01*
G01*
G37*
G36*
G01*
X146338000Y-121401000D02*
X146162000Y-121401000D01*
G75*
G02*
X146074000Y-121313000I0J88000D01*
G01*
X146074000Y-120562000D01*
G75*
G02*
X146162000Y-120474000I88000J0D01*
G01*
X146338000Y-120474000D01*
G75*
G02*
X146426000Y-120562000I0J-88000D01*
G01*
X146426000Y-121313000D01*
G75*
G02*
X146338000Y-121401000I-88000J0D01*
G01*
G37*
G36*
G01*
X145838000Y-121401000D02*
X145662000Y-121401000D01*
G75*
G02*
X145574000Y-121313000I0J88000D01*
G01*
X145574000Y-120562000D01*
G75*
G02*
X145662000Y-120474000I88000J0D01*
G01*
X145838000Y-120474000D01*
G75*
G02*
X145926000Y-120562000I0J-88000D01*
G01*
X145926000Y-121313000D01*
G75*
G02*
X145838000Y-121401000I-88000J0D01*
G01*
G37*
G36*
G01*
X145338000Y-121401000D02*
X145162000Y-121401000D01*
G75*
G02*
X145074000Y-121313000I0J88000D01*
G01*
X145074000Y-120562000D01*
G75*
G02*
X145162000Y-120474000I88000J0D01*
G01*
X145338000Y-120474000D01*
G75*
G02*
X145426000Y-120562000I0J-88000D01*
G01*
X145426000Y-121313000D01*
G75*
G02*
X145338000Y-121401000I-88000J0D01*
G01*
G37*
G36*
G01*
X144838000Y-121401000D02*
X144662000Y-121401000D01*
G75*
G02*
X144574000Y-121313000I0J88000D01*
G01*
X144574000Y-120562000D01*
G75*
G02*
X144662000Y-120474000I88000J0D01*
G01*
X144838000Y-120474000D01*
G75*
G02*
X144926000Y-120562000I0J-88000D01*
G01*
X144926000Y-121313000D01*
G75*
G02*
X144838000Y-121401000I-88000J0D01*
G01*
G37*
D14*
X142750000Y-100250000D03*
X142250000Y-100250000D03*
X141750000Y-100250000D03*
X141250000Y-100250000D03*
X140750000Y-100250000D03*
X140250000Y-100250000D03*
X139750000Y-100250000D03*
X139250000Y-100250000D03*
X142750000Y-104950000D03*
X142250000Y-104950000D03*
X141750000Y-104950000D03*
X141250000Y-104950000D03*
X140750000Y-104950000D03*
X140250000Y-104950000D03*
X139750000Y-104950000D03*
D15*
X143350000Y-100850000D03*
X138650000Y-100850000D03*
X143350000Y-101350000D03*
X138650000Y-101350000D03*
X143350000Y-101850000D03*
X138650000Y-101850000D03*
X143350000Y-102350000D03*
X138650000Y-102350000D03*
X143350000Y-102850000D03*
X138650000Y-102850000D03*
X143350000Y-103350000D03*
X138650000Y-103350000D03*
X143350000Y-103850000D03*
X138650000Y-103850000D03*
X143350000Y-104350000D03*
X138650000Y-104350000D03*
D14*
X139250000Y-104950000D03*
G36*
G01*
X142333200Y-104250000D02*
X139666800Y-104250000D01*
G75*
G02*
X139350000Y-103933200I0J316800D01*
G01*
X139350000Y-101266800D01*
G75*
G02*
X139666800Y-100950000I316800J0D01*
G01*
X142333200Y-100950000D01*
G75*
G02*
X142650000Y-101266800I0J-316800D01*
G01*
X142650000Y-103933200D01*
G75*
G02*
X142333200Y-104250000I-316800J0D01*
G01*
G37*
D16*
X121800000Y-135700000D03*
X121800000Y-70500000D03*
D17*
G36*
X121949755Y-112050961D02*
G01*
X121959134Y-112053806D01*
X121967779Y-112058427D01*
X121975355Y-112064645D01*
X121981573Y-112072221D01*
X121986194Y-112080866D01*
X121989039Y-112090245D01*
X121990000Y-112100000D01*
X121990000Y-112950000D01*
X121989039Y-112959755D01*
X121986194Y-112969134D01*
X121981573Y-112977779D01*
X121975355Y-112985355D01*
X121967779Y-112991573D01*
X121959134Y-112996194D01*
X121949755Y-112999039D01*
X121940000Y-113000000D01*
X121660000Y-113000000D01*
X121650245Y-112999039D01*
X121640866Y-112996194D01*
X121632221Y-112991573D01*
X121624645Y-112985355D01*
X121618427Y-112977779D01*
X121613806Y-112969134D01*
X121610961Y-112959755D01*
X121610000Y-112950000D01*
X121610000Y-112240000D01*
X121610961Y-112230245D01*
X121613806Y-112220866D01*
X121618427Y-112212221D01*
X121624645Y-112204645D01*
X121764645Y-112064645D01*
X121772221Y-112058427D01*
X121780866Y-112053806D01*
X121790245Y-112050961D01*
X121800000Y-112050000D01*
X121940000Y-112050000D01*
X121949755Y-112050961D01*
G37*
D18*
X122800000Y-112575000D03*
X122300000Y-112575000D03*
X122800000Y-111425000D03*
X122300000Y-111425000D03*
X121800000Y-111425000D03*
D19*
X140120000Y-70580000D03*
X140120000Y-80740000D03*
X140120000Y-85820000D03*
X175680000Y-88360000D03*
X175680000Y-78200000D03*
X175680000Y-68040000D03*
D20*
X128950000Y-88700000D03*
X135250000Y-88700000D03*
D19*
X122800000Y-88500000D03*
X122800000Y-78500000D03*
X122800000Y-83500000D03*
D21*
X128940000Y-82130000D03*
X128940000Y-68670000D03*
X135260000Y-82130000D03*
X135260000Y-68670000D03*
D22*
X130640000Y-104505000D03*
X125240000Y-104505000D03*
X130640000Y-103235000D03*
X125240000Y-103235000D03*
X130640000Y-101965000D03*
X125240000Y-101965000D03*
X130640000Y-100695000D03*
X125240000Y-100695000D03*
D23*
X149750000Y-93200000D03*
X151250000Y-93200000D03*
X142250000Y-93200000D03*
X140750000Y-93200000D03*
D24*
X136700000Y-132850000D03*
X136700000Y-131350000D03*
X133300000Y-132850000D03*
X133300000Y-131350000D03*
D25*
X120990000Y-125540000D03*
X120990000Y-120460000D03*
X126070000Y-125540000D03*
X126070000Y-123000000D03*
X126070000Y-120460000D03*
X172400000Y-99900000D03*
X172400000Y-103400000D03*
X172400000Y-106900000D03*
X172400000Y-110400000D03*
X172400000Y-113900000D03*
X172400000Y-117400000D03*
X172400000Y-120900000D03*
X172400000Y-124400000D03*
X172400000Y-127900000D03*
X172400000Y-131400000D03*
X172400000Y-134900000D03*
X172400000Y-138400000D03*
D26*
X140000000Y-107500000D03*
X138000000Y-107500000D03*
X140000000Y-97700000D03*
X142000000Y-97700000D03*
X125300000Y-114500000D03*
X123300000Y-114500000D03*
D27*
X130640000Y-96000000D03*
X130640000Y-98000000D03*
D26*
X151100000Y-122000000D03*
X153100000Y-122000000D03*
X151100000Y-124000000D03*
X153100000Y-124000000D03*
X151100000Y-126000000D03*
X153100000Y-126000000D03*
X153100000Y-128000000D03*
X151100000Y-128000000D03*
D27*
X153000000Y-133820000D03*
X153000000Y-131820000D03*
X130400000Y-120905000D03*
X130400000Y-122905000D03*
D26*
X140475000Y-125500000D03*
X138475000Y-125500000D03*
X135525000Y-125500000D03*
X133525000Y-125500000D03*
D28*
X144900000Y-125730000D03*
D29*
X144900000Y-127450000D03*
X147100000Y-127450000D03*
X147100000Y-125550000D03*
D30*
X132100000Y-72000000D03*
X132100000Y-138900000D03*
X155840000Y-138900000D03*
D31*
X151365000Y-101330000D03*
X152635000Y-101330000D03*
X151365000Y-102600000D03*
X152635000Y-102600000D03*
X151365000Y-103870000D03*
X152635000Y-103870000D03*
D32*
X152000000Y-100060000D03*
D33*
X153016000Y-105140000D03*
X150984000Y-105140000D03*
D34*
X154540000Y-100060000D03*
D35*
X154540000Y-103235000D03*
X149460000Y-100187000D03*
X149460000Y-103235000D03*
D36*
X164500000Y-103400000D03*
X162500000Y-104350000D03*
X162500000Y-102450000D03*
X162500000Y-123450000D03*
X162500000Y-125350000D03*
X164500000Y-124400000D03*
X164500000Y-134900000D03*
X162500000Y-135850000D03*
X162500000Y-133950000D03*
D37*
X170000000Y-95450000D03*
X170000000Y-93950000D03*
X135500000Y-100250000D03*
X135500000Y-101750000D03*
D38*
X119550000Y-109500000D03*
X121050000Y-109500000D03*
X125050000Y-109500000D03*
X123550000Y-109500000D03*
X121050000Y-114500000D03*
X119550000Y-114500000D03*
X146750000Y-93200000D03*
X148250000Y-93200000D03*
X143750000Y-93200000D03*
X145250000Y-93200000D03*
D37*
X160000000Y-102450000D03*
X160000000Y-100950000D03*
X160000000Y-111450000D03*
X160000000Y-112950000D03*
X160000000Y-123450000D03*
X160000000Y-121950000D03*
X160000000Y-132450000D03*
X160000000Y-133950000D03*
X160000000Y-105850000D03*
X160000000Y-104350000D03*
X160000000Y-114850000D03*
X160000000Y-116350000D03*
X160000000Y-125350000D03*
X160000000Y-126850000D03*
X160000000Y-137350000D03*
X160000000Y-135850000D03*
X167000000Y-100950000D03*
X167000000Y-102450000D03*
X167000000Y-112950000D03*
X167000000Y-111450000D03*
X167000000Y-121950000D03*
X167000000Y-123450000D03*
X167000000Y-133950000D03*
X167000000Y-132450000D03*
X167000000Y-104350000D03*
X167000000Y-105850000D03*
X167000000Y-114850000D03*
X167000000Y-116350000D03*
X167000000Y-125350000D03*
X167000000Y-126850000D03*
X167000000Y-137350000D03*
X167000000Y-135850000D03*
X122300000Y-101850000D03*
X122300000Y-103350000D03*
X133200000Y-104950000D03*
X133200000Y-103450000D03*
X133200000Y-101750000D03*
X133200000Y-100250000D03*
X153000000Y-137570000D03*
X153000000Y-136070000D03*
D38*
X151350000Y-114600000D03*
X152850000Y-114600000D03*
X148250000Y-114600000D03*
X146750000Y-114600000D03*
X145250000Y-114600000D03*
X143750000Y-114600000D03*
D37*
X151100000Y-117750000D03*
X151100000Y-119250000D03*
X153100000Y-117750000D03*
X153100000Y-119250000D03*
D39*
X143000000Y-107500000D03*
X141800000Y-107500000D03*
X144200000Y-107500000D03*
G36*
G01*
X140501000Y-123269500D02*
X140501000Y-123620500D01*
G75*
G02*
X140325500Y-123796000I-175500J0D01*
G01*
X138624500Y-123796000D01*
G75*
G02*
X138449000Y-123620500I0J175500D01*
G01*
X138449000Y-123269500D01*
G75*
G02*
X138624500Y-123094000I175500J0D01*
G01*
X140325500Y-123094000D01*
G75*
G02*
X140501000Y-123269500I0J-175500D01*
G01*
G37*
G36*
G01*
X140501000Y-121999500D02*
X140501000Y-122350500D01*
G75*
G02*
X140325500Y-122526000I-175500J0D01*
G01*
X138624500Y-122526000D01*
G75*
G02*
X138449000Y-122350500I0J175500D01*
G01*
X138449000Y-121999500D01*
G75*
G02*
X138624500Y-121824000I175500J0D01*
G01*
X140325500Y-121824000D01*
G75*
G02*
X140501000Y-121999500I0J-175500D01*
G01*
G37*
G36*
G01*
X140501000Y-120729500D02*
X140501000Y-121080500D01*
G75*
G02*
X140325500Y-121256000I-175500J0D01*
G01*
X138624500Y-121256000D01*
G75*
G02*
X138449000Y-121080500I0J175500D01*
G01*
X138449000Y-120729500D01*
G75*
G02*
X138624500Y-120554000I175500J0D01*
G01*
X140325500Y-120554000D01*
G75*
G02*
X140501000Y-120729500I0J-175500D01*
G01*
G37*
G36*
G01*
X140501000Y-119459500D02*
X140501000Y-119810500D01*
G75*
G02*
X140325500Y-119986000I-175500J0D01*
G01*
X138624500Y-119986000D01*
G75*
G02*
X138449000Y-119810500I0J175500D01*
G01*
X138449000Y-119459500D01*
G75*
G02*
X138624500Y-119284000I175500J0D01*
G01*
X140325500Y-119284000D01*
G75*
G02*
X140501000Y-119459500I0J-175500D01*
G01*
G37*
G36*
G01*
X140501000Y-118189500D02*
X140501000Y-118540500D01*
G75*
G02*
X140325500Y-118716000I-175500J0D01*
G01*
X138624500Y-118716000D01*
G75*
G02*
X138449000Y-118540500I0J175500D01*
G01*
X138449000Y-118189500D01*
G75*
G02*
X138624500Y-118014000I175500J0D01*
G01*
X140325500Y-118014000D01*
G75*
G02*
X140501000Y-118189500I0J-175500D01*
G01*
G37*
G36*
G01*
X140501000Y-116919500D02*
X140501000Y-117270500D01*
G75*
G02*
X140325500Y-117446000I-175500J0D01*
G01*
X138624500Y-117446000D01*
G75*
G02*
X138449000Y-117270500I0J175500D01*
G01*
X138449000Y-116919500D01*
G75*
G02*
X138624500Y-116744000I175500J0D01*
G01*
X140325500Y-116744000D01*
G75*
G02*
X140501000Y-116919500I0J-175500D01*
G01*
G37*
G36*
G01*
X140501000Y-115649500D02*
X140501000Y-116000500D01*
G75*
G02*
X140325500Y-116176000I-175500J0D01*
G01*
X138624500Y-116176000D01*
G75*
G02*
X138449000Y-116000500I0J175500D01*
G01*
X138449000Y-115649500D01*
G75*
G02*
X138624500Y-115474000I175500J0D01*
G01*
X140325500Y-115474000D01*
G75*
G02*
X140501000Y-115649500I0J-175500D01*
G01*
G37*
G36*
G01*
X140501000Y-114379500D02*
X140501000Y-114730500D01*
G75*
G02*
X140325500Y-114906000I-175500J0D01*
G01*
X138624500Y-114906000D01*
G75*
G02*
X138449000Y-114730500I0J175500D01*
G01*
X138449000Y-114379500D01*
G75*
G02*
X138624500Y-114204000I175500J0D01*
G01*
X140325500Y-114204000D01*
G75*
G02*
X140501000Y-114379500I0J-175500D01*
G01*
G37*
G36*
G01*
X135551000Y-114379500D02*
X135551000Y-114730500D01*
G75*
G02*
X135375500Y-114906000I-175500J0D01*
G01*
X133674500Y-114906000D01*
G75*
G02*
X133499000Y-114730500I0J175500D01*
G01*
X133499000Y-114379500D01*
G75*
G02*
X133674500Y-114204000I175500J0D01*
G01*
X135375500Y-114204000D01*
G75*
G02*
X135551000Y-114379500I0J-175500D01*
G01*
G37*
G36*
G01*
X135551000Y-115649500D02*
X135551000Y-116000500D01*
G75*
G02*
X135375500Y-116176000I-175500J0D01*
G01*
X133674500Y-116176000D01*
G75*
G02*
X133499000Y-116000500I0J175500D01*
G01*
X133499000Y-115649500D01*
G75*
G02*
X133674500Y-115474000I175500J0D01*
G01*
X135375500Y-115474000D01*
G75*
G02*
X135551000Y-115649500I0J-175500D01*
G01*
G37*
G36*
G01*
X135551000Y-116919500D02*
X135551000Y-117270500D01*
G75*
G02*
X135375500Y-117446000I-175500J0D01*
G01*
X133674500Y-117446000D01*
G75*
G02*
X133499000Y-117270500I0J175500D01*
G01*
X133499000Y-116919500D01*
G75*
G02*
X133674500Y-116744000I175500J0D01*
G01*
X135375500Y-116744000D01*
G75*
G02*
X135551000Y-116919500I0J-175500D01*
G01*
G37*
G36*
G01*
X135551000Y-118189500D02*
X135551000Y-118540500D01*
G75*
G02*
X135375500Y-118716000I-175500J0D01*
G01*
X133674500Y-118716000D01*
G75*
G02*
X133499000Y-118540500I0J175500D01*
G01*
X133499000Y-118189500D01*
G75*
G02*
X133674500Y-118014000I175500J0D01*
G01*
X135375500Y-118014000D01*
G75*
G02*
X135551000Y-118189500I0J-175500D01*
G01*
G37*
G36*
G01*
X135551000Y-119459500D02*
X135551000Y-119810500D01*
G75*
G02*
X135375500Y-119986000I-175500J0D01*
G01*
X133674500Y-119986000D01*
G75*
G02*
X133499000Y-119810500I0J175500D01*
G01*
X133499000Y-119459500D01*
G75*
G02*
X133674500Y-119284000I175500J0D01*
G01*
X135375500Y-119284000D01*
G75*
G02*
X135551000Y-119459500I0J-175500D01*
G01*
G37*
G36*
G01*
X135551000Y-120729500D02*
X135551000Y-121080500D01*
G75*
G02*
X135375500Y-121256000I-175500J0D01*
G01*
X133674500Y-121256000D01*
G75*
G02*
X133499000Y-121080500I0J175500D01*
G01*
X133499000Y-120729500D01*
G75*
G02*
X133674500Y-120554000I175500J0D01*
G01*
X135375500Y-120554000D01*
G75*
G02*
X135551000Y-120729500I0J-175500D01*
G01*
G37*
G36*
G01*
X135551000Y-121999500D02*
X135551000Y-122350500D01*
G75*
G02*
X135375500Y-122526000I-175500J0D01*
G01*
X133674500Y-122526000D01*
G75*
G02*
X133499000Y-122350500I0J175500D01*
G01*
X133499000Y-121999500D01*
G75*
G02*
X133674500Y-121824000I175500J0D01*
G01*
X135375500Y-121824000D01*
G75*
G02*
X135551000Y-121999500I0J-175500D01*
G01*
G37*
G36*
G01*
X135551000Y-123269500D02*
X135551000Y-123620500D01*
G75*
G02*
X135375500Y-123796000I-175500J0D01*
G01*
X133674500Y-123796000D01*
G75*
G02*
X133499000Y-123620500I0J175500D01*
G01*
X133499000Y-123269500D01*
G75*
G02*
X133674500Y-123094000I175500J0D01*
G01*
X135375500Y-123094000D01*
G75*
G02*
X135551000Y-123269500I0J-175500D01*
G01*
G37*
D40*
X164600000Y-95650000D03*
X164600000Y-94700000D03*
X164600000Y-93750000D03*
X162400000Y-93750000D03*
X162400000Y-95650000D03*
D27*
X167000000Y-93700000D03*
X167000000Y-95700000D03*
X160000000Y-93700000D03*
X160000000Y-95700000D03*
D36*
X162500000Y-112950000D03*
X162500000Y-114850000D03*
X164500000Y-113900000D03*
M02*
