G04 #@! TF.GenerationSoftware,KiCad,Pcbnew,5.1.6-c6e7f7d~86~ubuntu18.04.1*
G04 #@! TF.CreationDate,2020-06-28T14:12:15-07:00*
G04 #@! TF.ProjectId,VehicleAccessoryController,56656869-636c-4654-9163-636573736f72,1.0*
G04 #@! TF.SameCoordinates,Original*
G04 #@! TF.FileFunction,Legend,Top*
G04 #@! TF.FilePolarity,Positive*
%FSLAX46Y46*%
G04 Gerber Fmt 4.6, Leading zero omitted, Abs format (unit mm)*
G04 Created by KiCad (PCBNEW 5.1.6-c6e7f7d~86~ubuntu18.04.1) date 2020-06-28 14:12:15*
%MOMM*%
%LPD*%
G01*
G04 APERTURE LIST*
%ADD10C,0.300000*%
%ADD11C,0.150000*%
%ADD12C,0.250000*%
%ADD13C,0.120000*%
%ADD14C,0.127000*%
%ADD15C,0.400000*%
%ADD16C,0.100000*%
%ADD17C,0.125000*%
G04 APERTURE END LIST*
D10*
X118966666Y-128001666D02*
X118966666Y-128268333D01*
X118900000Y-128401666D01*
X118766666Y-128535000D01*
X118500000Y-128601666D01*
X118033333Y-128601666D01*
X117766666Y-128535000D01*
X117633333Y-128401666D01*
X117566666Y-128268333D01*
X117566666Y-128001666D01*
X117633333Y-127868333D01*
X117766666Y-127735000D01*
X118033333Y-127668333D01*
X118500000Y-127668333D01*
X118766666Y-127735000D01*
X118900000Y-127868333D01*
X118966666Y-128001666D01*
X118300000Y-129668333D02*
X118300000Y-129201666D01*
X117566666Y-129201666D02*
X118966666Y-129201666D01*
X118966666Y-129868333D01*
X118300000Y-130868333D02*
X118300000Y-130401666D01*
X117566666Y-130401666D02*
X118966666Y-130401666D01*
X118966666Y-131068333D01*
X118966666Y-116333333D02*
X118966666Y-116600000D01*
X118900000Y-116733333D01*
X118766666Y-116866666D01*
X118500000Y-116933333D01*
X118033333Y-116933333D01*
X117766666Y-116866666D01*
X117633333Y-116733333D01*
X117566666Y-116600000D01*
X117566666Y-116333333D01*
X117633333Y-116200000D01*
X117766666Y-116066666D01*
X118033333Y-116000000D01*
X118500000Y-116000000D01*
X118766666Y-116066666D01*
X118900000Y-116200000D01*
X118966666Y-116333333D01*
X117566666Y-117533333D02*
X118966666Y-117533333D01*
X117566666Y-118333333D01*
X118966666Y-118333333D01*
D11*
X116800000Y-91000000D02*
X126600000Y-91000000D01*
X116800000Y-76000000D02*
X126600000Y-76000000D01*
X169000000Y-140150000D02*
X178200000Y-140150000D01*
X169000000Y-129650000D02*
X178200000Y-129650000D01*
X169000000Y-119150000D02*
X178200000Y-119150000D01*
X169000000Y-108650000D02*
X178200000Y-108650000D01*
X169000000Y-98150000D02*
X178200000Y-98150000D01*
X162166666Y-137852380D02*
X161833333Y-137376190D01*
X161595238Y-137852380D02*
X161595238Y-136852380D01*
X161976190Y-136852380D01*
X162071428Y-136900000D01*
X162119047Y-136947619D01*
X162166666Y-137042857D01*
X162166666Y-137185714D01*
X162119047Y-137280952D01*
X162071428Y-137328571D01*
X161976190Y-137376190D01*
X161595238Y-137376190D01*
X162595238Y-137852380D02*
X162595238Y-136852380D01*
X163595238Y-136900000D02*
X163500000Y-136852380D01*
X163357142Y-136852380D01*
X163214285Y-136900000D01*
X163119047Y-136995238D01*
X163071428Y-137090476D01*
X163023809Y-137280952D01*
X163023809Y-137423809D01*
X163071428Y-137614285D01*
X163119047Y-137709523D01*
X163214285Y-137804761D01*
X163357142Y-137852380D01*
X163452380Y-137852380D01*
X163595238Y-137804761D01*
X163642857Y-137757142D01*
X163642857Y-137423809D01*
X163452380Y-137423809D01*
X164071428Y-137852380D02*
X164071428Y-136852380D01*
X164071428Y-137328571D02*
X164642857Y-137328571D01*
X164642857Y-137852380D02*
X164642857Y-136852380D01*
X164976190Y-136852380D02*
X165547619Y-136852380D01*
X165261904Y-137852380D02*
X165261904Y-136852380D01*
X162547619Y-127352380D02*
X162071428Y-127352380D01*
X162071428Y-126352380D01*
X162880952Y-126828571D02*
X163214285Y-126828571D01*
X163357142Y-127352380D02*
X162880952Y-127352380D01*
X162880952Y-126352380D01*
X163357142Y-126352380D01*
X164119047Y-126828571D02*
X163785714Y-126828571D01*
X163785714Y-127352380D02*
X163785714Y-126352380D01*
X164261904Y-126352380D01*
X164500000Y-126352380D02*
X165071428Y-126352380D01*
X164785714Y-127352380D02*
X164785714Y-126352380D01*
X162428571Y-116852380D02*
X162095238Y-116376190D01*
X161857142Y-116852380D02*
X161857142Y-115852380D01*
X162238095Y-115852380D01*
X162333333Y-115900000D01*
X162380952Y-115947619D01*
X162428571Y-116042857D01*
X162428571Y-116185714D01*
X162380952Y-116280952D01*
X162333333Y-116328571D01*
X162238095Y-116376190D01*
X161857142Y-116376190D01*
X162857142Y-116328571D02*
X163190476Y-116328571D01*
X163333333Y-116852380D02*
X162857142Y-116852380D01*
X162857142Y-115852380D01*
X163333333Y-115852380D01*
X163714285Y-116566666D02*
X164190476Y-116566666D01*
X163619047Y-116852380D02*
X163952380Y-115852380D01*
X164285714Y-116852380D01*
X165190476Y-116852380D02*
X164857142Y-116376190D01*
X164619047Y-116852380D02*
X164619047Y-115852380D01*
X165000000Y-115852380D01*
X165095238Y-115900000D01*
X165142857Y-115947619D01*
X165190476Y-116042857D01*
X165190476Y-116185714D01*
X165142857Y-116280952D01*
X165095238Y-116328571D01*
X165000000Y-116376190D01*
X164619047Y-116376190D01*
X161714285Y-105828571D02*
X161380952Y-105828571D01*
X161380952Y-106352380D02*
X161380952Y-105352380D01*
X161857142Y-105352380D01*
X162809523Y-106352380D02*
X162476190Y-105876190D01*
X162238095Y-106352380D02*
X162238095Y-105352380D01*
X162619047Y-105352380D01*
X162714285Y-105400000D01*
X162761904Y-105447619D01*
X162809523Y-105542857D01*
X162809523Y-105685714D01*
X162761904Y-105780952D01*
X162714285Y-105828571D01*
X162619047Y-105876190D01*
X162238095Y-105876190D01*
X163428571Y-105352380D02*
X163619047Y-105352380D01*
X163714285Y-105400000D01*
X163809523Y-105495238D01*
X163857142Y-105685714D01*
X163857142Y-106019047D01*
X163809523Y-106209523D01*
X163714285Y-106304761D01*
X163619047Y-106352380D01*
X163428571Y-106352380D01*
X163333333Y-106304761D01*
X163238095Y-106209523D01*
X163190476Y-106019047D01*
X163190476Y-105685714D01*
X163238095Y-105495238D01*
X163333333Y-105400000D01*
X163428571Y-105352380D01*
X164285714Y-106352380D02*
X164285714Y-105352380D01*
X164857142Y-106352380D01*
X164857142Y-105352380D01*
X165190476Y-105352380D02*
X165761904Y-105352380D01*
X165476190Y-106352380D02*
X165476190Y-105352380D01*
D12*
X139809523Y-95152380D02*
X139809523Y-94152380D01*
X140190476Y-94152380D01*
X140285714Y-94200000D01*
X140333333Y-94247619D01*
X140380952Y-94342857D01*
X140380952Y-94485714D01*
X140333333Y-94580952D01*
X140285714Y-94628571D01*
X140190476Y-94676190D01*
X139809523Y-94676190D01*
X140761904Y-94866666D02*
X141238095Y-94866666D01*
X140666666Y-95152380D02*
X141000000Y-94152380D01*
X141333333Y-95152380D01*
X142238095Y-95152380D02*
X141904761Y-94676190D01*
X141666666Y-95152380D02*
X141666666Y-94152380D01*
X142047619Y-94152380D01*
X142142857Y-94200000D01*
X142190476Y-94247619D01*
X142238095Y-94342857D01*
X142238095Y-94485714D01*
X142190476Y-94580952D01*
X142142857Y-94628571D01*
X142047619Y-94676190D01*
X141666666Y-94676190D01*
X142666666Y-95152380D02*
X142666666Y-94152380D01*
X143238095Y-95152380D02*
X142809523Y-94580952D01*
X143238095Y-94152380D02*
X142666666Y-94723809D01*
X149166666Y-95152380D02*
X149166666Y-94152380D01*
X149547619Y-94152380D01*
X149642857Y-94200000D01*
X149690476Y-94247619D01*
X149738095Y-94342857D01*
X149738095Y-94485714D01*
X149690476Y-94580952D01*
X149642857Y-94628571D01*
X149547619Y-94676190D01*
X149166666Y-94676190D01*
X150071428Y-94152380D02*
X150309523Y-95152380D01*
X150500000Y-94438095D01*
X150690476Y-95152380D01*
X150928571Y-94152380D01*
X151880952Y-95152380D02*
X151547619Y-94676190D01*
X151309523Y-95152380D02*
X151309523Y-94152380D01*
X151690476Y-94152380D01*
X151785714Y-94200000D01*
X151833333Y-94247619D01*
X151880952Y-94342857D01*
X151880952Y-94485714D01*
X151833333Y-94580952D01*
X151785714Y-94628571D01*
X151690476Y-94676190D01*
X151309523Y-94676190D01*
D10*
X136450000Y-135778571D02*
X135950000Y-135064285D01*
X135592857Y-135778571D02*
X135592857Y-134278571D01*
X136164285Y-134278571D01*
X136307142Y-134350000D01*
X136378571Y-134421428D01*
X136450000Y-134564285D01*
X136450000Y-134778571D01*
X136378571Y-134921428D01*
X136307142Y-134992857D01*
X136164285Y-135064285D01*
X135592857Y-135064285D01*
X136950000Y-134278571D02*
X137950000Y-135778571D01*
X137950000Y-134278571D02*
X136950000Y-135778571D01*
X132157142Y-134278571D02*
X133014285Y-134278571D01*
X132585714Y-135778571D02*
X132585714Y-134278571D01*
X133371428Y-134278571D02*
X134371428Y-135778571D01*
X134371428Y-134278571D02*
X133371428Y-135778571D01*
X117992857Y-77928571D02*
X117992857Y-79071428D01*
X117421428Y-78500000D02*
X118564285Y-78500000D01*
X117992857Y-87928571D02*
X117992857Y-89071428D01*
X118321428Y-83500000D02*
X117964285Y-83500000D01*
X118107142Y-83142857D02*
X117964285Y-83500000D01*
X118107142Y-83857142D01*
X117678571Y-83285714D02*
X117964285Y-83500000D01*
X117678571Y-83714285D01*
X176678571Y-134900000D02*
X177035714Y-134900000D01*
X176892857Y-135257142D02*
X177035714Y-134900000D01*
X176892857Y-134542857D01*
X177321428Y-135114285D02*
X177035714Y-134900000D01*
X177321428Y-134685714D01*
X176678571Y-124400000D02*
X177035714Y-124400000D01*
X176892857Y-124757142D02*
X177035714Y-124400000D01*
X176892857Y-124042857D01*
X177321428Y-124614285D02*
X177035714Y-124400000D01*
X177321428Y-124185714D01*
X176678571Y-113900000D02*
X177035714Y-113900000D01*
X176892857Y-114257142D02*
X177035714Y-113900000D01*
X176892857Y-113542857D01*
X177321428Y-114114285D02*
X177035714Y-113900000D01*
X177321428Y-113685714D01*
X177007142Y-131971428D02*
X177007142Y-130828571D01*
X177007142Y-121471428D02*
X177007142Y-120328571D01*
X177007142Y-110971428D02*
X177007142Y-109828571D01*
X177007142Y-138971428D02*
X177007142Y-137828571D01*
X177578571Y-138400000D02*
X176435714Y-138400000D01*
X177007142Y-128471428D02*
X177007142Y-127328571D01*
X177578571Y-127900000D02*
X176435714Y-127900000D01*
X177007142Y-117971428D02*
X177007142Y-116828571D01*
X177578571Y-117400000D02*
X176435714Y-117400000D01*
X176678571Y-103400000D02*
X177035714Y-103400000D01*
X176892857Y-103757142D02*
X177035714Y-103400000D01*
X176892857Y-103042857D01*
X177321428Y-103614285D02*
X177035714Y-103400000D01*
X177321428Y-103185714D01*
X177007142Y-100471428D02*
X177007142Y-99328571D01*
X177007142Y-107471428D02*
X177007142Y-106328571D01*
X177578571Y-106900000D02*
X176435714Y-106900000D01*
D11*
X143800000Y-130720000D02*
G75*
G03*
X143800000Y-130720000I-100000J0D01*
G01*
X142150000Y-140700000D02*
X142150000Y-131500000D01*
X149850000Y-140700000D02*
X142150000Y-140700000D01*
X149850000Y-131500000D02*
X149850000Y-140700000D01*
X142150000Y-131500000D02*
X149850000Y-131500000D01*
D13*
X143890000Y-120635000D02*
X143890000Y-121110000D01*
X148110000Y-116890000D02*
X147635000Y-116890000D01*
X148110000Y-117365000D02*
X148110000Y-116890000D01*
X148110000Y-121110000D02*
X147635000Y-121110000D01*
X148110000Y-120635000D02*
X148110000Y-121110000D01*
X143890000Y-116890000D02*
X144365000Y-116890000D01*
X143890000Y-117365000D02*
X143890000Y-116890000D01*
D14*
X138500000Y-104600000D02*
X138500000Y-100100000D01*
X138500000Y-100100000D02*
X143500000Y-100100000D01*
X143500000Y-100100000D02*
X143500000Y-105100000D01*
X143500000Y-105100000D02*
X139000000Y-105100000D01*
X139000000Y-105100000D02*
X138500000Y-104600000D01*
D11*
X139350000Y-105600000D02*
G75*
G03*
X139350000Y-105600000I-100000J0D01*
G01*
X121740000Y-111250000D02*
X123240000Y-111250000D01*
X123240000Y-111250000D02*
X123240000Y-112750000D01*
X123240000Y-112750000D02*
X121740000Y-112750000D01*
X121740000Y-112750000D02*
X121740000Y-111250000D01*
X122090000Y-113200000D02*
G75*
G03*
X122090000Y-113200000I-100000J0D01*
G01*
X137600000Y-89900000D02*
X137600000Y-66500000D01*
X177200000Y-90900000D02*
X138600000Y-90900000D01*
X178200000Y-66500000D02*
X178200000Y-89900000D01*
X138600000Y-65500000D02*
X177200000Y-65500000D01*
X178200000Y-66500000D02*
G75*
G03*
X177200000Y-65500000I-1000000J0D01*
G01*
X138600000Y-65500000D02*
G75*
G03*
X137600000Y-66500000I0J-1000000D01*
G01*
X137600000Y-89900000D02*
G75*
G03*
X138600000Y-90900000I1000000J0D01*
G01*
X177200000Y-90900000D02*
G75*
G03*
X178200000Y-89900000I0J1000000D01*
G01*
X136300000Y-86250000D02*
X135600000Y-86250000D01*
X135950000Y-86600000D02*
X135950000Y-85900000D01*
D15*
X133600000Y-90400000D02*
X133600000Y-87000000D01*
D11*
X130300000Y-86550000D02*
X133900000Y-86550000D01*
X133900000Y-90850000D02*
X130300000Y-90850000D01*
X125700000Y-76000000D02*
X125700000Y-91000000D01*
X119000000Y-91000000D02*
X119000000Y-76000000D01*
X126600000Y-91000000D02*
X119000000Y-91000000D01*
X126600000Y-76000000D02*
X126600000Y-91000000D01*
X119000000Y-76000000D02*
X126600000Y-76000000D01*
X128735000Y-65495000D02*
X135465000Y-65495000D01*
X128735000Y-85305000D02*
X128735000Y-65495000D01*
X135465000Y-85305000D02*
X128735000Y-85305000D01*
X135465000Y-65495000D02*
X135465000Y-85305000D01*
X125410294Y-100000000D02*
G75*
G03*
X125410294Y-100000000I-170294J0D01*
G01*
X125990000Y-105050000D02*
X125990000Y-100150000D01*
X129890000Y-105050000D02*
X125990000Y-105050000D01*
X129890000Y-100150000D02*
X129890000Y-105050000D01*
X125990000Y-100150000D02*
X129890000Y-100150000D01*
D16*
X150800000Y-93200000D02*
X150500000Y-93200000D01*
X150500000Y-93500000D02*
X150500000Y-92900000D01*
X150200000Y-92900000D02*
X150500000Y-93200000D01*
X150200000Y-93500000D02*
X150200000Y-92900000D01*
X150500000Y-93200000D02*
X150200000Y-93500000D01*
D11*
X151000000Y-93880000D02*
X150000000Y-93880000D01*
X150000000Y-92520000D02*
X151000000Y-92520000D01*
D16*
X141200000Y-93200000D02*
X141500000Y-93200000D01*
X141500000Y-92900000D02*
X141500000Y-93500000D01*
X141800000Y-93500000D02*
X141500000Y-93200000D01*
X141800000Y-92900000D02*
X141800000Y-93500000D01*
X141500000Y-93200000D02*
X141800000Y-92900000D01*
D11*
X141000000Y-92520000D02*
X142000000Y-92520000D01*
X142000000Y-93880000D02*
X141000000Y-93880000D01*
D16*
X136700000Y-131800000D02*
X136700000Y-132100000D01*
X137000000Y-132100000D02*
X136400000Y-132100000D01*
X136400000Y-132400000D02*
X136700000Y-132100000D01*
X137000000Y-132400000D02*
X136400000Y-132400000D01*
X136700000Y-132100000D02*
X137000000Y-132400000D01*
D11*
X137380000Y-131600000D02*
X137380000Y-132600000D01*
X136020000Y-132600000D02*
X136020000Y-131600000D01*
D16*
X133300000Y-131800000D02*
X133300000Y-132100000D01*
X133600000Y-132100000D02*
X133000000Y-132100000D01*
X133000000Y-132400000D02*
X133300000Y-132100000D01*
X133600000Y-132400000D02*
X133000000Y-132400000D01*
X133300000Y-132100000D02*
X133600000Y-132400000D01*
D11*
X133980000Y-131600000D02*
X133980000Y-132600000D01*
X132620000Y-132600000D02*
X132620000Y-131600000D01*
X127270000Y-126640000D02*
G75*
G03*
X127270000Y-126640000I-100000J0D01*
G01*
X116800000Y-118935000D02*
X126070000Y-118935000D01*
X116800000Y-127065000D02*
X116800000Y-118935000D01*
X126070000Y-127065000D02*
X116800000Y-127065000D01*
X126070000Y-118935000D02*
X126070000Y-127065000D01*
X174400000Y-98150000D02*
X174400000Y-108650000D01*
X176000000Y-108650000D02*
X169000000Y-108650000D01*
X176000000Y-98150000D02*
X176000000Y-108650000D01*
X169000000Y-98150000D02*
X176000000Y-98150000D01*
X169000000Y-108650000D02*
X169000000Y-98150000D01*
X174400000Y-108650000D02*
X174400000Y-119150000D01*
X176000000Y-119150000D02*
X169000000Y-119150000D01*
X176000000Y-108650000D02*
X176000000Y-119150000D01*
X169000000Y-108650000D02*
X176000000Y-108650000D01*
X169000000Y-119150000D02*
X169000000Y-108650000D01*
X174400000Y-119150000D02*
X174400000Y-129650000D01*
X176000000Y-129650000D02*
X169000000Y-129650000D01*
X176000000Y-119150000D02*
X176000000Y-129650000D01*
X169000000Y-119150000D02*
X176000000Y-119150000D01*
X169000000Y-129650000D02*
X169000000Y-119150000D01*
X174400000Y-129650000D02*
X174400000Y-140150000D01*
X176000000Y-140150000D02*
X169000000Y-140150000D01*
X176000000Y-129650000D02*
X176000000Y-140150000D01*
X169000000Y-129650000D02*
X176000000Y-129650000D01*
X169000000Y-140150000D02*
X169000000Y-129650000D01*
X139350000Y-108100000D02*
X138650000Y-108100000D01*
X138650000Y-106900000D02*
X139350000Y-106900000D01*
X140650000Y-97100000D02*
X141350000Y-97100000D01*
X141350000Y-98300000D02*
X140650000Y-98300000D01*
X124840000Y-115100000D02*
X124140000Y-115100000D01*
X124140000Y-113900000D02*
X124840000Y-113900000D01*
X131240000Y-96650000D02*
X131240000Y-97350000D01*
X130040000Y-97350000D02*
X130040000Y-96650000D01*
X151750000Y-121400000D02*
X152450000Y-121400000D01*
X152450000Y-122600000D02*
X151750000Y-122600000D01*
X151750000Y-123400000D02*
X152450000Y-123400000D01*
X152450000Y-124600000D02*
X151750000Y-124600000D01*
X151750000Y-125400000D02*
X152450000Y-125400000D01*
X152450000Y-126600000D02*
X151750000Y-126600000D01*
X152450000Y-128600000D02*
X151750000Y-128600000D01*
X151750000Y-127400000D02*
X152450000Y-127400000D01*
X152400000Y-133170000D02*
X152400000Y-132470000D01*
X153600000Y-132470000D02*
X153600000Y-133170000D01*
X131000000Y-121555000D02*
X131000000Y-122255000D01*
X129800000Y-122255000D02*
X129800000Y-121555000D01*
X139825000Y-126100000D02*
X139125000Y-126100000D01*
X139125000Y-124900000D02*
X139825000Y-124900000D01*
X134875000Y-126100000D02*
X134175000Y-126100000D01*
X134175000Y-124900000D02*
X134875000Y-124900000D01*
D13*
X144800000Y-128050000D02*
X147200000Y-128050000D01*
X147200000Y-124950000D02*
X144250000Y-124950000D01*
D14*
X150095000Y-105203500D02*
X150095000Y-100517200D01*
X153905000Y-105203500D02*
X153905000Y-100517200D01*
X151276100Y-99336100D02*
X150095000Y-100517200D01*
X152723900Y-99336100D02*
X153905000Y-100517200D01*
X152952500Y-106156000D02*
X151047500Y-106156000D01*
X152723900Y-99336100D02*
G75*
G03*
X151276100Y-99336100I-723900J-723900D01*
G01*
X150095000Y-105203500D02*
G75*
G03*
X151047500Y-106156000I952500J0D01*
G01*
X152952500Y-106156000D02*
G75*
G03*
X153905000Y-105203500I0J952500D01*
G01*
D13*
X164260000Y-104980000D02*
X162800000Y-104980000D01*
X164260000Y-101820000D02*
X162100000Y-101820000D01*
X164260000Y-101820000D02*
X164260000Y-102750000D01*
X164260000Y-104980000D02*
X164260000Y-104050000D01*
X164260000Y-125980000D02*
X164260000Y-125050000D01*
X164260000Y-122820000D02*
X164260000Y-123750000D01*
X164260000Y-122820000D02*
X162100000Y-122820000D01*
X164260000Y-125980000D02*
X162800000Y-125980000D01*
X164260000Y-136480000D02*
X162800000Y-136480000D01*
X164260000Y-133320000D02*
X162100000Y-133320000D01*
X164260000Y-133320000D02*
X164260000Y-134250000D01*
X164260000Y-136480000D02*
X164260000Y-135550000D01*
D11*
X170680000Y-94200000D02*
X170680000Y-95200000D01*
X169320000Y-95200000D02*
X169320000Y-94200000D01*
X134820000Y-101500000D02*
X134820000Y-100500000D01*
X136180000Y-100500000D02*
X136180000Y-101500000D01*
X120990000Y-110180000D02*
X119990000Y-110180000D01*
X119990000Y-108820000D02*
X120990000Y-108820000D01*
X123990000Y-108820000D02*
X124990000Y-108820000D01*
X124990000Y-110180000D02*
X123990000Y-110180000D01*
X119990000Y-113820000D02*
X120990000Y-113820000D01*
X120990000Y-115180000D02*
X119990000Y-115180000D01*
X148000000Y-93880000D02*
X147000000Y-93880000D01*
X147000000Y-92520000D02*
X148000000Y-92520000D01*
X145000000Y-93880000D02*
X144000000Y-93880000D01*
X144000000Y-92520000D02*
X145000000Y-92520000D01*
X160680000Y-101200000D02*
X160680000Y-102200000D01*
X159320000Y-102200000D02*
X159320000Y-101200000D01*
X159320000Y-112700000D02*
X159320000Y-111700000D01*
X160680000Y-111700000D02*
X160680000Y-112700000D01*
X160680000Y-122200000D02*
X160680000Y-123200000D01*
X159320000Y-123200000D02*
X159320000Y-122200000D01*
X159320000Y-133700000D02*
X159320000Y-132700000D01*
X160680000Y-132700000D02*
X160680000Y-133700000D01*
X160680000Y-104600000D02*
X160680000Y-105600000D01*
X159320000Y-105600000D02*
X159320000Y-104600000D01*
X159320000Y-116100000D02*
X159320000Y-115100000D01*
X160680000Y-115100000D02*
X160680000Y-116100000D01*
X159320000Y-126600000D02*
X159320000Y-125600000D01*
X160680000Y-125600000D02*
X160680000Y-126600000D01*
X160680000Y-136100000D02*
X160680000Y-137100000D01*
X159320000Y-137100000D02*
X159320000Y-136100000D01*
X166320000Y-102200000D02*
X166320000Y-101200000D01*
X167680000Y-101200000D02*
X167680000Y-102200000D01*
X167680000Y-111700000D02*
X167680000Y-112700000D01*
X166320000Y-112700000D02*
X166320000Y-111700000D01*
X166320000Y-123200000D02*
X166320000Y-122200000D01*
X167680000Y-122200000D02*
X167680000Y-123200000D01*
X167680000Y-132700000D02*
X167680000Y-133700000D01*
X166320000Y-133700000D02*
X166320000Y-132700000D01*
X166320000Y-105600000D02*
X166320000Y-104600000D01*
X167680000Y-104600000D02*
X167680000Y-105600000D01*
X166320000Y-116100000D02*
X166320000Y-115100000D01*
X167680000Y-115100000D02*
X167680000Y-116100000D01*
X166320000Y-126600000D02*
X166320000Y-125600000D01*
X167680000Y-125600000D02*
X167680000Y-126600000D01*
X167680000Y-136100000D02*
X167680000Y-137100000D01*
X166320000Y-137100000D02*
X166320000Y-136100000D01*
X121620000Y-103100000D02*
X121620000Y-102100000D01*
X122980000Y-102100000D02*
X122980000Y-103100000D01*
X133880000Y-103700000D02*
X133880000Y-104700000D01*
X132520000Y-104700000D02*
X132520000Y-103700000D01*
X133880000Y-100500000D02*
X133880000Y-101500000D01*
X132520000Y-101500000D02*
X132520000Y-100500000D01*
X153680000Y-136320000D02*
X153680000Y-137320000D01*
X152320000Y-137320000D02*
X152320000Y-136320000D01*
X152600000Y-115280000D02*
X151600000Y-115280000D01*
X151600000Y-113920000D02*
X152600000Y-113920000D01*
X147000000Y-113920000D02*
X148000000Y-113920000D01*
X148000000Y-115280000D02*
X147000000Y-115280000D01*
X144000000Y-113920000D02*
X145000000Y-113920000D01*
X145000000Y-115280000D02*
X144000000Y-115280000D01*
X150420000Y-119000000D02*
X150420000Y-118000000D01*
X151780000Y-118000000D02*
X151780000Y-119000000D01*
X152420000Y-119000000D02*
X152420000Y-118000000D01*
X153780000Y-118000000D02*
X153780000Y-119000000D01*
X141900000Y-108600000D02*
G75*
G03*
X141900000Y-108600000I-100000J0D01*
G01*
D14*
X144600000Y-108250000D02*
X141400000Y-108250000D01*
X144600000Y-106750000D02*
X144600000Y-108250000D01*
X141400000Y-106750000D02*
X144600000Y-106750000D01*
X141400000Y-108250000D02*
X141400000Y-106750000D01*
D13*
X137000000Y-113940000D02*
X135050000Y-113940000D01*
X137000000Y-113940000D02*
X138950000Y-113940000D01*
X137000000Y-124060000D02*
X135050000Y-124060000D01*
X137000000Y-124060000D02*
X140450000Y-124060000D01*
X164400000Y-93090000D02*
X162600000Y-93090000D01*
X162600000Y-96310000D02*
X165050000Y-96310000D01*
D11*
X167600000Y-94350000D02*
X167600000Y-95050000D01*
X166400000Y-95050000D02*
X166400000Y-94350000D01*
X160600000Y-94350000D02*
X160600000Y-95050000D01*
X159400000Y-95050000D02*
X159400000Y-94350000D01*
D13*
X164260000Y-115480000D02*
X162800000Y-115480000D01*
X164260000Y-112320000D02*
X162100000Y-112320000D01*
X164260000Y-112320000D02*
X164260000Y-113250000D01*
X164260000Y-115480000D02*
X164260000Y-114550000D01*
D11*
X142152380Y-120714285D02*
X142961904Y-120714285D01*
X143057142Y-120666666D01*
X143104761Y-120619047D01*
X143152380Y-120523809D01*
X143152380Y-120333333D01*
X143104761Y-120238095D01*
X143057142Y-120190476D01*
X142961904Y-120142857D01*
X142152380Y-120142857D01*
X143152380Y-119142857D02*
X143152380Y-119714285D01*
X143152380Y-119428571D02*
X142152380Y-119428571D01*
X142295238Y-119523809D01*
X142390476Y-119619047D01*
X142438095Y-119714285D01*
X142152380Y-118523809D02*
X142152380Y-118428571D01*
X142200000Y-118333333D01*
X142247619Y-118285714D01*
X142342857Y-118238095D01*
X142533333Y-118190476D01*
X142771428Y-118190476D01*
X142961904Y-118238095D01*
X143057142Y-118285714D01*
X143104761Y-118333333D01*
X143152380Y-118428571D01*
X143152380Y-118523809D01*
X143104761Y-118619047D01*
X143057142Y-118666666D01*
X142961904Y-118714285D01*
X142771428Y-118761904D01*
X142533333Y-118761904D01*
X142342857Y-118714285D01*
X142247619Y-118666666D01*
X142200000Y-118619047D01*
X142152380Y-118523809D01*
X142152380Y-117285714D02*
X142152380Y-117761904D01*
X142628571Y-117809523D01*
X142580952Y-117761904D01*
X142533333Y-117666666D01*
X142533333Y-117428571D01*
X142580952Y-117333333D01*
X142628571Y-117285714D01*
X142723809Y-117238095D01*
X142961904Y-117238095D01*
X143057142Y-117285714D01*
X143104761Y-117333333D01*
X143152380Y-117428571D01*
X143152380Y-117666666D01*
X143104761Y-117761904D01*
X143057142Y-117809523D01*
X144052380Y-104314285D02*
X144861904Y-104314285D01*
X144957142Y-104266666D01*
X145004761Y-104219047D01*
X145052380Y-104123809D01*
X145052380Y-103933333D01*
X145004761Y-103838095D01*
X144957142Y-103790476D01*
X144861904Y-103742857D01*
X144052380Y-103742857D01*
X145052380Y-102742857D02*
X145052380Y-103314285D01*
X145052380Y-103028571D02*
X144052380Y-103028571D01*
X144195238Y-103123809D01*
X144290476Y-103219047D01*
X144338095Y-103314285D01*
X144052380Y-102123809D02*
X144052380Y-102028571D01*
X144100000Y-101933333D01*
X144147619Y-101885714D01*
X144242857Y-101838095D01*
X144433333Y-101790476D01*
X144671428Y-101790476D01*
X144861904Y-101838095D01*
X144957142Y-101885714D01*
X145004761Y-101933333D01*
X145052380Y-102028571D01*
X145052380Y-102123809D01*
X145004761Y-102219047D01*
X144957142Y-102266666D01*
X144861904Y-102314285D01*
X144671428Y-102361904D01*
X144433333Y-102361904D01*
X144242857Y-102314285D01*
X144147619Y-102266666D01*
X144100000Y-102219047D01*
X144052380Y-102123809D01*
X144147619Y-101409523D02*
X144100000Y-101361904D01*
X144052380Y-101266666D01*
X144052380Y-101028571D01*
X144100000Y-100933333D01*
X144147619Y-100885714D01*
X144242857Y-100838095D01*
X144338095Y-100838095D01*
X144480952Y-100885714D01*
X145052380Y-101457142D01*
X145052380Y-100838095D01*
X123685714Y-111452380D02*
X123685714Y-112261904D01*
X123733333Y-112357142D01*
X123780952Y-112404761D01*
X123876190Y-112452380D01*
X124066666Y-112452380D01*
X124161904Y-112404761D01*
X124209523Y-112357142D01*
X124257142Y-112261904D01*
X124257142Y-111452380D01*
X125257142Y-112452380D02*
X124685714Y-112452380D01*
X124971428Y-112452380D02*
X124971428Y-111452380D01*
X124876190Y-111595238D01*
X124780952Y-111690476D01*
X124685714Y-111738095D01*
X125876190Y-111452380D02*
X125971428Y-111452380D01*
X126066666Y-111500000D01*
X126114285Y-111547619D01*
X126161904Y-111642857D01*
X126209523Y-111833333D01*
X126209523Y-112071428D01*
X126161904Y-112261904D01*
X126114285Y-112357142D01*
X126066666Y-112404761D01*
X125971428Y-112452380D01*
X125876190Y-112452380D01*
X125780952Y-112404761D01*
X125733333Y-112357142D01*
X125685714Y-112261904D01*
X125638095Y-112071428D01*
X125638095Y-111833333D01*
X125685714Y-111642857D01*
X125733333Y-111547619D01*
X125780952Y-111500000D01*
X125876190Y-111452380D01*
X126542857Y-111452380D02*
X127161904Y-111452380D01*
X126828571Y-111833333D01*
X126971428Y-111833333D01*
X127066666Y-111880952D01*
X127114285Y-111928571D01*
X127161904Y-112023809D01*
X127161904Y-112261904D01*
X127114285Y-112357142D01*
X127066666Y-112404761D01*
X126971428Y-112452380D01*
X126685714Y-112452380D01*
X126590476Y-112404761D01*
X126542857Y-112357142D01*
X173785714Y-91252380D02*
X173785714Y-92061904D01*
X173833333Y-92157142D01*
X173880952Y-92204761D01*
X173976190Y-92252380D01*
X174166666Y-92252380D01*
X174261904Y-92204761D01*
X174309523Y-92157142D01*
X174357142Y-92061904D01*
X174357142Y-91252380D01*
X175357142Y-92252380D02*
X174785714Y-92252380D01*
X175071428Y-92252380D02*
X175071428Y-91252380D01*
X174976190Y-91395238D01*
X174880952Y-91490476D01*
X174785714Y-91538095D01*
X175976190Y-91252380D02*
X176071428Y-91252380D01*
X176166666Y-91300000D01*
X176214285Y-91347619D01*
X176261904Y-91442857D01*
X176309523Y-91633333D01*
X176309523Y-91871428D01*
X176261904Y-92061904D01*
X176214285Y-92157142D01*
X176166666Y-92204761D01*
X176071428Y-92252380D01*
X175976190Y-92252380D01*
X175880952Y-92204761D01*
X175833333Y-92157142D01*
X175785714Y-92061904D01*
X175738095Y-91871428D01*
X175738095Y-91633333D01*
X175785714Y-91442857D01*
X175833333Y-91347619D01*
X175880952Y-91300000D01*
X175976190Y-91252380D01*
X177261904Y-92252380D02*
X176690476Y-92252380D01*
X176976190Y-92252380D02*
X176976190Y-91252380D01*
X176880952Y-91395238D01*
X176785714Y-91490476D01*
X176690476Y-91538095D01*
X130980952Y-92657142D02*
X130933333Y-92704761D01*
X130790476Y-92752380D01*
X130695238Y-92752380D01*
X130552380Y-92704761D01*
X130457142Y-92609523D01*
X130409523Y-92514285D01*
X130361904Y-92323809D01*
X130361904Y-92180952D01*
X130409523Y-91990476D01*
X130457142Y-91895238D01*
X130552380Y-91800000D01*
X130695238Y-91752380D01*
X130790476Y-91752380D01*
X130933333Y-91800000D01*
X130980952Y-91847619D01*
X131552380Y-92180952D02*
X131457142Y-92133333D01*
X131409523Y-92085714D01*
X131361904Y-91990476D01*
X131361904Y-91942857D01*
X131409523Y-91847619D01*
X131457142Y-91800000D01*
X131552380Y-91752380D01*
X131742857Y-91752380D01*
X131838095Y-91800000D01*
X131885714Y-91847619D01*
X131933333Y-91942857D01*
X131933333Y-91990476D01*
X131885714Y-92085714D01*
X131838095Y-92133333D01*
X131742857Y-92180952D01*
X131552380Y-92180952D01*
X131457142Y-92228571D01*
X131409523Y-92276190D01*
X131361904Y-92371428D01*
X131361904Y-92561904D01*
X131409523Y-92657142D01*
X131457142Y-92704761D01*
X131552380Y-92752380D01*
X131742857Y-92752380D01*
X131838095Y-92704761D01*
X131885714Y-92657142D01*
X131933333Y-92561904D01*
X131933333Y-92371428D01*
X131885714Y-92276190D01*
X131838095Y-92228571D01*
X131742857Y-92180952D01*
X132552380Y-91752380D02*
X132647619Y-91752380D01*
X132742857Y-91800000D01*
X132790476Y-91847619D01*
X132838095Y-91942857D01*
X132885714Y-92133333D01*
X132885714Y-92371428D01*
X132838095Y-92561904D01*
X132790476Y-92657142D01*
X132742857Y-92704761D01*
X132647619Y-92752380D01*
X132552380Y-92752380D01*
X132457142Y-92704761D01*
X132409523Y-92657142D01*
X132361904Y-92561904D01*
X132314285Y-92371428D01*
X132314285Y-92133333D01*
X132361904Y-91942857D01*
X132409523Y-91847619D01*
X132457142Y-91800000D01*
X132552380Y-91752380D01*
X133838095Y-92752380D02*
X133266666Y-92752380D01*
X133552380Y-92752380D02*
X133552380Y-91752380D01*
X133457142Y-91895238D01*
X133361904Y-91990476D01*
X133266666Y-92038095D01*
X125214285Y-66678571D02*
X124880952Y-66678571D01*
X124880952Y-67202380D02*
X124880952Y-66202380D01*
X125357142Y-66202380D01*
X126166666Y-66535714D02*
X126166666Y-67202380D01*
X125928571Y-66154761D02*
X125690476Y-66869047D01*
X126309523Y-66869047D01*
X126880952Y-66202380D02*
X126976190Y-66202380D01*
X127071428Y-66250000D01*
X127119047Y-66297619D01*
X127166666Y-66392857D01*
X127214285Y-66583333D01*
X127214285Y-66821428D01*
X127166666Y-67011904D01*
X127119047Y-67107142D01*
X127071428Y-67154761D01*
X126976190Y-67202380D01*
X126880952Y-67202380D01*
X126785714Y-67154761D01*
X126738095Y-67107142D01*
X126690476Y-67011904D01*
X126642857Y-66821428D01*
X126642857Y-66583333D01*
X126690476Y-66392857D01*
X126738095Y-66297619D01*
X126785714Y-66250000D01*
X126880952Y-66202380D01*
X128166666Y-67202380D02*
X127595238Y-67202380D01*
X127880952Y-67202380D02*
X127880952Y-66202380D01*
X127785714Y-66345238D01*
X127690476Y-66440476D01*
X127595238Y-66488095D01*
X123525714Y-98452380D02*
X123525714Y-99261904D01*
X123573333Y-99357142D01*
X123620952Y-99404761D01*
X123716190Y-99452380D01*
X123906666Y-99452380D01*
X124001904Y-99404761D01*
X124049523Y-99357142D01*
X124097142Y-99261904D01*
X124097142Y-98452380D01*
X125097142Y-99452380D02*
X124525714Y-99452380D01*
X124811428Y-99452380D02*
X124811428Y-98452380D01*
X124716190Y-98595238D01*
X124620952Y-98690476D01*
X124525714Y-98738095D01*
X125716190Y-98452380D02*
X125811428Y-98452380D01*
X125906666Y-98500000D01*
X125954285Y-98547619D01*
X126001904Y-98642857D01*
X126049523Y-98833333D01*
X126049523Y-99071428D01*
X126001904Y-99261904D01*
X125954285Y-99357142D01*
X125906666Y-99404761D01*
X125811428Y-99452380D01*
X125716190Y-99452380D01*
X125620952Y-99404761D01*
X125573333Y-99357142D01*
X125525714Y-99261904D01*
X125478095Y-99071428D01*
X125478095Y-98833333D01*
X125525714Y-98642857D01*
X125573333Y-98547619D01*
X125620952Y-98500000D01*
X125716190Y-98452380D01*
X126906666Y-98785714D02*
X126906666Y-99452380D01*
X126668571Y-98404761D02*
X126430476Y-99119047D01*
X127049523Y-99119047D01*
D17*
X149654761Y-92326190D02*
X149654761Y-91826190D01*
X149773809Y-91826190D01*
X149845238Y-91850000D01*
X149892857Y-91897619D01*
X149916666Y-91945238D01*
X149940476Y-92040476D01*
X149940476Y-92111904D01*
X149916666Y-92207142D01*
X149892857Y-92254761D01*
X149845238Y-92302380D01*
X149773809Y-92326190D01*
X149654761Y-92326190D01*
X150369047Y-91826190D02*
X150273809Y-91826190D01*
X150226190Y-91850000D01*
X150202380Y-91873809D01*
X150154761Y-91945238D01*
X150130952Y-92040476D01*
X150130952Y-92230952D01*
X150154761Y-92278571D01*
X150178571Y-92302380D01*
X150226190Y-92326190D01*
X150321428Y-92326190D01*
X150369047Y-92302380D01*
X150392857Y-92278571D01*
X150416666Y-92230952D01*
X150416666Y-92111904D01*
X150392857Y-92064285D01*
X150369047Y-92040476D01*
X150321428Y-92016666D01*
X150226190Y-92016666D01*
X150178571Y-92040476D01*
X150154761Y-92064285D01*
X150130952Y-92111904D01*
X150726190Y-91826190D02*
X150773809Y-91826190D01*
X150821428Y-91850000D01*
X150845238Y-91873809D01*
X150869047Y-91921428D01*
X150892857Y-92016666D01*
X150892857Y-92135714D01*
X150869047Y-92230952D01*
X150845238Y-92278571D01*
X150821428Y-92302380D01*
X150773809Y-92326190D01*
X150726190Y-92326190D01*
X150678571Y-92302380D01*
X150654761Y-92278571D01*
X150630952Y-92230952D01*
X150607142Y-92135714D01*
X150607142Y-92016666D01*
X150630952Y-91921428D01*
X150654761Y-91873809D01*
X150678571Y-91850000D01*
X150726190Y-91826190D01*
X151369047Y-92326190D02*
X151083333Y-92326190D01*
X151226190Y-92326190D02*
X151226190Y-91826190D01*
X151178571Y-91897619D01*
X151130952Y-91945238D01*
X151083333Y-91969047D01*
X140654761Y-92326190D02*
X140654761Y-91826190D01*
X140773809Y-91826190D01*
X140845238Y-91850000D01*
X140892857Y-91897619D01*
X140916666Y-91945238D01*
X140940476Y-92040476D01*
X140940476Y-92111904D01*
X140916666Y-92207142D01*
X140892857Y-92254761D01*
X140845238Y-92302380D01*
X140773809Y-92326190D01*
X140654761Y-92326190D01*
X141369047Y-91826190D02*
X141273809Y-91826190D01*
X141226190Y-91850000D01*
X141202380Y-91873809D01*
X141154761Y-91945238D01*
X141130952Y-92040476D01*
X141130952Y-92230952D01*
X141154761Y-92278571D01*
X141178571Y-92302380D01*
X141226190Y-92326190D01*
X141321428Y-92326190D01*
X141369047Y-92302380D01*
X141392857Y-92278571D01*
X141416666Y-92230952D01*
X141416666Y-92111904D01*
X141392857Y-92064285D01*
X141369047Y-92040476D01*
X141321428Y-92016666D01*
X141226190Y-92016666D01*
X141178571Y-92040476D01*
X141154761Y-92064285D01*
X141130952Y-92111904D01*
X141726190Y-91826190D02*
X141773809Y-91826190D01*
X141821428Y-91850000D01*
X141845238Y-91873809D01*
X141869047Y-91921428D01*
X141892857Y-92016666D01*
X141892857Y-92135714D01*
X141869047Y-92230952D01*
X141845238Y-92278571D01*
X141821428Y-92302380D01*
X141773809Y-92326190D01*
X141726190Y-92326190D01*
X141678571Y-92302380D01*
X141654761Y-92278571D01*
X141630952Y-92230952D01*
X141607142Y-92135714D01*
X141607142Y-92016666D01*
X141630952Y-91921428D01*
X141654761Y-91873809D01*
X141678571Y-91850000D01*
X141726190Y-91826190D01*
X142083333Y-91873809D02*
X142107142Y-91850000D01*
X142154761Y-91826190D01*
X142273809Y-91826190D01*
X142321428Y-91850000D01*
X142345238Y-91873809D01*
X142369047Y-91921428D01*
X142369047Y-91969047D01*
X142345238Y-92040476D01*
X142059523Y-92326190D01*
X142369047Y-92326190D01*
X135854761Y-130476190D02*
X135854761Y-129976190D01*
X135973809Y-129976190D01*
X136045238Y-130000000D01*
X136092857Y-130047619D01*
X136116666Y-130095238D01*
X136140476Y-130190476D01*
X136140476Y-130261904D01*
X136116666Y-130357142D01*
X136092857Y-130404761D01*
X136045238Y-130452380D01*
X135973809Y-130476190D01*
X135854761Y-130476190D01*
X136569047Y-129976190D02*
X136473809Y-129976190D01*
X136426190Y-130000000D01*
X136402380Y-130023809D01*
X136354761Y-130095238D01*
X136330952Y-130190476D01*
X136330952Y-130380952D01*
X136354761Y-130428571D01*
X136378571Y-130452380D01*
X136426190Y-130476190D01*
X136521428Y-130476190D01*
X136569047Y-130452380D01*
X136592857Y-130428571D01*
X136616666Y-130380952D01*
X136616666Y-130261904D01*
X136592857Y-130214285D01*
X136569047Y-130190476D01*
X136521428Y-130166666D01*
X136426190Y-130166666D01*
X136378571Y-130190476D01*
X136354761Y-130214285D01*
X136330952Y-130261904D01*
X136926190Y-129976190D02*
X136973809Y-129976190D01*
X137021428Y-130000000D01*
X137045238Y-130023809D01*
X137069047Y-130071428D01*
X137092857Y-130166666D01*
X137092857Y-130285714D01*
X137069047Y-130380952D01*
X137045238Y-130428571D01*
X137021428Y-130452380D01*
X136973809Y-130476190D01*
X136926190Y-130476190D01*
X136878571Y-130452380D01*
X136854761Y-130428571D01*
X136830952Y-130380952D01*
X136807142Y-130285714D01*
X136807142Y-130166666D01*
X136830952Y-130071428D01*
X136854761Y-130023809D01*
X136878571Y-130000000D01*
X136926190Y-129976190D01*
X137259523Y-129976190D02*
X137569047Y-129976190D01*
X137402380Y-130166666D01*
X137473809Y-130166666D01*
X137521428Y-130190476D01*
X137545238Y-130214285D01*
X137569047Y-130261904D01*
X137569047Y-130380952D01*
X137545238Y-130428571D01*
X137521428Y-130452380D01*
X137473809Y-130476190D01*
X137330952Y-130476190D01*
X137283333Y-130452380D01*
X137259523Y-130428571D01*
X132454761Y-130476190D02*
X132454761Y-129976190D01*
X132573809Y-129976190D01*
X132645238Y-130000000D01*
X132692857Y-130047619D01*
X132716666Y-130095238D01*
X132740476Y-130190476D01*
X132740476Y-130261904D01*
X132716666Y-130357142D01*
X132692857Y-130404761D01*
X132645238Y-130452380D01*
X132573809Y-130476190D01*
X132454761Y-130476190D01*
X133169047Y-129976190D02*
X133073809Y-129976190D01*
X133026190Y-130000000D01*
X133002380Y-130023809D01*
X132954761Y-130095238D01*
X132930952Y-130190476D01*
X132930952Y-130380952D01*
X132954761Y-130428571D01*
X132978571Y-130452380D01*
X133026190Y-130476190D01*
X133121428Y-130476190D01*
X133169047Y-130452380D01*
X133192857Y-130428571D01*
X133216666Y-130380952D01*
X133216666Y-130261904D01*
X133192857Y-130214285D01*
X133169047Y-130190476D01*
X133121428Y-130166666D01*
X133026190Y-130166666D01*
X132978571Y-130190476D01*
X132954761Y-130214285D01*
X132930952Y-130261904D01*
X133526190Y-129976190D02*
X133573809Y-129976190D01*
X133621428Y-130000000D01*
X133645238Y-130023809D01*
X133669047Y-130071428D01*
X133692857Y-130166666D01*
X133692857Y-130285714D01*
X133669047Y-130380952D01*
X133645238Y-130428571D01*
X133621428Y-130452380D01*
X133573809Y-130476190D01*
X133526190Y-130476190D01*
X133478571Y-130452380D01*
X133454761Y-130428571D01*
X133430952Y-130380952D01*
X133407142Y-130285714D01*
X133407142Y-130166666D01*
X133430952Y-130071428D01*
X133454761Y-130023809D01*
X133478571Y-130000000D01*
X133526190Y-129976190D01*
X134121428Y-130142857D02*
X134121428Y-130476190D01*
X134002380Y-129952380D02*
X133883333Y-130309523D01*
X134192857Y-130309523D01*
D11*
X121714285Y-128404761D02*
X121857142Y-128452380D01*
X122095238Y-128452380D01*
X122190476Y-128404761D01*
X122238095Y-128357142D01*
X122285714Y-128261904D01*
X122285714Y-128166666D01*
X122238095Y-128071428D01*
X122190476Y-128023809D01*
X122095238Y-127976190D01*
X121904761Y-127928571D01*
X121809523Y-127880952D01*
X121761904Y-127833333D01*
X121714285Y-127738095D01*
X121714285Y-127642857D01*
X121761904Y-127547619D01*
X121809523Y-127500000D01*
X121904761Y-127452380D01*
X122142857Y-127452380D01*
X122285714Y-127500000D01*
X122619047Y-127452380D02*
X122857142Y-128452380D01*
X123047619Y-127738095D01*
X123238095Y-128452380D01*
X123476190Y-127452380D01*
X123761904Y-127452380D02*
X124380952Y-127452380D01*
X124047619Y-127833333D01*
X124190476Y-127833333D01*
X124285714Y-127880952D01*
X124333333Y-127928571D01*
X124380952Y-128023809D01*
X124380952Y-128261904D01*
X124333333Y-128357142D01*
X124285714Y-128404761D01*
X124190476Y-128452380D01*
X123904761Y-128452380D01*
X123809523Y-128404761D01*
X123761904Y-128357142D01*
X125000000Y-127452380D02*
X125095238Y-127452380D01*
X125190476Y-127500000D01*
X125238095Y-127547619D01*
X125285714Y-127642857D01*
X125333333Y-127833333D01*
X125333333Y-128071428D01*
X125285714Y-128261904D01*
X125238095Y-128357142D01*
X125190476Y-128404761D01*
X125095238Y-128452380D01*
X125000000Y-128452380D01*
X124904761Y-128404761D01*
X124857142Y-128357142D01*
X124809523Y-128261904D01*
X124761904Y-128071428D01*
X124761904Y-127833333D01*
X124809523Y-127642857D01*
X124857142Y-127547619D01*
X124904761Y-127500000D01*
X125000000Y-127452380D01*
X126285714Y-128452380D02*
X125714285Y-128452380D01*
X126000000Y-128452380D02*
X126000000Y-127452380D01*
X125904761Y-127595238D01*
X125809523Y-127690476D01*
X125714285Y-127738095D01*
D17*
X138440476Y-109028571D02*
X138416666Y-109052380D01*
X138345238Y-109076190D01*
X138297619Y-109076190D01*
X138226190Y-109052380D01*
X138178571Y-109004761D01*
X138154761Y-108957142D01*
X138130952Y-108861904D01*
X138130952Y-108790476D01*
X138154761Y-108695238D01*
X138178571Y-108647619D01*
X138226190Y-108600000D01*
X138297619Y-108576190D01*
X138345238Y-108576190D01*
X138416666Y-108600000D01*
X138440476Y-108623809D01*
X138726190Y-108790476D02*
X138678571Y-108766666D01*
X138654761Y-108742857D01*
X138630952Y-108695238D01*
X138630952Y-108671428D01*
X138654761Y-108623809D01*
X138678571Y-108600000D01*
X138726190Y-108576190D01*
X138821428Y-108576190D01*
X138869047Y-108600000D01*
X138892857Y-108623809D01*
X138916666Y-108671428D01*
X138916666Y-108695238D01*
X138892857Y-108742857D01*
X138869047Y-108766666D01*
X138821428Y-108790476D01*
X138726190Y-108790476D01*
X138678571Y-108814285D01*
X138654761Y-108838095D01*
X138630952Y-108885714D01*
X138630952Y-108980952D01*
X138654761Y-109028571D01*
X138678571Y-109052380D01*
X138726190Y-109076190D01*
X138821428Y-109076190D01*
X138869047Y-109052380D01*
X138892857Y-109028571D01*
X138916666Y-108980952D01*
X138916666Y-108885714D01*
X138892857Y-108838095D01*
X138869047Y-108814285D01*
X138821428Y-108790476D01*
X139226190Y-108576190D02*
X139273809Y-108576190D01*
X139321428Y-108600000D01*
X139345238Y-108623809D01*
X139369047Y-108671428D01*
X139392857Y-108766666D01*
X139392857Y-108885714D01*
X139369047Y-108980952D01*
X139345238Y-109028571D01*
X139321428Y-109052380D01*
X139273809Y-109076190D01*
X139226190Y-109076190D01*
X139178571Y-109052380D01*
X139154761Y-109028571D01*
X139130952Y-108980952D01*
X139107142Y-108885714D01*
X139107142Y-108766666D01*
X139130952Y-108671428D01*
X139154761Y-108623809D01*
X139178571Y-108600000D01*
X139226190Y-108576190D01*
X139583333Y-108623809D02*
X139607142Y-108600000D01*
X139654761Y-108576190D01*
X139773809Y-108576190D01*
X139821428Y-108600000D01*
X139845238Y-108623809D01*
X139869047Y-108671428D01*
X139869047Y-108719047D01*
X139845238Y-108790476D01*
X139559523Y-109076190D01*
X139869047Y-109076190D01*
X138978571Y-98259523D02*
X139002380Y-98283333D01*
X139026190Y-98354761D01*
X139026190Y-98402380D01*
X139002380Y-98473809D01*
X138954761Y-98521428D01*
X138907142Y-98545238D01*
X138811904Y-98569047D01*
X138740476Y-98569047D01*
X138645238Y-98545238D01*
X138597619Y-98521428D01*
X138550000Y-98473809D01*
X138526190Y-98402380D01*
X138526190Y-98354761D01*
X138550000Y-98283333D01*
X138573809Y-98259523D01*
X138740476Y-97973809D02*
X138716666Y-98021428D01*
X138692857Y-98045238D01*
X138645238Y-98069047D01*
X138621428Y-98069047D01*
X138573809Y-98045238D01*
X138550000Y-98021428D01*
X138526190Y-97973809D01*
X138526190Y-97878571D01*
X138550000Y-97830952D01*
X138573809Y-97807142D01*
X138621428Y-97783333D01*
X138645238Y-97783333D01*
X138692857Y-97807142D01*
X138716666Y-97830952D01*
X138740476Y-97878571D01*
X138740476Y-97973809D01*
X138764285Y-98021428D01*
X138788095Y-98045238D01*
X138835714Y-98069047D01*
X138930952Y-98069047D01*
X138978571Y-98045238D01*
X139002380Y-98021428D01*
X139026190Y-97973809D01*
X139026190Y-97878571D01*
X139002380Y-97830952D01*
X138978571Y-97807142D01*
X138930952Y-97783333D01*
X138835714Y-97783333D01*
X138788095Y-97807142D01*
X138764285Y-97830952D01*
X138740476Y-97878571D01*
X138526190Y-97473809D02*
X138526190Y-97426190D01*
X138550000Y-97378571D01*
X138573809Y-97354761D01*
X138621428Y-97330952D01*
X138716666Y-97307142D01*
X138835714Y-97307142D01*
X138930952Y-97330952D01*
X138978571Y-97354761D01*
X139002380Y-97378571D01*
X139026190Y-97426190D01*
X139026190Y-97473809D01*
X139002380Y-97521428D01*
X138978571Y-97545238D01*
X138930952Y-97569047D01*
X138835714Y-97592857D01*
X138716666Y-97592857D01*
X138621428Y-97569047D01*
X138573809Y-97545238D01*
X138550000Y-97521428D01*
X138526190Y-97473809D01*
X138526190Y-97140476D02*
X138526190Y-96830952D01*
X138716666Y-96997619D01*
X138716666Y-96926190D01*
X138740476Y-96878571D01*
X138764285Y-96854761D01*
X138811904Y-96830952D01*
X138930952Y-96830952D01*
X138978571Y-96854761D01*
X139002380Y-96878571D01*
X139026190Y-96926190D01*
X139026190Y-97069047D01*
X139002380Y-97116666D01*
X138978571Y-97140476D01*
X123930476Y-115978571D02*
X123906666Y-116002380D01*
X123835238Y-116026190D01*
X123787619Y-116026190D01*
X123716190Y-116002380D01*
X123668571Y-115954761D01*
X123644761Y-115907142D01*
X123620952Y-115811904D01*
X123620952Y-115740476D01*
X123644761Y-115645238D01*
X123668571Y-115597619D01*
X123716190Y-115550000D01*
X123787619Y-115526190D01*
X123835238Y-115526190D01*
X123906666Y-115550000D01*
X123930476Y-115573809D01*
X124216190Y-115740476D02*
X124168571Y-115716666D01*
X124144761Y-115692857D01*
X124120952Y-115645238D01*
X124120952Y-115621428D01*
X124144761Y-115573809D01*
X124168571Y-115550000D01*
X124216190Y-115526190D01*
X124311428Y-115526190D01*
X124359047Y-115550000D01*
X124382857Y-115573809D01*
X124406666Y-115621428D01*
X124406666Y-115645238D01*
X124382857Y-115692857D01*
X124359047Y-115716666D01*
X124311428Y-115740476D01*
X124216190Y-115740476D01*
X124168571Y-115764285D01*
X124144761Y-115788095D01*
X124120952Y-115835714D01*
X124120952Y-115930952D01*
X124144761Y-115978571D01*
X124168571Y-116002380D01*
X124216190Y-116026190D01*
X124311428Y-116026190D01*
X124359047Y-116002380D01*
X124382857Y-115978571D01*
X124406666Y-115930952D01*
X124406666Y-115835714D01*
X124382857Y-115788095D01*
X124359047Y-115764285D01*
X124311428Y-115740476D01*
X124716190Y-115526190D02*
X124763809Y-115526190D01*
X124811428Y-115550000D01*
X124835238Y-115573809D01*
X124859047Y-115621428D01*
X124882857Y-115716666D01*
X124882857Y-115835714D01*
X124859047Y-115930952D01*
X124835238Y-115978571D01*
X124811428Y-116002380D01*
X124763809Y-116026190D01*
X124716190Y-116026190D01*
X124668571Y-116002380D01*
X124644761Y-115978571D01*
X124620952Y-115930952D01*
X124597142Y-115835714D01*
X124597142Y-115716666D01*
X124620952Y-115621428D01*
X124644761Y-115573809D01*
X124668571Y-115550000D01*
X124716190Y-115526190D01*
X125311428Y-115692857D02*
X125311428Y-116026190D01*
X125192380Y-115502380D02*
X125073333Y-115859523D01*
X125382857Y-115859523D01*
X132118571Y-97559523D02*
X132142380Y-97583333D01*
X132166190Y-97654761D01*
X132166190Y-97702380D01*
X132142380Y-97773809D01*
X132094761Y-97821428D01*
X132047142Y-97845238D01*
X131951904Y-97869047D01*
X131880476Y-97869047D01*
X131785238Y-97845238D01*
X131737619Y-97821428D01*
X131690000Y-97773809D01*
X131666190Y-97702380D01*
X131666190Y-97654761D01*
X131690000Y-97583333D01*
X131713809Y-97559523D01*
X131880476Y-97273809D02*
X131856666Y-97321428D01*
X131832857Y-97345238D01*
X131785238Y-97369047D01*
X131761428Y-97369047D01*
X131713809Y-97345238D01*
X131690000Y-97321428D01*
X131666190Y-97273809D01*
X131666190Y-97178571D01*
X131690000Y-97130952D01*
X131713809Y-97107142D01*
X131761428Y-97083333D01*
X131785238Y-97083333D01*
X131832857Y-97107142D01*
X131856666Y-97130952D01*
X131880476Y-97178571D01*
X131880476Y-97273809D01*
X131904285Y-97321428D01*
X131928095Y-97345238D01*
X131975714Y-97369047D01*
X132070952Y-97369047D01*
X132118571Y-97345238D01*
X132142380Y-97321428D01*
X132166190Y-97273809D01*
X132166190Y-97178571D01*
X132142380Y-97130952D01*
X132118571Y-97107142D01*
X132070952Y-97083333D01*
X131975714Y-97083333D01*
X131928095Y-97107142D01*
X131904285Y-97130952D01*
X131880476Y-97178571D01*
X131666190Y-96773809D02*
X131666190Y-96726190D01*
X131690000Y-96678571D01*
X131713809Y-96654761D01*
X131761428Y-96630952D01*
X131856666Y-96607142D01*
X131975714Y-96607142D01*
X132070952Y-96630952D01*
X132118571Y-96654761D01*
X132142380Y-96678571D01*
X132166190Y-96726190D01*
X132166190Y-96773809D01*
X132142380Y-96821428D01*
X132118571Y-96845238D01*
X132070952Y-96869047D01*
X131975714Y-96892857D01*
X131856666Y-96892857D01*
X131761428Y-96869047D01*
X131713809Y-96845238D01*
X131690000Y-96821428D01*
X131666190Y-96773809D01*
X131666190Y-96154761D02*
X131666190Y-96392857D01*
X131904285Y-96416666D01*
X131880476Y-96392857D01*
X131856666Y-96345238D01*
X131856666Y-96226190D01*
X131880476Y-96178571D01*
X131904285Y-96154761D01*
X131951904Y-96130952D01*
X132070952Y-96130952D01*
X132118571Y-96154761D01*
X132142380Y-96178571D01*
X132166190Y-96226190D01*
X132166190Y-96345238D01*
X132142380Y-96392857D01*
X132118571Y-96416666D01*
X154478571Y-122559523D02*
X154502380Y-122583333D01*
X154526190Y-122654761D01*
X154526190Y-122702380D01*
X154502380Y-122773809D01*
X154454761Y-122821428D01*
X154407142Y-122845238D01*
X154311904Y-122869047D01*
X154240476Y-122869047D01*
X154145238Y-122845238D01*
X154097619Y-122821428D01*
X154050000Y-122773809D01*
X154026190Y-122702380D01*
X154026190Y-122654761D01*
X154050000Y-122583333D01*
X154073809Y-122559523D01*
X154240476Y-122273809D02*
X154216666Y-122321428D01*
X154192857Y-122345238D01*
X154145238Y-122369047D01*
X154121428Y-122369047D01*
X154073809Y-122345238D01*
X154050000Y-122321428D01*
X154026190Y-122273809D01*
X154026190Y-122178571D01*
X154050000Y-122130952D01*
X154073809Y-122107142D01*
X154121428Y-122083333D01*
X154145238Y-122083333D01*
X154192857Y-122107142D01*
X154216666Y-122130952D01*
X154240476Y-122178571D01*
X154240476Y-122273809D01*
X154264285Y-122321428D01*
X154288095Y-122345238D01*
X154335714Y-122369047D01*
X154430952Y-122369047D01*
X154478571Y-122345238D01*
X154502380Y-122321428D01*
X154526190Y-122273809D01*
X154526190Y-122178571D01*
X154502380Y-122130952D01*
X154478571Y-122107142D01*
X154430952Y-122083333D01*
X154335714Y-122083333D01*
X154288095Y-122107142D01*
X154264285Y-122130952D01*
X154240476Y-122178571D01*
X154026190Y-121773809D02*
X154026190Y-121726190D01*
X154050000Y-121678571D01*
X154073809Y-121654761D01*
X154121428Y-121630952D01*
X154216666Y-121607142D01*
X154335714Y-121607142D01*
X154430952Y-121630952D01*
X154478571Y-121654761D01*
X154502380Y-121678571D01*
X154526190Y-121726190D01*
X154526190Y-121773809D01*
X154502380Y-121821428D01*
X154478571Y-121845238D01*
X154430952Y-121869047D01*
X154335714Y-121892857D01*
X154216666Y-121892857D01*
X154121428Y-121869047D01*
X154073809Y-121845238D01*
X154050000Y-121821428D01*
X154026190Y-121773809D01*
X154026190Y-121178571D02*
X154026190Y-121273809D01*
X154050000Y-121321428D01*
X154073809Y-121345238D01*
X154145238Y-121392857D01*
X154240476Y-121416666D01*
X154430952Y-121416666D01*
X154478571Y-121392857D01*
X154502380Y-121369047D01*
X154526190Y-121321428D01*
X154526190Y-121226190D01*
X154502380Y-121178571D01*
X154478571Y-121154761D01*
X154430952Y-121130952D01*
X154311904Y-121130952D01*
X154264285Y-121154761D01*
X154240476Y-121178571D01*
X154216666Y-121226190D01*
X154216666Y-121321428D01*
X154240476Y-121369047D01*
X154264285Y-121392857D01*
X154311904Y-121416666D01*
X154478571Y-124559523D02*
X154502380Y-124583333D01*
X154526190Y-124654761D01*
X154526190Y-124702380D01*
X154502380Y-124773809D01*
X154454761Y-124821428D01*
X154407142Y-124845238D01*
X154311904Y-124869047D01*
X154240476Y-124869047D01*
X154145238Y-124845238D01*
X154097619Y-124821428D01*
X154050000Y-124773809D01*
X154026190Y-124702380D01*
X154026190Y-124654761D01*
X154050000Y-124583333D01*
X154073809Y-124559523D01*
X154240476Y-124273809D02*
X154216666Y-124321428D01*
X154192857Y-124345238D01*
X154145238Y-124369047D01*
X154121428Y-124369047D01*
X154073809Y-124345238D01*
X154050000Y-124321428D01*
X154026190Y-124273809D01*
X154026190Y-124178571D01*
X154050000Y-124130952D01*
X154073809Y-124107142D01*
X154121428Y-124083333D01*
X154145238Y-124083333D01*
X154192857Y-124107142D01*
X154216666Y-124130952D01*
X154240476Y-124178571D01*
X154240476Y-124273809D01*
X154264285Y-124321428D01*
X154288095Y-124345238D01*
X154335714Y-124369047D01*
X154430952Y-124369047D01*
X154478571Y-124345238D01*
X154502380Y-124321428D01*
X154526190Y-124273809D01*
X154526190Y-124178571D01*
X154502380Y-124130952D01*
X154478571Y-124107142D01*
X154430952Y-124083333D01*
X154335714Y-124083333D01*
X154288095Y-124107142D01*
X154264285Y-124130952D01*
X154240476Y-124178571D01*
X154026190Y-123773809D02*
X154026190Y-123726190D01*
X154050000Y-123678571D01*
X154073809Y-123654761D01*
X154121428Y-123630952D01*
X154216666Y-123607142D01*
X154335714Y-123607142D01*
X154430952Y-123630952D01*
X154478571Y-123654761D01*
X154502380Y-123678571D01*
X154526190Y-123726190D01*
X154526190Y-123773809D01*
X154502380Y-123821428D01*
X154478571Y-123845238D01*
X154430952Y-123869047D01*
X154335714Y-123892857D01*
X154216666Y-123892857D01*
X154121428Y-123869047D01*
X154073809Y-123845238D01*
X154050000Y-123821428D01*
X154026190Y-123773809D01*
X154026190Y-123440476D02*
X154026190Y-123107142D01*
X154526190Y-123321428D01*
X154478571Y-126559523D02*
X154502380Y-126583333D01*
X154526190Y-126654761D01*
X154526190Y-126702380D01*
X154502380Y-126773809D01*
X154454761Y-126821428D01*
X154407142Y-126845238D01*
X154311904Y-126869047D01*
X154240476Y-126869047D01*
X154145238Y-126845238D01*
X154097619Y-126821428D01*
X154050000Y-126773809D01*
X154026190Y-126702380D01*
X154026190Y-126654761D01*
X154050000Y-126583333D01*
X154073809Y-126559523D01*
X154240476Y-126273809D02*
X154216666Y-126321428D01*
X154192857Y-126345238D01*
X154145238Y-126369047D01*
X154121428Y-126369047D01*
X154073809Y-126345238D01*
X154050000Y-126321428D01*
X154026190Y-126273809D01*
X154026190Y-126178571D01*
X154050000Y-126130952D01*
X154073809Y-126107142D01*
X154121428Y-126083333D01*
X154145238Y-126083333D01*
X154192857Y-126107142D01*
X154216666Y-126130952D01*
X154240476Y-126178571D01*
X154240476Y-126273809D01*
X154264285Y-126321428D01*
X154288095Y-126345238D01*
X154335714Y-126369047D01*
X154430952Y-126369047D01*
X154478571Y-126345238D01*
X154502380Y-126321428D01*
X154526190Y-126273809D01*
X154526190Y-126178571D01*
X154502380Y-126130952D01*
X154478571Y-126107142D01*
X154430952Y-126083333D01*
X154335714Y-126083333D01*
X154288095Y-126107142D01*
X154264285Y-126130952D01*
X154240476Y-126178571D01*
X154026190Y-125773809D02*
X154026190Y-125726190D01*
X154050000Y-125678571D01*
X154073809Y-125654761D01*
X154121428Y-125630952D01*
X154216666Y-125607142D01*
X154335714Y-125607142D01*
X154430952Y-125630952D01*
X154478571Y-125654761D01*
X154502380Y-125678571D01*
X154526190Y-125726190D01*
X154526190Y-125773809D01*
X154502380Y-125821428D01*
X154478571Y-125845238D01*
X154430952Y-125869047D01*
X154335714Y-125892857D01*
X154216666Y-125892857D01*
X154121428Y-125869047D01*
X154073809Y-125845238D01*
X154050000Y-125821428D01*
X154026190Y-125773809D01*
X154240476Y-125321428D02*
X154216666Y-125369047D01*
X154192857Y-125392857D01*
X154145238Y-125416666D01*
X154121428Y-125416666D01*
X154073809Y-125392857D01*
X154050000Y-125369047D01*
X154026190Y-125321428D01*
X154026190Y-125226190D01*
X154050000Y-125178571D01*
X154073809Y-125154761D01*
X154121428Y-125130952D01*
X154145238Y-125130952D01*
X154192857Y-125154761D01*
X154216666Y-125178571D01*
X154240476Y-125226190D01*
X154240476Y-125321428D01*
X154264285Y-125369047D01*
X154288095Y-125392857D01*
X154335714Y-125416666D01*
X154430952Y-125416666D01*
X154478571Y-125392857D01*
X154502380Y-125369047D01*
X154526190Y-125321428D01*
X154526190Y-125226190D01*
X154502380Y-125178571D01*
X154478571Y-125154761D01*
X154430952Y-125130952D01*
X154335714Y-125130952D01*
X154288095Y-125154761D01*
X154264285Y-125178571D01*
X154240476Y-125226190D01*
X154478571Y-128559523D02*
X154502380Y-128583333D01*
X154526190Y-128654761D01*
X154526190Y-128702380D01*
X154502380Y-128773809D01*
X154454761Y-128821428D01*
X154407142Y-128845238D01*
X154311904Y-128869047D01*
X154240476Y-128869047D01*
X154145238Y-128845238D01*
X154097619Y-128821428D01*
X154050000Y-128773809D01*
X154026190Y-128702380D01*
X154026190Y-128654761D01*
X154050000Y-128583333D01*
X154073809Y-128559523D01*
X154240476Y-128273809D02*
X154216666Y-128321428D01*
X154192857Y-128345238D01*
X154145238Y-128369047D01*
X154121428Y-128369047D01*
X154073809Y-128345238D01*
X154050000Y-128321428D01*
X154026190Y-128273809D01*
X154026190Y-128178571D01*
X154050000Y-128130952D01*
X154073809Y-128107142D01*
X154121428Y-128083333D01*
X154145238Y-128083333D01*
X154192857Y-128107142D01*
X154216666Y-128130952D01*
X154240476Y-128178571D01*
X154240476Y-128273809D01*
X154264285Y-128321428D01*
X154288095Y-128345238D01*
X154335714Y-128369047D01*
X154430952Y-128369047D01*
X154478571Y-128345238D01*
X154502380Y-128321428D01*
X154526190Y-128273809D01*
X154526190Y-128178571D01*
X154502380Y-128130952D01*
X154478571Y-128107142D01*
X154430952Y-128083333D01*
X154335714Y-128083333D01*
X154288095Y-128107142D01*
X154264285Y-128130952D01*
X154240476Y-128178571D01*
X154026190Y-127773809D02*
X154026190Y-127726190D01*
X154050000Y-127678571D01*
X154073809Y-127654761D01*
X154121428Y-127630952D01*
X154216666Y-127607142D01*
X154335714Y-127607142D01*
X154430952Y-127630952D01*
X154478571Y-127654761D01*
X154502380Y-127678571D01*
X154526190Y-127726190D01*
X154526190Y-127773809D01*
X154502380Y-127821428D01*
X154478571Y-127845238D01*
X154430952Y-127869047D01*
X154335714Y-127892857D01*
X154216666Y-127892857D01*
X154121428Y-127869047D01*
X154073809Y-127845238D01*
X154050000Y-127821428D01*
X154026190Y-127773809D01*
X154526190Y-127369047D02*
X154526190Y-127273809D01*
X154502380Y-127226190D01*
X154478571Y-127202380D01*
X154407142Y-127154761D01*
X154311904Y-127130952D01*
X154121428Y-127130952D01*
X154073809Y-127154761D01*
X154050000Y-127178571D01*
X154026190Y-127226190D01*
X154026190Y-127321428D01*
X154050000Y-127369047D01*
X154073809Y-127392857D01*
X154121428Y-127416666D01*
X154240476Y-127416666D01*
X154288095Y-127392857D01*
X154311904Y-127369047D01*
X154335714Y-127321428D01*
X154335714Y-127226190D01*
X154311904Y-127178571D01*
X154288095Y-127154761D01*
X154240476Y-127130952D01*
X154478571Y-133379523D02*
X154502380Y-133403333D01*
X154526190Y-133474761D01*
X154526190Y-133522380D01*
X154502380Y-133593809D01*
X154454761Y-133641428D01*
X154407142Y-133665238D01*
X154311904Y-133689047D01*
X154240476Y-133689047D01*
X154145238Y-133665238D01*
X154097619Y-133641428D01*
X154050000Y-133593809D01*
X154026190Y-133522380D01*
X154026190Y-133474761D01*
X154050000Y-133403333D01*
X154073809Y-133379523D01*
X154240476Y-133093809D02*
X154216666Y-133141428D01*
X154192857Y-133165238D01*
X154145238Y-133189047D01*
X154121428Y-133189047D01*
X154073809Y-133165238D01*
X154050000Y-133141428D01*
X154026190Y-133093809D01*
X154026190Y-132998571D01*
X154050000Y-132950952D01*
X154073809Y-132927142D01*
X154121428Y-132903333D01*
X154145238Y-132903333D01*
X154192857Y-132927142D01*
X154216666Y-132950952D01*
X154240476Y-132998571D01*
X154240476Y-133093809D01*
X154264285Y-133141428D01*
X154288095Y-133165238D01*
X154335714Y-133189047D01*
X154430952Y-133189047D01*
X154478571Y-133165238D01*
X154502380Y-133141428D01*
X154526190Y-133093809D01*
X154526190Y-132998571D01*
X154502380Y-132950952D01*
X154478571Y-132927142D01*
X154430952Y-132903333D01*
X154335714Y-132903333D01*
X154288095Y-132927142D01*
X154264285Y-132950952D01*
X154240476Y-132998571D01*
X154526190Y-132427142D02*
X154526190Y-132712857D01*
X154526190Y-132570000D02*
X154026190Y-132570000D01*
X154097619Y-132617619D01*
X154145238Y-132665238D01*
X154169047Y-132712857D01*
X154026190Y-132117619D02*
X154026190Y-132070000D01*
X154050000Y-132022380D01*
X154073809Y-131998571D01*
X154121428Y-131974761D01*
X154216666Y-131950952D01*
X154335714Y-131950952D01*
X154430952Y-131974761D01*
X154478571Y-131998571D01*
X154502380Y-132022380D01*
X154526190Y-132070000D01*
X154526190Y-132117619D01*
X154502380Y-132165238D01*
X154478571Y-132189047D01*
X154430952Y-132212857D01*
X154335714Y-132236666D01*
X154216666Y-132236666D01*
X154121428Y-132212857D01*
X154073809Y-132189047D01*
X154050000Y-132165238D01*
X154026190Y-132117619D01*
X129840476Y-124283571D02*
X129816666Y-124307380D01*
X129745238Y-124331190D01*
X129697619Y-124331190D01*
X129626190Y-124307380D01*
X129578571Y-124259761D01*
X129554761Y-124212142D01*
X129530952Y-124116904D01*
X129530952Y-124045476D01*
X129554761Y-123950238D01*
X129578571Y-123902619D01*
X129626190Y-123855000D01*
X129697619Y-123831190D01*
X129745238Y-123831190D01*
X129816666Y-123855000D01*
X129840476Y-123878809D01*
X130126190Y-124045476D02*
X130078571Y-124021666D01*
X130054761Y-123997857D01*
X130030952Y-123950238D01*
X130030952Y-123926428D01*
X130054761Y-123878809D01*
X130078571Y-123855000D01*
X130126190Y-123831190D01*
X130221428Y-123831190D01*
X130269047Y-123855000D01*
X130292857Y-123878809D01*
X130316666Y-123926428D01*
X130316666Y-123950238D01*
X130292857Y-123997857D01*
X130269047Y-124021666D01*
X130221428Y-124045476D01*
X130126190Y-124045476D01*
X130078571Y-124069285D01*
X130054761Y-124093095D01*
X130030952Y-124140714D01*
X130030952Y-124235952D01*
X130054761Y-124283571D01*
X130078571Y-124307380D01*
X130126190Y-124331190D01*
X130221428Y-124331190D01*
X130269047Y-124307380D01*
X130292857Y-124283571D01*
X130316666Y-124235952D01*
X130316666Y-124140714D01*
X130292857Y-124093095D01*
X130269047Y-124069285D01*
X130221428Y-124045476D01*
X130792857Y-124331190D02*
X130507142Y-124331190D01*
X130650000Y-124331190D02*
X130650000Y-123831190D01*
X130602380Y-123902619D01*
X130554761Y-123950238D01*
X130507142Y-123974047D01*
X131269047Y-124331190D02*
X130983333Y-124331190D01*
X131126190Y-124331190D02*
X131126190Y-123831190D01*
X131078571Y-123902619D01*
X131030952Y-123950238D01*
X130983333Y-123974047D01*
X138915476Y-126978571D02*
X138891666Y-127002380D01*
X138820238Y-127026190D01*
X138772619Y-127026190D01*
X138701190Y-127002380D01*
X138653571Y-126954761D01*
X138629761Y-126907142D01*
X138605952Y-126811904D01*
X138605952Y-126740476D01*
X138629761Y-126645238D01*
X138653571Y-126597619D01*
X138701190Y-126550000D01*
X138772619Y-126526190D01*
X138820238Y-126526190D01*
X138891666Y-126550000D01*
X138915476Y-126573809D01*
X139201190Y-126740476D02*
X139153571Y-126716666D01*
X139129761Y-126692857D01*
X139105952Y-126645238D01*
X139105952Y-126621428D01*
X139129761Y-126573809D01*
X139153571Y-126550000D01*
X139201190Y-126526190D01*
X139296428Y-126526190D01*
X139344047Y-126550000D01*
X139367857Y-126573809D01*
X139391666Y-126621428D01*
X139391666Y-126645238D01*
X139367857Y-126692857D01*
X139344047Y-126716666D01*
X139296428Y-126740476D01*
X139201190Y-126740476D01*
X139153571Y-126764285D01*
X139129761Y-126788095D01*
X139105952Y-126835714D01*
X139105952Y-126930952D01*
X139129761Y-126978571D01*
X139153571Y-127002380D01*
X139201190Y-127026190D01*
X139296428Y-127026190D01*
X139344047Y-127002380D01*
X139367857Y-126978571D01*
X139391666Y-126930952D01*
X139391666Y-126835714D01*
X139367857Y-126788095D01*
X139344047Y-126764285D01*
X139296428Y-126740476D01*
X139867857Y-127026190D02*
X139582142Y-127026190D01*
X139725000Y-127026190D02*
X139725000Y-126526190D01*
X139677380Y-126597619D01*
X139629761Y-126645238D01*
X139582142Y-126669047D01*
X140058333Y-126573809D02*
X140082142Y-126550000D01*
X140129761Y-126526190D01*
X140248809Y-126526190D01*
X140296428Y-126550000D01*
X140320238Y-126573809D01*
X140344047Y-126621428D01*
X140344047Y-126669047D01*
X140320238Y-126740476D01*
X140034523Y-127026190D01*
X140344047Y-127026190D01*
X133965476Y-126978571D02*
X133941666Y-127002380D01*
X133870238Y-127026190D01*
X133822619Y-127026190D01*
X133751190Y-127002380D01*
X133703571Y-126954761D01*
X133679761Y-126907142D01*
X133655952Y-126811904D01*
X133655952Y-126740476D01*
X133679761Y-126645238D01*
X133703571Y-126597619D01*
X133751190Y-126550000D01*
X133822619Y-126526190D01*
X133870238Y-126526190D01*
X133941666Y-126550000D01*
X133965476Y-126573809D01*
X134251190Y-126740476D02*
X134203571Y-126716666D01*
X134179761Y-126692857D01*
X134155952Y-126645238D01*
X134155952Y-126621428D01*
X134179761Y-126573809D01*
X134203571Y-126550000D01*
X134251190Y-126526190D01*
X134346428Y-126526190D01*
X134394047Y-126550000D01*
X134417857Y-126573809D01*
X134441666Y-126621428D01*
X134441666Y-126645238D01*
X134417857Y-126692857D01*
X134394047Y-126716666D01*
X134346428Y-126740476D01*
X134251190Y-126740476D01*
X134203571Y-126764285D01*
X134179761Y-126788095D01*
X134155952Y-126835714D01*
X134155952Y-126930952D01*
X134179761Y-126978571D01*
X134203571Y-127002380D01*
X134251190Y-127026190D01*
X134346428Y-127026190D01*
X134394047Y-127002380D01*
X134417857Y-126978571D01*
X134441666Y-126930952D01*
X134441666Y-126835714D01*
X134417857Y-126788095D01*
X134394047Y-126764285D01*
X134346428Y-126740476D01*
X134917857Y-127026190D02*
X134632142Y-127026190D01*
X134775000Y-127026190D02*
X134775000Y-126526190D01*
X134727380Y-126597619D01*
X134679761Y-126645238D01*
X134632142Y-126669047D01*
X135084523Y-126526190D02*
X135394047Y-126526190D01*
X135227380Y-126716666D01*
X135298809Y-126716666D01*
X135346428Y-126740476D01*
X135370238Y-126764285D01*
X135394047Y-126811904D01*
X135394047Y-126930952D01*
X135370238Y-126978571D01*
X135346428Y-127002380D01*
X135298809Y-127026190D01*
X135155952Y-127026190D01*
X135108333Y-127002380D01*
X135084523Y-126978571D01*
D11*
X144329523Y-124572380D02*
X144329523Y-123572380D01*
X144567619Y-123572380D01*
X144710476Y-123620000D01*
X144805714Y-123715238D01*
X144853333Y-123810476D01*
X144900952Y-124000952D01*
X144900952Y-124143809D01*
X144853333Y-124334285D01*
X144805714Y-124429523D01*
X144710476Y-124524761D01*
X144567619Y-124572380D01*
X144329523Y-124572380D01*
X145758095Y-123572380D02*
X145567619Y-123572380D01*
X145472380Y-123620000D01*
X145424761Y-123667619D01*
X145329523Y-123810476D01*
X145281904Y-124000952D01*
X145281904Y-124381904D01*
X145329523Y-124477142D01*
X145377142Y-124524761D01*
X145472380Y-124572380D01*
X145662857Y-124572380D01*
X145758095Y-124524761D01*
X145805714Y-124477142D01*
X145853333Y-124381904D01*
X145853333Y-124143809D01*
X145805714Y-124048571D01*
X145758095Y-124000952D01*
X145662857Y-123953333D01*
X145472380Y-123953333D01*
X145377142Y-124000952D01*
X145329523Y-124048571D01*
X145281904Y-124143809D01*
X146472380Y-123572380D02*
X146567619Y-123572380D01*
X146662857Y-123620000D01*
X146710476Y-123667619D01*
X146758095Y-123762857D01*
X146805714Y-123953333D01*
X146805714Y-124191428D01*
X146758095Y-124381904D01*
X146710476Y-124477142D01*
X146662857Y-124524761D01*
X146567619Y-124572380D01*
X146472380Y-124572380D01*
X146377142Y-124524761D01*
X146329523Y-124477142D01*
X146281904Y-124381904D01*
X146234285Y-124191428D01*
X146234285Y-123953333D01*
X146281904Y-123762857D01*
X146329523Y-123667619D01*
X146377142Y-123620000D01*
X146472380Y-123572380D01*
X147710476Y-123572380D02*
X147234285Y-123572380D01*
X147186666Y-124048571D01*
X147234285Y-124000952D01*
X147329523Y-123953333D01*
X147567619Y-123953333D01*
X147662857Y-124000952D01*
X147710476Y-124048571D01*
X147758095Y-124143809D01*
X147758095Y-124381904D01*
X147710476Y-124477142D01*
X147662857Y-124524761D01*
X147567619Y-124572380D01*
X147329523Y-124572380D01*
X147234285Y-124524761D01*
X147186666Y-124477142D01*
D14*
X150720444Y-107202416D02*
X150720444Y-106445496D01*
X151008795Y-106445496D01*
X151080882Y-106481540D01*
X151116926Y-106517583D01*
X151152970Y-106589671D01*
X151152970Y-106697802D01*
X151116926Y-106769890D01*
X151080882Y-106805934D01*
X151008795Y-106841978D01*
X150720444Y-106841978D01*
X151801759Y-106445496D02*
X151657583Y-106445496D01*
X151585496Y-106481540D01*
X151549452Y-106517583D01*
X151477364Y-106625715D01*
X151441320Y-106769890D01*
X151441320Y-107058240D01*
X151477364Y-107130328D01*
X151513408Y-107166372D01*
X151585496Y-107202416D01*
X151729671Y-107202416D01*
X151801759Y-107166372D01*
X151837802Y-107130328D01*
X151873846Y-107058240D01*
X151873846Y-106878021D01*
X151837802Y-106805934D01*
X151801759Y-106769890D01*
X151729671Y-106733846D01*
X151585496Y-106733846D01*
X151513408Y-106769890D01*
X151477364Y-106805934D01*
X151441320Y-106878021D01*
X152342416Y-106445496D02*
X152414503Y-106445496D01*
X152486591Y-106481540D01*
X152522635Y-106517583D01*
X152558679Y-106589671D01*
X152594722Y-106733846D01*
X152594722Y-106914065D01*
X152558679Y-107058240D01*
X152522635Y-107130328D01*
X152486591Y-107166372D01*
X152414503Y-107202416D01*
X152342416Y-107202416D01*
X152270328Y-107166372D01*
X152234284Y-107130328D01*
X152198240Y-107058240D01*
X152162197Y-106914065D01*
X152162197Y-106733846D01*
X152198240Y-106589671D01*
X152234284Y-106517583D01*
X152270328Y-106481540D01*
X152342416Y-106445496D01*
X153315599Y-107202416D02*
X152883073Y-107202416D01*
X153099336Y-107202416D02*
X153099336Y-106445496D01*
X153027248Y-106553627D01*
X152955160Y-106625715D01*
X152883073Y-106661759D01*
D11*
X162452380Y-101447619D02*
X162357142Y-101400000D01*
X162261904Y-101304761D01*
X162119047Y-101161904D01*
X162023809Y-101114285D01*
X161928571Y-101114285D01*
X161976190Y-101352380D02*
X161880952Y-101304761D01*
X161785714Y-101209523D01*
X161738095Y-101019047D01*
X161738095Y-100685714D01*
X161785714Y-100495238D01*
X161880952Y-100400000D01*
X161976190Y-100352380D01*
X162166666Y-100352380D01*
X162261904Y-100400000D01*
X162357142Y-100495238D01*
X162404761Y-100685714D01*
X162404761Y-101019047D01*
X162357142Y-101209523D01*
X162261904Y-101304761D01*
X162166666Y-101352380D01*
X161976190Y-101352380D01*
X162785714Y-100447619D02*
X162833333Y-100400000D01*
X162928571Y-100352380D01*
X163166666Y-100352380D01*
X163261904Y-100400000D01*
X163309523Y-100447619D01*
X163357142Y-100542857D01*
X163357142Y-100638095D01*
X163309523Y-100780952D01*
X162738095Y-101352380D01*
X163357142Y-101352380D01*
X163976190Y-100352380D02*
X164071428Y-100352380D01*
X164166666Y-100400000D01*
X164214285Y-100447619D01*
X164261904Y-100542857D01*
X164309523Y-100733333D01*
X164309523Y-100971428D01*
X164261904Y-101161904D01*
X164214285Y-101257142D01*
X164166666Y-101304761D01*
X164071428Y-101352380D01*
X163976190Y-101352380D01*
X163880952Y-101304761D01*
X163833333Y-101257142D01*
X163785714Y-101161904D01*
X163738095Y-100971428D01*
X163738095Y-100733333D01*
X163785714Y-100542857D01*
X163833333Y-100447619D01*
X163880952Y-100400000D01*
X163976190Y-100352380D01*
X165261904Y-101352380D02*
X164690476Y-101352380D01*
X164976190Y-101352380D02*
X164976190Y-100352380D01*
X164880952Y-100495238D01*
X164785714Y-100590476D01*
X164690476Y-100638095D01*
X162452380Y-122447619D02*
X162357142Y-122400000D01*
X162261904Y-122304761D01*
X162119047Y-122161904D01*
X162023809Y-122114285D01*
X161928571Y-122114285D01*
X161976190Y-122352380D02*
X161880952Y-122304761D01*
X161785714Y-122209523D01*
X161738095Y-122019047D01*
X161738095Y-121685714D01*
X161785714Y-121495238D01*
X161880952Y-121400000D01*
X161976190Y-121352380D01*
X162166666Y-121352380D01*
X162261904Y-121400000D01*
X162357142Y-121495238D01*
X162404761Y-121685714D01*
X162404761Y-122019047D01*
X162357142Y-122209523D01*
X162261904Y-122304761D01*
X162166666Y-122352380D01*
X161976190Y-122352380D01*
X162785714Y-121447619D02*
X162833333Y-121400000D01*
X162928571Y-121352380D01*
X163166666Y-121352380D01*
X163261904Y-121400000D01*
X163309523Y-121447619D01*
X163357142Y-121542857D01*
X163357142Y-121638095D01*
X163309523Y-121780952D01*
X162738095Y-122352380D01*
X163357142Y-122352380D01*
X163976190Y-121352380D02*
X164071428Y-121352380D01*
X164166666Y-121400000D01*
X164214285Y-121447619D01*
X164261904Y-121542857D01*
X164309523Y-121733333D01*
X164309523Y-121971428D01*
X164261904Y-122161904D01*
X164214285Y-122257142D01*
X164166666Y-122304761D01*
X164071428Y-122352380D01*
X163976190Y-122352380D01*
X163880952Y-122304761D01*
X163833333Y-122257142D01*
X163785714Y-122161904D01*
X163738095Y-121971428D01*
X163738095Y-121733333D01*
X163785714Y-121542857D01*
X163833333Y-121447619D01*
X163880952Y-121400000D01*
X163976190Y-121352380D01*
X164642857Y-121352380D02*
X165261904Y-121352380D01*
X164928571Y-121733333D01*
X165071428Y-121733333D01*
X165166666Y-121780952D01*
X165214285Y-121828571D01*
X165261904Y-121923809D01*
X165261904Y-122161904D01*
X165214285Y-122257142D01*
X165166666Y-122304761D01*
X165071428Y-122352380D01*
X164785714Y-122352380D01*
X164690476Y-122304761D01*
X164642857Y-122257142D01*
X162452380Y-132947619D02*
X162357142Y-132900000D01*
X162261904Y-132804761D01*
X162119047Y-132661904D01*
X162023809Y-132614285D01*
X161928571Y-132614285D01*
X161976190Y-132852380D02*
X161880952Y-132804761D01*
X161785714Y-132709523D01*
X161738095Y-132519047D01*
X161738095Y-132185714D01*
X161785714Y-131995238D01*
X161880952Y-131900000D01*
X161976190Y-131852380D01*
X162166666Y-131852380D01*
X162261904Y-131900000D01*
X162357142Y-131995238D01*
X162404761Y-132185714D01*
X162404761Y-132519047D01*
X162357142Y-132709523D01*
X162261904Y-132804761D01*
X162166666Y-132852380D01*
X161976190Y-132852380D01*
X162785714Y-131947619D02*
X162833333Y-131900000D01*
X162928571Y-131852380D01*
X163166666Y-131852380D01*
X163261904Y-131900000D01*
X163309523Y-131947619D01*
X163357142Y-132042857D01*
X163357142Y-132138095D01*
X163309523Y-132280952D01*
X162738095Y-132852380D01*
X163357142Y-132852380D01*
X163976190Y-131852380D02*
X164071428Y-131852380D01*
X164166666Y-131900000D01*
X164214285Y-131947619D01*
X164261904Y-132042857D01*
X164309523Y-132233333D01*
X164309523Y-132471428D01*
X164261904Y-132661904D01*
X164214285Y-132757142D01*
X164166666Y-132804761D01*
X164071428Y-132852380D01*
X163976190Y-132852380D01*
X163880952Y-132804761D01*
X163833333Y-132757142D01*
X163785714Y-132661904D01*
X163738095Y-132471428D01*
X163738095Y-132233333D01*
X163785714Y-132042857D01*
X163833333Y-131947619D01*
X163880952Y-131900000D01*
X163976190Y-131852380D01*
X165166666Y-132185714D02*
X165166666Y-132852380D01*
X164928571Y-131804761D02*
X164690476Y-132519047D01*
X165309523Y-132519047D01*
D17*
X169440476Y-92746190D02*
X169273809Y-92508095D01*
X169154761Y-92746190D02*
X169154761Y-92246190D01*
X169345238Y-92246190D01*
X169392857Y-92270000D01*
X169416666Y-92293809D01*
X169440476Y-92341428D01*
X169440476Y-92412857D01*
X169416666Y-92460476D01*
X169392857Y-92484285D01*
X169345238Y-92508095D01*
X169154761Y-92508095D01*
X169607142Y-92246190D02*
X169940476Y-92246190D01*
X169726190Y-92746190D01*
X170226190Y-92246190D02*
X170273809Y-92246190D01*
X170321428Y-92270000D01*
X170345238Y-92293809D01*
X170369047Y-92341428D01*
X170392857Y-92436666D01*
X170392857Y-92555714D01*
X170369047Y-92650952D01*
X170345238Y-92698571D01*
X170321428Y-92722380D01*
X170273809Y-92746190D01*
X170226190Y-92746190D01*
X170178571Y-92722380D01*
X170154761Y-92698571D01*
X170130952Y-92650952D01*
X170107142Y-92555714D01*
X170107142Y-92436666D01*
X170130952Y-92341428D01*
X170154761Y-92293809D01*
X170178571Y-92270000D01*
X170226190Y-92246190D01*
X170869047Y-92746190D02*
X170583333Y-92746190D01*
X170726190Y-92746190D02*
X170726190Y-92246190D01*
X170678571Y-92317619D01*
X170630952Y-92365238D01*
X170583333Y-92389047D01*
X134930476Y-99486190D02*
X134763809Y-99248095D01*
X134644761Y-99486190D02*
X134644761Y-98986190D01*
X134835238Y-98986190D01*
X134882857Y-99010000D01*
X134906666Y-99033809D01*
X134930476Y-99081428D01*
X134930476Y-99152857D01*
X134906666Y-99200476D01*
X134882857Y-99224285D01*
X134835238Y-99248095D01*
X134644761Y-99248095D01*
X135097142Y-98986190D02*
X135430476Y-98986190D01*
X135216190Y-99486190D01*
X135716190Y-98986190D02*
X135763809Y-98986190D01*
X135811428Y-99010000D01*
X135835238Y-99033809D01*
X135859047Y-99081428D01*
X135882857Y-99176666D01*
X135882857Y-99295714D01*
X135859047Y-99390952D01*
X135835238Y-99438571D01*
X135811428Y-99462380D01*
X135763809Y-99486190D01*
X135716190Y-99486190D01*
X135668571Y-99462380D01*
X135644761Y-99438571D01*
X135620952Y-99390952D01*
X135597142Y-99295714D01*
X135597142Y-99176666D01*
X135620952Y-99081428D01*
X135644761Y-99033809D01*
X135668571Y-99010000D01*
X135716190Y-98986190D01*
X136073333Y-99033809D02*
X136097142Y-99010000D01*
X136144761Y-98986190D01*
X136263809Y-98986190D01*
X136311428Y-99010000D01*
X136335238Y-99033809D01*
X136359047Y-99081428D01*
X136359047Y-99129047D01*
X136335238Y-99200476D01*
X136049523Y-99486190D01*
X136359047Y-99486190D01*
X119930476Y-108526190D02*
X119763809Y-108288095D01*
X119644761Y-108526190D02*
X119644761Y-108026190D01*
X119835238Y-108026190D01*
X119882857Y-108050000D01*
X119906666Y-108073809D01*
X119930476Y-108121428D01*
X119930476Y-108192857D01*
X119906666Y-108240476D01*
X119882857Y-108264285D01*
X119835238Y-108288095D01*
X119644761Y-108288095D01*
X120097142Y-108026190D02*
X120430476Y-108026190D01*
X120216190Y-108526190D01*
X120716190Y-108026190D02*
X120763809Y-108026190D01*
X120811428Y-108050000D01*
X120835238Y-108073809D01*
X120859047Y-108121428D01*
X120882857Y-108216666D01*
X120882857Y-108335714D01*
X120859047Y-108430952D01*
X120835238Y-108478571D01*
X120811428Y-108502380D01*
X120763809Y-108526190D01*
X120716190Y-108526190D01*
X120668571Y-108502380D01*
X120644761Y-108478571D01*
X120620952Y-108430952D01*
X120597142Y-108335714D01*
X120597142Y-108216666D01*
X120620952Y-108121428D01*
X120644761Y-108073809D01*
X120668571Y-108050000D01*
X120716190Y-108026190D01*
X121049523Y-108026190D02*
X121359047Y-108026190D01*
X121192380Y-108216666D01*
X121263809Y-108216666D01*
X121311428Y-108240476D01*
X121335238Y-108264285D01*
X121359047Y-108311904D01*
X121359047Y-108430952D01*
X121335238Y-108478571D01*
X121311428Y-108502380D01*
X121263809Y-108526190D01*
X121120952Y-108526190D01*
X121073333Y-108502380D01*
X121049523Y-108478571D01*
X123930476Y-108526190D02*
X123763809Y-108288095D01*
X123644761Y-108526190D02*
X123644761Y-108026190D01*
X123835238Y-108026190D01*
X123882857Y-108050000D01*
X123906666Y-108073809D01*
X123930476Y-108121428D01*
X123930476Y-108192857D01*
X123906666Y-108240476D01*
X123882857Y-108264285D01*
X123835238Y-108288095D01*
X123644761Y-108288095D01*
X124097142Y-108026190D02*
X124430476Y-108026190D01*
X124216190Y-108526190D01*
X124716190Y-108026190D02*
X124763809Y-108026190D01*
X124811428Y-108050000D01*
X124835238Y-108073809D01*
X124859047Y-108121428D01*
X124882857Y-108216666D01*
X124882857Y-108335714D01*
X124859047Y-108430952D01*
X124835238Y-108478571D01*
X124811428Y-108502380D01*
X124763809Y-108526190D01*
X124716190Y-108526190D01*
X124668571Y-108502380D01*
X124644761Y-108478571D01*
X124620952Y-108430952D01*
X124597142Y-108335714D01*
X124597142Y-108216666D01*
X124620952Y-108121428D01*
X124644761Y-108073809D01*
X124668571Y-108050000D01*
X124716190Y-108026190D01*
X125311428Y-108192857D02*
X125311428Y-108526190D01*
X125192380Y-108002380D02*
X125073333Y-108359523D01*
X125382857Y-108359523D01*
X119930476Y-116026190D02*
X119763809Y-115788095D01*
X119644761Y-116026190D02*
X119644761Y-115526190D01*
X119835238Y-115526190D01*
X119882857Y-115550000D01*
X119906666Y-115573809D01*
X119930476Y-115621428D01*
X119930476Y-115692857D01*
X119906666Y-115740476D01*
X119882857Y-115764285D01*
X119835238Y-115788095D01*
X119644761Y-115788095D01*
X120097142Y-115526190D02*
X120430476Y-115526190D01*
X120216190Y-116026190D01*
X120716190Y-115526190D02*
X120763809Y-115526190D01*
X120811428Y-115550000D01*
X120835238Y-115573809D01*
X120859047Y-115621428D01*
X120882857Y-115716666D01*
X120882857Y-115835714D01*
X120859047Y-115930952D01*
X120835238Y-115978571D01*
X120811428Y-116002380D01*
X120763809Y-116026190D01*
X120716190Y-116026190D01*
X120668571Y-116002380D01*
X120644761Y-115978571D01*
X120620952Y-115930952D01*
X120597142Y-115835714D01*
X120597142Y-115716666D01*
X120620952Y-115621428D01*
X120644761Y-115573809D01*
X120668571Y-115550000D01*
X120716190Y-115526190D01*
X121335238Y-115526190D02*
X121097142Y-115526190D01*
X121073333Y-115764285D01*
X121097142Y-115740476D01*
X121144761Y-115716666D01*
X121263809Y-115716666D01*
X121311428Y-115740476D01*
X121335238Y-115764285D01*
X121359047Y-115811904D01*
X121359047Y-115930952D01*
X121335238Y-115978571D01*
X121311428Y-116002380D01*
X121263809Y-116026190D01*
X121144761Y-116026190D01*
X121097142Y-116002380D01*
X121073333Y-115978571D01*
X146940476Y-92326190D02*
X146773809Y-92088095D01*
X146654761Y-92326190D02*
X146654761Y-91826190D01*
X146845238Y-91826190D01*
X146892857Y-91850000D01*
X146916666Y-91873809D01*
X146940476Y-91921428D01*
X146940476Y-91992857D01*
X146916666Y-92040476D01*
X146892857Y-92064285D01*
X146845238Y-92088095D01*
X146654761Y-92088095D01*
X147107142Y-91826190D02*
X147440476Y-91826190D01*
X147226190Y-92326190D01*
X147726190Y-91826190D02*
X147773809Y-91826190D01*
X147821428Y-91850000D01*
X147845238Y-91873809D01*
X147869047Y-91921428D01*
X147892857Y-92016666D01*
X147892857Y-92135714D01*
X147869047Y-92230952D01*
X147845238Y-92278571D01*
X147821428Y-92302380D01*
X147773809Y-92326190D01*
X147726190Y-92326190D01*
X147678571Y-92302380D01*
X147654761Y-92278571D01*
X147630952Y-92230952D01*
X147607142Y-92135714D01*
X147607142Y-92016666D01*
X147630952Y-91921428D01*
X147654761Y-91873809D01*
X147678571Y-91850000D01*
X147726190Y-91826190D01*
X148321428Y-91826190D02*
X148226190Y-91826190D01*
X148178571Y-91850000D01*
X148154761Y-91873809D01*
X148107142Y-91945238D01*
X148083333Y-92040476D01*
X148083333Y-92230952D01*
X148107142Y-92278571D01*
X148130952Y-92302380D01*
X148178571Y-92326190D01*
X148273809Y-92326190D01*
X148321428Y-92302380D01*
X148345238Y-92278571D01*
X148369047Y-92230952D01*
X148369047Y-92111904D01*
X148345238Y-92064285D01*
X148321428Y-92040476D01*
X148273809Y-92016666D01*
X148178571Y-92016666D01*
X148130952Y-92040476D01*
X148107142Y-92064285D01*
X148083333Y-92111904D01*
X143940476Y-92326190D02*
X143773809Y-92088095D01*
X143654761Y-92326190D02*
X143654761Y-91826190D01*
X143845238Y-91826190D01*
X143892857Y-91850000D01*
X143916666Y-91873809D01*
X143940476Y-91921428D01*
X143940476Y-91992857D01*
X143916666Y-92040476D01*
X143892857Y-92064285D01*
X143845238Y-92088095D01*
X143654761Y-92088095D01*
X144107142Y-91826190D02*
X144440476Y-91826190D01*
X144226190Y-92326190D01*
X144726190Y-91826190D02*
X144773809Y-91826190D01*
X144821428Y-91850000D01*
X144845238Y-91873809D01*
X144869047Y-91921428D01*
X144892857Y-92016666D01*
X144892857Y-92135714D01*
X144869047Y-92230952D01*
X144845238Y-92278571D01*
X144821428Y-92302380D01*
X144773809Y-92326190D01*
X144726190Y-92326190D01*
X144678571Y-92302380D01*
X144654761Y-92278571D01*
X144630952Y-92230952D01*
X144607142Y-92135714D01*
X144607142Y-92016666D01*
X144630952Y-91921428D01*
X144654761Y-91873809D01*
X144678571Y-91850000D01*
X144726190Y-91826190D01*
X145059523Y-91826190D02*
X145392857Y-91826190D01*
X145178571Y-92326190D01*
X159440476Y-100226190D02*
X159273809Y-99988095D01*
X159154761Y-100226190D02*
X159154761Y-99726190D01*
X159345238Y-99726190D01*
X159392857Y-99750000D01*
X159416666Y-99773809D01*
X159440476Y-99821428D01*
X159440476Y-99892857D01*
X159416666Y-99940476D01*
X159392857Y-99964285D01*
X159345238Y-99988095D01*
X159154761Y-99988095D01*
X159607142Y-99726190D02*
X159940476Y-99726190D01*
X159726190Y-100226190D01*
X160226190Y-99726190D02*
X160273809Y-99726190D01*
X160321428Y-99750000D01*
X160345238Y-99773809D01*
X160369047Y-99821428D01*
X160392857Y-99916666D01*
X160392857Y-100035714D01*
X160369047Y-100130952D01*
X160345238Y-100178571D01*
X160321428Y-100202380D01*
X160273809Y-100226190D01*
X160226190Y-100226190D01*
X160178571Y-100202380D01*
X160154761Y-100178571D01*
X160130952Y-100130952D01*
X160107142Y-100035714D01*
X160107142Y-99916666D01*
X160130952Y-99821428D01*
X160154761Y-99773809D01*
X160178571Y-99750000D01*
X160226190Y-99726190D01*
X160678571Y-99940476D02*
X160630952Y-99916666D01*
X160607142Y-99892857D01*
X160583333Y-99845238D01*
X160583333Y-99821428D01*
X160607142Y-99773809D01*
X160630952Y-99750000D01*
X160678571Y-99726190D01*
X160773809Y-99726190D01*
X160821428Y-99750000D01*
X160845238Y-99773809D01*
X160869047Y-99821428D01*
X160869047Y-99845238D01*
X160845238Y-99892857D01*
X160821428Y-99916666D01*
X160773809Y-99940476D01*
X160678571Y-99940476D01*
X160630952Y-99964285D01*
X160607142Y-99988095D01*
X160583333Y-100035714D01*
X160583333Y-100130952D01*
X160607142Y-100178571D01*
X160630952Y-100202380D01*
X160678571Y-100226190D01*
X160773809Y-100226190D01*
X160821428Y-100202380D01*
X160845238Y-100178571D01*
X160869047Y-100130952D01*
X160869047Y-100035714D01*
X160845238Y-99988095D01*
X160821428Y-99964285D01*
X160773809Y-99940476D01*
X159440476Y-110726190D02*
X159273809Y-110488095D01*
X159154761Y-110726190D02*
X159154761Y-110226190D01*
X159345238Y-110226190D01*
X159392857Y-110250000D01*
X159416666Y-110273809D01*
X159440476Y-110321428D01*
X159440476Y-110392857D01*
X159416666Y-110440476D01*
X159392857Y-110464285D01*
X159345238Y-110488095D01*
X159154761Y-110488095D01*
X159607142Y-110226190D02*
X159940476Y-110226190D01*
X159726190Y-110726190D01*
X160226190Y-110226190D02*
X160273809Y-110226190D01*
X160321428Y-110250000D01*
X160345238Y-110273809D01*
X160369047Y-110321428D01*
X160392857Y-110416666D01*
X160392857Y-110535714D01*
X160369047Y-110630952D01*
X160345238Y-110678571D01*
X160321428Y-110702380D01*
X160273809Y-110726190D01*
X160226190Y-110726190D01*
X160178571Y-110702380D01*
X160154761Y-110678571D01*
X160130952Y-110630952D01*
X160107142Y-110535714D01*
X160107142Y-110416666D01*
X160130952Y-110321428D01*
X160154761Y-110273809D01*
X160178571Y-110250000D01*
X160226190Y-110226190D01*
X160630952Y-110726190D02*
X160726190Y-110726190D01*
X160773809Y-110702380D01*
X160797619Y-110678571D01*
X160845238Y-110607142D01*
X160869047Y-110511904D01*
X160869047Y-110321428D01*
X160845238Y-110273809D01*
X160821428Y-110250000D01*
X160773809Y-110226190D01*
X160678571Y-110226190D01*
X160630952Y-110250000D01*
X160607142Y-110273809D01*
X160583333Y-110321428D01*
X160583333Y-110440476D01*
X160607142Y-110488095D01*
X160630952Y-110511904D01*
X160678571Y-110535714D01*
X160773809Y-110535714D01*
X160821428Y-110511904D01*
X160845238Y-110488095D01*
X160869047Y-110440476D01*
X159440476Y-121226190D02*
X159273809Y-120988095D01*
X159154761Y-121226190D02*
X159154761Y-120726190D01*
X159345238Y-120726190D01*
X159392857Y-120750000D01*
X159416666Y-120773809D01*
X159440476Y-120821428D01*
X159440476Y-120892857D01*
X159416666Y-120940476D01*
X159392857Y-120964285D01*
X159345238Y-120988095D01*
X159154761Y-120988095D01*
X159607142Y-120726190D02*
X159940476Y-120726190D01*
X159726190Y-121226190D01*
X160392857Y-121226190D02*
X160107142Y-121226190D01*
X160250000Y-121226190D02*
X160250000Y-120726190D01*
X160202380Y-120797619D01*
X160154761Y-120845238D01*
X160107142Y-120869047D01*
X160702380Y-120726190D02*
X160750000Y-120726190D01*
X160797619Y-120750000D01*
X160821428Y-120773809D01*
X160845238Y-120821428D01*
X160869047Y-120916666D01*
X160869047Y-121035714D01*
X160845238Y-121130952D01*
X160821428Y-121178571D01*
X160797619Y-121202380D01*
X160750000Y-121226190D01*
X160702380Y-121226190D01*
X160654761Y-121202380D01*
X160630952Y-121178571D01*
X160607142Y-121130952D01*
X160583333Y-121035714D01*
X160583333Y-120916666D01*
X160607142Y-120821428D01*
X160630952Y-120773809D01*
X160654761Y-120750000D01*
X160702380Y-120726190D01*
X159440476Y-131726190D02*
X159273809Y-131488095D01*
X159154761Y-131726190D02*
X159154761Y-131226190D01*
X159345238Y-131226190D01*
X159392857Y-131250000D01*
X159416666Y-131273809D01*
X159440476Y-131321428D01*
X159440476Y-131392857D01*
X159416666Y-131440476D01*
X159392857Y-131464285D01*
X159345238Y-131488095D01*
X159154761Y-131488095D01*
X159607142Y-131226190D02*
X159940476Y-131226190D01*
X159726190Y-131726190D01*
X160392857Y-131726190D02*
X160107142Y-131726190D01*
X160250000Y-131726190D02*
X160250000Y-131226190D01*
X160202380Y-131297619D01*
X160154761Y-131345238D01*
X160107142Y-131369047D01*
X160869047Y-131726190D02*
X160583333Y-131726190D01*
X160726190Y-131726190D02*
X160726190Y-131226190D01*
X160678571Y-131297619D01*
X160630952Y-131345238D01*
X160583333Y-131369047D01*
X159440476Y-107026190D02*
X159273809Y-106788095D01*
X159154761Y-107026190D02*
X159154761Y-106526190D01*
X159345238Y-106526190D01*
X159392857Y-106550000D01*
X159416666Y-106573809D01*
X159440476Y-106621428D01*
X159440476Y-106692857D01*
X159416666Y-106740476D01*
X159392857Y-106764285D01*
X159345238Y-106788095D01*
X159154761Y-106788095D01*
X159607142Y-106526190D02*
X159940476Y-106526190D01*
X159726190Y-107026190D01*
X160392857Y-107026190D02*
X160107142Y-107026190D01*
X160250000Y-107026190D02*
X160250000Y-106526190D01*
X160202380Y-106597619D01*
X160154761Y-106645238D01*
X160107142Y-106669047D01*
X160583333Y-106573809D02*
X160607142Y-106550000D01*
X160654761Y-106526190D01*
X160773809Y-106526190D01*
X160821428Y-106550000D01*
X160845238Y-106573809D01*
X160869047Y-106621428D01*
X160869047Y-106669047D01*
X160845238Y-106740476D01*
X160559523Y-107026190D01*
X160869047Y-107026190D01*
X159440476Y-117526190D02*
X159273809Y-117288095D01*
X159154761Y-117526190D02*
X159154761Y-117026190D01*
X159345238Y-117026190D01*
X159392857Y-117050000D01*
X159416666Y-117073809D01*
X159440476Y-117121428D01*
X159440476Y-117192857D01*
X159416666Y-117240476D01*
X159392857Y-117264285D01*
X159345238Y-117288095D01*
X159154761Y-117288095D01*
X159607142Y-117026190D02*
X159940476Y-117026190D01*
X159726190Y-117526190D01*
X160392857Y-117526190D02*
X160107142Y-117526190D01*
X160250000Y-117526190D02*
X160250000Y-117026190D01*
X160202380Y-117097619D01*
X160154761Y-117145238D01*
X160107142Y-117169047D01*
X160559523Y-117026190D02*
X160869047Y-117026190D01*
X160702380Y-117216666D01*
X160773809Y-117216666D01*
X160821428Y-117240476D01*
X160845238Y-117264285D01*
X160869047Y-117311904D01*
X160869047Y-117430952D01*
X160845238Y-117478571D01*
X160821428Y-117502380D01*
X160773809Y-117526190D01*
X160630952Y-117526190D01*
X160583333Y-117502380D01*
X160559523Y-117478571D01*
X159440476Y-128026190D02*
X159273809Y-127788095D01*
X159154761Y-128026190D02*
X159154761Y-127526190D01*
X159345238Y-127526190D01*
X159392857Y-127550000D01*
X159416666Y-127573809D01*
X159440476Y-127621428D01*
X159440476Y-127692857D01*
X159416666Y-127740476D01*
X159392857Y-127764285D01*
X159345238Y-127788095D01*
X159154761Y-127788095D01*
X159607142Y-127526190D02*
X159940476Y-127526190D01*
X159726190Y-128026190D01*
X160392857Y-128026190D02*
X160107142Y-128026190D01*
X160250000Y-128026190D02*
X160250000Y-127526190D01*
X160202380Y-127597619D01*
X160154761Y-127645238D01*
X160107142Y-127669047D01*
X160821428Y-127692857D02*
X160821428Y-128026190D01*
X160702380Y-127502380D02*
X160583333Y-127859523D01*
X160892857Y-127859523D01*
X159440476Y-138526190D02*
X159273809Y-138288095D01*
X159154761Y-138526190D02*
X159154761Y-138026190D01*
X159345238Y-138026190D01*
X159392857Y-138050000D01*
X159416666Y-138073809D01*
X159440476Y-138121428D01*
X159440476Y-138192857D01*
X159416666Y-138240476D01*
X159392857Y-138264285D01*
X159345238Y-138288095D01*
X159154761Y-138288095D01*
X159607142Y-138026190D02*
X159940476Y-138026190D01*
X159726190Y-138526190D01*
X160392857Y-138526190D02*
X160107142Y-138526190D01*
X160250000Y-138526190D02*
X160250000Y-138026190D01*
X160202380Y-138097619D01*
X160154761Y-138145238D01*
X160107142Y-138169047D01*
X160845238Y-138026190D02*
X160607142Y-138026190D01*
X160583333Y-138264285D01*
X160607142Y-138240476D01*
X160654761Y-138216666D01*
X160773809Y-138216666D01*
X160821428Y-138240476D01*
X160845238Y-138264285D01*
X160869047Y-138311904D01*
X160869047Y-138430952D01*
X160845238Y-138478571D01*
X160821428Y-138502380D01*
X160773809Y-138526190D01*
X160654761Y-138526190D01*
X160607142Y-138502380D01*
X160583333Y-138478571D01*
X166440476Y-100226190D02*
X166273809Y-99988095D01*
X166154761Y-100226190D02*
X166154761Y-99726190D01*
X166345238Y-99726190D01*
X166392857Y-99750000D01*
X166416666Y-99773809D01*
X166440476Y-99821428D01*
X166440476Y-99892857D01*
X166416666Y-99940476D01*
X166392857Y-99964285D01*
X166345238Y-99988095D01*
X166154761Y-99988095D01*
X166607142Y-99726190D02*
X166940476Y-99726190D01*
X166726190Y-100226190D01*
X167392857Y-100226190D02*
X167107142Y-100226190D01*
X167250000Y-100226190D02*
X167250000Y-99726190D01*
X167202380Y-99797619D01*
X167154761Y-99845238D01*
X167107142Y-99869047D01*
X167821428Y-99726190D02*
X167726190Y-99726190D01*
X167678571Y-99750000D01*
X167654761Y-99773809D01*
X167607142Y-99845238D01*
X167583333Y-99940476D01*
X167583333Y-100130952D01*
X167607142Y-100178571D01*
X167630952Y-100202380D01*
X167678571Y-100226190D01*
X167773809Y-100226190D01*
X167821428Y-100202380D01*
X167845238Y-100178571D01*
X167869047Y-100130952D01*
X167869047Y-100011904D01*
X167845238Y-99964285D01*
X167821428Y-99940476D01*
X167773809Y-99916666D01*
X167678571Y-99916666D01*
X167630952Y-99940476D01*
X167607142Y-99964285D01*
X167583333Y-100011904D01*
X166440476Y-110726190D02*
X166273809Y-110488095D01*
X166154761Y-110726190D02*
X166154761Y-110226190D01*
X166345238Y-110226190D01*
X166392857Y-110250000D01*
X166416666Y-110273809D01*
X166440476Y-110321428D01*
X166440476Y-110392857D01*
X166416666Y-110440476D01*
X166392857Y-110464285D01*
X166345238Y-110488095D01*
X166154761Y-110488095D01*
X166607142Y-110226190D02*
X166940476Y-110226190D01*
X166726190Y-110726190D01*
X167392857Y-110726190D02*
X167107142Y-110726190D01*
X167250000Y-110726190D02*
X167250000Y-110226190D01*
X167202380Y-110297619D01*
X167154761Y-110345238D01*
X167107142Y-110369047D01*
X167559523Y-110226190D02*
X167892857Y-110226190D01*
X167678571Y-110726190D01*
X166440476Y-121226190D02*
X166273809Y-120988095D01*
X166154761Y-121226190D02*
X166154761Y-120726190D01*
X166345238Y-120726190D01*
X166392857Y-120750000D01*
X166416666Y-120773809D01*
X166440476Y-120821428D01*
X166440476Y-120892857D01*
X166416666Y-120940476D01*
X166392857Y-120964285D01*
X166345238Y-120988095D01*
X166154761Y-120988095D01*
X166607142Y-120726190D02*
X166940476Y-120726190D01*
X166726190Y-121226190D01*
X167392857Y-121226190D02*
X167107142Y-121226190D01*
X167250000Y-121226190D02*
X167250000Y-120726190D01*
X167202380Y-120797619D01*
X167154761Y-120845238D01*
X167107142Y-120869047D01*
X167678571Y-120940476D02*
X167630952Y-120916666D01*
X167607142Y-120892857D01*
X167583333Y-120845238D01*
X167583333Y-120821428D01*
X167607142Y-120773809D01*
X167630952Y-120750000D01*
X167678571Y-120726190D01*
X167773809Y-120726190D01*
X167821428Y-120750000D01*
X167845238Y-120773809D01*
X167869047Y-120821428D01*
X167869047Y-120845238D01*
X167845238Y-120892857D01*
X167821428Y-120916666D01*
X167773809Y-120940476D01*
X167678571Y-120940476D01*
X167630952Y-120964285D01*
X167607142Y-120988095D01*
X167583333Y-121035714D01*
X167583333Y-121130952D01*
X167607142Y-121178571D01*
X167630952Y-121202380D01*
X167678571Y-121226190D01*
X167773809Y-121226190D01*
X167821428Y-121202380D01*
X167845238Y-121178571D01*
X167869047Y-121130952D01*
X167869047Y-121035714D01*
X167845238Y-120988095D01*
X167821428Y-120964285D01*
X167773809Y-120940476D01*
X166440476Y-131726190D02*
X166273809Y-131488095D01*
X166154761Y-131726190D02*
X166154761Y-131226190D01*
X166345238Y-131226190D01*
X166392857Y-131250000D01*
X166416666Y-131273809D01*
X166440476Y-131321428D01*
X166440476Y-131392857D01*
X166416666Y-131440476D01*
X166392857Y-131464285D01*
X166345238Y-131488095D01*
X166154761Y-131488095D01*
X166607142Y-131226190D02*
X166940476Y-131226190D01*
X166726190Y-131726190D01*
X167392857Y-131726190D02*
X167107142Y-131726190D01*
X167250000Y-131726190D02*
X167250000Y-131226190D01*
X167202380Y-131297619D01*
X167154761Y-131345238D01*
X167107142Y-131369047D01*
X167630952Y-131726190D02*
X167726190Y-131726190D01*
X167773809Y-131702380D01*
X167797619Y-131678571D01*
X167845238Y-131607142D01*
X167869047Y-131511904D01*
X167869047Y-131321428D01*
X167845238Y-131273809D01*
X167821428Y-131250000D01*
X167773809Y-131226190D01*
X167678571Y-131226190D01*
X167630952Y-131250000D01*
X167607142Y-131273809D01*
X167583333Y-131321428D01*
X167583333Y-131440476D01*
X167607142Y-131488095D01*
X167630952Y-131511904D01*
X167678571Y-131535714D01*
X167773809Y-131535714D01*
X167821428Y-131511904D01*
X167845238Y-131488095D01*
X167869047Y-131440476D01*
X166440476Y-107026190D02*
X166273809Y-106788095D01*
X166154761Y-107026190D02*
X166154761Y-106526190D01*
X166345238Y-106526190D01*
X166392857Y-106550000D01*
X166416666Y-106573809D01*
X166440476Y-106621428D01*
X166440476Y-106692857D01*
X166416666Y-106740476D01*
X166392857Y-106764285D01*
X166345238Y-106788095D01*
X166154761Y-106788095D01*
X166607142Y-106526190D02*
X166940476Y-106526190D01*
X166726190Y-107026190D01*
X167107142Y-106573809D02*
X167130952Y-106550000D01*
X167178571Y-106526190D01*
X167297619Y-106526190D01*
X167345238Y-106550000D01*
X167369047Y-106573809D01*
X167392857Y-106621428D01*
X167392857Y-106669047D01*
X167369047Y-106740476D01*
X167083333Y-107026190D01*
X167392857Y-107026190D01*
X167702380Y-106526190D02*
X167750000Y-106526190D01*
X167797619Y-106550000D01*
X167821428Y-106573809D01*
X167845238Y-106621428D01*
X167869047Y-106716666D01*
X167869047Y-106835714D01*
X167845238Y-106930952D01*
X167821428Y-106978571D01*
X167797619Y-107002380D01*
X167750000Y-107026190D01*
X167702380Y-107026190D01*
X167654761Y-107002380D01*
X167630952Y-106978571D01*
X167607142Y-106930952D01*
X167583333Y-106835714D01*
X167583333Y-106716666D01*
X167607142Y-106621428D01*
X167630952Y-106573809D01*
X167654761Y-106550000D01*
X167702380Y-106526190D01*
X166440476Y-117526190D02*
X166273809Y-117288095D01*
X166154761Y-117526190D02*
X166154761Y-117026190D01*
X166345238Y-117026190D01*
X166392857Y-117050000D01*
X166416666Y-117073809D01*
X166440476Y-117121428D01*
X166440476Y-117192857D01*
X166416666Y-117240476D01*
X166392857Y-117264285D01*
X166345238Y-117288095D01*
X166154761Y-117288095D01*
X166607142Y-117026190D02*
X166940476Y-117026190D01*
X166726190Y-117526190D01*
X167107142Y-117073809D02*
X167130952Y-117050000D01*
X167178571Y-117026190D01*
X167297619Y-117026190D01*
X167345238Y-117050000D01*
X167369047Y-117073809D01*
X167392857Y-117121428D01*
X167392857Y-117169047D01*
X167369047Y-117240476D01*
X167083333Y-117526190D01*
X167392857Y-117526190D01*
X167869047Y-117526190D02*
X167583333Y-117526190D01*
X167726190Y-117526190D02*
X167726190Y-117026190D01*
X167678571Y-117097619D01*
X167630952Y-117145238D01*
X167583333Y-117169047D01*
X166440476Y-128026190D02*
X166273809Y-127788095D01*
X166154761Y-128026190D02*
X166154761Y-127526190D01*
X166345238Y-127526190D01*
X166392857Y-127550000D01*
X166416666Y-127573809D01*
X166440476Y-127621428D01*
X166440476Y-127692857D01*
X166416666Y-127740476D01*
X166392857Y-127764285D01*
X166345238Y-127788095D01*
X166154761Y-127788095D01*
X166607142Y-127526190D02*
X166940476Y-127526190D01*
X166726190Y-128026190D01*
X167107142Y-127573809D02*
X167130952Y-127550000D01*
X167178571Y-127526190D01*
X167297619Y-127526190D01*
X167345238Y-127550000D01*
X167369047Y-127573809D01*
X167392857Y-127621428D01*
X167392857Y-127669047D01*
X167369047Y-127740476D01*
X167083333Y-128026190D01*
X167392857Y-128026190D01*
X167583333Y-127573809D02*
X167607142Y-127550000D01*
X167654761Y-127526190D01*
X167773809Y-127526190D01*
X167821428Y-127550000D01*
X167845238Y-127573809D01*
X167869047Y-127621428D01*
X167869047Y-127669047D01*
X167845238Y-127740476D01*
X167559523Y-128026190D01*
X167869047Y-128026190D01*
X166440476Y-138526190D02*
X166273809Y-138288095D01*
X166154761Y-138526190D02*
X166154761Y-138026190D01*
X166345238Y-138026190D01*
X166392857Y-138050000D01*
X166416666Y-138073809D01*
X166440476Y-138121428D01*
X166440476Y-138192857D01*
X166416666Y-138240476D01*
X166392857Y-138264285D01*
X166345238Y-138288095D01*
X166154761Y-138288095D01*
X166607142Y-138026190D02*
X166940476Y-138026190D01*
X166726190Y-138526190D01*
X167107142Y-138073809D02*
X167130952Y-138050000D01*
X167178571Y-138026190D01*
X167297619Y-138026190D01*
X167345238Y-138050000D01*
X167369047Y-138073809D01*
X167392857Y-138121428D01*
X167392857Y-138169047D01*
X167369047Y-138240476D01*
X167083333Y-138526190D01*
X167392857Y-138526190D01*
X167559523Y-138026190D02*
X167869047Y-138026190D01*
X167702380Y-138216666D01*
X167773809Y-138216666D01*
X167821428Y-138240476D01*
X167845238Y-138264285D01*
X167869047Y-138311904D01*
X167869047Y-138430952D01*
X167845238Y-138478571D01*
X167821428Y-138502380D01*
X167773809Y-138526190D01*
X167630952Y-138526190D01*
X167583333Y-138502380D01*
X167559523Y-138478571D01*
X121740476Y-104526190D02*
X121573809Y-104288095D01*
X121454761Y-104526190D02*
X121454761Y-104026190D01*
X121645238Y-104026190D01*
X121692857Y-104050000D01*
X121716666Y-104073809D01*
X121740476Y-104121428D01*
X121740476Y-104192857D01*
X121716666Y-104240476D01*
X121692857Y-104264285D01*
X121645238Y-104288095D01*
X121454761Y-104288095D01*
X121907142Y-104026190D02*
X122240476Y-104026190D01*
X122026190Y-104526190D01*
X122407142Y-104073809D02*
X122430952Y-104050000D01*
X122478571Y-104026190D01*
X122597619Y-104026190D01*
X122645238Y-104050000D01*
X122669047Y-104073809D01*
X122692857Y-104121428D01*
X122692857Y-104169047D01*
X122669047Y-104240476D01*
X122383333Y-104526190D01*
X122692857Y-104526190D01*
X123121428Y-104192857D02*
X123121428Y-104526190D01*
X123002380Y-104002380D02*
X122883333Y-104359523D01*
X123192857Y-104359523D01*
X132640476Y-106126190D02*
X132473809Y-105888095D01*
X132354761Y-106126190D02*
X132354761Y-105626190D01*
X132545238Y-105626190D01*
X132592857Y-105650000D01*
X132616666Y-105673809D01*
X132640476Y-105721428D01*
X132640476Y-105792857D01*
X132616666Y-105840476D01*
X132592857Y-105864285D01*
X132545238Y-105888095D01*
X132354761Y-105888095D01*
X132807142Y-105626190D02*
X133140476Y-105626190D01*
X132926190Y-106126190D01*
X133307142Y-105673809D02*
X133330952Y-105650000D01*
X133378571Y-105626190D01*
X133497619Y-105626190D01*
X133545238Y-105650000D01*
X133569047Y-105673809D01*
X133592857Y-105721428D01*
X133592857Y-105769047D01*
X133569047Y-105840476D01*
X133283333Y-106126190D01*
X133592857Y-106126190D01*
X134045238Y-105626190D02*
X133807142Y-105626190D01*
X133783333Y-105864285D01*
X133807142Y-105840476D01*
X133854761Y-105816666D01*
X133973809Y-105816666D01*
X134021428Y-105840476D01*
X134045238Y-105864285D01*
X134069047Y-105911904D01*
X134069047Y-106030952D01*
X134045238Y-106078571D01*
X134021428Y-106102380D01*
X133973809Y-106126190D01*
X133854761Y-106126190D01*
X133807142Y-106102380D01*
X133783333Y-106078571D01*
X132640476Y-99526190D02*
X132473809Y-99288095D01*
X132354761Y-99526190D02*
X132354761Y-99026190D01*
X132545238Y-99026190D01*
X132592857Y-99050000D01*
X132616666Y-99073809D01*
X132640476Y-99121428D01*
X132640476Y-99192857D01*
X132616666Y-99240476D01*
X132592857Y-99264285D01*
X132545238Y-99288095D01*
X132354761Y-99288095D01*
X132807142Y-99026190D02*
X133140476Y-99026190D01*
X132926190Y-99526190D01*
X133307142Y-99073809D02*
X133330952Y-99050000D01*
X133378571Y-99026190D01*
X133497619Y-99026190D01*
X133545238Y-99050000D01*
X133569047Y-99073809D01*
X133592857Y-99121428D01*
X133592857Y-99169047D01*
X133569047Y-99240476D01*
X133283333Y-99526190D01*
X133592857Y-99526190D01*
X134021428Y-99026190D02*
X133926190Y-99026190D01*
X133878571Y-99050000D01*
X133854761Y-99073809D01*
X133807142Y-99145238D01*
X133783333Y-99240476D01*
X133783333Y-99430952D01*
X133807142Y-99478571D01*
X133830952Y-99502380D01*
X133878571Y-99526190D01*
X133973809Y-99526190D01*
X134021428Y-99502380D01*
X134045238Y-99478571D01*
X134069047Y-99430952D01*
X134069047Y-99311904D01*
X134045238Y-99264285D01*
X134021428Y-99240476D01*
X133973809Y-99216666D01*
X133878571Y-99216666D01*
X133830952Y-99240476D01*
X133807142Y-99264285D01*
X133783333Y-99311904D01*
X154526190Y-137359523D02*
X154288095Y-137526190D01*
X154526190Y-137645238D02*
X154026190Y-137645238D01*
X154026190Y-137454761D01*
X154050000Y-137407142D01*
X154073809Y-137383333D01*
X154121428Y-137359523D01*
X154192857Y-137359523D01*
X154240476Y-137383333D01*
X154264285Y-137407142D01*
X154288095Y-137454761D01*
X154288095Y-137645238D01*
X154026190Y-137192857D02*
X154026190Y-136859523D01*
X154526190Y-137073809D01*
X154073809Y-136692857D02*
X154050000Y-136669047D01*
X154026190Y-136621428D01*
X154026190Y-136502380D01*
X154050000Y-136454761D01*
X154073809Y-136430952D01*
X154121428Y-136407142D01*
X154169047Y-136407142D01*
X154240476Y-136430952D01*
X154526190Y-136716666D01*
X154526190Y-136407142D01*
X154026190Y-136240476D02*
X154026190Y-135907142D01*
X154526190Y-136121428D01*
X151540476Y-113626190D02*
X151373809Y-113388095D01*
X151254761Y-113626190D02*
X151254761Y-113126190D01*
X151445238Y-113126190D01*
X151492857Y-113150000D01*
X151516666Y-113173809D01*
X151540476Y-113221428D01*
X151540476Y-113292857D01*
X151516666Y-113340476D01*
X151492857Y-113364285D01*
X151445238Y-113388095D01*
X151254761Y-113388095D01*
X151707142Y-113126190D02*
X152040476Y-113126190D01*
X151826190Y-113626190D01*
X152207142Y-113173809D02*
X152230952Y-113150000D01*
X152278571Y-113126190D01*
X152397619Y-113126190D01*
X152445238Y-113150000D01*
X152469047Y-113173809D01*
X152492857Y-113221428D01*
X152492857Y-113269047D01*
X152469047Y-113340476D01*
X152183333Y-113626190D01*
X152492857Y-113626190D01*
X152778571Y-113340476D02*
X152730952Y-113316666D01*
X152707142Y-113292857D01*
X152683333Y-113245238D01*
X152683333Y-113221428D01*
X152707142Y-113173809D01*
X152730952Y-113150000D01*
X152778571Y-113126190D01*
X152873809Y-113126190D01*
X152921428Y-113150000D01*
X152945238Y-113173809D01*
X152969047Y-113221428D01*
X152969047Y-113245238D01*
X152945238Y-113292857D01*
X152921428Y-113316666D01*
X152873809Y-113340476D01*
X152778571Y-113340476D01*
X152730952Y-113364285D01*
X152707142Y-113388095D01*
X152683333Y-113435714D01*
X152683333Y-113530952D01*
X152707142Y-113578571D01*
X152730952Y-113602380D01*
X152778571Y-113626190D01*
X152873809Y-113626190D01*
X152921428Y-113602380D01*
X152945238Y-113578571D01*
X152969047Y-113530952D01*
X152969047Y-113435714D01*
X152945238Y-113388095D01*
X152921428Y-113364285D01*
X152873809Y-113340476D01*
X146940476Y-113626190D02*
X146773809Y-113388095D01*
X146654761Y-113626190D02*
X146654761Y-113126190D01*
X146845238Y-113126190D01*
X146892857Y-113150000D01*
X146916666Y-113173809D01*
X146940476Y-113221428D01*
X146940476Y-113292857D01*
X146916666Y-113340476D01*
X146892857Y-113364285D01*
X146845238Y-113388095D01*
X146654761Y-113388095D01*
X147107142Y-113126190D02*
X147440476Y-113126190D01*
X147226190Y-113626190D01*
X147607142Y-113173809D02*
X147630952Y-113150000D01*
X147678571Y-113126190D01*
X147797619Y-113126190D01*
X147845238Y-113150000D01*
X147869047Y-113173809D01*
X147892857Y-113221428D01*
X147892857Y-113269047D01*
X147869047Y-113340476D01*
X147583333Y-113626190D01*
X147892857Y-113626190D01*
X148130952Y-113626190D02*
X148226190Y-113626190D01*
X148273809Y-113602380D01*
X148297619Y-113578571D01*
X148345238Y-113507142D01*
X148369047Y-113411904D01*
X148369047Y-113221428D01*
X148345238Y-113173809D01*
X148321428Y-113150000D01*
X148273809Y-113126190D01*
X148178571Y-113126190D01*
X148130952Y-113150000D01*
X148107142Y-113173809D01*
X148083333Y-113221428D01*
X148083333Y-113340476D01*
X148107142Y-113388095D01*
X148130952Y-113411904D01*
X148178571Y-113435714D01*
X148273809Y-113435714D01*
X148321428Y-113411904D01*
X148345238Y-113388095D01*
X148369047Y-113340476D01*
X143940476Y-113626190D02*
X143773809Y-113388095D01*
X143654761Y-113626190D02*
X143654761Y-113126190D01*
X143845238Y-113126190D01*
X143892857Y-113150000D01*
X143916666Y-113173809D01*
X143940476Y-113221428D01*
X143940476Y-113292857D01*
X143916666Y-113340476D01*
X143892857Y-113364285D01*
X143845238Y-113388095D01*
X143654761Y-113388095D01*
X144107142Y-113126190D02*
X144440476Y-113126190D01*
X144226190Y-113626190D01*
X144583333Y-113126190D02*
X144892857Y-113126190D01*
X144726190Y-113316666D01*
X144797619Y-113316666D01*
X144845238Y-113340476D01*
X144869047Y-113364285D01*
X144892857Y-113411904D01*
X144892857Y-113530952D01*
X144869047Y-113578571D01*
X144845238Y-113602380D01*
X144797619Y-113626190D01*
X144654761Y-113626190D01*
X144607142Y-113602380D01*
X144583333Y-113578571D01*
X145202380Y-113126190D02*
X145250000Y-113126190D01*
X145297619Y-113150000D01*
X145321428Y-113173809D01*
X145345238Y-113221428D01*
X145369047Y-113316666D01*
X145369047Y-113435714D01*
X145345238Y-113530952D01*
X145321428Y-113578571D01*
X145297619Y-113602380D01*
X145250000Y-113626190D01*
X145202380Y-113626190D01*
X145154761Y-113602380D01*
X145130952Y-113578571D01*
X145107142Y-113530952D01*
X145083333Y-113435714D01*
X145083333Y-113316666D01*
X145107142Y-113221428D01*
X145130952Y-113173809D01*
X145154761Y-113150000D01*
X145202380Y-113126190D01*
X150126190Y-119059523D02*
X149888095Y-119226190D01*
X150126190Y-119345238D02*
X149626190Y-119345238D01*
X149626190Y-119154761D01*
X149650000Y-119107142D01*
X149673809Y-119083333D01*
X149721428Y-119059523D01*
X149792857Y-119059523D01*
X149840476Y-119083333D01*
X149864285Y-119107142D01*
X149888095Y-119154761D01*
X149888095Y-119345238D01*
X149626190Y-118892857D02*
X149626190Y-118559523D01*
X150126190Y-118773809D01*
X149626190Y-118416666D02*
X149626190Y-118107142D01*
X149816666Y-118273809D01*
X149816666Y-118202380D01*
X149840476Y-118154761D01*
X149864285Y-118130952D01*
X149911904Y-118107142D01*
X150030952Y-118107142D01*
X150078571Y-118130952D01*
X150102380Y-118154761D01*
X150126190Y-118202380D01*
X150126190Y-118345238D01*
X150102380Y-118392857D01*
X150078571Y-118416666D01*
X150126190Y-117630952D02*
X150126190Y-117916666D01*
X150126190Y-117773809D02*
X149626190Y-117773809D01*
X149697619Y-117821428D01*
X149745238Y-117869047D01*
X149769047Y-117916666D01*
X154526190Y-119059523D02*
X154288095Y-119226190D01*
X154526190Y-119345238D02*
X154026190Y-119345238D01*
X154026190Y-119154761D01*
X154050000Y-119107142D01*
X154073809Y-119083333D01*
X154121428Y-119059523D01*
X154192857Y-119059523D01*
X154240476Y-119083333D01*
X154264285Y-119107142D01*
X154288095Y-119154761D01*
X154288095Y-119345238D01*
X154026190Y-118892857D02*
X154026190Y-118559523D01*
X154526190Y-118773809D01*
X154026190Y-118416666D02*
X154026190Y-118107142D01*
X154216666Y-118273809D01*
X154216666Y-118202380D01*
X154240476Y-118154761D01*
X154264285Y-118130952D01*
X154311904Y-118107142D01*
X154430952Y-118107142D01*
X154478571Y-118130952D01*
X154502380Y-118154761D01*
X154526190Y-118202380D01*
X154526190Y-118345238D01*
X154502380Y-118392857D01*
X154478571Y-118416666D01*
X154073809Y-117916666D02*
X154050000Y-117892857D01*
X154026190Y-117845238D01*
X154026190Y-117726190D01*
X154050000Y-117678571D01*
X154073809Y-117654761D01*
X154121428Y-117630952D01*
X154169047Y-117630952D01*
X154240476Y-117654761D01*
X154526190Y-117940476D01*
X154526190Y-117630952D01*
X142285714Y-108838095D02*
X142285714Y-109076190D01*
X142119047Y-108576190D02*
X142285714Y-108838095D01*
X142452380Y-108576190D01*
X142642857Y-109076190D02*
X142738095Y-109076190D01*
X142785714Y-109052380D01*
X142809523Y-109028571D01*
X142857142Y-108957142D01*
X142880952Y-108861904D01*
X142880952Y-108671428D01*
X142857142Y-108623809D01*
X142833333Y-108600000D01*
X142785714Y-108576190D01*
X142690476Y-108576190D01*
X142642857Y-108600000D01*
X142619047Y-108623809D01*
X142595238Y-108671428D01*
X142595238Y-108790476D01*
X142619047Y-108838095D01*
X142642857Y-108861904D01*
X142690476Y-108885714D01*
X142785714Y-108885714D01*
X142833333Y-108861904D01*
X142857142Y-108838095D01*
X142880952Y-108790476D01*
X143190476Y-108576190D02*
X143238095Y-108576190D01*
X143285714Y-108600000D01*
X143309523Y-108623809D01*
X143333333Y-108671428D01*
X143357142Y-108766666D01*
X143357142Y-108885714D01*
X143333333Y-108980952D01*
X143309523Y-109028571D01*
X143285714Y-109052380D01*
X143238095Y-109076190D01*
X143190476Y-109076190D01*
X143142857Y-109052380D01*
X143119047Y-109028571D01*
X143095238Y-108980952D01*
X143071428Y-108885714D01*
X143071428Y-108766666D01*
X143095238Y-108671428D01*
X143119047Y-108623809D01*
X143142857Y-108600000D01*
X143190476Y-108576190D01*
X143833333Y-109076190D02*
X143547619Y-109076190D01*
X143690476Y-109076190D02*
X143690476Y-108576190D01*
X143642857Y-108647619D01*
X143595238Y-108695238D01*
X143547619Y-108719047D01*
D11*
X132810714Y-112552380D02*
X132810714Y-113361904D01*
X132858333Y-113457142D01*
X132905952Y-113504761D01*
X133001190Y-113552380D01*
X133191666Y-113552380D01*
X133286904Y-113504761D01*
X133334523Y-113457142D01*
X133382142Y-113361904D01*
X133382142Y-112552380D01*
X134382142Y-113552380D02*
X133810714Y-113552380D01*
X134096428Y-113552380D02*
X134096428Y-112552380D01*
X134001190Y-112695238D01*
X133905952Y-112790476D01*
X133810714Y-112838095D01*
X135001190Y-112552380D02*
X135096428Y-112552380D01*
X135191666Y-112600000D01*
X135239285Y-112647619D01*
X135286904Y-112742857D01*
X135334523Y-112933333D01*
X135334523Y-113171428D01*
X135286904Y-113361904D01*
X135239285Y-113457142D01*
X135191666Y-113504761D01*
X135096428Y-113552380D01*
X135001190Y-113552380D01*
X134905952Y-113504761D01*
X134858333Y-113457142D01*
X134810714Y-113361904D01*
X134763095Y-113171428D01*
X134763095Y-112933333D01*
X134810714Y-112742857D01*
X134858333Y-112647619D01*
X134905952Y-112600000D01*
X135001190Y-112552380D01*
X136191666Y-112552380D02*
X136001190Y-112552380D01*
X135905952Y-112600000D01*
X135858333Y-112647619D01*
X135763095Y-112790476D01*
X135715476Y-112980952D01*
X135715476Y-113361904D01*
X135763095Y-113457142D01*
X135810714Y-113504761D01*
X135905952Y-113552380D01*
X136096428Y-113552380D01*
X136191666Y-113504761D01*
X136239285Y-113457142D01*
X136286904Y-113361904D01*
X136286904Y-113123809D01*
X136239285Y-113028571D01*
X136191666Y-112980952D01*
X136096428Y-112933333D01*
X135905952Y-112933333D01*
X135810714Y-112980952D01*
X135763095Y-113028571D01*
X135715476Y-113123809D01*
X161785714Y-91652380D02*
X161785714Y-92461904D01*
X161833333Y-92557142D01*
X161880952Y-92604761D01*
X161976190Y-92652380D01*
X162166666Y-92652380D01*
X162261904Y-92604761D01*
X162309523Y-92557142D01*
X162357142Y-92461904D01*
X162357142Y-91652380D01*
X163357142Y-92652380D02*
X162785714Y-92652380D01*
X163071428Y-92652380D02*
X163071428Y-91652380D01*
X162976190Y-91795238D01*
X162880952Y-91890476D01*
X162785714Y-91938095D01*
X163976190Y-91652380D02*
X164071428Y-91652380D01*
X164166666Y-91700000D01*
X164214285Y-91747619D01*
X164261904Y-91842857D01*
X164309523Y-92033333D01*
X164309523Y-92271428D01*
X164261904Y-92461904D01*
X164214285Y-92557142D01*
X164166666Y-92604761D01*
X164071428Y-92652380D01*
X163976190Y-92652380D01*
X163880952Y-92604761D01*
X163833333Y-92557142D01*
X163785714Y-92461904D01*
X163738095Y-92271428D01*
X163738095Y-92033333D01*
X163785714Y-91842857D01*
X163833333Y-91747619D01*
X163880952Y-91700000D01*
X163976190Y-91652380D01*
X164642857Y-91652380D02*
X165309523Y-91652380D01*
X164880952Y-92652380D01*
D17*
X166440476Y-92678571D02*
X166416666Y-92702380D01*
X166345238Y-92726190D01*
X166297619Y-92726190D01*
X166226190Y-92702380D01*
X166178571Y-92654761D01*
X166154761Y-92607142D01*
X166130952Y-92511904D01*
X166130952Y-92440476D01*
X166154761Y-92345238D01*
X166178571Y-92297619D01*
X166226190Y-92250000D01*
X166297619Y-92226190D01*
X166345238Y-92226190D01*
X166416666Y-92250000D01*
X166440476Y-92273809D01*
X166726190Y-92440476D02*
X166678571Y-92416666D01*
X166654761Y-92392857D01*
X166630952Y-92345238D01*
X166630952Y-92321428D01*
X166654761Y-92273809D01*
X166678571Y-92250000D01*
X166726190Y-92226190D01*
X166821428Y-92226190D01*
X166869047Y-92250000D01*
X166892857Y-92273809D01*
X166916666Y-92321428D01*
X166916666Y-92345238D01*
X166892857Y-92392857D01*
X166869047Y-92416666D01*
X166821428Y-92440476D01*
X166726190Y-92440476D01*
X166678571Y-92464285D01*
X166654761Y-92488095D01*
X166630952Y-92535714D01*
X166630952Y-92630952D01*
X166654761Y-92678571D01*
X166678571Y-92702380D01*
X166726190Y-92726190D01*
X166821428Y-92726190D01*
X166869047Y-92702380D01*
X166892857Y-92678571D01*
X166916666Y-92630952D01*
X166916666Y-92535714D01*
X166892857Y-92488095D01*
X166869047Y-92464285D01*
X166821428Y-92440476D01*
X167392857Y-92726190D02*
X167107142Y-92726190D01*
X167250000Y-92726190D02*
X167250000Y-92226190D01*
X167202380Y-92297619D01*
X167154761Y-92345238D01*
X167107142Y-92369047D01*
X167821428Y-92392857D02*
X167821428Y-92726190D01*
X167702380Y-92202380D02*
X167583333Y-92559523D01*
X167892857Y-92559523D01*
X159440476Y-92678571D02*
X159416666Y-92702380D01*
X159345238Y-92726190D01*
X159297619Y-92726190D01*
X159226190Y-92702380D01*
X159178571Y-92654761D01*
X159154761Y-92607142D01*
X159130952Y-92511904D01*
X159130952Y-92440476D01*
X159154761Y-92345238D01*
X159178571Y-92297619D01*
X159226190Y-92250000D01*
X159297619Y-92226190D01*
X159345238Y-92226190D01*
X159416666Y-92250000D01*
X159440476Y-92273809D01*
X159726190Y-92440476D02*
X159678571Y-92416666D01*
X159654761Y-92392857D01*
X159630952Y-92345238D01*
X159630952Y-92321428D01*
X159654761Y-92273809D01*
X159678571Y-92250000D01*
X159726190Y-92226190D01*
X159821428Y-92226190D01*
X159869047Y-92250000D01*
X159892857Y-92273809D01*
X159916666Y-92321428D01*
X159916666Y-92345238D01*
X159892857Y-92392857D01*
X159869047Y-92416666D01*
X159821428Y-92440476D01*
X159726190Y-92440476D01*
X159678571Y-92464285D01*
X159654761Y-92488095D01*
X159630952Y-92535714D01*
X159630952Y-92630952D01*
X159654761Y-92678571D01*
X159678571Y-92702380D01*
X159726190Y-92726190D01*
X159821428Y-92726190D01*
X159869047Y-92702380D01*
X159892857Y-92678571D01*
X159916666Y-92630952D01*
X159916666Y-92535714D01*
X159892857Y-92488095D01*
X159869047Y-92464285D01*
X159821428Y-92440476D01*
X160392857Y-92726190D02*
X160107142Y-92726190D01*
X160250000Y-92726190D02*
X160250000Y-92226190D01*
X160202380Y-92297619D01*
X160154761Y-92345238D01*
X160107142Y-92369047D01*
X160845238Y-92226190D02*
X160607142Y-92226190D01*
X160583333Y-92464285D01*
X160607142Y-92440476D01*
X160654761Y-92416666D01*
X160773809Y-92416666D01*
X160821428Y-92440476D01*
X160845238Y-92464285D01*
X160869047Y-92511904D01*
X160869047Y-92630952D01*
X160845238Y-92678571D01*
X160821428Y-92702380D01*
X160773809Y-92726190D01*
X160654761Y-92726190D01*
X160607142Y-92702380D01*
X160583333Y-92678571D01*
D11*
X162452380Y-111947619D02*
X162357142Y-111900000D01*
X162261904Y-111804761D01*
X162119047Y-111661904D01*
X162023809Y-111614285D01*
X161928571Y-111614285D01*
X161976190Y-111852380D02*
X161880952Y-111804761D01*
X161785714Y-111709523D01*
X161738095Y-111519047D01*
X161738095Y-111185714D01*
X161785714Y-110995238D01*
X161880952Y-110900000D01*
X161976190Y-110852380D01*
X162166666Y-110852380D01*
X162261904Y-110900000D01*
X162357142Y-110995238D01*
X162404761Y-111185714D01*
X162404761Y-111519047D01*
X162357142Y-111709523D01*
X162261904Y-111804761D01*
X162166666Y-111852380D01*
X161976190Y-111852380D01*
X162785714Y-110947619D02*
X162833333Y-110900000D01*
X162928571Y-110852380D01*
X163166666Y-110852380D01*
X163261904Y-110900000D01*
X163309523Y-110947619D01*
X163357142Y-111042857D01*
X163357142Y-111138095D01*
X163309523Y-111280952D01*
X162738095Y-111852380D01*
X163357142Y-111852380D01*
X163976190Y-110852380D02*
X164071428Y-110852380D01*
X164166666Y-110900000D01*
X164214285Y-110947619D01*
X164261904Y-111042857D01*
X164309523Y-111233333D01*
X164309523Y-111471428D01*
X164261904Y-111661904D01*
X164214285Y-111757142D01*
X164166666Y-111804761D01*
X164071428Y-111852380D01*
X163976190Y-111852380D01*
X163880952Y-111804761D01*
X163833333Y-111757142D01*
X163785714Y-111661904D01*
X163738095Y-111471428D01*
X163738095Y-111233333D01*
X163785714Y-111042857D01*
X163833333Y-110947619D01*
X163880952Y-110900000D01*
X163976190Y-110852380D01*
X164690476Y-110947619D02*
X164738095Y-110900000D01*
X164833333Y-110852380D01*
X165071428Y-110852380D01*
X165166666Y-110900000D01*
X165214285Y-110947619D01*
X165261904Y-111042857D01*
X165261904Y-111138095D01*
X165214285Y-111280952D01*
X164642857Y-111852380D01*
X165261904Y-111852380D01*
M02*
